<?xml version="1.0" standalone="no"?>
<!DOCTYPE svg PUBLIC "-//W3C//DTD SVG 1.1//EN" "http://www.w3.org/Graphics/SVG/1.1/DTD/svg11.dtd" >
<svg>
<metadata>
Created by FontForge 20120731 at Wed Jun 17 21:35:19 2015
 By ,,,
Copyright (c) 2006-2010 by Jan Fromm. All rights reserved.
</metadata>
<defs>
<font id="405b4c720291d3b41305b82d9110ddb113682c2d9c731213cef4c46022ed230" horiz-adv-x="1085" >
  <font-face 
    font-family="405b4c720291d3b41305b82d9110ddb113682c2d9c731213cef4c46022ed2300"
    font-weight="700"
    font-style="italic"
    font-stretch="normal"
    units-per-em="2048"
    panose-1="2 11 8 3 4 3 2 9 2 3"
    ascent="1659"
    descent="-389"
    x-height="1016"
    cap-height="1423"
    bbox="-335 -471 2127 1953"
    underline-thickness="200"
    underline-position="-50"
    slope="-11"
    unicode-range="U+0020-2122"
  />
<missing-glyph 
d="M356 719q-16 0 -16 -21q0 -20 16 -20h74v-238q0 -65 -51 -65q-23 0 -31 4t-16 4q-17 0 -17 -21q0 -14 11 -18q10 -4 23 -6t26 -2q106 0 106 104v246q0 33 -32 33h-93zM561 360q0 -20 25 -20q26 0 26 20v152h142q14 0 14 20q0 21 -14 21h-142v125h158q16 0 16 20
q0 21 -16 21h-174q-35 0 -35 -33v-326zM197 539q0 73 26.5 137.5t72.5 111t109.5 73t137.5 26.5q73 0 137.5 -26.5t111 -73t73 -111t26.5 -137.5q0 -74 -26.5 -137.5t-73 -109.5t-111 -72.5t-137.5 -26.5q-74 0 -137.5 26.5t-109.5 72.5t-72.5 109.5t-26.5 137.5z" />
    <glyph glyph-name=".notdef" 
d="M356 719q-16 0 -16 -21q0 -20 16 -20h74v-238q0 -65 -51 -65q-23 0 -31 4t-16 4q-17 0 -17 -21q0 -14 11 -18q10 -4 23 -6t26 -2q106 0 106 104v246q0 33 -32 33h-93zM561 360q0 -20 25 -20q26 0 26 20v152h142q14 0 14 20q0 21 -14 21h-142v125h158q16 0 16 20
q0 21 -16 21h-174q-35 0 -35 -33v-326zM197 539q0 73 26.5 137.5t72.5 111t109.5 73t137.5 26.5q73 0 137.5 -26.5t111 -73t73 -111t26.5 -137.5q0 -74 -26.5 -137.5t-73 -109.5t-111 -72.5t-137.5 -26.5q-74 0 -137.5 26.5t-109.5 72.5t-72.5 109.5t-26.5 137.5z" />
    <glyph glyph-name=".null" horiz-adv-x="0" 
 />
    <glyph glyph-name="nonmarkingreturn" horiz-adv-x="682" 
 />
    <glyph glyph-name="space" unicode=" " horiz-adv-x="512" 
 />
    <glyph glyph-name="space" unicode="&#xa0;" horiz-adv-x="512" 
 />
    <glyph glyph-name="exclam" unicode="!" horiz-adv-x="633" 
d="M369 1511h285l-248 -1091h-216zM391 190q0 -15 -1.5 -32t-4.5 -36q-8 -39 -20 -66t-31.5 -42.5t-49 -22.5t-73.5 -7q-64 0 -93 16.5t-29 58.5q0 15 1.5 31.5t4.5 36.5q8 39 20 66t31.5 42.5t49.5 23t73 7.5q64 0 93 -17t29 -59z" />
    <glyph glyph-name="quotedbl" unicode="&#x22;" horiz-adv-x="810" 
d="M292 1511h242l-125 -507h-189zM665 1511h242l-125 -507h-189z" />
    <glyph glyph-name="numbersign" unicode="#" 
d="M156 368h-145l36 182h167l111 318h-153l37 182h174l129 373h213l-129 -373h189l128 373h213l-129 -373h144l-37 -182h-165l-112 -318h149l-36 -182h-169l-126 -368h-214l127 368h-187l-129 -368h-213zM615 550l111 318h-188l-111 -318h188z" />
    <glyph glyph-name="dollar" unicode="$" 
d="M863 1603l-45 -230q62 -3 120 -10.5t118 -24.5l-46 -210q-63 17 -136 26.5t-143 9.5q-65 0 -113 -9.5t-81.5 -29.5t-50 -49.5t-16.5 -67.5q0 -30 10 -53t34 -47t64 -51.5t102 -64.5q80 -50 134.5 -92t87.5 -82.5t46.5 -85t13.5 -100.5q0 -91 -26.5 -164t-80.5 -128.5
t-134.5 -91t-188.5 -48.5l-47 -245h-203l45 239q-64 4 -128 12.5t-143 29.5l46 209q76 -19 162 -31t169 -12q61 0 110 11.5t83 34t53 55.5t19 75q0 30 -10 54.5t-34 50t-66 54t-106 66.5q-78 48 -130 88t-83.5 80t-46 83.5t-14.5 100.5q0 87 26 156.5t77.5 121t126.5 84
t175 45.5l46 241h204z" />
    <glyph glyph-name="percent" unicode="%" horiz-adv-x="1677" 
d="M1406 1477l134 -109l-1199 -1419l-135 107zM787 1194q0 -30 -3 -60t-12 -75q-21 -106 -53.5 -177.5t-78.5 -114t-104.5 -60.5t-130.5 -18q-55 0 -100.5 13t-78 42.5t-50.5 77t-18 115.5q0 29 3 60t12 76q20 106 53.5 176.5t79 113t104 61t130.5 18.5q54 0 100 -13
t78.5 -42.5t50.5 -77t18 -115.5zM591 1196q0 53 -19 73t-54 20q-23 0 -44.5 -9.5t-40 -35.5t-34.5 -70t-29 -113q-7 -34 -11.5 -65.5t-4.5 -60.5q0 -53 19 -73t54 -20q23 0 44.5 10.5t40 35.5t34.5 69.5t30 113.5q6 34 10.5 64.5t4.5 60.5zM1596 485q0 -30 -3 -60t-12 -75
q-21 -106 -53.5 -177.5t-78.5 -114t-104.5 -60.5t-130.5 -18q-55 0 -100.5 13t-78 42.5t-50.5 77t-18 115.5q0 29 3 60t12 76q20 106 53.5 176.5t79 113t104 61t130.5 18.5q54 0 100 -13t78.5 -42.5t50.5 -77t18 -115.5zM1400 487q0 53 -19 73t-54 20q-23 0 -44.5 -9.5
t-40 -35.5t-34.5 -70t-29 -113q-7 -34 -11.5 -65.5t-4.5 -60.5q0 -53 19 -73t54 -20q23 0 44.5 10.5t40 35.5t34.5 69.5t30 113.5q6 34 10.5 64.5t4.5 60.5z" />
    <glyph glyph-name="ampersand" unicode="&#x26;" horiz-adv-x="1345" 
d="M1099 -41q-25 27 -46 51t-41 46t-40.5 46t-45.5 52q-88 -80 -208.5 -132.5t-261.5 -52.5q-96 0 -172.5 25.5t-130.5 71t-82.5 108.5t-28.5 139q0 93 31.5 165t82 132t116.5 107.5t134 92.5q-40 66 -72 147t-32 169q0 100 33.5 178.5t93 131.5t145 80t188.5 27
q93 0 158.5 -22.5t106 -60.5t59 -86t18.5 -99q0 -90 -33 -164t-86 -134.5t-120 -112t-136 -96.5q28 -39 53.5 -75t53 -70t55.5 -67.5t59 -69.5q34 55 63 116.5t48 138.5h222q-34 -127 -82 -230t-110 -186q27 -31 49 -56.5t43.5 -49.5t45.5 -49t50 -54zM528 638
q-43 -30 -83 -59.5t-72.5 -63.5t-52.5 -76t-20 -96q0 -76 49.5 -123t142.5 -47q84 0 162 37.5t136 98.5q-35 40 -68 80.5t-65.5 81t-65 82t-63.5 85.5zM851 1227q0 47 -30.5 80.5t-97.5 33.5q-86 0 -131.5 -48.5t-45.5 -140.5q0 -55 22 -111t47 -103q50 33 93 66.5t75 68
t50 72.5t18 82z" />
    <glyph glyph-name="quotesingle" unicode="'" horiz-adv-x="437" 
d="M292 1511h242l-125 -507h-189z" />
    <glyph glyph-name="parenleft" unicode="(" horiz-adv-x="633" 
d="M263 -370q-38 85 -66 163.5t-46.5 158t-27.5 162t-9 176.5q0 218 49 417t125.5 371t173.5 317.5t192 258.5l169 -105q-87 -114 -170.5 -251t-149.5 -293.5t-107.5 -331t-41.5 -363.5q0 -74 5 -145.5t15.5 -144t29 -147t46.5 -151.5z" />
    <glyph glyph-name="parenright" unicode=")" horiz-adv-x="633" 
d="M-140 -265q86 114 169.5 251t149.5 293.5t107.5 330t41.5 364.5q0 74 -5 145.5t-15 144.5t-29 146.5t-47 151.5l188 92q37 -86 65.5 -164.5t47 -158t27 -162t8.5 -175.5q0 -219 -48.5 -418t-125 -370.5t-173.5 -316.5t-192 -259z" />
    <glyph glyph-name="asterisk" unicode="*" horiz-adv-x="836" 
d="M463 1076l-175 -113l-67 156l211 76l-184 94l110 149l150 -132l9 205h191l-71 -204l175 113l67 -156l-212 -75l185 -96l-111 -147l-150 131l-8 -205h-192z" />
    <glyph glyph-name="plus" unicode="+" 
d="M120 690h342l72 368h216l-72 -368h345l-39 -204h-345l-72 -369h-215l72 369h-343z" />
    <glyph glyph-name="comma" unicode="," horiz-adv-x="504" 
d="M-94 -255q24 36 44.5 68.5t39.5 63t36.5 59.5t33.5 59q-15 6 -29 26t-14 50q0 15 1.5 30.5t4.5 34.5q8 43 20.5 71t33 45t52 24.5t78.5 7.5q71 0 101.5 -22t30.5 -70q0 -49 -9.5 -91.5t-30.5 -82.5q-18 -34 -51 -77.5t-72.5 -89t-82.5 -89t-83 -80.5z" />
    <glyph glyph-name="hyphen" unicode="-" horiz-adv-x="873" 
d="M159 662h611l-45 -235h-612z" />
    <glyph glyph-name="period" unicode="." horiz-adv-x="504" 
d="M338 199q0 -15 -1.5 -31.5t-4.5 -35.5q-8 -43 -20.5 -71.5t-33 -45.5t-51.5 -24t-78 -7q-71 0 -102 18t-31 65q0 16 1.5 33t4.5 36q8 43 21 71t33.5 45t51.5 24.5t78 7.5q71 0 101.5 -18t30.5 -67z" />
    <glyph glyph-name="slash" unicode="/" horiz-adv-x="847" 
d="M787 1511h250l-967 -1736h-251z" />
    <glyph glyph-name="zero" unicode="0" 
d="M1083 1058q0 -76 -8.5 -154t-30.5 -190q-43 -221 -100 -364.5t-131.5 -227.5t-167 -117.5t-206.5 -33.5q-85 0 -151 19.5t-112 66t-69.5 122.5t-23.5 186q0 76 8.5 154t30.5 191q43 221 100 364.5t131.5 227t167 117t206.5 33.5q85 0 150.5 -19.5t111.5 -66t70 -122.5
t24 -186zM830 1070q0 48 -8 81.5t-24 54.5t-42.5 30t-62.5 9q-50 0 -92.5 -22.5t-80.5 -82t-73.5 -165t-66.5 -272.5q-9 -44 -17 -91t-14.5 -92t-9.5 -87t-3 -80q0 -47 8 -81t24 -54.5t42.5 -30t62.5 -9.5q50 0 92.5 22.5t80.5 82.5t72.5 165.5t66.5 272.5q9 44 17.5 90.5
t15 91.5t9.5 87t3 80z" />
    <glyph glyph-name="one" unicode="1" 
d="M86 218h306l178 921l-256 -106l-60 171l424 219h210l-235 -1205h263l-42 -218h-830z" />
    <glyph glyph-name="two" unicode="2" 
d="M49 185l414 431q74 78 136 143t108 122.5t71.5 112t25.5 111.5q0 69 -44 102t-153 33q-66 0 -136.5 -11t-140.5 -31l-20 198q87 23 190 38.5t199 15.5q101 0 175 -19.5t121.5 -57t71 -91.5t23.5 -124q0 -87 -28 -165.5t-80.5 -154.5t-127 -152.5t-167.5 -162.5l-313 -296
h542l-43 -227h-859z" />
    <glyph glyph-name="three" unicode="3" 
d="M62 218q68 -15 132.5 -25t145.5 -10q77 0 142 19t112.5 55t74 90.5t26.5 125.5q0 40 -17 71.5t-60 54.5t-116.5 35.5t-187.5 12.5l40 205q115 0 197 19.5t133.5 54t75.5 82t24 103.5q0 64 -43.5 96.5t-140.5 32.5q-74 0 -146.5 -11t-147.5 -32l-10 200q95 22 191.5 37.5
t202.5 15.5q177 0 273.5 -68.5t96.5 -201.5q0 -89 -28 -158.5t-73 -120.5t-100.5 -85.5t-109.5 -54.5q50 -12 88 -36t65 -58t41.5 -77.5t14.5 -94.5q0 -123 -44 -220.5t-124.5 -164.5t-196 -102t-258.5 -35q-93 0 -168 10.5t-150 28.5z" />
    <glyph glyph-name="four" unicode="4" 
d="M583 292h-553l44 230l570 901h409l-177 -903h139l-43 -228h-139l-57 -292h-249zM626 520l140 717l-450 -717h310z" />
    <glyph glyph-name="five" unicode="5" 
d="M1085 1423l-45 -226h-513l-67 -348q46 6 84.5 10t86.5 4q178 0 259.5 -78.5t81.5 -241.5q0 -146 -48.5 -253.5t-134.5 -177.5t-204.5 -104.5t-260.5 -34.5q-78 0 -152 10.5t-150 27.5l42 208q72 -18 141.5 -27t135.5 -9q78 0 144.5 20.5t115.5 59.5t76.5 97.5t27.5 133.5
q0 84 -50.5 121.5t-160.5 37.5q-70 0 -138.5 -6t-151.5 -18l154 794h727z" />
    <glyph glyph-name="six" unicode="6" 
d="M1055 1211q-50 12 -103.5 20.5t-120.5 8.5q-100 0 -164 -32.5t-106.5 -91.5t-69.5 -144t-53 -189q62 30 128 50.5t135 20.5q79 0 137 -21t95 -60.5t55 -95.5t18 -125q0 -140 -42 -248.5t-114.5 -182.5t-171.5 -112t-213 -38q-171 0 -262 91.5t-91 285.5q0 52 6 109.5
t19 124.5q44 222 97 386t134.5 271t199.5 159t292 52q71 0 132 -9.5t117 -26.5zM743 510q0 69 -31.5 103t-101.5 34q-50 0 -103 -21.5t-109 -57.5q-17 -68 -25.5 -121.5t-8.5 -96.5q0 -89 34 -130.5t100 -41.5q45 0 90 21.5t79 64t55 104t21 142.5z" />
    <glyph glyph-name="seven" unicode="7" 
d="M178 0q89 166 173 318t166.5 297t167 288.5t176.5 293.5h-627l45 226h909l-37 -194q-94 -156 -181 -303t-170.5 -296t-166.5 -304.5t-170 -325.5h-285v0z" />
    <glyph glyph-name="eight" unicode="8" 
d="M982 454q0 -115 -41 -205.5t-113.5 -152t-169 -93.5t-206.5 -32q-179 0 -279 82.5t-100 225.5q0 93 26 163t70 124t102.5 94t122.5 73q-72 48 -112.5 114.5t-40.5 165.5q0 107 39 189.5t106 138t157 83.5t191 28q93 0 160.5 -22t111 -59.5t64.5 -88t21 -108.5
q0 -85 -25.5 -151.5t-68 -117.5t-95 -90t-106.5 -68q88 -51 137 -123.5t49 -169.5zM830 1118q0 26 -6.5 49t-22 40.5t-40.5 27.5t-63 10q-43 0 -79 -13.5t-62 -39t-41 -63t-15 -84.5q0 -30 7 -55t21.5 -47.5t37.5 -43.5t58 -41q41 19 78 44t65.5 56t45 71t16.5 89zM718 415
q0 65 -33.5 112.5t-120.5 94.5q-47 -21 -89 -48.5t-74.5 -63t-51.5 -81.5t-19 -102q0 -69 38 -109t112 -40q48 0 91 16t75.5 46.5t52 74.5t19.5 100z" />
    <glyph glyph-name="nine" unicode="9" 
d="M86 223q76 -21 135.5 -30.5t131.5 -9.5q99 0 163.5 32t106.5 92t69 144.5t52 188.5q-61 -30 -127 -50.5t-135 -20.5q-79 0 -136.5 21t-95 61t-55.5 95.5t-18 124.5q0 140 42 249.5t115 182.5t171.5 111t213.5 38q170 0 261 -91t91 -285q0 -52 -6 -109.5t-19 -125.5
q-45 -222 -97 -386t-133.5 -270.5t-199.5 -159t-292 -52.5q-87 0 -155.5 14.5t-139.5 34.5zM440 913q0 -69 32 -102.5t101 -33.5q50 0 103 21t109 58q18 67 26 120.5t8 97.5q0 89 -33.5 130t-99.5 41q-47 0 -91 -21.5t-78.5 -63.5t-55.5 -104t-21 -143z" />
    <glyph glyph-name="colon" unicode=":" horiz-adv-x="442" 
d="M338 199q0 -15 -1.5 -31.5t-4.5 -35.5q-8 -43 -20.5 -71.5t-33 -45.5t-51.5 -24t-78 -7q-71 0 -102 18t-31 65q0 16 1.5 33t4.5 36q8 43 21 71t33.5 45t51.5 24.5t78 7.5q71 0 101.5 -18t30.5 -67zM470 874q0 -16 -2 -32t-5 -35q-8 -43 -20.5 -71.5t-32.5 -45.5
t-51.5 -24.5t-77.5 -7.5q-72 0 -103 18t-31 66q0 15 1.5 32t5.5 37q8 42 20.5 70.5t33 45.5t52 24t78.5 7q70 0 101 -18t31 -66z" />
    <glyph glyph-name="semicolon" unicode=";" horiz-adv-x="443" 
d="M-95 -255q24 36 45 68.5t39.5 63t36 59.5t34.5 59q-16 6 -30 26t-14 49q0 15 1.5 31t4.5 35q8 43 21 71t33.5 45t51.5 24.5t78 7.5q71 0 101.5 -22t30.5 -70q0 -49 -9.5 -91.5t-30.5 -82.5q-18 -34 -51 -77.5t-72.5 -89t-82 -89t-83.5 -80.5zM470 874q0 -16 -2 -32
t-5 -35q-8 -43 -20.5 -71.5t-32.5 -45.5t-51.5 -24.5t-77.5 -7.5q-72 0 -103 18t-31 66q0 15 1.5 32t5.5 37q8 42 20.5 70.5t33 45.5t52 24t78.5 7q70 0 101 -18t31 -66z" />
    <glyph glyph-name="less" unicode="&#x3c;" 
d="M177 704l846 414l-46 -243l-595 -295l480 -303l-46 -222l-685 419z" />
    <glyph glyph-name="equal" unicode="=" 
d="M186 897h863l-39 -203h-863zM106 483h863l-38 -203h-864z" />
    <glyph glyph-name="greater" unicode="&#x3e;" 
d="M158 299l594 296l-479 301l45 222l686 -418l-44 -230l-848 -415z" />
    <glyph glyph-name="question" unicode="?" horiz-adv-x="834" 
d="M236 557q11 65 25 112.5t36.5 88.5t56 80.5t83.5 88.5q46 46 84 83.5t64.5 71t41.5 65.5t15 65q0 25 -8.5 44.5t-27 34.5t-48.5 23t-76 8q-55 0 -111 -6t-118 -21l-16 197q73 18 155 28t169 10q177 0 268.5 -69.5t91.5 -196.5q0 -71 -17 -125.5t-49.5 -104t-80 -96.5
t-108.5 -103q-46 -41 -80.5 -75t-61.5 -68t-43.5 -73.5t-28.5 -90.5l-22 -108h-216zM415 190q0 -15 -1.5 -32t-5.5 -36q-8 -39 -19.5 -66t-31 -42.5t-49.5 -22.5t-73 -7q-64 0 -93.5 16.5t-29.5 58.5q0 15 2 31.5t5 36.5q8 39 19.5 66t31 42.5t49.5 23t73 7.5q64 0 93.5 -17
t29.5 -59z" />
    <glyph glyph-name="at" unicode="@" horiz-adv-x="2133" 
d="M1442 438q-18 -70 7 -100t73 -30q42 0 90.5 35.5t90.5 103.5t70.5 169t28.5 234q0 87 -29 159.5t-99.5 125t-184.5 82t-284 29.5q-172 0 -322.5 -51.5t-262 -158t-177 -269t-65.5 -383.5q0 -101 27.5 -187t88.5 -149t158 -98t239 -35q123 0 252.5 10.5t251.5 37.5
l15 -203q-125 -28 -261 -40.5t-274 -12.5q-183 0 -322 47t-233.5 132.5t-142 207t-47.5 270.5q0 279 87 483t236 339.5t347.5 201.5t421.5 66q222 0 379.5 -44t259 -122.5t148.5 -185.5t47 -232q0 -193 -53 -331.5t-137 -228.5t-187 -131.5t-204 -41.5q-111 0 -177.5 44
t-79.5 110q-37 -34 -76 -62t-82.5 -49t-89.5 -31.5t-98 -10.5q-125 0 -200 72.5t-75 223.5q0 122 43.5 231t118 190t172.5 128.5t208 47.5q69 0 125.5 -18t95.5 -45l19 43h202zM1284 799q-30 23 -65 37t-83 14q-57 0 -107 -33t-88 -87t-61 -121.5t-23 -137.5
q0 -76 23.5 -110.5t74.5 -34.5q53 0 115 39.5t132 109.5z" />
    <glyph glyph-name="A" unicode="A" horiz-adv-x="1263" 
d="M604 1423h403l132 -1423h-276l-32 359h-467l-169 -359h-271zM826 569l-30 356q-4 43 -7.5 83t-7.5 80t-7 80t-6 84h-2l-38 -85.5t-36.5 -81t-38.5 -80.5t-41 -86l-163 -350h377z" />
    <glyph glyph-name="B" unicode="B" horiz-adv-x="1197" 
d="M326 1423h396q133 0 223.5 -18t146.5 -54.5t80.5 -92.5t24.5 -131q0 -76 -24.5 -137t-65 -108.5t-92 -79.5t-104.5 -51q98 -24 148.5 -92t50.5 -159q0 -120 -46.5 -212.5t-132.5 -156.5t-207 -97.5t-267 -33.5h-407zM489 209q166 0 254.5 70t88.5 193q0 35 -10.5 63.5
t-39 50t-78.5 33.5t-129 12h-133l-82 -422h129zM596 833q86 0 146.5 19.5t98.5 52.5t56.5 76.5t18.5 93.5q0 37 -11.5 63.5t-38 43.5t-69.5 25t-107 8h-134l-75 -382h115z" />
    <glyph glyph-name="B" unicode="&#xe000;" horiz-adv-x="1197" 
d="M326 1423h396q133 0 223.5 -18t146.5 -54.5t80.5 -92.5t24.5 -131q0 -76 -24.5 -137t-65 -108.5t-92 -79.5t-104.5 -51q98 -24 148.5 -92t50.5 -159q0 -120 -46.5 -212.5t-132.5 -156.5t-207 -97.5t-267 -33.5h-407zM489 209q166 0 254.5 70t88.5 193q0 35 -10.5 63.5
t-39 50t-78.5 33.5t-129 12h-133l-82 -422h129zM596 833q86 0 146.5 19.5t98.5 52.5t56.5 76.5t18.5 93.5q0 37 -11.5 63.5t-38 43.5t-69.5 25t-107 8h-134l-75 -382h115z" />
    <glyph glyph-name="C" unicode="C" horiz-adv-x="1028" 
d="M903 22q-80 -20 -169 -33t-178 -13q-107 0 -190.5 23t-141 74t-87 134.5t-29.5 204.5q0 33 1.5 67t6 70.5t9.5 76.5t16 87q41 211 106 351.5t153 226t200.5 121.5t250.5 36q76 0 149.5 -12t137.5 -30l-63 -206q-58 16 -108.5 24.5t-110.5 8.5q-88 0 -158.5 -26
t-124.5 -87.5t-93.5 -163t-67.5 -251.5q-14 -75 -22 -138.5t-8 -124.5q0 -72 15 -120.5t46 -78t76 -41t107 -11.5q64 0 131 10.5t139 29.5z" />
    <glyph glyph-name="D" unicode="D" horiz-adv-x="1297" 
d="M326 1423h432q128 0 225 -19.5t161.5 -68t96.5 -129.5t32 -203q0 -65 -8 -131.5t-24 -155.5q-40 -204 -108.5 -341t-166 -220.5t-224.5 -119t-281 -35.5h-411zM486 215q88 0 165 22.5t138 79.5t107 155t75 251q12 69 20.5 128t8.5 116q0 72 -16 119t-51 74t-87 37.5
t-124 10.5h-168l-192 -993h124z" />
    <glyph glyph-name="E" unicode="E" horiz-adv-x="1042" 
d="M326 1423h801l-43 -215h-530l-74 -375h494l-41 -210h-493l-78 -408h529l-41 -215h-800z" />
    <glyph glyph-name="E" unicode="&#xe001;" horiz-adv-x="1042" 
d="M326 1423h801l-43 -215h-530l-74 -375h494l-41 -210h-493l-78 -408h529l-41 -215h-800z" />
    <glyph glyph-name="F" unicode="F" horiz-adv-x="992" 
d="M326 1423h786l-43 -215h-515l-74 -375h474l-40 -210h-474l-120 -623h-270z" />
    <glyph glyph-name="G" unicode="G" horiz-adv-x="1243" 
d="M1031 52q-94 -35 -211.5 -57t-239.5 -22q-114 0 -201.5 23t-148 75.5t-91.5 137t-31 206.5q0 62 8 135.5t26 160.5q41 209 107.5 349.5t159 227t210.5 123.5t263 37q110 0 202 -16.5t176 -40.5l-67 -204q-82 21 -164 33.5t-162 12.5q-87 0 -158 -26.5t-127 -89
t-98.5 -164t-71.5 -248.5q-13 -69 -22 -136t-9 -127q0 -71 14.5 -119.5t42.5 -78.5t70 -43t99 -13q55 0 108 9.5t92 22.5l78 399h-239l42 212h495z" />
    <glyph glyph-name="H" unicode="H" horiz-adv-x="1346" 
d="M326 1423h270l-114 -582h511l113 582h270l-276 -1423h-270l120 618h-510l-120 -618h-270z" />
    <glyph glyph-name="I" unicode="I" horiz-adv-x="566" 
d="M326 1423h270l-276 -1423h-270z" />
    <glyph glyph-name="J" unicode="J" horiz-adv-x="716" 
d="M552 374q-22 -110 -58.5 -185t-92 -121t-129.5 -65.5t-170 -19.5q-60 0 -111.5 7t-98.5 19l50 209q39 -8 78 -13t75 -5q83 0 126 44t63 139l202 1040h270z" />
    <glyph glyph-name="K" unicode="K" horiz-adv-x="1162" 
d="M326 1423h270l-130 -668l545 668h321l-593 -693l337 -730h-307l-314 702l-135 -702h-270z" />
    <glyph glyph-name="L" unicode="L" horiz-adv-x="937" 
d="M326 1423h270l-233 -1201h499l-43 -222h-769z" />
    <glyph glyph-name="M" unicode="M" horiz-adv-x="1883" 
d="M399 1423h416l55 -760q3 -58 6 -110.5t4.5 -106t2.5 -110t1 -122.5h6q24 66 46.5 122.5t44 109t44.5 105t48 111.5l350 761h420l-161 -1423h-276l104 819q7 53 14.5 105.5t16 104.5t17.5 104.5t19 110.5l-3 1q-23 -57 -45 -109t-45 -103t-46.5 -104t-48.5 -110l-366 -819
h-357l-51 819q-8 109 -12.5 211t-7.5 214l-4 -2q-12 -56 -23.5 -108.5t-23 -104t-24.5 -103.5t-28 -107l-212 -819h-274z" />
    <glyph glyph-name="N" unicode="N" horiz-adv-x="1408" 
d="M326 1423h340l233 -748q14 -49 26 -94.5t24.5 -91.5t24.5 -94t24 -103l2 1q9 108 21 201.5t29 180.5l146 748h242l-276 -1423h-342l-234 749q-15 47 -27.5 92.5t-23.5 92.5t-22 95t-21 103l-6 -2q-9 -106 -21 -200t-29 -181l-144 -749h-242z" />
    <glyph glyph-name="O" unicode="O" horiz-adv-x="1338" 
d="M1305 1004q0 -66 -8 -136t-25 -156q-40 -204 -103 -345t-151 -229.5t-201.5 -127.5t-252.5 -39q-110 0 -195 25t-142.5 79t-88 139.5t-30.5 204.5q0 67 8 137t25 156q38 202 101.5 343.5t152 230t201.5 127.5t253 39q109 0 194 -24.5t142.5 -79t88.5 -139.5t31 -205z
M1032 991q0 62 -12.5 108t-38.5 77t-66.5 46.5t-96.5 15.5q-75 0 -136 -29t-111 -93.5t-89 -165.5t-67 -245q-8 -34 -13.5 -70t-10.5 -70.5t-7.5 -68.5t-2.5 -63q0 -63 12.5 -109t38.5 -77t66 -46.5t97 -15.5q73 0 134.5 29.5t112 93.5t89 165t67.5 246q7 34 12.5 69.5
t10.5 70.5t8 68.5t3 63.5z" />
    <glyph glyph-name="P" unicode="P" horiz-adv-x="1107" 
d="M326 1423h389q127 0 214 -21.5t140 -61t76.5 -97t23.5 -130.5q0 -147 -48 -252.5t-133 -174t-199 -100.5t-248 -32h-114l-107 -554h-270zM574 763q61 0 119 18t102.5 56.5t71.5 97.5t27 138q0 73 -46.5 107.5t-165.5 34.5h-126l-89 -452h107z" />
    <glyph glyph-name="Q" unicode="Q" horiz-adv-x="1338" 
d="M952 -258l-158 269q-42 -18 -99 -29t-131 -11q-110 0 -195 25t-142.5 79t-88 139.5t-30.5 204.5q0 67 8 137t25 156q38 202 101.5 343.5t152 230t201.5 127.5t253 39q109 0 194 -24.5t142.5 -79t88.5 -139.5t31 -205q0 -66 -8 -136t-25 -156q-22 -114 -49.5 -203
t-60 -158t-69 -121.5t-77.5 -92.5l168 -263zM1032 991q0 62 -12.5 108t-38.5 77t-66.5 46.5t-96.5 15.5q-75 0 -136 -29t-111 -93.5t-89 -165.5t-67 -245q-8 -34 -13.5 -70t-10.5 -70.5t-7.5 -68.5t-2.5 -63q0 -63 12.5 -109t38.5 -77t66 -46.5t97 -15.5q73 0 134.5 29.5
t112 92.5t89 164t67.5 248q7 34 12.5 69.5t10.5 70.5t8 68.5t3 63.5z" />
    <glyph glyph-name="R" unicode="R" horiz-adv-x="1179" 
d="M326 1423h400q136 0 227.5 -19.5t148 -57.5t80.5 -93.5t24 -125.5q0 -102 -29.5 -181t-83.5 -138t-128.5 -96t-162.5 -52l238 -660h-301l-206 624h-91l-122 -624h-270zM613 832q141 0 230 60.5t89 180.5q0 36 -12 62.5t-39 44.5t-73 26.5t-115 8.5h-137l-75 -383h132z
" />
    <glyph glyph-name="S" unicode="S" horiz-adv-x="1008" 
d="M73 227q79 -18 150.5 -31t157.5 -13q66 0 117.5 12.5t85 36t50.5 60.5t17 86q0 32 -8.5 57.5t-32.5 53t-66.5 62.5t-110.5 87q-75 56 -124.5 102t-77.5 89.5t-39.5 89t-11.5 103.5q0 217 134 321.5t401 104.5q75 0 146.5 -7.5t143.5 -25.5l-46 -208q-35 8 -66 14t-62 10
t-64 6.5t-70 2.5q-126 0 -187.5 -41t-61.5 -126q0 -33 10 -59t33 -52.5t60.5 -57.5t94.5 -72q85 -67 139 -117t85 -94.5t41.5 -88.5t10.5 -98q0 -115 -36 -201t-107 -143.5t-177 -86t-247 -28.5q-50 0 -92 3.5t-81 8.5t-77 13t-78 19z" />
    <glyph glyph-name="S" unicode="&#xe002;" horiz-adv-x="1008" 
d="M73 227q79 -18 150.5 -31t157.5 -13q66 0 117.5 12.5t85 36t50.5 60.5t17 86q0 32 -8.5 57.5t-32.5 53t-66.5 62.5t-110.5 87q-75 56 -124.5 102t-77.5 89.5t-39.5 89t-11.5 103.5q0 217 134 321.5t401 104.5q75 0 146.5 -7.5t143.5 -25.5l-46 -208q-35 8 -66 14t-62 10
t-64 6.5t-70 2.5q-126 0 -187.5 -41t-61.5 -126q0 -33 10 -59t33 -52.5t60.5 -57.5t94.5 -72q85 -67 139 -117t85 -94.5t41.5 -88.5t10.5 -98q0 -115 -36 -201t-107 -143.5t-177 -86t-247 -28.5q-50 0 -92 3.5t-81 8.5t-77 13t-78 19z" />
    <glyph glyph-name="T" unicode="T" horiz-adv-x="1061" 
d="M531 1202h-381l43 221h1030l-44 -221h-378l-232 -1202h-271z" />
    <glyph glyph-name="U" unicode="U" horiz-adv-x="1313" 
d="M571 1423l-166 -852q-9 -44 -15.5 -91t-6.5 -98q0 -50 10 -86t34.5 -60.5t63.5 -37.5t95 -13q70 0 126.5 24t100 72.5t73.5 124t52 181.5l163 836h270l-164 -840q-33 -162 -84 -277t-128.5 -190t-184.5 -110t-251 -35q-225 0 -336 95.5t-111 291.5q0 49 6 104t19 118
l164 843h270z" />
    <glyph glyph-name="V" unicode="V" horiz-adv-x="1257" 
d="M199 1423h274l62 -760q4 -57 8 -112.5t6.5 -115t5 -123t3.5 -132.5h5q28 69 53.5 132t51 122.5t50.5 115.5t53 113l360 760h276l-677 -1423h-405z" />
    <glyph glyph-name="W" unicode="W" horiz-adv-x="2001" 
d="M224 1423h278l14 -760q0 -55 -0.5 -111.5t-2.5 -116t-4.5 -123t-4.5 -131.5h4q23 67 44.5 130t42 121.5t41 116t44.5 114.5l306 760h386l6 -760v-113t-2 -115t-4.5 -122.5t-5.5 -131.5h3q24 68 47 131.5t45 123.5t42.5 116t42.5 111l310 760h271l-589 -1423h-400l-7 820
q0 57 0.5 111t1.5 106.5t3.5 104t6.5 102.5h-2q-19 -52 -37 -103t-37.5 -103t-40.5 -106.5t-42 -111.5l-324 -820h-400z" />
    <glyph glyph-name="X" unicode="X" horiz-adv-x="1293" 
d="M502 733l-307 690h294l234 -537l4 -1q19 24 35 46t32.5 43t34.5 43.5t37 47.5l285 358h292l-576 -705l320 -718h-299l-247 564l-5 1q-35 -47 -66.5 -87t-66.5 -86l-310 -392h-283z" />
    <glyph glyph-name="Y" unicode="Y" horiz-adv-x="1132" 
d="M434 531l-263 892h268l110 -352q14 -40 22.5 -73t17 -64t16.5 -63t16 -69h6q22 38 41 71.5t39 64.5t40.5 63.5t47.5 70.5l241 351h281l-617 -895l-103 -528h-266z" />
    <glyph glyph-name="Z" unicode="Z" horiz-adv-x="1007" 
d="M-16 176l767 1025h-536l44 222h866l-35 -175l-768 -1026h582l-41 -222h-912z" />
    <glyph glyph-name="bracketleft" unicode="[" horiz-adv-x="687" 
d="M357 1511h470l-37 -187h-239l-285 -1465h239l-36 -188h-470z" />
    <glyph glyph-name="backslash" unicode="\" horiz-adv-x="847" 
d="M209 1511h230l295 -1736h-231z" />
    <glyph glyph-name="bracketright" unicode="]" horiz-adv-x="687" 
d="M-73 -141h239l284 1465h-239l36 187h472l-358 -1840h-470z" />
    <glyph glyph-name="asciicircum" unicode="^" 
d="M592 1423h265l210 -693h-239l-144 468l-330 -468h-244z" />
    <glyph glyph-name="underscore" unicode="_" 
d="M-123 -245h1060l-44 -226h-1061z" />
    <glyph glyph-name="grave" unicode="`" horiz-adv-x="792" 
d="M499 1586l269 -326l-127 -119l-308 292z" />
    <glyph glyph-name="a" unicode="a" horiz-adv-x="1131" 
d="M678 130q-33 -32 -72 -59t-80.5 -47.5t-87 -31.5t-89.5 -11q-127 0 -203.5 79t-76.5 240q0 178 45.5 314.5t122.5 230t177 142t209 48.5q75 0 130.5 -19.5t96.5 -48.5l17 49h220l-196 -1016h-220zM775 774q-33 24 -68 37.5t-83 13.5q-64 0 -115.5 -43t-88 -111.5
t-57 -155.5t-20.5 -175q0 -72 26 -106t74 -34q53 0 120 49.5t136 138.5z" />
    <glyph glyph-name="b" unicode="b" horiz-adv-x="1128" 
d="M336 1511h266l-75 -383q-11 -59 -23.5 -109.5t-31.5 -110.5l2 -2q30 26 64.5 49.5t73.5 41t82 28t87 10.5q127 0 203.5 -79t76.5 -240q0 -176 -45.5 -313.5t-122.5 -231.5t-177 -142t-209 -48q-75 0 -130.5 19.5t-96.5 48.5l-18 -49h-219zM354 241q34 -24 69 -37t82 -13
q63 0 115.5 42.5t89 111t57.5 155.5t21 177q0 71 -26.5 105t-74.5 34q-52 0 -119.5 -49.5t-136.5 -139.5z" />
    <glyph glyph-name="b" unicode="&#xe003;" horiz-adv-x="1128" 
d="M336 1511h266l-75 -383q-11 -59 -23.5 -109.5t-31.5 -110.5l2 -2q30 26 64.5 49.5t73.5 41t82 28t87 10.5q127 0 203.5 -79t76.5 -240q0 -176 -45.5 -313.5t-122.5 -231.5t-177 -142t-209 -48q-75 0 -130.5 19.5t-96.5 48.5l-18 -49h-219zM354 241q34 -24 69 -37t82 -13
q63 0 115.5 42.5t89 111t57.5 155.5t21 177q0 71 -26.5 105t-74.5 34q-52 0 -119.5 -49.5t-136.5 -139.5z" />
    <glyph glyph-name="c" unicode="c" horiz-adv-x="838" 
d="M719 16q-63 -16 -132.5 -26.5t-137.5 -10.5q-87 0 -157.5 17.5t-120.5 57t-76.5 104t-26.5 160.5q0 20 1 40.5t3 42t5.5 46t9.5 55.5q25 144 75.5 245.5t121.5 165.5t159.5 94t189.5 30q67 0 126.5 -8.5t105.5 -23.5l-61 -196q-38 11 -73.5 15.5t-75.5 4.5
q-52 0 -97.5 -15.5t-83.5 -53t-68 -99t-51 -154.5q-9 -44 -13 -82.5t-4 -72.5q0 -90 44 -128t132 -38q46 0 94 7t104 22z" />
    <glyph glyph-name="d" unicode="d" horiz-adv-x="1131" 
d="M678 130q-33 -32 -72 -59t-80.5 -47.5t-87 -31.5t-89.5 -11q-127 0 -203.5 79t-76.5 240q0 178 45.5 314.5t122.5 230t177 142t209 48.5q61 0 111.5 -14.5t89.5 -37.5l3 2q5 56 11 105t17 101l62 320h267l-293 -1511h-220zM775 774q-33 24 -68 37.5t-83 13.5
q-64 0 -115.5 -43t-88 -111.5t-57 -155.5t-20.5 -175q0 -72 26 -106t74 -34q53 0 120 49.5t136 138.5z" />
    <glyph glyph-name="e" unicode="e" horiz-adv-x="995" 
d="M806 29q-73 -23 -164.5 -36.5t-190.5 -13.5q-94 0 -165.5 16t-119.5 56t-73 104t-25 161q0 41 4.5 88.5t12.5 95.5q25 143 75.5 247t122.5 170t163 97t194 31q159 0 247 -69t88 -192q0 -95 -39.5 -165t-118 -116.5t-198.5 -69t-280 -22.5q-3 -19 -5.5 -44.5t-2.5 -44.5
q0 -75 39.5 -105.5t124.5 -30.5q76 0 151 10.5t154 32.5zM373 585q180 -1 268.5 38t88.5 127q0 41 -29 65.5t-89 24.5q-45 0 -82.5 -14.5t-66.5 -45t-52 -79t-38 -116.5z" />
    <glyph glyph-name="f" unicode="f" horiz-adv-x="705" 
d="M334 -65q-21 -113 -58.5 -188t-93 -120t-129 -64.5t-166.5 -19.5q-42 0 -81.5 4.5t-82.5 13.5l41 201q41 -9 68.5 -10t59.5 -1q34 0 61 10.5t49.5 33t38.5 58.5t26 86l170 874h-149l40 203h148l27 134q23 112 60.5 187.5t94 120.5t132 63.5t175.5 18.5q50 0 97.5 -5
t91.5 -16l-42 -201q-42 9 -76.5 12t-75.5 3q-39 0 -69.5 -10.5t-53.5 -33t-40 -58t-27 -85.5l-26 -130h256l-39 -203h-256z" />
    <glyph glyph-name="g" unicode="g" horiz-adv-x="1131" 
d="M775 774q-33 24 -68 37.5t-82 13.5q-64 0 -115.5 -43t-88.5 -111.5t-57.5 -155.5t-20.5 -175q0 -72 26 -106t74 -34q53 0 120 49.5t136 138.5zM884 -34q-23 -114 -67 -194t-113 -131t-162.5 -73.5t-214.5 -22.5q-96 0 -172 9.5t-145 25.5l42 206q67 -15 135.5 -24
t153.5 -9q117 0 185 48.5t92 161.5q3 23 7.5 39.5t9.5 33t10.5 33t12.5 39.5l-2 2q-30 -27 -65 -50t-73.5 -41t-81.5 -28t-87 -10q-127 0 -203.5 79t-76.5 240q0 178 45.5 314.5t122.5 230t176.5 142t208.5 48.5q76 0 131.5 -19.5t96.5 -48.5l17 49h220z" />
    <glyph glyph-name="h" unicode="h" horiz-adv-x="1162" 
d="M336 1511h266l-75 -384q-11 -59 -24.5 -110.5t-32.5 -114.5l2 -2q31 26 69 50t82 43.5t93 30.5t102 11q132 0 194 -64t62 -185q0 -27 -4 -57t-10 -63l-128 -666h-266l123 638q5 23 7.5 45t2.5 42q0 46 -21.5 68.5t-68.5 22.5q-59 0 -134 -51t-146 -144l-120 -621h-266z
" />
    <glyph glyph-name="i" unicode="i" horiz-adv-x="550" 
d="M239 1016h267l-197 -1016h-266zM596 1406q0 -14 -1.5 -30.5t-5.5 -36.5q-8 -41 -19.5 -69.5t-32.5 -45t-52 -23.5t-76 -7q-71 0 -100.5 17.5t-29.5 65.5q0 14 1.5 30.5t4.5 36.5q7 42 19 70t33 45t51.5 24t77.5 7q70 0 100 -17.5t30 -66.5z" />
    <glyph glyph-name="j" unicode="j" horiz-adv-x="550" 
d="M298 -58q-23 -111 -60.5 -187t-94 -122.5t-130.5 -67t-169 -20.5q-42 0 -90.5 5.5t-88.5 14.5l39 201q41 -7 77.5 -10t73.5 -3q32 0 60.5 10.5t50.5 32.5t38.5 58t26.5 86l209 1076h267zM597 1406q0 -14 -1.5 -30.5t-5.5 -36.5q-8 -41 -20 -69.5t-32.5 -45t-51.5 -23.5
t-77 -7q-70 0 -100 17.5t-30 65.5q0 14 2 30.5t5 36.5q7 42 19 70t33 45t51.5 24t77.5 7q70 0 100 -17.5t30 -66.5z" />
    <glyph glyph-name="k" unicode="k" horiz-adv-x="1043" 
d="M336 1511h266l-179 -929l394 434h318l-459 -483l248 -533h-289l-225 516l-101 -516h-266z" />
    <glyph glyph-name="l" unicode="l" horiz-adv-x="550" 
d="M336 1511h266l-293 -1511h-266z" />
    <glyph glyph-name="m" unicode="m" horiz-adv-x="1746" 
d="M239 1016h220l-7 -134q34 32 74.5 60.5t85 49t93.5 32t100 11.5q110 0 166 -44.5t71 -118.5q35 34 76 63.5t87.5 51.5t97 35t104.5 13q128 0 188.5 -64t60.5 -185q0 -27 -3 -57t-9 -63l-129 -666h-267l124 638q5 23 7.5 45t2.5 42q0 46 -20 68.5t-64 22.5
q-57 0 -128 -52.5t-138 -142.5l-120 -621h-266l124 638q5 23 7.5 45t2.5 42q0 46 -20 68.5t-64 22.5q-56 0 -126 -51t-141 -144l-120 -621h-266z" />
    <glyph glyph-name="n" unicode="n" horiz-adv-x="1162" 
d="M239 1016h220l-7 -134q34 32 75.5 60.5t88.5 49t98 32t104 11.5q132 0 194 -64t62 -185q0 -27 -4 -57t-10 -63l-128 -666h-266l123 638q5 23 7.5 45t2.5 42q0 46 -21.5 68.5t-68.5 22.5q-59 0 -134 -51t-146 -144l-120 -621h-266z" />
    <glyph glyph-name="o" unicode="o" horiz-adv-x="1096" 
d="M1027 693q0 -38 -4.5 -82t-14.5 -101q-27 -145 -76.5 -247t-120.5 -167t-161.5 -95t-200.5 -30q-88 0 -159.5 18.5t-120 60.5t-75 109t-26.5 164q0 38 4.5 82t14.5 101q27 144 77 246.5t120.5 167.5t161.5 95t200 30q89 0 159.5 -19t120 -60.5t75.5 -108.5t26 -164z
M759 674q0 90 -36.5 126.5t-107.5 36.5q-45 0 -84.5 -16t-71.5 -54t-58 -101t-45 -160q-5 -21 -8.5 -44t-5.5 -44.5t-3.5 -40.5t-1.5 -35q0 -90 36.5 -127t107.5 -37q44 0 83.5 15.5t72 53.5t58.5 101.5t45 161.5q3 21 7.5 43.5t6.5 44.5t3.5 41t1.5 35z" />
    <glyph glyph-name="p" unicode="p" horiz-adv-x="1128" 
d="M239 1016h221l-6 -130q32 32 70 59t80.5 47.5t87.5 31.5t89 11q127 0 203.5 -79t76.5 -240q0 -176 -45.5 -313.5t-122.5 -231.5t-177 -142t-209 -48q-61 0 -110.5 14.5t-88.5 37.5l-3 -2q-6 -56 -12 -105t-17 -102l-49 -256h-267zM354 241q34 -24 69 -37t82 -13
q63 0 115.5 42.5t89 111t57.5 155.5t21 177q0 71 -26.5 105t-74.5 34q-52 0 -119.5 -49.5t-136.5 -139.5z" />
    <glyph glyph-name="q" unicode="q" horiz-adv-x="1131" 
d="M806 -432h-267l64 322q11 57 23.5 107.5t31.5 110.5l-2 2q-30 -27 -65 -50t-73.5 -41t-81.5 -28t-87 -10q-127 0 -203.5 78.5t-76.5 240.5q0 178 45.5 314.5t122.5 230t176.5 142t208.5 48.5q76 0 131.5 -19.5t96.5 -48.5l17 49h220zM775 774q-33 24 -68 37.5t-82 13.5
q-64 0 -115.5 -43t-88.5 -111.5t-57.5 -155.5t-20.5 -176q0 -71 26 -105t74 -34q53 0 120 49.5t136 138.5z" />
    <glyph glyph-name="r" unicode="r" horiz-adv-x="716" 
d="M239 1016h220l-7 -143q30 34 66 65t73.5 55t77 38.5t75.5 14.5q32 0 55 -12l-51 -252q-25 13 -58 13q-67 0 -132 -44.5t-130 -131.5l-119 -619h-266z" />
    <glyph glyph-name="s" unicode="s" horiz-adv-x="808" 
d="M54 210q64 -16 125.5 -24t116.5 -8q90 0 134 28t44 82q0 18 -7.5 33t-24 29.5t-45 33t-70.5 44.5q-60 35 -100 65.5t-64.5 61.5t-34.5 68t-10 87q0 165 108.5 246t322.5 81q56 0 112 -8t106 -19l-41 -195q-48 10 -98 16.5t-97 6.5q-81 0 -122 -24t-41 -75q0 -20 8 -35
t24.5 -30.5t42 -32t63.5 -37.5q63 -38 105.5 -69t67.5 -61.5t35.5 -64t10.5 -78.5q0 -92 -31.5 -158.5t-88.5 -109.5t-138 -63.5t-181 -20.5q-73 0 -138.5 9.5t-131.5 24.5z" />
    <glyph glyph-name="s" unicode="&#xe004;" horiz-adv-x="808" 
d="M54 210q64 -16 125.5 -24t116.5 -8q90 0 134 28t44 82q0 18 -7.5 33t-24 29.5t-45 33t-70.5 44.5q-60 35 -100 65.5t-64.5 61.5t-34.5 68t-10 87q0 165 108.5 246t322.5 81q56 0 112 -8t106 -19l-41 -195q-48 10 -98 16.5t-97 6.5q-81 0 -122 -24t-41 -75q0 -20 8 -35
t24.5 -30.5t42 -32t63.5 -37.5q63 -38 105.5 -69t67.5 -61.5t35.5 -64t10.5 -78.5q0 -92 -31.5 -158.5t-88.5 -109.5t-138 -63.5t-181 -20.5q-73 0 -138.5 9.5t-131.5 24.5z" />
    <glyph glyph-name="t" unicode="t" horiz-adv-x="718" 
d="M270 1016l56 285l273 36l-62 -321h217l-39 -203h-218l-95 -491q-4 -17 -5.5 -33.5t-1.5 -30.5q0 -39 18 -54.5t53 -15.5q31 0 60 4.5t57 12.5l6 -198q-56 -13 -108.5 -20t-109.5 -7q-68 0 -116.5 12t-79 37.5t-44.5 64t-14 90.5q0 24 3.5 49.5t8.5 54.5l101 525h-145
l40 203h145z" />
    <glyph glyph-name="u" unicode="u" horiz-adv-x="1163" 
d="M497 1016l-123 -638q-5 -23 -7.5 -45t-2.5 -42q0 -47 21 -69t68 -22q59 0 134 51t146 144l120 621h266l-196 -1016h-220l7 134q-34 -33 -75.5 -61t-88.5 -48.5t-98.5 -32t-103.5 -11.5q-132 0 -194 63.5t-62 184.5q0 28 4 57.5t10 63.5l128 666h267z" />
    <glyph glyph-name="v" unicode="v" horiz-adv-x="1019" 
d="M118 1016h265l44 -499q4 -46 6.5 -87.5t4.5 -81.5t2.5 -81.5t2.5 -89.5h3q19 49 36.5 90.5t34.5 81.5t34.5 80.5t39.5 87.5l241 499h264l-497 -1016h-377z" />
    <glyph glyph-name="w" unicode="w" horiz-adv-x="1701" 
d="M128 1016h269l24 -499q2 -41 3 -81t1 -81.5t-0.5 -85t-1.5 -91.5h3q31 91 62.5 173t66.5 166l212 499h362l22 -499q2 -42 3.5 -82t1.5 -81t-1 -84.5t-3 -91.5h4l34.5 92t31.5 85.5t31 81t33 80.5l216 499h266l-456 -1016h-372l-26 500q-4 84 -4.5 162.5t4.5 174.5h-2
q-32 -91 -61 -171.5t-65 -164.5l-219 -501h-368z" />
    <glyph glyph-name="x" unicode="x" horiz-adv-x="1058" 
d="M347 524l-222 492h286l156 -362l2 2q23 30 40 53.5t41 55.5l195 251h291l-423 -505l236 -511h-300l-156 386l-2 -2q-22 -32 -41.5 -57t-43.5 -58l-205 -269h-289z" />
    <glyph glyph-name="y" unicode="y" horiz-adv-x="1018" 
d="M110 1016h278l47 -454q4 -46 6.5 -86t4 -79t2 -81t1.5 -92h3q20 50 37 91t34.5 80.5t36 79.5t41.5 87l224 454h286l-588 -1105q-56 -109 -104.5 -180t-103.5 -112t-122.5 -57.5t-162.5 -16.5q-42 0 -82.5 5.5t-79.5 14.5l39 198q34 -4 68.5 -7t65.5 -3q35 0 63.5 6.5
t54.5 23t51 47t52 78.5l51 92h-80z" />
    <glyph glyph-name="y" unicode="&#xe006;" horiz-adv-x="1018" 
d="M110 1016h278l47 -454q4 -46 6.5 -86t4 -79t2 -81t1.5 -92h3q20 50 37 91t34.5 80.5t36 79.5t41.5 87l224 454h286l-588 -1105q-56 -109 -104.5 -180t-103.5 -112t-122.5 -57.5t-162.5 -16.5q-42 0 -82.5 5.5t-79.5 14.5l39 198q34 -4 68.5 -7t65.5 -3q35 0 63.5 6.5
t54.5 23t51 47t52 78.5l51 92h-80z" />
    <glyph glyph-name="z" unicode="z" horiz-adv-x="866" 
d="M-4 153l530 653h-374l40 210h697l-29 -151l-533 -655h419l-41 -210h-738z" />
    <glyph glyph-name="braceleft" unicode="{" horiz-adv-x="685" 
d="M461 -322q-22 -2 -47.5 -4.5t-56.5 -2.5q-118 0 -178.5 64.5t-60.5 189.5q0 26 2.5 56t8.5 64l44 222q4 20 7 43.5t3 40.5q0 66 -31.5 107t-93.5 65l38 195q44 14 79 38t61.5 57t46 77.5t30.5 100.5l33 164q17 90 45 157.5t70 112t102.5 66.5t141.5 22q34 0 61 -3t48 -7
l-33 -179h-43q-78 0 -113.5 -49t-51.5 -140l-34 -176q-13 -66 -34 -119.5t-51 -95.5t-68 -75t-86 -58q58 -36 88.5 -91.5t30.5 -130.5q0 -29 -3 -56.5t-10 -63.5l-47 -237q-5 -26 -7.5 -46.5t-2.5 -36.5q0 -54 32 -74.5t114 -20.5z" />
    <glyph glyph-name="bar" unicode="|" horiz-adv-x="553" 
d="M343 1511h256l-378 -1943h-256z" />
    <glyph glyph-name="braceright" unicode="}" horiz-adv-x="685" 
d="M-65 -140h43q77 0 112.5 49t52.5 140l41 216q14 66 35 119.5t50.5 95t68 74.5t86.5 57q-58 38 -88.5 92.5t-30.5 131.5q0 28 3 57t9 61l41 199q4 25 6.5 45t2.5 36q0 53 -32 74.5t-114 21.5l34 176q22 2 47 4t57 2q118 0 179 -64t61 -189q0 -27 -2.5 -57t-9.5 -63
l-37 -181q-4 -23 -6.5 -45t-2.5 -39q0 -67 32 -108.5t93 -64.5l-38 -194q-44 -14 -79 -38t-62.5 -57.5t-46 -77.5t-29.5 -100l-41 -205q-17 -90 -45 -157t-71 -111t-102.5 -67t-140.5 -23q-34 0 -61 3.5t-49 7.5z" />
    <glyph glyph-name="asciitilde" unicode="~" 
d="M189 903q12 84 43.5 155t76.5 122t103 79t124 28q51 0 86.5 -13t61 -32.5t44.5 -42t36 -42t35 -33t45 -13.5q44 0 75 42.5t48 122.5h193q-12 -85 -43.5 -156t-76.5 -121.5t-103 -79t-123 -28.5q-52 0 -87.5 13t-61 32.5t-44.5 42.5t-36 42.5t-36.5 32.5t-44.5 13
q-44 0 -74.5 -42.5t-47.5 -121.5h-193z" />
    <glyph glyph-name="exclamdown" unicode="&#xa1;" horiz-adv-x="598" 
d="M223 674h215l-180 -1106h-286zM541 1036q0 -15 -1.5 -32t-5.5 -37q-8 -38 -20 -65t-31 -43t-49 -23t-74 -7q-63 0 -92.5 17t-29.5 58q0 15 1.5 32t4.5 37q8 39 20 65.5t31.5 42.5t49.5 23t73 7q64 0 93.5 -17t29.5 -58z" />
    <glyph glyph-name="cent" unicode="&#xa2;" 
d="M892 1423l-37 -186q53 -4 105.5 -14.5t96.5 -24.5l-62 -203q-52 15 -112.5 23.5t-111.5 8.5q-65 0 -119.5 -15t-98 -51.5t-74 -97.5t-48.5 -152q-6 -36 -10 -67t-4 -57q0 -58 15.5 -94.5t44.5 -58t69 -30t91 -8.5q59 0 119 6.5t123 23.5l8 -206q-58 -16 -119.5 -23.5
t-117.5 -10.5l-35 -186h-205l38 193q-63 10 -116.5 31.5t-93.5 61.5t-63.5 100.5t-23.5 147.5q0 40 4 82t14 93q26 136 72 231t108 156t138 93.5t163 44.5l37 189h205z" />
    <glyph glyph-name="sterling" unicode="&#xa3;" 
d="M344 831q-1 27 -2.5 48.5t-3 42t-2 39t-0.5 36.5q0 123 40 208.5t111 140.5t167 79.5t209 24.5q95 0 156.5 -9.5t114.5 -23.5l-49 -203q-60 12 -111 19t-123 7q-55 0 -102 -13.5t-83 -45.5t-55.5 -84t-19.5 -126q0 -20 1 -36t2 -30.5t2.5 -32t2.5 -41.5h356l-40 -211
h-328q-7 -58 -22.5 -112t-36 -103.5t-46 -96t-54.5 -91.5h486l-41 -217h-882l41 217h116q32 46 60.5 93t52 96.5t40 102.5t26.5 111h-169l41 211h145z" />
    <glyph glyph-name="currency" unicode="&#xa4;" horiz-adv-x="1255" 
d="M221 468q-10 25 -15.5 56t-5.5 67q0 56 10.5 111.5t27 105t39 93t48.5 77.5l-148 187l162 136l148 -185q52 30 118 50t152 20q83 0 136 -16t91 -44l191 160l127 -158l-190 -160q9 -25 14.5 -56.5t5.5 -66.5q0 -56 -10 -111.5t-27 -105.5t-39.5 -93.5t-47.5 -76.5
l147 -187l-162 -136l-149 185q-48 -29 -116 -50t-152 -21q-83 0 -136.5 16.5t-90.5 44.5l-193 -160l-126 158zM921 813q0 96 -50.5 140t-149.5 44q-69 0 -125.5 -28t-97.5 -77t-64 -117.5t-23 -151.5q0 -48 13 -83t39 -57t63 -33t87 -11q68 0 124.5 28t96.5 76.5t63.5 117.5
t23.5 152z" />
    <glyph glyph-name="yen" unicode="&#xa5;" 
d="M345 174h-275l35 182h275l27 139h-276l36 182h231l-170 746h268l72 -335q6 -37 11.5 -66t10.5 -56t9.5 -55t8.5 -65h5q19 37 34 65.5t29.5 56t29.5 56t34 63.5l191 336h281l-463 -746h232l-36 -182h-275l-26 -139h274l-35 -182h-274l-33 -174h-264z" />
    <glyph glyph-name="brokenbar" unicode="&#xa6;" horiz-adv-x="553" 
d="M115 337h255l-149 -769h-256zM343 1511h256l-153 -783h-255z" />
    <glyph glyph-name="section" unicode="&#xa7;" horiz-adv-x="1148" 
d="M127 -113q60 -16 119 -23.5t126 -7.5q54 0 95 9t68.5 25t41 39.5t13.5 51.5q0 24 -10 44t-36 43.5t-71 55t-118 77.5q-74 48 -121.5 89t-74 79t-37.5 75.5t-11 79.5q0 73 22.5 131.5t60 105.5t86 85.5t101.5 68.5q-31 38 -50 80t-19 105q0 78 30 143.5t92 112t155 71.5
t219 25q78 0 152.5 -10.5t131.5 -28.5l-57 -202q-59 16 -118.5 24t-125.5 8q-54 0 -95 -9t-68.5 -26t-41.5 -40t-14 -51q0 -24 10 -44t36 -43.5t71.5 -55t117.5 -77.5q74 -49 121.5 -89.5t74.5 -79t37.5 -75.5t10.5 -78q0 -72 -20.5 -130t-57 -105t-86 -85.5t-105.5 -71.5
q35 -42 52 -83t17 -101q0 -80 -31 -145t-92.5 -111.5t-154.5 -71.5t-219 -25q-78 0 -152 10.5t-132 29.5zM630 723q-30 19 -46.5 30t-37.5 27q-73 -38 -125.5 -92t-52.5 -119q0 -22 6 -42.5t24 -42.5t48.5 -47.5t80.5 -57.5q30 -20 48.5 -32.5t40.5 -28.5q77 40 128 95
t51 118q0 23 -8 44.5t-26.5 44t-51 47.5t-79.5 56z" />
    <glyph glyph-name="dieresis" unicode="&#xa8;" horiz-adv-x="1128" 
d="M646 1408q0 -15 -2 -31.5t-5 -36.5q-8 -42 -20.5 -68.5t-32 -41.5t-49 -20.5t-69.5 -5.5q-60 0 -90.5 15t-30.5 58q0 15 1.5 31.5t5.5 36.5q7 42 20 68.5t32.5 41.5t48.5 20.5t70 5.5q59 0 90 -15.5t31 -57.5zM1090 1408q0 -15 -1.5 -31.5t-5.5 -36.5q-8 -42 -20.5 -68.5
t-32 -41.5t-48.5 -20.5t-70 -5.5q-60 0 -90.5 15t-30.5 58q0 15 1.5 31.5t5.5 36.5q7 42 20.5 68.5t33 41.5t48.5 20.5t69 5.5q60 0 90.5 -15.5t30.5 -57.5z" />
    <glyph glyph-name="copyright" unicode="&#xa9;" horiz-adv-x="1839" 
d="M1164 328q-64 -16 -129 -25.5t-140 -9.5q-78 0 -142 19.5t-109.5 59.5t-70.5 102.5t-25 148.5q0 31 3.5 66t11.5 73q23 124 68 210.5t109 142.5t146 81.5t181 25.5q66 0 118.5 -9t110.5 -25l-44 -156q-52 14 -92.5 20.5t-88.5 6.5q-53 0 -100 -15.5t-85 -51.5t-66 -95
t-45 -145q-5 -27 -8 -54t-3 -53q0 -55 13 -91.5t37.5 -58t56.5 -30.5t71 -9q52 0 105.5 7t109.5 21zM1757 819q0 -206 -60.5 -364t-170 -266t-263 -164t-339.5 -56q-183 0 -322.5 53t-234 148.5t-143 228.5t-48.5 293q0 205 60.5 364t170 267.5t262.5 164t339 55.5
q183 0 322.5 -52.5t234.5 -148.5t143.5 -229t48.5 -294zM1562 815q0 125 -31 228.5t-99 178t-175.5 115.5t-257.5 41q-151 0 -268 -42.5t-198 -126.5t-121.5 -211.5t-40.5 -300.5q0 -124 31 -228.5t99 -179t174.5 -114.5t257.5 -40t268.5 42t197.5 126.5t121.5 211.5
t41.5 300z" />
    <glyph glyph-name="ordfeminine" unicode="&#xaa;" horiz-adv-x="764" 
d="M91 587h616l-32 -165h-616zM541 803q-47 -46 -105 -75.5t-120 -29.5q-86 0 -140.5 57.5t-54.5 172.5q0 122 31.5 218t84.5 162t122.5 101.5t145.5 35.5q53 0 91.5 -14.5t65.5 -34.5l15 35h159l-139 -718h-159zM609 1257q-23 18 -47 26.5t-57 8.5q-42 0 -76.5 -30.5
t-59 -79t-38.5 -108.5t-14 -119q0 -52 17 -74.5t48 -22.5q37 0 82.5 36.5t94.5 99.5z" />
    <glyph glyph-name="guillemotleft" unicode="&#xab;" horiz-adv-x="1112" 
d="M540 513l382 444l186 -117l-282 -349l147 -355l-220 -98zM63 525l406 471l187 -117l-307 -376l160 -385l-220 -98z" />
    <glyph glyph-name="logicalnot" unicode="&#xac;" 
d="M155 690h837l-92 -469h-214l53 265h-623z" />
    <glyph glyph-name="uni00AD" unicode="&#xad;" horiz-adv-x="873" 
d="M159 662h611l-45 -235h-612z" />
    <glyph glyph-name="registered" unicode="&#xae;" horiz-adv-x="963" 
d="M484 1287h145q91 0 124.5 -27t33.5 -83q0 -52 -32.5 -85t-77.5 -46l53 -165h-115l-47 156h-28l-30 -156h-104zM594 1110q41 0 61.5 17.5t20.5 42.5q0 20 -11.5 28.5t-43.5 8.5h-48l-18 -97h39zM985 1109q0 -94 -29.5 -169.5t-84 -127.5t-131 -80t-170.5 -28
q-79 0 -147.5 21t-118 64t-79 108.5t-29.5 152.5q0 94 29.5 169t84 127.5t130 80t169.5 27.5q80 0 148.5 -20.5t119 -63.5t79.5 -108.5t29 -152.5zM866 1108q0 130 -70 187.5t-192 57.5q-142 0 -215 -75.5t-73 -226.5q0 -130 68.5 -188t189.5 -58q145 0 218.5 76t73.5 227z
" />
    <glyph glyph-name="macron" unicode="&#xaf;" horiz-adv-x="1142" 
d="M459 1435h599l-37 -196h-600z" />
    <glyph glyph-name="degree" unicode="&#xb0;" horiz-adv-x="833" 
d="M900 1221q0 -77 -28.5 -139t-78.5 -105.5t-118 -67t-145 -23.5q-153 0 -241 77t-88 230q0 77 29 139t78.5 106t117.5 67.5t145 23.5q153 0 241 -77.5t88 -230.5zM697 1211q0 69 -35 109.5t-104 40.5q-70 0 -111 -44t-41 -113q0 -70 34.5 -110.5t103.5 -40.5
q70 0 111.5 44t41.5 114z" />
    <glyph glyph-name="plusminus" unicode="&#xb1;" 
d="M180 895h322l68 348h215l-68 -348h326l-39 -203h-325l-69 -350h-215l68 350h-322zM46 203h864l-39 -203h-864z" />
    <glyph glyph-name="twosuperior" unicode="&#xb2;" horiz-adv-x="605" 
d="M113 867l160 140q69 59 116 108t47 98q0 28 -20 44.5t-63 16.5q-31 0 -59.5 -4.5t-64.5 -15.5l-8 155q51 15 106.5 23t116.5 8q110 0 173.5 -45.5t63.5 -127.5q0 -46 -13.5 -86.5t-40 -76t-64.5 -70t-89 -70.5l-106 -85h248l-31 -166h-502z" />
    <glyph glyph-name="threesuperior" unicode="&#xb3;" horiz-adv-x="578" 
d="M112 865q30 -7 65 -11.5t67 -4.5q66 0 104 23t38 68q0 17 -7 29.5t-26.5 21t-54 13t-88.5 4.5l29 143q101 0 147.5 23.5t46.5 65.5q0 25 -21 37t-68 12q-32 0 -62.5 -5t-63.5 -13l-8 144q48 11 98 18t100 7q124 0 183 -42.5t59 -111.5q0 -40 -13 -72t-33.5 -56
t-47.5 -41.5t-57 -27.5q51 -14 79.5 -52t28.5 -92q0 -58 -26 -103.5t-72 -77.5t-108.5 -48.5t-134.5 -16.5q-53 0 -99.5 4t-90.5 14z" />
    <glyph glyph-name="acute" unicode="&#xb4;" horiz-adv-x="792" 
d="M658 1563l139 -173l-369 -253l-106 130z" />
    <glyph glyph-name="mu" unicode="&#xb5;" horiz-adv-x="1156" 
d="M225 1016h266l-124 -638q-20 -100 0 -139t80 -39q29 0 63 13t70.5 38.5t74 61.5t72.5 82l120 621h266l-196 -1016h-220l7 134q-28 -28 -61.5 -54t-70.5 -48.5t-77.5 -36t-80.5 -13.5q-48 0 -75.5 16t-47.5 40l-2 -2q-5 -57 -12 -106t-17 -102l-50 -260h-266z" />
    <glyph glyph-name="paragraph" unicode="&#xb6;" horiz-adv-x="1180" 
d="M502 438q-176 2 -257.5 70.5t-81.5 224.5q0 46 6 98.5t18 113.5q26 130 73.5 222t119 148.5t170.5 82t230 25.5h532l-28 -137h-143l-314 -1615h-166l313 1615h-142l-314 -1615h-164z" />
    <glyph glyph-name="periodcentered" unicode="&#xb7;" horiz-adv-x="504" 
d="M416 598q0 -15 -1.5 -31t-4.5 -37q-8 -42 -20.5 -70.5t-32.5 -45.5t-51.5 -24.5t-77.5 -7.5q-73 0 -103.5 18t-30.5 66q0 16 2 33t5 37q8 42 20.5 70t33 45t52 24.5t77.5 7.5q71 0 101.5 -18t30.5 -67z" />
    <glyph glyph-name="cedilla" unicode="&#xb8;" horiz-adv-x="614" 
d="M100 0h158l-29 -89q47 -4 78 -17t50 -32t26 -42.5t7 -48.5q0 -59 -24 -101.5t-66 -68.5t-98 -38t-120 -12q-43 0 -79.5 3.5t-70.5 13.5l35 123q29 -6 55.5 -9.5t53.5 -3.5q53 0 86.5 16.5t33.5 56.5q0 25 -20 37t-74 12h-63z" />
    <glyph glyph-name="onesuperior" unicode="&#xb9;" horiz-adv-x="475" 
d="M307 1207l-119 -56l-53 125l246 150h167l-137 -713h-198z" />
    <glyph glyph-name="ordmasculine" unicode="&#xba;" horiz-adv-x="809" 
d="M854 1203q0 -31 -3 -61t-11 -69q-21 -104 -56.5 -178t-85.5 -120.5t-116 -68t-145 -21.5q-127 0 -198.5 58.5t-71.5 188.5q0 30 3 60.5t11 69.5q20 104 55.5 178t86 120.5t116 68t145.5 21.5q127 0 198 -57.5t72 -189.5zM656 1184q0 60 -23.5 86t-74.5 26q-34 0 -61 -12
t-49.5 -39t-40 -72t-30.5 -110q-5 -29 -9 -60t-4 -52q0 -60 23.5 -86.5t74.5 -26.5q32 0 60.5 12.5t50.5 39.5t39 72t31 109q5 30 9 61t4 52zM130 587h580l-31 -165h-580z" />
    <glyph glyph-name="guillemotright" unicode="&#xbb;" horiz-adv-x="1112" 
d="M763 513l-160 385l220 98l226 -505l-406 -471l-187 117zM286 525l-148 354l221 98l213 -474l-382 -444l-186 117z" />
    <glyph glyph-name="onequarter" unicode="&#xbc;" horiz-adv-x="1411" 
d="M1232 1477l134 -109l-1199 -1419l-135 107zM308 1207l-119 -56l-53 125l246 150h167l-137 -713h-198zM1034 126h-320l34 176l303 411h291l-82 -420h78l-31 -167h-79l-24 -126h-193zM1066 293l53 267l-200 -267h147z" />
    <glyph glyph-name="onehalf" unicode="&#xbd;" horiz-adv-x="1479" 
d="M1232 1477l134 -109l-1199 -1419l-135 107zM308 1207l-119 -56l-53 125l246 150h167l-137 -713h-198zM847 154l160 140q69 59 116 108t47 98q0 28 -20 44.5t-63 16.5q-31 0 -59.5 -4.5t-64.5 -15.5l-8 155q51 15 106.5 23t116.5 8q110 0 173.5 -45.5t63.5 -127.5
q0 -46 -13.5 -86.5t-40 -76t-64.5 -70t-89 -70.5l-106 -85h248l-31 -166h-502z" />
    <glyph glyph-name="threequarters" unicode="&#xbe;" horiz-adv-x="1504" 
d="M1326 1477l134 -109l-1199 -1419l-135 107zM1128 126h-320l34 176l303 411h291l-82 -420h78l-31 -167h-79l-24 -126h-193zM1160 293l53 267l-200 -267h147zM144 865q30 -7 65 -11.5t67 -4.5q66 0 104 23t38 68q0 17 -7 29.5t-26.5 21t-54 13t-88.5 4.5l29 143
q101 0 147.5 23.5t46.5 65.5q0 25 -21 37t-68 12q-32 0 -62.5 -5t-63.5 -13l-8 144q48 11 98 18t100 7q124 0 183 -42.5t59 -111.5q0 -40 -13 -72t-33.5 -56t-47.5 -41.5t-57 -27.5q51 -14 79.5 -52t28.5 -92q0 -58 -26 -103.5t-72 -77.5t-108.5 -48.5t-134.5 -16.5
q-53 0 -99.5 4t-90.5 14z" />
    <glyph glyph-name="questiondown" unicode="&#xbf;" horiz-adv-x="700" 
d="M552 674l-24 -137q-10 -64 -24 -112t-36.5 -89t-56.5 -80.5t-83 -87.5q-46 -46 -83.5 -84.5t-64.5 -73t-41.5 -69t-14.5 -71.5q0 -24 7.5 -44.5t26.5 -35.5t49 -24t77 -9q55 0 110.5 6.5t117.5 20.5l16 -197q-73 -18 -154.5 -27.5t-168.5 -9.5q-90 0 -157.5 18t-113 52
t-68 84.5t-22.5 113.5q0 75 17 132t50 107t80.5 98t107.5 105q46 40 81 74t61 68.5t43.5 73.5t28.5 89l21 109h218zM651 1036q0 -15 -1.5 -32t-4.5 -37q-8 -38 -20 -65t-31 -43t-49 -23t-73 -7q-65 0 -94 17t-29 58q0 15 1.5 32t4.5 37q8 39 20 65.5t31.5 42.5t49.5 23t73 7
q64 0 93 -17t29 -58z" />
    <glyph glyph-name="Agrave" unicode="&#xc0;" horiz-adv-x="1263" 
d="M604 1423h403l132 -1423h-276l-32 359h-467l-169 -359h-271zM826 569l-30 356q-4 43 -7.5 83t-7.5 80t-7 80t-6 84h-2l-38 -85.5t-36.5 -81t-38.5 -80.5t-41 -86l-163 -350h377zM656 1889l398 -207l-81 -152l-423 165z" />
    <glyph glyph-name="Aacute" unicode="&#xc1;" horiz-adv-x="1263" 
d="M604 1423h403l132 -1423h-276l-32 359h-467l-169 -359h-271zM826 569l-30 356q-4 43 -7.5 83t-7.5 80t-7 80t-6 84h-2l-38 -85.5t-36.5 -81t-38.5 -80.5t-41 -86l-163 -350h377zM1091 1878l72 -197l-449 -146l-64 155z" />
    <glyph glyph-name="Acircumflex" unicode="&#xc2;" horiz-adv-x="1263" 
d="M604 1423h403l132 -1423h-276l-32 359h-467l-169 -359h-271zM826 569l-30 356q-4 43 -7.5 83t-7.5 80t-7 80t-6 84h-2l-38 -85.5t-36.5 -81t-38.5 -80.5t-41 -86l-163 -350h377zM885 1876l298 -182l-98 -154l-242 121l-284 -121l-55 154z" />
    <glyph glyph-name="Atilde" unicode="&#xc3;" horiz-adv-x="1263" 
d="M604 1423h403l132 -1423h-276l-32 359h-467l-169 -359h-271zM826 569l-30 356q-4 43 -7.5 83t-7.5 80t-7 80t-6 84h-2l-38 -85.5t-36.5 -81t-38.5 -80.5t-41 -86l-163 -350h377zM463 1684q51 60 119 101.5t161 41.5q44 0 77.5 -11.5t61 -24t53 -24t57.5 -11.5
q38 0 75.5 18t69.5 51l97 -112q-50 -59 -118 -101t-160 -42q-46 0 -79 11t-60.5 24t-53 24.5t-56.5 11.5q-39 0 -76.5 -18t-69.5 -51z" />
    <glyph glyph-name="Adieresis" unicode="&#xc4;" horiz-adv-x="1263" 
d="M604 1423h403l132 -1423h-276l-32 359h-467l-169 -359h-271zM826 569l-30 356q-4 43 -7.5 83t-7.5 80t-7 80t-6 84h-2l-38 -85.5t-36.5 -81t-38.5 -80.5t-41 -86l-163 -350h377zM757 1764q0 -14 -1.5 -30.5t-5.5 -36.5q-8 -40 -20 -66t-32.5 -40.5t-47.5 -19.5t-67 -5
q-57 0 -87 16t-30 57q0 15 2 31.5t5 36.5q7 41 19.5 66t32.5 40t47.5 19.5t67.5 4.5q57 0 87 -15.5t30 -57.5zM1254 1764q0 -14 -2 -30.5t-5 -36.5q-8 -40 -20 -66t-32.5 -40.5t-47.5 -19.5t-67 -5q-57 0 -87 16t-30 57q0 15 2 31.5t5 36.5q7 41 19.5 66t32.5 40t47.5 19.5
t66.5 4.5q58 0 88 -15.5t30 -57.5z" />
    <glyph glyph-name="Aring" unicode="&#xc5;" horiz-adv-x="1263" 
d="M604 1423h403l132 -1423h-276l-32 359h-467l-169 -359h-271zM826 569l-30 356q-4 43 -7.5 83t-7.5 80t-7 80t-6 84h-2l-38 -85.5t-36.5 -81t-38.5 -80.5t-41 -86l-163 -350h377zM1112 1738q0 -53 -19 -97t-53 -77t-83.5 -50.5t-109.5 -17.5q-50 0 -94 15t-76.5 42
t-50.5 66.5t-18 91.5t18.5 96.5t53.5 77t83 50.5t106 18q105 0 174 -56.5t69 -158.5zM961 1731q0 44 -25 67t-73 23q-46 0 -75 -27.5t-29 -76.5q0 -43 25 -66t69 -23q49 0 78.5 27t29.5 76z" />
    <glyph glyph-name="AE" unicode="&#xc6;" horiz-adv-x="1759" 
d="M869 1423h977l-42 -215h-530l-74 -375h493l-40 -210h-492l-81 -408h530l-40 -215h-801l71 359h-449l-253 -359h-296zM880 569l130 669h-5l-475 -669h350z" />
    <glyph glyph-name="Ccedilla" unicode="&#xc7;" horiz-adv-x="1028" 
d="M903 22q-71 -18 -150 -30t-163 -15h-15l-20 -65q93 -8 134.5 -45t41.5 -96q0 -60 -24.5 -102.5t-68.5 -69t-102 -39t-122 -12.5q-45 0 -84 4t-73 13l35 124q29 -6 59 -9.5t56 -3.5q59 0 93.5 16.5t34.5 58.5q0 25 -21 36t-80 11h-70l58 189q-72 12 -130 40.5t-99 79.5
t-63 126t-22 179q0 33 1.5 67t6 70.5t9.5 76.5t16 87q41 211 106 351.5t153 226t200.5 121.5t250.5 36q76 0 149.5 -12t137.5 -30l-63 -206q-58 16 -108.5 24.5t-110.5 8.5q-88 0 -158.5 -26t-124.5 -87.5t-93.5 -163t-67.5 -251.5q-14 -75 -22 -138.5t-8 -124.5
q0 -72 15 -120.5t46 -78t76 -41t107 -11.5q64 0 131 10.5t139 29.5z" />
    <glyph glyph-name="Egrave" unicode="&#xc8;" horiz-adv-x="1042" 
d="M326 1423h801l-43 -215h-530l-74 -375h494l-41 -210h-493l-78 -408h529l-41 -215h-800zM574 1889l398 -207l-81 -152l-423 165z" />
    <glyph glyph-name="Eacute" unicode="&#xc9;" horiz-adv-x="1042" 
d="M326 1423h801l-43 -215h-530l-74 -375h494l-41 -210h-493l-78 -408h529l-41 -215h-800zM1034 1878l72 -197l-449 -146l-64 155z" />
    <glyph glyph-name="Ecircumflex" unicode="&#xca;" horiz-adv-x="1042" 
d="M326 1423h801l-43 -215h-530l-74 -375h494l-41 -210h-493l-78 -408h529l-41 -215h-800zM817 1876l298 -182l-98 -154l-242 121l-284 -121l-55 154z" />
    <glyph glyph-name="Edieresis" unicode="&#xcb;" horiz-adv-x="1042" 
d="M326 1423h801l-43 -215h-530l-74 -375h494l-41 -210h-493l-78 -408h529l-41 -215h-800zM674 1764q0 -14 -1.5 -30.5t-5.5 -36.5q-8 -40 -20 -66t-32.5 -40.5t-47.5 -19.5t-67 -5q-57 0 -87 16t-30 57q0 15 2 31.5t5 36.5q7 41 19.5 66t32.5 40t47.5 19.5t67.5 4.5
q57 0 87 -15.5t30 -57.5zM1171 1764q0 -14 -2 -30.5t-5 -36.5q-8 -40 -20 -66t-32.5 -40.5t-47.5 -19.5t-67 -5q-57 0 -87 16t-30 57q0 15 2 31.5t5 36.5q7 41 19.5 66t32.5 40t47.5 19.5t66.5 4.5q58 0 88 -15.5t30 -57.5z" />
    <glyph glyph-name="Igrave" unicode="&#xcc;" horiz-adv-x="566" 
d="M326 1423h270l-276 -1423h-270zM340 1889l398 -207l-81 -152l-423 165z" />
    <glyph glyph-name="Iacute" unicode="&#xcd;" horiz-adv-x="566" 
d="M326 1423h270l-276 -1423h-270zM725 1878l72 -197l-449 -146l-64 155z" />
    <glyph glyph-name="Icircumflex" unicode="&#xce;" horiz-adv-x="566" 
d="M326 1423h270l-276 -1423h-270zM550 1876l298 -182l-98 -154l-242 121l-284 -121l-55 154z" />
    <glyph glyph-name="Idieresis" unicode="&#xcf;" horiz-adv-x="566" 
d="M326 1423h270l-276 -1423h-270zM875 1764q0 -14 -2 -30.5t-5 -36.5q-8 -40 -20 -66t-32 -40.5t-47.5 -19.5t-66.5 -5q-57 0 -87 16t-30 57q0 15 1.5 31.5t5.5 36.5q7 41 19.5 66t32.5 40t47 19.5t67 4.5q57 0 87 -15.5t30 -57.5zM450 1764q0 -14 -2 -30.5t-5 -36.5
q-8 -40 -20 -66t-32 -40.5t-47.5 -19.5t-67.5 -5q-57 0 -86.5 16t-29.5 57q0 15 1.5 31.5t5.5 36.5q7 41 19.5 66t32.5 40t47.5 19.5t66.5 4.5q57 0 87 -15.5t30 -57.5z" />
    <glyph glyph-name="Eth" unicode="&#xd0;" horiz-adv-x="1330" 
d="M207 641h-155l39 204h155l113 578h432q128 0 225 -19.5t161.5 -68t96.5 -129.5t32 -203q0 -65 -7.5 -131.5t-23.5 -155.5q-40 -204 -109 -341t-166.5 -220.5t-224 -119t-281.5 -35.5h-412zM520 215q87 0 164 22.5t138.5 79.5t107.5 155t74 251q12 69 20.5 128t8.5 116
q0 72 -16 119t-50.5 74t-87 37.5t-124.5 10.5h-168l-71 -363h281l-39 -204h-281l-83 -426h126z" />
    <glyph glyph-name="Ntilde" unicode="&#xd1;" horiz-adv-x="1408" 
d="M326 1423h340l233 -748q14 -49 26 -94.5t24.5 -91.5t24.5 -94t24 -103l2 1q9 108 21 201.5t29 180.5l146 748h242l-276 -1423h-342l-234 749q-15 47 -27.5 92.5t-23.5 92.5t-22 95t-21 103l-6 -2q-9 -106 -21 -200t-29 -181l-144 -749h-242zM526 1684q51 60 119 101.5
t161 41.5q44 0 77.5 -11.5t61 -24t53 -24t57.5 -11.5q38 0 75.5 18t69.5 51l97 -112q-50 -59 -118 -101t-160 -42q-46 0 -79 11t-60.5 24t-53 24.5t-56.5 11.5q-39 0 -76.5 -18t-69.5 -51z" />
    <glyph glyph-name="Ograve" unicode="&#xd2;" horiz-adv-x="1338" 
d="M1305 1004q0 -66 -8 -136t-25 -156q-40 -204 -103 -345t-151 -229.5t-201.5 -127.5t-252.5 -39q-110 0 -195 25t-142.5 79t-88 139.5t-30.5 204.5q0 67 8 137t25 156q38 202 101.5 343.5t152 230t201.5 127.5t253 39q109 0 194 -24.5t142.5 -79t88.5 -139.5t31 -205z
M1032 991q0 62 -12.5 108t-38.5 77t-66.5 46.5t-96.5 15.5q-75 0 -136 -29t-111 -93.5t-89 -165.5t-67 -245q-8 -34 -13.5 -70t-10.5 -70.5t-7.5 -68.5t-2.5 -63q0 -63 12.5 -109t38.5 -77t66 -46.5t97 -15.5q73 0 134.5 29.5t112 93.5t89 165t67.5 246q7 34 12.5 69.5
t10.5 70.5t8 68.5t3 63.5zM676 1889l398 -207l-81 -152l-423 165z" />
    <glyph glyph-name="Oacute" unicode="&#xd3;" horiz-adv-x="1338" 
d="M1305 1004q0 -66 -8 -136t-25 -156q-40 -204 -103 -345t-151 -229.5t-201.5 -127.5t-252.5 -39q-110 0 -195 25t-142.5 79t-88 139.5t-30.5 204.5q0 67 8 137t25 156q38 202 101.5 343.5t152 230t201.5 127.5t253 39q109 0 194 -24.5t142.5 -79t88.5 -139.5t31 -205z
M1032 991q0 62 -12.5 108t-38.5 77t-66.5 46.5t-96.5 15.5q-75 0 -136 -29t-111 -93.5t-89 -165.5t-67 -245q-8 -34 -13.5 -70t-10.5 -70.5t-7.5 -68.5t-2.5 -63q0 -63 12.5 -109t38.5 -77t66 -46.5t97 -15.5q73 0 134.5 29.5t112 93.5t89 165t67.5 246q7 34 12.5 69.5
t10.5 70.5t8 68.5t3 63.5zM1165 1878l72 -197l-449 -146l-64 155z" />
    <glyph glyph-name="Ocircumflex" unicode="&#xd4;" horiz-adv-x="1338" 
d="M1305 1004q0 -66 -8 -136t-25 -156q-40 -204 -103 -345t-151 -229.5t-201.5 -127.5t-252.5 -39q-110 0 -195 25t-142.5 79t-88 139.5t-30.5 204.5q0 67 8 137t25 156q38 202 101.5 343.5t152 230t201.5 127.5t253 39q109 0 194 -24.5t142.5 -79t88.5 -139.5t31 -205z
M1032 991q0 62 -12.5 108t-38.5 77t-66.5 46.5t-96.5 15.5q-75 0 -136 -29t-111 -93.5t-89 -165.5t-67 -245q-8 -34 -13.5 -70t-10.5 -70.5t-7.5 -68.5t-2.5 -63q0 -63 12.5 -109t38.5 -77t66 -46.5t97 -15.5q73 0 134.5 29.5t112 93.5t89 165t67.5 246q7 34 12.5 69.5
t10.5 70.5t8 68.5t3 63.5zM930 1876l298 -182l-98 -154l-242 121l-284 -121l-55 154z" />
    <glyph glyph-name="Otilde" unicode="&#xd5;" horiz-adv-x="1338" 
d="M1305 1004q0 -66 -8 -136t-25 -156q-40 -204 -103 -345t-151 -229.5t-201.5 -127.5t-252.5 -39q-110 0 -195 25t-142.5 79t-88 139.5t-30.5 204.5q0 67 8 137t25 156q38 202 101.5 343.5t152 230t201.5 127.5t253 39q109 0 194 -24.5t142.5 -79t88.5 -139.5t31 -205z
M1032 991q0 62 -12.5 108t-38.5 77t-66.5 46.5t-96.5 15.5q-75 0 -136 -29t-111 -93.5t-89 -165.5t-67 -245q-8 -34 -13.5 -70t-10.5 -70.5t-7.5 -68.5t-2.5 -63q0 -63 12.5 -109t38.5 -77t66 -46.5t97 -15.5q73 0 134.5 29.5t112 93.5t89 165t67.5 246q7 34 12.5 69.5
t10.5 70.5t8 68.5t3 63.5zM499 1684q51 60 119 101.5t161 41.5q44 0 77.5 -11.5t61 -24t53 -24t57.5 -11.5q38 0 75.5 18t69.5 51l97 -112q-50 -59 -118 -101t-160 -42q-46 0 -79 11t-60.5 24t-53 24.5t-56.5 11.5q-39 0 -76.5 -18t-69.5 -51z" />
    <glyph glyph-name="Odieresis" unicode="&#xd6;" horiz-adv-x="1338" 
d="M1305 1004q0 -66 -8 -136t-25 -156q-40 -204 -103 -345t-151 -229.5t-201.5 -127.5t-252.5 -39q-110 0 -195 25t-142.5 79t-88 139.5t-30.5 204.5q0 67 8 137t25 156q38 202 101.5 343.5t152 230t201.5 127.5t253 39q109 0 194 -24.5t142.5 -79t88.5 -139.5t31 -205z
M1032 991q0 62 -12.5 108t-38.5 77t-66.5 46.5t-96.5 15.5q-75 0 -136 -29t-111 -93.5t-89 -165.5t-67 -245q-8 -34 -13.5 -70t-10.5 -70.5t-7.5 -68.5t-2.5 -63q0 -63 12.5 -109t38.5 -77t66 -46.5t97 -15.5q73 0 134.5 29.5t112 93.5t89 165t67.5 246q7 34 12.5 69.5
t10.5 70.5t8 68.5t3 63.5zM797 1764q0 -14 -1.5 -30.5t-5.5 -36.5q-8 -40 -20 -66t-32.5 -40.5t-47.5 -19.5t-67 -5q-57 0 -87 16t-30 57q0 15 2 31.5t5 36.5q7 41 19.5 66t32.5 40t47.5 19.5t67.5 4.5q57 0 87 -15.5t30 -57.5zM1294 1764q0 -14 -2 -30.5t-5 -36.5
q-8 -40 -20 -66t-32.5 -40.5t-47.5 -19.5t-67 -5q-57 0 -87 16t-30 57q0 15 2 31.5t5 36.5q7 41 19.5 66t32.5 40t47.5 19.5t66.5 4.5q58 0 88 -15.5t30 -57.5z" />
    <glyph glyph-name="multiply" unicode="&#xd7;" 
d="M425 599l-244 309l166 132l239 -304l341 292l129 -153l-347 -295l244 -310l-164 -132l-241 305l-346 -293l-128 150z" />
    <glyph glyph-name="Oslash" unicode="&#xd8;" horiz-adv-x="1371" 
d="M204 102q-36 41 -66 116t-30 201q0 67 8 137t25 156q38 202 103 343.5t155 230t206 127.5t260 39q64 0 113.5 -10t86.5 -27l146 224l175 -90l-148 -224q46 -49 73 -128t27 -193q0 -32 -2 -66t-6 -70.5t-10 -75t-14 -80.5q-40 -204 -104.5 -345t-154.5 -229.5
t-206.5 -127.5t-260.5 -39q-61 0 -112 9.5t-93 30.5l-141 -216l-173 92zM954 1219q-17 13 -44 22t-76 9q-83 0 -150 -28.5t-119.5 -93.5t-92 -168t-69.5 -249q-12 -56 -19 -102t-10 -90q-3 -26 -4 -48t-0.5 -42t1.5 -37.5t3 -36.5zM489 208q20 -18 48.5 -26.5t75.5 -8.5
q82 0 149 28.5t120 93.5t92.5 167.5t69.5 250.5q12 55 19 101t10 91q3 26 3.5 48t0 42.5t-2.5 39t-4 38.5z" />
    <glyph glyph-name="Ugrave" unicode="&#xd9;" horiz-adv-x="1313" 
d="M571 1423l-166 -852q-9 -44 -15.5 -91t-6.5 -98q0 -50 10 -86t34.5 -60.5t63.5 -37.5t95 -13q70 0 126.5 24t100 72.5t73.5 124t52 181.5l163 836h270l-164 -840q-33 -162 -84 -277t-128.5 -190t-184.5 -110t-251 -35q-225 0 -336 95.5t-111 291.5q0 49 6 104t19 118
l164 843h270zM668 1889l398 -207l-81 -152l-423 165z" />
    <glyph glyph-name="Uacute" unicode="&#xda;" horiz-adv-x="1313" 
d="M571 1423l-166 -852q-9 -44 -15.5 -91t-6.5 -98q0 -50 10 -86t34.5 -60.5t63.5 -37.5t95 -13q70 0 126.5 24t100 72.5t73.5 124t52 181.5l163 836h270l-164 -840q-33 -162 -84 -277t-128.5 -190t-184.5 -110t-251 -35q-225 0 -336 95.5t-111 291.5q0 49 6 104t19 118
l164 843h270zM1149 1878l72 -197l-449 -146l-64 155z" />
    <glyph glyph-name="Ucircumflex" unicode="&#xdb;" horiz-adv-x="1313" 
d="M571 1423l-166 -852q-9 -44 -15.5 -91t-6.5 -98q0 -50 10 -86t34.5 -60.5t63.5 -37.5t95 -13q70 0 126.5 24t100 72.5t73.5 124t52 181.5l163 836h270l-164 -840q-33 -162 -84 -277t-128.5 -190t-184.5 -110t-251 -35q-225 0 -336 95.5t-111 291.5q0 49 6 104t19 118
l164 843h270zM921 1876l298 -182l-98 -154l-242 121l-284 -121l-55 154z" />
    <glyph glyph-name="Udieresis" unicode="&#xdc;" horiz-adv-x="1313" 
d="M571 1423l-166 -852q-9 -44 -15.5 -91t-6.5 -98q0 -50 10 -86t34.5 -60.5t63.5 -37.5t95 -13q70 0 126.5 24t100 72.5t73.5 124t52 181.5l163 836h270l-164 -840q-33 -162 -84 -277t-128.5 -190t-184.5 -110t-251 -35q-225 0 -336 95.5t-111 291.5q0 49 6 104t19 118
l164 843h270zM785 1764q0 -14 -1.5 -30.5t-5.5 -36.5q-8 -40 -20 -66t-32.5 -40.5t-47.5 -19.5t-67 -5q-57 0 -87 16t-30 57q0 15 2 31.5t5 36.5q7 41 19.5 66t32.5 40t47.5 19.5t67.5 4.5q57 0 87 -15.5t30 -57.5zM1282 1764q0 -14 -2 -30.5t-5 -36.5q-8 -40 -20 -66
t-32.5 -40.5t-47.5 -19.5t-67 -5q-57 0 -87 16t-30 57q0 15 2 31.5t5 36.5q7 41 19.5 66t32.5 40t47.5 19.5t66.5 4.5q58 0 88 -15.5t30 -57.5z" />
    <glyph glyph-name="Yacute" unicode="&#xdd;" horiz-adv-x="1132" 
d="M434 531l-263 892h268l110 -352q14 -40 22.5 -73t17 -64t16.5 -63t16 -69h6q22 38 41 71.5t39 64.5t40.5 63.5t47.5 70.5l241 351h281l-617 -895l-103 -528h-266zM1048 1878l72 -197l-449 -146l-64 155z" />
    <glyph glyph-name="Thorn" unicode="&#xde;" horiz-adv-x="1106" 
d="M326 1423h270l-51 -267h116q127 0 213.5 -21.5t140 -61t76.5 -97.5t23 -130q0 -148 -47.5 -253.5t-132.5 -174t-199 -100t-248 -31.5h-112l-55 -287h-270zM520 495q61 0 119 18t102.5 56.5t71.5 97t27 138.5q0 73 -46.5 107.5t-165.5 34.5h-125l-87 -452h104z" />
    <glyph glyph-name="germandbls" unicode="&#xdf;" horiz-adv-x="1159" 
d="M-274 -238q41 -9 68.5 -10t59.5 -1q33 0 60.5 10.5t50 33t39 58.5t26.5 86l236 1215q21 106 62.5 180t103.5 120t147 66t193 20q94 0 162 -19.5t111 -54t63 -80.5t20 -101q0 -51 -11.5 -93.5t-33 -81t-52.5 -77.5t-69 -82q-26 -27 -48 -51t-37.5 -45.5t-24.5 -44
t-9 -47.5q0 -18 7 -35.5t21.5 -36t37 -40t50.5 -49.5q36 -34 61.5 -64t42 -59.5t24.5 -64t8 -78.5q0 -83 -28 -149t-81.5 -112t-135 -71t-186.5 -25q-26 0 -57 2.5t-62.5 6.5t-62.5 10t-57 14l40 194q49 -14 107.5 -21t108.5 -7q71 0 114.5 33.5t43.5 99.5q0 22 -6.5 41
t-20.5 37.5t-37 41t-56 53.5q-71 65 -107 115.5t-36 117.5q0 46 14 86t37 76.5t53 73t64 76.5q27 32 47.5 59.5t34 53t21.5 50.5t8 52q0 41 -28 65.5t-94 24.5q-84 0 -135 -51t-71 -153l-230 -1195q-23 -113 -60 -188t-92.5 -120t-129 -64.5t-166.5 -19.5q-42 0 -81.5 4.5
t-82.5 13.5z" />
    <glyph glyph-name="agrave" unicode="&#xe0;" horiz-adv-x="1131" 
d="M678 130q-33 -32 -72 -59t-80.5 -47.5t-87 -31.5t-89.5 -11q-127 0 -203.5 79t-76.5 240q0 178 45.5 314.5t122.5 230t177 142t209 48.5q75 0 130.5 -19.5t96.5 -48.5l17 49h220l-196 -1016h-220zM775 774q-33 24 -68 37.5t-83 13.5q-64 0 -115.5 -43t-88 -111.5
t-57 -155.5t-20.5 -175q0 -72 26 -106t74 -34q53 0 120 49.5t136 138.5zM561 1586l269 -326l-127 -119l-308 292z" />
    <glyph glyph-name="aacute" unicode="&#xe1;" horiz-adv-x="1131" 
d="M678 130q-33 -32 -72 -59t-80.5 -47.5t-87 -31.5t-89.5 -11q-127 0 -203.5 79t-76.5 240q0 178 45.5 314.5t122.5 230t177 142t209 48.5q75 0 130.5 -19.5t96.5 -48.5l17 49h220l-196 -1016h-220zM775 774q-33 24 -68 37.5t-83 13.5q-64 0 -115.5 -43t-88 -111.5
t-57 -155.5t-20.5 -175q0 -72 26 -106t74 -34q53 0 120 49.5t136 138.5zM874 1563l139 -173l-369 -253l-106 130z" />
    <glyph glyph-name="acircumflex" unicode="&#xe2;" horiz-adv-x="1131" 
d="M678 130q-33 -32 -72 -59t-80.5 -47.5t-87 -31.5t-89.5 -11q-127 0 -203.5 79t-76.5 240q0 178 45.5 314.5t122.5 230t177 142t209 48.5q75 0 130.5 -19.5t96.5 -48.5l17 49h220l-196 -1016h-220zM775 774q-33 24 -68 37.5t-83 13.5q-64 0 -115.5 -43t-88 -111.5
t-57 -155.5t-20.5 -175q0 -72 26 -106t74 -34q53 0 120 49.5t136 138.5zM736 1557l280 -273l-125 -142l-198 170l-257 -167l-86 137z" />
    <glyph glyph-name="atilde" unicode="&#xe3;" horiz-adv-x="1131" 
d="M678 130q-33 -32 -72 -59t-80.5 -47.5t-87 -31.5t-89.5 -11q-127 0 -203.5 79t-76.5 240q0 178 45.5 314.5t122.5 230t177 142t209 48.5q75 0 130.5 -19.5t96.5 -48.5l17 49h220l-196 -1016h-220zM775 774q-33 24 -68 37.5t-83 13.5q-64 0 -115.5 -43t-88 -111.5
t-57 -155.5t-20.5 -175q0 -72 26 -106t74 -34q53 0 120 49.5t136 138.5zM335 1296q24 34 54 67t65.5 59.5t77.5 43t87 16.5q42 0 73 -15.5t56 -33.5t47.5 -32.5t49.5 -14.5q36 0 68.5 26.5t60.5 65.5l114 -96q-24 -33 -54.5 -66.5t-66.5 -60t-77 -42.5t-87 -16
q-43 0 -72.5 14.5t-54.5 32.5t-47.5 33t-49.5 15q-37 0 -69.5 -26.5t-61.5 -64.5z" />
    <glyph glyph-name="adieresis" unicode="&#xe4;" horiz-adv-x="1131" 
d="M678 130q-33 -32 -72 -59t-80.5 -47.5t-87 -31.5t-89.5 -11q-127 0 -203.5 79t-76.5 240q0 178 45.5 314.5t122.5 230t177 142t209 48.5q75 0 130.5 -19.5t96.5 -48.5l17 49h220l-196 -1016h-220zM775 774q-33 24 -68 37.5t-83 13.5q-64 0 -115.5 -43t-88 -111.5
t-57 -155.5t-20.5 -175q0 -72 26 -106t74 -34q53 0 120 49.5t136 138.5zM629 1408q0 -15 -2 -31.5t-5 -36.5q-8 -42 -20.5 -68.5t-32 -41.5t-49 -20.5t-69.5 -5.5q-60 0 -90.5 15t-30.5 58q0 15 1.5 31.5t5.5 36.5q7 42 20 68.5t32.5 41.5t48.5 20.5t70 5.5q59 0 90 -15.5
t31 -57.5zM1073 1408q0 -15 -1.5 -31.5t-5.5 -36.5q-8 -42 -20.5 -68.5t-32 -41.5t-48.5 -20.5t-70 -5.5q-60 0 -90.5 15t-30.5 58q0 15 1.5 31.5t5.5 36.5q7 42 20.5 68.5t33 41.5t48.5 20.5t69 5.5q60 0 90.5 -15.5t30.5 -57.5z" />
    <glyph glyph-name="aring" unicode="&#xe5;" horiz-adv-x="1131" 
d="M678 130q-33 -32 -72 -59t-80.5 -47.5t-87 -31.5t-89.5 -11q-127 0 -203.5 79t-76.5 240q0 178 45.5 314.5t122.5 230t177 142t209 48.5q75 0 130.5 -19.5t96.5 -48.5l17 49h220l-196 -1016h-220zM775 774q-33 24 -68 37.5t-83 13.5q-64 0 -115.5 -43t-88 -111.5
t-57 -155.5t-20.5 -175q0 -72 26 -106t74 -34q53 0 120 49.5t136 138.5zM951 1382q0 -58 -19.5 -105t-54 -80.5t-82 -52t-102.5 -18.5q-103 0 -168 60.5t-65 160.5q0 56 19 103.5t53.5 81.5t81.5 52t102 18q104 0 169.5 -60.5t65.5 -159.5zM801 1376q0 44 -22.5 68t-68.5 24
q-48 0 -74 -31t-26 -85q0 -43 22.5 -67.5t66.5 -24.5q50 0 76 31t26 85z" />
    <glyph glyph-name="ae" unicode="&#xe6;" horiz-adv-x="1497" 
d="M580 441q-98 0 -161 -12.5t-100.5 -34t-52.5 -52.5t-15 -70q-1 -51 26 -76t80 -25q54 0 106 23.5t109 78.5q-3 39 -0.5 83.5t8.5 84.5zM612 610q4 15 8.5 31.5t8.5 33t7.5 31.5t3.5 28q0 18 -6 36t-22 31.5t-44.5 22t-73.5 8.5q-72 0 -139.5 -9.5t-140.5 -26.5l-11 199
q86 20 166.5 31t175.5 11q61 0 106.5 -10t78.5 -26t52.5 -35.5t29.5 -38.5q31 24 66 46t75.5 37.5t86.5 25t102 9.5q159 0 247.5 -69t88.5 -192q0 -92 -40 -160.5t-118 -114t-197.5 -67.5t-279.5 -22q-1 -11 -3.5 -23.5t-3.5 -25.5t-2.5 -27t-1.5 -22q0 -76 40 -106t126 -30
q76 0 150.5 10.5t153.5 32.5l6 -200q-74 -23 -164.5 -36.5t-190.5 -13.5q-71 0 -124.5 9.5t-93 26.5t-68 42t-47.5 55q-69 -59 -153.5 -95t-187.5 -36q-123 0 -194 67.5t-71 193.5q0 84 33 151.5t104 115.5t185 74.5t276 26.5zM878 594q180 -1 267 36.5t87 119.5
q0 41 -29 65.5t-89 24.5q-45 0 -81.5 -14.5t-66 -44.5t-52 -76t-36.5 -111z" />
    <glyph glyph-name="ccedilla" unicode="&#xe7;" horiz-adv-x="838" 
d="M719 16q-63 -16 -132.5 -26.5t-137.5 -10.5h-14l-22 -68q47 -4 78 -17t50 -32t26.5 -42.5t7.5 -48.5q0 -59 -24.5 -101.5t-66 -68.5t-97.5 -38t-121 -12q-43 0 -79.5 3.5t-69.5 13.5l34 123q30 -6 56.5 -9.5t52.5 -3.5q53 0 86.5 16.5t33.5 56.5q0 25 -20 37t-74 12h-62
l60 200q-42 10 -81 32t-68.5 58.5t-48 92t-18.5 135.5q0 20 1 40.5t3 42t5.5 46t9.5 55.5q25 144 75.5 245.5t121.5 165.5t159.5 94t189.5 30q67 0 126.5 -8.5t105.5 -23.5l-61 -196q-38 11 -73.5 15.5t-75.5 4.5q-52 0 -97.5 -15.5t-83.5 -53t-68 -99t-51 -154.5
q-9 -44 -13 -82.5t-4 -72.5q0 -90 44 -128t132 -38q46 0 94 7t104 22z" />
    <glyph glyph-name="egrave" unicode="&#xe8;" horiz-adv-x="995" 
d="M806 29q-73 -23 -164.5 -36.5t-190.5 -13.5q-94 0 -165.5 16t-119.5 56t-73 104t-25 161q0 41 4.5 88.5t12.5 95.5q25 143 75.5 247t122.5 170t163 97t194 31q159 0 247 -69t88 -192q0 -95 -39.5 -165t-118 -116.5t-198.5 -69t-280 -22.5q-3 -19 -5.5 -44.5t-2.5 -44.5
q0 -75 39.5 -105.5t124.5 -30.5q76 0 151 10.5t154 32.5zM373 585q180 -1 268.5 38t88.5 127q0 41 -29 65.5t-89 24.5q-45 0 -82.5 -14.5t-66.5 -45t-52 -79t-38 -116.5zM565 1586l269 -326l-127 -119l-308 292z" />
    <glyph glyph-name="eacute" unicode="&#xe9;" horiz-adv-x="995" 
d="M806 29q-73 -23 -164.5 -36.5t-190.5 -13.5q-94 0 -165.5 16t-119.5 56t-73 104t-25 161q0 41 4.5 88.5t12.5 95.5q25 143 75.5 247t122.5 170t163 97t194 31q159 0 247 -69t88 -192q0 -95 -39.5 -165t-118 -116.5t-198.5 -69t-280 -22.5q-3 -19 -5.5 -44.5t-2.5 -44.5
q0 -75 39.5 -105.5t124.5 -30.5q76 0 151 10.5t154 32.5zM373 585q180 -1 268.5 38t88.5 127q0 41 -29 65.5t-89 24.5q-45 0 -82.5 -14.5t-66.5 -45t-52 -79t-38 -116.5zM863 1563l139 -173l-369 -253l-106 130z" />
    <glyph glyph-name="ecircumflex" unicode="&#xea;" horiz-adv-x="995" 
d="M806 29q-73 -23 -164.5 -36.5t-190.5 -13.5q-94 0 -165.5 16t-119.5 56t-73 104t-25 161q0 41 4.5 88.5t12.5 95.5q25 143 75.5 247t122.5 170t163 97t194 31q159 0 247 -69t88 -192q0 -95 -39.5 -165t-118 -116.5t-198.5 -69t-280 -22.5q-3 -19 -5.5 -44.5t-2.5 -44.5
q0 -75 39.5 -105.5t124.5 -30.5q76 0 151 10.5t154 32.5zM373 585q180 -1 268.5 38t88.5 127q0 41 -29 65.5t-89 24.5q-45 0 -82.5 -14.5t-66.5 -45t-52 -79t-38 -116.5zM731 1557l280 -273l-125 -142l-198 170l-257 -167l-86 137z" />
    <glyph glyph-name="edieresis" unicode="&#xeb;" horiz-adv-x="995" 
d="M806 29q-73 -23 -164.5 -36.5t-190.5 -13.5q-94 0 -165.5 16t-119.5 56t-73 104t-25 161q0 41 4.5 88.5t12.5 95.5q25 143 75.5 247t122.5 170t163 97t194 31q159 0 247 -69t88 -192q0 -95 -39.5 -165t-118 -116.5t-198.5 -69t-280 -22.5q-3 -19 -5.5 -44.5t-2.5 -44.5
q0 -75 39.5 -105.5t124.5 -30.5q76 0 151 10.5t154 32.5zM373 585q180 -1 268.5 38t88.5 127q0 41 -29 65.5t-89 24.5q-45 0 -82.5 -14.5t-66.5 -45t-52 -79t-38 -116.5zM615 1408q0 -15 -2 -31.5t-5 -36.5q-8 -42 -20.5 -68.5t-32 -41.5t-49 -20.5t-69.5 -5.5
q-60 0 -90.5 15t-30.5 58q0 15 1.5 31.5t5.5 36.5q7 42 20 68.5t32.5 41.5t48.5 20.5t70 5.5q59 0 90 -15.5t31 -57.5zM1059 1408q0 -15 -1.5 -31.5t-5.5 -36.5q-8 -42 -20.5 -68.5t-32 -41.5t-48.5 -20.5t-70 -5.5q-60 0 -90.5 15t-30.5 58q0 15 1.5 31.5t5.5 36.5
q7 42 20.5 68.5t33 41.5t48.5 20.5t69 5.5q60 0 90.5 -15.5t30.5 -57.5z" />
    <glyph glyph-name="igrave" unicode="&#xec;" horiz-adv-x="550" 
d="M239 1016h267l-197 -1016h-266zM339 1586l269 -326l-127 -119l-308 292z" />
    <glyph glyph-name="iacute" unicode="&#xed;" horiz-adv-x="550" 
d="M239 1016h267l-197 -1016h-266zM555 1563l139 -173l-369 -253l-106 130z" />
    <glyph glyph-name="icircumflex" unicode="&#xee;" horiz-adv-x="550" 
d="M239 1016h267l-197 -1016h-266zM477 1557l280 -273l-125 -142l-198 170l-257 -167l-86 137z" />
    <glyph glyph-name="idieresis" unicode="&#xef;" horiz-adv-x="550" 
d="M239 1016h267l-197 -1016h-266zM394 1408q0 -15 -2 -31.5t-5 -36.5q-8 -42 -20 -68.5t-32.5 -41t-48 -20t-68.5 -5.5q-59 0 -89.5 15.5t-30.5 56.5q0 15 1.5 31.5t4.5 36.5q7 42 19.5 68t32.5 41t48 20.5t68 5.5q60 0 91 -15.5t31 -56.5zM786 1408q0 -15 -1.5 -31.5
t-4.5 -36.5q-8 -42 -20.5 -68.5t-32.5 -41t-48 -20t-68 -5.5q-60 0 -90.5 15.5t-30.5 56.5q0 15 1.5 31.5t4.5 36.5q7 42 20 68t33 41t48 20.5t68 5.5q60 0 90.5 -15.5t30.5 -56.5z" />
    <glyph glyph-name="eth" unicode="&#xf0;" horiz-adv-x="1082" 
d="M626 1343q-13 24 -33 56.5t-39 60.5l225 105q25 -32 43.5 -60t34.5 -55l199 95l82 -164l-206 -100q46 -117 70.5 -240.5t24.5 -243.5q0 -236 -50.5 -393.5t-132 -254t-184 -137t-209.5 -40.5q-184 0 -284 88.5t-100 264.5q0 168 43 294.5t115 210.5t165 126.5t193 42.5
q52 0 95.5 -12.5t72.5 -33.5l2 2q-9 57 -22 108t-37 111l-189 -92l-80 163zM480 180q60 0 111.5 38t90 107t60.5 165.5t22 213.5v17t-1 16q-30 28 -69.5 43t-87.5 15q-62 0 -112 -35.5t-85.5 -96.5t-54.5 -143.5t-19 -174.5q0 -89 36 -127t109 -38z" />
    <glyph glyph-name="ntilde" unicode="&#xf1;" horiz-adv-x="1162" 
d="M239 1016h220l-7 -134q34 32 75.5 60.5t88.5 49t98 32t104 11.5q132 0 194 -64t62 -185q0 -27 -4 -57t-10 -63l-128 -666h-266l123 638q5 23 7.5 45t2.5 42q0 46 -21.5 68.5t-68.5 22.5q-59 0 -134 -51t-146 -144l-120 -621h-266zM362 1296q24 34 54 67t65.5 59.5
t77.5 43t87 16.5q42 0 73 -15.5t56 -33.5t47.5 -32.5t49.5 -14.5q36 0 68.5 26.5t60.5 65.5l114 -96q-24 -33 -54.5 -66.5t-66.5 -60t-77 -42.5t-87 -16q-43 0 -72.5 14.5t-54.5 32.5t-47.5 33t-49.5 15q-37 0 -69.5 -26.5t-61.5 -64.5z" />
    <glyph glyph-name="ograve" unicode="&#xf2;" horiz-adv-x="1096" 
d="M1027 693q0 -38 -4.5 -82t-14.5 -101q-27 -145 -76.5 -247t-120.5 -167t-161.5 -95t-200.5 -30q-88 0 -159.5 18.5t-120 60.5t-75 109t-26.5 164q0 38 4.5 82t14.5 101q27 144 77 246.5t120.5 167.5t161.5 95t200 30q89 0 159.5 -19t120 -60.5t75.5 -108.5t26 -164z
M759 674q0 90 -36.5 126.5t-107.5 36.5q-45 0 -84.5 -16t-71.5 -54t-58 -101t-45 -160q-5 -21 -8.5 -44t-5.5 -44.5t-3.5 -40.5t-1.5 -35q0 -90 36.5 -127t107.5 -37q44 0 83.5 15.5t72 53.5t58.5 101.5t45 161.5q3 21 7.5 43.5t6.5 44.5t3.5 41t1.5 35zM576 1586l269 -326
l-127 -119l-308 292z" />
    <glyph glyph-name="oacute" unicode="&#xf3;" horiz-adv-x="1096" 
d="M1027 693q0 -38 -4.5 -82t-14.5 -101q-27 -145 -76.5 -247t-120.5 -167t-161.5 -95t-200.5 -30q-88 0 -159.5 18.5t-120 60.5t-75 109t-26.5 164q0 38 4.5 82t14.5 101q27 144 77 246.5t120.5 167.5t161.5 95t200 30q89 0 159.5 -19t120 -60.5t75.5 -108.5t26 -164z
M759 674q0 90 -36.5 126.5t-107.5 36.5q-45 0 -84.5 -16t-71.5 -54t-58 -101t-45 -160q-5 -21 -8.5 -44t-5.5 -44.5t-3.5 -40.5t-1.5 -35q0 -90 36.5 -127t107.5 -37q44 0 83.5 15.5t72 53.5t58.5 101.5t45 161.5q3 21 7.5 43.5t6.5 44.5t3.5 41t1.5 35zM877 1563l139 -173
l-369 -253l-106 130z" />
    <glyph glyph-name="ocircumflex" unicode="&#xf4;" horiz-adv-x="1096" 
d="M1027 693q0 -38 -4.5 -82t-14.5 -101q-27 -145 -76.5 -247t-120.5 -167t-161.5 -95t-200.5 -30q-88 0 -159.5 18.5t-120 60.5t-75 109t-26.5 164q0 38 4.5 82t14.5 101q27 144 77 246.5t120.5 167.5t161.5 95t200 30q89 0 159.5 -19t120 -60.5t75.5 -108.5t26 -164z
M759 674q0 90 -36.5 126.5t-107.5 36.5q-45 0 -84.5 -16t-71.5 -54t-58 -101t-45 -160q-5 -21 -8.5 -44t-5.5 -44.5t-3.5 -40.5t-1.5 -35q0 -90 36.5 -127t107.5 -37q44 0 83.5 15.5t72 53.5t58.5 101.5t45 161.5q3 21 7.5 43.5t6.5 44.5t3.5 41t1.5 35zM747 1557l280 -273
l-125 -142l-198 170l-257 -167l-86 137z" />
    <glyph glyph-name="otilde" unicode="&#xf5;" horiz-adv-x="1096" 
d="M1027 693q0 -38 -4.5 -82t-14.5 -101q-27 -145 -76.5 -247t-120.5 -167t-161.5 -95t-200.5 -30q-88 0 -159.5 18.5t-120 60.5t-75 109t-26.5 164q0 38 4.5 82t14.5 101q27 144 77 246.5t120.5 167.5t161.5 95t200 30q89 0 159.5 -19t120 -60.5t75.5 -108.5t26 -164z
M759 674q0 90 -36.5 126.5t-107.5 36.5q-45 0 -84.5 -16t-71.5 -54t-58 -101t-45 -160q-5 -21 -8.5 -44t-5.5 -44.5t-3.5 -40.5t-1.5 -35q0 -90 36.5 -127t107.5 -37q44 0 83.5 15.5t72 53.5t58.5 101.5t45 161.5q3 21 7.5 43.5t6.5 44.5t3.5 41t1.5 35zM321 1296
q24 34 54 67t65.5 59.5t77.5 43t87 16.5q42 0 73 -15.5t56 -33.5t47.5 -32.5t49.5 -14.5q36 0 68.5 26.5t60.5 65.5l114 -96q-24 -33 -54.5 -66.5t-66.5 -60t-77 -42.5t-87 -16q-43 0 -72.5 14.5t-54.5 32.5t-47.5 33t-49.5 15q-37 0 -69.5 -26.5t-61.5 -64.5z" />
    <glyph glyph-name="odieresis" unicode="&#xf6;" horiz-adv-x="1096" 
d="M1027 693q0 -38 -4.5 -82t-14.5 -101q-27 -145 -76.5 -247t-120.5 -167t-161.5 -95t-200.5 -30q-88 0 -159.5 18.5t-120 60.5t-75 109t-26.5 164q0 38 4.5 82t14.5 101q27 144 77 246.5t120.5 167.5t161.5 95t200 30q89 0 159.5 -19t120 -60.5t75.5 -108.5t26 -164z
M759 674q0 90 -36.5 126.5t-107.5 36.5q-45 0 -84.5 -16t-71.5 -54t-58 -101t-45 -160q-5 -21 -8.5 -44t-5.5 -44.5t-3.5 -40.5t-1.5 -35q0 -90 36.5 -127t107.5 -37q44 0 83.5 15.5t72 53.5t58.5 101.5t45 161.5q3 21 7.5 43.5t6.5 44.5t3.5 41t1.5 35zM640 1408
q0 -15 -2 -31.5t-5 -36.5q-8 -42 -20.5 -68.5t-32 -41.5t-49 -20.5t-69.5 -5.5q-60 0 -90.5 15t-30.5 58q0 15 1.5 31.5t5.5 36.5q7 42 20 68.5t32.5 41.5t48.5 20.5t70 5.5q59 0 90 -15.5t31 -57.5zM1084 1408q0 -15 -1.5 -31.5t-5.5 -36.5q-8 -42 -20.5 -68.5t-32 -41.5
t-48.5 -20.5t-70 -5.5q-60 0 -90.5 15t-30.5 58q0 15 1.5 31.5t5.5 36.5q7 42 20.5 68.5t33 41.5t48.5 20.5t69 5.5q60 0 90.5 -15.5t30.5 -57.5z" />
    <glyph glyph-name="divide" unicode="&#xf7;" 
d="M126 690h904l-40 -204h-903zM644 302q0 -30 -6 -67q-8 -43 -21 -69.5t-33.5 -41.5t-49.5 -21t-71 -6q-60 0 -92 17t-32 64q0 14 1.5 30.5t5.5 36.5q7 42 20 69.5t33.5 42.5t50 20.5t70.5 5.5q62 0 93 -17.5t31 -63.5zM781 999q0 -30 -7 -67q-8 -42 -20.5 -69t-33.5 -42.5
t-50 -21t-70 -5.5q-61 0 -92.5 17t-31.5 63q0 15 1.5 31.5t4.5 35.5q8 43 20.5 70t33.5 42t50.5 20.5t70.5 5.5q62 0 93 -17.5t31 -62.5z" />
    <glyph glyph-name="oslash" unicode="&#xf8;" horiz-adv-x="1126" 
d="M157 65q-34 34 -61.5 92t-27.5 164q0 38 4.5 83t14.5 102q27 144 77.5 246.5t122.5 167.5t166 95t209 30q42 0 79 -6t64 -16l120 178l158 -84l-113 -165q39 -40 63.5 -102t24.5 -155q0 -38 -4.5 -83t-14.5 -102q-27 -145 -77.5 -247t-122.5 -167t-166.5 -95t-208.5 -30
q-40 0 -75 4.5t-67 17.5l-126 -187l-158 85zM430 171q14 -11 30.5 -14.5t40.5 -3.5q57 0 104.5 16t86 56.5t68 110t48.5 174.5q7 36 11 65.5t7 55.5q2 28 1.5 52.5t-4.5 51.5zM697 845q-12 9 -27 13.5t-43 4.5q-58 0 -105.5 -17.5t-86 -58t-67.5 -108.5t-50 -173
q-7 -37 -10.5 -66.5t-6.5 -55.5q-3 -27 -2.5 -52.5t4.5 -49.5z" />
    <glyph glyph-name="ugrave" unicode="&#xf9;" horiz-adv-x="1163" 
d="M497 1016l-123 -638q-5 -23 -7.5 -45t-2.5 -42q0 -47 21 -69t68 -22q59 0 134 51t146 144l120 621h266l-196 -1016h-220l7 134q-34 -33 -75.5 -61t-88.5 -48.5t-98.5 -32t-103.5 -11.5q-132 0 -194 63.5t-62 184.5q0 28 4 57.5t10 63.5l128 666h267zM622 1586l269 -326
l-127 -119l-308 292z" />
    <glyph glyph-name="uacute" unicode="&#xfa;" horiz-adv-x="1163" 
d="M497 1016l-123 -638q-5 -23 -7.5 -45t-2.5 -42q0 -47 21 -69t68 -22q59 0 134 51t146 144l120 621h266l-196 -1016h-220l7 134q-34 -33 -75.5 -61t-88.5 -48.5t-98.5 -32t-103.5 -11.5q-132 0 -194 63.5t-62 184.5q0 28 4 57.5t10 63.5l128 666h267zM917 1563l139 -173
l-369 -253l-106 130z" />
    <glyph glyph-name="ucircumflex" unicode="&#xfb;" horiz-adv-x="1163" 
d="M497 1016l-123 -638q-5 -23 -7.5 -45t-2.5 -42q0 -47 21 -69t68 -22q59 0 134 51t146 144l120 621h266l-196 -1016h-220l7 134q-34 -33 -75.5 -61t-88.5 -48.5t-98.5 -32t-103.5 -11.5q-132 0 -194 63.5t-62 184.5q0 28 4 57.5t10 63.5l128 666h267zM780 1557l280 -273
l-125 -142l-198 170l-257 -167l-86 137z" />
    <glyph glyph-name="udieresis" unicode="&#xfc;" horiz-adv-x="1163" 
d="M497 1016l-123 -638q-5 -23 -7.5 -45t-2.5 -42q0 -47 21 -69t68 -22q59 0 134 51t146 144l120 621h266l-196 -1016h-220l7 134q-34 -33 -75.5 -61t-88.5 -48.5t-98.5 -32t-103.5 -11.5q-132 0 -194 63.5t-62 184.5q0 28 4 57.5t10 63.5l128 666h267zM671 1408
q0 -15 -2 -31.5t-5 -36.5q-8 -42 -20.5 -68.5t-32 -41.5t-49 -20.5t-69.5 -5.5q-60 0 -90.5 15t-30.5 58q0 15 1.5 31.5t5.5 36.5q7 42 20 68.5t32.5 41.5t48.5 20.5t70 5.5q59 0 90 -15.5t31 -57.5zM1115 1408q0 -15 -1.5 -31.5t-5.5 -36.5q-8 -42 -20.5 -68.5t-32 -41.5
t-48.5 -20.5t-70 -5.5q-60 0 -90.5 15t-30.5 58q0 15 1.5 31.5t5.5 36.5q7 42 20.5 68.5t33 41.5t48.5 20.5t69 5.5q60 0 90.5 -15.5t30.5 -57.5z" />
    <glyph glyph-name="yacute" unicode="&#xfd;" horiz-adv-x="1018" 
d="M110 1016h278l47 -454q4 -46 6.5 -86t4 -79t2 -81t1.5 -92h3q20 50 37 91t34.5 80.5t36 79.5t41.5 87l224 454h286l-588 -1105q-56 -109 -104.5 -180t-103.5 -112t-122.5 -57.5t-162.5 -16.5q-42 0 -82.5 5.5t-79.5 14.5l39 198q34 -4 68.5 -7t65.5 -3q35 0 63.5 6.5
t54.5 23t51 47t52 78.5l51 92h-80zM852 1563l139 -173l-369 -253l-106 130z" />
    <glyph glyph-name="thorn" unicode="&#xfe;" horiz-adv-x="1128" 
d="M336 1511h266l-75 -384q-11 -59 -23.5 -109t-31.5 -110l2 -2q30 26 64.5 49.5t73.5 41t82 28t87 10.5q127 0 203.5 -79t76.5 -240q0 -176 -45.5 -313.5t-122.5 -231.5t-177 -142t-209 -48q-61 0 -110.5 14.5t-88.5 37.5l-3 -2q-6 -56 -12 -105t-17 -102l-49 -256h-267z
M354 241q34 -24 69 -37t82 -13q63 0 115.5 42.5t89 111t57.5 155.5t21 177q0 71 -26.5 105t-74.5 34q-52 0 -119.5 -49.5t-136.5 -139.5z" />
    <glyph glyph-name="ydieresis" unicode="&#xff;" horiz-adv-x="1018" 
d="M110 1016h278l47 -454q4 -46 6.5 -86t4 -79t2 -81t1.5 -92h3q20 50 37 91t34.5 80.5t36 79.5t41.5 87l224 454h286l-588 -1105q-56 -109 -104.5 -180t-103.5 -112t-122.5 -57.5t-162.5 -16.5q-42 0 -82.5 5.5t-79.5 14.5l39 198q34 -4 68.5 -7t65.5 -3q35 0 63.5 6.5
t54.5 23t51 47t52 78.5l51 92h-80zM608 1408q0 -15 -2 -31.5t-5 -36.5q-8 -42 -20.5 -68.5t-32 -41.5t-49 -20.5t-69.5 -5.5q-60 0 -90.5 15t-30.5 58q0 15 1.5 31.5t5.5 36.5q7 42 20 68.5t32.5 41.5t48.5 20.5t70 5.5q59 0 90 -15.5t31 -57.5zM1052 1408q0 -15 -1.5 -31.5
t-5.5 -36.5q-8 -42 -20.5 -68.5t-32 -41.5t-48.5 -20.5t-70 -5.5q-60 0 -90.5 15t-30.5 58q0 15 1.5 31.5t5.5 36.5q7 42 20.5 68.5t33 41.5t48.5 20.5t69 5.5q60 0 90.5 -15.5t30.5 -57.5z" />
    <glyph glyph-name="OE" unicode="&#x152;" horiz-adv-x="1750" 
d="M992 1211q-36 13 -75 20t-99 7q-75 0 -136 -29t-111 -93.5t-89 -165.5t-67 -245q-8 -34 -13.5 -70t-10.5 -70.5t-7.5 -68.5t-2.5 -63q0 -63 12.5 -109t38.5 -77t66 -46.5t97 -15.5q65 0 112.5 8t92.5 23zM808 0q-57 -14 -112.5 -21.5t-131.5 -7.5q-110 0 -195 25
t-142.5 79t-88 139.5t-30.5 204.5q0 67 8 137t25 156q38 202 101.5 343.5t152 230t201.5 127.5t253 39q83 0 147.5 -8t113.5 -21h724l-42 -215h-530l-75 -375h494l-41 -210h-493l-79 -408h530l-40 -215h-750z" />
    <glyph glyph-name="oe" unicode="&#x153;" horiz-adv-x="1642" 
d="M759 674q0 90 -36.5 126.5t-107.5 36.5q-45 0 -84.5 -16t-71.5 -54t-58 -101t-45 -160q-5 -21 -8.5 -44t-5.5 -44.5t-3.5 -41.5t-1.5 -35q0 -45 9 -76t27 -50.5t44.5 -28t63.5 -8.5q44 0 83.5 15.5t72 53.5t58.5 101.5t45 161.5q3 21 7.5 43.5t6.5 44.5t3.5 41t1.5 35z
M1453 29q-73 -23 -164 -36.5t-190 -13.5q-128 0 -204 33.5t-112 105.5q-25 -31 -57.5 -57.5t-72.5 -46.5t-91 -31.5t-113 -11.5q-88 0 -159.5 18.5t-120 60.5t-75 109t-26.5 163q0 38 4.5 82.5t14.5 101.5q27 144 77 246.5t121 167.5t161.5 95t199.5 30q63 0 110 -12
t82 -32.5t58.5 -49.5t39.5 -64q58 77 146 117.5t206 40.5q158 0 246.5 -69t88.5 -192q0 -95 -39.5 -165t-118.5 -116.5t-199 -69t-279 -22.5q-3 -19 -6 -44.5t-3 -44.5q0 -75 40 -105.5t126 -30.5q75 0 150 10.5t153 32.5zM1021 585q179 -1 267.5 38t88.5 127
q0 41 -28.5 65.5t-89.5 24.5q-45 0 -82 -14.5t-66 -45t-52.5 -79t-37.5 -116.5z" />
    <glyph glyph-name="Ydieresis" unicode="&#x178;" horiz-adv-x="1132" 
d="M434 531l-263 892h268l110 -352q14 -40 22.5 -73t17 -64t16.5 -63t16 -69h6q22 38 41 71.5t39 64.5t40.5 63.5t47.5 70.5l241 351h281l-617 -895l-103 -528h-266zM697 1764q0 -14 -1.5 -30.5t-5.5 -36.5q-8 -40 -20 -66t-32.5 -40.5t-47.5 -19.5t-67 -5q-57 0 -87 16
t-30 57q0 15 2 31.5t5 36.5q7 41 19.5 66t32.5 40t47.5 19.5t67.5 4.5q57 0 87 -15.5t30 -57.5zM1194 1764q0 -14 -2 -30.5t-5 -36.5q-8 -40 -20 -66t-32.5 -40.5t-47.5 -19.5t-67 -5q-57 0 -87 16t-30 57q0 15 2 31.5t5 36.5q7 41 19.5 66t32.5 40t47.5 19.5t66.5 4.5
q58 0 88 -15.5t30 -57.5z" />
    <glyph glyph-name="apostrophe" unicode="&#x2bc;" horiz-adv-x="460" 
d="M287 1149q40 59 66 99.5t53 89.5q-15 5 -27 19.5t-12 40.5q0 13 1 26t4 27q12 67 42.5 92t103.5 25q59 0 81.5 -18t22.5 -55q0 -42 -6.5 -74.5t-24.5 -64.5q-14 -25 -38 -56.5t-54 -66.5t-63.5 -70t-66.5 -66z" />
    <glyph glyph-name="tilde" unicode="&#x2dc;" horiz-adv-x="1210" 
d="M388 1296q24 34 54 67t65.5 59.5t77.5 43t87 16.5q42 0 73 -15.5t56 -33.5t47.5 -32.5t49.5 -14.5q36 0 68.5 26.5t60.5 65.5l114 -96q-24 -33 -54.5 -66.5t-66.5 -60t-77 -42.5t-87 -16q-43 0 -72.5 14.5t-54.5 32.5t-47.5 33t-49.5 15q-37 0 -69.5 -26.5t-61.5 -64.5z
" />
    <glyph glyph-name="endash" unicode="&#x2013;" 
d="M34 662h1063l-46 -235h-1062z" />
    <glyph glyph-name="emdash" unicode="&#x2014;" horiz-adv-x="2048" 
d="M198 662h1697l-45 -235h-1697z" />
    <glyph glyph-name="quoteleft" unicode="&#x2018;" horiz-adv-x="469" 
d="M600 1501q-45 -66 -76.5 -118t-62.5 -107q14 -4 26.5 -22t12.5 -46q0 -13 -1 -27.5t-4 -30.5q-9 -37 -19.5 -63t-29 -41.5t-47.5 -22.5t-70 -7q-63 0 -90 20t-27 63q0 46 8 84t27 73q16 32 45.5 69.5t64.5 78.5t74 80.5t75 74.5z" />
    <glyph glyph-name="quoteright" unicode="&#x2019;" horiz-adv-x="469" 
d="M176 1053q44 65 76 117t63 108q-15 5 -27 22.5t-12 44.5q0 14 1 28.5t5 30.5q6 38 17.5 63.5t30 41t47.5 22t71 6.5q63 0 89.5 -19.5t26.5 -62.5q0 -46 -8 -84t-27 -74q-16 -31 -45.5 -68.5t-64.5 -78.5t-74 -80.5t-75 -74.5z" />
    <glyph glyph-name="quotedblleft" unicode="&#x201c;" horiz-adv-x="859" 
d="M991 1501q-45 -66 -76.5 -118t-63.5 -107q15 -4 27 -22t12 -46q0 -13 -1 -27.5t-4 -30.5q-8 -37 -19 -63t-29.5 -41.5t-47.5 -22.5t-70 -7q-63 0 -90 20t-27 63q0 46 8 84t27 73q17 32 46 69.5t64 78.5t74 80.5t75 74.5zM600 1501q-45 -66 -76.5 -118t-62.5 -107
q14 -4 26.5 -22t12.5 -46q0 -13 -1 -27.5t-4 -30.5q-9 -37 -19.5 -63t-29 -41.5t-47.5 -22.5t-70 -7q-63 0 -90 20t-27 63q0 46 8 84t27 73q16 32 45.5 69.5t64.5 78.5t74 80.5t75 74.5z" />
    <glyph glyph-name="quotedblright" unicode="&#x201d;" horiz-adv-x="859" 
d="M566 1053q45 65 76.5 117t62.5 108q-14 5 -26 22.5t-12 44.5q0 14 1 28.5t4 30.5q6 38 17.5 63.5t30.5 41t47.5 22t70.5 6.5q63 0 89.5 -19.5t26.5 -62.5q0 -46 -8 -84t-26 -74q-17 -31 -46 -68.5t-64.5 -78.5t-74.5 -80.5t-75 -74.5zM176 1053q44 65 76 117t63 108
q-15 5 -27 22.5t-12 44.5q0 14 1 28.5t5 30.5q6 38 17.5 63.5t30 41t47.5 22t71 6.5q63 0 89.5 -19.5t26.5 -62.5q0 -46 -8 -84t-27 -74q-16 -31 -45.5 -68.5t-64.5 -78.5t-74 -80.5t-75 -74.5z" />
    <glyph glyph-name="quotedblbase" unicode="&#x201e;" horiz-adv-x="862" 
d="M-75 -213q45 66 76.5 118t62.5 108q-13 4 -25.5 22t-12.5 46q0 13 1 27t4 30q7 38 18 63.5t30 41.5t48 22.5t70 6.5q63 0 90 -19.5t27 -62.5q0 -46 -8.5 -84.5t-26.5 -73.5q-16 -31 -45.5 -69t-64.5 -79t-74 -80.5t-75 -73.5zM316 -213q44 66 76 118t63 108
q-14 4 -26.5 22t-12.5 46q0 13 1 27t5 30q7 38 18 63.5t29.5 41.5t47.5 22.5t71 6.5q63 0 89.5 -19.5t26.5 -62.5q0 -46 -8 -84.5t-27 -73.5q-16 -31 -45.5 -69t-64.5 -79t-74 -80.5t-75 -73.5z" />
    <glyph glyph-name="bullet" unicode="&#x2022;" horiz-adv-x="893" 
d="M719 826q0 -23 -2 -46.5t-8 -51.5q-13 -63 -30.5 -106t-48 -69t-75 -37t-108.5 -11q-96 0 -142 28.5t-46 101.5q0 24 1.5 46t7.5 52q13 63 31 105.5t48.5 68.5t75 38t108.5 12q96 0 142 -31t46 -100z" />
    <glyph glyph-name="ellipsis" unicode="&#x2026;" horiz-adv-x="1518" 
d="M338 199q0 -15 -1.5 -31.5t-4.5 -35.5q-8 -43 -20.5 -71.5t-33 -45.5t-51.5 -24t-78 -7q-71 0 -102 18t-31 65q0 16 1.5 33t4.5 36q8 43 21 71t33.5 45t51.5 24.5t78 7.5q71 0 101.5 -18t30.5 -67zM847 199q0 -15 -2 -31.5t-5 -35.5q-8 -43 -20.5 -71.5t-33 -45.5
t-51.5 -24t-78 -7q-71 0 -102 18t-31 65q0 16 1.5 33t5.5 36q7 43 20 71t33.5 45t52 24.5t78.5 7.5q70 0 101 -18t31 -67zM1354 199q0 -15 -1.5 -31.5t-4.5 -35.5q-8 -43 -21 -71.5t-32.5 -45.5t-51 -24t-78.5 -7q-72 0 -102.5 18t-30.5 65q0 16 1.5 33t4.5 36q8 43 20.5 71
t33.5 45t52 24.5t78 7.5q71 0 101.5 -18t30.5 -67z" />
    <glyph glyph-name="guilsinglleft" unicode="&#x2039;" horiz-adv-x="659" 
d="M63 525l406 471l187 -117l-307 -376l160 -385l-220 -98z" />
    <glyph glyph-name="guilsinglright" unicode="&#x203a;" horiz-adv-x="659" 
d="M310 509l-161 385l222 98l224 -505l-405 -470l-186 116z" />
    <glyph glyph-name="Euro" unicode="&#x20ac;" 
d="M299 969q47 138 109 231t139.5 148.5t173 79t210.5 23.5q74 0 139 -10.5t116 -24.5l-62 -204q-56 14 -103 21t-106 7t-110 -14.5t-94 -46.5t-79 -83.5t-64 -126.5h379l-36 -181h-404q-4 -19 -8 -38.5t-10 -44.5q-3 -16 -5.5 -34t-5.5 -31h404l-35 -182h-386
q-1 -13 -1.5 -24t-0.5 -23q2 -67 19 -111t45.5 -69.5t71 -36t96.5 -10.5q61 0 115 8.5t122 25.5l6 -207q-67 -15 -140.5 -26.5t-148.5 -11.5q-106 0 -190 23t-141 75t-86.5 134.5t-29.5 200.5q0 13 0.5 25.5t1.5 26.5h-142l35 182h125q2 14 5.5 35.5t7.5 37.5q4 19 7.5 37
t8.5 38h-125l36 181h141z" />
    <glyph glyph-name="trademark" unicode="&#x2122;" horiz-adv-x="1834" 
d="M388 1263h-218l32 160h622l-32 -160h-206l-107 -550h-199zM956 1423h299l23 -373l2 -201l80 201l171 373h299l-74 -710h-192l49 387l30 180l-72 -178l-176 -389h-278l-27 386l-3 181l-38 -180l-108 -387h-188z" />
    <glyph glyph-name="dotlessi" horiz-adv-x="550" 
d="M239 1016h267l-197 -1016h-266z" />
    <glyph glyph-name="grave.cap" horiz-adv-x="797" 
d="M487 1889l398 -207l-81 -152l-423 165z" />
    <glyph glyph-name="acute.cap" horiz-adv-x="792" 
d="M815 1878l72 -197l-449 -146l-64 155z" />
    <glyph glyph-name="circumflex" horiz-adv-x="1045" 
d="M762 1557l280 -273l-125 -142l-198 170l-257 -167l-86 137z" />
    <glyph glyph-name="circumflex.cap" horiz-adv-x="1045" 
d="M834 1876l298 -182l-98 -154l-242 121l-284 -121l-55 154z" />
    <glyph glyph-name="dieresis.narrow" horiz-adv-x="1128" 
d="M672 1408q0 -15 -2 -31.5t-5 -36.5q-8 -42 -20 -68.5t-32.5 -41t-48 -20t-68.5 -5.5q-59 0 -89.5 15.5t-30.5 56.5q0 15 1.5 31.5t4.5 36.5q7 42 19.5 68t32.5 41t48 20.5t68 5.5q60 0 91 -15.5t31 -56.5zM1064 1408q0 -15 -1.5 -31.5t-4.5 -36.5q-8 -42 -20.5 -68.5
t-32.5 -41t-48 -20t-68 -5.5q-60 0 -90.5 15.5t-30.5 56.5q0 15 1.5 31.5t4.5 36.5q7 42 20 68t33 41t48 20.5t68 5.5q60 0 90.5 -15.5t30.5 -56.5z" />
    <glyph glyph-name="dieresis.cap" horiz-adv-x="1124" 
d="M667 1764q0 -14 -1.5 -30.5t-5.5 -36.5q-8 -40 -20 -66t-32.5 -40.5t-47.5 -19.5t-67 -5q-57 0 -87 16t-30 57q0 15 2 31.5t5 36.5q7 41 19.5 66t32.5 40t47.5 19.5t67.5 4.5q57 0 87 -15.5t30 -57.5zM1164 1764q0 -14 -2 -30.5t-5 -36.5q-8 -40 -20 -66t-32.5 -40.5
t-47.5 -19.5t-67 -5q-57 0 -87 16t-30 57q0 15 2 31.5t5 36.5q7 41 19.5 66t32.5 40t47.5 19.5t66.5 4.5q58 0 88 -15.5t30 -57.5z" />
    <glyph glyph-name="dieresis.narrow.cap" horiz-adv-x="1124" 
d="M1127 1764q0 -14 -2 -30.5t-5 -36.5q-8 -40 -20 -66t-32 -40.5t-47.5 -19.5t-66.5 -5q-57 0 -87 16t-30 57q0 15 1.5 31.5t5.5 36.5q7 41 19.5 66t32.5 40t47 19.5t67 4.5q57 0 87 -15.5t30 -57.5zM702 1764q0 -14 -2 -30.5t-5 -36.5q-8 -40 -20 -66t-32 -40.5
t-47.5 -19.5t-67.5 -5q-57 0 -86.5 16t-29.5 57q0 15 1.5 31.5t5.5 36.5q7 41 19.5 66t32.5 40t47.5 19.5t66.5 4.5q57 0 87 -15.5t30 -57.5z" />
    <glyph glyph-name="tilde.cap" horiz-adv-x="1222" 
d="M441 1684q51 60 119 101.5t161 41.5q44 0 77.5 -11.5t61 -24t53 -24t57.5 -11.5q38 0 75.5 18t69.5 51l97 -112q-50 -59 -118 -101t-160 -42q-46 0 -79 11t-60.5 24t-53 24.5t-56.5 11.5q-39 0 -76.5 -18t-69.5 -51z" />
    <glyph glyph-name="ring" horiz-adv-x="833" 
d="M853 1382q0 -58 -19.5 -105t-54 -80.5t-82 -52t-102.5 -18.5q-103 0 -168 60.5t-65 160.5q0 56 19 103.5t53.5 81.5t81.5 52t102 18q104 0 169.5 -60.5t65.5 -159.5zM703 1376q0 44 -22.5 68t-68.5 24q-48 0 -74 -31t-26 -85q0 -43 22.5 -67.5t66.5 -24.5q50 0 76 31
t26 85z" />
    <glyph glyph-name="ring.cap" horiz-adv-x="842" 
d="M867 1738q0 -53 -19 -97t-53 -77t-83.5 -50.5t-109.5 -17.5q-50 0 -94 15t-76.5 42t-50.5 66.5t-18 91.5t18.5 96.5t53.5 77t83 50.5t106 18q105 0 174 -56.5t69 -158.5zM716 1731q0 44 -25 67t-73 23q-46 0 -75 -27.5t-29 -76.5q0 -43 25 -66t69 -23q49 0 78.5 27
t29.5 76z" />
    <glyph glyph-name="zeroinferior" horiz-adv-x="729" 
d="M648 485q0 -30 -3 -60t-12 -75q-21 -106 -53.5 -177.5t-78.5 -114t-104.5 -60.5t-130.5 -18q-55 0 -100.5 13t-78 42.5t-50.5 77t-18 115.5q0 29 3 60t12 76q20 106 53.5 176.5t79 113t104 61t130.5 18.5q54 0 100 -13t78.5 -42.5t50.5 -77t18 -115.5zM452 487
q0 53 -19 73t-54 20q-23 0 -44.5 -9.5t-40 -35.5t-34.5 -70t-29 -113q-7 -34 -11.5 -65.5t-4.5 -60.5q0 -53 19 -73t54 -20q23 0 44.5 10.5t40 35.5t34.5 69.5t30 113.5q6 34 10.5 64.5t4.5 60.5z" />
    <glyph glyph-name="oneinferior" horiz-adv-x="475" 
d="M170 494l-119 -56l-53 125l246 150h167l-137 -713h-198z" />
    <glyph glyph-name="twoinferior" horiz-adv-x="605" 
d="M-24 154l160 140q69 59 116 108t47 98q0 28 -20 44.5t-63 16.5q-31 0 -59.5 -4.5t-64.5 -15.5l-8 155q51 15 106.5 23t116.5 8q110 0 173.5 -45.5t63.5 -127.5q0 -46 -13.5 -86.5t-40 -76t-64.5 -70t-89 -70.5l-106 -85h248l-31 -166h-502z" />
    <glyph glyph-name="threeinferior" horiz-adv-x="578" 
d="M-26 152q30 -7 65 -11.5t67 -4.5q66 0 104 23t38 68q0 17 -7 29.5t-26.5 21t-54 13t-88.5 4.5l29 143q101 0 147.5 23.5t46.5 65.5q0 25 -21 37t-68 12q-32 0 -62.5 -5t-63.5 -13l-8 144q48 11 98 18t100 7q124 0 183 -42.5t59 -111.5q0 -40 -13 -72t-33.5 -56
t-47.5 -41.5t-57 -27.5q51 -14 79.5 -52t28.5 -92q0 -58 -26 -103.5t-72 -77.5t-108.5 -48.5t-134.5 -16.5q-53 0 -99.5 4t-90.5 14z" />
    <glyph glyph-name="fourinferior" horiz-adv-x="650" 
d="M272 126h-320l34 176l303 411h291l-82 -420h78l-31 -167h-79l-24 -126h-193zM304 293l53 267l-200 -267h147z" />
    <glyph glyph-name="fraction" horiz-adv-x="1068" 
d="M1108 1477l134 -109l-1199 -1419l-135 107z" />
    </font>
</defs>
</svg>
