<?xml version="1.0" standalone="no"?>
<!DOCTYPE svg PUBLIC "-//W3C//DTD SVG 1.1//EN" "http://www.w3.org/Graphics/SVG/1.1/DTD/svg11.dtd" >
<svg>
<metadata>
Created by FontForge 20120731 at Wed Jun 17 21:35:19 2015
 By ,,,
Copyright (c) 2006-2010 by Jan Fromm. All rights reserved.
</metadata>
<defs>
<font id="4ddcd1c4494ac5e6be25d7ac638090f1d99536f9214135a3f7dd58e4565bfcb" horiz-adv-x="1085" >
  <font-face 
    font-family="4ddcd1c4494ac5e6be25d7ac638090f1d99536f9214135a3f7dd58e4565bfcba"
    font-weight="300"
    font-style="italic"
    font-stretch="normal"
    units-per-em="2048"
    panose-1="2 11 3 3 4 3 2 9 2 3"
    ascent="1659"
    descent="-389"
    x-height="1000"
    cap-height="1423"
    bbox="-303 -471 1954 1884"
    underline-thickness="200"
    underline-position="-50"
    slope="-11"
    unicode-range="U+0020-2122"
  />
<missing-glyph 
d="M356 719q-16 0 -16 -21q0 -20 16 -20h74v-238q0 -65 -51 -65q-23 0 -31 4t-16 4q-17 0 -17 -21q0 -14 11 -18q10 -4 23 -6t26 -2q106 0 106 104v246q0 33 -32 33h-93zM561 360q0 -20 25 -20q26 0 26 20v152h142q14 0 14 20q0 21 -14 21h-142v125h158q16 0 16 20
q0 21 -16 21h-174q-35 0 -35 -33v-326zM197 539q0 73 26.5 137.5t72.5 111t109.5 73t137.5 26.5q73 0 137.5 -26.5t111 -73t73 -111t26.5 -137.5q0 -74 -26.5 -137.5t-73 -109.5t-111 -72.5t-137.5 -26.5q-74 0 -137.5 26.5t-109.5 72.5t-72.5 109.5t-26.5 137.5z" />
    <glyph glyph-name=".notdef" 
d="M356 719q-16 0 -16 -21q0 -20 16 -20h74v-238q0 -65 -51 -65q-23 0 -31 4t-16 4q-17 0 -17 -21q0 -14 11 -18q10 -4 23 -6t26 -2q106 0 106 104v246q0 33 -32 33h-93zM561 360q0 -20 25 -20q26 0 26 20v152h142q14 0 14 20q0 21 -14 21h-142v125h158q16 0 16 20
q0 21 -16 21h-174q-35 0 -35 -33v-326zM197 539q0 73 26.5 137.5t72.5 111t109.5 73t137.5 26.5q73 0 137.5 -26.5t111 -73t73 -111t26.5 -137.5q0 -74 -26.5 -137.5t-73 -109.5t-111 -72.5t-137.5 -26.5q-74 0 -137.5 26.5t-109.5 72.5t-72.5 109.5t-26.5 137.5z" />
    <glyph glyph-name=".null" horiz-adv-x="0" 
 />
    <glyph glyph-name="nonmarkingreturn" horiz-adv-x="682" 
 />
    <glyph glyph-name="space" unicode=" " horiz-adv-x="527" 
 />
    <glyph glyph-name="space" unicode="&#xa0;" horiz-adv-x="527" 
 />
    <glyph glyph-name="exclam" unicode="!" horiz-adv-x="571" 
d="M419 1511h127l-235 -1151h-105zM298 115q0 -12 -1 -23t-4 -22q-5 -22 -12 -39t-19 -26.5t-30.5 -14.5t-45.5 -5q-42 0 -60.5 11t-18.5 38q0 11 1.5 22t3.5 22q5 23 12.5 39.5t19 26.5t30 14.5t46.5 4.5q41 0 59.5 -10.5t18.5 -37.5z" />
    <glyph glyph-name="quotedbl" unicode="&#x22;" horiz-adv-x="637" 
d="M317 1511h124l-91 -386h-91zM589 1511h124l-91 -386h-91z" />
    <glyph glyph-name="numbersign" unicode="#" 
d="M233 432h-202l17 92h219l155 390h-204l18 92h219l164 417h105l-164 -417h264l164 417h102l-164 -417h199l-18 -92h-214l-157 -390h201l-18 -92h-215l-169 -432h-103l169 432h-263l-171 -432h-103zM633 524l157 390h-264l-155 -390h262z" />
    <glyph glyph-name="dollar" unicode="$" 
d="M828 1600l-45 -226q69 -3 134.5 -10.5t127.5 -24.5l-23 -98q-61 16 -136.5 25.5t-145.5 9.5q-89 0 -156.5 -18t-115 -52t-71 -82t-23.5 -105q0 -45 11.5 -78t39.5 -63.5t77.5 -62.5t128.5 -73q81 -43 138.5 -81t94 -77t52 -84.5t15.5 -105.5q0 -81 -28.5 -149t-84 -120.5
t-137 -86t-188.5 -43.5l-47 -236h-105l45 234q-81 2 -155 12.5t-149 31.5l23 98q73 -20 157.5 -32.5t169.5 -12.5q88 0 158 21.5t118.5 59t75.5 89.5t27 113q0 44 -11.5 77.5t-40.5 65t-80.5 64.5t-132.5 75q-83 42 -138 78.5t-89 75t-49.5 83.5t-15.5 105q0 78 27 143
t80.5 113.5t132 78.5t183.5 38l45 230h106z" />
    <glyph glyph-name="percent" unicode="%" horiz-adv-x="1526" 
d="M1369 1461l72 -57l-1213 -1440l-72 57zM715 1217q0 -34 -3.5 -71.5t-14.5 -84.5q-22 -107 -53 -178t-71.5 -113.5t-90.5 -59.5t-109 -17q-45 0 -82 11.5t-65 38t-42 69t-14 104.5q0 33 4 70.5t14 84.5q20 108 52 178.5t72.5 113t90.5 60t108 17.5q46 0 83.5 -11.5
t64.5 -38.5t41.5 -69.5t14.5 -103.5zM615 1215q0 83 -32 113t-83 30q-34 0 -65.5 -12.5t-58 -45.5t-49 -89.5t-39.5 -145.5q-9 -44 -13.5 -80.5t-4.5 -66.5q0 -83 32 -113t83 -30q33 0 65 13t58 45t49 89t40 145q10 44 14 80.5t4 67.5zM1438 507q0 -34 -3.5 -71.5
t-14.5 -84.5q-22 -107 -53 -178t-71.5 -113.5t-90.5 -59.5t-109 -17q-45 0 -82 11.5t-65 38t-42 69t-14 104.5q0 33 4 70.5t14 84.5q20 108 52 178.5t72.5 113t90.5 60t108 17.5q46 0 83.5 -11.5t64.5 -38.5t41.5 -69.5t14.5 -103.5zM1338 505q0 83 -32 113t-83 30
q-34 0 -65.5 -12.5t-58 -45.5t-49 -89.5t-39.5 -145.5q-9 -44 -13.5 -80.5t-4.5 -66.5q0 -83 32 -113t83 -30q33 0 65 13t58 45t49 89t40 145q10 44 14 80.5t4 67.5z" />
    <glyph glyph-name="ampersand" unicode="&#x26;" horiz-adv-x="1260" 
d="M1111 -25q-29 29 -54 58t-49 56t-49.5 55t-53.5 60q-100 -112 -223.5 -173t-259.5 -61q-80 0 -147.5 22t-115.5 62.5t-75 99t-27 133.5q0 94 33 167.5t88.5 136.5t127 116t147.5 102q-45 82 -78 170.5t-33 181.5t26.5 164.5t75.5 120t118 72.5t156 24q70 0 123.5 -18
t90 -49t54 -74t17.5 -92q0 -93 -36 -170t-94 -141t-129.5 -116.5t-140.5 -98.5q34 -55 71 -108.5t75.5 -104t79 -99t83.5 -99.5q47 73 89 161.5t69 206.5h110q-34 -138 -84 -247.5t-115 -199.5q30 -34 55.5 -64.5t51 -59t53 -58t57.5 -60.5zM506 723q-65 -44 -124 -86
t-105 -91t-73.5 -109t-27.5 -137q0 -103 67 -168t193 -65q110 0 212 56t191 159q-45 54 -88.5 107t-84.5 107.5t-81.5 110.5t-78.5 116zM885 1290q0 69 -45 113t-139 44q-120 0 -182 -72t-62 -201q0 -81 28.5 -158.5t65.5 -146.5q64 40 123.5 85t106 95.5t75.5 109.5t29 131
z" />
    <glyph glyph-name="quotesingle" unicode="'" horiz-adv-x="365" 
d="M317 1511h124l-91 -386h-91z" />
    <glyph glyph-name="parenleft" unicode="(" horiz-adv-x="564" 
d="M259 -358q-34 88 -58 162.5t-38 149t-21 154t-7 178.5q0 207 47.5 401t120.5 362.5t163 309t173 243.5l81 -52q-81 -108 -164 -248t-150.5 -301.5t-110 -344t-42.5 -374.5q0 -81 4 -152t14.5 -140.5t29 -143.5t46.5 -159z" />
    <glyph glyph-name="parenright" unicode=")" horiz-adv-x="564" 
d="M-112 -305q80 108 163.5 247t150.5 301.5t109.5 343.5t42.5 375q0 81 -4 152.5t-14 141t-28.5 142t-49.5 159.5l93 45q31 -87 55.5 -162t38.5 -149t20.5 -153.5t6.5 -178.5q0 -210 -47 -403.5t-120 -361t-163 -308.5t-173 -244z" />
    <glyph glyph-name="asterisk" unicode="*" horiz-adv-x="807" 
d="M499 1153l-216 -132l-41 85l242 102l-212 123l60 83l188 -155l28 252h104l-71 -250l219 131l40 -84l-244 -103l214 -123l-60 -82l-190 155l-27 -253h-104z" />
    <glyph glyph-name="plus" unicode="+" 
d="M113 634h383l80 410h106l-80 -410h389l-19 -96h-389l-79 -413h-106l80 413h-384z" />
    <glyph glyph-name="comma" unicode="," horiz-adv-x="444" 
d="M-62 -224q21 32 39 60t34 53.5t31 50.5t30 51q-11 5 -20 17t-9 32q0 10 1 20.5t4 19.5q5 24 12.5 41t19.5 27t31 15t47 5q43 0 62 -13t19 -42q0 -28 -4.5 -53.5t-15.5 -47.5q-13 -27 -38.5 -62t-56.5 -73.5t-65 -74t-61 -65.5z" />
    <glyph glyph-name="hyphen" unicode="-" horiz-adv-x="908" 
d="M191 589h557l-20 -103h-557z" />
    <glyph glyph-name="period" unicode="." horiz-adv-x="444" 
d="M237 117q0 -12 -1 -23t-3 -21q-5 -24 -13 -41t-19.5 -27t-31 -15t-46.5 -5q-44 0 -63 11.5t-19 39.5q0 12 1.5 22.5t3.5 21.5q5 24 13 41t19.5 27t30.5 15t47 5q43 0 62 -11.5t19 -39.5z" />
    <glyph glyph-name="slash" unicode="/" horiz-adv-x="768" 
d="M831 1511h124l-998 -1741h-123z" />
    <glyph glyph-name="zero" unicode="0" 
d="M1063 1076q0 -79 -9.5 -162.5t-31.5 -198.5q-43 -223 -99.5 -366.5t-128 -226.5t-158 -116.5t-192.5 -33.5q-80 0 -142 20.5t-103 65t-61.5 117t-20.5 172.5q0 79 9 162.5t31 199.5q43 223 100 366.5t128.5 226t158 116t191.5 33.5q81 0 142 -20.5t102 -65t62.5 -116.5
t21.5 -173zM946 1071q0 77 -13.5 131.5t-41 87.5t-70.5 47.5t-102 14.5q-73 0 -137 -26.5t-119.5 -98t-103 -197t-84.5 -324.5q-10 -53 -18 -101.5t-13.5 -93t-8 -84t-2.5 -75.5q0 -77 13.5 -131.5t41 -87t71 -47.5t102.5 -15q73 0 137 26.5t119.5 98.5t101.5 197.5
t86 324.5q9 52 17.5 100.5t14 93t7.5 84t2 75.5z" />
    <glyph glyph-name="one" unicode="1" 
d="M101 102h341l228 1179l-314 -136l-31 80l397 198h94l-258 -1321h291l-19 -102h-747z" />
    <glyph glyph-name="two" unicode="2" 
d="M54 82l481 498q81 84 150 157.5t121.5 143.5t82 139.5t29.5 145.5q0 91 -55 136.5t-177 45.5q-82 0 -162 -12t-158 -34l-11 95q84 22 176 36t182 14q82 0 143.5 -16.5t102.5 -49.5t62 -82t21 -113q0 -91 -31.5 -173t-87 -161t-131 -158.5t-163.5 -166.5l-423 -422h661
l-19 -105h-809z" />
    <glyph glyph-name="three" unicode="3" 
d="M82 110q79 -16 145 -25.5t143 -9.5q93 0 174.5 28t141 81t93.5 130.5t34 174.5q0 50 -17.5 92t-64.5 73.5t-129 48t-213 16.5l19 98q121 0 214.5 26.5t158.5 74t98.5 113.5t33.5 145q0 86 -52 129t-184 43q-72 0 -150 -11t-162 -34l-8 94q90 22 176.5 36t171.5 14
q167 0 248.5 -61.5t81.5 -183.5q0 -96 -33 -168.5t-86 -124t-117 -84t-124 -51.5q59 -9 105.5 -30t80.5 -54t51.5 -79.5t17.5 -106.5q0 -127 -43 -225t-118.5 -165.5t-179.5 -102.5t-226 -35q-86 0 -155.5 9.5t-148.5 27.5z" />
    <glyph glyph-name="four" unicode="4" 
d="M661 313h-607l19 100l752 1010h166l-197 -1006h168l-19 -104h-168l-61 -313h-113zM680 417l169 876l-650 -876h481z" />
    <glyph glyph-name="five" unicode="5" 
d="M1050 1423l-21 -104h-524l-98 -498q51 6 94 11t106 5q160 0 241.5 -71.5t81.5 -225.5q0 -142 -42.5 -247.5t-118.5 -176t-179.5 -105.5t-227.5 -35q-77 0 -142 9.5t-138 26.5l21 97q72 -17 136.5 -25.5t132.5 -8.5q93 0 174 29t140.5 85.5t92.5 139.5t33 190
q0 117 -63 168.5t-187 51.5q-67 0 -128 -7t-151 -20l140 711h627z" />
    <glyph glyph-name="six" unicode="6" 
d="M1056 1323q-50 10 -95.5 17.5t-107.5 7.5q-122 0 -203.5 -47.5t-139 -131.5t-95 -199.5t-70.5 -253.5q77 43 157 72.5t167 29.5q75 0 131.5 -19t94.5 -56t58 -90.5t20 -122.5q0 -136 -40.5 -240.5t-108.5 -174t-158 -106.5t-189 -37q-148 0 -229.5 86t-81.5 263
q0 48 5.5 101t17.5 114q45 228 97.5 399.5t129.5 284.5t185.5 170t266.5 57q64 0 113.5 -7.5t101.5 -21.5zM852 511q0 103 -51.5 155.5t-161.5 52.5q-72 0 -150.5 -29.5t-165.5 -84.5q-21 -94 -31 -158.5t-10 -120.5q0 -134 56 -194.5t155 -60.5q70 0 136 28.5t115.5 84
t78.5 138t29 189.5z" />
    <glyph glyph-name="seven" unicode="7" 
d="M264 0q97 181 190.5 348.5t186 328t186 319t194.5 323.5h-734l21 104h864l-16 -85q-102 -169 -198.5 -329.5t-190 -323t-186 -333t-189.5 -352.5h-128v0z" />
    <glyph glyph-name="eight" unicode="8" 
d="M947 428q0 -114 -40.5 -199.5t-108.5 -142t-156 -85.5t-186 -29q-161 0 -252 79.5t-91 217.5q0 107 34.5 185.5t89.5 136.5t124.5 98t137.5 69q-103 57 -151 130t-48 167q0 98 35 172.5t95.5 124t140.5 74.5t171 25q90 0 150.5 -23.5t98 -59.5t54.5 -82.5t17 -93.5
q0 -93 -30 -162t-79 -120t-110 -88.5t-126 -67.5q109 -61 169.5 -138t60.5 -188zM942 1170q0 35 -10.5 67t-35 58t-66 41.5t-103.5 15.5q-63 0 -119 -17.5t-97.5 -53.5t-66.5 -89t-25 -121q0 -44 12 -80t36.5 -66t62.5 -58t92 -56q66 26 124 58.5t102 75.5t69 98t25 127z
M824 408q0 97 -55.5 163.5t-176.5 128.5q-68 -26 -133 -61t-115.5 -84.5t-81.5 -115t-31 -151.5q0 -102 60.5 -159.5t176.5 -57.5q70 0 134 21.5t113.5 64t79 105.5t29.5 146z" />
    <glyph glyph-name="nine" unicode="9" 
d="M107 111q70 -19 122.5 -27.5t119.5 -8.5q121 0 203.5 46.5t138.5 131t94 201t71 253.5q-77 -43 -157 -72.5t-167 -29.5q-73 0 -130 19t-95 56t-58 90.5t-20 122.5q0 136 40.5 240.5t108.5 174t157.5 106.5t188.5 37q147 0 229 -85t82 -262q0 -48 -5.5 -101.5
t-18.5 -115.5q-46 -229 -97.5 -400.5t-128 -284.5t-184.5 -169.5t-266 -56.5q-73 0 -131 11.5t-125 28.5zM349 912q0 -103 51.5 -155.5t161.5 -52.5q72 0 150.5 30t165.5 84q21 94 30.5 159.5t9.5 121.5q0 133 -55.5 193t-154.5 60q-70 0 -135.5 -28.5t-115.5 -84.5
t-79 -138t-29 -189z" />
    <glyph glyph-name="colon" unicode=":" horiz-adv-x="383" 
d="M237 117q0 -12 -1 -23t-3 -21q-5 -24 -13 -41t-19.5 -27t-31 -15t-46.5 -5q-44 0 -63 11.5t-19 39.5q0 12 1.5 22.5t3.5 21.5q5 24 13 41t19.5 27t30.5 15t47 5q43 0 62 -11.5t19 -39.5zM371 808q0 -12 -1 -22.5t-3 -20.5q-5 -25 -12.5 -41.5t-19.5 -27t-31 -15.5t-47 -5
q-43 0 -62 11.5t-19 39.5q0 12 1 23t3 22q6 23 13.5 40t19 27t30.5 15t47 5q43 0 62 -11.5t19 -39.5z" />
    <glyph glyph-name="semicolon" unicode=";" horiz-adv-x="384" 
d="M-64 -224q21 32 39 60t34.5 53.5t31 50.5t30.5 51q-12 5 -21 17t-9 32q0 10 1.5 20.5t3.5 19.5q5 24 13 41t19.5 27t30.5 15t47 5q43 0 62 -13t19 -42q0 -28 -4.5 -53.5t-15.5 -47.5q-12 -27 -38 -62t-57 -73.5t-64.5 -74t-61.5 -65.5zM371 808q0 -12 -1 -22.5t-3 -20.5
q-5 -25 -12.5 -41.5t-19.5 -27t-31 -15.5t-47 -5q-43 0 -62 11.5t-19 39.5q0 12 1 23t3 22q6 23 13.5 40t19 27t30.5 15t47 5q43 0 62 -11.5t19 -39.5z" />
    <glyph glyph-name="less" unicode="&#x3c;" 
d="M170 643l833 447l-23 -126l-716 -383l566 -391l-22 -111l-661 451z" />
    <glyph glyph-name="equal" unicode="=" 
d="M187 821h840l-18 -97h-840zM116 448h838l-18 -96h-839z" />
    <glyph glyph-name="greater" unicode="&#x3e;" 
d="M166 204l717 384l-568 391l23 111l661 -451l-21 -113l-835 -447z" />
    <glyph glyph-name="question" unicode="?" horiz-adv-x="759" 
d="M248 542q12 63 28.5 110t44 88t66 82.5t95.5 95.5q58 55 103.5 100t76.5 85.5t48 82t17 88.5q0 32 -11.5 60.5t-37 50t-68 33.5t-106.5 12q-59 0 -119 -7.5t-133 -23.5l-8 92q73 18 144 27t146 9q161 0 238.5 -65t77.5 -166q0 -71 -17.5 -124.5t-53 -102.5t-87.5 -99.5
t-119 -112.5q-50 -45 -85.5 -80.5t-62.5 -71.5t-43.5 -78.5t-28.5 -99.5l-32 -167h-106zM310 115q0 -12 -1.5 -23t-3.5 -22q-5 -22 -12.5 -39t-19 -26.5t-30 -14.5t-46.5 -5q-41 0 -59.5 11t-18.5 38q0 11 1 22t4 22q4 23 11.5 39.5t19.5 26.5t30.5 14.5t45.5 4.5
q42 0 60.5 -10.5t18.5 -37.5z" />
    <glyph glyph-name="at" unicode="@" horiz-adv-x="2019" 
d="M1335 369q-22 -87 17 -125.5t102 -38.5q57 0 119.5 39.5t114.5 120.5t87 205.5t35 294.5q0 104 -32.5 193t-108 155t-195.5 103.5t-295 37.5q-174 0 -338.5 -55t-292 -174.5t-205.5 -306.5t-78 -449q0 -110 28 -212t93.5 -179.5t176.5 -123t279 -45.5q137 0 259.5 12
t237.5 46l12 -97q-115 -29 -241 -43.5t-277 -14.5q-188 0 -318 53.5t-211.5 142.5t-117.5 206t-36 244q0 290 88 496t232 339t332 195.5t388 62.5q197 0 336.5 -44t229 -121.5t130 -182.5t40.5 -228q0 -199 -46 -341.5t-117 -234.5t-158.5 -135.5t-171.5 -43.5
q-93 0 -152 48.5t-54 130.5q-42 -37 -86.5 -68t-93.5 -57t-100.5 -40t-106.5 -14q-121 0 -189.5 74t-68.5 229q0 126 43.5 239t117 199t173.5 136.5t213 50.5q76 0 141.5 -22t116.5 -59l18 59h93zM1349 876q-48 37 -102 59t-125 22q-85 0 -161.5 -41.5t-134 -112.5t-92 -166
t-34.5 -201q0 -116 41 -170t127 -54q78 0 170 52t197 151z" />
    <glyph glyph-name="A" unicode="A" horiz-adv-x="1184" 
d="M693 1423h164l203 -1423h-122l-59 409h-598l-214 -409h-125zM868 507l-54 393q-9 63 -16 116.5t-14.5 106.5t-13.5 104.5t-11 107.5h-2q-29 -56 -54 -108t-52 -104.5t-55 -106.5t-61 -117l-206 -392h539z" />
    <glyph glyph-name="B" unicode="B" horiz-adv-x="1171" 
d="M379 1423h347q114 0 193 -16.5t128 -51t71.5 -87.5t22.5 -124q0 -82 -25.5 -148t-68 -116.5t-100 -84t-121.5 -50.5q114 -18 170.5 -90t56.5 -176q0 -117 -42.5 -207t-120 -150.5t-186.5 -91t-242 -30.5h-359zM477 99q214 0 331 97t117 269q0 46 -12.5 86.5t-51 72.5
t-107.5 50.5t-182 18.5h-215l-115 -594h235zM587 789q117 0 199 28.5t132 74.5t73.5 106.5t23.5 125.5q0 53 -15 91.5t-50.5 62.5t-93.5 35.5t-145 11.5h-230l-104 -536h210z" />
    <glyph glyph-name="B" unicode="&#xe000;" horiz-adv-x="1171" 
d="M379 1423h347q114 0 193 -16.5t128 -51t71.5 -87.5t22.5 -124q0 -82 -25.5 -148t-68 -116.5t-100 -84t-121.5 -50.5q114 -18 170.5 -90t56.5 -176q0 -117 -42.5 -207t-120 -150.5t-186.5 -91t-242 -30.5h-359zM477 99q214 0 331 97t117 269q0 46 -12.5 86.5t-51 72.5
t-107.5 50.5t-182 18.5h-215l-115 -594h235zM587 789q117 0 199 28.5t132 74.5t73.5 106.5t23.5 125.5q0 53 -15 91.5t-50.5 62.5t-93.5 35.5t-145 11.5h-230l-104 -536h210z" />
    <glyph glyph-name="C" unicode="C" horiz-adv-x="1028" 
d="M883 24q-69 -17 -151 -31t-164 -14q-102 0 -181.5 20.5t-132.5 69t-80 127.5t-27 195q0 33 1.5 70t6.5 76.5t11 83.5t17 92q41 211 103.5 351t146.5 225.5t190.5 120.5t235.5 35q73 0 141.5 -11t120.5 -27l-28 -94q-55 16 -113 24t-127 8q-100 0 -186 -30.5t-154.5 -104
t-120 -195t-88.5 -305.5q-17 -92 -25.5 -166.5t-8.5 -139.5q0 -93 20.5 -156.5t61.5 -101t101 -53t139 -15.5q68 0 143.5 13t140.5 30z" />
    <glyph glyph-name="D" unicode="D" horiz-adv-x="1306" 
d="M379 1423h391q117 0 205.5 -19t148.5 -65.5t90 -124.5t30 -196q0 -65 -9 -138.5t-26 -162.5q-40 -210 -107 -348t-160.5 -220t-213.5 -115.5t-266 -33.5h-359zM476 100q115 0 212.5 28t174.5 97.5t133 189.5t91 305q16 85 25 154.5t9 128.5q0 95 -22.5 157t-68.5 98.5
t-115.5 51t-161.5 14.5h-272l-239 -1224h234z" />
    <glyph glyph-name="E" unicode="E" horiz-adv-x="1036" 
d="M379 1423h726l-22 -99h-602l-106 -535h559l-19 -98h-558l-115 -591h605l-19 -100h-725z" />
    <glyph glyph-name="E" unicode="&#xe001;" horiz-adv-x="1036" 
d="M379 1423h726l-22 -99h-602l-106 -535h559l-19 -98h-558l-115 -591h605l-19 -100h-725z" />
    <glyph glyph-name="F" unicode="F" horiz-adv-x="960" 
d="M379 1423h703l-21 -99h-580l-106 -535h532l-18 -98h-532l-133 -691h-121z" />
    <glyph glyph-name="G" unicode="G" horiz-adv-x="1201" 
d="M956 44q-77 -28 -178 -48t-205 -20q-100 0 -179 21t-134 70.5t-84 131t-29 202.5q0 64 8 141t26 168q40 205 103.5 345.5t149 227t193 124.5t238.5 38q93 0 173.5 -13.5t156.5 -34.5l-30 -94q-74 19 -150 30.5t-161 11.5q-101 0 -186.5 -32t-154.5 -107.5t-122 -197
t-88 -300.5q-16 -84 -25 -157.5t-9 -134.5q0 -97 21.5 -162.5t62 -105t99 -56t134.5 -16.5q81 0 149 13.5t118 30.5l111 567h-334l19 98h452z" />
    <glyph glyph-name="H" unicode="H" horiz-adv-x="1333" 
d="M379 1423h121l-123 -631h694l122 631h120l-276 -1423h-121l135 691h-693l-134 -691h-121z" />
    <glyph glyph-name="I" unicode="I" horiz-adv-x="520" 
d="M379 1423h121l-276 -1423h-121z" />
    <glyph glyph-name="J" unicode="J" horiz-adv-x="625" 
d="M404 321q-17 -93 -46 -157t-72 -104t-99 -56.5t-131 -16.5q-45 0 -85.5 5.5t-76.5 15.5l22 98q36 -9 74.5 -14t73.5 -5q94 0 144.5 54t76.5 182l213 1100h121z" />
    <glyph glyph-name="K" unicode="K" horiz-adv-x="1046" 
d="M379 1423h121l-133 -677l683 677h155l-713 -697l458 -726h-147l-443 709l-136 -709h-121z" />
    <glyph glyph-name="L" unicode="L" horiz-adv-x="925" 
d="M379 1423h121l-257 -1321h583l-19 -102h-704z" />
    <glyph glyph-name="M" unicode="M" horiz-adv-x="1731" 
d="M455 1423h188l103 -863q5 -60 11 -116.5t11 -112.5t11 -113.5t11 -119.5h3q26 62 52.5 119.5t52.5 112.5t53.5 111.5t56.5 117.5l439 864h189l-154 -1423h-125l99 876q8 59 15 115.5t14 112t14.5 111.5t15.5 118l-2 1q-29 -60 -56 -115.5t-55 -111.5t-56.5 -113.5
t-59.5 -117.5l-437 -876h-158l-100 876q-15 120 -25 231.5t-23 225.5h-2q-15 -57 -29 -113.5t-28 -112.5t-30 -113.5t-34 -117.5l-237 -876h-128z" />
    <glyph glyph-name="N" unicode="N" horiz-adv-x="1368" 
d="M379 1423h154l328 -907q17 -50 33.5 -96t33 -91t31.5 -91.5t32 -98.5l2 1q15 97 30 190.5t34 185.5l177 907h114l-277 -1423h-155l-330 907q-18 49 -34.5 96t-32 93t-31 91.5t-29.5 96.5l-5 -1q-15 -96 -29.5 -188t-32.5 -188l-175 -907h-114z" />
    <glyph glyph-name="O" unicode="O" horiz-adv-x="1349" 
d="M1281 1021q0 -75 -9 -147t-25 -161q-41 -208 -102 -349.5t-145.5 -228.5t-191.5 -125t-239 -38q-102 0 -181.5 23.5t-133 74.5t-80.5 133t-27 199q0 75 8.5 147.5t25.5 161.5q40 208 102 349t146 228t190.5 125t237.5 38q103 0 182.5 -23.5t133 -74t81 -132.5t27.5 -200z
M1158 1012q0 93 -20 158t-60 105.5t-99 57.5t-135 17q-101 0 -183.5 -31.5t-150 -107t-119 -199t-88.5 -304.5q-9 -42 -15 -82t-10 -76.5t-6.5 -71t-2.5 -66.5q0 -95 20.5 -159t60 -104.5t98.5 -58t135 -17.5q99 0 182.5 31.5t151 107t119 198t88.5 306.5q7 42 14.5 82
t11.5 76t6 70.5t2 67.5z" />
    <glyph glyph-name="P" unicode="P" horiz-adv-x="1065" 
d="M379 1423h336q109 0 185.5 -17t124 -51t69.5 -84t22 -116q0 -135 -45 -232.5t-122.5 -160.5t-179 -92.5t-217.5 -29.5h-204l-124 -640h-121zM567 738q83 0 160.5 23t136 72.5t94 124t35.5 178.5q0 98 -64.5 143.5t-231.5 45.5h-216l-115 -587h201z" />
    <glyph glyph-name="Q" unicode="Q" horiz-adv-x="1349" 
d="M1060 -241l-193 281q-56 -31 -126.5 -49.5t-171.5 -18.5q-102 0 -181.5 23.5t-133 74.5t-80.5 133t-27 199q0 75 8.5 147.5t25.5 161.5q40 208 102 349t146 228t190.5 125t237.5 38q103 0 182.5 -23.5t133 -74t81 -132.5t27.5 -200q0 -75 -9 -147t-25 -161
q-25 -126 -55.5 -222t-65.5 -168.5t-74.5 -125t-81.5 -90.5l198 -276zM1158 1012q0 93 -20 158t-60 105.5t-99 57.5t-135 17q-101 0 -183.5 -31.5t-150 -107t-119 -199t-88.5 -304.5q-9 -42 -15 -82t-10 -76.5t-6.5 -71t-2.5 -66.5q0 -95 20.5 -159t60 -104.5t98.5 -58
t135 -17.5q99 0 182.5 31.5t151 106t119 198t88.5 307.5q7 42 14.5 82t11.5 76t6 70.5t2 67.5z" />
    <glyph glyph-name="R" unicode="R" horiz-adv-x="1129" 
d="M379 1423h335q120 0 201.5 -16t132.5 -50t73 -84t22 -115q0 -113 -36 -196.5t-102 -141.5t-158.5 -87.5t-204.5 -33.5l319 -699h-141l-309 691h-152l-135 -691h-121zM608 789q188 0 300.5 86.5t112.5 260.5q0 48 -15.5 83.5t-52.5 59t-100 35t-156 11.5h-216l-104 -536
h231z" />
    <glyph glyph-name="S" unicode="S" horiz-adv-x="1005" 
d="M69 118q78 -19 151.5 -31t160.5 -12q91 0 162.5 21t121 59.5t75 96t25.5 130.5q0 42 -9.5 75.5t-37.5 67t-79 73.5t-134 96q-85 56 -139.5 100t-85.5 86.5t-43 86t-12 99.5q0 194 126.5 287.5t348.5 93.5q79 0 146 -7.5t137 -24.5l-22 -98q-36 8 -67.5 13.5t-64.5 9.5
t-67.5 6t-71.5 2q-165 0 -254 -64.5t-89 -195.5q0 -45 10.5 -79t37.5 -67t76 -71t127 -88q86 -58 142.5 -102.5t89.5 -85.5t46 -86t13 -103q0 -105 -34.5 -185t-101.5 -134t-163.5 -82.5t-220.5 -28.5q-48 0 -90 3.5t-81 9.5t-77 13t-76 18z" />
    <glyph glyph-name="S" unicode="&#xe002;" horiz-adv-x="1005" 
d="M69 118q78 -19 151.5 -31t160.5 -12q91 0 162.5 21t121 59.5t75 96t25.5 130.5q0 42 -9.5 75.5t-37.5 67t-79 73.5t-134 96q-85 56 -139.5 100t-85.5 86.5t-43 86t-12 99.5q0 194 126.5 287.5t348.5 93.5q79 0 146 -7.5t137 -24.5l-22 -98q-36 8 -67.5 13.5t-64.5 9.5
t-67.5 6t-71.5 2q-165 0 -254 -64.5t-89 -195.5q0 -45 10.5 -79t37.5 -67t76 -71t127 -88q86 -58 142.5 -102.5t89.5 -85.5t46 -86t13 -103q0 -105 -34.5 -185t-101.5 -134t-163.5 -82.5t-220.5 -28.5q-48 0 -90 3.5t-81 9.5t-77 13t-76 18z" />
    <glyph glyph-name="T" unicode="T" horiz-adv-x="1025" 
d="M610 1322h-421l21 101h964l-21 -101h-421l-256 -1322h-122z" />
    <glyph glyph-name="U" unicode="U" horiz-adv-x="1310" 
d="M464 1423l-177 -907q-10 -46 -15 -90t-5 -86q0 -65 16 -114t51.5 -83.5t93.5 -52t140 -17.5q105 0 182.5 30.5t132.5 89t90.5 142.5t57.5 193l175 895h122l-175 -898q-27 -136 -74 -239.5t-119 -173.5t-172 -105t-230 -35q-216 0 -314 93.5t-98 266.5q0 43 5 90t16 98
l176 903h121z" />
    <glyph glyph-name="V" unicode="V" horiz-adv-x="1183" 
d="M217 1423h122l121 -863q7 -63 15.5 -120.5t14.5 -114.5t13 -115t12 -120h2q31 62 58 120t55 114.5t57.5 114.5t63.5 121l457 863h127l-751 -1423h-166z" />
    <glyph glyph-name="W" unicode="W" horiz-adv-x="1841" 
d="M252 1423h124l50 -863q3 -62 5.5 -118t3.5 -111t2 -113t4 -124h2q26 65 50 123t46 112.5t45.5 111t53.5 119.5l380 863h167l43 -863q4 -63 6 -119t3 -110.5t2 -112.5t2 -124h2q28 66 52 124t48 113.5l48 111t51 117.5l385 863h127l-637 -1423h-174l-47 879
q-4 53 -5 109.5t-2.5 113.5t-1.5 115v116h-2l-46 -116t-46.5 -115t-47 -113.5t-47.5 -109.5l-388 -879h-174z" />
    <glyph glyph-name="X" unicode="X" horiz-adv-x="1203" 
d="M567 725l-344 698h135l297 -614l3 -2q23 28 44 53.5t41.5 49t42.5 48t45 51.5l362 414h142l-614 -697l363 -726h-137l-317 643l-2 1q-43 -50 -82.5 -96.5t-84.5 -97.5l-394 -450h-140z" />
    <glyph glyph-name="Y" unicode="Y" horiz-adv-x="1033" 
d="M469 570l-278 853h122l154 -464q14 -42 24 -76t20 -64.5t19.5 -61.5t20.5 -68h3q24 37 46 70t43.5 64.5t44.5 65t51 72.5l330 462h132l-611 -853l-111 -570h-120z" />
    <glyph glyph-name="Z" unicode="Z" horiz-adv-x="990" 
d="M-16 84l941 1237h-675l21 102h823l-17 -84l-941 -1236h720l-19 -103h-869z" />
    <glyph glyph-name="bracketleft" unicode="[" horiz-adv-x="614" 
d="M399 1511h370l-18 -91h-260l-324 -1665h259l-17 -92h-370z" />
    <glyph glyph-name="backslash" unicode="\" horiz-adv-x="768" 
d="M214 1511h109l320 -1741h-109z" />
    <glyph glyph-name="bracketright" unicode="]" horiz-adv-x="614" 
d="M-104 -245h259l324 1665h-260l17 91h370l-359 -1848h-368z" />
    <glyph glyph-name="asciicircum" unicode="^" 
d="M657 1423h128l254 -681h-118l-216 582l-447 -582h-123z" />
    <glyph glyph-name="underscore" unicode="_" 
d="M-145 -371h1060l-19 -100h-1061z" />
    <glyph glyph-name="grave" unicode="`" horiz-adv-x="767" 
d="M498 1522l190 -287l-71 -55l-211 274z" />
    <glyph glyph-name="a" unicode="a" horiz-adv-x="1116" 
d="M747 155q-37 -35 -80.5 -66.5t-92 -56t-100.5 -38.5t-105 -14q-122 0 -191.5 79.5t-69.5 235.5q0 162 39.5 296t111.5 229.5t171.5 147.5t218.5 52q78 0 142.5 -22.5t115.5 -59.5l16 62h98l-193 -1000h-98zM874 842q-53 37 -108 59t-126 22q-93 0 -169 -47.5
t-129.5 -130.5t-83 -194.5t-29.5 -239.5q0 -114 43.5 -173t128.5 -59q79 0 171.5 54t193.5 158z" />
    <glyph glyph-name="b" unicode="b" horiz-adv-x="1111" 
d="M388 1511h118l-79 -403q-14 -71 -26.5 -130t-28.5 -125l2 -2q37 32 79.5 62.5t90 54.5t99.5 38t104 14q122 0 192 -79.5t70 -235.5q0 -161 -39.5 -295t-112 -230t-171.5 -148t-219 -52q-77 0 -142 22.5t-116 59.5l-16 -62h-98zM242 158q54 -37 108.5 -59t125.5 -22
q91 0 168 47.5t130.5 130.5t83.5 194.5t30 239.5q0 114 -44 173t-129 59q-79 0 -171.5 -54t-193.5 -158z" />
    <glyph glyph-name="b" unicode="&#xe003;" horiz-adv-x="1111" 
d="M388 1511h118l-79 -403q-14 -71 -26.5 -130t-28.5 -125l2 -2q37 32 79.5 62.5t90 54.5t99.5 38t104 14q122 0 192 -79.5t70 -235.5q0 -161 -39.5 -295t-112 -230t-171.5 -148t-219 -52q-77 0 -142 22.5t-116 59.5l-16 -62h-98zM242 158q54 -37 108.5 -59t125.5 -22
q91 0 168 47.5t130.5 130.5t83.5 194.5t30 239.5q0 114 -44 173t-129 59q-79 0 -171.5 -54t-193.5 -158z" />
    <glyph glyph-name="c" unicode="c" horiz-adv-x="816" 
d="M673 17q-56 -16 -120 -26t-125 -10q-77 0 -137.5 16.5t-101.5 54t-62 96.5t-21 146q0 22 1 44.5t3.5 48.5t6.5 52.5t10 57.5q27 145 75.5 245t113.5 161.5t145 88.5t167 27q50 0 99.5 -7.5t94.5 -20.5l-26 -90q-42 10 -84 15.5t-89 5.5q-60 0 -117 -19t-106 -67
t-88 -129.5t-65 -206.5q-11 -58 -16 -106t-5 -89q0 -128 56.5 -178t166.5 -50q52 0 105.5 8.5t112.5 25.5z" />
    <glyph glyph-name="d" unicode="d" horiz-adv-x="1116" 
d="M747 155q-37 -35 -80.5 -66.5t-92 -56t-100.5 -38.5t-105 -14q-122 0 -191.5 79.5t-69.5 235.5q0 162 39.5 296t111.5 229.5t171.5 147.5t218.5 52q74 0 137.5 -21.5t111.5 -53.5l4 2q9 69 18.5 131t22.5 120l60 313h118l-293 -1511h-98zM874 842q-53 37 -108 59t-126 22
q-93 0 -169 -47.5t-129.5 -130.5t-83 -194.5t-29.5 -239.5q0 -114 43.5 -173t128.5 -59q79 0 171.5 54t193.5 158z" />
    <glyph glyph-name="e" unicode="e" horiz-adv-x="965" 
d="M747 29q-67 -23 -146.5 -35.5t-164.5 -12.5q-78 0 -139 14.5t-104 51.5t-65 97t-22 151q0 44 5.5 98t15.5 104q26 145 73 246t112 164.5t145.5 91.5t174.5 28q138 0 213.5 -59.5t75.5 -165.5q0 -88 -41.5 -151.5t-125.5 -106t-212 -62.5t-300 -20q-5 -30 -11 -78t-6 -86
q0 -124 55 -172.5t171 -48.5q73 0 147 11.5t143 33.5zM259 551q278 0 411 55.5t133 182.5q0 66 -46 104t-144 38q-63 0 -117.5 -20t-99 -64.5t-79.5 -117.5t-58 -178z" />
    <glyph glyph-name="f" unicode="f" horiz-adv-x="600" 
d="M208 -114q-19 -100 -51 -166t-75.5 -106t-99.5 -57t-125 -17q-36 0 -69 3.5t-71 12.5l21 94q39 -9 66 -11t63 -2q39 0 72.5 11.5t62.5 40t50 76t36 118.5l198 1022h-163l18 95h164l37 193q20 98 51.5 165.5t76.5 106.5t105.5 56.5t136.5 17.5q43 0 84 -4.5t79 -14.5
l-22 -94q-41 10 -76.5 13t-73.5 3q-47 0 -84.5 -12t-67.5 -39.5t-53 -75.5t-36 -120l-39 -195h291l-18 -95h-291z" />
    <glyph glyph-name="g" unicode="g" horiz-adv-x="1116" 
d="M874 842q-53 37 -108 59t-124 22q-93 0 -169 -47.5t-130.5 -130.5t-84 -194.5t-29.5 -239.5q0 -114 43.5 -173t128.5 -59q79 0 171.5 54t193.5 158zM817 -55q-21 -110 -62 -185.5t-103.5 -125t-146 -71t-190.5 -21.5q-84 0 -152.5 8.5t-134.5 24.5l20 97
q66 -17 131.5 -25t146.5 -8q163 0 251.5 71t122.5 242q6 34 11 56.5t9.5 43t10.5 42.5t13 54l-2 2q-37 -33 -79.5 -63.5t-90 -54.5t-99 -38t-104.5 -14q-122 0 -191.5 79.5t-69.5 235.5q0 162 39.5 296t111.5 229.5t170.5 147.5t217.5 52q80 0 144.5 -22.5t115.5 -59.5
l16 62h98z" />
    <glyph glyph-name="h" unicode="h" horiz-adv-x="1158" 
d="M388 1511h118l-79 -405q-14 -70 -26.5 -128.5t-29.5 -126.5l2 -2q37 32 82 63t96.5 55t109.5 38.5t118 14.5q125 0 185.5 -59t60.5 -176q0 -27 -4.5 -57t-10.5 -62l-127 -666h-118l127 658q5 28 8 56.5t3 49.5q0 82 -38 119.5t-121 37.5q-93 0 -193 -54t-201 -160
l-137 -707h-118z" />
    <glyph glyph-name="i" unicode="i" horiz-adv-x="501" 
d="M288 1000h119l-194 -1000h-118zM504 1375q0 -9 -1 -19.5t-3 -21.5q-5 -21 -11 -37.5t-18 -25.5t-30 -13t-44 -4q-40 0 -57 9.5t-17 38.5q0 9 1 19t3 21q4 22 10.5 38t18.5 25.5t29 13.5t46 4q40 0 56.5 -9.5t16.5 -38.5z" />
    <glyph glyph-name="j" unicode="j" horiz-adv-x="501" 
d="M192 -117q-20 -95 -50.5 -160t-74.5 -105t-100.5 -58t-127.5 -18q-33 0 -69 3.5t-73 11.5l19 93q33 -5 67 -8t67 -3q38 0 73.5 11.5t64 41.5t50.5 79t37 122l215 1107h118zM506 1375q0 -9 -1 -19.5t-4 -21.5q-5 -21 -10.5 -37.5t-17.5 -25.5t-30 -13t-45 -4
q-39 0 -56 9.5t-17 38.5q0 9 1 19t3 21q3 22 10 38t19 25.5t29 13.5t45 4q40 0 57 -9.5t17 -38.5z" />
    <glyph glyph-name="k" unicode="k" horiz-adv-x="908" 
d="M388 1511h118l-183 -944l491 433h158l-536 -462l349 -538h-139l-332 519l-101 -519h-118z" />
    <glyph glyph-name="l" unicode="l" horiz-adv-x="501" 
d="M388 1511h118l-293 -1511h-118z" />
    <glyph glyph-name="m" unicode="m" horiz-adv-x="1759" 
d="M288 1000h99l-18 -155q38 34 81 65.5t91.5 56t103.5 39t116 14.5q108 0 164 -49t62 -141q35 33 78.5 66.5t94 60.5t109.5 45t126 18q115 0 172.5 -59t57.5 -176q0 -27 -3.5 -57t-9.5 -62l-129 -666h-119l128 658q6 28 9 56.5t3 49.5q0 82 -34.5 119.5t-111.5 37.5
q-93 0 -187 -57.5t-186 -156.5l-137 -707h-117l128 658q5 28 8 56.5t3 49.5q0 80 -34.5 118.5t-110.5 38.5q-92 0 -183 -54t-192 -160l-137 -707h-118z" />
    <glyph glyph-name="n" unicode="n" horiz-adv-x="1158" 
d="M288 1000h99l-18 -155q38 34 83.5 65.5t97.5 56t110.5 39t118.5 14.5q125 0 185.5 -59t60.5 -176q0 -27 -4.5 -57t-10.5 -62l-127 -666h-118l127 658q5 28 8 56.5t3 49.5q0 82 -38 119.5t-121 37.5q-93 0 -193 -54t-201 -160l-137 -707h-118z" />
    <glyph glyph-name="o" unicode="o" horiz-adv-x="1080" 
d="M974 697q0 -42 -5 -90t-15 -105q-27 -147 -74 -247.5t-111 -163.5t-146.5 -91t-180.5 -28q-78 0 -141 17.5t-105.5 56t-66 102t-23.5 155.5q0 42 5 89.5t15 105.5q27 147 73.5 248t111 164t147 90t180.5 27q79 0 141 -17t105 -56t66.5 -102.5t23.5 -154.5zM855 689
q0 138 -60.5 189.5t-170.5 51.5q-69 0 -127.5 -20t-105.5 -69t-83.5 -131t-61.5 -209q-6 -27 -10 -53.5t-6 -50t-3 -45.5t-1 -42q0 -137 60.5 -189t169.5 -52q68 0 127 19.5t106 68.5t84 132t61 210q5 27 9.5 53.5t6.5 50.5t3.5 45.5t1.5 40.5z" />
    <glyph glyph-name="p" unicode="p" horiz-adv-x="1111" 
d="M288 1000h99l-18 -154q38 33 81 65t91.5 56t101 38.5t104.5 14.5q122 0 192 -79.5t70 -235.5q0 -161 -39.5 -295t-112 -230t-171.5 -148t-219 -52q-74 0 -137.5 21.5t-110.5 53.5l-4 -2q-9 -68 -19 -130.5t-23 -122.5l-45 -240h-118zM242 158q54 -37 108.5 -59t125.5 -22
q91 0 168 47.5t130.5 130.5t83.5 194.5t30 239.5q0 114 -44 173t-129 59q-79 0 -171.5 -54t-193.5 -158z" />
    <glyph glyph-name="q" unicode="q" horiz-adv-x="1116" 
d="M742 -440h-118l65 335q14 69 26.5 127t28.5 126l-2 2q-37 -33 -79.5 -63.5t-90 -54.5t-99 -38t-104.5 -14q-122 0 -191.5 78.5t-69.5 234.5q0 164 39.5 298t111.5 229.5t170.5 147.5t217.5 52q80 0 144.5 -22.5t115.5 -59.5l16 62h98zM874 842q-53 37 -108 59t-124 22
q-93 0 -169 -47.5t-130.5 -130.5t-84 -195.5t-29.5 -239.5q0 -113 43.5 -172t128.5 -59q79 0 171.5 54t193.5 158z" />
    <glyph glyph-name="r" unicode="r" horiz-adv-x="655" 
d="M288 1000h99l-18 -159q26 28 62.5 60.5t78 59.5t87.5 45t87 18q29 0 47 -8l-29 -126q-18 9 -47 9q-74 0 -150 -51.5t-156 -142.5l-136 -705h-118z" />
    <glyph glyph-name="s" unicode="s" horiz-adv-x="782" 
d="M61 107q61 -17 118.5 -24.5t120.5 -7.5q120 0 190 52.5t70 146.5q0 28 -8 50.5t-29 44t-58.5 46.5t-94.5 57q-58 33 -97.5 61.5t-65 58t-36.5 63.5t-11 80q0 145 100 214.5t271 69.5q51 0 101 -7.5t95 -17.5l-21 -93q-46 10 -90.5 16.5t-94.5 6.5q-121 0 -182.5 -44
t-61.5 -131q0 -30 8 -52.5t27 -43t51 -42.5t80 -49q67 -39 112 -71t72 -61.5t39 -62.5t12 -74q0 -82 -29.5 -140.5t-81 -97t-122.5 -56.5t-154 -18q-67 0 -127.5 8.5t-122.5 22.5z" />
    <glyph glyph-name="s" unicode="&#xe004;" horiz-adv-x="782" 
d="M61 107q61 -17 118.5 -24.5t120.5 -7.5q120 0 190 52.5t70 146.5q0 28 -8 50.5t-29 44t-58.5 46.5t-94.5 57q-58 33 -97.5 61.5t-65 58t-36.5 63.5t-11 80q0 145 100 214.5t271 69.5q51 0 101 -7.5t95 -17.5l-21 -93q-46 10 -90.5 16.5t-94.5 6.5q-121 0 -182.5 -44
t-61.5 -131q0 -30 8 -52.5t27 -43t51 -42.5t80 -49q67 -39 112 -71t72 -61.5t39 -62.5t12 -74q0 -82 -29.5 -140.5t-81 -97t-122.5 -56.5t-154 -18q-67 0 -127.5 8.5t-122.5 22.5z" />
    <glyph glyph-name="t" unicode="t" horiz-adv-x="621" 
d="M299 1000l59 304l121 19l-62 -323h231l-19 -95h-231l-134 -691q-4 -16 -5 -31t-1 -26q0 -45 20.5 -60.5t61.5 -15.5q35 0 65 5t60 15l6 -95q-36 -9 -75.5 -15t-84.5 -6q-43 0 -76 7t-55 25t-33.5 45.5t-11.5 68.5q0 18 2.5 35.5t7.5 39.5l135 699h-153l19 95h153z" />
    <glyph glyph-name="u" unicode="u" horiz-adv-x="1158" 
d="M393 1000l-125 -657q-7 -30 -10 -57.5t-3 -50.5q0 -81 38 -118.5t121 -37.5q93 0 193.5 54.5t201.5 158.5l136 708h119l-194 -1000h-98l17 156q-38 -35 -83.5 -67t-97.5 -56t-110 -38.5t-119 -14.5q-125 0 -185 58.5t-60 176.5q0 27 4 56.5t10 63.5l128 665h117z" />
    <glyph glyph-name="v" unicode="v" horiz-adv-x="933" 
d="M136 1000h119l87 -569q8 -50 14 -92.5t11 -82.5t9 -80t10 -87h2q23 50 43 90.5t40.5 80t41 81t47.5 90.5l310 569h120l-542 -1000h-157z" />
    <glyph glyph-name="w" unicode="w" horiz-adv-x="1527" 
d="M145 1000h122l58 -569q6 -46 9 -88.5t6 -84t5.5 -83t5.5 -86.5h3q35 83 73 167.5t81 174.5l271 569h160l56 -569q5 -46 8.5 -88.5t6.5 -84l6 -83t6 -86.5h2q21 47 39 89.5t36 83t37.5 82t40.5 87.5l276 569h122l-487 -1000h-159l-61 571q-9 92 -15 170t-9 169h-2
q-39 -89 -73 -168t-77 -169l-279 -573h-159z" />
    <glyph glyph-name="x" unicode="x" horiz-adv-x="953" 
d="M397 513l-260 487h131l222 -418l2 1q32 35 54 61.5t55 62.5l266 293h140l-455 -488l275 -512h-133l-235 444l-3 -1q-29 -35 -54.5 -63.5t-58.5 -68.5l-271 -311h-139z" />
    <glyph glyph-name="y" unicode="y" horiz-adv-x="932" 
d="M134 1000h122l88 -558q8 -51 13 -92.5t10 -81.5t9 -80t10 -88h2q23 48 43.5 88t40.5 80t41.5 82.5t48.5 91.5l306 558h125l-643 -1164q-50 -89 -93 -146.5t-84.5 -90t-88 -45t-103.5 -12.5q-31 0 -58.5 3.5t-58.5 11.5l18 92q26 -4 51 -7t54 -3q32 0 61 7t59 28t61.5 62
t69.5 107l88 157h-33z" />
    <glyph glyph-name="y" unicode="&#xe006;" horiz-adv-x="932" 
d="M134 1000h122l88 -558q8 -51 13 -92.5t10 -81.5t9 -80t10 -88h2q23 48 43.5 88t40.5 80t41.5 82.5t48.5 91.5l306 558h125l-643 -1164q-50 -89 -93 -146.5t-84.5 -90t-88 -45t-103.5 -12.5q-31 0 -58.5 3.5t-58.5 11.5l18 92q26 -4 51 -7t54 -3q32 0 61 7t59 28t61.5 62
t69.5 107l88 157h-33z" />
    <glyph glyph-name="z" unicode="z" horiz-adv-x="824" 
d="M-3 70l670 832h-479l19 98h628l-13 -66l-673 -835h524l-19 -99h-669z" />
    <glyph glyph-name="braceleft" unicode="{" horiz-adv-x="571" 
d="M352 -336q-9 0 -19 -0.5t-24 -0.5q-104 0 -151 44t-47 132q0 19 2 41.5t7 49.5l65 333q4 23 8 52.5t4 47.5q0 66 -29.5 113t-103.5 87l20 99q52 24 91 52t67 65t46.5 84t31.5 108l56 285q13 67 34.5 115.5t54.5 80t77 46.5t103 15q20 0 36 -1.5t28 -3.5l-15 -88h-46
q-78 0 -113 -48.5t-51 -133.5l-54 -288q-14 -68 -35.5 -120.5t-53 -93t-72 -72.5t-93.5 -58q64 -40 98.5 -93.5t34.5 -132.5q0 -29 -2.5 -54.5t-9.5 -61.5l-66 -338q-5 -24 -7 -42t-2 -34q0 -54 34.5 -75t112.5 -21z" />
    <glyph glyph-name="bar" unicode="|" horiz-adv-x="517" 
d="M396 1511h117l-378 -1951h-118z" />
    <glyph glyph-name="braceright" unicode="}" horiz-adv-x="573" 
d="M-89 -245h46q78 0 112.5 48.5t51.5 133.5l62 324q14 69 35.5 121.5t52.5 93t72 71.5t93 59q-63 40 -97.5 94.5t-34.5 131.5q0 27 3 55.5t9 60.5l60 301q4 23 6 41t2 35q0 53 -34.5 74.5t-112.5 21.5l17 89q8 0 18.5 0.5t24.5 0.5q103 0 151 -43t48 -133q0 -19 -2.5 -42.5
t-6.5 -48.5l-59 -296q-4 -22 -8 -51t-4 -46q0 -70 31 -118t102 -85l-20 -98q-53 -23 -91.5 -52t-67 -66t-47 -84t-30.5 -106l-65 -324q-13 -66 -34.5 -114.5t-54 -80t-77 -47t-102.5 -15.5q-21 0 -36.5 1.5t-27.5 3.5z" />
    <glyph glyph-name="asciitilde" unicode="~" 
d="M227 949q13 76 40 136.5t64.5 103t84.5 64.5t100 22t87 -18t58 -43.5t42.5 -57t37.5 -57t43 -43.5t61 -18q55 0 104 52t73 174h99q-13 -77 -40.5 -137.5t-65 -103t-84 -64.5t-99.5 -22t-87 18t-58.5 43.5t-42.5 57t-37 57t-44 43.5t-60 18q-57 0 -105.5 -52t-73.5 -173
h-97z" />
    <glyph glyph-name="exclamdown" unicode="&#xa1;" horiz-adv-x="556" 
d="M269 727h104l-214 -1167h-128zM473 1054q0 -11 -1 -22.5t-3 -22.5q-6 -22 -13.5 -38.5t-19 -26.5t-30 -15t-46.5 -5q-41 0 -59.5 11t-18.5 38q0 12 1 22.5t3 21.5q5 23 12.5 39.5t19.5 26.5t30.5 15t45.5 5q42 0 60.5 -11.5t18.5 -37.5z" />
    <glyph glyph-name="cent" unicode="&#xa2;" 
d="M843 1423l-36 -186q52 -1 114.5 -12.5t110.5 -26.5l-27 -94q-55 16 -121.5 25t-119.5 9q-75 0 -142.5 -18t-124 -66t-99 -132.5t-67.5 -213.5q-9 -50 -14 -92.5t-5 -78.5q0 -80 21 -129t59 -78t90 -38.5t116 -9.5q59 0 122.5 8.5t123.5 25.5l8 -97q-59 -16 -124.5 -25.5
t-125.5 -10.5l-35 -183h-107l36 186q-65 7 -120.5 25.5t-96.5 57.5t-63.5 99.5t-22.5 151.5q0 41 4.5 87t14.5 101q29 149 78 247t112.5 157.5t140 87t157.5 35.5l37 188h106z" />
    <glyph glyph-name="sterling" unicode="&#xa3;" 
d="M390 779q-1 41 -2 71t-3 55.5t-2.5 49.5t-0.5 52q0 123 36 207t99 136t144.5 74.5t173.5 22.5q94 0 154 -10.5t114 -24.5l-24 -95q-59 14 -117.5 22.5t-135.5 8.5q-64 0 -123.5 -16t-105.5 -56t-72 -106t-26 -161q0 -30 1.5 -53.5t2.5 -48t3 -54.5t2 -74h416l-18 -99
h-402q-10 -84 -30.5 -160.5t-51 -147.5t-68.5 -138t-81 -133h593l-18 -101h-845l18 101h118q46 65 84.5 131t71 136.5t54.5 147.5t33 164h-194l19 99h183z" />
    <glyph glyph-name="currency" unicode="&#xa4;" horiz-adv-x="1229" 
d="M251 440q-12 28 -20.5 65.5t-8.5 86.5q0 60 12 119t31 111.5t44.5 98t55.5 79.5l-154 195l85 71l155 -194q53 39 124 64t168 25t158 -25t96 -63l202 169l65 -81l-202 -171q11 -27 19.5 -64t8.5 -86q0 -61 -12 -120.5t-30.5 -112.5t-44 -97.5t-55.5 -77.5l153 -196
l-84 -71l-156 194q-52 -38 -123.5 -63.5t-166.5 -25.5q-98 0 -159 25.5t-97 63.5l-202 -170l-65 80zM985 825q0 126 -67 183.5t-192 57.5q-95 0 -169 -36.5t-124.5 -99.5t-77.5 -146.5t-27 -178.5q0 -61 17 -107t51 -75.5t81.5 -44t111.5 -14.5q93 0 166.5 37.5t124 99.5
t78 146t27.5 178z" />
    <glyph glyph-name="yen" unicode="&#xa5;" 
d="M441 243h-303l17 93h303l39 207h-303l19 92h294l-250 788h125l132 -428q12 -40 22.5 -73t20 -63.5l19 -61t20.5 -67.5h2q26 37 46.5 70t42 64.5t42 63t45.5 68.5l295 427h132l-556 -788h294l-20 -92h-303l-39 -207h302l-17 -93h-302l-47 -243h-119z" />
    <glyph glyph-name="brokenbar" unicode="&#xa6;" horiz-adv-x="517" 
d="M167 333h117l-149 -773h-118zM396 1511h117l-158 -811h-117z" />
    <glyph glyph-name="section" unicode="&#xa7;" horiz-adv-x="1116" 
d="M106 -231q60 -15 122 -24t132 -9q74 0 130.5 16t95.5 44t58.5 66.5t19.5 84.5q0 39 -12.5 68.5t-41.5 59.5t-77 64t-122 79q-83 52 -136 95.5t-82.5 83t-40.5 78t-11 84.5q0 73 25.5 131.5t66.5 105t91.5 82t102.5 61.5q-42 40 -61.5 85t-19.5 104q0 75 30 135t86 101.5
t137.5 64t183.5 22.5q77 0 145 -10.5t121 -26.5l-26 -94q-59 14 -120.5 23t-132.5 9q-72 0 -129 -15.5t-95.5 -44t-59 -67t-20.5 -83.5q0 -39 12.5 -69t41 -59.5t77 -64t121.5 -79.5q84 -52 136.5 -95t82.5 -83.5t41 -79t11 -83.5q0 -70 -22 -125.5t-60.5 -102t-91 -83.5
t-110.5 -69q44 -43 61.5 -88.5t17.5 -100.5q0 -75 -30 -135t-86 -101.5t-137.5 -64t-184.5 -22.5q-76 0 -144.5 11t-120.5 26zM637 786q-48 30 -72.5 45.5t-55.5 38.5q-108 -53 -179 -123.5t-71 -168.5q0 -34 9 -63.5t34 -61t70 -67.5t120 -83q48 -30 74.5 -47t54.5 -38
q117 55 183 129.5t66 167.5q0 31 -9 59t-33.5 60.5t-70.5 69t-120 82.5z" />
    <glyph glyph-name="dieresis" unicode="&#xa8;" horiz-adv-x="1059" 
d="M579 1374q0 -10 -1 -20t-4 -21q-5 -22 -11.5 -37t-18.5 -23t-28.5 -11.5t-40.5 -3.5q-38 0 -55 9t-17 36q0 10 1.5 20t3.5 20q3 23 10.5 37.5t19.5 23t28.5 12t40.5 3.5q37 0 54.5 -9t17.5 -36zM976 1374q0 -10 -1 -20t-4 -21q-5 -22 -11.5 -37t-18.5 -23t-28.5 -11.5
t-40.5 -3.5q-38 0 -55 9t-17 36q0 10 1.5 20t3.5 20q3 23 10.5 37.5t19.5 23t28.5 12t40.5 3.5q37 0 54.5 -9t17.5 -36z" />
    <glyph glyph-name="copyright" unicode="&#xa9;" horiz-adv-x="1888" 
d="M1186 288q-66 -16 -132 -25t-147 -9q-72 0 -136 20t-111 62.5t-73.5 109t-26.5 159.5q0 34 3 72.5t13 79.5q27 137 77 230.5t116.5 151t148.5 83t174 25.5q69 0 124.5 -9t118.5 -26l-24 -84q-62 17 -113 25.5t-112 8.5q-68 0 -131.5 -20.5t-116.5 -68t-92.5 -126.5
t-62.5 -196q-8 -38 -11 -71.5t-3 -64.5q0 -81 21 -133.5t57 -84t82 -44.5t98 -13q66 0 126.5 8t124.5 24zM1782 818q0 -206 -60.5 -363.5t-170 -265t-263 -163.5t-338.5 -56q-184 0 -323 55t-233.5 152t-141.5 230.5t-47 287.5q0 205 60 363.5t170 266t262.5 162.5t336.5 55
q185 0 325 -54.5t234.5 -151.5t141.5 -230t47 -288zM1679 815q0 137 -39.5 254t-119.5 203t-202.5 135t-288.5 49t-299 -49.5t-227.5 -144.5t-144.5 -236t-50 -328q0 -137 39.5 -255t119.5 -204t202 -133.5t287 -47.5q166 0 300 49t228 144t144.5 236.5t50.5 327.5z" />
    <glyph glyph-name="ordfeminine" unicode="&#xaa;" horiz-adv-x="696" 
d="M84 562h558l-17 -88h-557zM559 823q-53 -51 -119 -88t-140 -37q-80 0 -131 60t-51 171q0 110 27.5 204t77.5 163t120 108.5t154 39.5q53 0 97 -16.5t77 -42.5l14 45h83l-138 -717h-82zM646 1305q-35 28 -74 42t-87 14q-58 0 -107 -35t-85 -93.5t-55.5 -134t-19.5 -156.5
q0 -83 27.5 -121t80.5 -38q54 0 116.5 40.5t134.5 116.5z" />
    <glyph glyph-name="guillemotleft" unicode="&#xab;" horiz-adv-x="892" 
d="M443 509l346 409l86 -56l-294 -366l149 -368l-98 -48zM76 512l361 427l86 -57l-309 -383l157 -390l-98 -47z" />
    <glyph glyph-name="logicalnot" unicode="&#xac;" 
d="M170 634h801l-70 -356h-105l52 260h-697z" />
    <glyph glyph-name="uni00AD" unicode="&#xad;" horiz-adv-x="908" 
d="M191 589h557l-20 -103h-557z" />
    <glyph glyph-name="registered" unicode="&#xae;" horiz-adv-x="963" 
d="M490 1301h144q87 0 119.5 -29.5t32.5 -78.5q0 -56 -40.5 -92.5t-103.5 -45.5l92 -192h-87l-86 185h-47l-36 -185h-72zM583 1105q67 0 96 24t29 58q0 27 -17 39t-67 12h-73l-26 -133h58zM970 1108q0 -92 -28.5 -167.5t-80.5 -127.5t-125 -79.5t-165 -27.5q-78 0 -143 21.5
t-112.5 64.5t-74.5 107.5t-27 151.5q0 92 28 167t80 127.5t124.5 80t163.5 27.5q78 0 143.5 -21.5t113.5 -64.5t75.5 -107.5t27.5 -151.5zM891 1109q0 141 -76.5 208t-207.5 67q-150 0 -232.5 -87t-82.5 -247q0 -141 75.5 -208t205.5 -67q154 0 236 86.5t82 247.5z" />
    <glyph glyph-name="macron" unicode="&#xaf;" horiz-adv-x="1110" 
d="M470 1379h523l-18 -96h-523z" />
    <glyph glyph-name="degree" unicode="&#xb0;" horiz-adv-x="739" 
d="M792 1267q0 -64 -22.5 -116t-61.5 -89t-93 -58t-117 -21q-122 0 -190.5 69t-68.5 193q0 61 22.5 114t61 90t92.5 58t117 21q123 0 191.5 -69t68.5 -192zM687 1261q0 82 -40.5 130.5t-122.5 48.5t-130 -54t-48 -136t39.5 -131t121.5 -49t131 54.5t49 136.5z" />
    <glyph glyph-name="plusminus" unicode="&#xb1;" 
d="M162 762h362l75 389h107l-76 -389h370l-18 -97h-370l-77 -392h-107l77 392h-363zM33 95h838l-18 -95h-839z" />
    <glyph glyph-name="twosuperior" unicode="&#xb2;" horiz-adv-x="544" 
d="M97 785l208 194q83 75 138.5 144t55.5 136q0 42 -28.5 67.5t-82.5 25.5q-35 0 -70 -5.5t-76 -15.5l-9 79q47 14 93.5 20.5t93.5 6.5q90 0 143 -42t53 -116q0 -50 -17.5 -95t-48.5 -86t-71 -80t-87 -79l-155 -139h304l-17 -87h-440z" />
    <glyph glyph-name="threesuperior" unicode="&#xb3;" horiz-adv-x="524" 
d="M102 800q34 -8 71 -12t70 -4q84 0 136.5 40.5t52.5 115.5q0 26 -9.5 47t-32 36t-59.5 22t-92 7l16 79q100 0 162 38.5t62 107.5q0 37 -28.5 57.5t-84.5 20.5q-34 0 -61 -4.5t-64 -14.5l-10 79q44 11 81 16.5t78 5.5q90 0 143.5 -37.5t53.5 -106.5q0 -44 -15.5 -77.5
t-39 -57t-52.5 -39.5t-57 -25q54 -10 87 -50.5t33 -97.5q0 -56 -23.5 -101t-64 -76.5t-95 -49t-115.5 -17.5q-44 0 -84.5 4t-76.5 12z" />
    <glyph glyph-name="acute" unicode="&#xb4;" horiz-adv-x="767" 
d="M637 1501l78 -82l-282 -246l-58 62z" />
    <glyph glyph-name="mu" unicode="&#xb5;" horiz-adv-x="1152" 
d="M271 1000h117l-127 -657q-26 -139 8.5 -201.5t138.5 -62.5q47 0 95 14t98.5 41t100.5 67t101 91l136 708h118l-193 -1000h-98l17 156q-36 -34 -80 -65.5t-93.5 -56t-105.5 -39t-114 -14.5q-71 0 -116 20t-73 62l-2 -2q-9 -69 -20.5 -130.5t-21.5 -120.5l-47 -250h-118z
" />
    <glyph glyph-name="paragraph" unicode="&#xb6;" horiz-adv-x="1084" 
d="M519 460q-171 2 -251 70t-80 221q0 45 6 96.5t18 111.5q25 124 69 213t112.5 144.5t164.5 81t223 25.5h432l-16 -77h-159l-327 -1683h-96l328 1683h-159l-328 -1683h-92z" />
    <glyph glyph-name="periodcentered" unicode="&#xb7;" horiz-adv-x="444" 
d="M326 573q0 -12 -1 -22.5t-4 -21.5q-5 -24 -12.5 -41t-19 -27t-31 -15t-46.5 -5q-44 0 -63 11.5t-19 39.5q0 12 1.5 22.5t3.5 22.5q6 23 13.5 40t19 27t30.5 15t47 5q43 0 62 -11.5t19 -39.5z" />
    <glyph glyph-name="cedilla" unicode="&#xb8;" horiz-adv-x="553" 
d="M121 0h87l-37 -117q46 -2 76.5 -14t50 -30t27 -41.5t7.5 -48.5q0 -55 -21 -93t-56.5 -63t-83 -36.5t-101.5 -11.5q-34 0 -65 3t-60 12l19 75q27 -6 53.5 -9t58.5 -3q65 0 108.5 26t43.5 87q0 36 -27 56t-90 20h-48z" />
    <glyph glyph-name="onesuperior" unicode="&#xb9;" horiz-adv-x="412" 
d="M339 1301l-143 -69l-31 66l216 128h81l-137 -713h-100z" />
    <glyph glyph-name="ordmasculine" unicode="&#xba;" horiz-adv-x="771" 
d="M808 1214q0 -33 -4 -67.5t-12 -76.5q-20 -110 -55 -183.5t-83 -118.5t-107 -64.5t-128 -19.5q-110 0 -175 53t-65 180q0 31 3.5 66.5t12.5 77.5q20 109 55 183t83 119t107 64.5t128 19.5q110 0 174.5 -51.5t65.5 -181.5zM708 1204q0 92 -39.5 126t-114.5 34
q-48 0 -87.5 -14.5t-72.5 -49t-57.5 -93t-41.5 -145.5q-8 -39 -12 -73.5t-4 -61.5q0 -92 39.5 -126.5t114.5 -34.5q46 0 86.5 15t73.5 49.5t57.5 93t41.5 146.5q8 38 12 73t4 61zM142 562h518l-16 -88h-519z" />
    <glyph glyph-name="guillemotright" unicode="&#xbb;" horiz-adv-x="892" 
d="M678 501l-156 390l98 48l197 -451l-362 -426l-85 57zM311 504l-148 368l97 48l190 -429l-346 -410l-85 57z" />
    <glyph glyph-name="onequarter" unicode="&#xbc;" horiz-adv-x="1174" 
d="M1182 1461l72 -57l-1213 -1440l-72 57zM339 1301l-143 -69l-31 66l216 128h81l-137 -713h-100zM890 151h-315l19 90l362 472h143l-94 -476h91l-17 -86h-90l-28 -151h-98zM907 237l74 376l-291 -376h217z" />
    <glyph glyph-name="onehalf" unicode="&#xbd;" horiz-adv-x="1291" 
d="M1182 1461l72 -57l-1213 -1440l-72 57zM339 1301l-143 -69l-31 66l216 128h81l-137 -713h-100zM705 72l208 194q83 75 138.5 144t55.5 136q0 42 -28.5 67.5t-82.5 25.5q-35 0 -70 -5.5t-76 -15.5l-9 79q47 14 93.5 20.5t93.5 6.5q90 0 143 -42t53 -116q0 -50 -17.5 -95
t-48.5 -86t-71 -80t-87 -79l-155 -139h304l-17 -87h-440z" />
    <glyph glyph-name="threequarters" unicode="&#xbe;" horiz-adv-x="1290" 
d="M1297 1461l72 -57l-1213 -1440l-72 57zM1006 151h-315l19 90l362 472h143l-94 -476h91l-17 -86h-90l-28 -151h-98zM1023 237l74 376l-291 -376h217zM138 800q34 -8 71 -12t70 -4q84 0 136.5 40.5t52.5 115.5q0 26 -9.5 47t-32 36t-59.5 22t-92 7l16 79q100 0 162 38.5
t62 107.5q0 37 -28.5 57.5t-84.5 20.5q-34 0 -61 -4.5t-64 -14.5l-10 79q44 11 81 16.5t78 5.5q90 0 143.5 -37.5t53.5 -106.5q0 -44 -15.5 -77.5t-39 -57t-52.5 -39.5t-57 -25q54 -10 87 -50.5t33 -97.5q0 -56 -23.5 -101t-64 -76.5t-95 -49t-115.5 -17.5q-44 0 -84.5 4
t-76.5 12z" />
    <glyph glyph-name="questiondown" unicode="&#xbf;" horiz-adv-x="604" 
d="M461 727l-34 -181q-12 -64 -28.5 -111t-43.5 -88t-66.5 -82.5t-94.5 -95.5q-58 -54 -104 -99.5t-76.5 -87t-47 -85t-16.5 -92.5q0 -33 10 -63t35.5 -52.5t68.5 -35.5t108 -13q59 0 119 8t132 24l9 -93q-73 -18 -144 -26.5t-146 -8.5q-83 0 -142.5 18t-98 50t-57 76
t-18.5 94q0 72 18 128t53 106t87 100t119 113q51 45 86 80.5t62 72t43 78.5t29 99l31 167h107zM558 1054q0 -11 -1 -22.5t-4 -22.5q-5 -22 -12 -38.5t-18.5 -26.5t-30.5 -15t-46 -5q-42 0 -60.5 11t-18.5 38q0 12 1.5 22.5t3.5 21.5q5 23 12.5 39.5t19 26.5t30 15t46.5 5
q41 0 59.5 -11.5t18.5 -37.5z" />
    <glyph glyph-name="Agrave" unicode="&#xc0;" horiz-adv-x="1184" 
d="M693 1423h164l203 -1423h-122l-59 409h-598l-214 -409h-125zM868 507l-54 393q-9 63 -16 116.5t-14.5 106.5t-13.5 104.5t-11 107.5h-2q-29 -56 -54 -108t-52 -104.5t-55 -106.5t-61 -117l-206 -392h539zM648 1832l318 -182l-43 -78l-333 163z" />
    <glyph glyph-name="Aacute" unicode="&#xc1;" horiz-adv-x="1184" 
d="M693 1423h164l203 -1423h-122l-59 409h-598l-214 -409h-125zM868 507l-54 393q-9 63 -16 116.5t-14.5 106.5t-13.5 104.5t-11 107.5h-2q-29 -56 -54 -108t-52 -104.5t-55 -106.5t-61 -117l-206 -392h539zM1030 1821l40 -98l-360 -148l-34 76z" />
    <glyph glyph-name="Acircumflex" unicode="&#xc2;" horiz-adv-x="1184" 
d="M693 1423h164l203 -1423h-122l-59 409h-598l-214 -409h-125zM868 507l-54 393q-9 63 -16 116.5t-14.5 106.5t-13.5 104.5t-11 107.5h-2q-29 -56 -54 -108t-52 -104.5t-55 -106.5t-61 -117l-206 -392h539zM855 1822l240 -168l-53 -78l-208 129l-255 -129l-36 78z" />
    <glyph glyph-name="Atilde" unicode="&#xc3;" horiz-adv-x="1184" 
d="M693 1423h164l203 -1423h-122l-59 409h-598l-214 -409h-125zM868 507l-54 393q-9 63 -16 116.5t-14.5 106.5t-13.5 104.5t-11 107.5h-2q-29 -56 -54 -108t-52 -104.5t-55 -106.5t-61 -117l-206 -392h539zM510 1655q40 46 93.5 79t123.5 33q38 0 66 -12.5t53 -26t50 -25.5
t54 -12q42 0 77.5 20.5t67.5 51.5l51 -55q-38 -46 -91.5 -79t-123.5 -33q-37 0 -66 12t-54.5 26t-50 26t-53.5 12q-42 0 -77.5 -21t-67.5 -51z" />
    <glyph glyph-name="Adieresis" unicode="&#xc4;" horiz-adv-x="1184" 
d="M693 1423h164l203 -1423h-122l-59 409h-598l-214 -409h-125zM868 507l-54 393q-9 63 -16 116.5t-14.5 106.5t-13.5 104.5t-11 107.5h-2q-29 -56 -54 -108t-52 -104.5t-55 -106.5t-61 -117l-206 -392h539zM681 1721q0 -10 -1 -20t-4 -21q-5 -22 -12 -36.5t-18.5 -23.5
t-28 -12t-41.5 -3q-38 0 -55.5 9.5t-17.5 36.5q0 10 1.5 20t3.5 21q3 22 11 36t19.5 23.5t28 13t41.5 3.5q38 0 55.5 -10t17.5 -37zM1161 1721q0 -10 -1 -20t-4 -21q-5 -22 -12 -36.5t-18.5 -23.5t-28 -12t-41.5 -3q-38 0 -55.5 9.5t-17.5 36.5q0 10 2 20t4 21q3 22 10.5 36
t19 23.5t28 13t41.5 3.5q38 0 55.5 -10t17.5 -37z" />
    <glyph glyph-name="Aring" unicode="&#xc5;" horiz-adv-x="1184" 
d="M693 1423h164l203 -1423h-122l-59 409h-598l-214 -409h-125zM868 507l-54 393q-9 63 -16 116.5t-14.5 106.5t-13.5 104.5t-11 107.5h-2q-29 -56 -54 -108t-52 -104.5t-55 -106.5t-61 -117l-206 -392h539zM1038 1706q0 -46 -16.5 -83.5t-45.5 -65t-69.5 -42t-87.5 -14.5
q-41 0 -77 13t-63 36t-41.5 55.5t-14.5 74.5q0 45 15.5 83t45 65t69 41.5t85.5 14.5q86 0 143 -47.5t57 -130.5zM949 1701q0 52 -29 79.5t-85 27.5t-90.5 -32t-34.5 -91q0 -53 30 -80t82 -27q59 0 93 32t34 91z" />
    <glyph glyph-name="AE" unicode="&#xc6;" horiz-adv-x="1677" 
d="M940 1423h806l-21 -99h-603l-105 -535h558l-18 -98h-559l-114 -591h604l-18 -100h-726l80 409h-540l-317 -409h-139zM842 507l159 822h-5l-639 -822h485z" />
    <glyph glyph-name="Ccedilla" unicode="&#xc7;" horiz-adv-x="1028" 
d="M883 24q-67 -17 -147 -30.5t-161 -14.5h-29l-30 -96q93 -4 132 -43.5t39 -90.5q0 -55 -21.5 -93t-59 -63t-87 -37t-104.5 -12q-34 0 -65 3.5t-61 12.5l19 77q28 -6 55 -9.5t59 -3.5q69 0 114 25t45 87q0 36 -27 55t-96 19h-51l54 176q-76 9 -134 35.5t-98.5 75t-61 121
t-20.5 173.5q0 33 1.5 70t6.5 76.5t11 83.5t17 92q41 211 103.5 351t146.5 225.5t190.5 120.5t235.5 35q73 0 141.5 -11t120.5 -27l-28 -94q-55 16 -113 24t-127 8q-100 0 -186 -30.5t-154.5 -104t-120 -195t-88.5 -305.5q-17 -92 -25.5 -166.5t-8.5 -139.5
q0 -93 20.5 -156.5t61.5 -101t101 -53t139 -15.5q68 0 143.5 13t140.5 30z" />
    <glyph glyph-name="Egrave" unicode="&#xc8;" horiz-adv-x="1036" 
d="M379 1423h726l-22 -99h-602l-106 -535h559l-19 -98h-558l-115 -591h605l-19 -100h-725zM593 1832l318 -182l-43 -78l-333 163z" />
    <glyph glyph-name="Eacute" unicode="&#xc9;" horiz-adv-x="1036" 
d="M379 1423h726l-22 -99h-602l-106 -535h559l-19 -98h-558l-115 -591h605l-19 -100h-725zM1020 1821l40 -98l-360 -148l-34 76z" />
    <glyph glyph-name="Ecircumflex" unicode="&#xca;" horiz-adv-x="1036" 
d="M379 1423h726l-22 -99h-602l-106 -535h559l-19 -98h-558l-115 -591h605l-19 -100h-725zM824 1822l240 -168l-53 -78l-208 129l-255 -129l-36 78z" />
    <glyph glyph-name="Edieresis" unicode="&#xcb;" horiz-adv-x="1036" 
d="M379 1423h726l-22 -99h-602l-106 -535h559l-19 -98h-558l-115 -591h605l-19 -100h-725zM638 1721q0 -10 -1 -20t-4 -21q-5 -22 -12 -36.5t-18.5 -23.5t-28 -12t-41.5 -3q-38 0 -55.5 9.5t-17.5 36.5q0 10 1.5 20t3.5 21q3 22 11 36t19.5 23.5t28 13t41.5 3.5
q38 0 55.5 -10t17.5 -37zM1118 1721q0 -10 -1 -20t-4 -21q-5 -22 -12 -36.5t-18.5 -23.5t-28 -12t-41.5 -3q-38 0 -55.5 9.5t-17.5 36.5q0 10 2 20t4 21q3 22 10.5 36t19 23.5t28 13t41.5 3.5q38 0 55.5 -10t17.5 -37z" />
    <glyph glyph-name="Igrave" unicode="&#xcc;" horiz-adv-x="520" 
d="M379 1423h121l-276 -1423h-121zM327 1832l318 -182l-43 -78l-333 163z" />
    <glyph glyph-name="Iacute" unicode="&#xcd;" horiz-adv-x="520" 
d="M379 1423h121l-276 -1423h-121zM681 1821l40 -98l-360 -148l-34 76z" />
    <glyph glyph-name="Icircumflex" unicode="&#xce;" horiz-adv-x="520" 
d="M379 1423h121l-276 -1423h-121zM518 1822l240 -168l-53 -78l-208 129l-255 -129l-36 78z" />
    <glyph glyph-name="Idieresis" unicode="&#xcf;" horiz-adv-x="520" 
d="M379 1423h121l-276 -1423h-121zM764 1721q0 -10 -1 -20t-3 -21q-5 -22 -11.5 -36.5t-18 -23.5t-28.5 -12t-42 -3q-38 0 -55 9.5t-17 36.5q0 10 1 20t3 21q3 22 10.5 36t19.5 23.5t29 13t41 3.5q39 0 55.5 -10t16.5 -37zM392 1721q0 -10 -1 -20t-3 -21q-5 -22 -11.5 -36.5
t-18.5 -23.5t-28.5 -12t-41.5 -3q-39 0 -55.5 9.5t-16.5 36.5q0 10 1 20t3 21q4 22 11.5 36t19 23.5t28 13t41.5 3.5q38 0 55 -10t17 -37z" />
    <glyph glyph-name="Eth" unicode="&#xd0;" horiz-adv-x="1329" 
d="M263 704h-189l18 97h189l120 622h393q116 0 204.5 -19t148.5 -65.5t90 -124.5t30 -196q0 -65 -9 -138.5t-25 -162.5q-40 -210 -107 -348t-161 -220t-213.5 -115.5t-266.5 -33.5h-361zM500 100q114 0 211.5 28t174.5 97.5t133.5 189.5t91.5 305q15 85 24.5 154.5
t9.5 128.5q0 95 -23 157t-69 98.5t-115 51t-162 14.5h-274l-101 -523h367l-18 -97h-368l-118 -604h236z" />
    <glyph glyph-name="Ntilde" unicode="&#xd1;" horiz-adv-x="1368" 
d="M379 1423h154l328 -907q17 -50 33.5 -96t33 -91t31.5 -91.5t32 -98.5l2 1q15 97 30 190.5t34 185.5l177 907h114l-277 -1423h-155l-330 907q-18 49 -34.5 96t-32 93t-31 91.5t-29.5 96.5l-5 -1q-15 -96 -29.5 -188t-32.5 -188l-175 -907h-114zM598 1655q40 46 93.5 79
t123.5 33q38 0 66 -12.5t53 -26t50 -25.5t54 -12q42 0 77.5 20.5t67.5 51.5l51 -55q-38 -46 -91.5 -79t-123.5 -33q-37 0 -66 12t-54.5 26t-50 26t-53.5 12q-42 0 -77.5 -21t-67.5 -51z" />
    <glyph glyph-name="Ograve" unicode="&#xd2;" horiz-adv-x="1349" 
d="M1281 1021q0 -75 -9 -147t-25 -161q-41 -208 -102 -349.5t-145.5 -228.5t-191.5 -125t-239 -38q-102 0 -181.5 23.5t-133 74.5t-80.5 133t-27 199q0 75 8.5 147.5t25.5 161.5q40 208 102 349t146 228t190.5 125t237.5 38q103 0 182.5 -23.5t133 -74t81 -132.5t27.5 -200z
M1158 1012q0 93 -20 158t-60 105.5t-99 57.5t-135 17q-101 0 -183.5 -31.5t-150 -107t-119 -199t-88.5 -304.5q-9 -42 -15 -82t-10 -76.5t-6.5 -71t-2.5 -66.5q0 -95 20.5 -159t60 -104.5t98.5 -58t135 -17.5q99 0 182.5 31.5t151 107t119 198t88.5 306.5q7 42 14.5 82
t11.5 76t6 70.5t2 67.5zM697 1832l318 -182l-43 -78l-333 163z" />
    <glyph glyph-name="Oacute" unicode="&#xd3;" horiz-adv-x="1349" 
d="M1281 1021q0 -75 -9 -147t-25 -161q-41 -208 -102 -349.5t-145.5 -228.5t-191.5 -125t-239 -38q-102 0 -181.5 23.5t-133 74.5t-80.5 133t-27 199q0 75 8.5 147.5t25.5 161.5q40 208 102 349t146 228t190.5 125t237.5 38q103 0 182.5 -23.5t133 -74t81 -132.5t27.5 -200z
M1158 1012q0 93 -20 158t-60 105.5t-99 57.5t-135 17q-101 0 -183.5 -31.5t-150 -107t-119 -199t-88.5 -304.5q-9 -42 -15 -82t-10 -76.5t-6.5 -71t-2.5 -66.5q0 -95 20.5 -159t60 -104.5t98.5 -58t135 -17.5q99 0 182.5 31.5t151 107t119 198t88.5 306.5q7 42 14.5 82
t11.5 76t6 70.5t2 67.5zM1141 1821l40 -98l-360 -148l-34 76z" />
    <glyph glyph-name="Ocircumflex" unicode="&#xd4;" horiz-adv-x="1349" 
d="M1281 1021q0 -75 -9 -147t-25 -161q-41 -208 -102 -349.5t-145.5 -228.5t-191.5 -125t-239 -38q-102 0 -181.5 23.5t-133 74.5t-80.5 133t-27 199q0 75 8.5 147.5t25.5 161.5q40 208 102 349t146 228t190.5 125t237.5 38q103 0 182.5 -23.5t133 -74t81 -132.5t27.5 -200z
M1158 1012q0 93 -20 158t-60 105.5t-99 57.5t-135 17q-101 0 -183.5 -31.5t-150 -107t-119 -199t-88.5 -304.5q-9 -42 -15 -82t-10 -76.5t-6.5 -71t-2.5 -66.5q0 -95 20.5 -159t60 -104.5t98.5 -58t135 -17.5q99 0 182.5 31.5t151 107t119 198t88.5 306.5q7 42 14.5 82
t11.5 76t6 70.5t2 67.5zM929 1822l240 -168l-53 -78l-208 129l-255 -129l-36 78z" />
    <glyph glyph-name="Otilde" unicode="&#xd5;" horiz-adv-x="1349" 
d="M1281 1021q0 -75 -9 -147t-25 -161q-41 -208 -102 -349.5t-145.5 -228.5t-191.5 -125t-239 -38q-102 0 -181.5 23.5t-133 74.5t-80.5 133t-27 199q0 75 8.5 147.5t25.5 161.5q40 208 102 349t146 228t190.5 125t237.5 38q103 0 182.5 -23.5t133 -74t81 -132.5t27.5 -200z
M1158 1012q0 93 -20 158t-60 105.5t-99 57.5t-135 17q-101 0 -183.5 -31.5t-150 -107t-119 -199t-88.5 -304.5q-9 -42 -15 -82t-10 -76.5t-6.5 -71t-2.5 -66.5q0 -95 20.5 -159t60 -104.5t98.5 -58t135 -17.5q99 0 182.5 31.5t151 107t119 198t88.5 306.5q7 42 14.5 82
t11.5 76t6 70.5t2 67.5zM569 1655q40 46 93.5 79t123.5 33q38 0 66 -12.5t53 -26t50 -25.5t54 -12q42 0 77.5 20.5t67.5 51.5l51 -55q-38 -46 -91.5 -79t-123.5 -33q-37 0 -66 12t-54.5 26t-50 26t-53.5 12q-42 0 -77.5 -21t-67.5 -51z" />
    <glyph glyph-name="Odieresis" unicode="&#xd6;" horiz-adv-x="1349" 
d="M1281 1021q0 -75 -9 -147t-25 -161q-41 -208 -102 -349.5t-145.5 -228.5t-191.5 -125t-239 -38q-102 0 -181.5 23.5t-133 74.5t-80.5 133t-27 199q0 75 8.5 147.5t25.5 161.5q40 208 102 349t146 228t190.5 125t237.5 38q103 0 182.5 -23.5t133 -74t81 -132.5t27.5 -200z
M1158 1012q0 93 -20 158t-60 105.5t-99 57.5t-135 17q-101 0 -183.5 -31.5t-150 -107t-119 -199t-88.5 -304.5q-9 -42 -15 -82t-10 -76.5t-6.5 -71t-2.5 -66.5q0 -95 20.5 -159t60 -104.5t98.5 -58t135 -17.5q99 0 182.5 31.5t151 107t119 198t88.5 306.5q7 42 14.5 82
t11.5 76t6 70.5t2 67.5zM753 1721q0 -10 -1 -20t-4 -21q-5 -22 -12 -36.5t-18.5 -23.5t-28 -12t-41.5 -3q-38 0 -55.5 9.5t-17.5 36.5q0 10 1.5 20t3.5 21q3 22 11 36t19.5 23.5t28 13t41.5 3.5q38 0 55.5 -10t17.5 -37zM1233 1721q0 -10 -1 -20t-4 -21q-5 -22 -12 -36.5
t-18.5 -23.5t-28 -12t-41.5 -3q-38 0 -55.5 9.5t-17.5 36.5q0 10 2 20t4 21q3 22 10.5 36t19 23.5t28 13t41.5 3.5q38 0 55.5 -10t17.5 -37z" />
    <glyph glyph-name="multiply" unicode="&#xd7;" 
d="M500 592l-282 358l81 62l278 -354l399 340l62 -73l-401 -342l284 -359l-80 -64l-281 357l-408 -345l-61 72z" />
    <glyph glyph-name="Oslash" unicode="&#xd8;" horiz-adv-x="1356" 
d="M222 111q-30 41 -52.5 111t-22.5 180q0 75 8.5 147.5t25.5 161.5q40 208 102 349t146.5 228t192 125t239.5 38q102 0 164.5 -20t102.5 -51l150 211l86 -49l-158 -220q39 -49 61 -124t22 -177q0 -37 -2 -73.5t-7 -74t-11.5 -77t-14.5 -83.5q-40 -208 -101.5 -349.5
t-146 -228.5t-192.5 -125t-241 -38q-94 0 -158.5 19t-117.5 57l-150 -211l-86 50zM1067 1288q-31 26 -80 45.5t-139 19.5q-103 0 -187 -31.5t-152 -107t-120 -199.5t-89 -305q-16 -85 -24 -151.5t-8 -126.5q-1 -36 1 -66.5t7 -56.5t11 -46.5t14 -39.5zM360 144
q38 -37 90 -55.5t138 -18.5q100 0 185 31.5t153 107.5t119.5 198.5t88.5 306.5q18 84 25.5 150.5t8.5 127.5q1 36 -2 67t-8 59t-13 50t-17 42z" />
    <glyph glyph-name="Ugrave" unicode="&#xd9;" horiz-adv-x="1310" 
d="M464 1423l-177 -907q-10 -46 -15 -90t-5 -86q0 -65 16 -114t51.5 -83.5t93.5 -52t140 -17.5q105 0 182.5 30.5t132.5 89t90.5 142.5t57.5 193l175 895h122l-175 -898q-27 -136 -74 -239.5t-119 -173.5t-172 -105t-230 -35q-216 0 -314 93.5t-98 266.5q0 43 5 90t16 98
l176 903h121zM678 1832l318 -182l-43 -78l-333 163z" />
    <glyph glyph-name="Uacute" unicode="&#xda;" horiz-adv-x="1310" 
d="M464 1423l-177 -907q-10 -46 -15 -90t-5 -86q0 -65 16 -114t51.5 -83.5t93.5 -52t140 -17.5q105 0 182.5 30.5t132.5 89t90.5 142.5t57.5 193l175 895h122l-175 -898q-27 -136 -74 -239.5t-119 -173.5t-172 -105t-230 -35q-216 0 -314 93.5t-98 266.5q0 43 5 90t16 98
l176 903h121zM1119 1821l40 -98l-360 -148l-34 76z" />
    <glyph glyph-name="Ucircumflex" unicode="&#xdb;" horiz-adv-x="1310" 
d="M464 1423l-177 -907q-10 -46 -15 -90t-5 -86q0 -65 16 -114t51.5 -83.5t93.5 -52t140 -17.5q105 0 182.5 30.5t132.5 89t90.5 142.5t57.5 193l175 895h122l-175 -898q-27 -136 -74 -239.5t-119 -173.5t-172 -105t-230 -35q-216 0 -314 93.5t-98 266.5q0 43 5 90t16 98
l176 903h121zM916 1822l240 -168l-53 -78l-208 129l-255 -129l-36 78z" />
    <glyph glyph-name="Udieresis" unicode="&#xdc;" horiz-adv-x="1310" 
d="M464 1423l-177 -907q-10 -46 -15 -90t-5 -86q0 -65 16 -114t51.5 -83.5t93.5 -52t140 -17.5q105 0 182.5 30.5t132.5 89t90.5 142.5t57.5 193l175 895h122l-175 -898q-27 -136 -74 -239.5t-119 -173.5t-172 -105t-230 -35q-216 0 -314 93.5t-98 266.5q0 43 5 90t16 98
l176 903h121zM733 1721q0 -10 -1 -20t-4 -21q-5 -22 -12 -36.5t-18.5 -23.5t-28 -12t-41.5 -3q-38 0 -55.5 9.5t-17.5 36.5q0 10 1.5 20t3.5 21q3 22 11 36t19.5 23.5t28 13t41.5 3.5q38 0 55.5 -10t17.5 -37zM1213 1721q0 -10 -1 -20t-4 -21q-5 -22 -12 -36.5t-18.5 -23.5
t-28 -12t-41.5 -3q-38 0 -55.5 9.5t-17.5 36.5q0 10 2 20t4 21q3 22 10.5 36t19 23.5t28 13t41.5 3.5q38 0 55.5 -10t17.5 -37z" />
    <glyph glyph-name="Yacute" unicode="&#xdd;" horiz-adv-x="1033" 
d="M469 570l-278 853h122l154 -464q14 -42 24 -76t20 -64.5t19.5 -61.5t20.5 -68h3q24 37 46 70t43.5 64.5t44.5 65t51 72.5l330 462h132l-611 -853l-111 -570h-120zM963 1821l40 -98l-360 -148l-34 76z" />
    <glyph glyph-name="Thorn" unicode="&#xde;" horiz-adv-x="1057" 
d="M379 1423h121l-59 -309h211q110 0 185.5 -17.5t123.5 -51t69.5 -84t21.5 -115.5q0 -135 -44.5 -232.5t-121.5 -161t-179 -92.5t-219 -29h-200l-64 -331h-121zM505 430q83 0 160.5 23t135.5 71.5t93 124t35 178.5q0 97 -64 143t-230 46h-215l-113 -586h198z" />
    <glyph glyph-name="germandbls" unicode="&#xdf;" horiz-adv-x="1049" 
d="M-281 -350q39 -9 66.5 -11t62.5 -2q39 0 73 11.5t62.5 40t50 76t36.5 118.5l256 1310q19 92 53 157.5t83.5 108t117.5 61.5t153 19q70 0 121.5 -17.5t84 -46.5t48 -66.5t15.5 -80.5q0 -54 -13.5 -97t-38 -81t-59 -74.5t-74.5 -75.5q-33 -32 -63 -58.5t-52.5 -53
t-36.5 -57t-14 -67.5q0 -24 9.5 -45t28.5 -42.5t47 -46.5t64 -55q35 -31 65.5 -60t52.5 -59.5t33.5 -66t11.5 -82.5q0 -79 -28 -140t-76.5 -102t-117.5 -62.5t-150 -21.5q-28 0 -58 2t-58.5 6t-56 10t-52.5 14l18 93q53 -15 109 -23t109 -8q107 0 175.5 56t68.5 160
q0 34 -8 59.5t-24.5 48.5t-43.5 47.5t-62 55.5q-78 66 -128 119.5t-50 125.5q0 50 18 90.5t47 77t66 70.5t74 72q35 32 62 62t45 60.5t28.5 63t10.5 70.5q0 55 -38.5 92.5t-129.5 37.5q-114 0 -180.5 -61.5t-92.5 -203.5l-250 -1292q-20 -100 -51.5 -166t-75 -106t-99.5 -57
t-125 -17q-37 0 -69.5 3.5t-70.5 12.5z" />
    <glyph glyph-name="agrave" unicode="&#xe0;" horiz-adv-x="1116" 
d="M747 155q-37 -35 -80.5 -66.5t-92 -56t-100.5 -38.5t-105 -14q-122 0 -191.5 79.5t-69.5 235.5q0 162 39.5 296t111.5 229.5t171.5 147.5t218.5 52q78 0 142.5 -22.5t115.5 -59.5l16 62h98l-193 -1000h-98zM874 842q-53 37 -108 59t-126 22q-93 0 -169 -47.5
t-129.5 -130.5t-83 -194.5t-29.5 -239.5q0 -114 43.5 -173t128.5 -59q79 0 171.5 54t193.5 158zM580 1522l190 -287l-71 -55l-211 274z" />
    <glyph glyph-name="aacute" unicode="&#xe1;" horiz-adv-x="1116" 
d="M747 155q-37 -35 -80.5 -66.5t-92 -56t-100.5 -38.5t-105 -14q-122 0 -191.5 79.5t-69.5 235.5q0 162 39.5 296t111.5 229.5t171.5 147.5t218.5 52q78 0 142.5 -22.5t115.5 -59.5l16 62h98l-193 -1000h-98zM874 842q-53 37 -108 59t-126 22q-93 0 -169 -47.5
t-129.5 -130.5t-83 -194.5t-29.5 -239.5q0 -114 43.5 -173t128.5 -59q79 0 171.5 54t193.5 158zM858 1501l78 -82l-282 -246l-58 62z" />
    <glyph glyph-name="acircumflex" unicode="&#xe2;" horiz-adv-x="1116" 
d="M747 155q-37 -35 -80.5 -66.5t-92 -56t-100.5 -38.5t-105 -14q-122 0 -191.5 79.5t-69.5 235.5q0 162 39.5 296t111.5 229.5t171.5 147.5t218.5 52q78 0 142.5 -22.5t115.5 -59.5l16 62h98l-193 -1000h-98zM874 842q-53 37 -108 59t-126 22q-93 0 -169 -47.5
t-129.5 -130.5t-83 -194.5t-29.5 -239.5q0 -114 43.5 -173t128.5 -59q79 0 171.5 54t193.5 158zM724 1506l204 -257l-66 -68l-161 190l-228 -188l-54 64z" />
    <glyph glyph-name="atilde" unicode="&#xe3;" horiz-adv-x="1116" 
d="M747 155q-37 -35 -80.5 -66.5t-92 -56t-100.5 -38.5t-105 -14q-122 0 -191.5 79.5t-69.5 235.5q0 162 39.5 296t111.5 229.5t171.5 147.5t218.5 52q78 0 142.5 -22.5t115.5 -59.5l16 62h98l-193 -1000h-98zM874 842q-53 37 -108 59t-126 22q-93 0 -169 -47.5
t-129.5 -130.5t-83 -194.5t-29.5 -239.5q0 -114 43.5 -173t128.5 -59q79 0 171.5 54t193.5 158zM385 1276q20 31 42.5 58.5t49 49.5t57.5 34t66 12q38 0 66 -17.5t52 -38.5t46.5 -37.5t49.5 -16.5q37 0 70 30t61 75l63 -44q-18 -31 -41 -59t-50 -49.5t-58 -34t-66 -12.5
q-39 0 -66 17t-51 37.5t-46.5 38.5t-51.5 18q-37 0 -70 -30t-62 -75z" />
    <glyph glyph-name="adieresis" unicode="&#xe4;" horiz-adv-x="1116" 
d="M747 155q-37 -35 -80.5 -66.5t-92 -56t-100.5 -38.5t-105 -14q-122 0 -191.5 79.5t-69.5 235.5q0 162 39.5 296t111.5 229.5t171.5 147.5t218.5 52q78 0 142.5 -22.5t115.5 -59.5l16 62h98l-193 -1000h-98zM874 842q-53 37 -108 59t-126 22q-93 0 -169 -47.5
t-129.5 -130.5t-83 -194.5t-29.5 -239.5q0 -114 43.5 -173t128.5 -59q79 0 171.5 54t193.5 158zM576 1374q0 -10 -1 -20t-4 -21q-5 -22 -11.5 -37t-18.5 -23t-28.5 -11.5t-40.5 -3.5q-38 0 -55 9t-17 36q0 10 1.5 20t3.5 20q3 23 10.5 37.5t19.5 23t28.5 12t40.5 3.5
q37 0 54.5 -9t17.5 -36zM973 1374q0 -10 -1 -20t-4 -21q-5 -22 -11.5 -37t-18.5 -23t-28.5 -11.5t-40.5 -3.5q-38 0 -55 9t-17 36q0 10 1.5 20t3.5 20q3 23 10.5 37.5t19.5 23t28.5 12t40.5 3.5q37 0 54.5 -9t17.5 -36z" />
    <glyph glyph-name="aring" unicode="&#xe5;" horiz-adv-x="1116" 
d="M747 155q-37 -35 -80.5 -66.5t-92 -56t-100.5 -38.5t-105 -14q-122 0 -191.5 79.5t-69.5 235.5q0 162 39.5 296t111.5 229.5t171.5 147.5t218.5 52q78 0 142.5 -22.5t115.5 -59.5l16 62h98l-193 -1000h-98zM874 842q-53 37 -108 59t-126 22q-93 0 -169 -47.5
t-129.5 -130.5t-83 -194.5t-29.5 -239.5q0 -114 43.5 -173t128.5 -59q79 0 171.5 54t193.5 158zM901 1357q0 -49 -16.5 -88.5t-45.5 -67.5t-67.5 -43.5t-84.5 -15.5q-84 0 -138 52.5t-54 135.5q0 48 16.5 88t44.5 68t67.5 43.5t83.5 15.5q87 0 140.5 -53t53.5 -135z
M814 1358q0 49 -27 79.5t-83 30.5t-88.5 -35t-32.5 -103q0 -50 26.5 -81t80.5 -31q58 0 91 36t33 104z" />
    <glyph glyph-name="ae" unicode="&#xe6;" horiz-adv-x="1494" 
d="M654 487q-146 0 -239.5 -16.5t-148.5 -48.5t-76.5 -80.5t-21.5 -115.5q0 -76 39 -115t115 -39q75 0 151.5 32t163.5 120q-6 64 0 131t17 132zM672 575q6 28 14 56t14.5 55t11 50.5t4.5 46.5q0 27 -8 53.5t-29 45.5t-57 30t-90 11q-74 0 -140 -10t-138 -28l-7 93
q80 20 153.5 30.5t155.5 10.5q63 0 108 -14t74.5 -36.5t46 -51t20.5 -57.5q24 30 57 60.5t76 54t98 38t124 14.5q139 0 214.5 -59.5t75.5 -165.5q0 -81 -41.5 -141t-125 -100.5t-210 -59.5t-299.5 -19q-3 -16 -7 -39.5t-6.5 -49t-5 -52t-2.5 -43.5q0 -124 55.5 -172.5
t171.5 -48.5q73 0 147 11.5t143 33.5l6 -93q-68 -23 -147 -35.5t-164 -12.5q-73 0 -124.5 12.5t-86 33t-56 48.5t-35.5 58q-88 -80 -175.5 -116.5t-191.5 -36.5q-108 0 -174 59.5t-66 173.5q0 89 31.5 156.5t104 113.5t190 69t290.5 23zM793 572q278 -1 408.5 51.5
t130.5 165.5q0 66 -46 104t-143 38q-65 0 -118 -20t-97 -63t-78 -111t-57 -165z" />
    <glyph glyph-name="ccedilla" unicode="&#xe7;" horiz-adv-x="816" 
d="M673 17q-56 -16 -120 -26t-125 -10h-27l-30 -98q45 -2 76 -14t50.5 -30t27.5 -41.5t8 -48.5q0 -55 -21.5 -93t-57 -63t-83 -36.5t-102.5 -11.5q-33 0 -63.5 3t-60.5 12l19 75q28 -6 54.5 -9t57.5 -3q66 0 109 26t43 87q0 36 -26.5 56t-91.5 20h-48l56 180q-41 9 -80 27.5
t-68 52.5t-46.5 88t-17.5 134q0 22 1 44.5t3.5 48.5t6.5 52.5t10 57.5q27 145 75.5 245t113.5 161.5t145 88.5t167 27q50 0 99.5 -7.5t94.5 -20.5l-26 -90q-42 10 -84 15.5t-89 5.5q-60 0 -117 -19t-106 -67t-88 -129.5t-65 -206.5q-11 -58 -16 -106t-5 -89
q0 -128 56.5 -178t166.5 -50q52 0 105.5 8.5t112.5 25.5z" />
    <glyph glyph-name="egrave" unicode="&#xe8;" horiz-adv-x="965" 
d="M747 29q-67 -23 -146.5 -35.5t-164.5 -12.5q-78 0 -139 14.5t-104 51.5t-65 97t-22 151q0 44 5.5 98t15.5 104q26 145 73 246t112 164.5t145.5 91.5t174.5 28q138 0 213.5 -59.5t75.5 -165.5q0 -88 -41.5 -151.5t-125.5 -106t-212 -62.5t-300 -20q-5 -30 -11 -78t-6 -86
q0 -124 55 -172.5t171 -48.5q73 0 147 11.5t143 33.5zM259 551q278 0 411 55.5t133 182.5q0 66 -46 104t-144 38q-63 0 -117.5 -20t-99 -64.5t-79.5 -117.5t-58 -178zM559 1522l190 -287l-71 -55l-211 274z" />
    <glyph glyph-name="eacute" unicode="&#xe9;" horiz-adv-x="965" 
d="M747 29q-67 -23 -146.5 -35.5t-164.5 -12.5q-78 0 -139 14.5t-104 51.5t-65 97t-22 151q0 44 5.5 98t15.5 104q26 145 73 246t112 164.5t145.5 91.5t174.5 28q138 0 213.5 -59.5t75.5 -165.5q0 -88 -41.5 -151.5t-125.5 -106t-212 -62.5t-300 -20q-5 -30 -11 -78t-6 -86
q0 -124 55 -172.5t171 -48.5q73 0 147 11.5t143 33.5zM259 551q278 0 411 55.5t133 182.5q0 66 -46 104t-144 38q-63 0 -117.5 -20t-99 -64.5t-79.5 -117.5t-58 -178zM833 1501l78 -82l-282 -246l-58 62z" />
    <glyph glyph-name="ecircumflex" unicode="&#xea;" horiz-adv-x="965" 
d="M747 29q-67 -23 -146.5 -35.5t-164.5 -12.5q-78 0 -139 14.5t-104 51.5t-65 97t-22 151q0 44 5.5 98t15.5 104q26 145 73 246t112 164.5t145.5 91.5t174.5 28q138 0 213.5 -59.5t75.5 -165.5q0 -88 -41.5 -151.5t-125.5 -106t-212 -62.5t-300 -20q-5 -30 -11 -78t-6 -86
q0 -124 55 -172.5t171 -48.5q73 0 147 11.5t143 33.5zM259 551q278 0 411 55.5t133 182.5q0 66 -46 104t-144 38q-63 0 -117.5 -20t-99 -64.5t-79.5 -117.5t-58 -178zM705 1506l204 -257l-66 -68l-161 190l-228 -188l-54 64z" />
    <glyph glyph-name="edieresis" unicode="&#xeb;" horiz-adv-x="965" 
d="M747 29q-67 -23 -146.5 -35.5t-164.5 -12.5q-78 0 -139 14.5t-104 51.5t-65 97t-22 151q0 44 5.5 98t15.5 104q26 145 73 246t112 164.5t145.5 91.5t174.5 28q138 0 213.5 -59.5t75.5 -165.5q0 -88 -41.5 -151.5t-125.5 -106t-212 -62.5t-300 -20q-5 -30 -11 -78t-6 -86
q0 -124 55 -172.5t171 -48.5q73 0 147 11.5t143 33.5zM259 551q278 0 411 55.5t133 182.5q0 66 -46 104t-144 38q-63 0 -117.5 -20t-99 -64.5t-79.5 -117.5t-58 -178zM559 1374q0 -10 -1 -20t-4 -21q-5 -22 -11.5 -37t-18.5 -23t-28.5 -11.5t-40.5 -3.5q-38 0 -55 9t-17 36
q0 10 1.5 20t3.5 20q3 23 10.5 37.5t19.5 23t28.5 12t40.5 3.5q37 0 54.5 -9t17.5 -36zM956 1374q0 -10 -1 -20t-4 -21q-5 -22 -11.5 -37t-18.5 -23t-28.5 -11.5t-40.5 -3.5q-38 0 -55 9t-17 36q0 10 1.5 20t3.5 20q3 23 10.5 37.5t19.5 23t28.5 12t40.5 3.5q37 0 54.5 -9
t17.5 -36z" />
    <glyph glyph-name="igrave" unicode="&#xec;" horiz-adv-x="501" 
d="M288 1000h119l-194 -1000h-118zM325 1522l190 -287l-71 -55l-211 274z" />
    <glyph glyph-name="iacute" unicode="&#xed;" horiz-adv-x="501" 
d="M288 1000h119l-194 -1000h-118zM535 1501l78 -82l-282 -246l-58 62z" />
    <glyph glyph-name="icircumflex" unicode="&#xee;" horiz-adv-x="501" 
d="M288 1000h119l-194 -1000h-118zM445 1506l204 -257l-66 -68l-161 190l-228 -188l-54 64z" />
    <glyph glyph-name="idieresis" unicode="&#xef;" horiz-adv-x="501" 
d="M288 1000h119l-194 -1000h-118zM340 1374q0 -10 -1 -20t-3 -21q-5 -22 -11.5 -37t-18.5 -23t-28.5 -11.5t-40.5 -3.5q-38 0 -55 9t-17 36q0 10 1.5 20t3.5 20q3 23 10.5 37.5t19.5 23t28.5 12t40.5 3.5q37 0 54 -9.5t17 -35.5zM667 1374q0 -10 -1 -20t-4 -21
q-4 -22 -11 -37t-19 -23t-28 -11.5t-40 -3.5q-37 0 -54.5 9t-17.5 36q0 10 1 20t4 20q3 23 10.5 37.5t19.5 23t28 12t40 3.5q38 0 55 -9.5t17 -35.5z" />
    <glyph glyph-name="eth" unicode="&#xf0;" horiz-adv-x="1066" 
d="M726 1353q-16 27 -41.5 67t-47.5 70l99 53q28 -35 52.5 -71.5t42.5 -67.5l214 109l40 -80l-216 -110q56 -125 84 -260.5t28 -268.5q0 -238 -48.5 -395.5t-124.5 -252t-171 -134t-193 -39.5q-165 0 -251 83.5t-86 251.5q0 174 43 307t114.5 222t164 134.5t193.5 45.5
q70 0 133 -21t101 -53l2 2q-11 84 -32 162.5t-63 165.5l-215 -109l-38 80zM456 70q72 0 145.5 35t132 117.5t95 215t36.5 326.5v32.5t-2 30.5q-48 46 -110 70t-134 24q-76 0 -146.5 -38.5t-125.5 -115t-87.5 -189.5t-32.5 -261q0 -129 55.5 -188t173.5 -59z" />
    <glyph glyph-name="ntilde" unicode="&#xf1;" horiz-adv-x="1158" 
d="M288 1000h99l-18 -155q38 34 83.5 65.5t97.5 56t110.5 39t118.5 14.5q125 0 185.5 -59t60.5 -176q0 -27 -4.5 -57t-10.5 -62l-127 -666h-118l127 658q5 28 8 56.5t3 49.5q0 82 -38 119.5t-121 37.5q-93 0 -193 -54t-201 -160l-137 -707h-118zM434 1276q20 31 42.5 58.5
t49 49.5t57.5 34t66 12q38 0 66 -17.5t52 -38.5t46.5 -37.5t49.5 -16.5q37 0 70 30t61 75l63 -44q-18 -31 -41 -59t-50 -49.5t-58 -34t-66 -12.5q-39 0 -66 17t-51 37.5t-46.5 38.5t-51.5 18q-37 0 -70 -30t-62 -75z" />
    <glyph glyph-name="ograve" unicode="&#xf2;" horiz-adv-x="1080" 
d="M974 697q0 -42 -5 -90t-15 -105q-27 -147 -74 -247.5t-111 -163.5t-146.5 -91t-180.5 -28q-78 0 -141 17.5t-105.5 56t-66 102t-23.5 155.5q0 42 5 89.5t15 105.5q27 147 73.5 248t111 164t147 90t180.5 27q79 0 141 -17t105 -56t66.5 -102.5t23.5 -154.5zM855 689
q0 138 -60.5 189.5t-170.5 51.5q-69 0 -127.5 -20t-105.5 -69t-83.5 -131t-61.5 -209q-6 -27 -10 -53.5t-6 -50t-3 -45.5t-1 -42q0 -137 60.5 -189t169.5 -52q68 0 127 19.5t106 68.5t84 132t61 210q5 27 9.5 53.5t6.5 50.5t3.5 45.5t1.5 40.5zM583 1522l190 -287l-71 -55
l-211 274z" />
    <glyph glyph-name="oacute" unicode="&#xf3;" horiz-adv-x="1080" 
d="M974 697q0 -42 -5 -90t-15 -105q-27 -147 -74 -247.5t-111 -163.5t-146.5 -91t-180.5 -28q-78 0 -141 17.5t-105.5 56t-66 102t-23.5 155.5q0 42 5 89.5t15 105.5q27 147 73.5 248t111 164t147 90t180.5 27q79 0 141 -17t105 -56t66.5 -102.5t23.5 -154.5zM855 689
q0 138 -60.5 189.5t-170.5 51.5q-69 0 -127.5 -20t-105.5 -69t-83.5 -131t-61.5 -209q-6 -27 -10 -53.5t-6 -50t-3 -45.5t-1 -42q0 -137 60.5 -189t169.5 -52q68 0 127 19.5t106 68.5t84 132t61 210q5 27 9.5 53.5t6.5 50.5t3.5 45.5t1.5 40.5zM855 1501l78 -82l-282 -246
l-58 62z" />
    <glyph glyph-name="ocircumflex" unicode="&#xf4;" horiz-adv-x="1080" 
d="M974 697q0 -42 -5 -90t-15 -105q-27 -147 -74 -247.5t-111 -163.5t-146.5 -91t-180.5 -28q-78 0 -141 17.5t-105.5 56t-66 102t-23.5 155.5q0 42 5 89.5t15 105.5q27 147 73.5 248t111 164t147 90t180.5 27q79 0 141 -17t105 -56t66.5 -102.5t23.5 -154.5zM855 689
q0 138 -60.5 189.5t-170.5 51.5q-69 0 -127.5 -20t-105.5 -69t-83.5 -131t-61.5 -209q-6 -27 -10 -53.5t-6 -50t-3 -45.5t-1 -42q0 -137 60.5 -189t169.5 -52q68 0 127 19.5t106 68.5t84 132t61 210q5 27 9.5 53.5t6.5 50.5t3.5 45.5t1.5 40.5zM733 1506l204 -257l-66 -68
l-161 190l-228 -188l-54 64z" />
    <glyph glyph-name="otilde" unicode="&#xf5;" horiz-adv-x="1080" 
d="M974 697q0 -42 -5 -90t-15 -105q-27 -147 -74 -247.5t-111 -163.5t-146.5 -91t-180.5 -28q-78 0 -141 17.5t-105.5 56t-66 102t-23.5 155.5q0 42 5 89.5t15 105.5q27 147 73.5 248t111 164t147 90t180.5 27q79 0 141 -17t105 -56t66.5 -102.5t23.5 -154.5zM855 689
q0 138 -60.5 189.5t-170.5 51.5q-69 0 -127.5 -20t-105.5 -69t-83.5 -131t-61.5 -209q-6 -27 -10 -53.5t-6 -50t-3 -45.5t-1 -42q0 -137 60.5 -189t169.5 -52q68 0 127 19.5t106 68.5t84 132t61 210q5 27 9.5 53.5t6.5 50.5t3.5 45.5t1.5 40.5zM379 1276q20 31 42.5 58.5
t49 49.5t57.5 34t66 12q38 0 66 -17.5t52 -38.5t46.5 -37.5t49.5 -16.5q37 0 70 30t61 75l63 -44q-18 -31 -41 -59t-50 -49.5t-58 -34t-66 -12.5q-39 0 -66 17t-51 37.5t-46.5 38.5t-51.5 18q-37 0 -70 -30t-62 -75z" />
    <glyph glyph-name="odieresis" unicode="&#xf6;" horiz-adv-x="1080" 
d="M974 697q0 -42 -5 -90t-15 -105q-27 -147 -74 -247.5t-111 -163.5t-146.5 -91t-180.5 -28q-78 0 -141 17.5t-105.5 56t-66 102t-23.5 155.5q0 42 5 89.5t15 105.5q27 147 73.5 248t111 164t147 90t180.5 27q79 0 141 -17t105 -56t66.5 -102.5t23.5 -154.5zM855 689
q0 138 -60.5 189.5t-170.5 51.5q-69 0 -127.5 -20t-105.5 -69t-83.5 -131t-61.5 -209q-6 -27 -10 -53.5t-6 -50t-3 -45.5t-1 -42q0 -137 60.5 -189t169.5 -52q68 0 127 19.5t106 68.5t84 132t61 210q5 27 9.5 53.5t6.5 50.5t3.5 45.5t1.5 40.5zM588 1374q0 -10 -1 -20
t-4 -21q-5 -22 -11.5 -37t-18.5 -23t-28.5 -11.5t-40.5 -3.5q-38 0 -55 9t-17 36q0 10 1.5 20t3.5 20q3 23 10.5 37.5t19.5 23t28.5 12t40.5 3.5q37 0 54.5 -9t17.5 -36zM985 1374q0 -10 -1 -20t-4 -21q-5 -22 -11.5 -37t-18.5 -23t-28.5 -11.5t-40.5 -3.5q-38 0 -55 9
t-17 36q0 10 1.5 20t3.5 20q3 23 10.5 37.5t19.5 23t28.5 12t40.5 3.5q37 0 54.5 -9t17.5 -36z" />
    <glyph glyph-name="divide" unicode="&#xf7;" 
d="M130 634h878l-19 -96h-877zM591 330q0 -16 -5 -41q-5 -24 -11.5 -39t-18 -23.5t-29 -12.5t-42.5 -4q-39 0 -56.5 11t-17.5 39q0 10 1 20t3 20q5 25 12.5 39.5t19 24t28.5 13t42 3.5q40 0 57 -11.5t17 -38.5zM706 913q0 -17 -4 -41q-5 -24 -12 -39t-19 -24t-28.5 -12.5
t-42.5 -3.5q-39 0 -56.5 11t-17.5 39q0 10 1 20t4 20q5 25 11.5 39.5t18.5 24t29 13t42 3.5q39 0 56.5 -11.5t17.5 -38.5z" />
    <glyph glyph-name="oslash" unicode="&#xf8;" horiz-adv-x="1087" 
d="M172 72q-25 32 -45.5 82t-20.5 147q0 42 5 90.5t15 106.5q27 147 74 248t111.5 164t147.5 90t182 27q76 0 124.5 -14t74.5 -30l117 159l80 -48l-120 -164q31 -42 47.5 -97.5t16.5 -133.5q0 -42 -5 -91t-15 -106q-27 -147 -74 -247.5t-111.5 -163.5t-147.5 -91t-182 -28
q-57 0 -110 11t-89 36l-128 -177l-80 51zM305 104q30 -23 67 -31.5t89 -8.5q71 0 131.5 19.5t109 68.5t86 133.5t62.5 213.5q11 54 15 99.5t5 82.5q0 41 -5 77t-20 73zM782 896q-25 20 -59.5 30t-95.5 10q-72 0 -132 -20.5t-108 -70t-85.5 -133t-64.5 -211.5
q-11 -54 -15 -99.5t-4 -82.5q-1 -40 4 -78t19 -71z" />
    <glyph glyph-name="ugrave" unicode="&#xf9;" horiz-adv-x="1158" 
d="M393 1000l-125 -657q-7 -30 -10 -57.5t-3 -50.5q0 -81 38 -118.5t121 -37.5q93 0 193.5 54.5t201.5 158.5l136 708h119l-194 -1000h-98l17 156q-38 -35 -83.5 -67t-97.5 -56t-110 -38.5t-119 -14.5q-125 0 -185 58.5t-60 176.5q0 27 4 56.5t10 63.5l128 665h117z
M624 1522l190 -287l-71 -55l-211 274z" />
    <glyph glyph-name="uacute" unicode="&#xfa;" horiz-adv-x="1158" 
d="M393 1000l-125 -657q-7 -30 -10 -57.5t-3 -50.5q0 -81 38 -118.5t121 -37.5q93 0 193.5 54.5t201.5 158.5l136 708h119l-194 -1000h-98l17 156q-38 -35 -83.5 -67t-97.5 -56t-110 -38.5t-119 -14.5q-125 0 -185 58.5t-60 176.5q0 27 4 56.5t10 63.5l128 665h117z
M918 1501l78 -82l-282 -246l-58 62z" />
    <glyph glyph-name="ucircumflex" unicode="&#xfb;" horiz-adv-x="1158" 
d="M393 1000l-125 -657q-7 -30 -10 -57.5t-3 -50.5q0 -81 38 -118.5t121 -37.5q93 0 193.5 54.5t201.5 158.5l136 708h119l-194 -1000h-98l17 156q-38 -35 -83.5 -67t-97.5 -56t-110 -38.5t-119 -14.5q-125 0 -185 58.5t-60 176.5q0 27 4 56.5t10 63.5l128 665h117z
M769 1506l204 -257l-66 -68l-161 190l-228 -188l-54 64z" />
    <glyph glyph-name="udieresis" unicode="&#xfc;" horiz-adv-x="1158" 
d="M393 1000l-125 -657q-7 -30 -10 -57.5t-3 -50.5q0 -81 38 -118.5t121 -37.5q93 0 193.5 54.5t201.5 158.5l136 708h119l-194 -1000h-98l17 156q-38 -35 -83.5 -67t-97.5 -56t-110 -38.5t-119 -14.5q-125 0 -185 58.5t-60 176.5q0 27 4 56.5t10 63.5l128 665h117z
M633 1374q0 -10 -1 -20t-4 -21q-5 -22 -11.5 -37t-18.5 -23t-28.5 -11.5t-40.5 -3.5q-38 0 -55 9t-17 36q0 10 1.5 20t3.5 20q3 23 10.5 37.5t19.5 23t28.5 12t40.5 3.5q37 0 54.5 -9t17.5 -36zM1030 1374q0 -10 -1 -20t-4 -21q-5 -22 -11.5 -37t-18.5 -23t-28.5 -11.5
t-40.5 -3.5q-38 0 -55 9t-17 36q0 10 1.5 20t3.5 20q3 23 10.5 37.5t19.5 23t28.5 12t40.5 3.5q37 0 54.5 -9t17.5 -36z" />
    <glyph glyph-name="yacute" unicode="&#xfd;" horiz-adv-x="932" 
d="M134 1000h122l88 -558q8 -51 13 -92.5t10 -81.5t9 -80t10 -88h2q23 48 43.5 88t40.5 80t41.5 82.5t48.5 91.5l306 558h125l-643 -1164q-50 -89 -93 -146.5t-84.5 -90t-88 -45t-103.5 -12.5q-31 0 -58.5 3.5t-58.5 11.5l18 92q26 -4 51 -7t54 -3q32 0 61 7t59 28t61.5 62
t69.5 107l88 157h-33zM805 1501l78 -82l-282 -246l-58 62z" />
    <glyph glyph-name="thorn" unicode="&#xfe;" horiz-adv-x="1111" 
d="M388 1511h118l-79 -405q-14 -70 -26.5 -128.5t-28.5 -124.5l2 -2q37 32 79.5 62.5t90 54.5t99.5 38t104 14q122 0 192 -79.5t70 -235.5q0 -161 -39.5 -295t-112 -230t-171.5 -148t-219 -52q-74 0 -137.5 21.5t-110.5 53.5l-4 -2q-9 -68 -19 -130.5t-23 -122.5l-45 -240
h-118zM242 158q54 -37 108.5 -59t125.5 -22q91 0 168 47.5t130.5 130.5t83.5 194.5t30 239.5q0 114 -44 173t-129 59q-79 0 -171.5 -54t-193.5 -158z" />
    <glyph glyph-name="ydieresis" unicode="&#xff;" horiz-adv-x="932" 
d="M134 1000h122l88 -558q8 -51 13 -92.5t10 -81.5t9 -80t10 -88h2q23 48 43.5 88t40.5 80t41.5 82.5t48.5 91.5l306 558h125l-643 -1164q-50 -89 -93 -146.5t-84.5 -90t-88 -45t-103.5 -12.5q-31 0 -58.5 3.5t-58.5 11.5l18 92q26 -4 51 -7t54 -3q32 0 61 7t59 28t61.5 62
t69.5 107l88 157h-33zM522 1374q0 -10 -1 -20t-4 -21q-5 -22 -11.5 -37t-18.5 -23t-28.5 -11.5t-40.5 -3.5q-38 0 -55 9t-17 36q0 10 1.5 20t3.5 20q3 23 10.5 37.5t19.5 23t28.5 12t40.5 3.5q37 0 54.5 -9t17.5 -36zM919 1374q0 -10 -1 -20t-4 -21q-5 -22 -11.5 -37
t-18.5 -23t-28.5 -11.5t-40.5 -3.5q-38 0 -55 9t-17 36q0 10 1.5 20t3.5 20q3 23 10.5 37.5t19.5 23t28.5 12t40.5 3.5q37 0 54.5 -9t17.5 -36z" />
    <glyph glyph-name="OE" unicode="&#x152;" horiz-adv-x="1711" 
d="M1034 1329q-36 11 -81.5 16t-108.5 5q-101 0 -183.5 -31.5t-150 -107t-119 -199t-88.5 -304.5q-9 -42 -15 -82t-10 -76.5t-6.5 -71t-2.5 -66.5q0 -95 20.5 -159t60 -104.5t98.5 -58t135 -17.5q68 0 118 5.5t95 16.5zM821 0q-49 -11 -111.5 -19.5t-140.5 -8.5
q-102 0 -181.5 23.5t-133 74.5t-80.5 133t-27 199q0 75 8.5 147.5t25.5 161.5q40 208 102 349t146 228t190.5 125t237.5 38q80 0 142.5 -7.5t115.5 -20.5h663l-21 -99h-603l-105 -535h558l-19 -98h-558l-115 -591h605l-18 -100h-681z" />
    <glyph glyph-name="oe" unicode="&#x153;" horiz-adv-x="1671" 
d="M855 689q0 138 -60.5 189.5t-170.5 51.5q-69 0 -127 -20t-105.5 -69t-84 -131t-61.5 -209q-6 -27 -10 -53.5t-6 -50t-3 -46.5t-1 -42q0 -69 15 -115t45 -74t72 -39.5t98 -11.5q68 0 127 19.5t106 68.5t84 132t61 210q5 27 9.5 53.5t6.5 50.5t3.5 45.5t1.5 40.5zM1452 29
q-67 -23 -146 -35.5t-164 -12.5q-151 0 -220.5 53.5t-89.5 153.5q-27 -45 -62 -83.5t-81.5 -68.5t-108 -47t-138.5 -17q-78 0 -141 17.5t-105.5 56t-66 101.5t-23.5 154q0 42 5 90.5t15 106.5q27 147 73.5 248t112 164t147 90t179.5 27q76 0 129.5 -17t90.5 -46.5t58 -72
t29 -94.5q63 117 161 173.5t231 56.5q139 0 214.5 -59.5t75.5 -165.5q0 -88 -41.5 -151.5t-126 -106t-212 -62.5t-299.5 -20q-6 -30 -12.5 -78t-6.5 -86q0 -124 56 -172.5t172 -48.5q73 0 146.5 11.5t142.5 33.5zM965 551q277 0 410.5 55.5t133.5 182.5q0 66 -46 104
t-144 38q-63 0 -117.5 -20t-99 -64.5t-80 -117.5t-57.5 -178z" />
    <glyph glyph-name="Ydieresis" unicode="&#x178;" horiz-adv-x="1033" 
d="M469 570l-278 853h122l154 -464q14 -42 24 -76t20 -64.5t19.5 -61.5t20.5 -68h3q24 37 46 70t43.5 64.5t44.5 65t51 72.5l330 462h132l-611 -853l-111 -570h-120zM597 1721q0 -10 -1 -20t-4 -21q-5 -22 -12 -36.5t-18.5 -23.5t-28 -12t-41.5 -3q-38 0 -55.5 9.5
t-17.5 36.5q0 10 1.5 20t3.5 21q3 22 11 36t19.5 23.5t28 13t41.5 3.5q38 0 55.5 -10t17.5 -37zM1077 1721q0 -10 -1 -20t-4 -21q-5 -22 -12 -36.5t-18.5 -23.5t-28 -12t-41.5 -3q-38 0 -55.5 9.5t-17.5 36.5q0 10 2 20t4 21q3 22 10.5 36t19 23.5t28 13t41.5 3.5
q38 0 55.5 -10t17.5 -37z" />
    <glyph glyph-name="apostrophe" unicode="&#x2bc;" horiz-adv-x="410" 
d="M333 1185q36 52 60.5 90.5t48.5 80.5q-12 5 -20 14.5t-8 26.5q0 9 1 19t3 19q9 40 27 56t64 16q39 0 52.5 -12t13.5 -35q0 -27 -4 -44.5t-12 -37.5q-8 -18 -28 -46t-45 -60t-53 -63.5t-52 -57.5z" />
    <glyph glyph-name="tilde" unicode="&#x2dc;" horiz-adv-x="1198" 
d="M447 1276q20 31 42.5 58.5t49 49.5t57.5 34t66 12q38 0 66 -17.5t52 -38.5t46.5 -37.5t49.5 -16.5q37 0 70 30t61 75l63 -44q-18 -31 -41 -59t-50 -49.5t-58 -34t-66 -12.5q-39 0 -66 17t-51 37.5t-46.5 38.5t-51.5 18q-37 0 -70 -30t-62 -75z" />
    <glyph glyph-name="endash" unicode="&#x2013;" 
d="M20 589h1063l-20 -103h-1062z" />
    <glyph glyph-name="emdash" unicode="&#x2014;" horiz-adv-x="2048" 
d="M167 589h1734l-20 -103h-1734z" />
    <glyph glyph-name="quoteleft" unicode="&#x2018;" horiz-adv-x="413" 
d="M543 1514q-42 -61 -72 -110t-59 -100q11 -4 19.5 -16t8.5 -31q0 -9 -1 -19.5t-3 -18.5q-5 -23 -12.5 -39t-19 -26t-30 -15t-44.5 -5q-42 0 -60 12.5t-18 39.5q0 28 4 52.5t16 45.5q11 26 36 60t55 71t62.5 72.5t59.5 62.5z" />
    <glyph glyph-name="quoteright" unicode="&#x2019;" horiz-adv-x="413" 
d="M222 1152q41 61 71.5 110t60.5 99q-12 5 -20.5 17t-8.5 30q0 10 1 20.5t4 18.5q4 23 11.5 39t19 26.5t30 15t45.5 4.5q41 0 59 -13t18 -39q0 -29 -4 -53.5t-15 -44.5q-12 -27 -37 -60.5t-55 -70.5t-62.5 -72t-59.5 -64z" />
    <glyph glyph-name="quotedblleft" unicode="&#x201c;" horiz-adv-x="727" 
d="M857 1514q-42 -61 -72 -110t-60 -100q11 -4 20 -16t9 -31q0 -9 -1 -19.5t-4 -18.5q-5 -23 -12.5 -39t-18.5 -26t-29.5 -15t-45.5 -5q-41 0 -59 12.5t-18 39.5q0 28 4 52.5t15 45.5q12 26 37 60t55 71t62 72.5t60 62.5zM543 1514q-42 -61 -72 -110t-59 -100
q11 -4 19.5 -16t8.5 -31q0 -9 -1 -19.5t-3 -18.5q-5 -23 -12.5 -39t-19 -26t-30 -15t-44.5 -5q-42 0 -60 12.5t-18 39.5q0 28 4 52.5t16 45.5q11 26 36 60t55 71t62.5 72.5t59.5 62.5z" />
    <glyph glyph-name="quotedblright" unicode="&#x201d;" horiz-adv-x="727" 
d="M535 1152q42 61 72.5 110t58.5 99q-10 5 -18.5 17t-8.5 30q0 10 1 20.5t3 18.5q5 23 12 39t19 26.5t30 15t45 4.5q42 0 59.5 -13t17.5 -39q0 -29 -4 -53.5t-15 -44.5q-11 -27 -36 -60.5t-55.5 -70.5t-62.5 -72t-60 -64zM222 1152q41 61 71.5 110t60.5 99q-12 5 -20.5 17
t-8.5 30q0 10 1 20.5t4 18.5q4 23 11.5 39t19 26.5t30 15t45.5 4.5q41 0 59 -13t18 -39q0 -29 -4 -53.5t-15 -44.5q-12 -27 -37 -60.5t-55 -70.5t-62.5 -72t-59.5 -64z" />
    <glyph glyph-name="quotedblbase" unicode="&#x201e;" horiz-adv-x="750" 
d="M-47 -214q42 60 72 109.5t59 99.5q-11 4 -19 16t-8 31q0 10 1 20t3 18q5 24 12 40t18.5 26t30 14.5t45.5 4.5q41 0 59 -12.5t18 -39.5q0 -28 -4.5 -52.5t-14.5 -45.5q-11 -26 -36 -60t-55.5 -71t-63 -72t-59.5 -64zM267 -214q41 60 71 109.5t60 99.5q-11 4 -19.5 16
t-8.5 31q0 10 1 20t3 18q6 24 13 40t18 26t29.5 14.5t46.5 4.5q40 0 58.5 -12.5t18.5 -39.5q0 -28 -4.5 -52.5t-14.5 -45.5q-12 -26 -37 -60t-55 -71t-62.5 -72t-60.5 -64z" />
    <glyph glyph-name="bullet" unicode="&#x2022;" horiz-adv-x="768" 
d="M583 805q0 -18 -1 -34t-6 -35q-8 -39 -19.5 -66t-30.5 -44t-49 -25.5t-73 -8.5q-66 0 -96.5 19.5t-30.5 67.5q0 19 1.5 34.5t5.5 34.5q8 39 20 66t30.5 44t48.5 25t73 8q67 0 97 -20t30 -66z" />
    <glyph glyph-name="ellipsis" unicode="&#x2026;" horiz-adv-x="1332" 
d="M237 117q0 -12 -1 -23t-3 -21q-5 -24 -13 -41t-19.5 -27t-31 -15t-46.5 -5q-44 0 -63 11.5t-19 39.5q0 12 1.5 22.5t3.5 21.5q5 24 13 41t19.5 27t30.5 15t47 5q43 0 62 -11.5t19 -39.5zM680 117q0 -12 -1 -23t-3 -21q-5 -24 -13 -41t-19.5 -27t-30.5 -15t-47 -5
q-43 0 -62 11.5t-19 39.5q0 12 1 22.5t3 21.5q5 24 13 41t19.5 27t31 15t46.5 5q43 0 62 -11.5t19 -39.5zM1125 117q0 -12 -1 -23t-3 -21q-5 -24 -13 -41t-19.5 -27t-30.5 -15t-47 -5q-44 0 -63 11.5t-19 39.5q0 12 1.5 22.5t3.5 21.5q5 24 13 41t19.5 27t30.5 15t47 5
q43 0 62 -11.5t19 -39.5z" />
    <glyph glyph-name="guilsinglleft" unicode="&#x2039;" horiz-adv-x="541" 
d="M76 512l361 427l86 -57l-309 -383l157 -390l-98 -47z" />
    <glyph glyph-name="guilsinglright" unicode="&#x203a;" horiz-adv-x="541" 
d="M327 501l-157 389l98 48l197 -451l-361 -426l-85 57z" />
    <glyph glyph-name="Euro" unicode="&#x20ac;" 
d="M321 920q46 147 106.5 248t136 162.5t164.5 89t195 27.5q77 0 141 -11t117 -27l-28 -96q-54 16 -114 25.5t-130 9.5q-75 0 -143.5 -22t-127.5 -72t-109 -132.5t-88 -201.5h471l-19 -92h-482q-7 -31 -13 -57.5t-13 -60.5q-5 -28 -9.5 -58.5t-8.5 -50.5h481l-18 -92h-473
q-3 -28 -4.5 -53t-1.5 -49q1 -98 22.5 -162.5t59 -101.5t93 -53t125.5 -16q68 0 133 11.5t131 29.5l7 -99q-68 -15 -139 -28.5t-150 -13.5q-94 0 -169 22t-125.5 73t-78 132.5t-27.5 197.5q0 25 1 52.5t5 57.5h-163l18 92h155q3 22 8.5 54t12.5 58q7 33 12.5 58t12.5 57
h-157l20 92h163z" />
    <glyph glyph-name="trademark" unicode="&#x2122;" horiz-adv-x="1574" 
d="M400 1341h-231l16 82h549l-17 -82h-218l-123 -628h-99zM888 1423h156l40 -415l16 -226l107 226l202 415h154l-77 -710h-97l53 461l22 174l-79 -169l-227 -466h-138l-47 459l-15 176l-44 -174l-130 -461h-96z" />
    <glyph glyph-name="dotlessi" horiz-adv-x="501" 
d="M288 1000h119l-194 -1000h-118z" />
    <glyph glyph-name="grave.cap" horiz-adv-x="782" 
d="M486 1832l318 -182l-43 -78l-333 163z" />
    <glyph glyph-name="acute.cap" horiz-adv-x="767" 
d="M776 1821l40 -98l-360 -148l-34 76z" />
    <glyph glyph-name="circumflex" horiz-adv-x="1048" 
d="M729 1506l204 -257l-66 -68l-161 190l-228 -188l-54 64z" />
    <glyph glyph-name="circumflex.cap" horiz-adv-x="1048" 
d="M795 1822l240 -168l-53 -78l-208 129l-255 -129l-36 78z" />
    <glyph glyph-name="dieresis.narrow" horiz-adv-x="1059" 
d="M616 1374q0 -10 -1 -20t-3 -21q-5 -22 -11.5 -37t-18.5 -23t-28.5 -11.5t-40.5 -3.5q-38 0 -55 9t-17 36q0 10 1.5 20t3.5 20q3 23 10.5 37.5t19.5 23t28.5 12t40.5 3.5q37 0 54 -9.5t17 -35.5zM943 1374q0 -10 -1 -20t-4 -21q-4 -22 -11 -37t-19 -23t-28 -11.5t-40 -3.5
q-37 0 -54.5 9t-17.5 36q0 10 1 20t4 20q3 23 10.5 37.5t19.5 23t28 12t40 3.5q38 0 55 -9.5t17 -35.5z" />
    <glyph glyph-name="dieresis.cap" horiz-adv-x="1058" 
d="M603 1721q0 -10 -1 -20t-4 -21q-5 -22 -12 -36.5t-18.5 -23.5t-28 -12t-41.5 -3q-38 0 -55.5 9.5t-17.5 36.5q0 10 1.5 20t3.5 21q3 22 11 36t19.5 23.5t28 13t41.5 3.5q38 0 55.5 -10t17.5 -37zM1083 1721q0 -10 -1 -20t-4 -21q-5 -22 -12 -36.5t-18.5 -23.5t-28 -12
t-41.5 -3q-38 0 -55.5 9.5t-17.5 36.5q0 10 2 20t4 21q3 22 10.5 36t19 23.5t28 13t41.5 3.5q38 0 55.5 -10t17.5 -37z" />
    <glyph glyph-name="dieresis.narrow.cap" horiz-adv-x="1058" 
d="M1028 1721q0 -10 -1 -20t-3 -21q-5 -22 -11.5 -36.5t-18 -23.5t-28.5 -12t-42 -3q-38 0 -55 9.5t-17 36.5q0 10 1 20t3 21q3 22 10.5 36t19.5 23.5t29 13t41 3.5q39 0 55.5 -10t16.5 -37zM656 1721q0 -10 -1 -20t-3 -21q-5 -22 -11.5 -36.5t-18.5 -23.5t-28.5 -12
t-41.5 -3q-39 0 -55.5 9.5t-16.5 36.5q0 10 1 20t3 21q4 22 11.5 36t19 23.5t28 13t41.5 3.5q38 0 55 -10t17 -37z" />
    <glyph glyph-name="tilde.cap" horiz-adv-x="1200" 
d="M505 1655q40 46 93.5 79t123.5 33q38 0 66 -12.5t53 -26t50 -25.5t54 -12q42 0 77.5 20.5t67.5 51.5l51 -55q-38 -46 -91.5 -79t-123.5 -33q-37 0 -66 12t-54.5 26t-50 26t-53.5 12q-42 0 -77.5 -21t-67.5 -51z" />
    <glyph glyph-name="ring" horiz-adv-x="783" 
d="M825 1357q0 -49 -16.5 -88.5t-45.5 -67.5t-67.5 -43.5t-84.5 -15.5q-84 0 -138 52.5t-54 135.5q0 48 16.5 88t44.5 68t67.5 43.5t83.5 15.5q87 0 140.5 -53t53.5 -135zM738 1358q0 49 -27 79.5t-83 30.5t-88.5 -35t-32.5 -103q0 -50 26.5 -81t80.5 -31q58 0 91 36t33 104
z" />
    <glyph glyph-name="ring.cap" horiz-adv-x="780" 
d="M753 1706q0 -46 -16.5 -83.5t-45.5 -65t-69.5 -42t-87.5 -14.5q-41 0 -77 13t-63 36t-41.5 55.5t-14.5 74.5q0 45 15.5 83t45 65t69 41.5t85.5 14.5q86 0 143 -47.5t57 -130.5zM664 1701q0 52 -29 79.5t-85 27.5t-90.5 -32t-34.5 -91q0 -53 30 -80t82 -27q59 0 93 32
t34 91z" />
    <glyph glyph-name="zeroinferior" horiz-adv-x="661" 
d="M573 507q0 -34 -3.5 -71.5t-14.5 -84.5q-22 -107 -53 -178t-71.5 -113.5t-90.5 -59.5t-109 -17q-45 0 -82 11.5t-65 38t-42 69t-14 104.5q0 33 4 70.5t14 84.5q20 108 52 178.5t72.5 113t90.5 60t108 17.5q46 0 83.5 -11.5t64.5 -38.5t41.5 -69.5t14.5 -103.5zM473 505
q0 83 -32 113t-83 30q-34 0 -65.5 -12.5t-58 -45.5t-49 -89.5t-39.5 -145.5q-9 -44 -13.5 -80.5t-4.5 -66.5q0 -83 32 -113t83 -30q33 0 65 13t58 45t49 89t40 145q10 44 14 80.5t4 67.5z" />
    <glyph glyph-name="oneinferior" horiz-adv-x="412" 
d="M202 588l-143 -69l-31 66l216 128h81l-137 -713h-100z" />
    <glyph glyph-name="twoinferior" horiz-adv-x="544" 
d="M-40 72l208 194q83 75 138.5 144t55.5 136q0 42 -28.5 67.5t-82.5 25.5q-35 0 -70 -5.5t-76 -15.5l-9 79q47 14 93.5 20.5t93.5 6.5q90 0 143 -42t53 -116q0 -50 -17.5 -95t-48.5 -86t-71 -80t-87 -79l-155 -139h304l-17 -87h-440z" />
    <glyph glyph-name="threeinferior" horiz-adv-x="524" 
d="M-35 87q34 -8 71 -12t70 -4q84 0 136.5 40.5t52.5 115.5q0 26 -9.5 47t-32 36t-59.5 22t-92 7l16 79q100 0 162 38.5t62 107.5q0 37 -28.5 57.5t-84.5 20.5q-34 0 -61 -4.5t-64 -14.5l-10 79q44 11 81 16.5t78 5.5q90 0 143.5 -37.5t53.5 -106.5q0 -44 -15.5 -77.5
t-39 -57t-52.5 -39.5t-57 -25q54 -10 87 -50.5t33 -97.5q0 -56 -23.5 -101t-64 -76.5t-95 -49t-115.5 -17.5q-44 0 -84.5 4t-76.5 12z" />
    <glyph glyph-name="fourinferior" horiz-adv-x="559" 
d="M275 151h-315l19 90l362 472h143l-94 -476h91l-17 -86h-90l-28 -151h-98zM292 237l74 376l-291 -376h217z" />
    <glyph glyph-name="fraction" horiz-adv-x="1036" 
d="M1130 1461l72 -57l-1213 -1440l-72 57z" />
    </font>
</defs>
</svg>
