<?xml version="1.0" standalone="no"?>
<!DOCTYPE svg PUBLIC "-//W3C//DTD SVG 1.1//EN" "http://www.w3.org/Graphics/SVG/1.1/DTD/svg11.dtd" >
<svg>
<metadata>
Created by FontForge 20120731 at Wed Jun 17 21:35:19 2015
 By ,,,
Copyright (c) 2006-2010 by Jan Fromm. All rights reserved.
</metadata>
<defs>
<font id="5afd833e9da12ebf9ce4a6b869ead20a4463b5a89c974d652c2fb0cd8130cf2" horiz-adv-x="1085" >
  <font-face 
    font-family="5afd833e9da12ebf9ce4a6b869ead20a4463b5a89c974d652c2fb0cd8130cf23"
    font-weight="300"
    font-stretch="normal"
    units-per-em="2048"
    panose-1="2 11 2 3 4 3 2 2 2 3"
    ascent="1659"
    descent="-389"
    x-height="995"
    cap-height="1423"
    bbox="-117 -471 1915 1864"
    underline-thickness="200"
    underline-position="-50"
    unicode-range="U+0020-2122"
  />
<missing-glyph 
d="M356 719q-16 0 -16 -21q0 -20 16 -20h74v-238q0 -65 -51 -65q-23 0 -31 4t-16 4q-17 0 -17 -21q0 -14 11 -18q10 -4 23 -6t26 -2q106 0 106 104v246q0 33 -32 33h-93zM561 360q0 -20 25 -20q26 0 26 20v152h142q14 0 14 20q0 21 -14 21h-142v125h158q16 0 16 20
q0 21 -16 21h-174q-35 0 -35 -33v-326zM197 539q0 73 26.5 137.5t72.5 111t109.5 73t137.5 26.5q73 0 137.5 -26.5t111 -73t73 -111t26.5 -137.5q0 -74 -26.5 -137.5t-73 -109.5t-111 -72.5t-137.5 -26.5q-74 0 -137.5 26.5t-109.5 72.5t-72.5 109.5t-26.5 137.5z" />
    <glyph glyph-name=".notdef" 
d="M356 719q-16 0 -16 -21q0 -20 16 -20h74v-238q0 -65 -51 -65q-23 0 -31 4t-16 4q-17 0 -17 -21q0 -14 11 -18q10 -4 23 -6t26 -2q106 0 106 104v246q0 33 -32 33h-93zM561 360q0 -20 25 -20q26 0 26 20v152h142q14 0 14 20q0 21 -14 21h-142v125h158q16 0 16 20
q0 21 -16 21h-174q-35 0 -35 -33v-326zM197 539q0 73 26.5 137.5t72.5 111t109.5 73t137.5 26.5q73 0 137.5 -26.5t111 -73t73 -111t26.5 -137.5q0 -74 -26.5 -137.5t-73 -109.5t-111 -72.5t-137.5 -26.5q-74 0 -137.5 26.5t-109.5 72.5t-72.5 109.5t-26.5 137.5z" />
    <glyph glyph-name=".null" horiz-adv-x="0" 
 />
    <glyph glyph-name="nonmarkingreturn" horiz-adv-x="682" 
 />
    <glyph glyph-name="space" unicode=" " horiz-adv-x="543" 
 />
    <glyph glyph-name="space" unicode="&#xa0;" horiz-adv-x="543" 
 />
    <glyph glyph-name="exclam" unicode="!" horiz-adv-x="565" 
d="M242 1511h82l-5 -1169h-73zM358 59q0 -22 -3 -35.5t-11 -22.5t-23.5 -12t-37.5 -3q-47 0 -61.5 15t-14.5 58q0 21 3 35.5t11 23.5t23.5 12t38.5 3q45 0 60 -15.5t15 -58.5z" />
    <glyph glyph-name="quotedbl" unicode="&#x22;" horiz-adv-x="598" 
d="M129 1511h92l-14 -350h-64zM377 1511h92l-14 -350h-64z" />
    <glyph glyph-name="numbersign" unicode="#" 
d="M272 451h-227v65h242l88 412h-228v65h242l92 430h70l-92 -430h293l92 430h69l-92 -430h221v-65h-235l-90 -412h223v-65h-235l-99 -451h-69l98 451h-293l-98 -451h-70zM647 516l90 412h-293l-88 -412h291z" />
    <glyph glyph-name="dollar" unicode="$" 
d="M612 1599v-225q42 0 80.5 -3t74 -8t69 -13t67.5 -17l-12 -63q-68 18 -142.5 28.5t-154.5 10.5q-89 0 -153.5 -18t-106.5 -51t-62 -79t-20 -102q0 -55 11.5 -96t47 -77.5t100.5 -74.5t173 -86q114 -51 188 -92.5t117 -84.5t59.5 -94t16.5 -122q0 -60 -20 -116.5
t-64 -102.5t-115 -77.5t-174 -41.5v-234h-78v232q-87 0 -170 13.5t-164 35.5l10 65q79 -21 165.5 -35t179.5 -14q86 0 151.5 19.5t110 55t67.5 85.5t23 111q0 54 -11.5 94.5t-47.5 77t-103.5 75t-179.5 89.5q-109 49 -180.5 89.5t-114 83.5t-59.5 94t-17 122q0 52 17 105.5
t58 98t111 75t175 38.5v229h77z" />
    <glyph glyph-name="percent" unicode="%" horiz-adv-x="1511" 
d="M1198 1452l57 -35l-954 -1446l-58 35zM578 1069q0 -112 -16.5 -185t-49.5 -115t-79 -58t-103 -16q-60 0 -105 15t-77.5 57t-49 114t-16.5 184q0 113 17.5 185.5t50 114.5t78.5 58.5t106 16.5q57 0 103 -15.5t77 -57.5t47.5 -113.5t16.5 -184.5zM504 1065q0 99 -12.5 160
t-35 95t-54 46.5t-70.5 12.5q-41 0 -74 -11.5t-55.5 -45t-34.5 -94t-12 -159.5q0 -98 12 -159.5t35.5 -95t55.5 -46t73 -12.5t72.5 11.5t54 45t34 94t11.5 158.5zM1430 358q0 -112 -16.5 -185t-49.5 -115t-79 -58t-103 -16q-60 0 -105 15t-77.5 57t-49 114t-16.5 184
q0 113 17.5 185.5t50 114.5t78.5 58.5t106 16.5q57 0 103 -15.5t77 -57.5t47.5 -113.5t16.5 -184.5zM1356 354q0 99 -12.5 160t-35 95t-54 46.5t-70.5 12.5q-41 0 -74 -11.5t-55.5 -45t-34.5 -94t-12 -159.5q0 -98 12 -159.5t35.5 -95t55.5 -46t73 -12.5t72.5 11.5t54 45
t34 94t11.5 158.5z" />
    <glyph glyph-name="ampersand" unicode="&#x26;" horiz-adv-x="1223" 
d="M958 211q-81 -109 -195 -173.5t-251 -64.5q-102 0 -178 29t-126 78t-76 114.5t-26 141.5t20.5 137.5t59.5 115.5t95.5 103t126.5 101q-41 43 -80 89t-70 99t-50.5 112.5t-19.5 129.5q0 147 85 231t245 84q156 0 238 -76t82 -207q0 -77 -27 -141.5t-71 -121t-101 -106.5
t-121 -95l436 -459q41 78 68 178t31 229h73q-6 -143 -38.5 -255.5t-86.5 -204.5l236 -246l-57 -53zM453 745q-60 -45 -110 -88t-86 -91t-55.5 -102t-19.5 -122q0 -63 20.5 -118.5t62.5 -97.5t105.5 -65.5t147.5 -23.5q121 0 219.5 60.5t173.5 164.5zM762 1249
q0 107 -62.5 166.5t-187.5 59.5q-129 0 -188.5 -69t-59.5 -177q0 -62 18.5 -116t48 -102t66.5 -91t74 -82q57 43 110.5 87t93.5 94t63.5 106.5t23.5 123.5z" />
    <glyph glyph-name="quotesingle" unicode="'" horiz-adv-x="350" 
d="M129 1511h92l-14 -350h-64z" />
    <glyph glyph-name="parenleft" unicode="(" horiz-adv-x="553" 
d="M432 -354q-121 204 -197.5 442t-76.5 526q0 289 76.5 527.5t197.5 445.5l60 -33q-54 -96 -100 -203.5t-81 -225t-54 -246.5t-19 -265q0 -135 19 -262t54 -244.5t81 -225t100 -204.5z" />
    <glyph glyph-name="parenright" unicode=")" horiz-adv-x="553" 
d="M61 -322q54 97 100 204.5t80.5 225t54 244.5t19.5 262q0 136 -19.5 265t-54 246.5t-80.5 225t-100 203.5l60 33q59 -104 109.5 -214.5t87 -230.5t57 -252t20.5 -276q0 -145 -20.5 -276t-57 -251t-87 -229.5t-109.5 -211.5z" />
    <glyph glyph-name="asterisk" unicode="*" horiz-adv-x="815" 
d="M387 1176l-229 -154l-39 68l248 120l-248 123l39 68l229 -156l-18 266h77l-18 -266l229 156l39 -68l-247 -121l247 -122l-39 -68l-229 154l18 -265h-77z" />
    <glyph glyph-name="plus" unicode="+" 
d="M98 618h406v422h74v-422h409v-65h-409v-426h-74v426h-406v65z" />
    <glyph glyph-name="comma" unicode="," horiz-adv-x="434" 
d="M59 -223q39 65 63.5 112.5t53.5 100.5q-10 2 -16 7t-10.5 13t-6.5 19.5t-2 29.5q0 21 3 35.5t11.5 23.5t24 12t37.5 3q23 0 38 -3t23.5 -12t11.5 -23.5t3 -35.5q0 -24 -2 -40.5t-12 -32.5q-15 -27 -35.5 -56.5t-44 -60.5t-48 -61.5t-49.5 -59.5z" />
    <glyph glyph-name="hyphen" unicode="-" horiz-adv-x="936" 
d="M193 567h550v-63h-550v63z" />
    <glyph glyph-name="period" unicode="." horiz-adv-x="434" 
d="M293 59q0 -22 -3 -35.5t-11.5 -22.5t-23.5 -12t-38 -3q-22 0 -37.5 3t-24 12t-11.5 22.5t-3 35.5q0 21 3 35.5t11.5 23.5t24 12t37.5 3q23 0 38 -3t23.5 -12t11.5 -23.5t3 -35.5z" />
    <glyph glyph-name="slash" unicode="/" horiz-adv-x="760" 
d="M664 1511h79l-680 -1742h-79z" />
    <glyph glyph-name="zero" unicode="0" 
d="M973 719q0 -150 -12.5 -264t-37.5 -197t-62 -138t-85.5 -87.5t-108.5 -46t-130 -13.5q-71 0 -130 12.5t-106 44t-82 84.5t-58.5 134.5t-35.5 194.5t-12 264q0 150 12.5 264t37.5 196.5t62 137t85.5 87t108 45.5t130.5 13q70 0 129 -12.5t106 -43.5t82.5 -84t59 -134
t35.5 -194t12 -263zM897 713q0 142 -10.5 246.5t-30.5 179.5t-50 122.5t-69.5 74.5t-88 37.5t-105.5 10.5t-106 -10.5t-88.5 -37.5t-69.5 -74.5t-50 -122.5t-30.5 -179.5t-10.5 -246.5t10.5 -247t30.5 -180t50 -123t69.5 -75.5t88 -38t106.5 -10.5q57 0 105.5 10.5t88 38
t69.5 75.5t50 123t30.5 180t10.5 247z" />
    <glyph glyph-name="one" unicode="1" 
d="M176 68h356v1259l-313 -147l-26 53l354 190h61v-1355h305v-68h-737v68z" />
    <glyph glyph-name="two" unicode="2" 
d="M131 45l469 610q41 53 81 108.5t72 114t52 121.5t20 131q0 64 -18 111t-55 78t-94.5 46t-135.5 15q-43 0 -84 -3.5t-81 -9.5t-79 -14.5t-77 -19.5l-11 64q39 10 80.5 19t84 16t86 10.5t87.5 3.5q94 0 164 -18.5t116.5 -57t69.5 -97t23 -138.5q0 -76 -19.5 -144
t-53 -131.5t-78 -124.5t-93.5 -123l-430 -544h713v-68h-809v45z" />
    <glyph glyph-name="three" unicode="3" 
d="M143 78q44 -9 83 -15.5t76 -11t73.5 -6.5t75.5 -2q97 0 169.5 25.5t121 72.5t72.5 114.5t24 150.5q0 84 -26.5 147t-86 105t-155.5 62.5t-236 20.5v66q125 0 213.5 28.5t145 75.5t82.5 107t26 123q0 64 -18 109.5t-55.5 74.5t-94.5 42t-135 13q-79 0 -155.5 -12.5
t-158.5 -34.5l-10 64q85 23 164 36t166 13q89 0 158.5 -16t117 -51.5t72.5 -92.5t25 -139q0 -75 -25.5 -135t-67.5 -105t-96.5 -75.5t-112.5 -47.5q61 -7 121.5 -29t108.5 -65.5t78 -111.5t30 -166t-31 -178.5t-91 -137.5t-147.5 -88t-199.5 -31q-42 0 -80.5 2.5t-76 7
t-76 11.5t-80.5 16z" />
    <glyph glyph-name="four" unicode="4" 
d="M727 319h-635v56l615 1048h96v-1036h180v-68h-180v-319h-76v319zM727 387v938l-545 -938h545z" />
    <glyph glyph-name="five" unicode="5" 
d="M860 1423v-67h-538v-543l48 6t50.5 5t56 3.5t64.5 1.5q87 0 157 -20.5t120 -66.5t77 -120t27 -180q0 -108 -27 -194t-83 -146.5t-142.5 -92.5t-206.5 -32q-42 0 -78 3t-69.5 8t-66.5 11t-69 13l10 64q36 -8 70 -14t67.5 -10.5t68.5 -6.5t73 -2q105 0 177 26.5t116.5 77
t64 123.5t19.5 166q0 91 -21 153.5t-61 101.5t-98 56t-131 17q-34 0 -62 -1.5t-59 -4.5t-69.5 -8t-94.5 -13v686h610z" />
    <glyph glyph-name="six" unicode="6" 
d="M877 1356q-54 11 -105 17.5t-113 6.5q-89 0 -152.5 -22.5t-106.5 -64t-69 -101t-41 -134t-22 -162.5t-12 -187q36 21 76 39t82 31t86 20.5t88 7.5q87 0 156 -23.5t116.5 -71.5t72.5 -121t25 -173q0 -105 -27.5 -187.5t-79 -139.5t-124 -87.5t-162.5 -30.5q-93 0 -165 30
t-121.5 94.5t-75 164.5t-25.5 240q0 156 6.5 287t25 236t52 184t87.5 131.5t132 79t185 26.5q63 0 117 -7t108 -20zM883 412q0 86 -20 148t-58 102.5t-94 59.5t-129 19q-44 0 -83.5 -5.5t-78.5 -18t-79 -33t-85 -49.5q-2 -32 -2 -63.5v-63.5q0 -128 19.5 -217t59 -145
t99 -81.5t139.5 -25.5q75 0 133 25.5t97.5 73.5t60.5 117t21 157z" />
    <glyph glyph-name="seven" unicode="7" 
d="M383 0q66 187 130 358.5t129 336.5t132 328t139 333h-788v67h868v-49q-73 -173 -140.5 -339t-132 -333.5t-128.5 -341t-129 -360.5h-80v0z" />
    <glyph glyph-name="eight" unicode="8" 
d="M965 354q0 -90 -29 -160.5t-82.5 -119.5t-130 -75t-170.5 -26q-92 0 -165.5 24t-125 70.5t-79 115t-27.5 157.5q0 87 26.5 154t71 118.5t102.5 88.5t121 63q-62 28 -113.5 61.5t-89 77t-58.5 99t-21 128.5q0 70 25 129t72 101.5t116 66t157 23.5t155 -22t113 -62
t69.5 -96.5t23.5 -126.5q0 -79 -21.5 -138.5t-59 -104.5t-89 -79.5t-111.5 -62.5q62 -30 120 -66t102.5 -84t71 -110t26.5 -144zM850 1137q0 55 -19.5 100.5t-57 78t-91.5 50.5t-123 18t-122.5 -18t-90 -50.5t-55.5 -78t-19 -100.5q0 -68 23 -119t63 -91t94.5 -71.5
t118.5 -60.5q66 27 118 59.5t88 73.5t54.5 92.5t18.5 116.5zM887 346q0 72 -26.5 128.5t-73 102t-108.5 81.5t-132 67q-68 -26 -126 -61.5t-100 -82.5t-66 -105.5t-24 -129.5q0 -74 23.5 -131t66.5 -96t103.5 -59.5t134.5 -20.5q75 0 136 20.5t103.5 59.5t65.5 96t23 131z
" />
    <glyph glyph-name="nine" unicode="9" 
d="M188 78q37 -9 69 -16t62 -11t61 -6t66 -2q90 0 153 22.5t106.5 64t69.5 101t41 134t22 163t12 187.5q-36 -22 -76 -40t-82.5 -31t-86.5 -20.5t-89 -7.5q-87 0 -155.5 23.5t-116 71.5t-72.5 121.5t-25 173.5q0 104 28 186.5t79 139.5t124 87.5t163 30.5q93 0 165 -30
t121.5 -94.5t75 -164.5t25.5 -239q0 -157 -6.5 -288t-25 -236t-52 -184t-87.5 -131.5t-132 -79t-185 -26.5q-37 0 -70 2.5t-64.5 7.5t-63.5 12t-66 15zM223 1012q0 -86 19.5 -148.5t58 -103t94 -59.5t127.5 -19q45 0 85 5.5t79 18.5t79 33t85 49q2 32 2 63.5v63.5
q0 127 -19.5 216.5t-59 145.5t-99 81.5t-139.5 25.5q-75 0 -133 -25.5t-97.5 -73.5t-60.5 -117t-21 -156z" />
    <glyph glyph-name="colon" unicode=":" horiz-adv-x="373" 
d="M293 756q0 -23 -3 -36t-11.5 -22.5t-23.5 -12.5t-38 -3q-22 0 -37.5 3t-24 12.5t-11.5 22.5t-3 36q0 20 3 34.5t11.5 23.5t24 12t37.5 3q23 0 38 -3t23.5 -12t11.5 -23.5t3 -34.5zM293 59q0 -22 -3 -35.5t-11.5 -22.5t-23.5 -12t-38 -3q-22 0 -37.5 3t-24 12t-11.5 22.5
t-3 35.5q0 21 3 35.5t11.5 23.5t24 12t37.5 3q23 0 38 -3t23.5 -12t11.5 -23.5t3 -35.5z" />
    <glyph glyph-name="semicolon" unicode=";" horiz-adv-x="373" 
d="M293 756q0 -23 -3 -36t-11.5 -22.5t-23.5 -12.5t-38 -3q-22 0 -37.5 3t-24 12.5t-11.5 22.5t-3 36q0 20 3 34.5t11.5 23.5t24 12t37.5 3q23 0 38 -3t23.5 -12t11.5 -23.5t3 -34.5zM59 -223q39 65 63.5 112.5t53.5 100.5q-10 2 -16 7t-10.5 13t-6.5 19.5t-2 29.5
q0 21 3 35.5t11.5 23.5t24 12t37.5 3q23 0 38 -3t23.5 -12t11.5 -23.5t3 -35.5q0 -24 -2 -40.5t-12 -32.5q-15 -27 -35.5 -56.5t-44 -60.5t-48 -61.5t-49.5 -59.5z" />
    <glyph glyph-name="less" unicode="&#x3c;" 
d="M150 625l757 456v-84l-686 -409l686 -418v-84l-757 461v78z" />
    <glyph glyph-name="equal" unicode="=" 
d="M119 438h848v-65h-848v65zM119 799h848v-66h-848v66z" />
    <glyph glyph-name="greater" unicode="&#x3e;" 
d="M178 170l686 410l-686 417v84l758 -460v-78l-758 -457v84z" />
    <glyph glyph-name="question" unicode="?" horiz-adv-x="752" 
d="M250 528q0 54 6 96t25.5 84t54.5 89t94 112q51 56 85 99t55.5 80.5t30.5 77.5t9 91q0 103 -69.5 154t-208.5 51q-64 0 -126.5 -10t-137.5 -33l-11 62q76 22 143.5 33.5t143.5 11.5q160 0 251 -66.5t91 -191.5q0 -66 -10 -113t-34 -92t-63.5 -94t-99.5 -115
q-43 -47 -71.5 -84t-47 -71.5t-26.5 -73.5t-8 -90v-193h-76v186zM365 59q0 -22 -3.5 -35.5t-11.5 -22.5t-23.5 -12t-37.5 -3q-47 0 -61.5 15t-14.5 58q0 21 3 35.5t11.5 23.5t23.5 12t38 3q45 0 60.5 -15.5t15.5 -58.5z" />
    <glyph glyph-name="at" unicode="@" horiz-adv-x="2085" 
d="M1372 346q-10 -96 20.5 -135t96.5 -39q47 0 107.5 34t113.5 106.5t90 183t37 264.5q0 149 -47 266t-139 197t-228.5 121.5t-314.5 41.5t-334 -50t-269.5 -157.5t-179 -275.5t-65.5 -403q0 -160 42 -293t127 -228.5t216 -148.5t309 -53q146 0 266.5 13t229.5 48l14 -65
q-57 -15 -115.5 -26t-121 -18.5t-132 -11.5t-147.5 -4q-194 0 -337.5 57.5t-237.5 161t-141.5 247t-47.5 315.5q0 247 72 427.5t198 298t296 174t364 56.5q195 0 344.5 -46t250.5 -134t153.5 -215t52.5 -289q0 -170 -44 -294t-109.5 -204t-141.5 -117.5t-141 -37.5
q-99 0 -141 53t-38 139q-30 -29 -71 -62.5t-91.5 -62t-108.5 -48t-120 -19.5q-129 0 -205.5 93t-76.5 283q0 134 37.5 238t102 176t151 110t182.5 38q82 0 146.5 -23.5t119.5 -62.5l16 63h62zM1354 893q-72 45 -130.5 69.5t-136.5 24.5q-77 0 -147 -31.5t-122 -93t-84 -154
t-32 -212.5q0 -156 54.5 -238t165.5 -82q53 0 105 20.5t101.5 52.5t92.5 70.5t79 75.5z" />
    <glyph glyph-name="A" unicode="A" horiz-adv-x="1186" 
d="M543 1423h96l510 -1423h-82l-152 424h-649l-149 -424h-80zM891 489l-143 404q-23 65 -43.5 123.5t-40 115t-38 112.5t-36.5 116h-2q-19 -60 -36 -116t-35.5 -112.5t-39 -115t-43.5 -123.5l-143 -404h600z" />
    <glyph glyph-name="B" unicode="B" horiz-adv-x="1194" 
d="M219 1423h344q119 0 206 -13t143.5 -50t83 -101.5t26.5 -164.5q0 -74 -16.5 -132.5t-47 -101.5t-74.5 -70.5t-102 -41.5q58 -7 110 -28.5t91 -63.5t62.5 -105.5t23.5 -155.5q0 -102 -28.5 -177t-88 -123t-149.5 -71.5t-213 -23.5h-371v1423zM596 66q109 0 183.5 18
t121.5 58t67.5 100.5t20.5 146.5q0 82 -19.5 142.5t-68.5 100.5t-131 59.5t-207 19.5h-266v-645h299zM569 776q82 0 150.5 13.5t118 49t77 96t27.5 152.5q0 87 -20.5 139t-66.5 81.5t-118.5 40t-177.5 10.5h-262v-582h272z" />
    <glyph glyph-name="B" unicode="&#xe000;" horiz-adv-x="1194" 
d="M219 1423h344q119 0 206 -13t143.5 -50t83 -101.5t26.5 -164.5q0 -74 -16.5 -132.5t-47 -101.5t-74.5 -70.5t-102 -41.5q58 -7 110 -28.5t91 -63.5t62.5 -105.5t23.5 -155.5q0 -102 -28.5 -177t-88 -123t-149.5 -71.5t-213 -23.5h-371v1423zM596 66q109 0 183.5 18
t121.5 58t67.5 100.5t20.5 146.5q0 82 -19.5 142.5t-68.5 100.5t-131 59.5t-207 19.5h-266v-645h299zM569 776q82 0 150.5 13.5t118 49t77 96t27.5 152.5q0 87 -20.5 139t-66.5 81.5t-118.5 40t-177.5 10.5h-262v-582h272z" />
    <glyph glyph-name="C" unicode="C" horiz-adv-x="1067" 
d="M985 25q-65 -17 -142 -31t-159 -14q-133 0 -232.5 27.5t-165 107.5t-98 222t-32.5 372q0 227 35.5 370.5t104.5 224t169 110.5t229 30q82 0 158 -12.5t133 -28.5l-12 -64q-60 17 -134.5 28t-150.5 11q-108 0 -192 -24.5t-142.5 -96t-89.5 -201.5t-31 -341q0 -213 29 -344
t86.5 -204t142 -97.5t197.5 -24.5q72 0 147.5 13.5t137.5 29.5z" />
    <glyph glyph-name="D" unicode="D" horiz-adv-x="1335" 
d="M219 1423h408q147 0 251.5 -27.5t171 -104.5t98.5 -214t32 -356t-33 -359.5t-102.5 -220.5t-176 -110.5t-254.5 -30.5h-395v1423zM621 66q124 0 215.5 25.5t151 96t87 197.5t27.5 330q0 205 -26.5 330.5t-85 195.5t-149.5 93.5t-220 23.5h-324v-1292h324z" />
    <glyph glyph-name="E" unicode="E" horiz-adv-x="1055" 
d="M219 1423h717v-65h-639v-582h590v-65h-590v-645h639v-66h-717v1423z" />
    <glyph glyph-name="E" unicode="&#xe001;" horiz-adv-x="1055" 
d="M219 1423h717v-65h-639v-582h590v-65h-590v-645h639v-66h-717v1423z" />
    <glyph glyph-name="F" unicode="F" horiz-adv-x="969" 
d="M219 1423h692v-65h-614v-582h559v-65h-559v-711h-78v1423z" />
    <glyph glyph-name="G" unicode="G" horiz-adv-x="1212" 
d="M1044 41q-67 -25 -163.5 -44.5t-196.5 -19.5q-133 0 -232.5 28t-165 108t-98 222t-32.5 372q0 227 36.5 371.5t106.5 225t172 110.5t231 30q89 0 167.5 -11.5t154.5 -31.5l-12 -64q-78 19 -153 30t-163 11q-108 0 -194 -24.5t-145.5 -97t-91.5 -202.5t-32 -341
q0 -213 29 -344t86.5 -204t142 -97.5t197.5 -24.5q90 0 158.5 14.5t118.5 32.5v617h-369v65h448v-731z" />
    <glyph glyph-name="H" unicode="H" horiz-adv-x="1356" 
d="M219 1423h78v-645h762v645h78v-1423h-78v713h-762v-713h-78v1423z" />
    <glyph glyph-name="I" unicode="I" horiz-adv-x="516" 
d="M219 1423h78v-1423h-78v1423z" />
    <glyph glyph-name="J" unicode="J" horiz-adv-x="610" 
d="M406 305q0 -92 -16.5 -153.5t-49.5 -97.5t-83 -51t-118 -15q-41 0 -78.5 5t-76.5 15l12 64q37 -9 78 -14t76 -5q98 0 138 51.5t40 192.5v1126h78v-1118z" />
    <glyph glyph-name="K" unicode="K" horiz-adv-x="1032" 
d="M219 1423h78v-680l606 680h105l-627 -690l651 -733h-108l-627 711v-711h-78v1423z" />
    <glyph glyph-name="L" unicode="L" horiz-adv-x="940" 
d="M219 1423h78v-1357h621v-66h-699v1423z" />
    <glyph glyph-name="M" unicode="M" horiz-adv-x="1720" 
d="M297 1423h123l297 -893q20 -61 38.5 -118.5t36 -114.5t35 -114.5t35.5 -119.5h2q17 62 33 119.5t33.5 113.5t35 113.5t38.5 118.5l296 895h123l127 -1423h-84l-75 893q-7 61 -11 118.5t-9 114t-9 113.5t-8 121h-2q-19 -60 -37.5 -117t-36.5 -114.5t-36.5 -116
t-39.5 -119.5l-293 -893h-100l-293 893q-41 123 -77 237.5t-72 229.5h-2q-5 -57 -9 -114.5t-9 -115t-9 -117t-10 -120.5l-76 -893h-82z" />
    <glyph glyph-name="N" unicode="N" horiz-adv-x="1384" 
d="M219 1423h103l555 -954q26 -47 53.5 -94t54.5 -93t53.5 -92.5t55.5 -95.5h2q-4 94 -5 187.5t-1 187.5v954h75v-1423h-106l-553 954q-29 47 -55.5 94.5t-52 93.5t-53.5 92t-54 95h-4q4 -94 6 -187t2 -188v-954h-76v1423z" />
    <glyph glyph-name="O" unicode="O" horiz-adv-x="1378" 
d="M1223 715q0 -232 -35 -377t-103.5 -226t-169 -110t-231.5 -29t-229.5 28t-165 107.5t-100 223t-33.5 375.5q0 233 34.5 377.5t103 226.5t169 110.5t231.5 28.5t229.5 -27.5t165 -107.5t100.5 -223.5t34 -376.5zM1145 709q0 215 -30 348t-88 205.5t-143 97t-196 24.5
q-110 0 -194 -23.5t-142.5 -96t-88.5 -204.5t-30 -347t30 -347.5t88.5 -205t142.5 -97t194 -24.5q111 0 196 23.5t143 96t88 204t30 346.5z" />
    <glyph glyph-name="P" unicode="P" horiz-adv-x="1073" 
d="M219 1423h350q111 0 191 -14t132 -53t77.5 -109.5t25.5 -181.5q0 -107 -28.5 -182.5t-85 -122.5t-140.5 -69.5t-194 -22.5h-250v-668h-78v1423zM553 733q186 0 275.5 74t89.5 252q0 92 -19.5 150.5t-62.5 91t-111 45t-162 12.5h-266v-625h256z" />
    <glyph glyph-name="Q" unicode="Q" horiz-adv-x="1378" 
d="M1239 -221l-235 262q-64 -35 -136.5 -51.5t-183.5 -16.5q-131 0 -229.5 28t-165 106.5t-100 222t-33.5 375.5q0 233 34.5 378.5t103 227.5t169 110.5t231.5 28.5t229.5 -27.5t165 -107.5t100.5 -223.5t34 -376.5q0 -127 -10.5 -226.5t-31 -175t-50 -130t-66.5 -91.5
l240 -256zM1145 709q0 215 -30 347t-88 205.5t-143 98t-196 24.5q-110 0 -194 -23.5t-142.5 -96t-88.5 -204.5t-30 -347t30 -348.5t88.5 -205t142.5 -96t194 -24.5q111 0 196 23.5t143 95t88 204t30 347.5z" />
    <glyph glyph-name="R" unicode="R" horiz-adv-x="1137" 
d="M219 1423h356q119 0 204 -15t138.5 -53t78 -102.5t24.5 -165.5q0 -100 -24.5 -170.5t-78 -115.5t-139.5 -66.5t-209 -21.5l486 -713h-101l-481 711h-176v-711h-78v1423zM569 776q107 0 178.5 17.5t114.5 54.5t61.5 94t18.5 139q0 86 -19.5 140.5t-63.5 84t-114.5 41
t-175.5 11.5h-272v-582h272z" />
    <glyph glyph-name="S" unicode="S" horiz-adv-x="1077" 
d="M145 92q88 -22 170 -35.5t177 -13.5q206 0 303.5 85t97.5 222q0 62 -14.5 105t-54.5 81.5t-111.5 77.5t-184.5 93q-110 51 -186 92t-122 86t-66.5 99t-20.5 130q0 74 27.5 134.5t85 104.5t142.5 68.5t202 24.5q92 0 169 -12.5t148 -32.5l-14 -64q-74 21 -146.5 32
t-160.5 11q-101 0 -171.5 -19.5t-115.5 -54t-66.5 -83.5t-21.5 -107q0 -55 13.5 -97t52 -80t107.5 -77t179 -90q115 -53 193 -95t126 -88t68.5 -101.5t20.5 -133.5q0 -86 -32 -155.5t-93.5 -118.5t-151.5 -76t-207 -27q-96 0 -181 13.5t-171 38.5z" />
    <glyph glyph-name="S" unicode="&#xe002;" horiz-adv-x="1077" 
d="M145 92q88 -22 170 -35.5t177 -13.5q206 0 303.5 85t97.5 222q0 62 -14.5 105t-54.5 81.5t-111.5 77.5t-184.5 93q-110 51 -186 92t-122 86t-66.5 99t-20.5 130q0 74 27.5 134.5t85 104.5t142.5 68.5t202 24.5q92 0 169 -12.5t148 -32.5l-14 -64q-74 21 -146.5 32
t-160.5 11q-101 0 -171.5 -19.5t-115.5 -54t-66.5 -83.5t-21.5 -107q0 -55 13.5 -97t52 -80t107.5 -77t179 -90q115 -53 193 -95t126 -88t68.5 -101.5t20.5 -133.5q0 -86 -32 -155.5t-93.5 -118.5t-151.5 -76t-207 -27q-96 0 -181 13.5t-171 38.5z" />
    <glyph glyph-name="T" unicode="T" horiz-adv-x="1034" 
d="M477 1358h-442v65h964v-65h-444v-1358h-78v1358z" />
    <glyph glyph-name="U" unicode="U" horiz-adv-x="1333" 
d="M256 1423v-917q0 -111 16.5 -198t61.5 -146.5t126 -91t210 -31.5t208.5 31.5t124 92t59.5 147.5t15 198v915h78v-909q0 -129 -23.5 -229.5t-80 -169t-150.5 -105.5t-237 -37q-144 0 -237 34t-148.5 100.5t-78 165t-22.5 227.5v923h78z" />
    <glyph glyph-name="V" unicode="V" horiz-adv-x="1186" 
d="M37 1423h82l319 -893q23 -65 43.5 -123.5t40 -114.5t38 -112.5t36.5 -116.5h2q18 60 35.5 116.5t36 112.5t39 114.5t43.5 123.5l317 893h80l-506 -1423h-96z" />
    <glyph glyph-name="W" unicode="W" horiz-adv-x="1831" 
d="M78 1423h84l239 -893q17 -65 31 -120.5t27.5 -109.5t27 -110.5t29.5 -121.5h2q14 65 27.5 121.5t27 109.5t27.5 109.5t31 121.5l233 893h105l233 -893q17 -65 31 -121.5t27.5 -109.5t25.5 -109.5t29 -121.5h2q16 65 29.5 121.5t28 110.5t28.5 109.5t31 120.5l237 893h82
l-383 -1423h-108l-238 897q-14 51 -27.5 108.5t-27 116t-26.5 118.5t-25 120h-3q-12 -60 -25 -120t-27.5 -118.5t-28 -116t-27.5 -108.5l-238 -897h-108z" />
    <glyph glyph-name="X" unicode="X" horiz-adv-x="1200" 
d="M553 723l-500 700h94l451 -637l2 -2q18 29 36.5 55.5t36 51t35 49.5t37.5 53l308 430h92l-500 -694l526 -729h-94l-477 666l-2 2q-35 -52 -68.5 -100t-72.5 -101l-336 -467h-92z" />
    <glyph glyph-name="Y" unicode="Y" horiz-adv-x="1024" 
d="M473 582l-457 841h88l271 -497q22 -41 39.5 -75t34 -65.5t33 -62.5t34.5 -68h2q19 37 35 71t32.5 65.5t34 65.5t37.5 71l267 495h84l-457 -841v-582h-78v582z" />
    <glyph glyph-name="Z" unicode="Z" horiz-adv-x="1006" 
d="M72 55l759 1301h-735v67h828v-55l-762 -1300h782v-68h-872v55z" />
    <glyph glyph-name="bracketleft" unicode="[" horiz-adv-x="604" 
d="M219 1511h348v-63h-272v-1724h272v-64h-348v1851z" />
    <glyph glyph-name="backslash" unicode="\" horiz-adv-x="760" 
d="M16 1511h80l680 -1742h-80z" />
    <glyph glyph-name="bracketright" unicode="]" horiz-adv-x="604" 
d="M37 -276h272v1724h-272v63h348v-1851h-348v64z" />
    <glyph glyph-name="asciicircum" unicode="^" 
d="M498 1423h90l407 -678h-88l-366 617l-367 -617h-84z" />
    <glyph glyph-name="underscore" unicode="_" 
d="M0 -408h1085v-63h-1085v63z" />
    <glyph glyph-name="grave" unicode="`" horiz-adv-x="782" 
d="M322 1497l210 -268l-47 -39l-229 254z" />
    <glyph glyph-name="a" unicode="a" horiz-adv-x="1006" 
d="M737 717q0 119 -57 176t-174 57q-76 0 -141.5 -9t-135.5 -26l-8 62q74 16 145.5 26.5t151.5 10.5q74 0 129 -19.5t92 -57.5t55.5 -92t18.5 -124v-721h-63l-9 100q-82 -47 -162.5 -83.5t-185.5 -36.5q-117 0 -193.5 65.5t-76.5 206.5q0 80 25.5 140.5t84 100t154.5 60
t240 20.5h110v144zM629 510q-127 0 -210 -15.5t-132 -46t-68.5 -78.5t-19.5 -112q0 -115 56 -165t144 -50q90 0 166 34t172 93v340h-108z" />
    <glyph glyph-name="b" unicode="b" horiz-adv-x="1122" 
d="M211 1511h76v-356q0 -59 -1 -126.5t-5 -139.5l2 -2q90 55 175 92t173 37q84 0 150.5 -22.5t112.5 -81t69.5 -157t23.5 -249.5q0 -152 -36 -253t-94 -161.5t-135 -86t-157 -25.5q-78 0 -146.5 23.5t-137.5 59.5l-7 -63h-63v1511zM287 133q75 -41 141 -65.5t143 -24.5
q64 0 125.5 20.5t108.5 72.5t76.5 140.5t29.5 225.5t-19.5 224t-56 137t-90 69.5t-120.5 19.5q-74 0 -154 -34.5t-184 -100.5v-684z" />
    <glyph glyph-name="b" unicode="&#xe003;" horiz-adv-x="1122" 
d="M211 1511h76v-356q0 -59 -1 -126.5t-5 -139.5l2 -2q90 55 175 92t173 37q84 0 150.5 -22.5t112.5 -81t69.5 -157t23.5 -249.5q0 -152 -36 -253t-94 -161.5t-135 -86t-157 -25.5q-78 0 -146.5 23.5t-137.5 59.5l-7 -63h-63v1511zM287 133q75 -41 141 -65.5t143 -24.5
q64 0 125.5 20.5t108.5 72.5t76.5 140.5t29.5 225.5t-19.5 224t-56 137t-90 69.5t-120.5 19.5q-74 0 -154 -34.5t-184 -100.5v-684z" />
    <glyph glyph-name="c" unicode="c" horiz-adv-x="842" 
d="M750 14q-50 -14 -108 -23t-112 -9q-96 0 -168.5 22.5t-120.5 79.5t-73 157.5t-25 254.5q0 157 29 257.5t82 159t126 80t163 21.5q57 0 113.5 -9.5t103.5 -21.5l-10 -61q-50 12 -104 20t-111 8q-70 0 -127.5 -16t-99.5 -64.5t-65.5 -137.5t-23.5 -234q0 -142 20.5 -230
t60.5 -138t98.5 -67.5t136.5 -17.5q47 0 101 8t103 23z" />
    <glyph glyph-name="d" unicode="d" horiz-adv-x="1122" 
d="M840 109q-90 -56 -175 -92.5t-173 -36.5q-84 0 -151 22.5t-113 80.5t-69.5 156.5t-23.5 249.5q0 152 36 253.5t94.5 162t135 86t156.5 25.5q78 0 146.5 -23.5t136.5 -58.5l2 2q-4 72 -5 138.5t-1 125.5v311h75v-1511h-63zM836 862q-76 41 -141.5 65.5t-143.5 24.5
q-64 0 -125 -20.5t-108.5 -72.5t-77 -140t-29.5 -225q0 -138 19.5 -225t56.5 -137t90 -69.5t121 -19.5q73 0 153 35t185 100v684z" />
    <glyph glyph-name="e" unicode="e" horiz-adv-x="1024" 
d="M829 20q-71 -16 -144 -27t-148 -11q-88 0 -160 18t-124 73.5t-81 156t-29 266.5q0 159 28 260.5t79 161t125 82t164 22.5t154.5 -20.5t106.5 -74t61.5 -144.5t19.5 -232v-21.5v-27.5h-662q0 -152 22.5 -242t65.5 -137t105.5 -62.5t142.5 -15.5q72 0 135.5 10.5
t128.5 26.5zM803 565q-2 123 -18.5 200t-50.5 120t-84 58t-120 15q-69 0 -124.5 -16t-95.5 -60t-62.5 -121t-26.5 -196h582z" />
    <glyph glyph-name="f" unicode="f" horiz-adv-x="582" 
d="M225 932h-170v63h170v205q0 88 16.5 151.5t52.5 104.5t92 61.5t136 20.5q41 0 79 -4t73 -12l-10 -62q-35 8 -71 11.5t-77 3.5q-115 0 -165 -62.5t-50 -204.5v-213h307v-63h-307v-932h-76v932z" />
    <glyph glyph-name="g" unicode="g" horiz-adv-x="1063" 
d="M1012 936q-51 -4 -103.5 -5t-101.5 -5q37 -35 59.5 -99.5t22.5 -169.5q0 -102 -23.5 -172.5t-69.5 -113.5t-115 -62.5t-157 -19.5q-65 0 -113.5 9t-86.5 26q-41 -27 -57.5 -48.5t-16.5 -50.5q0 -18 7 -33.5t28.5 -30t60.5 -27.5t100 -25q95 -21 172.5 -36.5t143.5 -29.5
q51 -10 90 -27.5t64.5 -43t38 -60.5t12.5 -80q0 -63 -24.5 -118.5t-78 -95.5t-140.5 -63.5t-210 -23.5q-117 0 -195.5 19.5t-127 56.5t-69 89t-20.5 116q0 100 59.5 162.5t151.5 103.5q-65 20 -101 55t-36 86q0 47 23.5 76t68.5 63q-45 39 -74.5 106.5t-29.5 188.5
q0 103 23.5 173.5t69.5 113.5t114.5 62.5t156.5 19.5q64 0 105 -7t74 -20h305v-59zM727 -14q-80 16 -159 33.5t-158 33.5q-50 -16 -92 -36.5t-72.5 -49t-49 -65.5t-18.5 -86q0 -52 15.5 -92.5t54.5 -69.5t104.5 -44.5t165.5 -15.5q107 0 178.5 19.5t114.5 52.5t61.5 75
t18.5 87q0 68 -42 104.5t-122 53.5zM813 653q0 88 -16.5 146.5t-51 93.5t-90 50t-131.5 15q-78 0 -131 -14t-88 -49t-50 -92.5t-15 -145.5t15 -146t49 -94t89.5 -50.5t132.5 -14.5q76 0 131.5 14.5t89 49.5t50 92t16.5 145z" />
    <glyph glyph-name="h" unicode="h" horiz-adv-x="1178" 
d="M211 1511h76v-356q0 -59 -1 -126.5t-5 -143.5l2 -2q98 55 200.5 94t200.5 39q154 0 227.5 -77t73.5 -251v-688h-76v682q0 149 -55 209.5t-176 60.5q-86 0 -183.5 -36.5t-207.5 -102.5v-813h-76v1511z" />
    <glyph glyph-name="i" unicode="i" horiz-adv-x="498" 
d="M211 995h76v-995h-76v995zM315 1337q0 -18 -3 -31.5t-11 -20.5t-20.5 -10t-32.5 -3q-21 0 -34 3t-20.5 10t-10.5 20.5t-3 31.5q0 19 3 32t10.5 20.5t20.5 10.5t34 3q20 0 32.5 -3t20.5 -10.5t11 -20.5t3 -32z" />
    <glyph glyph-name="j" unicode="j" horiz-adv-x="498" 
d="M287 -100q0 -88 -13.5 -155t-46 -112t-85 -68.5t-132.5 -23.5q-35 0 -62.5 2t-64.5 8l8 64q35 -6 66 -8t59 -2q115 0 155 72.5t40 213.5v1104h76v-1095zM315 1337q0 -18 -3 -31.5t-11 -20.5t-20.5 -10t-32.5 -3q-21 0 -34 3t-20.5 10t-10.5 20.5t-3 31.5q0 19 3 32
t10.5 20.5t20.5 10.5t34 3q20 0 32.5 -3t20.5 -10.5t11 -20.5t3 -32z" />
    <glyph glyph-name="k" unicode="k" horiz-adv-x="897" 
d="M211 1511h76v-958l450 442h103l-478 -456l494 -539h-98l-471 510v-510h-76v1511z" />
    <glyph glyph-name="l" unicode="l" horiz-adv-x="498" 
d="M211 1511h76v-1511h-76v1511z" />
    <glyph glyph-name="m" unicode="m" horiz-adv-x="1794" 
d="M211 995h63l9 -112q98 55 193 94t188 39q110 0 165.5 -44t83.5 -104q117 68 216.5 108t191.5 40q137 0 209 -77t72 -251v-688h-76v682q0 149 -53.5 209.5t-157.5 60.5q-78 0 -170 -36.5t-213 -108.5q6 -29 9 -52.5t3 -66.5v-688h-76v682q0 149 -53 209.5t-158 60.5
q-77 0 -168.5 -36.5t-201.5 -102.5v-813h-76v995z" />
    <glyph glyph-name="n" unicode="n" horiz-adv-x="1178" 
d="M211 995h63l9 -112q98 55 200.5 94t200.5 39q154 0 227.5 -77t73.5 -251v-688h-76v682q0 149 -55 209.5t-176 60.5q-86 0 -183.5 -36.5t-207.5 -102.5v-813h-76v995z" />
    <glyph glyph-name="o" unicode="o" horiz-adv-x="1102" 
d="M958 500q0 -160 -27.5 -261.5t-80.5 -161t-129 -82t-172 -22.5t-172 21.5t-128 80t-79 160t-27 261.5q0 159 28 260.5t81 161t129 82t172 22.5t172 -21.5t128 -80t78.5 -160t26.5 -260.5zM883 496q0 147 -22.5 238t-65.5 140.5t-105.5 66.5t-140.5 17t-139.5 -16
t-103.5 -65.5t-64.5 -139.5t-22.5 -237q0 -148 22.5 -239t65.5 -140t105.5 -66.5t140.5 -17.5t139.5 16.5t103.5 65.5t64.5 139t22.5 238z" />
    <glyph glyph-name="p" unicode="p" horiz-adv-x="1122" 
d="M211 995h63l9 -108q45 26 88 51t86 41t87 26.5t87 10.5q84 0 150.5 -22.5t112.5 -81t69.5 -157t23.5 -249.5q0 -152 -36 -253t-94 -161.5t-135 -86t-157 -25.5q-78 0 -146.5 23.5t-135.5 57.5l-2 -2q2 -36 3 -70l2 -68t1 -64.5v-61.5v-237h-76v1437zM287 133
q75 -41 141 -65.5t143 -24.5q64 0 125.5 20.5t108.5 72.5t76.5 140.5t29.5 225.5t-19.5 224t-56 137t-90 69.5t-120.5 19.5q-74 0 -154 -34.5t-184 -100.5v-684z" />
    <glyph glyph-name="q" unicode="q" horiz-adv-x="1122" 
d="M911 -442h-75v282q0 60 1 127.5t5 138.5l-2 3q-90 -56 -175 -92.5t-173 -36.5q-84 0 -151 22.5t-113 80.5t-69.5 156.5t-23.5 249.5q0 152 36 253.5t94.5 162t135 86t156.5 25.5q78 0 146.5 -23.5t138.5 -60.5l6 63h63v-1437zM836 862q-76 41 -141.5 65.5t-143.5 24.5
q-64 0 -125 -20.5t-108.5 -72.5t-77 -140t-29.5 -225q0 -138 19.5 -225t56.5 -137t90 -69.5t121 -19.5q73 0 153 35t185 100v684z" />
    <glyph glyph-name="r" unicode="r" horiz-adv-x="649" 
d="M211 995h63l9 -121q34 27 69 52.5t70 46t69.5 33t71.5 12.5q23 0 40.5 -4t31.5 -10l-19 -84q-16 8 -36.5 12t-44.5 4q-46 0 -104 -35t-144 -94v-807h-76v995z" />
    <glyph glyph-name="s" unicode="s" horiz-adv-x="834" 
d="M115 76q67 -17 125.5 -24t115.5 -7q86 0 144.5 15.5t94.5 43t52.5 66.5t16.5 84q0 41 -11.5 70.5t-39 54t-78 48.5t-125.5 54q-80 31 -135.5 58.5t-89 58.5t-48 69t-14.5 91q0 125 90 190.5t254 65.5q59 0 119.5 -9.5t113.5 -23.5l-12 -61q-59 14 -114.5 22t-112.5 8
q-135 0 -198.5 -48t-63.5 -142q0 -35 10 -61.5t36.5 -51t74 -48.5t122.5 -52q82 -33 139.5 -59.5t92.5 -58.5t50 -73t15 -98q0 -125 -92 -200.5t-297 -75.5q-59 0 -120.5 8t-127.5 24z" />
    <glyph glyph-name="s" unicode="&#xe004;" horiz-adv-x="834" 
d="M115 76q67 -17 125.5 -24t115.5 -7q86 0 144.5 15.5t94.5 43t52.5 66.5t16.5 84q0 41 -11.5 70.5t-39 54t-78 48.5t-125.5 54q-80 31 -135.5 58.5t-89 58.5t-48 69t-14.5 91q0 125 90 190.5t254 65.5q59 0 119.5 -9.5t113.5 -23.5l-12 -61q-59 14 -114.5 22t-112.5 8
q-135 0 -198.5 -48t-63.5 -142q0 -35 10 -61.5t36.5 -51t74 -48.5t122.5 -52q82 -33 139.5 -59.5t92.5 -58.5t50 -73t15 -98q0 -125 -92 -200.5t-297 -75.5q-59 0 -120.5 8t-127.5 24z" />
    <glyph glyph-name="t" unicode="t" horiz-adv-x="604" 
d="M215 995v310l76 14v-324h239v-63h-239v-744q0 -79 28.5 -109t88.5 -30q34 0 64 5t58 16l11 -62q-31 -10 -65 -16t-75 -6q-49 0 -84.5 10t-58 32.5t-33 58.5t-10.5 85v760h-158v63h158z" />
    <glyph glyph-name="u" unicode="u" horiz-adv-x="1178" 
d="M268 995v-682q0 -149 55.5 -209.5t176.5 -60.5q86 0 183 37t208 102v813h76v-995h-64l-8 113q-98 -56 -200.5 -94.5t-200.5 -38.5q-154 0 -227.5 76.5t-73.5 250.5v688h75z" />
    <glyph glyph-name="v" unicode="v" horiz-adv-x="926" 
d="M45 995h80l219 -589q18 -52 32.5 -94t29 -80.5t27.5 -79.5t30 -89h2q16 50 29.5 91t28 80.5t28.5 80.5t33 91l219 589h78l-371 -995h-94z" />
    <glyph glyph-name="w" unicode="w" horiz-adv-x="1505" 
d="M55 995h82l187 -589q14 -48 27.5 -91t24.5 -85t23.5 -83t24.5 -84h2q20 80 45 166t53 177l178 589h103l184 -589q15 -46 27 -89t24.5 -85t25.5 -84t26 -85h2q24 93 45.5 171.5t50.5 171.5l180 589h80l-309 -995h-99l-190 592q-29 86 -52.5 170t-45.5 170h-2
q-23 -88 -45.5 -170t-49.5 -168l-184 -594h-98z" />
    <glyph glyph-name="x" unicode="x" horiz-adv-x="940" 
d="M418 510l-373 485h92l332 -434l2 -2q25 35 47.5 65.5t48.5 65.5l234 305h90l-379 -483l393 -512h-92l-352 461l-2 2q-25 -37 -47.5 -70t-51.5 -69l-235 -324h-90z" />
    <glyph glyph-name="y" unicode="y" horiz-adv-x="926" 
d="M45 995h80l219 -589q18 -52 32.5 -94t29 -80.5t27.5 -79.5t30 -89h2q16 50 29.5 91t28 80.5t28.5 80.5t33 91l219 589h78l-441 -1181q-30 -84 -61 -137.5t-64.5 -83t-72.5 -41t-84 -11.5q-39 0 -67 4t-50 9l8 63q23 -4 50.5 -8t47.5 -4q31 0 61 7t57.5 29.5t54 66.5
t53.5 116l65 176h-22z" />
    <glyph glyph-name="y" unicode="&#xe006;" horiz-adv-x="926" 
d="M45 995h80l219 -589q18 -52 32.5 -94t29 -80.5t27.5 -79.5t30 -89h2q16 50 29.5 91t28 80.5t28.5 80.5t33 91l219 589h78l-441 -1181q-30 -84 -61 -137.5t-64.5 -83t-72.5 -41t-84 -11.5q-39 0 -67 4t-50 9l8 63q23 -4 50.5 -8t47.5 -4q31 0 61 7t57.5 29.5t54 66.5
t53.5 116l65 176h-22z" />
    <glyph glyph-name="z" unicode="z" horiz-adv-x="827" 
d="M88 45l555 885h-526v65h620v-41l-557 -888h570v-66h-662v45z" />
    <glyph glyph-name="braceleft" unicode="{" horiz-adv-x="547" 
d="M494 -340h-11h-14q-129 0 -180 54.5t-51 174.5v357q0 63 -9.5 110t-32 85t-58.5 67t-87 55v70q51 26 87 55t58.5 66t32 85t9.5 109v334q0 121 51 175t180 54h14h11v-63q-52 0 -86.5 -9t-55 -31t-29 -54.5t-8.5 -81.5v-332q0 -70 -12 -121t-36.5 -91t-60.5 -71.5
t-85 -60.5q49 -29 85 -58.5t60.5 -69.5t36.5 -92t12 -122v-354q0 -50 8.5 -82.5t29 -54t55 -30.5t86.5 -9v-64z" />
    <glyph glyph-name="bar" unicode="|" horiz-adv-x="516" 
d="M219 1511h78v-1953h-78v1953z" />
    <glyph glyph-name="braceright" unicode="}" horiz-adv-x="547" 
d="M53 -276q51 0 86 9t55.5 30.5t28.5 54t8 82.5v354q0 70 12.5 122t37 92t60.5 69.5t85 58.5q-49 29 -85 60.5t-60.5 71.5t-37 91t-12.5 121v332q0 49 -8 81.5t-28.5 54.5t-55.5 31t-86 9v63h10.5h14.5q129 0 180 -54t51 -175v-334q0 -61 9.5 -109t32 -85t57 -66t88.5 -55
v-70q-54 -26 -88.5 -55t-57 -67t-32 -85t-9.5 -110v-357q0 -120 -51 -174.5t-180 -54.5h-14.5h-10.5v64z" />
    <glyph glyph-name="asciitilde" unicode="~" 
d="M127 963q0 73 14.5 130.5t43 97.5t69.5 60.5t92 20.5q80 0 129 -40t87 -88t77 -88t100 -40q29 0 56.5 13t48 42t33 76t12.5 113h69q0 -74 -14 -131.5t-43 -97.5t-69.5 -60.5t-92.5 -20.5q-80 0 -129 40t-87 88t-76.5 88t-100.5 40q-59 0 -104 -56t-45 -187h-70z" />
    <glyph glyph-name="exclamdown" unicode="&#xa1;" horiz-adv-x="553" 
d="M240 743h73l4 -1185h-81zM352 1026q0 -22 -3 -35.5t-11 -23t-23.5 -12.5t-38.5 -3q-47 0 -61 15.5t-14 58.5q0 21 3 35t11 23.5t23.5 12.5t37.5 3q46 0 61 -15.5t15 -58.5z" />
    <glyph glyph-name="cent" unicode="&#xa2;" 
d="M657 1423v-186q32 0 65 -3t65.5 -8t62.5 -12t57 -16l-12 -63q-30 8 -63 15t-66 11.5t-65 7t-60 2.5q-90 0 -161 -17.5t-119.5 -67.5t-74.5 -139t-26 -232q0 -144 26 -235t75 -142.5t120.5 -70.5t163.5 -19q31 0 63 2.5t64 7t63 11t60 14.5l12 -64q-59 -15 -123 -26
t-127 -11v-182h-77v184q-95 6 -168.5 32.5t-124 86t-77 157.5t-26.5 247q0 160 31 260t85 157.5t126 81t154 29.5v188h77z" />
    <glyph glyph-name="sterling" unicode="&#xa3;" 
d="M356 764q-9 51 -21 97t-22.5 90t-18 87t-7.5 88q0 80 25 140t72.5 100t116.5 60t156 20q48 0 86.5 -2.5t72 -7t62.5 -11t58 -14.5l-12 -63q-31 7 -62 12.5t-64 10t-69 7t-76 2.5q-69 0 -122.5 -15t-90.5 -46.5t-56 -80t-19 -116.5q0 -41 7.5 -83t19 -86t23.5 -91t21 -98
h445v-66h-435q2 -20 3.5 -40t1.5 -40q0 -74 -8 -138t-25 -128t-45 -133t-68 -153h647v-66h-850v66h121q40 82 68 150.5t46 132.5t26 128t8 137q0 22 -1 43t-3 41h-207v66h196z" />
    <glyph glyph-name="currency" unicode="&#xa4;" horiz-adv-x="1245" 
d="M285 430q-35 51 -57.5 122.5t-22.5 162.5q0 88 20 158t58 122l-191 193l55 55l187 -188q47 41 118 69.5t173 28.5q100 0 170 -27t116 -69l189 186l55 -55l-188 -189q37 -57 57 -127.5t20 -156.5q0 -90 -20.5 -161.5t-60.5 -125.5l190 -192l-55 -56l-189 189
q-49 -41 -116 -67t-168 -26q-104 0 -173 28t-112 69l-195 -193l-55 56zM969 715q0 87 -21.5 156t-64 117t-107 73.5t-151.5 25.5t-151.5 -25.5t-107.5 -73.5t-64 -117t-21 -156t21 -156t64 -117.5t107.5 -74t151.5 -25.5t151.5 25.5t107 74t64 117.5t21.5 156z" />
    <glyph glyph-name="yen" unicode="&#xa5;" 
d="M504 264h-318v66h318v227h-318v66h318l-436 800h88l243 -456q22 -42 41 -75.5t36.5 -65t34.5 -63t36 -67.5h2q19 38 36.5 71.5t35 66t35 65.5t36.5 70l242 454h84l-436 -800h317v-66h-317v-227h317v-66h-317v-264h-78v264z" />
    <glyph glyph-name="brokenbar" unicode="&#xa6;" horiz-adv-x="516" 
d="M219 332h78v-774h-78v774zM219 1511h78v-819h-78v819z" />
    <glyph glyph-name="section" unicode="&#xa7;" horiz-adv-x="1128" 
d="M260 -266q62 -15 128.5 -23t137.5 -8q129 0 208 45t79 154q0 51 -14.5 89t-51 71.5t-99 70.5t-156.5 90q-111 62 -180.5 109t-107.5 92t-51.5 94t-13.5 113q0 59 16.5 106t45 84t68.5 68t87 59q-59 43 -87.5 93.5t-28.5 136.5q0 69 26.5 120.5t75.5 84t116.5 49
t149.5 16.5q78 0 148.5 -10.5t126.5 -24.5l-15 -61q-61 14 -127.5 22t-138.5 8q-129 0 -208 -45t-79 -153q0 -54 14.5 -90.5t51.5 -70.5t98.5 -72t157.5 -89q111 -61 180.5 -108t107.5 -92.5t51 -94.5t13 -112q0 -60 -16.5 -107t-46 -85t-69.5 -68.5t-85 -57.5
q72 -51 94.5 -107.5t22.5 -121.5q0 -70 -26.5 -121t-76 -84t-117 -49t-149.5 -16q-78 0 -148.5 10t-125.5 24zM594 805q-62 35 -99.5 56.5t-78.5 45.5q-99 -55 -150 -117.5t-51 -154.5q0 -51 11.5 -91t45 -80t96 -83t167.5 -100q61 -35 99 -56.5t79 -46.5q98 55 149 117.5
t51 155.5q0 51 -11 91t-45 80t-96.5 83t-166.5 100z" />
    <glyph glyph-name="dieresis" unicode="&#xa8;" horiz-adv-x="1061" 
d="M401 1337q0 -34 -13 -48.5t-54 -14.5t-54.5 14.5t-13.5 48.5q0 35 13.5 49.5t54.5 14.5q39 0 53 -14.5t14 -49.5zM793 1337q0 -34 -13.5 -48.5t-54.5 -14.5t-54.5 14.5t-13.5 48.5q0 35 13.5 49.5t54.5 14.5q39 0 53.5 -14.5t14.5 -49.5z" />
    <glyph glyph-name="copyright" unicode="&#xa9;" horiz-adv-x="1942" 
d="M1241 291q-63 -17 -132 -28t-146 -11q-97 0 -176.5 21.5t-137 78t-89.5 154.5t-32 250q0 151 33 249.5t92.5 157t140 81t177.5 22.5q71 0 137 -9.5t133 -27.5l-12 -62q-70 17 -134.5 26t-129.5 9q-78 0 -143.5 -17.5t-114 -65.5t-76 -134t-27.5 -223t27.5 -224t77 -136.5
t116 -68t144.5 -18.5q63 0 129.5 10.5t130.5 26.5zM1757 756q0 -185 -54 -329t-155.5 -245.5t-247 -155t-329.5 -53.5q-185 0 -331 53.5t-247.5 154t-155 245.5t-53.5 330q0 184 53.5 328.5t155 246t247.5 154.5t331 53q184 0 330.5 -53t248 -153.5t154.5 -246t53 -329.5z
M1681 756q0 168 -47 302t-138 226t-223 141.5t-302 49.5t-302 -49.5t-223.5 -141.5t-138.5 -226t-47 -302q0 -170 47 -303.5t138.5 -225.5t223.5 -141t302 -49t302 49t223 141t138 225.5t47 303.5z" />
    <glyph glyph-name="ordfeminine" unicode="&#xaa;" horiz-adv-x="698" 
d="M522 1245q0 70 -38 104.5t-124 34.5q-59 0 -105 -6t-105 -18l-11 57q31 6 56.5 12.5t52 9.5t56.5 5t67 2q110 0 167.5 -48t57.5 -141v-544h-61l-9 71q-59 -39 -119.5 -65.5t-138.5 -26.5q-39 0 -74.5 11.5t-63.5 36t-45 61.5t-17 90q0 51 16 95t56 75t104.5 48t161.5 17
h116v119zM408 1065q-154 0 -210.5 -44t-56.5 -124q0 -76 39 -109.5t99 -33.5q61 0 118.5 24.5t124.5 69.5v217h-114zM63 555h551v-66h-551v66z" />
    <glyph glyph-name="guillemotleft" unicode="&#xab;" horiz-adv-x="850" 
d="M422 496l268 415l58 -32l-228 -381l230 -381l-60 -35zM82 496l274 426l58 -33l-234 -391l236 -392l-60 -34z" />
    <glyph glyph-name="logicalnot" unicode="&#xac;" 
d="M129 618h807v-323h-74v258h-733v65z" />
    <glyph glyph-name="uni00AD" unicode="&#xad;" horiz-adv-x="936" 
d="M193 567h550v-63h-550v63z" />
    <glyph glyph-name="registered" unicode="&#xae;" horiz-adv-x="983" 
d="M864 1077q0 -174 -99 -273t-273 -99q-175 0 -274 99t-99 273t99 273.5t274 99.5q174 0 273 -99.5t99 -273.5zM797 1077q0 150 -79 232t-226 82q-148 0 -227 -82t-79 -232q0 -149 79 -231t227 -82q147 0 226 82t79 231zM342 1303h154q86 0 127 -29t41 -88q0 -68 -36 -98.5
t-93 -34.5l147 -197h-84l-139 193h-51v-193h-66v447zM477 1102q74 0 96.5 18.5t22.5 57.5t-19.5 53t-84.5 14h-84v-143h69z" />
    <glyph glyph-name="macron" unicode="&#xaf;" horiz-adv-x="1122" 
d="M311 1362h510v-66h-510v66z" />
    <glyph glyph-name="degree" unicode="&#xb0;" horiz-adv-x="725" 
d="M616 1272q0 -60 -18 -107t-51 -81.5t-81 -53t-106 -18.5q-59 0 -105 18.5t-79 51t-50 79.5t-17 107q0 57 18 105t51 83t80 53.5t107 18.5q57 0 104 -18.5t80 -51.5t50 -81t17 -105zM541 1270q0 86 -46 140t-133 54q-86 0 -132 -54t-46 -140t46 -140.5t132 -54.5
q87 0 133 54.5t46 140.5z" />
    <glyph glyph-name="plusminus" unicode="&#xb1;" 
d="M119 723h385v401h74v-401h389v-66h-389v-405h-74v405h-385v66zM119 63h848v-63h-848v63z" />
    <glyph glyph-name="twosuperior" unicode="&#xb2;" horiz-adv-x="537" 
d="M43 760l186 209q72 80 111 144.5t39 127.5q0 64 -38 99t-103 35q-41 0 -76 -5.5t-82 -17.5l-10 59q47 13 90 19t90 6q96 0 151.5 -50t55.5 -136t-47.5 -158t-124.5 -158l-148 -158h338v-63h-432v47z" />
    <glyph glyph-name="threesuperior" unicode="&#xb3;" horiz-adv-x="518" 
d="M51 781q37 -9 70 -13t69 -4q93 0 137 40t44 118q0 33 -10.5 59.5t-36 45t-69.5 28.5t-114 10v60q103 0 156 40t53 99t-33.5 85t-99.5 26q-35 0 -67.5 -4.5t-69.5 -14.5l-12 59q41 11 79.5 16t77.5 5q101 0 151 -44t50 -122q0 -65 -41 -108t-92 -60q59 -10 106 -52
t47 -120q0 -106 -66.5 -166.5t-186.5 -60.5q-43 0 -78 4t-74 12z" />
    <glyph glyph-name="acute" unicode="&#xb4;" horiz-adv-x="782" 
d="M469 1497l66 -53l-230 -254l-47 39z" />
    <glyph glyph-name="mu" unicode="&#xb5;" horiz-adv-x="1196" 
d="M211 995h76v-682q0 -149 55 -209.5t176 -60.5q86 0 183.5 37t207.5 102v813h76v-995h-63l-9 113q-49 -29 -99 -52.5t-100 -42t-101.5 -28.5t-100.5 -10q-78 0 -133 19t-96 67l-2 -3q4 -71 5 -139.5t1 -128.5v-237h-76v1437z" />
    <glyph glyph-name="paragraph" unicode="&#xb6;" horiz-adv-x="1077" 
d="M543 467q-121 2 -199 26.5t-125 82t-65.5 154.5t-18.5 247q0 131 22.5 217t78 137t147.5 71.5t231 20.5h412v-59h-168v-1704h-74v1704h-168v-1704h-73v807z" />
    <glyph glyph-name="periodcentered" unicode="&#xb7;" horiz-adv-x="434" 
d="M293 532q0 -22 -3 -35.5t-11.5 -22.5t-23.5 -12t-38 -3q-22 0 -37.5 3t-24 12t-11.5 22.5t-3 35.5q0 21 3 35.5t11.5 23.5t24 12t37.5 3q23 0 38 -3t23.5 -12t11.5 -23.5t3 -35.5z" />
    <glyph glyph-name="cedilla" unicode="&#xb8;" horiz-adv-x="557" 
d="M227 0h68l-14 -125q94 -4 143 -40t49 -114q0 -79 -58.5 -128.5t-162.5 -49.5q-62 0 -121 15l8 61q29 -6 57.5 -9t63.5 -3q72 0 104.5 28.5t32.5 79.5q0 49 -31.5 75t-115.5 26h-43z" />
    <glyph glyph-name="onesuperior" unicode="&#xb9;" horiz-adv-x="401" 
d="M193 1334l-142 -78l-28 51l184 119h57v-713h-71v621z" />
    <glyph glyph-name="ordmasculine" unicode="&#xba;" horiz-adv-x="776" 
d="M682 1065q0 -115 -19.5 -188.5t-57.5 -116.5t-93 -59.5t-125 -16.5q-72 0 -126 15.5t-91 57.5t-56.5 114.5t-19.5 187.5q0 117 20.5 191.5t58.5 117.5t93.5 60.5t124.5 17.5q70 0 124 -16.5t91 -59.5t56.5 -116.5t19.5 -188.5zM608 1063q0 98 -12 161.5t-38 98.5
t-67.5 48t-101.5 13q-57 0 -99 -13t-68.5 -48t-40 -98.5t-13.5 -161.5t13.5 -159.5t40 -97.5t68.5 -48.5t99 -12.5q60 0 101.5 12.5t67.5 48.5t38 97.5t12 159.5zM135 555h510v-66h-510v66z" />
    <glyph glyph-name="guillemotright" unicode="&#xbb;" horiz-adv-x="850" 
d="M670 496l-236 391l60 35l274 -424l-274 -426l-58 32zM330 496l-230 381l60 34l268 -413l-268 -416l-58 33z" />
    <glyph glyph-name="onequarter" unicode="&#xbc;" horiz-adv-x="1126" 
d="M1004 1452l57 -35l-954 -1446l-58 35zM193 1334l-142 -78l-28 51l184 119h57v-713h-71v621zM615 213l297 500h94v-492h96v-63h-96v-158h-72v158h-319v55zM934 221v408l-241 -408h241z" />
    <glyph glyph-name="onehalf" unicode="&#xbd;" horiz-adv-x="1260" 
d="M1004 1452l57 -35l-954 -1446l-58 35zM193 1334l-142 -78l-28 51l184 119h57v-713h-71v621zM766 47l186 209q72 80 111 144.5t39 127.5q0 64 -38 99t-103 35q-41 0 -76 -5.5t-82 -17.5l-10 59q47 13 90 19t90 6q96 0 151.5 -50t55.5 -136t-47.5 -158t-124.5 -158
l-148 -158h338v-63h-432v47z" />
    <glyph glyph-name="threequarters" unicode="&#xbe;" horiz-adv-x="1251" 
d="M1129 1452l57 -35l-954 -1446l-58 35zM740 213l297 500h94v-492h96v-63h-96v-158h-72v158h-319v55zM1059 221v408l-241 -408h241zM88 781q37 -9 70 -13t69 -4q93 0 137 40t44 118q0 33 -10.5 59.5t-36 45t-69.5 28.5t-114 10v60q103 0 156 40t53 99t-33.5 85t-99.5 26
q-35 0 -67.5 -4.5t-69.5 -14.5l-12 59q41 11 79.5 16t77.5 5q101 0 151 -44t50 -122q0 -65 -41 -108t-92 -60q59 -10 106 -52t47 -120q0 -106 -66.5 -166.5t-186.5 -60.5q-43 0 -78 4t-74 12z" />
    <glyph glyph-name="questiondown" unicode="&#xbf;" horiz-adv-x="588" 
d="M395 743v-196q0 -53 -6 -96t-25.5 -85t-55.5 -90.5t-93 -111.5q-51 -55 -85 -98t-55.5 -82t-30.5 -79t-9 -91q0 -105 69.5 -156t208.5 -51q64 0 126.5 10t138.5 33l10 -62q-76 -22 -143.5 -33.5t-143.5 -11.5q-160 0 -251 65.5t-91 194.5q0 66 10.5 114t34 93t63 94.5
t99.5 114.5q43 47 71.5 85t47 75t26.5 77t8 91v196h76zM432 1026q0 -22 -3 -35.5t-11 -23t-23.5 -12.5t-38.5 -3q-47 0 -61 15.5t-14 58.5q0 21 3 35t11 23.5t23.5 12.5t37.5 3q45 0 60.5 -15.5t15.5 -58.5z" />
    <glyph glyph-name="Agrave" unicode="&#xc0;" horiz-adv-x="1186" 
d="M543 1423h96l510 -1423h-82l-152 424h-649l-149 -424h-80zM891 489l-143 404q-23 65 -43.5 123.5t-40 115t-38 112.5t-36.5 116h-2q-19 -60 -36 -116t-35.5 -112.5t-39 -115t-43.5 -123.5l-143 -404h600zM401 1812l313 -172l-28 -55l-326 154z" />
    <glyph glyph-name="Aacute" unicode="&#xc1;" horiz-adv-x="1186" 
d="M543 1423h96l510 -1423h-82l-152 424h-649l-149 -424h-80zM891 489l-143 404q-23 65 -43.5 123.5t-40 115t-38 112.5t-36.5 116h-2q-19 -60 -36 -116t-35.5 -112.5t-39 -115t-43.5 -123.5l-143 -404h600zM771 1812l40 -73l-325 -154l-29 55z" />
    <glyph glyph-name="Acircumflex" unicode="&#xc2;" horiz-adv-x="1186" 
d="M543 1423h96l510 -1423h-82l-152 424h-649l-149 -424h-80zM891 489l-143 404q-23 65 -43.5 123.5t-40 115t-38 112.5t-36.5 116h-2q-19 -60 -36 -116t-35.5 -112.5t-39 -115t-43.5 -123.5l-143 -404h600zM592 1806l260 -164l-37 -55l-229 131l-224 -131l-35 55z" />
    <glyph glyph-name="Atilde" unicode="&#xc3;" horiz-adv-x="1186" 
d="M543 1423h96l510 -1423h-82l-152 424h-649l-149 -424h-80zM891 489l-143 404q-23 65 -43.5 123.5t-40 115t-38 112.5t-36.5 116h-2q-19 -60 -36 -116t-35.5 -112.5t-39 -115t-43.5 -123.5l-143 -404h600zM294 1647q29 41 73 71.5t110 30.5q34 0 65 -12.5t58.5 -26.5
t54 -26.5t57.5 -12.5q45 0 74.5 21.5t56.5 52.5l45 -39q-29 -41 -73 -71.5t-109 -30.5q-35 0 -65.5 12t-58.5 26.5t-54.5 26.5t-57.5 12q-45 0 -74.5 -21.5t-56.5 -51.5z" />
    <glyph glyph-name="Adieresis" unicode="&#xc4;" horiz-adv-x="1186" 
d="M543 1423h96l510 -1423h-82l-152 424h-649l-149 -424h-80zM891 489l-143 404q-23 65 -43.5 123.5t-40 115t-38 112.5t-36.5 116h-2q-19 -60 -36 -116t-35.5 -112.5t-39 -115t-43.5 -123.5l-143 -404h600zM417 1681q0 -18 -3 -30.5t-11 -20.5t-21.5 -11t-33.5 -3
q-21 0 -34 3t-21.5 11t-11.5 20.5t-3 30.5q0 37 14.5 51.5t55.5 14.5t55 -14.5t14 -51.5zM901 1681q0 -18 -3 -30.5t-11.5 -20.5t-21.5 -11t-34 -3q-20 0 -33.5 3t-21.5 11t-11.5 20.5t-3.5 30.5q0 37 14.5 51.5t55.5 14.5t55.5 -14.5t14.5 -51.5z" />
    <glyph glyph-name="Aring" unicode="&#xc5;" horiz-adv-x="1186" 
d="M543 1423h96l510 -1423h-82l-152 424h-649l-149 -424h-80zM891 489l-143 404q-23 65 -43.5 123.5t-40 115t-38 112.5t-36.5 116h-2q-19 -60 -36 -116t-35.5 -112.5t-39 -115t-43.5 -123.5l-143 -404h600zM783 1683q0 -38 -14.5 -71t-40 -57.5t-61.5 -38t-79 -13.5
t-79 13.5t-61.5 38t-39.5 57.5t-14 71q0 78 54 129.5t140 51.5q43 0 79 -13.5t61.5 -38t40 -57.5t14.5 -72zM713 1683q0 56 -33 88.5t-92 32.5t-92 -32.5t-33 -88.5q0 -55 33 -87.5t92 -32.5t92 32.5t33 87.5z" />
    <glyph glyph-name="AE" unicode="&#xc6;" horiz-adv-x="1679" 
d="M797 1423h764v-65h-639v-582h589v-65h-589v-645h639v-66h-717v424h-578l-260 -424h-88zM844 489v867h-6l-533 -867h539z" />
    <glyph glyph-name="Ccedilla" unicode="&#xc7;" horiz-adv-x="1067" 
d="M985 25q-65 -17 -142 -31t-159 -14h-47l-10 -105q98 -4 149 -40t51 -114q0 -79 -61 -128.5t-168 -49.5q-31 0 -60.5 3t-62.5 12l8 63q29 -6 58.5 -9t64.5 -3q72 0 107 27.5t35 78.5q0 49 -34 74t-116 25h-47l16 170q-106 12 -184 52t-128 124t-74.5 218t-24.5 331
q0 227 35.5 370.5t104.5 224t169 110.5t229 30q82 0 158 -12.5t133 -28.5l-12 -64q-60 17 -134.5 28t-150.5 11q-108 0 -192 -24.5t-142.5 -96t-89.5 -201.5t-31 -341q0 -213 29 -344t86.5 -204t142 -97.5t197.5 -24.5q72 0 147.5 13.5t137.5 29.5z" />
    <glyph glyph-name="Egrave" unicode="&#xc8;" horiz-adv-x="1055" 
d="M219 1423h717v-65h-639v-582h590v-65h-590v-645h639v-66h-717v1423zM368 1812l313 -172l-28 -55l-326 154z" />
    <glyph glyph-name="Eacute" unicode="&#xc9;" horiz-adv-x="1055" 
d="M219 1423h717v-65h-639v-582h590v-65h-590v-645h639v-66h-717v1423zM793 1812l40 -73l-325 -154l-29 55z" />
    <glyph glyph-name="Ecircumflex" unicode="&#xca;" horiz-adv-x="1055" 
d="M219 1423h717v-65h-639v-582h590v-65h-590v-645h639v-66h-717v1423zM586 1806l260 -164l-37 -55l-229 131l-224 -131l-35 55z" />
    <glyph glyph-name="Edieresis" unicode="&#xcb;" horiz-adv-x="1055" 
d="M219 1423h717v-65h-639v-582h590v-65h-590v-645h639v-66h-717v1423zM401 1681q0 -18 -3 -30.5t-11 -20.5t-21.5 -11t-33.5 -3q-21 0 -34 3t-21.5 11t-11.5 20.5t-3 30.5q0 37 14.5 51.5t55.5 14.5t55 -14.5t14 -51.5zM885 1681q0 -18 -3 -30.5t-11.5 -20.5t-21.5 -11
t-34 -3q-20 0 -33.5 3t-21.5 11t-11.5 20.5t-3.5 30.5q0 37 14.5 51.5t55.5 14.5t55.5 -14.5t14.5 -51.5z" />
    <glyph glyph-name="Igrave" unicode="&#xcc;" horiz-adv-x="516" 
d="M219 1423h78v-1423h-78v1423zM87 1812l313 -172l-28 -55l-326 154z" />
    <glyph glyph-name="Iacute" unicode="&#xcd;" horiz-adv-x="516" 
d="M219 1423h78v-1423h-78v1423zM436 1812l40 -73l-325 -154l-29 55z" />
    <glyph glyph-name="Icircumflex" unicode="&#xce;" horiz-adv-x="516" 
d="M219 1423h78v-1423h-78v1423zM261 1806l260 -164l-37 -55l-229 131l-224 -131l-35 55z" />
    <glyph glyph-name="Idieresis" unicode="&#xcf;" horiz-adv-x="516" 
d="M219 1423h78v-1423h-78v1423zM147 1681q0 -36 -14.5 -50.5t-55.5 -14.5t-55 14.5t-14 50.5q0 37 14 51.5t55 14.5t55.5 -14.5t14.5 -51.5zM511 1681q0 -36 -14 -50.5t-55 -14.5t-55.5 14.5t-14.5 50.5q0 37 14.5 51.5t55.5 14.5t55 -14.5t14 -51.5z" />
    <glyph glyph-name="Eth" unicode="&#xd0;" horiz-adv-x="1356" 
d="M240 723h-203v65h203v635h407q148 0 252.5 -26.5t171 -103t98 -214t31.5 -358.5q0 -219 -32.5 -359.5t-102.5 -220.5t-176.5 -110.5t-253.5 -30.5h-395v723zM641 66q125 0 216 25.5t150.5 96t87 197.5t27.5 330q0 205 -26.5 330.5t-85 195.5t-149.5 93.5t-220 23.5h-324
v-570h402v-65h-402v-657h324z" />
    <glyph glyph-name="Ntilde" unicode="&#xd1;" horiz-adv-x="1384" 
d="M219 1423h103l555 -954q26 -47 53.5 -94t54.5 -93t53.5 -92.5t55.5 -95.5h2q-4 94 -5 187.5t-1 187.5v954h75v-1423h-106l-553 954q-29 47 -55.5 94.5t-52 93.5t-53.5 92t-54 95h-4q4 -94 6 -187t2 -188v-954h-76v1423zM405 1647q29 41 73 71.5t110 30.5q34 0 65 -12.5
t58.5 -26.5t54 -26.5t57.5 -12.5q45 0 74.5 21.5t56.5 52.5l45 -39q-29 -41 -73 -71.5t-109 -30.5q-35 0 -65.5 12t-58.5 26.5t-54.5 26.5t-57.5 12q-45 0 -74.5 -21.5t-56.5 -51.5z" />
    <glyph glyph-name="Ograve" unicode="&#xd2;" horiz-adv-x="1378" 
d="M1223 715q0 -232 -35 -377t-103.5 -226t-169 -110t-231.5 -29t-229.5 28t-165 107.5t-100 223t-33.5 375.5q0 233 34.5 377.5t103 226.5t169 110.5t231.5 28.5t229.5 -27.5t165 -107.5t100.5 -223.5t34 -376.5zM1145 709q0 215 -30 348t-88 205.5t-143 97t-196 24.5
q-110 0 -194 -23.5t-142.5 -96t-88.5 -204.5t-30 -347t30 -347.5t88.5 -205t142.5 -97t194 -24.5q111 0 196 23.5t143 96t88 204t30 346.5zM477 1812l313 -172l-28 -55l-326 154z" />
    <glyph glyph-name="Oacute" unicode="&#xd3;" horiz-adv-x="1378" 
d="M1223 715q0 -232 -35 -377t-103.5 -226t-169 -110t-231.5 -29t-229.5 28t-165 107.5t-100 223t-33.5 375.5q0 233 34.5 377.5t103 226.5t169 110.5t231.5 28.5t229.5 -27.5t165 -107.5t100.5 -223.5t34 -376.5zM1145 709q0 215 -30 348t-88 205.5t-143 97t-196 24.5
q-110 0 -194 -23.5t-142.5 -96t-88.5 -204.5t-30 -347t30 -347.5t88.5 -205t142.5 -97t194 -24.5q111 0 196 23.5t143 96t88 204t30 346.5zM912 1812l40 -73l-325 -154l-29 55z" />
    <glyph glyph-name="Ocircumflex" unicode="&#xd4;" horiz-adv-x="1378" 
d="M1223 715q0 -232 -35 -377t-103.5 -226t-169 -110t-231.5 -29t-229.5 28t-165 107.5t-100 223t-33.5 375.5q0 233 34.5 377.5t103 226.5t169 110.5t231.5 28.5t229.5 -27.5t165 -107.5t100.5 -223.5t34 -376.5zM1145 709q0 215 -30 348t-88 205.5t-143 97t-196 24.5
q-110 0 -194 -23.5t-142.5 -96t-88.5 -204.5t-30 -347t30 -347.5t88.5 -205t142.5 -97t194 -24.5q111 0 196 23.5t143 96t88 204t30 346.5zM691 1806l260 -164l-37 -55l-229 131l-224 -131l-35 55z" />
    <glyph glyph-name="Otilde" unicode="&#xd5;" horiz-adv-x="1378" 
d="M1223 715q0 -232 -35 -377t-103.5 -226t-169 -110t-231.5 -29t-229.5 28t-165 107.5t-100 223t-33.5 375.5q0 233 34.5 377.5t103 226.5t169 110.5t231.5 28.5t229.5 -27.5t165 -107.5t100.5 -223.5t34 -376.5zM1145 709q0 215 -30 348t-88 205.5t-143 97t-196 24.5
q-110 0 -194 -23.5t-142.5 -96t-88.5 -204.5t-30 -347t30 -347.5t88.5 -205t142.5 -97t194 -24.5q111 0 196 23.5t143 96t88 204t30 346.5zM375 1647q29 41 73 71.5t110 30.5q34 0 65 -12.5t58.5 -26.5t54 -26.5t57.5 -12.5q45 0 74.5 21.5t56.5 52.5l45 -39
q-29 -41 -73 -71.5t-109 -30.5q-35 0 -65.5 12t-58.5 26.5t-54.5 26.5t-57.5 12q-45 0 -74.5 -21.5t-56.5 -51.5z" />
    <glyph glyph-name="Odieresis" unicode="&#xd6;" horiz-adv-x="1378" 
d="M1223 715q0 -232 -35 -377t-103.5 -226t-169 -110t-231.5 -29t-229.5 28t-165 107.5t-100 223t-33.5 375.5q0 233 34.5 377.5t103 226.5t169 110.5t231.5 28.5t229.5 -27.5t165 -107.5t100.5 -223.5t34 -376.5zM1145 709q0 215 -30 348t-88 205.5t-143 97t-196 24.5
q-110 0 -194 -23.5t-142.5 -96t-88.5 -204.5t-30 -347t30 -347.5t88.5 -205t142.5 -97t194 -24.5q111 0 196 23.5t143 96t88 204t30 346.5zM518 1681q0 -18 -3 -30.5t-11 -20.5t-21.5 -11t-33.5 -3q-21 0 -34 3t-21.5 11t-11.5 20.5t-3 30.5q0 37 14.5 51.5t55.5 14.5
t55 -14.5t14 -51.5zM1002 1681q0 -18 -3 -30.5t-11.5 -20.5t-21.5 -11t-34 -3q-20 0 -33.5 3t-21.5 11t-11.5 20.5t-3.5 30.5q0 37 14.5 51.5t55.5 14.5t55.5 -14.5t14.5 -51.5z" />
    <glyph glyph-name="multiply" unicode="&#xd7;" 
d="M494 586l-365 360l49 49l363 -362l364 364l49 -49l-366 -362l368 -363l-49 -49l-364 365l-367 -367l-49 49z" />
    <glyph glyph-name="Oslash" unicode="&#xd8;" horiz-adv-x="1378" 
d="M301 94q-29 33 -55.5 79t-47 116.5t-31.5 172t-11 245.5q0 233 34.5 378.5t103 226.5t169 109.5t231.5 28.5q119 0 188.5 -16.5t125.5 -47.5l100 187l66 -31l-109 -201q39 -41 68.5 -95t49 -129t30 -173t10.5 -229q0 -234 -35 -378t-103.5 -225t-169 -110t-231.5 -29
q-109 0 -185.5 15.5t-142.5 58.5l-106 -194l-64 28zM969 1315q-39 31 -104.5 50t-176.5 19q-110 0 -194 -23.5t-142.5 -96t-88.5 -204.5t-30 -347q0 -123 9.5 -213t25 -152.5t36 -104.5t40.5 -71zM393 117q58 -45 127.5 -61.5t167.5 -16.5q111 0 196 23.5t143 95t88 204
t30 347.5q0 116 -9.5 206.5t-24.5 157t-37.5 113.5t-49.5 80z" />
    <glyph glyph-name="Ugrave" unicode="&#xd9;" horiz-adv-x="1333" 
d="M256 1423v-917q0 -111 16.5 -198t61.5 -146.5t126 -91t210 -31.5t208.5 31.5t124 92t59.5 147.5t15 198v915h78v-909q0 -129 -23.5 -229.5t-80 -169t-150.5 -105.5t-237 -37q-144 0 -237 34t-148.5 100.5t-78 165t-22.5 227.5v923h78zM450 1812l313 -172l-28 -55
l-326 154z" />
    <glyph glyph-name="Uacute" unicode="&#xda;" horiz-adv-x="1333" 
d="M256 1423v-917q0 -111 16.5 -198t61.5 -146.5t126 -91t210 -31.5t208.5 31.5t124 92t59.5 147.5t15 198v915h78v-909q0 -129 -23.5 -229.5t-80 -169t-150.5 -105.5t-237 -37q-144 0 -237 34t-148.5 100.5t-78 165t-22.5 227.5v923h78zM887 1812l40 -73l-325 -154l-29 55z
" />
    <glyph glyph-name="Ucircumflex" unicode="&#xdb;" horiz-adv-x="1333" 
d="M256 1423v-917q0 -111 16.5 -198t61.5 -146.5t126 -91t210 -31.5t208.5 31.5t124 92t59.5 147.5t15 198v915h78v-909q0 -129 -23.5 -229.5t-80 -169t-150.5 -105.5t-237 -37q-144 0 -237 34t-148.5 100.5t-78 165t-22.5 227.5v923h78zM672 1806l260 -164l-37 -55
l-229 131l-224 -131l-35 55z" />
    <glyph glyph-name="Udieresis" unicode="&#xdc;" horiz-adv-x="1333" 
d="M256 1423v-917q0 -111 16.5 -198t61.5 -146.5t126 -91t210 -31.5t208.5 31.5t124 92t59.5 147.5t15 198v915h78v-909q0 -129 -23.5 -229.5t-80 -169t-150.5 -105.5t-237 -37q-144 0 -237 34t-148.5 100.5t-78 165t-22.5 227.5v923h78zM491 1681q0 -18 -3 -30.5t-11 -20.5
t-21.5 -11t-33.5 -3q-21 0 -34 3t-21.5 11t-11.5 20.5t-3 30.5q0 37 14.5 51.5t55.5 14.5t55 -14.5t14 -51.5zM975 1681q0 -18 -3 -30.5t-11.5 -20.5t-21.5 -11t-34 -3q-20 0 -33.5 3t-21.5 11t-11.5 20.5t-3.5 30.5q0 37 14.5 51.5t55.5 14.5t55.5 -14.5t14.5 -51.5z" />
    <glyph glyph-name="Yacute" unicode="&#xdd;" horiz-adv-x="1024" 
d="M473 582l-457 841h88l271 -497q22 -41 39.5 -75t34 -65.5t33 -62.5t34.5 -68h2q19 37 35 71t32.5 65.5t34 65.5t37.5 71l267 495h84l-457 -841v-582h-78v582zM713 1812l40 -73l-325 -154l-29 55z" />
    <glyph glyph-name="Thorn" unicode="&#xde;" horiz-adv-x="1063" 
d="M219 1423h78v-321h272q111 0 191 -14.5t132 -53.5t77.5 -109.5t25.5 -181.5q0 -106 -28.5 -182t-85 -123t-140.5 -69.5t-194 -22.5h-250v-346h-78v1423zM553 412q186 0 275.5 73.5t89.5 251.5q0 92 -19.5 150.5t-62.5 91.5t-111 45t-162 12h-266v-624h256z" />
    <glyph glyph-name="germandbls" unicode="&#xdf;" horiz-adv-x="1075" 
d="M211 1194q0 90 20.5 154.5t61.5 106.5t103.5 62.5t146.5 20.5q155 0 227 -64.5t72 -166.5q0 -47 -10.5 -83t-29 -68t-46 -63.5t-62.5 -68.5q-30 -31 -56 -57.5t-44.5 -53t-29.5 -55.5t-11 -63q0 -35 10 -60.5t35 -49t64.5 -49.5t99.5 -58q74 -41 124 -75t80.5 -69t44 -76
t13.5 -98q0 -127 -91 -202.5t-251 -75.5q-59 0 -119.5 8t-113.5 24l12 62q55 -15 112.5 -23t112.5 -8q135 0 198.5 59.5t63.5 151.5q0 41 -8 71.5t-31.5 59.5t-67.5 58.5t-116 70.5q-63 35 -109.5 63.5t-77 59.5t-46 66.5t-15.5 85.5q0 38 12.5 72t34 67t51 64.5t64.5 68.5
q33 33 56.5 60.5t39 54t23.5 56.5t8 66q0 78 -56.5 126.5t-170.5 48.5q-131 0 -191.5 -60.5t-60.5 -212.5v-1202h-76v1194z" />
    <glyph glyph-name="agrave" unicode="&#xe0;" horiz-adv-x="1006" 
d="M737 717q0 119 -57 176t-174 57q-76 0 -141.5 -9t-135.5 -26l-8 62q74 16 145.5 26.5t151.5 10.5q74 0 129 -19.5t92 -57.5t55.5 -92t18.5 -124v-721h-63l-9 100q-82 -47 -162.5 -83.5t-185.5 -36.5q-117 0 -193.5 65.5t-76.5 206.5q0 80 25.5 140.5t84 100t154.5 60
t240 20.5h110v144zM629 510q-127 0 -210 -15.5t-132 -46t-68.5 -78.5t-19.5 -112q0 -115 56 -165t144 -50q90 0 166 34t172 93v340h-108zM385 1497l210 -268l-47 -39l-229 254z" />
    <glyph glyph-name="aacute" unicode="&#xe1;" horiz-adv-x="1006" 
d="M737 717q0 119 -57 176t-174 57q-76 0 -141.5 -9t-135.5 -26l-8 62q74 16 145.5 26.5t151.5 10.5q74 0 129 -19.5t92 -57.5t55.5 -92t18.5 -124v-721h-63l-9 100q-82 -47 -162.5 -83.5t-185.5 -36.5q-117 0 -193.5 65.5t-76.5 206.5q0 80 25.5 140.5t84 100t154.5 60
t240 20.5h110v144zM629 510q-127 0 -210 -15.5t-132 -46t-68.5 -78.5t-19.5 -112q0 -115 56 -165t144 -50q90 0 166 34t172 93v340h-108zM672 1497l66 -53l-230 -254l-47 39z" />
    <glyph glyph-name="acircumflex" unicode="&#xe2;" horiz-adv-x="1006" 
d="M737 717q0 119 -57 176t-174 57q-76 0 -141.5 -9t-135.5 -26l-8 62q74 16 145.5 26.5t151.5 10.5q74 0 129 -19.5t92 -57.5t55.5 -92t18.5 -124v-721h-63l-9 100q-82 -47 -162.5 -83.5t-185.5 -36.5q-117 0 -193.5 65.5t-76.5 206.5q0 80 25.5 140.5t84 100t154.5 60
t240 20.5h110v144zM629 510q-127 0 -210 -15.5t-132 -46t-68.5 -78.5t-19.5 -112q0 -115 56 -165t144 -50q90 0 166 34t172 93v340h-108zM513 1491l237 -252l-49 -47l-190 197l-187 -195l-47 43z" />
    <glyph glyph-name="atilde" unicode="&#xe3;" horiz-adv-x="1006" 
d="M737 717q0 119 -57 176t-174 57q-76 0 -141.5 -9t-135.5 -26l-8 62q74 16 145.5 26.5t151.5 10.5q74 0 129 -19.5t92 -57.5t55.5 -92t18.5 -124v-721h-63l-9 100q-82 -47 -162.5 -83.5t-185.5 -36.5q-117 0 -193.5 65.5t-76.5 206.5q0 80 25.5 140.5t84 100t154.5 60
t240 20.5h110v144zM629 510q-127 0 -210 -15.5t-132 -46t-68.5 -78.5t-19.5 -112q0 -115 56 -165t144 -50q90 0 166 34t172 93v340h-108zM235 1270q12 30 27.5 56t36 46.5t47 31.5t59.5 11q36 0 67 -18.5t59.5 -40t55 -39t55.5 -17.5q39 0 64.5 31t46.5 78l51 -29
q-12 -30 -27.5 -56t-36 -46.5t-47 -31.5t-59.5 -11q-37 0 -67.5 17.5t-59.5 39t-55.5 40t-55.5 18.5q-39 0 -64.5 -31t-45.5 -78z" />
    <glyph glyph-name="adieresis" unicode="&#xe4;" horiz-adv-x="1006" 
d="M737 717q0 119 -57 176t-174 57q-76 0 -141.5 -9t-135.5 -26l-8 62q74 16 145.5 26.5t151.5 10.5q74 0 129 -19.5t92 -57.5t55.5 -92t18.5 -124v-721h-63l-9 100q-82 -47 -162.5 -83.5t-185.5 -36.5q-117 0 -193.5 65.5t-76.5 206.5q0 80 25.5 140.5t84 100t154.5 60
t240 20.5h110v144zM629 510q-127 0 -210 -15.5t-132 -46t-68.5 -78.5t-19.5 -112q0 -115 56 -165t144 -50q90 0 166 34t172 93v340h-108zM375 1337q0 -34 -13 -48.5t-54 -14.5t-54.5 14.5t-13.5 48.5q0 35 13.5 49.5t54.5 14.5q39 0 53 -14.5t14 -49.5zM767 1337
q0 -34 -13.5 -48.5t-54.5 -14.5t-54.5 14.5t-13.5 48.5q0 35 13.5 49.5t54.5 14.5q39 0 53.5 -14.5t14.5 -49.5z" />
    <glyph glyph-name="aring" unicode="&#xe5;" horiz-adv-x="1006" 
d="M737 717q0 119 -57 176t-174 57q-76 0 -141.5 -9t-135.5 -26l-8 62q74 16 145.5 26.5t151.5 10.5q74 0 129 -19.5t92 -57.5t55.5 -92t18.5 -124v-721h-63l-9 100q-82 -47 -162.5 -83.5t-185.5 -36.5q-117 0 -193.5 65.5t-76.5 206.5q0 80 25.5 140.5t84 100t154.5 60
t240 20.5h110v144zM629 510q-127 0 -210 -15.5t-132 -46t-68.5 -78.5t-19.5 -112q0 -115 56 -165t144 -50q90 0 166 34t172 93v340h-108zM709 1337q0 -41 -14.5 -75.5t-40 -60t-60.5 -40t-76 -14.5t-76 14.5t-60.5 40t-39.5 60t-14 75.5t14 76t39.5 60.5t60.5 40t76 14.5
t76 -14.5t60.5 -40t40 -60.5t14.5 -76zM639 1337q0 60 -32 95.5t-89 35.5t-89 -35.5t-32 -95.5q0 -59 32 -95t89 -36t89 36t32 95z" />
    <glyph glyph-name="ae" unicode="&#xe6;" horiz-adv-x="1618" 
d="M629 506q-127 0 -210 -14.5t-132 -45t-68.5 -77.5t-19.5 -111q0 -115 56 -165t144 -50t170 31.5t168 115.5v316h-108zM737 717q0 119 -57 176t-174 57q-76 0 -141.5 -9t-135.5 -26l-8 62q74 16 145.5 26.5t151.5 10.5q68 0 116 -15.5t81 -40t51 -57.5t29 -70
q14 35 36.5 70t61.5 61.5t96.5 43t143.5 16.5q90 0 154.5 -20.5t106.5 -74t61.5 -144.5t19.5 -232v-22.5v-22.5h-662q0 -152 19.5 -242t59.5 -139t100.5 -64.5t146.5 -15.5q78 0 143.5 10.5t130.5 26.5l10 -62q-71 -16 -146 -27t-157 -11q-84 0 -138 13t-91 35.5t-59.5 52.5
t-40.5 64q-54 -47 -102 -78.5t-95 -51t-96 -28.5t-105 -9q-117 0 -193.5 65.5t-76.5 206.5q0 80 25.5 139.5t84 99t154.5 59t240 19.5h110v148zM1397 569q-2 121 -18.5 197t-50.5 119t-84 58t-120 15q-69 0 -124.5 -16t-95.5 -59t-62.5 -119t-26.5 -195h582z" />
    <glyph glyph-name="ccedilla" unicode="&#xe7;" horiz-adv-x="842" 
d="M750 14q-25 -6 -52.5 -12t-56.5 -11t-56.5 -7t-54.5 -2h-28l-13 -107q95 -4 144 -40t49 -114q0 -79 -58.5 -128.5t-162.5 -49.5q-62 0 -121 15l8 61q29 -6 57.5 -9t63.5 -3q72 0 104.5 28.5t32.5 79.5q0 49 -31.5 75t-115.5 26h-43l18 172q-67 10 -120.5 37.5t-91.5 84
t-58.5 150.5t-20.5 236q0 157 29 257.5t82 159t126 80t163 21.5q57 0 113.5 -9.5t103.5 -21.5l-10 -61q-50 12 -104 20t-111 8q-70 0 -127.5 -16t-99.5 -64.5t-65.5 -137.5t-23.5 -234q0 -142 20.5 -230t60.5 -138t98.5 -67.5t136.5 -17.5q47 0 101 8t103 23z" />
    <glyph glyph-name="egrave" unicode="&#xe8;" horiz-adv-x="1024" 
d="M829 20q-71 -16 -144 -27t-148 -11q-88 0 -160 18t-124 73.5t-81 156t-29 266.5q0 159 28 260.5t79 161t125 82t164 22.5t154.5 -20.5t106.5 -74t61.5 -144.5t19.5 -232v-21.5v-27.5h-662q0 -152 22.5 -242t65.5 -137t105.5 -62.5t142.5 -15.5q72 0 135.5 10.5
t128.5 26.5zM803 565q-2 123 -18.5 200t-50.5 120t-84 58t-120 15q-69 0 -124.5 -16t-95.5 -60t-62.5 -121t-26.5 -196h582zM381 1497l210 -268l-47 -39l-229 254z" />
    <glyph glyph-name="eacute" unicode="&#xe9;" horiz-adv-x="1024" 
d="M829 20q-71 -16 -144 -27t-148 -11q-88 0 -160 18t-124 73.5t-81 156t-29 266.5q0 159 28 260.5t79 161t125 82t164 22.5t154.5 -20.5t106.5 -74t61.5 -144.5t19.5 -232v-21.5v-27.5h-662q0 -152 22.5 -242t65.5 -137t105.5 -62.5t142.5 -15.5q72 0 135.5 10.5
t128.5 26.5zM803 565q-2 123 -18.5 200t-50.5 120t-84 58t-120 15q-69 0 -124.5 -16t-95.5 -60t-62.5 -121t-26.5 -196h582zM662 1497l66 -53l-230 -254l-47 39z" />
    <glyph glyph-name="ecircumflex" unicode="&#xea;" horiz-adv-x="1024" 
d="M829 20q-71 -16 -144 -27t-148 -11q-88 0 -160 18t-124 73.5t-81 156t-29 266.5q0 159 28 260.5t79 161t125 82t164 22.5t154.5 -20.5t106.5 -74t61.5 -144.5t19.5 -232v-21.5v-27.5h-662q0 -152 22.5 -242t65.5 -137t105.5 -62.5t142.5 -15.5q72 0 135.5 10.5
t128.5 26.5zM803 565q-2 123 -18.5 200t-50.5 120t-84 58t-120 15q-69 0 -124.5 -16t-95.5 -60t-62.5 -121t-26.5 -196h582zM515 1491l237 -252l-49 -47l-190 197l-187 -195l-47 43z" />
    <glyph glyph-name="edieresis" unicode="&#xeb;" horiz-adv-x="1024" 
d="M829 20q-71 -16 -144 -27t-148 -11q-88 0 -160 18t-124 73.5t-81 156t-29 266.5q0 159 28 260.5t79 161t125 82t164 22.5t154.5 -20.5t106.5 -74t61.5 -144.5t19.5 -232v-21.5v-27.5h-662q0 -152 22.5 -242t65.5 -137t105.5 -62.5t142.5 -15.5q72 0 135.5 10.5
t128.5 26.5zM803 565q-2 123 -18.5 200t-50.5 120t-84 58t-120 15q-69 0 -124.5 -16t-95.5 -60t-62.5 -121t-26.5 -196h582zM384 1337q0 -34 -13 -48.5t-54 -14.5t-54.5 14.5t-13.5 48.5q0 35 13.5 49.5t54.5 14.5q39 0 53 -14.5t14 -49.5zM776 1337q0 -34 -13.5 -48.5
t-54.5 -14.5t-54.5 14.5t-13.5 48.5q0 35 13.5 49.5t54.5 14.5q39 0 53.5 -14.5t14.5 -49.5z" />
    <glyph glyph-name="igrave" unicode="&#xec;" horiz-adv-x="498" 
d="M211 995h76v-995h-76v995zM145 1497l210 -268l-47 -39l-229 254z" />
    <glyph glyph-name="iacute" unicode="&#xed;" horiz-adv-x="498" 
d="M211 995h76v-995h-76v995zM364 1497l66 -53l-230 -254l-47 39z" />
    <glyph glyph-name="icircumflex" unicode="&#xee;" horiz-adv-x="498" 
d="M211 995h76v-995h-76v995zM249 1491l237 -252l-49 -47l-190 197l-187 -195l-47 43z" />
    <glyph glyph-name="idieresis" unicode="&#xef;" horiz-adv-x="498" 
d="M211 995h76v-995h-76v995zM160 1337q0 -34 -13 -48.5t-54 -14.5t-54.5 14.5t-13.5 48.5q0 35 13.5 49.5t54.5 14.5q39 0 53 -14.5t14 -49.5zM474 1337q0 -34 -13.5 -48.5t-54.5 -14.5t-54 14.5t-13 48.5q0 35 13 49.5t54 14.5q39 0 53.5 -14.5t14.5 -49.5z" />
    <glyph glyph-name="eth" unicode="&#xf0;" horiz-adv-x="1083" 
d="M596 1356q-23 28 -59.5 70t-65.5 73l61 37q37 -35 72 -74t60 -71l200 112l37 -51l-201 -113q121 -168 189.5 -387t68.5 -452q0 -154 -27.5 -256.5t-79.5 -161.5t-129 -84t-173 -25t-172 23.5t-128 82t-79 160t-27 257.5q0 151 28 252.5t80 162t126 86t166 25.5
q78 0 148.5 -18.5t115.5 -42.5l2 2q-31 88 -75 176t-99 166l-205 -113l-37 51zM883 496q0 61 -2 109t-8.5 92t-16.5 87t-25 93q-61 34 -135.5 57.5t-156.5 23.5q-74 0 -133.5 -19t-100.5 -70.5t-63.5 -140.5t-22.5 -228q0 -146 22.5 -236t65.5 -140t105.5 -68.5t140.5 -18.5
t139.5 18.5t103.5 68.5t64.5 140t22.5 232z" />
    <glyph glyph-name="ntilde" unicode="&#xf1;" horiz-adv-x="1178" 
d="M211 995h63l9 -112q98 55 200.5 94t200.5 39q154 0 227.5 -77t73.5 -251v-688h-76v682q0 149 -55 209.5t-176 60.5q-86 0 -183.5 -36.5t-207.5 -102.5v-813h-76v995zM315 1270q12 30 27.5 56t36 46.5t47 31.5t59.5 11q36 0 67 -18.5t59.5 -40t55 -39t55.5 -17.5
q39 0 64.5 31t46.5 78l51 -29q-12 -30 -27.5 -56t-36 -46.5t-47 -31.5t-59.5 -11q-37 0 -67.5 17.5t-59.5 39t-55.5 40t-55.5 18.5q-39 0 -64.5 -31t-45.5 -78z" />
    <glyph glyph-name="ograve" unicode="&#xf2;" horiz-adv-x="1102" 
d="M958 500q0 -160 -27.5 -261.5t-80.5 -161t-129 -82t-172 -22.5t-172 21.5t-128 80t-79 160t-27 261.5q0 159 28 260.5t81 161t129 82t172 22.5t172 -21.5t128 -80t78.5 -160t26.5 -260.5zM883 496q0 147 -22.5 238t-65.5 140.5t-105.5 66.5t-140.5 17t-139.5 -16
t-103.5 -65.5t-64.5 -139.5t-22.5 -237q0 -148 22.5 -239t65.5 -140t105.5 -66.5t140.5 -17.5t139.5 16.5t103.5 65.5t64.5 139t22.5 238zM410 1497l210 -268l-47 -39l-229 254z" />
    <glyph glyph-name="oacute" unicode="&#xf3;" horiz-adv-x="1102" 
d="M958 500q0 -160 -27.5 -261.5t-80.5 -161t-129 -82t-172 -22.5t-172 21.5t-128 80t-79 160t-27 261.5q0 159 28 260.5t81 161t129 82t172 22.5t172 -21.5t128 -80t78.5 -160t26.5 -260.5zM883 496q0 147 -22.5 238t-65.5 140.5t-105.5 66.5t-140.5 17t-139.5 -16
t-103.5 -65.5t-64.5 -139.5t-22.5 -237q0 -148 22.5 -239t65.5 -140t105.5 -66.5t140.5 -17.5t139.5 16.5t103.5 65.5t64.5 139t22.5 238zM686 1497l66 -53l-230 -254l-47 39z" />
    <glyph glyph-name="ocircumflex" unicode="&#xf4;" horiz-adv-x="1102" 
d="M958 500q0 -160 -27.5 -261.5t-80.5 -161t-129 -82t-172 -22.5t-172 21.5t-128 80t-79 160t-27 261.5q0 159 28 260.5t81 161t129 82t172 22.5t172 -21.5t128 -80t78.5 -160t26.5 -260.5zM883 496q0 147 -22.5 238t-65.5 140.5t-105.5 66.5t-140.5 17t-139.5 -16
t-103.5 -65.5t-64.5 -139.5t-22.5 -237q0 -148 22.5 -239t65.5 -140t105.5 -66.5t140.5 -17.5t139.5 16.5t103.5 65.5t64.5 139t22.5 238zM547 1491l237 -252l-49 -47l-190 197l-187 -195l-47 43z" />
    <glyph glyph-name="otilde" unicode="&#xf5;" horiz-adv-x="1102" 
d="M958 500q0 -160 -27.5 -261.5t-80.5 -161t-129 -82t-172 -22.5t-172 21.5t-128 80t-79 160t-27 261.5q0 159 28 260.5t81 161t129 82t172 22.5t172 -21.5t128 -80t78.5 -160t26.5 -260.5zM883 496q0 147 -22.5 238t-65.5 140.5t-105.5 66.5t-140.5 17t-139.5 -16
t-103.5 -65.5t-64.5 -139.5t-22.5 -237q0 -148 22.5 -239t65.5 -140t105.5 -66.5t140.5 -17.5t139.5 16.5t103.5 65.5t64.5 139t22.5 238zM253 1270q12 30 27.5 56t36 46.5t47 31.5t59.5 11q36 0 67 -18.5t59.5 -40t55 -39t55.5 -17.5q39 0 64.5 31t46.5 78l51 -29
q-12 -30 -27.5 -56t-36 -46.5t-47 -31.5t-59.5 -11q-37 0 -67.5 17.5t-59.5 39t-55.5 40t-55.5 18.5q-39 0 -64.5 -31t-45.5 -78z" />
    <glyph glyph-name="odieresis" unicode="&#xf6;" horiz-adv-x="1102" 
d="M958 500q0 -160 -27.5 -261.5t-80.5 -161t-129 -82t-172 -22.5t-172 21.5t-128 80t-79 160t-27 261.5q0 159 28 260.5t81 161t129 82t172 22.5t172 -21.5t128 -80t78.5 -160t26.5 -260.5zM883 496q0 147 -22.5 238t-65.5 140.5t-105.5 66.5t-140.5 17t-139.5 -16
t-103.5 -65.5t-64.5 -139.5t-22.5 -237q0 -148 22.5 -239t65.5 -140t105.5 -66.5t140.5 -17.5t139.5 16.5t103.5 65.5t64.5 139t22.5 238zM415 1337q0 -34 -13 -48.5t-54 -14.5t-54.5 14.5t-13.5 48.5q0 35 13.5 49.5t54.5 14.5q39 0 53 -14.5t14 -49.5zM807 1337
q0 -34 -13.5 -48.5t-54.5 -14.5t-54.5 14.5t-13.5 48.5q0 35 13.5 49.5t54.5 14.5q39 0 53.5 -14.5t14.5 -49.5z" />
    <glyph glyph-name="divide" unicode="&#xf7;" 
d="M98 618h889v-65h-889v65zM610 311q0 -20 -3 -33.5t-11 -20.5t-21.5 -10t-33.5 -3q-21 0 -34 3t-21.5 10t-11.5 20.5t-3 33.5q0 21 3 33t11.5 20.5t21.5 11.5t34 3q20 0 33.5 -3t21.5 -11.5t11 -20.5t3 -33zM610 860q0 -18 -3 -31.5t-11 -21.5t-21.5 -11t-33.5 -3
q-21 0 -34 3t-21.5 11t-11.5 21.5t-3 31.5q0 21 3 33t11.5 20.5t21.5 11.5t34 3q20 0 33.5 -3t21.5 -11.5t11 -21.5t3 -32z" />
    <glyph glyph-name="oslash" unicode="&#xf8;" horiz-adv-x="1102" 
d="M262 59q-20 25 -41.5 55.5t-38 80t-28 122t-11.5 179.5q0 159 28 260.5t81 161t129 82t172 22.5q92 0 143.5 -13.5t89.5 -33.5l80 143l60 -28l-86 -154q26 -31 48.5 -68t38 -89t23.5 -119.5t8 -159.5q0 -160 -27.5 -261.5t-80.5 -161t-129 -82t-172 -22.5q-60 0 -119 8.5
t-115 41.5l-92 -166l-57 28zM350 82q45 -29 100.5 -37t102.5 -8q78 0 139.5 16.5t103.5 65.5t64.5 139t22.5 238q0 143 -20.5 228t-61.5 144zM750 913q-33 23 -79 34t-122 11q-78 0 -139.5 -16t-103.5 -65.5t-64.5 -139.5t-22.5 -237q0 -90 8.5 -152.5t20.5 -105.5t26.5 -70
t26.5 -45z" />
    <glyph glyph-name="ugrave" unicode="&#xf9;" horiz-adv-x="1178" 
d="M268 995v-682q0 -149 55.5 -209.5t176.5 -60.5q86 0 183 37t208 102v813h76v-995h-64l-8 113q-98 -56 -200.5 -94.5t-200.5 -38.5q-154 0 -227.5 76.5t-73.5 250.5v688h75zM441 1497l210 -268l-47 -39l-229 254z" />
    <glyph glyph-name="uacute" unicode="&#xfa;" horiz-adv-x="1178" 
d="M268 995v-682q0 -149 55.5 -209.5t176.5 -60.5q86 0 183 37t208 102v813h76v-995h-64l-8 113q-98 -56 -200.5 -94.5t-200.5 -38.5q-154 0 -227.5 76.5t-73.5 250.5v688h75zM748 1497l66 -53l-230 -254l-47 39z" />
    <glyph glyph-name="ucircumflex" unicode="&#xfb;" horiz-adv-x="1178" 
d="M268 995v-682q0 -149 55.5 -209.5t176.5 -60.5q86 0 183 37t208 102v813h76v-995h-64l-8 113q-98 -56 -200.5 -94.5t-200.5 -38.5q-154 0 -227.5 76.5t-73.5 250.5v688h75zM578 1491l237 -252l-49 -47l-190 197l-187 -195l-47 43z" />
    <glyph glyph-name="udieresis" unicode="&#xfc;" horiz-adv-x="1178" 
d="M268 995v-682q0 -149 55.5 -209.5t176.5 -60.5q86 0 183 37t208 102v813h76v-995h-64l-8 113q-98 -56 -200.5 -94.5t-200.5 -38.5q-154 0 -227.5 76.5t-73.5 250.5v688h75zM456 1337q0 -34 -13 -48.5t-54 -14.5t-54.5 14.5t-13.5 48.5q0 35 13.5 49.5t54.5 14.5
q39 0 53 -14.5t14 -49.5zM848 1337q0 -34 -13.5 -48.5t-54.5 -14.5t-54.5 14.5t-13.5 48.5q0 35 13.5 49.5t54.5 14.5q39 0 53.5 -14.5t14.5 -49.5z" />
    <glyph glyph-name="yacute" unicode="&#xfd;" horiz-adv-x="926" 
d="M45 995h80l219 -589q18 -52 32.5 -94t29 -80.5t27.5 -79.5t30 -89h2q16 50 29.5 91t28 80.5t28.5 80.5t33 91l219 589h78l-441 -1181q-30 -84 -61 -137.5t-64.5 -83t-72.5 -41t-84 -11.5q-39 0 -67 4t-50 9l8 63q23 -4 50.5 -8t47.5 -4q31 0 61 7t57.5 29.5t54 66.5
t53.5 116l65 176h-22zM629 1497l66 -53l-230 -254l-47 39z" />
    <glyph glyph-name="thorn" unicode="&#xfe;" horiz-adv-x="1122" 
d="M211 1511h76v-356q0 -59 -1 -126.5t-5 -139.5l2 -2q90 55 175 92t173 37q84 0 150.5 -22.5t112.5 -81t69.5 -157t23.5 -249.5q0 -152 -36 -253t-94 -161.5t-135 -86t-157 -25.5q-78 0 -146.5 23.5t-135.5 57.5l-2 -2q2 -36 3 -71t2 -68t1 -64.5v-62.5v-235h-76v1953z
M287 133q75 -41 141 -65.5t143 -24.5q64 0 125.5 20.5t108.5 72.5t76.5 140.5t29.5 225.5t-19.5 224t-56 137t-90 69.5t-120.5 19.5q-74 0 -154 -34.5t-184 -100.5v-684z" />
    <glyph glyph-name="ydieresis" unicode="&#xff;" horiz-adv-x="926" 
d="M45 995h80l219 -589q18 -52 32.5 -94t29 -80.5t27.5 -79.5t30 -89h2q16 50 29.5 91t28 80.5t28.5 80.5t33 91l219 589h78l-441 -1181q-30 -84 -61 -137.5t-64.5 -83t-72.5 -41t-84 -11.5q-39 0 -67 4t-50 9l8 63q23 -4 50.5 -8t47.5 -4q31 0 61 7t57.5 29.5t54 66.5
t53.5 116l65 176h-22zM336 1337q0 -34 -13 -48.5t-54 -14.5t-54.5 14.5t-13.5 48.5q0 35 13.5 49.5t54.5 14.5q39 0 53 -14.5t14 -49.5zM728 1337q0 -34 -13.5 -48.5t-54.5 -14.5t-54.5 14.5t-13.5 48.5q0 35 13.5 49.5t54.5 14.5q39 0 53.5 -14.5t14.5 -49.5z" />
    <glyph glyph-name="OE" unicode="&#x152;" horiz-adv-x="1733" 
d="M897 1362q-47 12 -92 17t-117 5q-110 0 -194 -23.5t-142.5 -96t-88.5 -204.5t-30 -347t30 -347.5t88.5 -205t142.5 -97t194 -24.5q72 0 117 6t92 16v1301zM942 0q-47 -10 -113.5 -18.5t-144.5 -8.5q-131 0 -229.5 28t-165 106.5t-100 222t-33.5 375.5q0 233 34.5 378.5
t103 227.5t169 110.5t231.5 28.5q78 0 138.5 -6t119.5 -21h662v-65h-639v-582h590v-65h-590v-645h639v-66h-672z" />
    <glyph glyph-name="oe" unicode="&#x153;" horiz-adv-x="1763" 
d="M883 498q0 147 -22.5 237t-65.5 139.5t-105.5 66.5t-140.5 17t-139.5 -16t-103.5 -65.5t-64.5 -139.5t-22.5 -237q0 -148 22.5 -239t65.5 -140t105.5 -66.5t140.5 -17.5t139.5 16.5t103.5 66.5t64.5 140t22.5 238zM1569 20q-72 -16 -144.5 -27t-148.5 -11
q-88 0 -148.5 15t-101.5 44t-65.5 71t-42.5 95q-19 -53 -44.5 -96t-68.5 -74t-105.5 -47.5t-150.5 -16.5q-96 0 -172 21.5t-128 80t-79 160t-27 261.5q0 159 28 260.5t81 161t129 82t172 22.5q82 0 142.5 -13.5t104.5 -42t72.5 -72.5t47.5 -106q20 62 50.5 106t75 72.5
t101.5 42t131 13.5q90 0 154.5 -20.5t106.5 -74t61.5 -144.5t19.5 -232v-21.5v-27.5h-662q3 -152 25.5 -243t65.5 -138t104 -61.5t141 -14.5q72 0 135.5 10.5t129.5 26.5zM1542 565q-2 123 -18.5 200t-50 120t-84 58t-119.5 15q-70 0 -125 -16t-95 -60t-62.5 -121
t-26.5 -196h581z" />
    <glyph glyph-name="Ydieresis" unicode="&#x178;" horiz-adv-x="1024" 
d="M473 582l-457 841h88l271 -497q22 -41 39.5 -75t34 -65.5t33 -62.5t34.5 -68h2q19 37 35 71t32.5 65.5t34 65.5t37.5 71l267 495h84l-457 -841v-582h-78v582zM341 1681q0 -18 -3 -30.5t-11 -20.5t-21.5 -11t-33.5 -3q-21 0 -34 3t-21.5 11t-11.5 20.5t-3 30.5
q0 37 14.5 51.5t55.5 14.5t55 -14.5t14 -51.5zM825 1681q0 -18 -3 -30.5t-11.5 -20.5t-21.5 -11t-34 -3q-20 0 -33.5 3t-21.5 11t-11.5 20.5t-3.5 30.5q0 37 14.5 51.5t55.5 14.5t55.5 -14.5t14.5 -51.5z" />
    <glyph glyph-name="apostrophe" unicode="&#x2bc;" horiz-adv-x="403" 
d="M186 1190q25 41 52.5 88t50.5 84q-17 4 -26 18.5t-9 44.5q0 37 12.5 50.5t52.5 13.5q41 0 54.5 -13.5t13.5 -50.5q0 -22 -3 -37.5t-13 -31.5q-25 -43 -63 -92.5t-81 -100.5z" />
    <glyph glyph-name="tilde" unicode="&#x2dc;" horiz-adv-x="1217" 
d="M324 1270q12 30 27.5 56t36 46.5t47 31.5t59.5 11q36 0 67 -18.5t59.5 -40t55 -39t55.5 -17.5q39 0 64.5 31t46.5 78l51 -29q-12 -30 -27.5 -56t-36 -46.5t-47 -31.5t-59.5 -11q-37 0 -67.5 17.5t-59.5 39t-55.5 40t-55.5 18.5q-39 0 -64.5 -31t-45.5 -78z" />
    <glyph glyph-name="endash" unicode="&#x2013;" 
d="M0 567h1085v-63h-1085v63z" />
    <glyph glyph-name="emdash" unicode="&#x2014;" horiz-adv-x="2048" 
d="M133 567h1782v-63h-1782v63z" />
    <glyph glyph-name="quoteleft" unicode="&#x2018;" horiz-adv-x="406" 
d="M360 1526q-38 -66 -64 -113t-52 -100q18 -6 26.5 -20.5t8.5 -49.5q0 -43 -15.5 -58.5t-60.5 -15.5q-23 0 -38 3.5t-23.5 12.5t-11.5 22.5t-3 35.5q0 25 2 41t12 33q29 53 79 116.5t97 120.5z" />
    <glyph glyph-name="quoteright" unicode="&#x2019;" horiz-adv-x="406" 
d="M96 1174q19 32 34 59t29.5 52.5t27 50t26.5 50.5q-10 3 -16.5 8t-10.5 13t-6 19.5t-2 29.5q0 43 14.5 58.5t61.5 15.5q22 0 37.5 -3t24 -12.5t11.5 -23.5t3 -35q0 -24 -2 -40.5t-13 -33.5q-28 -53 -78.5 -116.5t-97.5 -120.5z" />
    <glyph glyph-name="quotedblleft" unicode="&#x201c;" horiz-adv-x="700" 
d="M360 1526q-38 -66 -64 -113t-52 -100q18 -6 26.5 -20.5t8.5 -49.5q0 -43 -15.5 -58.5t-60.5 -15.5q-23 0 -38 3.5t-23.5 12.5t-11.5 22.5t-3 35.5q0 25 2 41t12 33q29 53 79 116.5t97 120.5zM655 1526q-39 -66 -64.5 -113t-51.5 -100q18 -6 26 -20.5t8 -49.5
q0 -43 -15 -58.5t-60 -15.5q-23 0 -38.5 3.5t-23.5 12.5t-11 22.5t-3 35.5q0 25 2 41t12 33q29 53 79 116.5t97 120.5z" />
    <glyph glyph-name="quotedblright" unicode="&#x201d;" horiz-adv-x="700" 
d="M96 1174q19 32 34 59t29.5 52.5t27 50t26.5 50.5q-10 3 -16.5 8t-10.5 13t-6 19.5t-2 29.5q0 43 14.5 58.5t61.5 15.5q22 0 37.5 -3t24 -12.5t11.5 -23.5t3 -35q0 -24 -2 -40.5t-13 -33.5q-28 -53 -78.5 -116.5t-97.5 -120.5zM391 1174q19 32 34 59t29.5 52.5t27 50
t26.5 50.5q-10 3 -16.5 8t-10.5 13t-6 19.5t-2 29.5q0 43 14.5 58.5t61.5 15.5q22 0 37.5 -3t23.5 -12.5t11.5 -23.5t3.5 -35q0 -24 -2 -40.5t-13 -33.5q-28 -53 -78.5 -116.5t-97.5 -120.5z" />
    <glyph glyph-name="quotedblbase" unicode="&#x201e;" horiz-adv-x="729" 
d="M78 -223q18 33 33.5 59.5t30 52t26.5 50t27 51.5q-11 2 -17 7t-10 13t-6 19.5t-2 29.5q0 43 14 58.5t62 15.5q22 0 37.5 -3t23.5 -12t11 -23.5t3 -35.5q0 -24 -2 -40.5t-12 -32.5q-29 -54 -79 -117.5t-97 -120.5zM373 -223q18 33 33.5 59.5t30 52t26.5 50t26 51.5
q-10 2 -16 7t-10 13t-6 19.5t-2 29.5q0 43 14 58.5t61 15.5q23 0 38.5 -3t23.5 -12t11 -23.5t3 -35.5q0 -24 -2 -40.5t-12 -32.5q-29 -54 -79 -117.5t-97 -120.5z" />
    <glyph glyph-name="bullet" unicode="&#x2022;" horiz-adv-x="745" 
d="M500 745q0 -36 -6.5 -59.5t-21.5 -39t-38.5 -22t-60.5 -6.5t-60.5 6.5t-39 22t-21.5 39t-6 59.5q0 37 6 60.5t21.5 39t39 21.5t60.5 6t60.5 -6t38.5 -21.5t21.5 -39t6.5 -60.5z" />
    <glyph glyph-name="ellipsis" unicode="&#x2026;" horiz-adv-x="1303" 
d="M293 59q0 -22 -3 -35.5t-11.5 -22.5t-23.5 -12t-38 -3q-22 0 -37.5 3t-24 12t-11.5 22.5t-3 35.5q0 21 3 35.5t11.5 23.5t24 12t37.5 3q23 0 38 -3t23.5 -12t11.5 -23.5t3 -35.5zM727 59q0 -22 -3 -35.5t-11 -22.5t-23.5 -12t-38.5 -3q-22 0 -37.5 3t-23.5 12t-11.5 22.5
t-3.5 35.5q0 21 3.5 35.5t11.5 23.5t23.5 12t37.5 3q23 0 38.5 -3t23.5 -12t11 -23.5t3 -35.5zM1161 59q0 -22 -3 -35.5t-11 -22.5t-23.5 -12t-38.5 -3q-22 0 -37.5 3t-23.5 12t-11 22.5t-3 35.5q0 21 3 35.5t11 23.5t23.5 12t37.5 3q23 0 38.5 -3t23.5 -12t11 -23.5
t3 -35.5z" />
    <glyph glyph-name="guilsinglleft" unicode="&#x2039;" horiz-adv-x="516" 
d="M82 496l274 426l58 -33l-234 -391l236 -392l-60 -34z" />
    <glyph glyph-name="guilsinglright" unicode="&#x203a;" horiz-adv-x="516" 
d="M336 498l-234 391l58 33l274 -426l-274 -424l-60 34z" />
    <glyph glyph-name="Euro" unicode="&#x20ac;" 
d="M246 905q15 163 56.5 267.5t105.5 165.5t149 84.5t188 23.5q82 0 150 -11t125 -28l-12 -64q-29 9 -60.5 15.5t-65.5 11.5t-69.5 7.5t-73.5 2.5q-82 0 -152.5 -19.5t-124.5 -72t-89.5 -145t-48.5 -238.5h507v-65h-512q-1 -17 -1.5 -31.5t-1 -29.5t-1 -30.5t-0.5 -33.5
q0 -31 1 -63.5t3 -61.5h512v-66h-507q11 -150 45.5 -243.5t88.5 -146.5t125.5 -72t155.5 -19q36 0 71 3t69 9t66.5 14t64.5 17l10 -66q-65 -17 -134 -30t-151 -13q-104 0 -189.5 22t-148.5 82.5t-102 167t-49 275.5h-172v66h168q-2 29 -3 59.5t-1 59.5q0 18 0.5 34.5t1 32.5
t1 31.5t1.5 32.5h-168v65h172z" />
    <glyph glyph-name="trademark" unicode="&#x2122;" horiz-adv-x="1528" 
d="M240 1364h-240v59h537v-59h-226v-651h-71v651zM702 1423h115l131 -428l68 -233l71 233l130 428h112l64 -710h-72l-43 483l-12 172l-52 -166l-149 -489h-98l-150 481l-53 174l-12 -172l-43 -483h-70z" />
    <glyph glyph-name="dotlessi" horiz-adv-x="498" 
d="M211 995h76v-995h-76v995z" />
    <glyph glyph-name="grave.cap" horiz-adv-x="795" 
d="M262 1812l313 -172l-28 -55l-326 154z" />
    <glyph glyph-name="acute.cap" horiz-adv-x="782" 
d="M535 1812l40 -73l-325 -154l-29 55z" />
    <glyph glyph-name="circumflex" horiz-adv-x="1071" 
d="M537 1491l237 -252l-49 -47l-190 197l-187 -195l-47 43z" />
    <glyph glyph-name="circumflex.cap" horiz-adv-x="1071" 
d="M541 1806l260 -164l-37 -55l-229 131l-224 -131l-35 55z" />
    <glyph glyph-name="dieresis.narrow" horiz-adv-x="1061" 
d="M442 1337q0 -34 -13 -48.5t-54 -14.5t-54.5 14.5t-13.5 48.5q0 35 13.5 49.5t54.5 14.5q39 0 53 -14.5t14 -49.5zM756 1337q0 -34 -13.5 -48.5t-54.5 -14.5t-54 14.5t-13 48.5q0 35 13 49.5t54 14.5q39 0 53.5 -14.5t14.5 -49.5z" />
    <glyph glyph-name="dieresis.cap" horiz-adv-x="1061" 
d="M358 1681q0 -18 -3 -30.5t-11 -20.5t-21.5 -11t-33.5 -3q-21 0 -34 3t-21.5 11t-11.5 20.5t-3 30.5q0 37 14.5 51.5t55.5 14.5t55 -14.5t14 -51.5zM842 1681q0 -18 -3 -30.5t-11.5 -20.5t-21.5 -11t-34 -3q-20 0 -33.5 3t-21.5 11t-11.5 20.5t-3.5 30.5q0 37 14.5 51.5
t55.5 14.5t55.5 -14.5t14.5 -51.5z" />
    <glyph glyph-name="dieresis.narrow.cap" horiz-adv-x="1061" 
d="M418 1681q0 -36 -14.5 -50.5t-55.5 -14.5t-55 14.5t-14 50.5q0 37 14 51.5t55 14.5t55.5 -14.5t14.5 -51.5zM782 1681q0 -36 -14 -50.5t-55 -14.5t-55.5 14.5t-14.5 50.5q0 37 14.5 51.5t55.5 14.5t55 -14.5t14 -51.5z" />
    <glyph glyph-name="tilde.cap" horiz-adv-x="1217" 
d="M309 1647q29 41 73 71.5t110 30.5q34 0 65 -12.5t58.5 -26.5t54 -26.5t57.5 -12.5q45 0 74.5 21.5t56.5 52.5l45 -39q-29 -41 -73 -71.5t-109 -30.5q-35 0 -65.5 12t-58.5 26.5t-54.5 26.5t-57.5 12q-45 0 -74.5 -21.5t-56.5 -51.5z" />
    <glyph glyph-name="ring" horiz-adv-x="784" 
d="M664 1337q0 -41 -14.5 -75.5t-40 -60t-60.5 -40t-76 -14.5t-76 14.5t-60.5 40t-39.5 60t-14 75.5t14 76t39.5 60.5t60.5 40t76 14.5t76 -14.5t60.5 -40t40 -60.5t14.5 -76zM594 1337q0 60 -32 95.5t-89 35.5t-89 -35.5t-32 -95.5q0 -59 32 -95t89 -36t89 36t32 95z" />
    <glyph glyph-name="ring.cap" horiz-adv-x="784" 
d="M668 1683q0 -38 -14.5 -71t-40 -57.5t-61.5 -38t-79 -13.5t-79 13.5t-61.5 38t-39.5 57.5t-14 71q0 78 54 129.5t140 51.5q43 0 79 -13.5t61.5 -38t40 -57.5t14.5 -72zM598 1683q0 56 -33 88.5t-92 32.5t-92 -32.5t-33 -88.5q0 -55 33 -87.5t92 -32.5t92 32.5t33 87.5z
" />
    <glyph glyph-name="zeroinferior" horiz-adv-x="659" 
d="M578 358q0 -112 -16.5 -185t-49.5 -115t-79 -58t-103 -16q-60 0 -105 15t-77.5 57t-49 114t-16.5 184q0 113 17.5 185.5t50 114.5t78.5 58.5t106 16.5q57 0 103 -15.5t77 -57.5t47.5 -113.5t16.5 -184.5zM504 354q0 99 -12.5 160t-35 95t-54 46.5t-70.5 12.5
q-41 0 -74 -11.5t-55.5 -45t-34.5 -94t-12 -159.5q0 -98 12 -159.5t35.5 -95t55.5 -46t73 -12.5t72.5 11.5t54 45t34 94t11.5 158.5z" />
    <glyph glyph-name="oneinferior" horiz-adv-x="401" 
d="M193 621l-142 -78l-28 51l184 119h57v-713h-71v621z" />
    <glyph glyph-name="twoinferior" horiz-adv-x="537" 
d="M43 47l186 209q72 80 111 144.5t39 127.5q0 64 -38 99t-103 35q-41 0 -76 -5.5t-82 -17.5l-10 59q47 13 90 19t90 6q96 0 151.5 -50t55.5 -136t-47.5 -158t-124.5 -158l-148 -158h338v-63h-432v47z" />
    <glyph glyph-name="threeinferior" horiz-adv-x="518" 
d="M51 68q37 -9 70 -13t69 -4q93 0 137 40t44 118q0 33 -10.5 59.5t-36 45t-69.5 28.5t-114 10v60q103 0 156 40t53 99t-33.5 85t-99.5 26q-35 0 -67.5 -4.5t-69.5 -14.5l-12 59q41 11 79.5 16t77.5 5q101 0 151 -44t50 -122q0 -65 -41 -108t-92 -60q59 -10 106 -52t47 -120
q0 -106 -66.5 -166.5t-186.5 -60.5q-43 0 -78 4t-74 12z" />
    <glyph glyph-name="fourinferior" horiz-adv-x="543" 
d="M31 213l297 500h94v-492h96v-63h-96v-158h-72v158h-319v55zM350 221v408l-241 -408h241z" />
    <glyph glyph-name="fraction" horiz-adv-x="1047" 
d="M973 1452l57 -35l-954 -1446l-58 35z" />
    </font>
</defs>
</svg>
