<?xml version="1.0" standalone="no"?>
<!DOCTYPE svg PUBLIC "-//W3C//DTD SVG 1.1//EN" "http://www.w3.org/Graphics/SVG/1.1/DTD/svg11.dtd" >
<svg>
<metadata>
Created by FontForge 20120731 at Wed Jun 17 21:35:20 2015
 By ,,,
Copyright (c) 2006-2010 by Jan Fromm. All rights reserved.
</metadata>
<defs>
<font id="83e6768526c5d864e8fa8c028b03f78910775b233144994c1baa417877d257d" horiz-adv-x="1085" >
  <font-face 
    font-family="83e6768526c5d864e8fa8c028b03f78910775b233144994c1baa417877d257d3"
    font-weight="400"
    font-style="italic"
    font-stretch="normal"
    units-per-em="2048"
    panose-1="2 11 5 3 4 3 2 9 2 3"
    ascent="1659"
    descent="-389"
    x-height="1007"
    cap-height="1423"
    bbox="-317 -471 2033 1915"
    underline-thickness="200"
    underline-position="-50"
    slope="-11"
    unicode-range="U+0020-2122"
  />
<missing-glyph 
d="M356 719q-16 0 -16 -21q0 -20 16 -20h74v-238q0 -65 -51 -65q-23 0 -31 4t-16 4q-17 0 -17 -21q0 -14 11 -18q10 -4 23 -6t26 -2q106 0 106 104v246q0 33 -32 33h-93zM561 360q0 -20 25 -20q26 0 26 20v152h142q14 0 14 20q0 21 -14 21h-142v125h158q16 0 16 20
q0 21 -16 21h-174q-35 0 -35 -33v-326zM197 539q0 73 26.5 137.5t72.5 111t109.5 73t137.5 26.5q73 0 137.5 -26.5t111 -73t73 -111t26.5 -137.5q0 -74 -26.5 -137.5t-73 -109.5t-111 -72.5t-137.5 -26.5q-74 0 -137.5 26.5t-109.5 72.5t-72.5 109.5t-26.5 137.5z" />
    <glyph glyph-name=".notdef" 
d="M356 719q-16 0 -16 -21q0 -20 16 -20h74v-238q0 -65 -51 -65q-23 0 -31 4t-16 4q-17 0 -17 -21q0 -14 11 -18q10 -4 23 -6t26 -2q106 0 106 104v246q0 33 -32 33h-93zM561 360q0 -20 25 -20q26 0 26 20v152h142q14 0 14 20q0 21 -14 21h-142v125h158q16 0 16 20
q0 21 -16 21h-174q-35 0 -35 -33v-326zM197 539q0 73 26.5 137.5t72.5 111t109.5 73t137.5 26.5q73 0 137.5 -26.5t111 -73t73 -111t26.5 -137.5q0 -74 -26.5 -137.5t-73 -109.5t-111 -72.5t-137.5 -26.5q-74 0 -137.5 26.5t-109.5 72.5t-72.5 109.5t-26.5 137.5z" />
    <glyph glyph-name=".null" horiz-adv-x="0" 
 />
    <glyph glyph-name="nonmarkingreturn" horiz-adv-x="682" 
 />
    <glyph glyph-name="space" unicode=" " horiz-adv-x="520" 
 />
    <glyph glyph-name="space" unicode="&#xa0;" horiz-adv-x="520" 
 />
    <glyph glyph-name="exclam" unicode="!" horiz-adv-x="599" 
d="M397 1511h198l-241 -1124h-155zM340 149q0 -13 -1.5 -27t-3.5 -28q-7 -30 -16 -51.5t-24.5 -34t-39 -18t-58.5 -5.5q-51 0 -74.5 13.5t-23.5 46.5q0 13 1.5 26.5t3.5 28.5q7 31 16 52t24.5 33.5t39 18.5t58.5 6q52 0 75 -13.5t23 -47.5z" />
    <glyph glyph-name="quotedbl" unicode="&#x22;" horiz-adv-x="716" 
d="M305 1511h178l-107 -441h-135zM623 1511h178l-107 -441h-135z" />
    <glyph glyph-name="numbersign" unicode="#" 
d="M198 403h-176l26 133h195l135 357h-181l27 133h199l148 397h153l-148 -397h230l148 397h152l-148 -397h174l-26 -133h-192l-137 -357h178l-27 -133h-194l-150 -403h-153l151 403h-229l-152 -403h-153zM625 536l136 357h-230l-135 -357h229z" />
    <glyph glyph-name="dollar" unicode="$" 
d="M844 1602l-45 -229q66 -2 128 -10t123 -25l-33 -148q-62 16 -136.5 25.5t-144.5 9.5q-78 0 -137 -14t-100 -41.5t-61 -67.5t-20 -88q0 -38 10.5 -66.5t36.5 -56t71.5 -57.5t116.5 -70q81 -46 137 -85.5t91 -79.5t49.5 -85t14.5 -103q0 -85 -27.5 -155.5t-82.5 -124.5
t-136 -88.5t-188 -44.5l-47 -241h-150l45 236q-73 3 -142.5 12.5t-146.5 30.5l34 149q74 -20 159 -32t170 -12q75 0 135.5 17t102.5 47.5t65.5 74t23.5 95.5q0 38 -10.5 67.5t-37.5 58t-74 59.5t-121 71q-80 45 -134 83t-87 77.5t-48 83.5t-15 103q0 82 26.5 149t79 117
t130 81t179.5 41l46 236h150z" />
    <glyph glyph-name="percent" unicode="%" horiz-adv-x="1594" 
d="M1385 1468l100 -80l-1206 -1431l-101 80zM748 1207q0 -32 -3.5 -66t-13.5 -80q-21 -107 -52.5 -178.5t-74.5 -113.5t-97 -60t-119 -18q-50 0 -91 12.5t-70.5 40.5t-45.5 72.5t-16 109.5q0 31 3.5 65.5t12.5 81.5q21 107 53.5 177.5t75.5 112.5t96.5 60t118.5 18
q49 0 90.5 -12t71 -40t45.5 -73t16 -109zM605 1207q0 69 -26 94.5t-71 25.5q-28 0 -55 -11t-50 -41t-43 -80.5t-35 -130.5q-7 -40 -12 -74t-5 -64q0 -69 26.5 -94.5t69.5 -25.5q29 0 56 11.5t50 40.5t42.5 80.5t35.5 130.5q8 40 12.5 73.5t4.5 64.5zM1510 497
q0 -32 -3.5 -66t-13.5 -80q-21 -107 -52.5 -178.5t-74.5 -113.5t-97 -60t-119 -18q-50 0 -91 12.5t-70.5 40.5t-45.5 72.5t-16 109.5q0 31 3.5 65.5t12.5 81.5q21 107 53.5 177.5t75.5 112.5t96.5 60t118.5 18q49 0 90.5 -12t71 -40t45.5 -73t16 -109zM1367 497
q0 69 -26 94.5t-71 25.5q-28 0 -55 -11t-50 -41t-43 -80.5t-35 -130.5q-7 -40 -12 -74t-5 -64q0 -69 26.5 -94.5t69.5 -25.5q29 0 56 11.5t50 40.5t42.5 80.5t35.5 130.5q8 40 12.5 73.5t4.5 64.5z" />
    <glyph glyph-name="ampersand" unicode="&#x26;" horiz-adv-x="1298" 
d="M1105 -32q-26 28 -49.5 54.5t-46 51.5t-45.5 51t-50 57q-94 -98 -216 -155t-260 -57q-88 0 -159.5 23.5t-122 66t-78.5 103t-28 136.5q0 93 32.5 166t85.5 134.5t122 112t142 98.5q-43 74 -75.5 159t-32.5 176q0 96 29.5 171t83.5 125t130.5 76t170.5 26q80 0 139 -20
t97.5 -54.5t56.5 -79.5t18 -95q0 -92 -35 -167.5t-90.5 -138t-125 -114.5t-138.5 -98q31 -48 63 -93.5t65.5 -88.5t68 -84.5t72.5 -86.5q42 65 78 141.5t59 175.5h160q-33 -133 -82.5 -239.5t-112.5 -193.5q28 -32 52 -60.5t47.5 -54.5t49.5 -53.5t55 -58.5zM516 684
q-55 -37 -105.5 -73.5t-90 -78.5t-64 -94t-24.5 -119q0 -90 59 -147t170 -57q99 0 190 47.5t166 131.5q-41 48 -79.5 95.5t-76 95.5t-74 97.5t-71.5 101.5zM870 1262q0 59 -38.5 98t-120.5 39q-105 0 -159.5 -61t-54.5 -174q0 -69 26 -137t57 -127q58 37 110 77t92 83
t64 92.5t24 109.5z" />
    <glyph glyph-name="quotesingle" unicode="'" horiz-adv-x="398" 
d="M305 1511h178l-107 -441h-135z" />
    <glyph glyph-name="parenleft" unicode="(" horiz-adv-x="595" 
d="M261 -363q-36 86 -61.5 162.5t-42 153t-24 157.5t-7.5 178q0 212 48 408.5t122.5 366t167.5 312.5t182 251l121 -77q-84 -110 -167.5 -248.5t-150 -298t-108.5 -338.5t-42 -369q0 -78 4.5 -149.5t15 -142t29 -145t46.5 -155.5z" />
    <glyph glyph-name="parenright" unicode=")" horiz-adv-x="595" 
d="M-125 -287q83 111 166.5 249t150 297.5t108.5 337.5t42 370q0 78 -4.5 149.5t-14.5 142.5t-28.5 144t-48.5 156l136 67q34 -87 60.5 -163.5t42.5 -153t23.5 -157.5t7.5 -177q0 -215 -48 -410.5t-122.5 -365t-167.5 -312t-182 -250.5z" />
    <glyph glyph-name="asterisk" unicode="*" horiz-adv-x="820" 
d="M483 1118l-198 -123l-52 117l228 90l-200 110l83 113l171 -145l19 231h143l-71 -229l200 123l52 -117l-230 -90l201 -111l-83 -112l-172 145l-18 -232h-144z" />
    <glyph glyph-name="plus" unicode="+" 
d="M116 659h365l76 391h156l-76 -391h368l-27 -145h-370l-76 -393h-155l76 393h-365z" />
    <glyph glyph-name="comma" unicode="," horiz-adv-x="471" 
d="M-77 -238q23 34 42 64t36.5 58t33.5 54.5t32 54.5q-13 5 -24.5 20.5t-11.5 40.5q0 12 1.5 25t4.5 26q6 33 16 55t25.5 35t40.5 19t61 6q56 0 80 -17t24 -54q0 -38 -6.5 -71t-22.5 -63q-15 -30 -44 -69t-64 -80.5t-72.5 -81t-71.5 -72.5z" />
    <glyph glyph-name="hyphen" unicode="-" horiz-adv-x="892" 
d="M177 622h581l-31 -162h-582z" />
    <glyph glyph-name="period" unicode="." horiz-adv-x="471" 
d="M283 154q0 -13 -1.5 -26.5t-3.5 -28.5q-7 -32 -17 -54t-25.5 -35.5t-40 -19t-60.5 -5.5q-56 0 -80.5 14t-24.5 51q0 14 1.5 27.5t3.5 27.5q7 33 17 55t25.5 35t40 19t61.5 6q55 0 79.5 -14t24.5 -52z" />
    <glyph glyph-name="slash" unicode="/" horiz-adv-x="804" 
d="M811 1511h181l-984 -1738h-181z" />
    <glyph glyph-name="zero" unicode="0" 
d="M1072 1068q0 -78 -9 -159t-31 -195q-43 -221 -100 -364.5t-129.5 -227.5t-162 -117t-198.5 -33q-83 0 -146.5 20t-107 65.5t-65 119t-21.5 178.5q0 78 8.5 159t30.5 196q43 221 100 364.5t130 227t162 116.5t198 33q83 0 146 -20t106.5 -65.5t66 -119t22.5 -178.5z
M894 1070q0 64 -11.5 109t-33.5 73t-57.5 40t-84.5 12q-62 0 -116.5 -25t-102 -91t-89.5 -182.5t-76 -301.5q-10 -48 -18 -96t-14 -92.5t-8.5 -85.5t-2.5 -77q0 -64 11 -109t33 -72.5t58 -40t84 -12.5q63 0 117 25t101.5 91.5t88.5 183t78 300.5q9 49 17.5 96.5t14 92
t8.5 85.5t3 77z" />
    <glyph glyph-name="one" unicode="1" 
d="M94 155h325l206 1062l-288 -123l-44 122l409 207h147l-248 -1268h278l-29 -155h-785z" />
    <glyph glyph-name="two" unicode="2" 
d="M51 128l452 468q77 81 143 151t115.5 134t77.5 127t28 130q0 81 -50 121t-167 40q-74 0 -150 -11.5t-150 -32.5l-15 141q85 23 182 37.5t190 14.5q90 0 157 -17.5t111 -52.5t66.5 -86.5t22.5 -118.5q0 -89 -30 -169.5t-84 -158t-129.5 -155.5t-164.5 -165l-374 -365h607
l-30 -160h-831z" />
    <glyph glyph-name="three" unicode="3" 
d="M73 159q74 -16 139.5 -25.5t144.5 -9.5q85 0 159 23.5t128.5 69t84.5 113t30 152.5q0 45 -17 82.5t-62 65t-123.5 42.5t-201.5 15l28 146q119 0 207 23t147 65t88.5 99.5t29.5 126.5q0 75 -48.5 113.5t-164.5 38.5q-73 0 -148.5 -11t-154.5 -33l-10 142q93 22 184 36.5
t185 14.5q172 0 260 -64.5t88 -191.5q0 -93 -30.5 -164t-80 -122.5t-109.5 -84.5t-118 -53q56 -10 98.5 -32.5t73.5 -56t47 -78.5t16 -101q0 -125 -43.5 -223t-121.5 -165t-187 -102t-241 -35q-89 0 -161 10t-149 28z" />
    <glyph glyph-name="four" unicode="4" 
d="M626 304h-583l30 159l670 960h276l-188 -959h155l-30 -160h-154l-60 -304h-174zM656 464l155 804l-559 -804h404z" />
    <glyph glyph-name="five" unicode="5" 
d="M1066 1423l-32 -159h-519l-84 -430q49 6 90 10t97 4q168 0 249.5 -74.5t81.5 -232.5q0 -143 -45 -250t-125.5 -177t-191 -104.5t-242.5 -34.5q-78 0 -147 10t-143 26l30 147q72 -17 139 -25.5t134 -8.5q86 0 160.5 25t129 73.5t85.5 120.5t31 165q0 101 -57.5 146.5
t-175.5 45.5q-68 0 -132.5 -6.5t-151.5 -19.5l146 749h673z" />
    <glyph glyph-name="six" unicode="6" 
d="M1056 1272q-51 12 -100 19.5t-113 7.5q-112 0 -185.5 -40.5t-124 -113.5t-83.5 -174.5t-63 -224.5q70 38 144 63t152 25q77 0 134.5 -20t95 -58t56.5 -92.5t19 -123.5q0 -138 -41 -244t-111.5 -178t-164 -109t-199.5 -37q-159 0 -244.5 88.5t-85.5 272.5q0 50 5.5 105
t18.5 119q44 225 96.5 393t132 278.5t192 165t277.5 54.5q67 0 122 -8.5t109 -23.5zM803 511q0 87 -42.5 131.5t-134.5 44.5q-62 0 -129 -26t-140 -73q-19 -82 -28.5 -141.5t-9.5 -109.5q0 -114 46 -166t131 -52q58 0 114.5 25.5t99 75t68 123t25.5 168.5z" />
    <glyph glyph-name="seven" unicode="7" 
d="M225 0q93 174 182.5 334.5t177.5 314t177.5 305.5t186.5 310h-686l32 159h884l-26 -135q-98 -162 -190 -316.5t-181 -311t-177 -320t-181 -340.5h-199v0z" />
    <glyph glyph-name="eight" unicode="8" 
d="M963 440q0 -115 -41 -202.5t-111 -146t-162 -89t-195 -30.5q-169 0 -264 80.5t-95 221.5q0 100 30.5 175t80.5 131t114.5 96t130.5 71q-88 52 -133 122.5t-45 166.5q0 102 37 180t100.5 130.5t148 78.5t180.5 26q91 0 154.5 -22.5t103.5 -59.5t59 -85t19 -100
q0 -90 -28 -157.5t-74 -119t-103 -89.5t-117 -67q100 -57 155 -132t55 -179zM891 1147q0 30 -8.5 58t-29 50.5t-54.5 35.5t-85 13q-54 0 -101 -16t-81.5 -47t-55 -77t-20.5 -105q0 -38 10 -68.5t30 -57.5t51 -51.5t76 -49.5q55 23 103.5 52t85.5 66.5t58 86t21 110.5z
M776 411q0 83 -45.5 141t-151.5 113q-58 -24 -112.5 -56t-97 -75t-68 -99.5t-25.5 -128.5q0 -88 50.5 -137.5t147.5 -49.5q59 0 114 19.5t97 56.5t66.5 91t24.5 125z" />
    <glyph glyph-name="nine" unicode="9" 
d="M98 162q72 -20 128 -29t125 -9q111 0 185.5 40t124 113.5t82.5 175.5t62 224q-70 -38 -143.5 -63t-152.5 -25q-75 0 -132 20t-95 58t-57.5 92.5t-19.5 123.5q0 138 41.5 245t111.5 178t164 108t199 37q158 0 244 -87.5t86 -272.5q0 -50 -5.5 -105t-18.5 -120
q-46 -226 -97.5 -394t-130 -278t-191 -164.5t-278.5 -54.5q-79 0 -142 12.5t-131 31.5zM390 912q0 -87 42.5 -131t134.5 -44q62 0 129 26t140 72q20 82 28.5 142t8.5 111q0 113 -45.5 164.5t-129.5 51.5q-60 0 -115.5 -25.5t-98.5 -75.5t-68.5 -122.5t-25.5 -168.5z" />
    <glyph glyph-name="colon" unicode=":" horiz-adv-x="410" 
d="M283 154q0 -13 -1.5 -26.5t-3.5 -28.5q-7 -32 -17 -54t-25.5 -35.5t-40 -19t-60.5 -5.5q-56 0 -80.5 14t-24.5 51q0 14 1.5 27.5t3.5 27.5q7 33 17 55t25.5 35t40 19t61.5 6q55 0 79.5 -14t24.5 -52zM416 838q0 -14 -1.5 -27t-4.5 -27q-6 -33 -15.5 -55t-25.5 -35.5
t-40.5 -19.5t-60.5 -6q-57 0 -81 14t-24 52q0 13 1 27t4 29q7 32 17 53.5t25.5 35t40 19.5t61.5 6q55 0 79.5 -14.5t24.5 -51.5z" />
    <glyph glyph-name="semicolon" unicode=";" horiz-adv-x="411" 
d="M-78 -238q22 34 41.5 64t37 58t33.5 54.5t32 54.5q-14 5 -25 20.5t-11 40.5q0 12 1.5 25t3.5 26q7 33 17 55t25.5 35t40 19t61.5 6q55 0 79.5 -17t24.5 -54q0 -38 -7 -71t-22 -63t-44 -69t-64 -80.5t-73 -81t-71 -72.5zM416 838q0 -14 -1.5 -27t-4.5 -27
q-6 -33 -15.5 -55t-25.5 -35.5t-40.5 -19.5t-60.5 -6q-57 0 -81 14t-24 52q0 13 1 27t4 29q7 32 17 53.5t25.5 35t40 19.5t61.5 6q55 0 79.5 -14.5t24.5 -51.5z" />
    <glyph glyph-name="less" unicode="&#x3c;" 
d="M173 671l839 432l-33 -179l-661 -343l527 -351l-34 -162l-671 437z" />
    <glyph glyph-name="equal" unicode="=" 
d="M187 856h850l-28 -146h-850zM111 464h850l-27 -145h-851z" />
    <glyph glyph-name="greater" unicode="&#x3e;" 
d="M162 247l662 344l-528 351l33 161l672 -436l-31 -166l-841 -433z" />
    <glyph glyph-name="question" unicode="?" horiz-adv-x="793" 
d="M243 549q11 64 26.5 111t40.5 88t61.5 81.5t90.5 92.5q52 51 94.5 92.5t71.5 79t44.5 74.5t15.5 78q0 29 -10 53.5t-32.5 43t-59 28.5t-92.5 10q-57 0 -115.5 -7t-125.5 -22l-12 140q73 18 149 27t156 9q168 0 252 -67t84 -180q0 -70 -17.5 -124.5t-51.5 -103.5t-84 -98
t-114 -108q-48 -43 -83 -78t-62 -70t-43.5 -76t-28.5 -96l-27 -140h-157zM358 149q0 -13 -2 -27t-5 -28q-6 -30 -15 -51.5t-24 -34t-39 -18t-59 -5.5q-51 0 -74.5 13.5t-23.5 46.5q0 13 1.5 26.5t3.5 28.5q7 31 16 52t24.5 33.5t39 18.5t58.5 6q52 0 75.5 -13.5t23.5 -47.5z
" />
    <glyph glyph-name="at" unicode="@" horiz-adv-x="2070" 
d="M1383 400q-20 -79 13 -114t89 -35q50 0 106 38t104 113t79.5 189t31.5 267q0 97 -31 178.5t-104 141.5t-190.5 93.5t-290.5 33.5q-172 0 -330.5 -53.5t-278.5 -167t-192.5 -289.5t-72.5 -419q0 -106 28 -201t91.5 -166t168 -111.5t260.5 -40.5q131 0 256.5 11.5
t243.5 41.5l13 -145q-119 -28 -249.5 -42t-275.5 -14q-186 0 -320 51t-221.5 138.5t-128.5 206.5t-41 256q0 284 87.5 489.5t234 339.5t339 198t402.5 64q209 0 356.5 -44t242.5 -121.5t138.5 -183.5t43.5 -230q0 -196 -49.5 -337t-126 -232t-171.5 -133.5t-186 -42.5
q-101 0 -163.5 46.5t-65.5 120.5q-40 -35 -82 -65t-88.5 -53.5t-95.5 -36t-102 -12.5q-123 0 -194.5 73.5t-71.5 226.5q0 124 43.5 235.5t117.5 195t173 132.5t211 49q72 0 133.5 -20t107.5 -52l18 51h143zM1319 841q-39 31 -84.5 49.5t-106.5 18.5q-72 0 -136.5 -38
t-113.5 -101t-78 -145.5t-29 -172.5q0 -98 33 -143t104 -45q66 0 144.5 46t167.5 132z" />
    <glyph glyph-name="A" unicode="A" horiz-adv-x="1220" 
d="M653 1423h272l171 -1423h-192l-47 386h-538l-194 -386h-191zM849 535l-43 376q-7 54 -12.5 101.5t-11 94.5t-10.5 93.5t-9 96.5h-2q-25 -51 -47 -97.5t-45 -93.5t-47 -95t-52 -103l-187 -373h466z" />
    <glyph glyph-name="B" unicode="B" horiz-adv-x="1182" 
d="M355 1423h369q123 0 207 -17.5t136.5 -52.5t75.5 -89.5t23 -127.5q0 -79 -24.5 -143t-66.5 -113t-97 -81.5t-114 -50.5q107 -21 161 -91.5t54 -168.5q0 -118 -44.5 -209t-126 -153t-196 -94t-253.5 -32h-380zM482 148q193 0 297 85t104 235q0 41 -12 76t-45.5 62.5
t-94 43t-157.5 15.5h-179l-99 -517h186zM591 809q103 0 175 24.5t117 64.5t66 93t21 111q0 45 -13.5 78.5t-44.5 54.5t-82.5 30.5t-127.5 9.5h-187l-91 -466h167z" />
    <glyph glyph-name="B" unicode="&#xe000;" horiz-adv-x="1182" 
d="M355 1423h369q123 0 207 -17.5t136.5 -52.5t75.5 -89.5t23 -127.5q0 -79 -24.5 -143t-66.5 -113t-97 -81.5t-114 -50.5q107 -21 161 -91.5t54 -168.5q0 -118 -44.5 -209t-126 -153t-196 -94t-253.5 -32h-380zM482 148q193 0 297 85t104 235q0 41 -12 76t-45.5 62.5
t-94 43t-157.5 15.5h-179l-99 -517h186zM591 809q103 0 175 24.5t117 64.5t66 93t21 111q0 45 -13.5 78.5t-44.5 54.5t-82.5 30.5t-127.5 9.5h-187l-91 -466h167z" />
    <glyph glyph-name="C" unicode="C" horiz-adv-x="1028" 
d="M892 23q-74 -19 -159.5 -32.5t-170.5 -13.5q-104 0 -185 22t-136 71.5t-83.5 130.5t-28.5 199q0 33 1.5 69t6.5 74t10.5 80t16.5 90q41 211 104.5 351.5t149.5 225.5t195 120.5t243 35.5q74 0 144.5 -11t128.5 -29l-44 -144q-56 16 -111 24t-120 8q-94 0 -173 -28
t-141 -96.5t-108 -181t-79 -280.5q-16 -85 -24 -154t-8 -133q0 -84 18 -140.5t54 -90t89.5 -47.5t125.5 -14q65 0 137 12t140 29z" />
    <glyph glyph-name="D" unicode="D" horiz-adv-x="1302" 
d="M355 1423h410q121 0 213.5 -19t154.5 -66.5t93 -127t31 -199.5q0 -65 -8.5 -135t-24.5 -160q-41 -206 -108.5 -344t-163 -220.5t-218.5 -117t-272 -34.5h-383zM481 152q102 0 190 25.5t158.5 89.5t122 174t83.5 280q14 78 22.5 142.5t8.5 123.5q0 85 -19.5 140t-60 87
t-102.5 45t-145 13h-225l-218 -1120h185z" />
    <glyph glyph-name="E" unicode="E" horiz-adv-x="1039" 
d="M355 1423h760l-31 -151h-570l-91 -463h529l-29 -149h-528l-99 -508h571l-29 -152h-759z" />
    <glyph glyph-name="E" unicode="&#xe001;" horiz-adv-x="1039" 
d="M355 1423h760l-31 -151h-570l-91 -463h529l-29 -149h-528l-99 -508h571l-29 -152h-759z" />
    <glyph glyph-name="F" unicode="F" horiz-adv-x="974" 
d="M355 1423h740l-30 -151h-551l-91 -463h505l-28 -149h-505l-128 -660h-188z" />
    <glyph glyph-name="G" unicode="G" horiz-adv-x="1220" 
d="M990 47q-84 -30 -193 -51t-221 -21q-106 0 -189 22t-140.5 72.5t-87.5 133.5t-30 204q0 63 8 138.5t26 164.5q41 207 106 347.5t153.5 227.5t200.5 124t250 37q100 0 186 -14.5t166 -37.5l-47 -144q-78 20 -157 32t-161 12q-95 0 -174 -29.5t-142 -99t-111.5 -182
t-80.5 -277.5q-14 -76 -23 -147t-9 -131q0 -86 18 -143.5t53 -92.5t86 -50t118 -15q70 0 131 11.5t106 26.5l96 491h-291l30 150h471z" />
    <glyph glyph-name="H" unicode="H" horiz-adv-x="1339" 
d="M355 1423h188l-118 -609h611l118 609h187l-276 -1423h-188l128 658h-610l-128 -658h-188z" />
    <glyph glyph-name="I" unicode="I" horiz-adv-x="541" 
d="M355 1423h188l-276 -1423h-188z" />
    <glyph glyph-name="J" unicode="J" horiz-adv-x="666" 
d="M471 345q-19 -101 -51.5 -170t-81 -111.5t-113 -60.5t-148.5 -18q-52 0 -97.5 6t-86.5 18l35 148q37 -9 75.5 -14t74.5 -5q89 0 136.5 49.5t69.5 162.5l209 1073h188z" />
    <glyph glyph-name="K" unicode="K" horiz-adv-x="1099" 
d="M355 1423h188l-131 -673l620 673h230l-658 -695l403 -728h-219l-385 706l-136 -706h-188z" />
    <glyph glyph-name="L" unicode="L" horiz-adv-x="931" 
d="M355 1423h188l-246 -1267h545l-30 -156h-733z" />
    <glyph glyph-name="M" unicode="M" horiz-adv-x="1800" 
d="M430 1423h291l81 -816q4 -59 8.5 -114t8 -110t7.5 -112t7 -121h4q25 64 50 121t48.5 111t49 109t53.5 114l398 818h294l-157 -1423h-194l101 850q8 57 15.5 111.5t14.5 108.5t15.5 108.5t17.5 114.5l-2 1q-27 -59 -51.5 -113t-50 -107.5t-52 -109t-55.5 -114.5l-405 -850
h-247l-78 850q-12 115 -19.5 222t-15.5 221l-3 -1q-14 -56 -26.5 -111t-26 -109t-28 -109t-30.5 -113l-226 -850h-194z" />
    <glyph glyph-name="N" unicode="N" horiz-adv-x="1386" 
d="M355 1423h238l285 -835q16 -50 30.5 -95.5l29 -91t28.5 -92.5t28 -101l2 1q13 102 26.5 195.5t31.5 183.5l163 835h172l-277 -1423h-240l-286 836q-17 48 -31.5 94t-28 92.5t-27 93.5t-25.5 99l-6 -1q-12 -101 -25.5 -193.5t-30.5 -184.5l-161 -836h-172z" />
    <glyph glyph-name="O" unicode="O" horiz-adv-x="1344" 
d="M1292 1013q0 -71 -9 -142t-25 -159q-40 -206 -102 -347t-148 -229t-196 -126t-245 -38q-106 0 -188 24t-137 76.5t-84 136t-29 201.5q0 71 8.5 142.5t25.5 159.5q39 205 101.5 346t148.5 229t195.5 126t245.5 38q105 0 187 -23.5t137.5 -76t84.5 -136t29 -202.5z
M1101 1003q0 78 -16.5 135t-50.5 93t-84.5 52t-117.5 16q-89 0 -162 -30t-132.5 -100.5t-105.5 -184t-78 -278.5q-9 -38 -15 -76t-10 -73.5t-6.5 -70t-2.5 -65.5q0 -80 16.5 -136t50 -92t84 -52.5t118.5 -16.5q87 0 160 30.5t133.5 100.5t106 183t78.5 279q7 39 13.5 77
t11 73.5t7 69.5t2.5 66z" />
    <glyph glyph-name="P" unicode="P" horiz-adv-x="1084" 
d="M355 1423h360q117 0 198.5 -19t131 -55.5t72.5 -90t23 -122.5q0 -140 -46.5 -241.5t-127 -166.5t-188 -95.5t-231.5 -30.5h-164l-116 -602h-188zM570 749q73 0 142 21t121 65.5t83.5 112t31.5 160.5q0 86 -56 126.5t-202 40.5h-175l-103 -526h158z" />
    <glyph glyph-name="Q" unicode="Q" horiz-adv-x="1344" 
d="M1011 -249l-177 276q-50 -25 -114 -40t-153 -15q-106 0 -188 24t-137 76.5t-84 136t-29 201.5q0 71 8.5 142.5t25.5 159.5q39 205 101.5 346t148.5 229t195.5 126t245.5 38q105 0 187 -23.5t137.5 -76t84.5 -136t29 -202.5q0 -71 -9 -142t-25 -159q-23 -120 -52.5 -213
t-63 -164t-72 -123.5t-79.5 -91.5l184 -270zM1101 1003q0 78 -16.5 135t-50.5 93t-84.5 52t-117.5 16q-89 0 -162 -30t-132.5 -100.5t-105.5 -184t-78 -278.5q-9 -38 -15 -76t-10 -73.5t-6.5 -70t-2.5 -65.5q0 -80 16.5 -136t50 -92t84 -52.5t118.5 -16.5q87 0 160 30.5
t133.5 99.5t106 182.5t78.5 280.5q7 39 13.5 77t11 73.5t7 69.5t2.5 66z" />
    <glyph glyph-name="R" unicode="R" horiz-adv-x="1152" 
d="M355 1423h365q127 0 213 -17.5t139 -53.5t76 -88.5t23 -119.5q0 -108 -32.5 -189.5t-93.5 -140t-145.5 -91.5t-185.5 -42l283 -681h-213l-263 661h-124l-130 -661h-188zM610 808q167 0 268.5 75t101.5 225q0 42 -13.5 73.5t-46 52.5t-88 31t-137.5 10h-180l-91 -467h186z
" />
    <glyph glyph-name="S" unicode="S" horiz-adv-x="1006" 
d="M71 168q78 -20 150.5 -32t159.5 -12q80 0 142.5 17t104.5 49t63.5 80t21.5 110q0 38 -9 68t-35 60.5t-73.5 68t-123.5 92.5q-80 56 -132.5 101t-82 88t-41 87t-11.5 101q0 205 129.5 303t372.5 98q77 0 146 -7t140 -25l-33 -148q-35 8 -66.5 13.5t-63.5 9.5t-66 6.5
t-71 2.5q-147 0 -223.5 -54t-76.5 -164q0 -39 10 -69.5t35.5 -60.5t69 -65t112.5 -81q85 -62 140.5 -109t87.5 -89.5t44 -87t12 -100.5q0 -110 -35 -192.5t-104 -138.5t-170 -84t-232 -28q-49 0 -91 3.5t-81 9t-77 13t-77 17.5z" />
    <glyph glyph-name="S" unicode="&#xe002;" horiz-adv-x="1006" 
d="M71 168q78 -20 150.5 -32t159.5 -12q80 0 142.5 17t104.5 49t63.5 80t21.5 110q0 38 -9 68t-35 60.5t-73.5 68t-123.5 92.5q-80 56 -132.5 101t-82 88t-41 87t-11.5 101q0 205 129.5 303t372.5 98q77 0 146 -7t140 -25l-33 -148q-35 8 -66.5 13.5t-63.5 9.5t-66 6.5
t-71 2.5q-147 0 -223.5 -54t-76.5 -164q0 -39 10 -69.5t35.5 -60.5t69 -65t112.5 -81q85 -62 140.5 -109t87.5 -89.5t44 -87t12 -100.5q0 -110 -35 -192.5t-104 -138.5t-170 -84t-232 -28q-49 0 -91 3.5t-81 9t-77 13t-77 17.5z" />
    <glyph glyph-name="T" unicode="T" horiz-adv-x="1041" 
d="M574 1268h-403l31 155h994l-31 -155h-402l-245 -1268h-189z" />
    <glyph glyph-name="U" unicode="U" horiz-adv-x="1311" 
d="M512 1423l-171 -882q-10 -46 -16 -91t-6 -91q0 -58 13.5 -101t44 -73t80 -45.5t119.5 -15.5q89 0 157.5 27.5t118 81.5t82.5 134t55 187l169 869h189l-170 -871q-29 -149 -78 -257.5t-123.5 -180.5t-177.5 -107t-240 -35q-220 0 -323.5 94t-103.5 278q0 45 5.5 96
t16.5 107l171 876h188z" />
    <glyph glyph-name="V" unicode="V" horiz-adv-x="1216" 
d="M209 1423h190l95 -816q6 -60 12 -117t10.5 -115t9.5 -118.5t8 -126.5h4q29 66 55.5 126t53.5 118t54.5 115.5t58.5 117.5l413 816h194l-717 -1423h-274z" />
    <glyph glyph-name="W" unicode="W" horiz-adv-x="1914" 
d="M239 1423h194l33 -816q2 -60 3 -116t1 -113t-0.5 -117.5t-0.5 -126.5h4q24 65 46.5 125.5t44 116.5t44 113.5t49.5 117.5l347 816h266l26 -816q2 -60 3 -116.5t1 -113t-1 -117t-1 -126.5h2q26 66 49.5 126.5t46.5 118t45.5 113t47.5 115.5l351 816h193l-616 -1423h-276
l-29 853q-2 54 -2.5 109.5t-1 110.5t0.5 110t3 110h-2q-21 -56 -41.5 -110.5t-42.5 -109t-44 -110.5t-46 -110l-358 -853h-277z" />
    <glyph glyph-name="X" unicode="X" horiz-adv-x="1244" 
d="M537 729l-327 694h207l269 -579l3 -2q22 26 40.5 50t37 46.5t39 46t41.5 49.5l327 389h210l-597 -700l343 -723h-209l-286 607l-4 1q-39 -49 -75 -92t-76 -93l-356 -423h-205z" />
    <glyph glyph-name="Y" unicode="Y" horiz-adv-x="1078" 
d="M453 552l-271 871h188l134 -413q14 -42 23.5 -75.5t18.5 -64t18 -62t19 -68.5h4q23 38 43.5 71t41.5 64.5l43 64.5t49 71l290 412h199l-614 -872l-106 -551h-187z" />
    <glyph glyph-name="Z" unicode="Z" horiz-adv-x="998" 
d="M-16 126l862 1141h-612l31 156h843l-25 -125l-863 -1141h658l-30 -157h-888z" />
    <glyph glyph-name="bracketleft" unicode="[" horiz-adv-x="647" 
d="M380 1511h415l-26 -135h-251l-306 -1574h250l-26 -136h-415z" />
    <glyph glyph-name="backslash" unicode="\" horiz-adv-x="804" 
d="M211 1511h165l308 -1738h-164z" />
    <glyph glyph-name="bracketright" unicode="]" horiz-adv-x="647" 
d="M-90 -198h250l306 1574h-251l26 135h416l-358 -1845h-415z" />
    <glyph glyph-name="asciicircum" unicode="^" 
d="M627 1423h191l234 -687h-173l-183 531l-395 -531h-177z" />
    <glyph glyph-name="underscore" unicode="_" 
d="M-135 -314h1060l-30 -157h-1061z" />
    <glyph glyph-name="grave" unicode="`" horiz-adv-x="778" 
d="M499 1551l225 -305l-96 -84l-255 283z" />
    <glyph glyph-name="a" unicode="a" horiz-adv-x="1123" 
d="M716 144q-36 -34 -77 -63.5t-86.5 -52t-94.5 -35t-98 -12.5q-124 0 -197 79t-73 237q0 169 42.5 304.5t116.5 230t174 145t214 50.5q77 0 137.5 -21.5t106.5 -54.5l17 56h153l-195 -1007h-152zM829 811q-44 32 -90 50t-106 18q-80 0 -145 -45.5t-110.5 -122t-71.5 -177
t-26 -210.5q0 -95 36 -142.5t104 -47.5q67 0 148 52t168 149z" />
    <glyph glyph-name="b" unicode="b" horiz-adv-x="1119" 
d="M364 1511h185l-77 -394q-12 -65 -24.5 -120.5t-30.5 -118.5l2 -2q34 29 73 56.5t82.5 48.5t91.5 33.5t96 12.5q125 0 197.5 -79.5t72.5 -237.5q0 -168 -42 -303.5t-116.5 -230.5t-174 -145t-214.5 -50q-76 0 -136.5 21t-107.5 54l-17 -56h-152zM293 196q44 -32 90 -49.5
t106 -17.5q79 0 144.5 45t111.5 121.5t72 177t26 210.5q0 95 -36.5 142.5t-104.5 47.5q-66 0 -147.5 -51.5t-168.5 -149.5z" />
    <glyph glyph-name="b" unicode="&#xe003;" horiz-adv-x="1119" 
d="M364 1511h185l-77 -394q-12 -65 -24.5 -120.5t-30.5 -118.5l2 -2q34 29 73 56.5t82.5 48.5t91.5 33.5t96 12.5q125 0 197.5 -79.5t72.5 -237.5q0 -168 -42 -303.5t-116.5 -230.5t-174 -145t-214.5 -50q-76 0 -136.5 21t-107.5 54l-17 -56h-152zM293 196q44 -32 90 -49.5
t106 -17.5q79 0 144.5 45t111.5 121.5t72 177t26 210.5q0 95 -36.5 142.5t-104.5 47.5q-66 0 -147.5 -51.5t-168.5 -149.5z" />
    <glyph glyph-name="c" unicode="c" horiz-adv-x="826" 
d="M694 17q-59 -16 -125.5 -26.5t-131.5 -10.5q-81 0 -146 17t-110 55.5t-68.5 100t-23.5 152.5q0 21 1 42.5t3 45.5t6 50t10 57q26 144 75.5 244.5t117 163t151.5 91t178 28.5q57 0 111 -8t99 -22l-42 -138q-40 11 -79 16t-82 5q-57 0 -109 -17.5t-96 -61t-79 -115.5
t-58 -183q-11 -52 -15 -95.5t-4 -81.5q0 -111 50.5 -155t151.5 -44q48 0 99.5 7.5t108.5 23.5z" />
    <glyph glyph-name="d" unicode="d" horiz-adv-x="1123" 
d="M716 144q-36 -34 -77 -63.5t-86.5 -52t-94.5 -35t-98 -12.5q-124 0 -197 79t-73 237q0 169 42.5 304.5t116.5 230t174 145t214 50.5q68 0 126 -18.5t102 -46.5l3 2q7 63 15 119.5t20 111.5l61 316h185l-293 -1511h-152zM829 811q-44 32 -90 50t-106 18q-80 0 -145 -45.5
t-110.5 -122t-71.5 -177t-26 -210.5q0 -95 36 -142.5t104 -47.5q67 0 148 52t168 149z" />
    <glyph glyph-name="e" unicode="e" horiz-adv-x="978" 
d="M773 29q-69 -23 -154 -36t-176 -13q-86 0 -151.5 15.5t-110.5 53.5t-68.5 100t-23.5 155q0 43 5 94t14 100q26 144 74.5 246.5t116.5 167t153.5 94t182.5 29.5q148 0 229.5 -63.5t81.5 -177.5q0 -91 -40.5 -157.5t-122.5 -111t-206.5 -65.5t-290.5 -21q-4 -25 -8.5 -63
t-4.5 -67q0 -102 48 -142t150 -40q74 0 148.5 10.5t147.5 32.5zM311 567q233 -1 346 47t113 157q0 55 -38.5 87t-118.5 32q-55 0 -102 -17.5t-84.5 -56t-67 -100t-48.5 -149.5z" />
    <glyph glyph-name="f" unicode="f" horiz-adv-x="648" 
d="M265 -92q-20 -106 -54.5 -176t-83 -112t-112.5 -60.5t-145 -18.5q-38 0 -74 4t-76 13l30 143q40 -9 67 -11t61 -2q37 0 67.5 11.5t56.5 37t45 68t32 103.5l185 955h-157l28 144h157l32 167q22 104 56 175t84.5 113t117.5 59.5t154 17.5q46 0 90 -4.5t85 -15.5l-31 -142
q-42 9 -77 12.5t-74 3.5q-43 0 -77.5 -11.5t-61.5 -37t-47.5 -67.5t-31.5 -104l-33 -166h275l-28 -144h-275z" />
    <glyph glyph-name="g" unicode="g" horiz-adv-x="1123" 
d="M829 811q-44 32 -90 50t-105 18q-80 0 -144.5 -45.5t-111 -122t-72.5 -177t-26 -210.5q0 -95 36 -142.5t104 -47.5q67 0 148 52t168 149zM847 -46q-22 -111 -64.5 -189t-107.5 -127.5t-153 -72t-202 -22.5q-89 0 -161 9.5t-139 25.5l30 145q67 -16 133.5 -24.5
t149.5 -8.5q142 0 221.5 61t108.5 206q5 29 9.5 49t9 38.5t10.5 38t13 47.5l-2 2q-34 -30 -73 -57.5t-82.5 -48.5t-91 -33t-96.5 -12q-124 0 -197 79t-73 237q0 169 42.5 304.5t116.5 230t173 145t214 50.5q78 0 138.5 -21.5t106.5 -54.5l17 56h153z" />
    <glyph glyph-name="h" unicode="h" horiz-adv-x="1160" 
d="M364 1511h185l-77 -396q-12 -65 -25 -120t-31 -121l2 -2q34 29 76 57t90 50t102 35t111 13q128 0 189 -61t61 -181q0 -26 -4 -56t-10 -63l-128 -666h-185l125 649q6 26 8.5 51.5t2.5 45.5q0 66 -30.5 96.5t-97.5 30.5q-78 0 -166.5 -52.5t-175.5 -152.5l-130 -668h-184z
" />
    <glyph glyph-name="i" unicode="i" horiz-adv-x="523" 
d="M266 1007h186l-196 -1007h-184zM546 1389q0 -11 -1.5 -24.5t-4.5 -27.5q-6 -31 -14.5 -53t-24.5 -34.5t-40 -17.5t-59 -5q-54 0 -76.5 13t-22.5 50q0 12 1.5 25t3.5 28q5 31 14 52.5t25 34.5t39.5 18t60.5 5q53 0 76 -13t23 -51z" />
    <glyph glyph-name="j" unicode="j" horiz-adv-x="523" 
d="M240 -91q-22 -102 -55.5 -172t-83 -112.5t-114 -62t-145.5 -19.5q-38 0 -79.5 4.5t-79.5 12.5l27 142q37 -6 72 -9t70 -3q36 0 68 11.5t57.5 37.5t45 69.5t32.5 105.5l213 1093h185zM547 1389q0 -11 -1.5 -24.5t-4.5 -27.5q-6 -31 -14.5 -53t-24.5 -34.5t-39.5 -17.5
t-59.5 -5q-53 0 -76 13t-23 50q0 12 1.5 25t4.5 28q4 31 13.5 52.5t25.5 34.5t39 18t60 5q54 0 76.5 -13t22.5 -51z" />
    <glyph glyph-name="k" unicode="k" horiz-adv-x="969" 
d="M364 1511h185l-181 -937l447 433h231l-501 -471l303 -536h-207l-284 518l-101 -518h-184z" />
    <glyph glyph-name="l" unicode="l" horiz-adv-x="523" 
d="M364 1511h185l-293 -1511h-184z" />
    <glyph glyph-name="m" unicode="m" horiz-adv-x="1753" 
d="M266 1007h153l-12 -145q36 33 77.5 63t88.5 52.5t99.5 36t108.5 13.5q109 0 165 -47t66 -131q35 33 77 65t91 56.5t104 40.5t116 16q121 0 180 -61t59 -181q0 -26 -3.5 -56t-9.5 -63l-129 -666h-185l126 649q5 26 8 51.5t3 45.5q0 66 -28 96.5t-90 30.5q-77 0 -160.5 -55
t-164.5 -150l-129 -668h-184l125 649q6 26 8.5 51.5t2.5 45.5q0 65 -28 96t-89 31q-76 0 -157.5 -52.5t-168.5 -152.5l-130 -668h-184z" />
    <glyph glyph-name="n" unicode="n" horiz-adv-x="1160" 
d="M266 1007h153l-12 -145q36 33 79.5 63t93.5 52.5t105 36t112 13.5q128 0 189 -61t61 -181q0 -26 -4 -56t-10 -63l-128 -666h-185l125 649q6 26 8.5 51.5t2.5 45.5q0 66 -30.5 96.5t-97.5 30.5q-78 0 -166.5 -52.5t-175.5 -152.5l-130 -668h-184z" />
    <glyph glyph-name="o" unicode="o" horiz-adv-x="1087" 
d="M998 695q0 -40 -4.5 -86t-14.5 -103q-27 -146 -75.5 -247.5t-115.5 -165.5t-153 -92.5t-190 -28.5q-83 0 -149.5 17.5t-112 58t-70 105.5t-24.5 159q0 40 4.5 86t14.5 104q27 145 75.5 246.5t115.5 165.5t153.5 92.5t188.5 28.5q84 0 150 -18t112 -58t70.5 -105
t24.5 -159zM811 682q0 117 -49.5 161.5t-141.5 44.5q-58 0 -108 -18t-90.5 -62t-72 -117.5t-54.5 -186.5q-5 -25 -8.5 -50t-5.5 -47.5t-3.5 -43t-1.5 -38.5q0 -116 49.5 -161t141.5 -45q58 0 108 17.5t90.5 61.5t72 118t53.5 188q5 24 9.5 48.5t6.5 48t3 44t1 37.5z" />
    <glyph glyph-name="p" unicode="p" horiz-adv-x="1119" 
d="M266 1007h154l-13 -143q36 33 76.5 62.5t86.5 52t95 35.5t97 13q125 0 197.5 -79.5t72.5 -237.5q0 -168 -42 -303.5t-116.5 -230.5t-174 -145t-214.5 -50q-68 0 -125.5 18t-100.5 46l-4 -2q-7 -63 -15 -119t-20 -113l-47 -247h-186zM293 196q44 -32 90 -49.5t106 -17.5
q79 0 144.5 45t111.5 121.5t72 177t26 210.5q0 95 -36.5 142.5t-104.5 47.5q-66 0 -147.5 -51.5t-168.5 -149.5z" />
    <glyph glyph-name="q" unicode="q" horiz-adv-x="1123" 
d="M771 -436h-185l64 329q13 63 25 118t30 119l-2 2q-34 -30 -73 -57.5t-82.5 -48.5t-91 -33t-96.5 -12q-124 0 -197 78.5t-73 236.5q0 170 42.5 305.5t116.5 230t173 145t214 50.5q78 0 138.5 -21.5t106.5 -54.5l17 56h153zM829 811q-44 32 -90 50t-105 18
q-80 0 -144.5 -45.5t-111 -122t-72.5 -177.5t-26 -211q0 -94 36 -141.5t104 -47.5q67 0 148 52t168 149z" />
    <glyph glyph-name="r" unicode="r" horiz-adv-x="683" 
d="M266 1007h153l-12 -152q28 31 63.5 63t75.5 57.5t83 42t82 16.5q30 0 51 -10l-39 -183q-21 11 -52 11q-71 0 -142 -48.5t-144 -137.5l-129 -666h-184z" />
    <glyph glyph-name="s" unicode="s" horiz-adv-x="794" 
d="M58 153q62 -16 121.5 -23.5t118.5 -7.5q107 0 165 41t58 117q0 24 -7.5 43t-27 37.5t-52.5 40.5t-83 51q-59 34 -99 63.5t-65 59.5t-35.5 65.5t-10.5 83.5q0 154 103.5 228.5t294.5 74.5q53 0 106 -7.5t100 -18.5l-30 -139q-47 10 -94 16.5t-95 6.5q-104 0 -156 -35
t-52 -106q0 -25 8 -44t26 -37.5t47 -38t72 -43.5q66 -39 109.5 -70.5t69.5 -61.5t37.5 -63t11.5 -76q0 -86 -30.5 -148.5t-84.5 -102.5t-129 -59.5t-166 -19.5q-70 0 -132.5 9t-126.5 24z" />
    <glyph glyph-name="s" unicode="&#xe004;" horiz-adv-x="794" 
d="M58 153q62 -16 121.5 -23.5t118.5 -7.5q107 0 165 41t58 117q0 24 -7.5 43t-27 37.5t-52.5 40.5t-83 51q-59 34 -99 63.5t-65 59.5t-35.5 65.5t-10.5 83.5q0 154 103.5 228.5t294.5 74.5q53 0 106 -7.5t100 -18.5l-30 -139q-47 10 -94 16.5t-95 6.5q-104 0 -156 -35
t-52 -106q0 -25 8 -44t26 -37.5t47 -38t72 -43.5q66 -39 109.5 -70.5t69.5 -61.5t37.5 -63t11.5 -76q0 -86 -30.5 -148.5t-84.5 -102.5t-129 -59.5t-166 -19.5q-70 0 -132.5 9t-126.5 24z" />
    <glyph glyph-name="t" unicode="t" horiz-adv-x="665" 
d="M286 1007l57 295l190 27l-62 -322h225l-28 -144h-225l-117 -600q-4 -17 -5 -32.5t-1 -27.5q0 -43 19.5 -58.5t57.5 -15.5q33 0 62.5 5t59.5 14l6 -141q-46 -11 -91.5 -17.5t-95.5 -6.5q-54 0 -94 9.5t-66 30.5t-38.5 53.5t-12.5 78.5q0 20 3 41.5t8 46.5l119 620h-149
l29 144h149z" />
    <glyph glyph-name="u" unicode="u" horiz-adv-x="1161" 
d="M440 1007l-124 -648q-6 -27 -9 -52t-3 -47q0 -65 30.5 -95.5t97.5 -30.5q78 0 166.5 52.5t175.5 152.5l130 668h185l-195 -1007h-153l12 146q-36 -34 -79.5 -64t-93 -53t-105 -35.5t-112.5 -12.5q-128 0 -189 60.5t-61 179.5q0 28 4 57.5t10 63.5l128 665h185z" />
    <glyph glyph-name="v" unicode="v" horiz-adv-x="972" 
d="M128 1007h185l68 -537q5 -49 9.5 -91t8.5 -82t6.5 -80.5t5.5 -87.5h4q21 50 39.5 90.5t37.5 80t38 81t44 89.5l279 537h185l-522 -1007h-256z" />
    <glyph glyph-name="w" unicode="w" horiz-adv-x="1605" 
d="M137 1007h189l43 -537q3 -44 5.5 -85t4 -83t3 -84.5t2.5 -87.5h2q34 86 69 169t74 171l244 537h252l40 -537q4 -45 6.5 -86t4.5 -82.5t3 -84t2 -87.5h3q19 47 36.5 90t34 84t34.5 81.5t38 84.5l248 537h187l-473 -1007h-255l-45 539q-7 88 -10.5 166.5t-2.5 171.5h-2
q-36 -90 -67.5 -169.5t-71.5 -167.5l-252 -540h-254z" />
    <glyph glyph-name="x" unicode="x" horiz-adv-x="1001" 
d="M374 518l-242 489h201l192 -392l2 1q28 33 48 58l48 60l234 273h208l-440 -496l257 -511h-208l-199 417h-3q-26 -34 -48.5 -61t-52.5 -64l-241 -292h-206z" />
    <glyph glyph-name="y" unicode="y" horiz-adv-x="971" 
d="M123 1007h193l69 -511q7 -48 10.5 -89t7 -80.5t6 -80.5t5.5 -90h3q22 49 41 89.5t37.5 80t38.5 81t46 89.5l269 511h198l-618 -1137q-54 -98 -99 -161.5t-93 -100t-104 -51t-130 -14.5q-36 0 -69.5 4.5t-67.5 12.5l27 141q30 -5 59.5 -8t59.5 -3q33 0 61.5 7t57 26
t57 55.5t61.5 94.5l71 127h-54z" />
    <glyph glyph-name="y" unicode="&#xe006;" horiz-adv-x="971" 
d="M123 1007h193l69 -511q7 -48 10.5 -89t7 -80.5t6 -80.5t5.5 -90h3q22 49 41 89.5t37.5 80t38.5 81t46 89.5l269 511h198l-618 -1137q-54 -98 -99 -161.5t-93 -100t-104 -51t-130 -14.5q-36 0 -69.5 4.5t-67.5 12.5l27 141q30 -5 59.5 -8t59.5 -3q33 0 61.5 7t57 26
t57 55.5t61.5 94.5l71 127h-54z" />
    <glyph glyph-name="z" unicode="z" horiz-adv-x="843" 
d="M-3 108l607 750h-432l28 149h660l-21 -104l-609 -754h476l-29 -149h-700z" />
    <glyph glyph-name="braceleft" unicode="{" horiz-adv-x="622" 
d="M401 -330q-14 -1 -31.5 -2.5t-38.5 -1.5q-110 0 -163.5 53.5t-53.5 158.5q0 22 2.5 48t7.5 56l55 283q5 21 8.5 48t3.5 45q0 65 -30.5 109.5t-99.5 77.5l28 142q49 20 86 46t64.5 61.5t46.5 81t31 104.5l45 230q15 78 39.5 135t61.5 94.5t88.5 55.5t120.5 18q26 0 47 -2
t38 -6l-23 -129h-45q-78 0 -113.5 -48.5t-51.5 -136.5l-45 -237q-14 -67 -35 -120t-51.5 -94t-70 -73.5t-90.5 -58.5q62 -38 94.5 -92.5t32.5 -131.5q0 -29 -3 -55t-10 -63l-57 -292q-5 -25 -7.5 -44t-2.5 -35q0 -54 33.5 -75t113.5 -21z" />
    <glyph glyph-name="bar" unicode="|" horiz-adv-x="533" 
d="M372 1511h179l-377 -1947h-180z" />
    <glyph glyph-name="braceright" unicode="}" horiz-adv-x="624" 
d="M-78 -197h44q78 0 113 48.5t52 136.5l52 275q15 68 36 120.5t51.5 93.5t70.5 73t90 58q-61 39 -94 93.5t-33 132.5q0 27 3 55.5t9 60.5l52 255q4 24 6 43t2 35q0 53 -33 74.5t-113 21.5l25 128q14 2 31 3t39 1q110 0 163.5 -52.5t53.5 -158.5q0 -22 -2 -48.5t-8 -55.5
l-49 -244q-4 -22 -7 -48t-3 -43q0 -69 31 -114t98 -75l-28 -142q-49 -19 -86 -45.5t-65 -62t-46.5 -81t-29.5 -103.5l-55 -270q-15 -77 -39 -134t-61.5 -94t-89 -56t-119.5 -19q-27 0 -47.5 2.5t-37.5 5.5z" />
    <glyph glyph-name="asciitilde" unicode="~" 
d="M210 928q12 80 41 145t70 111.5t93 71.5t111 25q52 0 86.5 -16t59.5 -38.5t43.5 -50t36.5 -50.5t39.5 -39t54.5 -16q49 0 90 48t62 150h142q-13 -80 -42 -145.5t-70 -111.5t-93 -71t-110 -25q-53 0 -87.5 16t-59.5 38.5t-43.5 50.5t-36.5 50.5t-40.5 38.5t-53.5 16
q-51 0 -91.5 -48t-60.5 -150h-141z" />
    <glyph glyph-name="exclamdown" unicode="&#xa1;" horiz-adv-x="575" 
d="M248 703h155l-199 -1139h-199zM504 1046q0 -13 -1.5 -27t-4.5 -29q-7 -30 -16 -51t-24 -33.5t-39 -18.5t-59 -6q-51 0 -74.5 13.5t-23.5 47.5q0 13 1.5 26.5t3.5 28.5q6 30 15.5 51t25 34t39.5 18.5t58 5.5q52 0 75.5 -13.5t23.5 -46.5z" />
    <glyph glyph-name="cent" unicode="&#xa2;" 
d="M865 1423l-36 -186q52 -2 110 -13t104 -26l-43 -143q-53 16 -117 24.5t-116 8.5q-70 0 -132 -16.5t-112.5 -59.5t-87.5 -117t-59 -186q-8 -43 -12 -80.5t-4 -68.5q0 -70 18.5 -113.5t52.5 -69t80 -35t105 -9.5t120.5 8t123.5 24l8 -145q-59 -16 -122.5 -25t-121.5 -11
l-35 -184h-151l36 189q-64 9 -118.5 28.5t-95 59t-63.5 100t-23 149.5q0 41 4.5 85t14.5 97q27 143 74.5 240t110.5 157t139.5 90t159.5 39l37 189h151z" />
    <glyph glyph-name="sterling" unicode="&#xa3;" 
d="M369 803q-1 34 -2 60.5t-3 49.5t-2.5 44.5t-0.5 44.5q0 123 38 208t104.5 138.5t154.5 76.5t190 23q94 0 155 -10t114 -23l-35 -144q-60 12 -115 20t-130 8q-59 0 -113.5 -15t-95.5 -51t-64.5 -95.5t-23.5 -145.5q0 -26 1.5 -46t2.5 -40t2.5 -44.5t2.5 -58.5h389
l-28 -150h-368q-9 -73 -27.5 -139t-44.5 -127.5t-58.5 -119t-68.5 -114.5h545l-29 -153h-862l29 153h117q39 57 73.5 114.5t63 118.5t47.5 127t30 140h-182l28 150h166z" />
    <glyph glyph-name="currency" unicode="&#xa4;" horiz-adv-x="1241" 
d="M237 453q-11 26 -18 60.5t-7 77.5q0 58 11.5 116t29.5 109t42 95.5t52 78.5l-152 191l120 101l152 -190q53 35 121.5 57.5t160.5 22.5q91 0 148.5 -21t93.5 -54l197 165l93 -116l-197 -166q11 -26 18 -60.5t7 -77.5q0 -58 -11 -116t-29 -109.5t-42 -95.5t-52 -77
l151 -192l-120 -101l-153 190q-50 -33 -120 -56.5t-160 -23.5q-91 0 -148.5 21t-94.5 55l-198 -166l-92 116zM956 820q0 112 -59.5 163.5t-173.5 51.5q-83 0 -149 -33t-112 -89.5t-71 -133t-25 -166.5q0 -55 15 -96t45 -67t73 -39t101 -13q81 0 147 33t112 89t71.5 133
t25.5 167z" />
    <glyph glyph-name="yen" unicode="&#xa5;" 
d="M397 212h-290l26 133h290l33 176h-290l26 133h266l-214 769h190l104 -386q10 -39 18 -70t15.5 -60t15 -58.5t14.5 -66.5h4q22 37 40 68t36.5 61t36.5 60t40 66l249 386h199l-514 -769h266l-28 -133h-289l-34 -176h290l-26 -133h-289l-41 -212h-184z" />
    <glyph glyph-name="brokenbar" unicode="&#xa6;" horiz-adv-x="533" 
d="M143 335h180l-149 -771h-180zM372 1511h179l-155 -798h-179z" />
    <glyph glyph-name="section" unicode="&#xa7;" horiz-adv-x="1130" 
d="M115 -177q60 -16 121 -24.5t129 -8.5q65 0 114.5 13t83.5 35.5t51 54t17 70.5q0 31 -11.5 56.5t-39 52.5t-74.5 60t-120 78q-79 51 -129.5 93.5t-79 81t-39 76.5t-10.5 82q0 73 24 131.5t63.5 105.5t89 83.5t101.5 64.5q-37 39 -56.5 83t-19.5 104q0 77 30.5 139.5
t89 106t145 67t199.5 23.5q78 0 149 -10t125 -27l-39 -143q-59 15 -120 23t-130 8q-63 0 -113 -12t-83.5 -35.5t-51 -55t-17.5 -68.5q0 -33 11.5 -58t39 -52t74 -60t120.5 -79q79 -50 129 -92t78.5 -81.5t39.5 -77.5t11 -81q0 -71 -21 -127.5t-59 -103.5t-89 -84.5
t-108 -70.5q40 -42 57 -85.5t17 -100.5q0 -78 -30 -140t-88.5 -106t-145.5 -67.5t-200 -23.5q-77 0 -148 10.5t-126 27.5zM634 758q-40 25 -61 38t-47 33q-93 -46 -155.5 -109t-62.5 -146q0 -29 7.5 -54.5t29.5 -52.5t60.5 -58t102.5 -71q40 -26 62.5 -41t48.5 -34
q99 48 158 114t59 145q0 27 -8.5 52.5t-30.5 53.5t-61.5 59t-101.5 71z" />
    <glyph glyph-name="dieresis" unicode="&#xa8;" horiz-adv-x="1090" 
d="M609 1389q0 -12 -1.5 -25t-3.5 -28q-7 -31 -16.5 -51t-24.5 -31t-37.5 -16t-53.5 -5q-48 0 -71 12t-23 47q0 12 1.5 24.5t3.5 27.5q6 31 15.5 51t25 32t38 16t53.5 4q47 0 70.5 -12t23.5 -46zM1028 1389q0 -12 -1.5 -25t-4.5 -28q-6 -31 -15.5 -51t-25 -31t-38 -16
t-53.5 -5q-48 0 -71 12t-23 47q0 12 1.5 24.5t4.5 27.5q5 31 15 51t25.5 32t37.5 16t54 4q47 0 70.5 -12t23.5 -46z" />
    <glyph glyph-name="copyright" unicode="&#xa9;" horiz-adv-x="1866" 
d="M1176 306q-65 -16 -130.5 -25t-143.5 -9q-75 0 -139 19.5t-110.5 61t-72.5 106t-26 154.5q0 33 3.5 69.5t12.5 77.5q25 131 73 221t113.5 147t147.5 82.5t177 25.5q67 0 121.5 -9t114.5 -26l-32 -116q-58 15 -104.5 22.5t-101.5 7.5q-61 0 -117 -18t-102.5 -60.5
t-80.5 -112t-55 -173.5q-6 -33 -9 -63.5t-3 -59.5q0 -69 17.5 -114t48 -72t70.5 -38.5t86 -11.5q60 0 117 7.5t118 23.5zM1771 818q0 -205 -60.5 -363t-170 -266t-263 -163.5t-339.5 -55.5q-183 0 -322 54t-234 150t-142.5 229.5t-47.5 290.5q0 205 60 363.5t170 266.5
t262.5 163.5t337.5 55.5q184 0 324 -53.5t234.5 -150.5t142.5 -230t48 -291zM1626 815q0 132 -35.5 242.5t-110.5 191.5t-190.5 126.5t-274.5 45.5t-284.5 -46.5t-214 -136.5t-134.5 -225t-46 -316q0 -131 36 -242.5t110.5 -192.5t189.5 -125t274 -44t285.5 45.5t214 136
t134 225.5t46.5 315z" />
    <glyph glyph-name="ordfeminine" unicode="&#xaa;" horiz-adv-x="727" 
d="M87 573h585l-24 -123h-584zM551 814q-50 -49 -112.5 -82.5t-131.5 -33.5q-82 0 -135 58.5t-53 172.5q0 115 29.5 210t81 162.5t121 105.5t149.5 38q53 0 95 -16t72 -39l15 41h117l-139 -718h-117zM629 1283q-29 23 -61.5 35t-73.5 12q-51 0 -93.5 -33t-73 -87
t-47.5 -122.5t-17 -139.5q0 -69 22.5 -100t65.5 -31q47 0 102 38.5t116 108.5z" />
    <glyph glyph-name="guillemotleft" unicode="&#xab;" horiz-adv-x="992" 
d="M487 511l362 425l131 -84l-288 -358l148 -363l-153 -70zM70 518l382 446l131 -83l-308 -380l159 -388l-154 -70z" />
    <glyph glyph-name="logicalnot" unicode="&#xac;" 
d="M163 659h817l-80 -407h-153l52 262h-664z" />
    <glyph glyph-name="uni00AD" unicode="&#xad;" horiz-adv-x="892" 
d="M177 622h581l-31 -162h-582z" />
    <glyph glyph-name="registered" unicode="&#xae;" horiz-adv-x="963" 
d="M487 1295h144q89 0 122.5 -28.5t33.5 -80.5q0 -54 -37 -89.5t-92 -45.5l74 -180h-99l-69 172h-38l-33 -172h-87zM588 1108q55 0 80 20.5t25 50.5q0 24 -14 34.5t-57 10.5h-61l-23 -116h50zM977 1109q0 -94 -29 -169t-82 -127t-128 -80t-168 -28q-78 0 -144.5 21t-115 64
t-76.5 108.5t-28 151.5q0 94 28.5 168.5t81.5 127t127 80t166 27.5q80 0 146.5 -21t115.5 -64t77.5 -108t28.5 -151zM880 1109q0 135 -74 198t-200 63q-147 0 -225 -82t-78 -238q0 -136 72.5 -198.5t198.5 -62.5q149 0 227.5 81.5t78.5 238.5z" />
    <glyph glyph-name="macron" unicode="&#xaf;" horiz-adv-x="1124" 
d="M465 1404h557l-26 -141h-558z" />
    <glyph glyph-name="degree" unicode="&#xb0;" horiz-adv-x="782" 
d="M841 1246q0 -69 -25 -126t-69.5 -96.5t-104.5 -62t-129 -22.5q-137 0 -214 73t-77 209q0 69 25.5 126t69 97t103.5 62.5t130 22.5q136 0 213.5 -73t77.5 -210zM692 1238q0 77 -38.5 121.5t-114.5 44.5t-121 -49t-45 -126q0 -76 37 -121.5t114 -45.5q76 0 122 50t46 126z
" />
    <glyph glyph-name="plusminus" unicode="&#xb1;" 
d="M170 822h344l72 371h156l-72 -371h349l-27 -145h-350l-73 -373h-156l73 373h-344zM39 144h850l-28 -144h-850z" />
    <glyph glyph-name="twosuperior" unicode="&#xb2;" horiz-adv-x="572" 
d="M104 822l187 170q76 68 128 127.5t52 118.5q0 36 -25 57.5t-74 21.5q-33 0 -65 -5t-71 -16l-8 114q48 14 99 21t104 7q99 0 156.5 -43.5t57.5 -121.5q0 -48 -15.5 -90.5t-44.5 -81.5t-68.5 -76t-87.5 -75l-133 -114h279l-23 -123h-469z" />
    <glyph glyph-name="threesuperior" unicode="&#xb3;" horiz-adv-x="549" 
d="M107 830q33 -8 68.5 -12.5t68.5 -4.5q76 0 122 32.5t46 94.5q0 22 -8.5 39t-29.5 29t-57 18t-90 6l21 108q101 0 156 31.5t55 88.5q0 32 -25 48.5t-77 16.5q-33 0 -62 -4.5t-64 -13.5l-9 108q46 11 88.5 17t88.5 6q105 0 161 -39.5t56 -108.5q0 -43 -14.5 -75.5
t-36.5 -56.5t-50 -40.5t-57 -25.5q53 -12 83.5 -51.5t30.5 -95.5t-24 -101.5t-67.5 -77t-101.5 -48.5t-124 -17q-48 0 -91 4t-83 13z" />
    <glyph glyph-name="acute" unicode="&#xb4;" horiz-adv-x="778" 
d="M646 1529l106 -123l-322 -249l-79 92z" />
    <glyph glyph-name="mu" unicode="&#xb5;" horiz-adv-x="1154" 
d="M250 1007h185l-126 -648q-23 -122 5 -173.5t112 -51.5q38 0 80 13.5t86 39.5t88.5 64.5t87.5 87.5l130 668h184l-194 -1007h-153l12 146q-32 -31 -71.5 -60t-83 -53t-92.5 -38t-99 -14q-61 0 -98 18.5t-61 51.5l-2 -2q-7 -63 -16.5 -119t-19.5 -112l-49 -254h-185z" />
    <glyph glyph-name="paragraph" unicode="&#xb6;" horiz-adv-x="1127" 
d="M511 450q-173 2 -254 70.5t-81 222.5q0 45 6.5 97t18.5 113q25 126 70.5 216.5t115.5 146.5t167 81.5t227 25.5h477l-22 -104h-151l-322 -1653h-127l321 1653h-151l-322 -1653h-125z" />
    <glyph glyph-name="periodcentered" unicode="&#xb7;" horiz-adv-x="471" 
d="M367 584q0 -13 -1.5 -26t-4.5 -29q-6 -32 -15.5 -54t-25.5 -35.5t-40.5 -19t-60.5 -5.5q-57 0 -81 14t-24 52q0 13 1.5 26.5t3.5 28.5q7 32 17 54t25.5 35.5t40 19t61.5 5.5q55 0 79.5 -14t24.5 -52z" />
    <glyph glyph-name="cedilla" unicode="&#xb8;" horiz-adv-x="581" 
d="M112 0h118l-33 -104q46 -3 77 -15.5t50 -31t27 -42t8 -48.5q0 -57 -23 -97t-61 -65.5t-89.5 -37t-110.5 -11.5q-38 0 -71 3t-65 13l26 96q29 -6 55.5 -9t55.5 -3q60 0 99 21.5t39 73.5q0 31 -24 47.5t-83 16.5h-55z" />
    <glyph glyph-name="onesuperior" unicode="&#xb9;" horiz-adv-x="440" 
d="M324 1258l-132 -62l-40 92l229 138h120l-137 -713h-144z" />
    <glyph glyph-name="ordmasculine" unicode="&#xba;" horiz-adv-x="788" 
d="M829 1209q0 -32 -3.5 -64.5t-11.5 -73.5q-21 -107 -56 -180.5t-84 -119.5t-111 -66t-136 -20q-117 0 -185.5 55t-68.5 184q0 30 3.5 63.5t12.5 74.5q20 106 55 180t84 120t111.5 66t135.5 20q118 0 185.5 -54t68.5 -185zM684 1195q0 77 -32 107.5t-96 30.5q-42 0 -76 -13
t-62 -44.5t-49.5 -83.5t-36.5 -130q-7 -34 -11 -67t-4 -57q0 -78 32.5 -108.5t96.5 -30.5q40 0 75 13.5t63 45t49 83.5t37 129q6 35 10 68t4 57zM136 573h547l-23 -123h-547z" />
    <glyph glyph-name="guillemotright" unicode="&#xbb;" horiz-adv-x="992" 
d="M716 507l-158 387l154 70l210 -474l-382 -447l-131 84zM300 513l-148 362l153 71l200 -450l-362 -425l-131 84z" />
    <glyph glyph-name="onequarter" unicode="&#xbc;" horiz-adv-x="1281" 
d="M1205 1468l100 -80l-1206 -1431l-101 80zM325 1258l-132 -62l-40 92l229 138h120l-137 -713h-144zM955 139h-317l25 130l335 444h210l-88 -451h85l-24 -123h-85l-26 -139h-140zM979 262l64 327l-250 -327h186z" />
    <glyph glyph-name="onehalf" unicode="&#xbd;" horiz-adv-x="1376" 
d="M1205 1468l100 -80l-1206 -1431l-101 80zM325 1258l-132 -62l-40 92l229 138h120l-137 -713h-144zM769 109l187 170q76 68 128 127.5t52 118.5q0 36 -25 57.5t-74 21.5q-33 0 -65 -5t-71 -16l-8 114q48 14 99 21t104 7q99 0 156.5 -43.5t57.5 -121.5q0 -48 -15.5 -90.5
t-44.5 -81.5t-68.5 -76t-87.5 -75l-133 -114h279l-23 -123h-469z" />
    <glyph glyph-name="threequarters" unicode="&#xbe;" horiz-adv-x="1387" 
d="M1310 1468l100 -80l-1206 -1431l-101 80zM1062 139h-317l25 130l335 444h210l-88 -451h85l-24 -123h-85l-26 -139h-140zM1086 262l64 327l-250 -327h186zM141 830q33 -8 68.5 -12.5t68.5 -4.5q76 0 122 32.5t46 94.5q0 22 -8.5 39t-29.5 29t-57 18t-90 6l21 108
q101 0 156 31.5t55 88.5q0 32 -25 48.5t-77 16.5q-33 0 -62 -4.5t-64 -13.5l-9 108q46 11 88.5 17t88.5 6q105 0 161 -39.5t56 -108.5q0 -43 -14.5 -75.5t-36.5 -56.5t-50 -40.5t-57 -25.5q53 -12 83.5 -51.5t30.5 -95.5t-24 -101.5t-67.5 -77t-101.5 -48.5t-124 -17
q-48 0 -91 4t-83 13z" />
    <glyph glyph-name="questiondown" unicode="&#xbf;" horiz-adv-x="647" 
d="M502 703l-29 -161q-11 -64 -26.5 -111.5t-40.5 -88.5t-62 -81.5t-89 -91.5q-53 -51 -95 -93.5t-71 -80.5t-45 -77.5t-16 -83.5q0 -29 9.5 -54.5t32 -44.5t59.5 -30t94 -11t115 7t126 22l11 -140q-73 -18 -148.5 -27t-156.5 -9q-86 0 -149 18.5t-104.5 51t-62 79.5
t-20.5 103q0 73 17.5 129.5t51.5 106.5t84 99t114 109q49 43 84 78t61.5 70.5t43.5 76.5t28 95l27 140h157zM600 1046q0 -13 -1.5 -27t-3.5 -29q-6 -30 -15.5 -51t-24.5 -33.5t-39 -18.5t-59 -6q-51 0 -74.5 13.5t-23.5 47.5q0 13 1.5 26.5t3.5 28.5q7 30 16 51t24.5 34
t39 18.5t58.5 5.5q52 0 75 -13.5t23 -46.5z" />
    <glyph glyph-name="Agrave" unicode="&#xc0;" horiz-adv-x="1220" 
d="M653 1423h272l171 -1423h-192l-47 386h-538l-194 -386h-191zM849 535l-43 376q-7 54 -12.5 101.5t-11 94.5t-10.5 93.5t-9 96.5h-2q-25 -51 -47 -97.5t-45 -93.5t-47 -95t-52 -103l-187 -373h466zM651 1857l354 -193l-60 -111l-373 164z" />
    <glyph glyph-name="Aacute" unicode="&#xc1;" horiz-adv-x="1220" 
d="M653 1423h272l171 -1423h-192l-47 386h-538l-194 -386h-191zM849 535l-43 376q-7 54 -12.5 101.5t-11 94.5t-10.5 93.5t-9 96.5h-2q-25 -51 -47 -97.5t-45 -93.5t-47 -95t-52 -103l-187 -373h466zM1058 1847l54 -143l-400 -147l-48 112z" />
    <glyph glyph-name="Acircumflex" unicode="&#xc2;" horiz-adv-x="1220" 
d="M653 1423h272l171 -1423h-192l-47 386h-538l-194 -386h-191zM849 535l-43 376q-7 54 -12.5 101.5t-11 94.5t-10.5 93.5t-9 96.5h-2q-25 -51 -47 -97.5t-45 -93.5t-47 -95t-52 -103l-187 -373h466zM869 1847l266 -175l-73 -112l-224 125l-268 -125l-44 112z" />
    <glyph glyph-name="Atilde" unicode="&#xc3;" horiz-adv-x="1220" 
d="M653 1423h272l171 -1423h-192l-47 386h-538l-194 -386h-191zM849 535l-43 376q-7 54 -12.5 101.5t-11 94.5t-10.5 93.5t-9 96.5h-2q-25 -51 -47 -97.5t-45 -93.5t-47 -95t-52 -103l-187 -373h466zM489 1668q45 52 105 89t141 37q40 0 70.5 -12t56.5 -25t51.5 -25
t55.5 -12q40 0 76.5 19.5t69.5 51.5l71 -81q-44 -51 -104 -88t-139 -37q-42 0 -72.5 11t-57 25t-51.5 25.5t-55 11.5q-40 0 -76.5 -19.5t-68.5 -51.5z" />
    <glyph glyph-name="Adieresis" unicode="&#xc4;" horiz-adv-x="1220" 
d="M653 1423h272l171 -1423h-192l-47 386h-538l-194 -386h-191zM849 535l-43 376q-7 54 -12.5 101.5t-11 94.5t-10.5 93.5t-9 96.5h-2q-25 -51 -47 -97.5t-45 -93.5t-47 -95t-52 -103l-187 -373h466zM715 1740q0 -11 -1.5 -24.5t-4.5 -27.5q-7 -30 -16 -50t-24.5 -31.5
t-36.5 -15.5t-53 -4q-47 0 -70 12.5t-23 46.5q0 12 1.5 25t4.5 28q5 30 15 49t25 31t37 16t53 4q47 0 70 -12.5t23 -46.5zM1202 1740q0 -11 -1 -24.5t-4 -27.5q-6 -30 -15.5 -50t-25 -31.5t-37 -15.5t-52.5 -4q-47 0 -70 12.5t-23 46.5q0 12 1.5 25t4.5 28q5 30 14.5 49
t25 31t37 16t52.5 4q47 0 70 -12.5t23 -46.5z" />
    <glyph glyph-name="Aring" unicode="&#xc5;" horiz-adv-x="1220" 
d="M653 1423h272l171 -1423h-192l-47 386h-538l-194 -386h-191zM849 535l-43 376q-7 54 -12.5 101.5t-11 94.5t-10.5 93.5t-9 96.5h-2q-25 -51 -47 -97.5t-45 -93.5t-47 -95t-52 -103l-187 -373h466zM1071 1720q0 -49 -17 -89.5t-48.5 -70t-76.5 -45.5t-97 -16
q-46 0 -85.5 14t-68.5 38.5t-45.5 60t-16.5 82.5q0 48 17 89t49 70.5t75 45.5t95 16q94 0 156.5 -51.5t62.5 -143.5zM955 1715q0 48 -27.5 73.5t-79.5 25.5t-83.5 -30t-31.5 -85q0 -48 27.5 -73.5t75.5 -25.5q55 0 87 30t32 85z" />
    <glyph glyph-name="AE" unicode="&#xc6;" horiz-adv-x="1714" 
d="M908 1423h883l-30 -151h-570l-91 -463h529l-29 -149h-528l-99 -508h570l-28 -152h-760l76 386h-499l-288 -386h-210zM859 535l146 753h-5l-565 -753h424z" />
    <glyph glyph-name="Ccedilla" unicode="&#xc7;" horiz-adv-x="1028" 
d="M892 23q-69 -17 -148.5 -30t-161.5 -15h-23l-25 -82q93 -6 133 -44.5t40 -92.5q0 -57 -23 -97.5t-63.5 -66t-94 -37.5t-111.5 -12q-39 0 -74 3.5t-66 12.5l26 98q28 -6 56.5 -9t57.5 -3q64 0 104.5 21t40.5 74q0 31 -24 46.5t-89 15.5h-59l55 182q-74 10 -132 37
t-98.5 77t-62 123.5t-21.5 175.5q0 33 1.5 69t6.5 74t10.5 80t16.5 90q41 211 104.5 351.5t149.5 225.5t195 120.5t243 35.5q74 0 144.5 -11t128.5 -29l-44 -144q-56 16 -111 24t-120 8q-94 0 -173 -28t-141 -96.5t-108 -181t-79 -280.5q-16 -85 -24 -154t-8 -133
q0 -84 18 -140.5t54 -90t89.5 -47.5t125.5 -14q65 0 137 12t140 29z" />
    <glyph glyph-name="Egrave" unicode="&#xc8;" horiz-adv-x="1039" 
d="M355 1423h760l-31 -151h-570l-91 -463h529l-29 -149h-528l-99 -508h571l-29 -152h-759zM584 1857l354 -193l-60 -111l-373 164z" />
    <glyph glyph-name="Eacute" unicode="&#xc9;" horiz-adv-x="1039" 
d="M355 1423h760l-31 -151h-570l-91 -463h529l-29 -149h-528l-99 -508h571l-29 -152h-759zM1027 1847l54 -143l-400 -147l-48 112z" />
    <glyph glyph-name="Ecircumflex" unicode="&#xca;" horiz-adv-x="1039" 
d="M355 1423h760l-31 -151h-570l-91 -463h529l-29 -149h-528l-99 -508h571l-29 -152h-759zM821 1847l266 -175l-73 -112l-224 125l-268 -125l-44 112z" />
    <glyph glyph-name="Edieresis" unicode="&#xcb;" horiz-adv-x="1039" 
d="M355 1423h760l-31 -151h-570l-91 -463h529l-29 -149h-528l-99 -508h571l-29 -152h-759zM654 1740q0 -11 -1.5 -24.5t-4.5 -27.5q-7 -30 -16 -50t-24.5 -31.5t-36.5 -15.5t-53 -4q-47 0 -70 12.5t-23 46.5q0 12 1.5 25t4.5 28q5 30 15 49t25 31t37 16t53 4q47 0 70 -12.5
t23 -46.5zM1141 1740q0 -11 -1 -24.5t-4 -27.5q-6 -30 -15.5 -50t-25 -31.5t-37 -15.5t-52.5 -4q-47 0 -70 12.5t-23 46.5q0 12 1.5 25t4.5 28q5 30 14.5 49t25 31t37 16t52.5 4q47 0 70 -12.5t23 -46.5z" />
    <glyph glyph-name="Igrave" unicode="&#xcc;" horiz-adv-x="541" 
d="M355 1423h188l-276 -1423h-188zM332 1857l354 -193l-60 -111l-373 164z" />
    <glyph glyph-name="Iacute" unicode="&#xcd;" horiz-adv-x="541" 
d="M355 1423h188l-276 -1423h-188zM701 1847l54 -143l-400 -147l-48 112z" />
    <glyph glyph-name="Icircumflex" unicode="&#xce;" horiz-adv-x="541" 
d="M355 1423h188l-276 -1423h-188zM533 1847l266 -175l-73 -112l-224 125l-268 -125l-44 112z" />
    <glyph glyph-name="Idieresis" unicode="&#xcf;" horiz-adv-x="541" 
d="M355 1423h188l-276 -1423h-188zM815 1740q0 -11 -1.5 -24.5t-4.5 -27.5q-6 -30 -15 -50t-24.5 -31.5t-37 -15.5t-53.5 -4q-46 0 -69 12.5t-23 46.5q0 12 1.5 25t4.5 28q5 30 14.5 49t25 31t37 16t53.5 4q46 0 69 -12.5t23 -46.5zM419 1740q0 -11 -1.5 -24.5t-4.5 -27.5
q-6 -30 -15 -50t-24.5 -31.5t-37 -15.5t-53.5 -4q-47 0 -69.5 12.5t-22.5 46.5q0 12 1.5 25t4.5 28q5 30 14.5 49t25 31t37 16t53.5 4q46 0 69 -12.5t23 -46.5z" />
    <glyph glyph-name="Eth" unicode="&#xd0;" horiz-adv-x="1330" 
d="M238 676h-174l27 145h174l117 602h410q122 0 214 -19t154.5 -66.5t93.5 -127t31 -199.5q0 -65 -8.5 -135t-24.5 -160q-40 -206 -108 -344t-163.5 -220.5t-218 -117t-273.5 -34.5h-384zM509 152q102 0 190 25.5t158 89.5t122 174t84 280q14 78 22.5 142.5t8.5 123.5
q0 85 -19.5 140t-60.5 87t-102.5 45t-144.5 13h-227l-87 -451h328l-27 -145h-329l-102 -524h186z" />
    <glyph glyph-name="Ntilde" unicode="&#xd1;" horiz-adv-x="1386" 
d="M355 1423h238l285 -835q16 -50 30.5 -95.5l29 -91t28.5 -92.5t28 -101l2 1q13 102 26.5 195.5t31.5 183.5l163 835h172l-277 -1423h-240l-286 836q-17 48 -31.5 94t-28 92.5t-27 93.5t-25.5 99l-6 -1q-12 -101 -25.5 -193.5t-30.5 -184.5l-161 -836h-172zM566 1668
q45 52 105 89t141 37q40 0 70.5 -12t56.5 -25t51.5 -25t55.5 -12q40 0 76.5 19.5t69.5 51.5l71 -81q-44 -51 -104 -88t-139 -37q-42 0 -72.5 11t-57 25t-51.5 25.5t-55 11.5q-40 0 -76.5 -19.5t-68.5 -51.5z" />
    <glyph glyph-name="Ograve" unicode="&#xd2;" horiz-adv-x="1344" 
d="M1292 1013q0 -71 -9 -142t-25 -159q-40 -206 -102 -347t-148 -229t-196 -126t-245 -38q-106 0 -188 24t-137 76.5t-84 136t-29 201.5q0 71 8.5 142.5t25.5 159.5q39 205 101.5 346t148.5 229t195.5 126t245.5 38q105 0 187 -23.5t137.5 -76t84.5 -136t29 -202.5z
M1101 1003q0 78 -16.5 135t-50.5 93t-84.5 52t-117.5 16q-89 0 -162 -30t-132.5 -100.5t-105.5 -184t-78 -278.5q-9 -38 -15 -76t-10 -73.5t-6.5 -70t-2.5 -65.5q0 -80 16.5 -136t50 -92t84 -52.5t118.5 -16.5q87 0 160 30.5t133.5 100.5t106 183t78.5 279q7 39 13.5 77
t11 73.5t7 69.5t2.5 66zM687 1857l354 -193l-60 -111l-373 164z" />
    <glyph glyph-name="Oacute" unicode="&#xd3;" horiz-adv-x="1344" 
d="M1292 1013q0 -71 -9 -142t-25 -159q-40 -206 -102 -347t-148 -229t-196 -126t-245 -38q-106 0 -188 24t-137 76.5t-84 136t-29 201.5q0 71 8.5 142.5t25.5 159.5q39 205 101.5 346t148.5 229t195.5 126t245.5 38q105 0 187 -23.5t137.5 -76t84.5 -136t29 -202.5z
M1101 1003q0 78 -16.5 135t-50.5 93t-84.5 52t-117.5 16q-89 0 -162 -30t-132.5 -100.5t-105.5 -184t-78 -278.5q-9 -38 -15 -76t-10 -73.5t-6.5 -70t-2.5 -65.5q0 -80 16.5 -136t50 -92t84 -52.5t118.5 -16.5q87 0 160 30.5t133.5 100.5t106 183t78.5 279q7 39 13.5 77
t11 73.5t7 69.5t2.5 66zM1152 1847l54 -143l-400 -147l-48 112z" />
    <glyph glyph-name="Ocircumflex" unicode="&#xd4;" horiz-adv-x="1344" 
d="M1292 1013q0 -71 -9 -142t-25 -159q-40 -206 -102 -347t-148 -229t-196 -126t-245 -38q-106 0 -188 24t-137 76.5t-84 136t-29 201.5q0 71 8.5 142.5t25.5 159.5q39 205 101.5 346t148.5 229t195.5 126t245.5 38q105 0 187 -23.5t137.5 -76t84.5 -136t29 -202.5z
M1101 1003q0 78 -16.5 135t-50.5 93t-84.5 52t-117.5 16q-89 0 -162 -30t-132.5 -100.5t-105.5 -184t-78 -278.5q-9 -38 -15 -76t-10 -73.5t-6.5 -70t-2.5 -65.5q0 -80 16.5 -136t50 -92t84 -52.5t118.5 -16.5q87 0 160 30.5t133.5 100.5t106 183t78.5 279q7 39 13.5 77
t11 73.5t7 69.5t2.5 66zM930 1847l266 -175l-73 -112l-224 125l-268 -125l-44 112z" />
    <glyph glyph-name="Otilde" unicode="&#xd5;" horiz-adv-x="1344" 
d="M1292 1013q0 -71 -9 -142t-25 -159q-40 -206 -102 -347t-148 -229t-196 -126t-245 -38q-106 0 -188 24t-137 76.5t-84 136t-29 201.5q0 71 8.5 142.5t25.5 159.5q39 205 101.5 346t148.5 229t195.5 126t245.5 38q105 0 187 -23.5t137.5 -76t84.5 -136t29 -202.5z
M1101 1003q0 78 -16.5 135t-50.5 93t-84.5 52t-117.5 16q-89 0 -162 -30t-132.5 -100.5t-105.5 -184t-78 -278.5q-9 -38 -15 -76t-10 -73.5t-6.5 -70t-2.5 -65.5q0 -80 16.5 -136t50 -92t84 -52.5t118.5 -16.5q87 0 160 30.5t133.5 100.5t106 183t78.5 279q7 39 13.5 77
t11 73.5t7 69.5t2.5 66zM537 1668q45 52 105 89t141 37q40 0 70.5 -12t56.5 -25t51.5 -25t55.5 -12q40 0 76.5 19.5t69.5 51.5l71 -81q-44 -51 -104 -88t-139 -37q-42 0 -72.5 11t-57 25t-51.5 25.5t-55 11.5q-40 0 -76.5 -19.5t-68.5 -51.5z" />
    <glyph glyph-name="Odieresis" unicode="&#xd6;" horiz-adv-x="1344" 
d="M1292 1013q0 -71 -9 -142t-25 -159q-40 -206 -102 -347t-148 -229t-196 -126t-245 -38q-106 0 -188 24t-137 76.5t-84 136t-29 201.5q0 71 8.5 142.5t25.5 159.5q39 205 101.5 346t148.5 229t195.5 126t245.5 38q105 0 187 -23.5t137.5 -76t84.5 -136t29 -202.5z
M1101 1003q0 78 -16.5 135t-50.5 93t-84.5 52t-117.5 16q-89 0 -162 -30t-132.5 -100.5t-105.5 -184t-78 -278.5q-9 -38 -15 -76t-10 -73.5t-6.5 -70t-2.5 -65.5q0 -80 16.5 -136t50 -92t84 -52.5t118.5 -16.5q87 0 160 30.5t133.5 100.5t106 183t78.5 279q7 39 13.5 77
t11 73.5t7 69.5t2.5 66zM773 1740q0 -11 -1.5 -24.5t-4.5 -27.5q-7 -30 -16 -50t-24.5 -31.5t-36.5 -15.5t-53 -4q-47 0 -70 12.5t-23 46.5q0 12 1.5 25t4.5 28q5 30 15 49t25 31t37 16t53 4q47 0 70 -12.5t23 -46.5zM1260 1740q0 -11 -1 -24.5t-4 -27.5q-6 -30 -15.5 -50
t-25 -31.5t-37 -15.5t-52.5 -4q-47 0 -70 12.5t-23 46.5q0 12 1.5 25t4.5 28q5 30 14.5 49t25 31t37 16t52.5 4q47 0 70 -12.5t23 -46.5z" />
    <glyph glyph-name="multiply" unicode="&#xd7;" 
d="M466 595l-265 336l120 94l260 -332l373 318l92 -108l-376 -321l265 -337l-118 -95l-263 334l-379 -322l-92 107z" />
    <glyph glyph-name="Oslash" unicode="&#xd8;" horiz-adv-x="1363" 
d="M214 107q-33 41 -59 113t-26 190q0 71 8.5 142.5t25.5 159.5q39 205 102.5 346t150.5 229t198 126t249 38q85 0 141.5 -15.5t95.5 -39.5l148 217l126 -68l-154 -222q43 -49 67 -126t24 -184q0 -35 -2 -70t-6.5 -72t-10.5 -76t-14 -83q-41 -206 -103.5 -347t-149.5 -229
t-199 -126t-250 -38q-79 0 -137.5 14.5t-106.5 44.5l-145 -213l-126 69zM1016 1257q-25 20 -64 35t-110 15q-94 0 -170.5 -30.5t-137.5 -101.5t-107 -185t-80 -280q-15 -72 -22 -129t-9 -109q-2 -32 -1.5 -58.5t3.5 -50t7 -42.5t9 -38zM418 173q30 -28 71.5 -42.5
t109.5 -14.5q92 0 169 30.5t138.5 101.5t107 184.5t79.5 281.5q15 71 22.5 128t9.5 110q2 32 0.5 59t-4.5 51.5t-8 45t-12 40.5z" />
    <glyph glyph-name="Ugrave" unicode="&#xd9;" horiz-adv-x="1311" 
d="M512 1423l-171 -882q-10 -46 -16 -91t-6 -91q0 -58 13.5 -101t44 -73t80 -45.5t119.5 -15.5q89 0 157.5 27.5t118 81.5t82.5 134t55 187l169 869h189l-170 -871q-29 -149 -78 -257.5t-123.5 -180.5t-177.5 -107t-240 -35q-220 0 -323.5 94t-103.5 278q0 45 5.5 96
t16.5 107l171 876h188zM673 1857l354 -193l-60 -111l-373 164z" />
    <glyph glyph-name="Uacute" unicode="&#xda;" horiz-adv-x="1311" 
d="M512 1423l-171 -882q-10 -46 -16 -91t-6 -91q0 -58 13.5 -101t44 -73t80 -45.5t119.5 -15.5q89 0 157.5 27.5t118 81.5t82.5 134t55 187l169 869h189l-170 -871q-29 -149 -78 -257.5t-123.5 -180.5t-177.5 -107t-240 -35q-220 0 -323.5 94t-103.5 278q0 45 5.5 96
t16.5 107l171 876h188zM1133 1847l54 -143l-400 -147l-48 112z" />
    <glyph glyph-name="Ucircumflex" unicode="&#xdb;" horiz-adv-x="1311" 
d="M512 1423l-171 -882q-10 -46 -16 -91t-6 -91q0 -58 13.5 -101t44 -73t80 -45.5t119.5 -15.5q89 0 157.5 27.5t118 81.5t82.5 134t55 187l169 869h189l-170 -871q-29 -149 -78 -257.5t-123.5 -180.5t-177.5 -107t-240 -35q-220 0 -323.5 94t-103.5 278q0 45 5.5 96
t16.5 107l171 876h188zM919 1847l266 -175l-73 -112l-224 125l-268 -125l-44 112z" />
    <glyph glyph-name="Udieresis" unicode="&#xdc;" horiz-adv-x="1311" 
d="M512 1423l-171 -882q-10 -46 -16 -91t-6 -91q0 -58 13.5 -101t44 -73t80 -45.5t119.5 -15.5q89 0 157.5 27.5t118 81.5t82.5 134t55 187l169 869h189l-170 -871q-29 -149 -78 -257.5t-123.5 -180.5t-177.5 -107t-240 -35q-220 0 -323.5 94t-103.5 278q0 45 5.5 96
t16.5 107l171 876h188zM756 1740q0 -11 -1.5 -24.5t-4.5 -27.5q-7 -30 -16 -50t-24.5 -31.5t-36.5 -15.5t-53 -4q-47 0 -70 12.5t-23 46.5q0 12 1.5 25t4.5 28q5 30 15 49t25 31t37 16t53 4q47 0 70 -12.5t23 -46.5zM1243 1740q0 -11 -1 -24.5t-4 -27.5q-6 -30 -15.5 -50
t-25 -31.5t-37 -15.5t-52.5 -4q-47 0 -70 12.5t-23 46.5q0 12 1.5 25t4.5 28q5 30 14.5 49t25 31t37 16t52.5 4q47 0 70 -12.5t23 -46.5z" />
    <glyph glyph-name="Yacute" unicode="&#xdd;" horiz-adv-x="1078" 
d="M453 552l-271 871h188l134 -413q14 -42 23.5 -75.5t18.5 -64t18 -62t19 -68.5h4q23 38 43.5 71t41.5 64.5l43 64.5t49 71l290 412h199l-614 -872l-106 -551h-187zM1002 1847l54 -143l-400 -147l-48 112z" />
    <glyph glyph-name="Thorn" unicode="&#xde;" horiz-adv-x="1079" 
d="M355 1423h188l-55 -290h168q118 0 198.5 -19.5t130.5 -55.5t72.5 -90t22.5 -122q0 -141 -46 -242t-126.5 -167t-188 -96t-231.5 -30h-160l-61 -311h-188zM512 459q73 0 141.5 21t120.5 65t83.5 111.5t31.5 160.5q0 86 -56 127t-201 41h-174l-102 -526h156z" />
    <glyph glyph-name="germandbls" unicode="&#xdf;" horiz-adv-x="1098" 
d="M-278 -299q40 -9 67.5 -11t61.5 -2q36 0 67 11.5t57 37t45 68t32 103.5l247 1267q20 99 57.5 168.5t92.5 113t130.5 63t171.5 19.5q80 0 139 -18t96.5 -49.5t55 -73t17.5 -89.5q0 -53 -12.5 -96t-36 -81t-56 -75.5t-72.5 -78.5q-29 -30 -55.5 -55.5t-46 -49.5t-31 -51
t-11.5 -59q0 -21 8 -40.5t25.5 -39.5t43 -43.5t57.5 -52.5q36 -32 64 -61.5t47.5 -59.5t29.5 -65t10 -81q0 -81 -28 -144t-79 -106t-125.5 -66.5t-166.5 -23.5q-27 0 -57.5 2.5t-60.5 6.5t-59 10t-55 14l28 138q52 -14 109 -21.5t108 -7.5q91 0 148.5 46t57.5 132
q0 28 -7.5 50.5t-22.5 44t-40.5 45t-59.5 54.5q-75 65 -118.5 117.5t-43.5 122.5q0 48 16 88t42 76.5t60 71.5t70 74q32 32 55.5 61t40 57.5t25.5 57t9 62.5q0 48 -34 80t-113 32q-101 0 -160.5 -57t-81.5 -181l-242 -1248q-21 -106 -55 -176t-83 -112t-112.5 -60.5
t-143.5 -18.5q-40 0 -75.5 4t-75.5 13z" />
    <glyph glyph-name="agrave" unicode="&#xe0;" horiz-adv-x="1123" 
d="M716 144q-36 -34 -77 -63.5t-86.5 -52t-94.5 -35t-98 -12.5q-124 0 -197 79t-73 237q0 169 42.5 304.5t116.5 230t174 145t214 50.5q77 0 137.5 -21.5t106.5 -54.5l17 56h153l-195 -1007h-152zM829 811q-44 32 -90 50t-106 18q-80 0 -145 -45.5t-110.5 -122t-71.5 -177
t-26 -210.5q0 -95 36 -142.5t104 -47.5q67 0 148 52t168 149zM572 1551l225 -305l-96 -84l-255 283z" />
    <glyph glyph-name="aacute" unicode="&#xe1;" horiz-adv-x="1123" 
d="M716 144q-36 -34 -77 -63.5t-86.5 -52t-94.5 -35t-98 -12.5q-124 0 -197 79t-73 237q0 169 42.5 304.5t116.5 230t174 145t214 50.5q77 0 137.5 -21.5t106.5 -54.5l17 56h153l-195 -1007h-152zM829 811q-44 32 -90 50t-106 18q-80 0 -145 -45.5t-110.5 -122t-71.5 -177
t-26 -210.5q0 -95 36 -142.5t104 -47.5q67 0 148 52t168 149zM865 1529l106 -123l-322 -249l-79 92z" />
    <glyph glyph-name="acircumflex" unicode="&#xe2;" horiz-adv-x="1123" 
d="M716 144q-36 -34 -77 -63.5t-86.5 -52t-94.5 -35t-98 -12.5q-124 0 -197 79t-73 237q0 169 42.5 304.5t116.5 230t174 145t214 50.5q77 0 137.5 -21.5t106.5 -54.5l17 56h153l-195 -1007h-152zM829 811q-44 32 -90 50t-106 18q-80 0 -145 -45.5t-110.5 -122t-71.5 -177
t-26 -210.5q0 -95 36 -142.5t104 -47.5q67 0 148 52t168 149zM730 1529l239 -264l-94 -102l-177 182l-241 -179l-69 97z" />
    <glyph glyph-name="atilde" unicode="&#xe3;" horiz-adv-x="1123" 
d="M716 144q-36 -34 -77 -63.5t-86.5 -52t-94.5 -35t-98 -12.5q-124 0 -197 79t-73 237q0 169 42.5 304.5t116.5 230t174 145t214 50.5q77 0 137.5 -21.5t106.5 -54.5l17 56h153l-195 -1007h-152zM829 811q-44 32 -90 50t-106 18q-80 0 -145 -45.5t-110.5 -122t-71.5 -177
t-26 -210.5q0 -95 36 -142.5t104 -47.5q67 0 148 52t168 149zM363 1285q21 32 47 62.5t56.5 54t66.5 38t76 14.5q39 0 68.5 -17t54 -36.5t47 -35t49.5 -15.5q36 0 69 28t61 71l86 -68q-21 -32 -47 -62t-57.5 -54t-66.5 -38t-76 -14q-40 0 -68.5 16t-53 35t-47 36t-49.5 17
q-37 0 -70 -28.5t-62 -70.5z" />
    <glyph glyph-name="adieresis" unicode="&#xe4;" horiz-adv-x="1123" 
d="M716 144q-36 -34 -77 -63.5t-86.5 -52t-94.5 -35t-98 -12.5q-124 0 -197 79t-73 237q0 169 42.5 304.5t116.5 230t174 145t214 50.5q77 0 137.5 -21.5t106.5 -54.5l17 56h153l-195 -1007h-152zM829 811q-44 32 -90 50t-106 18q-80 0 -145 -45.5t-110.5 -122t-71.5 -177
t-26 -210.5q0 -95 36 -142.5t104 -47.5q67 0 148 52t168 149zM600 1389q0 -12 -1.5 -25t-3.5 -28q-7 -31 -16.5 -51t-24.5 -31t-37.5 -16t-53.5 -5q-48 0 -71 12t-23 47q0 12 1.5 24.5t3.5 27.5q6 31 15.5 51t25 32t38 16t53.5 4q47 0 70.5 -12t23.5 -46zM1019 1389
q0 -12 -1.5 -25t-4.5 -28q-6 -31 -15.5 -51t-25 -31t-38 -16t-53.5 -5q-48 0 -71 12t-23 47q0 12 1.5 24.5t4.5 27.5q5 31 15 51t25.5 32t37.5 16t54 4q47 0 70.5 -12t23.5 -46z" />
    <glyph glyph-name="aring" unicode="&#xe5;" horiz-adv-x="1123" 
d="M716 144q-36 -34 -77 -63.5t-86.5 -52t-94.5 -35t-98 -12.5q-124 0 -197 79t-73 237q0 169 42.5 304.5t116.5 230t174 145t214 50.5q77 0 137.5 -21.5t106.5 -54.5l17 56h153l-195 -1007h-152zM829 811q-44 32 -90 50t-106 18q-80 0 -145 -45.5t-110.5 -122t-71.5 -177
t-26 -210.5q0 -95 36 -142.5t104 -47.5q67 0 148 52t168 149zM924 1368q0 -53 -18 -95.5t-49.5 -73.5t-74 -47.5t-92.5 -16.5q-93 0 -152 56t-59 147q0 51 17.5 94.5t48.5 74.5t74 47.5t92 16.5q95 0 154 -56.5t59 -146.5zM808 1366q0 47 -25 74.5t-76 27.5
q-52 0 -81.5 -33.5t-29.5 -94.5q0 -47 24.5 -75t73.5 -28q55 0 84.5 33.5t29.5 95.5z" />
    <glyph glyph-name="ae" unicode="&#xe6;" horiz-adv-x="1495" 
d="M621 466q-125 0 -204.5 -14.5t-126.5 -42t-65.5 -68t-18.5 -94.5q-1 -65 33 -97.5t99 -32.5t130.5 28t139.5 101q-5 53 -0.5 110t13.5 110zM645 591q5 22 11.5 44.5t12 45t9.5 42t4 38.5q0 23 -7.5 45.5t-26 39t-51 26.5t-82.5 10q-73 0 -140 -9.5t-139 -27.5l-9 141
q83 20 159.5 30.5t164.5 10.5q62 0 107.5 -12t76.5 -31.5t49 -44t24 -49.5q27 28 61 54.5t76 46.5t93 32t114 12q148 0 229.5 -63.5t81.5 -177.5q0 -86 -41 -150t-122 -106.5t-204.5 -63t-290.5 -20.5q-2 -13 -5.5 -32t-5 -39t-3.5 -40.5t-2 -33.5q0 -103 48.5 -142.5
t150.5 -39.5q74 0 148.5 10.5t147.5 32.5l6 -141q-70 -23 -154.5 -36t-175.5 -13q-73 0 -125 11t-89 30t-61.5 46t-40.5 57q-80 -71 -166 -107t-190 -36q-115 0 -183 63t-68 182q0 87 32 154.5t104 114.5t188 71.5t284 24.5zM831 582q234 -1 345 44.5t111 144.5
q0 55 -38.5 87t-118.5 32q-56 0 -101.5 -17.5t-83 -54.5t-66.5 -95.5t-48 -140.5z" />
    <glyph glyph-name="ccedilla" unicode="&#xe7;" horiz-adv-x="826" 
d="M694 17q-59 -16 -125.5 -26.5t-131.5 -10.5h-21l-26 -84q46 -3 77 -15.5t50 -31t27 -42t8 -48.5q0 -57 -23 -97t-61 -65.5t-89.5 -37t-110.5 -11.5q-38 0 -71 3t-65 13l26 96q29 -6 55.5 -9t55.5 -3q60 0 98.5 21.5t38.5 73.5q0 31 -23.5 47.5t-83.5 16.5h-54l58 189
q-42 9 -81 29t-68 55t-47 90t-18 135q0 21 1 42.5t3 45.5t6 50t10 57q26 144 75.5 244.5t117 163t151.5 91t178 28.5q57 0 111 -8t99 -22l-42 -138q-40 11 -79 16t-82 5q-57 0 -109 -17.5t-96 -61t-79 -115.5t-58 -183q-11 -52 -15 -95.5t-4 -81.5q0 -111 50.5 -155
t151.5 -44q48 0 99.5 7.5t108.5 23.5z" />
    <glyph glyph-name="egrave" unicode="&#xe8;" horiz-adv-x="978" 
d="M773 29q-69 -23 -154 -36t-176 -13q-86 0 -151.5 15.5t-110.5 53.5t-68.5 100t-23.5 155q0 43 5 94t14 100q26 144 74.5 246.5t116.5 167t153.5 94t182.5 29.5q148 0 229.5 -63.5t81.5 -177.5q0 -91 -40.5 -157.5t-122.5 -111t-206.5 -65.5t-290.5 -21q-4 -25 -8.5 -63
t-4.5 -67q0 -102 48 -142t150 -40q74 0 148.5 10.5t147.5 32.5zM311 567q233 -1 346 47t113 157q0 55 -38.5 87t-118.5 32q-55 0 -102 -17.5t-84.5 -56t-67 -100t-48.5 -149.5zM562 1551l225 -305l-96 -84l-255 283z" />
    <glyph glyph-name="eacute" unicode="&#xe9;" horiz-adv-x="978" 
d="M773 29q-69 -23 -154 -36t-176 -13q-86 0 -151.5 15.5t-110.5 53.5t-68.5 100t-23.5 155q0 43 5 94t14 100q26 144 74.5 246.5t116.5 167t153.5 94t182.5 29.5q148 0 229.5 -63.5t81.5 -177.5q0 -91 -40.5 -157.5t-122.5 -111t-206.5 -65.5t-290.5 -21q-4 -25 -8.5 -63
t-4.5 -67q0 -102 48 -142t150 -40q74 0 148.5 10.5t147.5 32.5zM311 567q233 -1 346 47t113 157q0 55 -38.5 87t-118.5 32q-55 0 -102 -17.5t-84.5 -56t-67 -100t-48.5 -149.5zM846 1529l106 -123l-322 -249l-79 92z" />
    <glyph glyph-name="ecircumflex" unicode="&#xea;" horiz-adv-x="978" 
d="M773 29q-69 -23 -154 -36t-176 -13q-86 0 -151.5 15.5t-110.5 53.5t-68.5 100t-23.5 155q0 43 5 94t14 100q26 144 74.5 246.5t116.5 167t153.5 94t182.5 29.5q148 0 229.5 -63.5t81.5 -177.5q0 -91 -40.5 -157.5t-122.5 -111t-206.5 -65.5t-290.5 -21q-4 -25 -8.5 -63
t-4.5 -67q0 -102 48 -142t150 -40q74 0 148.5 10.5t147.5 32.5zM311 567q233 -1 346 47t113 157q0 55 -38.5 87t-118.5 32q-55 0 -102 -17.5t-84.5 -56t-67 -100t-48.5 -149.5zM717 1529l239 -264l-94 -102l-177 182l-241 -179l-69 97z" />
    <glyph glyph-name="edieresis" unicode="&#xeb;" horiz-adv-x="978" 
d="M773 29q-69 -23 -154 -36t-176 -13q-86 0 -151.5 15.5t-110.5 53.5t-68.5 100t-23.5 155q0 43 5 94t14 100q26 144 74.5 246.5t116.5 167t153.5 94t182.5 29.5q148 0 229.5 -63.5t81.5 -177.5q0 -91 -40.5 -157.5t-122.5 -111t-206.5 -65.5t-290.5 -21q-4 -25 -8.5 -63
t-4.5 -67q0 -102 48 -142t150 -40q74 0 148.5 10.5t147.5 32.5zM311 567q233 -1 346 47t113 157q0 55 -38.5 87t-118.5 32q-55 0 -102 -17.5t-84.5 -56t-67 -100t-48.5 -149.5zM584 1389q0 -12 -1.5 -25t-3.5 -28q-7 -31 -16.5 -51t-24.5 -31t-37.5 -16t-53.5 -5
q-48 0 -71 12t-23 47q0 12 1.5 24.5t3.5 27.5q6 31 15.5 51t25 32t38 16t53.5 4q47 0 70.5 -12t23.5 -46zM1003 1389q0 -12 -1.5 -25t-4.5 -28q-6 -31 -15.5 -51t-25 -31t-38 -16t-53.5 -5q-48 0 -71 12t-23 47q0 12 1.5 24.5t4.5 27.5q5 31 15 51t25.5 32t37.5 16t54 4
q47 0 70.5 -12t23.5 -46z" />
    <glyph glyph-name="igrave" unicode="&#xec;" horiz-adv-x="523" 
d="M266 1007h186l-196 -1007h-184zM332 1551l225 -305l-96 -84l-255 283z" />
    <glyph glyph-name="iacute" unicode="&#xed;" horiz-adv-x="523" 
d="M266 1007h186l-196 -1007h-184zM544 1529l106 -123l-322 -249l-79 92z" />
    <glyph glyph-name="icircumflex" unicode="&#xee;" horiz-adv-x="523" 
d="M266 1007h186l-196 -1007h-184zM459 1529l239 -264l-94 -102l-177 182l-241 -179l-69 97z" />
    <glyph glyph-name="idieresis" unicode="&#xef;" horiz-adv-x="523" 
d="M266 1007h186l-196 -1007h-184zM364 1389q0 -12 -1 -25t-4 -28q-7 -31 -15.5 -51t-24.5 -31t-37.5 -15.5t-53.5 -4.5q-47 0 -70 12t-23 46q0 12 1 24.5t4 27.5q5 31 15 51t25.5 31t37 16t52.5 5q48 0 71 -12.5t23 -45.5zM721 1389q0 -12 -1.5 -25t-4.5 -28
q-6 -31 -15 -51t-24.5 -31t-37.5 -15.5t-53 -4.5q-47 0 -70.5 12t-23.5 46q0 12 1.5 24.5t3.5 27.5q5 31 15 51t25.5 31t37 16t53.5 5q48 0 71 -12.5t23 -45.5z" />
    <glyph glyph-name="eth" unicode="&#xf0;" horiz-adv-x="1073" 
d="M681 1348q-15 26 -38 62.5t-43 65.5l155 77q27 -34 49 -66.5t38 -61.5l208 102l59 -118l-212 -105q52 -122 78.5 -252t26.5 -257q0 -236 -49.5 -393.5t-128 -253.5t-177 -136t-200.5 -40q-173 0 -265.5 86t-92.5 258q0 171 43 301t114.5 217t164.5 131t193 44
q62 0 116 -17.5t88 -43.5l2 2q-10 71 -27.5 137.5t-50.5 140.5l-203 -101l-58 117zM467 119q66 0 129.5 36.5t113 113t79.5 193t30 275.5v25.5t-1 23.5q-40 38 -92 58t-113 20q-69 0 -130.5 -37t-108 -107t-72.5 -169t-26 -221q0 -111 46.5 -161t144.5 -50z" />
    <glyph glyph-name="ntilde" unicode="&#xf1;" horiz-adv-x="1160" 
d="M266 1007h153l-12 -145q36 33 79.5 63t93.5 52.5t105 36t112 13.5q128 0 189 -61t61 -181q0 -26 -4 -56t-10 -63l-128 -666h-185l125 649q6 26 8.5 51.5t2.5 45.5q0 66 -30.5 96.5t-97.5 30.5q-78 0 -166.5 -52.5t-175.5 -152.5l-130 -668h-184zM402 1285q21 32 47 62.5
t56.5 54t66.5 38t76 14.5q39 0 68.5 -17t54 -36.5t47 -35t49.5 -15.5q36 0 69 28t61 71l86 -68q-21 -32 -47 -62t-57.5 -54t-66.5 -38t-76 -14q-40 0 -68.5 16t-53 35t-47 36t-49.5 17q-37 0 -70 -28.5t-62 -70.5z" />
    <glyph glyph-name="ograve" unicode="&#xf2;" horiz-adv-x="1087" 
d="M998 695q0 -40 -4.5 -86t-14.5 -103q-27 -146 -75.5 -247.5t-115.5 -165.5t-153 -92.5t-190 -28.5q-83 0 -149.5 17.5t-112 58t-70 105.5t-24.5 159q0 40 4.5 86t14.5 104q27 145 75.5 246.5t115.5 165.5t153.5 92.5t188.5 28.5q84 0 150 -18t112 -58t70.5 -105
t24.5 -159zM811 682q0 117 -49.5 161.5t-141.5 44.5q-58 0 -108 -18t-90.5 -62t-72 -117.5t-54.5 -186.5q-5 -25 -8.5 -50t-5.5 -47.5t-3.5 -43t-1.5 -38.5q0 -116 49.5 -161t141.5 -45q58 0 108 17.5t90.5 61.5t72 118t53.5 188q5 24 9.5 48.5t6.5 48t3 44t1 37.5z
M581 1551l225 -305l-96 -84l-255 283z" />
    <glyph glyph-name="oacute" unicode="&#xf3;" horiz-adv-x="1087" 
d="M998 695q0 -40 -4.5 -86t-14.5 -103q-27 -146 -75.5 -247.5t-115.5 -165.5t-153 -92.5t-190 -28.5q-83 0 -149.5 17.5t-112 58t-70 105.5t-24.5 159q0 40 4.5 86t14.5 104q27 145 75.5 246.5t115.5 165.5t153.5 92.5t188.5 28.5q84 0 150 -18t112 -58t70.5 -105
t24.5 -159zM811 682q0 117 -49.5 161.5t-141.5 44.5q-58 0 -108 -18t-90.5 -62t-72 -117.5t-54.5 -186.5q-5 -25 -8.5 -50t-5.5 -47.5t-3.5 -43t-1.5 -38.5q0 -116 49.5 -161t141.5 -45q58 0 108 17.5t90.5 61.5t72 118t53.5 188q5 24 9.5 48.5t6.5 48t3 44t1 37.5z
M864 1529l106 -123l-322 -249l-79 92z" />
    <glyph glyph-name="ocircumflex" unicode="&#xf4;" horiz-adv-x="1087" 
d="M998 695q0 -40 -4.5 -86t-14.5 -103q-27 -146 -75.5 -247.5t-115.5 -165.5t-153 -92.5t-190 -28.5q-83 0 -149.5 17.5t-112 58t-70 105.5t-24.5 159q0 40 4.5 86t14.5 104q27 145 75.5 246.5t115.5 165.5t153.5 92.5t188.5 28.5q84 0 150 -18t112 -58t70.5 -105
t24.5 -159zM811 682q0 117 -49.5 161.5t-141.5 44.5q-58 0 -108 -18t-90.5 -62t-72 -117.5t-54.5 -186.5q-5 -25 -8.5 -50t-5.5 -47.5t-3.5 -43t-1.5 -38.5q0 -116 49.5 -161t141.5 -45q58 0 108 17.5t90.5 61.5t72 118t53.5 188q5 24 9.5 48.5t6.5 48t3 44t1 37.5z
M740 1529l239 -264l-94 -102l-177 182l-241 -179l-69 97z" />
    <glyph glyph-name="otilde" unicode="&#xf5;" horiz-adv-x="1087" 
d="M998 695q0 -40 -4.5 -86t-14.5 -103q-27 -146 -75.5 -247.5t-115.5 -165.5t-153 -92.5t-190 -28.5q-83 0 -149.5 17.5t-112 58t-70 105.5t-24.5 159q0 40 4.5 86t14.5 104q27 145 75.5 246.5t115.5 165.5t153.5 92.5t188.5 28.5q84 0 150 -18t112 -58t70.5 -105
t24.5 -159zM811 682q0 117 -49.5 161.5t-141.5 44.5q-58 0 -108 -18t-90.5 -62t-72 -117.5t-54.5 -186.5q-5 -25 -8.5 -50t-5.5 -47.5t-3.5 -43t-1.5 -38.5q0 -116 49.5 -161t141.5 -45q58 0 108 17.5t90.5 61.5t72 118t53.5 188q5 24 9.5 48.5t6.5 48t3 44t1 37.5z
M353 1285q21 32 47 62.5t56.5 54t66.5 38t76 14.5q39 0 68.5 -17t54 -36.5t47 -35t49.5 -15.5q36 0 69 28t61 71l86 -68q-21 -32 -47 -62t-57.5 -54t-66.5 -38t-76 -14q-40 0 -68.5 16t-53 35t-47 36t-49.5 17q-37 0 -70 -28.5t-62 -70.5z" />
    <glyph glyph-name="odieresis" unicode="&#xf6;" horiz-adv-x="1087" 
d="M998 695q0 -40 -4.5 -86t-14.5 -103q-27 -146 -75.5 -247.5t-115.5 -165.5t-153 -92.5t-190 -28.5q-83 0 -149.5 17.5t-112 58t-70 105.5t-24.5 159q0 40 4.5 86t14.5 104q27 145 75.5 246.5t115.5 165.5t153.5 92.5t188.5 28.5q84 0 150 -18t112 -58t70.5 -105
t24.5 -159zM811 682q0 117 -49.5 161.5t-141.5 44.5q-58 0 -108 -18t-90.5 -62t-72 -117.5t-54.5 -186.5q-5 -25 -8.5 -50t-5.5 -47.5t-3.5 -43t-1.5 -38.5q0 -116 49.5 -161t141.5 -45q58 0 108 17.5t90.5 61.5t72 118t53.5 188q5 24 9.5 48.5t6.5 48t3 44t1 37.5z
M611 1389q0 -12 -1.5 -25t-3.5 -28q-7 -31 -16.5 -51t-24.5 -31t-37.5 -16t-53.5 -5q-48 0 -71 12t-23 47q0 12 1.5 24.5t3.5 27.5q6 31 15.5 51t25 32t38 16t53.5 4q47 0 70.5 -12t23.5 -46zM1030 1389q0 -12 -1.5 -25t-4.5 -28q-6 -31 -15.5 -51t-25 -31t-38 -16t-53.5 -5
q-48 0 -71 12t-23 47q0 12 1.5 24.5t4.5 27.5q5 31 15 51t25.5 32t37.5 16t54 4q47 0 70.5 -12t23.5 -46z" />
    <glyph glyph-name="divide" unicode="&#xf7;" 
d="M128 659h890l-28 -145h-889zM615 317q0 -22 -5 -52q-7 -33 -16.5 -53t-25 -32t-38 -16.5t-55.5 -4.5q-48 0 -72.5 13.5t-24.5 50.5q0 12 1.5 24.5t4.5 27.5q6 33 16 53.5t25.5 32t38 16t54.5 4.5q50 0 73.5 -14t23.5 -50zM740 952q0 -23 -6 -53q-6 -32 -15.5 -52.5
t-25.5 -32t-38 -16t-55 -4.5q-49 0 -73 13.5t-24 49.5q0 12 1.5 25t4.5 28q6 32 15.5 52.5t25.5 32.5t38.5 16t54.5 4q50 0 73.5 -14t23.5 -49z" />
    <glyph glyph-name="oslash" unicode="&#xf8;" horiz-adv-x="1105" 
d="M165 69q-29 33 -52.5 86.5t-23.5 154.5q0 40 4.5 87t14.5 105q27 145 75.5 246.5t116.5 165.5t156.5 92.5t193.5 28.5q61 0 104.5 -10.5t69.5 -23.5l119 167l115 -64l-117 -164q35 -41 55 -99.5t20 -143.5q0 -40 -5 -87t-15 -104q-27 -146 -75.5 -247.5t-116.5 -165.5
t-156 -92.5t-194 -28.5q-49 0 -94 8t-79 28l-127 -182l-116 66zM362 134q23 -17 50.5 -23.5t66.5 -6.5q64 0 119 18t99 63.5t78 123t56 195.5q9 46 13 84t6 71q1 35 -2 65.5t-13 63.5zM744 873q-20 15 -45.5 22.5t-71.5 7.5q-66 0 -120 -19t-98 -64.5t-77.5 -122
t-58.5 -193.5q-9 -47 -12.5 -85t-4.5 -71q-2 -34 0.5 -66.5t12.5 -60.5z" />
    <glyph glyph-name="ugrave" unicode="&#xf9;" horiz-adv-x="1161" 
d="M440 1007l-124 -648q-6 -27 -9 -52t-3 -47q0 -65 30.5 -95.5t97.5 -30.5q78 0 166.5 52.5t175.5 152.5l130 668h185l-195 -1007h-153l12 146q-36 -34 -79.5 -64t-93 -53t-105 -35.5t-112.5 -12.5q-128 0 -189 60.5t-61 179.5q0 28 4 57.5t10 63.5l128 665h185zM624 1551
l225 -305l-96 -84l-255 283z" />
    <glyph glyph-name="uacute" unicode="&#xfa;" horiz-adv-x="1161" 
d="M440 1007l-124 -648q-6 -27 -9 -52t-3 -47q0 -65 30.5 -95.5t97.5 -30.5q78 0 166.5 52.5t175.5 152.5l130 668h185l-195 -1007h-153l12 146q-36 -34 -79.5 -64t-93 -53t-105 -35.5t-112.5 -12.5q-128 0 -189 60.5t-61 179.5q0 28 4 57.5t10 63.5l128 665h185zM917 1529
l106 -123l-322 -249l-79 92z" />
    <glyph glyph-name="ucircumflex" unicode="&#xfb;" horiz-adv-x="1161" 
d="M440 1007l-124 -648q-6 -27 -9 -52t-3 -47q0 -65 30.5 -95.5t97.5 -30.5q78 0 166.5 52.5t175.5 152.5l130 668h185l-195 -1007h-153l12 146q-36 -34 -79.5 -64t-93 -53t-105 -35.5t-112.5 -12.5q-128 0 -189 60.5t-61 179.5q0 28 4 57.5t10 63.5l128 665h185zM774 1529
l239 -264l-94 -102l-177 182l-241 -179l-69 97z" />
    <glyph glyph-name="udieresis" unicode="&#xfc;" horiz-adv-x="1161" 
d="M440 1007l-124 -648q-6 -27 -9 -52t-3 -47q0 -65 30.5 -95.5t97.5 -30.5q78 0 166.5 52.5t175.5 152.5l130 668h185l-195 -1007h-153l12 146q-36 -34 -79.5 -64t-93 -53t-105 -35.5t-112.5 -12.5q-128 0 -189 60.5t-61 179.5q0 28 4 57.5t10 63.5l128 665h185zM650 1389
q0 -12 -1.5 -25t-3.5 -28q-7 -31 -16.5 -51t-24.5 -31t-37.5 -16t-53.5 -5q-48 0 -71 12t-23 47q0 12 1.5 24.5t3.5 27.5q6 31 15.5 51t25 32t38 16t53.5 4q47 0 70.5 -12t23.5 -46zM1069 1389q0 -12 -1.5 -25t-4.5 -28q-6 -31 -15.5 -51t-25 -31t-38 -16t-53.5 -5
q-48 0 -71 12t-23 47q0 12 1.5 24.5t4.5 27.5q5 31 15 51t25.5 32t37.5 16t54 4q47 0 70.5 -12t23.5 -46z" />
    <glyph glyph-name="yacute" unicode="&#xfd;" horiz-adv-x="971" 
d="M123 1007h193l69 -511q7 -48 10.5 -89t7 -80.5t6 -80.5t5.5 -90h3q22 49 41 89.5t37.5 80t38.5 81t46 89.5l269 511h198l-618 -1137q-54 -98 -99 -161.5t-93 -100t-104 -51t-130 -14.5q-36 0 -69.5 4.5t-67.5 12.5l27 141q30 -5 59.5 -8t59.5 -3q33 0 61.5 7t57 26
t57 55.5t61.5 94.5l71 127h-54zM826 1529l106 -123l-322 -249l-79 92z" />
    <glyph glyph-name="thorn" unicode="&#xfe;" horiz-adv-x="1119" 
d="M364 1511h185l-77 -396q-12 -65 -24.5 -119.5t-30.5 -117.5l2 -2q34 29 73 56.5t82.5 48.5t91.5 33.5t96 12.5q125 0 197.5 -79.5t72.5 -237.5q0 -168 -42 -303.5t-116.5 -230.5t-174 -145t-214.5 -50q-68 0 -125.5 18t-100.5 46l-4 -2q-7 -63 -15 -119t-20 -113
l-47 -247h-186zM293 196q44 -32 90 -49.5t106 -17.5q79 0 144.5 45t111.5 121.5t72 177t26 210.5q0 95 -36.5 142.5t-104.5 47.5q-66 0 -147.5 -51.5t-168.5 -149.5z" />
    <glyph glyph-name="ydieresis" unicode="&#xff;" horiz-adv-x="971" 
d="M123 1007h193l69 -511q7 -48 10.5 -89t7 -80.5t6 -80.5t5.5 -90h3q22 49 41 89.5t37.5 80t38.5 81t46 89.5l269 511h198l-618 -1137q-54 -98 -99 -161.5t-93 -100t-104 -51t-130 -14.5q-36 0 -69.5 4.5t-67.5 12.5l27 141q30 -5 59.5 -8t59.5 -3q33 0 61.5 7t57 26
t57 55.5t61.5 94.5l71 127h-54zM561 1389q0 -12 -1.5 -25t-3.5 -28q-7 -31 -16.5 -51t-24.5 -31t-37.5 -16t-53.5 -5q-48 0 -71 12t-23 47q0 12 1.5 24.5t3.5 27.5q6 31 15.5 51t25 32t38 16t53.5 4q47 0 70.5 -12t23.5 -46zM980 1389q0 -12 -1.5 -25t-4.5 -28
q-6 -31 -15.5 -51t-25 -31t-38 -16t-53.5 -5q-48 0 -71 12t-23 47q0 12 1.5 24.5t4.5 27.5q5 31 15 51t25.5 32t37.5 16t54 4q47 0 70.5 -12t23.5 -46z" />
    <glyph glyph-name="OE" unicode="&#x152;" horiz-adv-x="1729" 
d="M1015 1275q-36 12 -78.5 18t-104.5 6q-89 0 -162 -30t-132.5 -100.5t-105.5 -184t-78 -278.5q-9 -38 -15 -76t-10 -73.5t-6.5 -70t-2.5 -65.5q0 -80 16.5 -136t50 -92t84 -52.5t118.5 -16.5q66 0 115 6.5t94 19.5zM815 0q-52 -12 -111.5 -20t-136.5 -8q-106 0 -188 24
t-137 76.5t-84 136t-29 201.5q0 71 8.5 142.5t25.5 159.5q39 205 101.5 346t148.5 229t195.5 126t245.5 38q80 0 144 -7.5t114 -20.5h691l-30 -151h-570l-91 -463h528l-28 -149h-529l-99 -508h571l-28 -152h-712z" />
    <glyph glyph-name="oe" unicode="&#x153;" horiz-adv-x="1658" 
d="M811 682q0 117 -49.5 161.5t-141.5 44.5q-58 0 -107.5 -18t-90.5 -62t-72.5 -117.5t-54.5 -186.5q-5 -25 -8.5 -50t-5.5 -47.5t-3.5 -44t-1.5 -39.5q0 -58 12.5 -97t37 -63.5t59.5 -34t82 -9.5q58 0 108 17.5t90.5 61.5t72 118t53.5 188q5 24 9.5 48.5t6.5 48t3 44
t1 37.5zM1453 29q-71 -23 -155 -36t-175 -13q-141 0 -213.5 44.5t-99.5 131.5q-26 -38 -60 -71t-77.5 -58.5t-100 -40t-127.5 -14.5q-83 0 -149.5 17.5t-112 58t-70 105t-24.5 157.5q0 41 4.5 87.5t14.5 104.5q27 145 75.5 246.5t116.5 165.5t153.5 92.5t187.5 28.5
q70 0 121 -14.5t87 -40t58 -62t34 -80.5q61 99 154 148t220 49q148 0 229 -63.5t81 -177.5q0 -91 -40.5 -157.5t-122.5 -111t-206 -65.5t-290 -21q-5 -25 -10 -63t-5 -67q0 -102 49 -142t151 -40q74 0 148.5 10.5t147.5 32.5zM990 567q233 -1 346 47t113 157q0 55 -38 87
t-119 32q-55 0 -101.5 -17.5t-84 -56t-67.5 -100t-49 -149.5z" />
    <glyph glyph-name="Ydieresis" unicode="&#x178;" horiz-adv-x="1078" 
d="M453 552l-271 871h188l134 -413q14 -42 23.5 -75.5t18.5 -64t18 -62t19 -68.5h4q23 38 43.5 71t41.5 64.5l43 64.5t49 71l290 412h199l-614 -872l-106 -551h-187zM642 1740q0 -11 -1.5 -24.5t-4.5 -27.5q-7 -30 -16 -50t-24.5 -31.5t-36.5 -15.5t-53 -4q-47 0 -70 12.5
t-23 46.5q0 12 1.5 25t4.5 28q5 30 15 49t25 31t37 16t53 4q47 0 70 -12.5t23 -46.5zM1129 1740q0 -11 -1 -24.5t-4 -27.5q-6 -30 -15.5 -50t-25 -31.5t-37 -15.5t-52.5 -4q-47 0 -70 12.5t-23 46.5q0 12 1.5 25t4.5 28q5 30 14.5 49t25 31t37 16t52.5 4q47 0 70 -12.5
t23 -46.5z" />
    <glyph glyph-name="apostrophe" unicode="&#x2bc;" horiz-adv-x="433" 
d="M312 1169q38 55 63 94.5t51 84.5q-14 5 -23.5 16.5t-9.5 33.5q0 11 1 22t3 22q11 52 34.5 72.5t81.5 20.5q48 0 65.5 -15t17.5 -44q0 -34 -5 -58.5t-18 -49.5q-10 -21 -32 -50.5t-49 -63t-58 -66.5t-58 -61z" />
    <glyph glyph-name="tilde" unicode="&#x2dc;" horiz-adv-x="1203" 
d="M421 1285q21 32 47 62.5t56.5 54t66.5 38t76 14.5q39 0 68.5 -17t54 -36.5t47 -35t49.5 -15.5q36 0 69 28t61 71l86 -68q-21 -32 -47 -62t-57.5 -54t-66.5 -38t-76 -14q-40 0 -68.5 16t-53 35t-47 36t-49.5 17q-37 0 -70 -28.5t-62 -70.5z" />
    <glyph glyph-name="endash" unicode="&#x2013;" 
d="M26 622h1063l-31 -162h-1063z" />
    <glyph glyph-name="emdash" unicode="&#x2014;" horiz-adv-x="2048" 
d="M181 622h1717l-31 -162h-1717z" />
    <glyph glyph-name="quoteleft" unicode="&#x2018;" horiz-adv-x="438" 
d="M569 1508q-43 -63 -74 -113.5t-61 -103.5q13 -4 23 -18.5t10 -37.5q0 -11 -1 -23.5t-4 -23.5q-6 -30 -15 -50.5t-23.5 -33t-38 -18t-56.5 -5.5q-51 0 -73 16t-22 49q0 37 6 67.5t20 57.5q14 29 41 64.5t59 74.5t68 76t66 68z" />
    <glyph glyph-name="quoteright" unicode="&#x2019;" horiz-adv-x="438" 
d="M201 1107q43 63 74 113.5t61 102.5q-13 5 -23 19.5t-10 37.5q0 12 1 24t4 24q5 29 14.5 49.5t24 33t37.5 18t57 5.5q51 0 73 -15.5t22 -49.5q0 -37 -6 -67.5t-20 -57.5q-14 -29 -41 -64.5t-59 -74.5t-68 -76t-67 -68z" />
    <glyph glyph-name="quotedblleft" unicode="&#x201c;" horiz-adv-x="787" 
d="M917 1508q-43 -63 -73.5 -113.5t-61.5 -103.5q13 -4 23 -18.5t10 -37.5q0 -11 -1 -23.5t-3 -23.5q-7 -30 -16 -50.5t-23.5 -33t-37.5 -18t-56 -5.5q-52 0 -74 16t-22 49q0 37 6 67.5t20 57.5q14 29 41 64.5t59.5 74.5t68 76t66.5 68zM569 1508q-43 -63 -74 -113.5
t-61 -103.5q13 -4 23 -18.5t10 -37.5q0 -11 -1 -23.5t-4 -23.5q-6 -30 -15 -50.5t-23.5 -33t-38 -18t-56.5 -5.5q-51 0 -73 16t-22 49q0 37 6 67.5t20 57.5q14 29 41 64.5t59 74.5t68 76t66 68z" />
    <glyph glyph-name="quotedblright" unicode="&#x201d;" horiz-adv-x="787" 
d="M549 1107q43 63 74 113.5t61 102.5q-12 5 -22 19.5t-10 37.5q0 12 1 24t3 24q6 29 15 49.5t24 33t37.5 18t56.5 5.5q51 0 73 -15.5t22 -49.5q0 -37 -6 -67.5t-20 -57.5q-14 -29 -40.5 -64.5t-59 -74.5t-68 -76t-67.5 -68zM201 1107q43 63 74 113.5t61 102.5
q-13 5 -23 19.5t-10 37.5q0 12 1 24t4 24q5 29 14.5 49.5t24 33t37.5 18t57 5.5q51 0 73 -15.5t22 -49.5q0 -37 -6 -67.5t-20 -57.5q-14 -29 -41 -64.5t-59 -74.5t-68 -76t-67 -68z" />
    <glyph glyph-name="quotedblbase" unicode="&#x201e;" horiz-adv-x="801" 
d="M-60 -214q44 63 74.5 113.5t60.5 103.5q-12 4 -22 18.5t-10 38.5q0 11 1 23t4 24q5 29 14 49.5t23.5 33t38 18t57.5 5.5q51 0 73 -15.5t22 -49.5q0 -36 -6.5 -67t-19.5 -58q-14 -28 -41 -64t-59.5 -75t-68 -76t-66.5 -68zM289 -214q43 63 73.5 113.5t61.5 103.5
q-13 4 -23 18.5t-10 38.5q0 11 1 23t4 24q6 29 15 49.5t23.5 33t37.5 18t57 5.5q51 0 73 -15.5t22 -49.5q0 -36 -6 -67t-20 -58q-14 -28 -41 -64t-59.5 -75t-67.5 -76t-67 -68z" />
    <glyph glyph-name="bullet" unicode="&#x2022;" horiz-adv-x="825" 
d="M645 814q0 -20 -1.5 -39.5t-7.5 -41.5q-10 -50 -24.5 -84.5t-38.5 -55.5t-60.5 -31t-89.5 -10q-79 0 -116.5 24t-37.5 83q0 21 1.5 39.5t6.5 42.5q10 50 24.5 84t38.5 55.5t61 31t89 9.5q80 0 117.5 -25t37.5 -82z" />
    <glyph glyph-name="ellipsis" unicode="&#x2026;" horiz-adv-x="1416" 
d="M283 154q0 -13 -1.5 -26.5t-3.5 -28.5q-7 -32 -17 -54t-25.5 -35.5t-40 -19t-60.5 -5.5q-56 0 -80.5 14t-24.5 51q0 14 1.5 27.5t3.5 27.5q7 33 17 55t25.5 35t40 19t61.5 6q55 0 79.5 -14t24.5 -52zM756 154q0 -13 -1.5 -26.5t-4.5 -28.5q-6 -32 -16 -54t-25.5 -35.5
t-40 -19t-61.5 -5.5q-56 0 -80 14t-24 51q0 14 1 27.5t4 27.5q6 33 16 55t26 35t40.5 19t60.5 6q56 0 80.5 -14t24.5 -52zM1229 154q0 -13 -1.5 -26.5t-4.5 -28.5q-6 -32 -16 -54t-25.5 -35.5t-40 -19t-60.5 -5.5q-57 0 -81 14t-24 51q0 14 1 27.5t4 27.5q6 33 16 55t26 35
t40.5 19t61.5 6q55 0 79.5 -14t24.5 -52z" />
    <glyph glyph-name="guilsinglleft" unicode="&#x2039;" horiz-adv-x="595" 
d="M70 518l382 446l131 -83l-308 -380l159 -388l-154 -70z" />
    <glyph glyph-name="guilsinglright" unicode="&#x203a;" horiz-adv-x="595" 
d="M319 504l-158 388l154 70l209 -475l-381 -446l-131 84z" />
    <glyph glyph-name="Euro" unicode="&#x20ac;" 
d="M311 942q47 143 108 240.5t137.5 156.5t168 84.5t201.5 25.5q76 0 140.5 -11t117.5 -26l-44 -145q-55 16 -109 24t-119 8q-68 0 -128.5 -18.5t-112.5 -60.5t-95.5 -110.5t-77.5 -167.5h430l-27 -132h-446q-6 -26 -11 -49t-12 -53q-4 -23 -8 -47.5t-7 -41.5h447l-26 -133
h-434q-2 -21 -3 -39.5t-1 -37.5q1 -84 20.5 -139t53 -87t83 -46t112.5 -14q65 0 125 10.5t127 27.5l6 -147q-67 -16 -139.5 -28t-149.5 -12q-99 0 -178 22.5t-132.5 73.5t-82 133t-28.5 199q0 20 1 40.5t3 43.5h-153l25 133h142q3 18 7.5 45.5t9.5 48.5q6 27 10.5 48.5
t10.5 48.5h-142l27 132h153z" />
    <glyph glyph-name="trademark" unicode="&#x2122;" horiz-adv-x="1692" 
d="M394 1306h-225l24 117h582l-24 -117h-212l-116 -593h-144zM919 1423h220l32 -396l11 -215l94 215l188 396h220l-76 -710h-140l51 428l26 176l-76 -173l-204 -431h-201l-38 426l-10 178l-41 -176l-120 -428h-138z" />
    <glyph glyph-name="dotlessi" horiz-adv-x="523" 
d="M266 1007h186l-196 -1007h-184z" />
    <glyph glyph-name="grave.cap" horiz-adv-x="789" 
d="M486 1857l354 -193l-60 -111l-373 164z" />
    <glyph glyph-name="acute.cap" horiz-adv-x="778" 
d="M794 1847l54 -143l-400 -147l-48 112z" />
    <glyph glyph-name="circumflex" horiz-adv-x="1046" 
d="M744 1529l239 -264l-94 -102l-177 182l-241 -179l-69 97z" />
    <glyph glyph-name="circumflex.cap" horiz-adv-x="1046" 
d="M813 1847l266 -175l-73 -112l-224 125l-268 -125l-44 112z" />
    <glyph glyph-name="dieresis.narrow" horiz-adv-x="1090" 
d="M641 1389q0 -12 -1 -25t-4 -28q-7 -31 -15.5 -51t-24.5 -31t-37.5 -15.5t-53.5 -4.5q-47 0 -70 12t-23 46q0 12 1 24.5t4 27.5q5 31 15 51t25.5 31t37 16t52.5 5q48 0 71 -12.5t23 -45.5zM998 1389q0 -12 -1.5 -25t-4.5 -28q-6 -31 -15 -51t-24.5 -31t-37.5 -15.5
t-53 -4.5q-47 0 -70.5 12t-23.5 46q0 12 1.5 24.5t3.5 27.5q5 31 15 51t25.5 31t37 16t53.5 5q48 0 71 -12.5t23 -45.5z" />
    <glyph glyph-name="dieresis.cap" horiz-adv-x="1088" 
d="M632 1740q0 -11 -1.5 -24.5t-4.5 -27.5q-7 -30 -16 -50t-24.5 -31.5t-36.5 -15.5t-53 -4q-47 0 -70 12.5t-23 46.5q0 12 1.5 25t4.5 28q5 30 15 49t25 31t37 16t53 4q47 0 70 -12.5t23 -46.5zM1119 1740q0 -11 -1 -24.5t-4 -27.5q-6 -30 -15.5 -50t-25 -31.5t-37 -15.5
t-52.5 -4q-47 0 -70 12.5t-23 46.5q0 12 1.5 25t4.5 28q5 30 14.5 49t25 31t37 16t52.5 4q47 0 70 -12.5t23 -46.5z" />
    <glyph glyph-name="dieresis.narrow.cap" horiz-adv-x="1088" 
d="M1073 1740q0 -11 -1.5 -24.5t-4.5 -27.5q-6 -30 -15 -50t-24.5 -31.5t-37 -15.5t-53.5 -4q-46 0 -69 12.5t-23 46.5q0 12 1.5 25t4.5 28q5 30 14.5 49t25 31t37 16t53.5 4q46 0 69 -12.5t23 -46.5zM677 1740q0 -11 -1.5 -24.5t-4.5 -27.5q-6 -30 -15 -50t-24.5 -31.5
t-37 -15.5t-53.5 -4q-47 0 -69.5 12.5t-22.5 46.5q0 12 1.5 25t4.5 28q5 30 14.5 49t25 31t37 16t53.5 4q46 0 69 -12.5t23 -46.5z" />
    <glyph glyph-name="tilde.cap" horiz-adv-x="1210" 
d="M476 1668q45 52 105 89t141 37q40 0 70.5 -12t56.5 -25t51.5 -25t55.5 -12q40 0 76.5 19.5t69.5 51.5l71 -81q-44 -51 -104 -88t-139 -37q-42 0 -72.5 11t-57 25t-51.5 25.5t-55 11.5q-40 0 -76.5 -19.5t-68.5 -51.5z" />
    <glyph glyph-name="ring" horiz-adv-x="805" 
d="M838 1368q0 -53 -18 -95.5t-49.5 -73.5t-74 -47.5t-92.5 -16.5q-93 0 -152 56t-59 147q0 51 17.5 94.5t48.5 74.5t74 47.5t92 16.5q95 0 154 -56.5t59 -146.5zM722 1366q0 47 -25 74.5t-76 27.5q-52 0 -81.5 -33.5t-29.5 -94.5q0 -47 24.5 -75t73.5 -28q55 0 84.5 33.5
t29.5 95.5z" />
    <glyph glyph-name="ring.cap" horiz-adv-x="808" 
d="M804 1720q0 -49 -17 -89.5t-48.5 -70t-76.5 -45.5t-97 -16q-46 0 -85.5 14t-68.5 38.5t-45.5 60t-16.5 82.5q0 48 17 89t49 70.5t75 45.5t95 16q94 0 156.5 -51.5t62.5 -143.5zM688 1715q0 48 -27.5 73.5t-79.5 25.5t-83.5 -30t-31.5 -85q0 -48 27.5 -73.5t75.5 -25.5
q55 0 87 30t32 85z" />
    <glyph glyph-name="zeroinferior" horiz-adv-x="692" 
d="M607 497q0 -32 -3.5 -66t-13.5 -80q-21 -107 -52.5 -178.5t-74.5 -113.5t-97 -60t-119 -18q-50 0 -91 12.5t-70.5 40.5t-45.5 72.5t-16 109.5q0 31 3.5 65.5t12.5 81.5q21 107 53.5 177.5t75.5 112.5t96.5 60t118.5 18q49 0 90.5 -12t71 -40t45.5 -73t16 -109zM464 497
q0 69 -26 94.5t-71 25.5q-28 0 -55 -11t-50 -41t-43 -80.5t-35 -130.5q-7 -40 -12 -74t-5 -64q0 -69 26.5 -94.5t69.5 -25.5q29 0 56 11.5t50 40.5t42.5 80.5t35.5 130.5q8 40 12.5 73.5t4.5 64.5z" />
    <glyph glyph-name="oneinferior" horiz-adv-x="440" 
d="M187 545l-132 -62l-40 92l229 138h120l-137 -713h-144z" />
    <glyph glyph-name="twoinferior" horiz-adv-x="572" 
d="M-33 109l187 170q76 68 128 127.5t52 118.5q0 36 -25 57.5t-74 21.5q-33 0 -65 -5t-71 -16l-8 114q48 14 99 21t104 7q99 0 156.5 -43.5t57.5 -121.5q0 -48 -15.5 -90.5t-44.5 -81.5t-68.5 -76t-87.5 -75l-133 -114h279l-23 -123h-469z" />
    <glyph glyph-name="threeinferior" horiz-adv-x="549" 
d="M-31 117q33 -8 68.5 -12.5t68.5 -4.5q76 0 122 32.5t46 94.5q0 22 -8.5 39t-29.5 29t-57 18t-90 6l21 108q101 0 156 31.5t55 88.5q0 32 -25 48.5t-77 16.5q-33 0 -62 -4.5t-64 -13.5l-9 108q46 11 88.5 17t88.5 6q105 0 161 -39.5t56 -108.5q0 -43 -14.5 -75.5
t-36.5 -56.5t-50 -40.5t-57 -25.5q53 -12 83.5 -51.5t30.5 -95.5t-24 -101.5t-67.5 -77t-101.5 -48.5t-124 -17q-48 0 -91 4t-83 13z" />
    <glyph glyph-name="fourinferior" horiz-adv-x="600" 
d="M274 139h-317l25 130l335 444h210l-88 -451h85l-24 -123h-85l-26 -139h-140zM298 262l64 327l-250 -327h186z" />
    <glyph glyph-name="fraction" horiz-adv-x="1050" 
d="M1120 1468l100 -80l-1206 -1431l-101 80z" />
    </font>
</defs>
</svg>
