<?xml version="1.0" standalone="no"?>
<!DOCTYPE svg PUBLIC "-//W3C//DTD SVG 1.1//EN" "http://www.w3.org/Graphics/SVG/1.1/DTD/svg11.dtd" >
<svg>
<metadata>
Created by FontForge 20120731 at Wed Jun 17 21:35:19 2015
 By ,,,
Copyright (c) 2006-2010 by Jan Fromm. All rights reserved.
</metadata>
<defs>
<font id="8998a1247c8cf60ea1a7ca1f60c9b43c52161288be8058b9bf9a6e378bbd673" horiz-adv-x="1085" >
  <font-face 
    font-family="8998a1247c8cf60ea1a7ca1f60c9b43c52161288be8058b9bf9a6e378bbd673a"
    font-weight="600"
    font-style="italic"
    font-stretch="normal"
    units-per-em="2048"
    panose-1="2 11 6 3 4 3 2 9 2 3"
    ascent="1659"
    descent="-389"
    x-height="1011"
    cap-height="1423"
    bbox="-325 -471 2076 1933"
    underline-thickness="200"
    underline-position="-50"
    slope="-11"
    unicode-range="U+0020-2122"
  />
<missing-glyph 
d="M356 719q-16 0 -16 -21q0 -20 16 -20h74v-238q0 -65 -51 -65q-23 0 -31 4t-16 4q-17 0 -17 -21q0 -14 11 -18q10 -4 23 -6t26 -2q106 0 106 104v246q0 33 -32 33h-93zM561 360q0 -20 25 -20q26 0 26 20v152h142q14 0 14 20q0 21 -14 21h-142v125h158q16 0 16 20
q0 21 -16 21h-174q-35 0 -35 -33v-326zM197 539q0 73 26.5 137.5t72.5 111t109.5 73t137.5 26.5q73 0 137.5 -26.5t111 -73t73 -111t26.5 -137.5q0 -74 -26.5 -137.5t-73 -109.5t-111 -72.5t-137.5 -26.5q-74 0 -137.5 26.5t-109.5 72.5t-72.5 109.5t-26.5 137.5z" />
    <glyph glyph-name=".notdef" 
d="M356 719q-16 0 -16 -21q0 -20 16 -20h74v-238q0 -65 -51 -65q-23 0 -31 4t-16 4q-17 0 -17 -21q0 -14 11 -18q10 -4 23 -6t26 -2q106 0 106 104v246q0 33 -32 33h-93zM561 360q0 -20 25 -20q26 0 26 20v152h142q14 0 14 20q0 21 -14 21h-142v125h158q16 0 16 20
q0 21 -16 21h-174q-35 0 -35 -33v-326zM197 539q0 73 26.5 137.5t72.5 111t109.5 73t137.5 26.5q73 0 137.5 -26.5t111 -73t73 -111t26.5 -137.5q0 -74 -26.5 -137.5t-73 -109.5t-111 -72.5t-137.5 -26.5q-74 0 -137.5 26.5t-109.5 72.5t-72.5 109.5t-26.5 137.5z" />
    <glyph glyph-name=".null" horiz-adv-x="0" 
 />
    <glyph glyph-name="nonmarkingreturn" horiz-adv-x="682" 
 />
    <glyph glyph-name="space" unicode=" " horiz-adv-x="517" 
 />
    <glyph glyph-name="space" unicode="&#xa0;" horiz-adv-x="517" 
 />
    <glyph glyph-name="exclam" unicode="!" horiz-adv-x="615" 
d="M384 1511h238l-244 -1109h-183zM364 168q0 -14 -1.5 -29.5t-4.5 -32.5q-8 -33 -18 -57t-27.5 -38t-44 -20.5t-65.5 -6.5q-57 0 -83 15t-26 52q0 14 1.5 29t4.5 32q7 35 17.5 58.5t28 37.5t44 20.5t64.5 6.5q58 0 84 -15t26 -52z" />
    <glyph glyph-name="quotedbl" unicode="&#x22;" horiz-adv-x="759" 
d="M299 1511h207l-115 -471h-159zM642 1511h207l-115 -471h-159z" />
    <glyph glyph-name="numbersign" unicode="#" 
d="M179 387h-162l30 155h183l124 339h-168l31 156h188l139 386h181l-140 -386h212l138 386h180l-139 -386h160l-31 -156h-180l-125 -339h164l-30 -155h-183l-139 -387h-181l140 387h-210l-141 -387h-181zM620 542l125 339h-211l-124 -339h210z" />
    <glyph glyph-name="dollar" unicode="$" 
d="M853 1602l-45 -229q63 -3 123.5 -10.5t121.5 -24.5l-39 -176q-63 16 -137 26t-144 10q-71 0 -125 -12.5t-91.5 -36.5t-56 -59t-18.5 -79q0 -34 10 -60t35 -52t68 -55t110 -67q81 -48 136 -88.5t89.5 -81t48.5 -85t14 -102.5q0 -88 -27 -159t-81.5 -126t-135.5 -89.5
t-189 -46.5l-47 -243h-174l45 238q-68 3 -135.5 12t-144.5 30l39 176q75 -19 160.5 -31.5t169.5 -12.5q69 0 124 15t93.5 42t60 65.5t21.5 86.5q0 34 -10.5 61t-36 54.5t-70.5 57t-114 69.5q-79 45 -132 84.5t-85.5 79t-47 83.5t-14.5 102q0 84 26 152t78 118.5t128.5 82.5
t177.5 43l46 238h175z" />
    <glyph glyph-name="percent" unicode="%" horiz-adv-x="1632" 
d="M1394 1472l116 -93l-1203 -1425l-117 92zM766 1200q0 -31 -3.5 -63t-12.5 -78q-21 -106 -53.5 -177.5t-76.5 -114t-100 -60t-124 -17.5q-53 0 -95.5 12.5t-74 41t-48 74.5t-16.5 113q0 30 3 62.5t12 78.5q21 107 53.5 177.5t77 113t100.5 60.5t124 18q51 0 94.5 -12.5
t74.5 -41.5t48 -74.5t17 -112.5zM598 1201q0 62 -22.5 85t-62.5 23q-26 0 -50.5 -10.5t-45.5 -38.5t-39 -75.5t-33 -122.5q-7 -37 -11.5 -70t-4.5 -62q0 -62 23 -85t63 -23q26 0 50.5 11t45 38t39 75.5t32.5 122.5q7 37 11.5 69.5t4.5 62.5zM1550 491q0 -31 -3.5 -63
t-12.5 -78q-21 -106 -53.5 -177.5t-76.5 -114t-100 -60t-124 -17.5q-53 0 -95.5 12.5t-74 41t-48 74.5t-16.5 113q0 30 3 62.5t12 78.5q21 107 53.5 177.5t77 113t100.5 60.5t124 18q51 0 94.5 -12.5t74.5 -41.5t48 -74.5t17 -112.5zM1382 492q0 62 -22.5 85t-62.5 23
q-26 0 -50.5 -10.5t-45.5 -38.5t-39 -75.5t-33 -122.5q-7 -37 -11.5 -70t-4.5 -62q0 -62 23 -85t63 -23q26 0 50.5 11t45 38t39 75.5t32.5 122.5q7 37 11.5 69.5t4.5 62.5z" />
    <glyph glyph-name="ampersand" unicode="&#x26;" horiz-adv-x="1319" 
d="M1102 -36q-26 27 -48 52.5t-43 49.5t-43 49t-48 54q-92 -90 -213.5 -145t-260.5 -55q-91 0 -165 24.5t-126 68.5t-80 105.5t-28 137.5q0 93 31.5 166t83.5 133.5t120 110t138 95.5q-41 70 -73.5 153.5t-32.5 172.5q0 98 31.5 174.5t88 128t136.5 78t179 26.5
q86 0 148 -21.5t101 -57.5t57.5 -82.5t18.5 -96.5q0 -91 -34 -165.5t-88.5 -136.5t-122.5 -113.5t-137 -96.5q29 -44 58 -85.5t60 -80t62.5 -77t65.5 -78.5q39 60 71.5 129.5t53.5 159.5h189q-34 -131 -82.5 -236t-111.5 -190q28 -31 51 -58t46 -52.5t47.5 -52t52.5 -55.5z
M522 663q-50 -34 -95.5 -67t-82 -71.5t-59 -86t-22.5 -108.5q0 -84 54.5 -136.5t157.5 -52.5q92 0 177 43.5t153 116.5q-38 44 -74.5 88.5t-71.5 89t-70 90t-67 94.5zM861 1246q0 54 -34.5 90t-109.5 36q-97 0 -147.5 -55t-50.5 -159q0 -62 24 -124.5t53 -115.5
q54 35 102 71.5t84.5 76t57.5 83.5t21 97z" />
    <glyph glyph-name="quotesingle" unicode="'" horiz-adv-x="416" 
d="M299 1511h207l-115 -471h-159z" />
    <glyph glyph-name="parenleft" unicode="(" horiz-adv-x="613" 
d="M262 -366q-37 85 -64 162.5t-44 155.5t-25.5 159.5t-8.5 177.5q0 215 48.5 412.5t124 368.5t170.5 314.5t187 253.5l142 -89q-85 -112 -168.5 -250t-150 -295.5t-108 -335t-41.5 -366.5q0 -76 4.5 -147.5t15 -143.5t29 -146t46.5 -153z" />
    <glyph glyph-name="parenright" unicode=")" horiz-adv-x="613" 
d="M-132 -277q84 112 167.5 249.5t150 296t108.5 334.5t42 367q0 76 -4.5 148t-15 143.5t-29 145t-47.5 153.5l160 78q35 -86 62.5 -163.5t44.5 -155t25 -159.5t8 -176q0 -217 -48 -414t-124 -367.5t-170.5 -314.5t-186.5 -254z" />
    <glyph glyph-name="asterisk" unicode="*" horiz-adv-x="827" 
d="M474 1099l-187 -119l-60 135l221 84l-193 103l95 129l162 -139l14 219h165l-71 -218l189 119l58 -135l-221 -83l193 -104l-95 -128l-162 138l-14 -219h-165z" />
    <glyph glyph-name="plus" unicode="+" 
d="M118 673h354l75 381h183l-75 -381h359l-33 -171h-359l-74 -383h-183l75 383h-355z" />
    <glyph glyph-name="comma" unicode="," horiz-adv-x="486" 
d="M-85 -246q24 35 43.5 66t37.5 60t35 57t33 57q-14 6 -26.5 23.5t-12.5 44.5q0 13 1.5 27.5t4.5 29.5q6 38 17.5 62.5t29.5 39.5t45.5 21.5t68.5 6.5q63 0 90 -19t27 -61q0 -43 -8 -80.5t-26 -72.5q-16 -32 -47 -73t-68 -84t-77 -84.5t-77 -76.5z" />
    <glyph glyph-name="hyphen" unicode="-" horiz-adv-x="883" 
d="M168 640h596l-38 -195h-596z" />
    <glyph glyph-name="period" unicode="." horiz-adv-x="486" 
d="M308 175q0 -14 -1.5 -29t-4.5 -32q-7 -37 -18 -62t-28.5 -40t-45.5 -21.5t-69 -6.5q-63 0 -90 16t-27 58q0 15 1.5 30t3.5 31q7 38 18.5 62.5t29.5 39.5t45.5 21.5t68.5 6.5q63 0 90 -16t27 -58z" />
    <glyph glyph-name="slash" unicode="/" horiz-adv-x="824" 
d="M800 1511h213l-977 -1737h-213z" />
    <glyph glyph-name="zero" unicode="0" 
d="M1077 1063q0 -76 -8.5 -156t-30.5 -193q-43 -221 -100 -364.5t-130.5 -227.5t-164.5 -117.5t-203 -33.5q-83 0 -148 20t-109 66t-67 121t-23 182q0 77 8.5 156.5t30.5 193.5q43 221 100 364.5t131 227t164.5 117t201.5 33.5q84 0 148.5 -20t109 -66t67.5 -120.5
t23 -182.5zM865 1070q0 57 -10 96.5t-29.5 64.5t-50.5 35.5t-74 10.5q-57 0 -106 -23.5t-92 -87t-82 -175t-72 -287.5q-9 -47 -17.5 -94t-14.5 -92t-9 -86.5t-3 -78.5q0 -56 10 -96t29.5 -64.5t51 -35.5t73.5 -11q57 0 106 23.5t92 87t81 175.5t73 288q9 46 17.5 93t14.5 92
t9 86.5t3 78.5z" />
    <glyph glyph-name="one" unicode="1" 
d="M91 184h316l193 997l-273 -114l-52 143l416 213h176l-242 -1239h271l-35 -184h-805z" />
    <glyph glyph-name="two" unicode="2" 
d="M50 154l435 451q75 80 139.5 147.5t112.5 128.5t74.5 120.5t26.5 121.5q0 75 -47.5 112t-160.5 37q-70 0 -143.5 -11t-145.5 -32l-18 167q87 23 186.5 38t193.5 15q96 0 166 -18.5t115.5 -54.5t68.5 -89t23 -120q0 -89 -29 -168.5t-82.5 -156.5t-128.5 -154.5
t-166 -163.5l-346 -333h577l-36 -191h-843z" />
    <glyph glyph-name="three" unicode="3" 
d="M68 186q71 -16 136 -25.5t145 -9.5q82 0 151.5 21.5t121 62.5t80 102.5t28.5 140.5q0 43 -17 77.5t-61 60t-120.5 39.5t-195.5 14l34 173q117 0 202 21.5t141 60t82.5 91.5t26.5 115q0 71 -45.5 106.5t-153.5 35.5q-74 0 -148 -11t-151 -32l-10 168q94 22 187.5 37
t192.5 15q174 0 266 -66.5t92 -196.5q0 -91 -29 -161t-76.5 -121.5t-105.5 -85t-114 -53.5q53 -11 93.5 -34.5t69.5 -57t44 -78t15 -97.5q0 -125 -43.5 -222.5t-122.5 -164.5t-191 -102t-249 -35q-91 0 -164.5 10t-148.5 28z" />
    <glyph glyph-name="four" unicode="4" 
d="M606 298h-569l37 192l624 933h337l-183 -934h147l-36 -191h-147l-58 -298h-209zM642 489l148 765l-509 -765h361z" />
    <glyph glyph-name="five" unicode="5" 
d="M1075 1423l-38 -190h-516l-77 -393q48 7 87.5 11t92.5 4q172 0 253.5 -76.5t81.5 -236.5q0 -145 -46.5 -252t-129.5 -177t-197 -104.5t-250 -34.5q-78 0 -149.5 10t-146.5 27l36 175q72 -18 140 -26.5t134 -8.5q83 0 154 23t122.5 67t81 110t29.5 151q0 93 -54.5 135
t-168.5 42q-69 0 -135 -6.5t-152 -19.5l150 770h698z" />
    <glyph glyph-name="six" unicode="6" 
d="M1055 1245q-50 11 -101 19t-117 8q-106 0 -175 -37t-116 -103.5t-77.5 -160.5t-57.5 -208q66 34 136 57t145 23q77 0 134.5 -20t95 -59t56 -94t18.5 -124q0 -139 -41.5 -246.5t-112.5 -180t-167.5 -110.5t-205.5 -38q-165 0 -253 90t-88 279q0 51 6 107t19 121
q44 224 96.5 390t133 275t195.5 162.5t284 53.5q69 0 127 -9t112 -25zM776 510q0 79 -38 119t-119 40q-57 0 -117.5 -24t-125.5 -66q-19 -76 -27.5 -132.5t-8.5 -103.5q0 -102 40 -149.5t117 -47.5q52 0 103 24t90 70t62.5 114t23.5 156z" />
    <glyph glyph-name="seven" unicode="7" 
d="M204 0q91 171 178 327.5t172.5 306t172.5 297.5t182 302h-659l38 190h895l-31 -162q-96 -159 -185.5 -310.5t-176.5 -304t-172.5 -312.5t-175.5 -334h-238v0z" />
    <glyph glyph-name="eight" unicode="8" 
d="M972 446q0 -115 -41 -203.5t-112.5 -148.5t-165 -91.5t-200.5 -31.5q-174 0 -271 82t-97 223q0 97 28.5 169.5t76 128t109 95.5t126.5 72q-81 50 -124 118.5t-43 166.5q0 104 38 184t103.5 133.5t152 81t184.5 27.5q93 0 158 -22.5t107 -59.5t61.5 -86.5t19.5 -104.5
q0 -87 -27 -154t-71 -118.5t-99 -90t-112 -67.5q94 -54 146.5 -128t52.5 -175zM864 1134q0 28 -8 53.5t-26 46t-48 32t-75 11.5q-49 0 -91 -14.5t-72.5 -43.5t-48.5 -71t-18 -95q0 -35 8.5 -63t25.5 -53t45 -48t68 -45q48 21 91.5 48t76.5 62t52.5 79.5t19.5 100.5zM750 413
q0 75 -40.5 128t-136.5 104q-54 -22 -103 -52t-86.5 -69.5t-60.5 -91t-23 -117.5q0 -79 45 -124t132 -45q54 0 103.5 18t87 52t60 83.5t22.5 113.5z" />
    <glyph glyph-name="nine" unicode="9" 
d="M92 190q75 -21 132 -30t128 -9q105 0 175 36.5t116 103.5t76.5 161t58.5 208q-67 -34 -137 -57t-144 -23q-77 0 -134.5 20.5t-95 59.5t-56 93.5t-18.5 123.5q0 139 41.5 247t113 180t167 110t205.5 38q164 0 252 -89.5t88 -277.5q0 -52 -5.5 -108t-18.5 -122
q-46 -224 -97.5 -390.5t-131.5 -275t-195 -162t-285 -53.5q-82 0 -148 13.5t-135 32.5zM413 913q0 -79 37.5 -118.5t119.5 -39.5q56 0 116.5 24t126.5 65q19 76 27.5 133t8.5 105q0 101 -40.5 148t-116.5 47q-53 0 -103.5 -24t-89.5 -70t-62.5 -113.5t-23.5 -156.5z" />
    <glyph glyph-name="colon" unicode=":" horiz-adv-x="425" 
d="M308 175q0 -14 -1.5 -29t-4.5 -32q-7 -37 -18 -62t-28.5 -40t-45.5 -21.5t-69 -6.5q-63 0 -90 16t-27 58q0 15 1.5 30t3.5 31q7 38 18.5 62.5t29.5 39.5t45.5 21.5t68.5 6.5q63 0 90 -16t27 -58zM440 854q0 -14 -1.5 -28.5t-4.5 -31.5q-7 -37 -17.5 -62t-28.5 -40
t-46 -22t-68 -7q-64 0 -91 16t-27 59q0 14 1.5 29t4.5 32q7 37 18 62t29 40t45.5 21t69.5 6q62 0 89 -16t27 -58z" />
    <glyph glyph-name="semicolon" unicode=";" horiz-adv-x="426" 
d="M-86 -246q24 35 43.5 66t37.5 60t35 57t33 57q-14 6 -26.5 23.5t-12.5 43.5q0 14 1.5 28.5t3.5 29.5q7 38 18.5 62.5t29.5 39.5t45.5 21.5t68.5 6.5q63 0 90 -19t27 -61q0 -43 -8 -80.5t-26 -72.5q-16 -32 -47 -73t-68 -84t-77 -84.5t-77 -76.5zM440 854
q0 -14 -1.5 -28.5t-4.5 -31.5q-7 -37 -17.5 -62t-28.5 -40t-46 -22t-68 -7q-64 0 -91 16t-27 59q0 14 1.5 29t4.5 32q7 37 18 62t29 40t45.5 21t69.5 6q62 0 89 -16t27 -58z" />
    <glyph glyph-name="less" unicode="&#x3c;" 
d="M175 686l842 424l-39 -208l-631 -322l506 -329l-39 -189l-678 429z" />
    <glyph glyph-name="equal" unicode="=" 
d="M186 874h857l-33 -171h-857zM109 473h856l-33 -172h-856z" />
    <glyph glyph-name="greater" unicode="&#x3e;" 
d="M160 271l631 322l-505 328l38 189l678 -428l-37 -195l-844 -425z" />
    <glyph glyph-name="question" unicode="?" horiz-adv-x="812" 
d="M240 552q11 65 25.5 112.5t39 88.5t59.5 81t86 90q50 49 90.5 88.5t68 75.5t43 70.5t15.5 71.5q0 27 -9.5 49.5t-30 39.5t-54 26t-85.5 9q-56 0 -113 -6.5t-122 -21.5l-14 166q73 18 151.5 27.5t162.5 9.5q172 0 259.5 -68t87.5 -188q0 -71 -17.5 -125t-50.5 -103.5
t-82 -97.5t-112 -106q-47 -42 -82 -76t-61.5 -69t-43.5 -75t-28 -93l-25 -126h-184zM384 168q0 -14 -1.5 -29.5t-5.5 -32.5q-7 -33 -17 -57t-27.5 -38t-44 -20.5t-65.5 -6.5q-57 0 -83 15t-26 52q0 14 1.5 29t4.5 32q7 35 17.5 58.5t28 37.5t44 20.5t64.5 6.5q58 0 84 -15
t26 -52z" />
    <glyph glyph-name="at" unicode="@" horiz-adv-x="2099" 
d="M1410 417q-19 -75 10.5 -107.5t81.5 -32.5q46 0 98.5 37t98 109t75.5 180t30 252q0 91 -30 168.5t-102 134t-187.5 88.5t-287.5 32t-327 -52.5t-271 -163t-185.5 -280t-69.5 -403.5q0 -103 28 -194t90 -158.5t163.5 -105.5t250.5 -38q128 0 255 11t247 40l14 -171
q-122 -29 -255 -42t-275 -13q-184 0 -320.5 49t-227 136t-134.5 207t-44 262q0 282 87 487t235 339.5t343 199.5t411 65q215 0 367.5 -44t250 -122t142.5 -184.5t45 -230.5q0 -195 -51 -335t-131 -230.5t-178.5 -132.5t-194.5 -42q-105 0 -169 45.5t-72 115.5
q-39 -35 -79.5 -63.5t-85.5 -51t-93 -34t-100 -11.5q-125 0 -198 73t-73 225q0 123 43.5 233t118 192.5t173 131t209.5 48.5q71 0 130.5 -19t101.5 -49l19 47h170zM1303 822q-35 27 -76 43.5t-95 16.5q-66 0 -123.5 -35.5t-101.5 -94.5t-70.5 -135t-26.5 -156
q0 -88 29 -128.5t90 -40.5t131.5 43t151.5 122z" />
    <glyph glyph-name="A" unicode="A" horiz-adv-x="1240" 
d="M631 1423h331l154 -1423h-231l-40 374h-505l-183 -374h-228zM839 551l-38 366q-5 50 -9.5 93.5t-9.5 87.5t-9 87.5t-7 90.5h-2q-23 -48 -43.5 -91.5t-41.5 -87.5t-43 -88.5t-47 -95.5l-176 -362h426z" />
    <glyph glyph-name="B" unicode="B" horiz-adv-x="1189" 
d="M342 1423h381q127 0 214 -17.5t141 -53.5t78 -91t24 -129q0 -78 -24.5 -140.5t-65.5 -111t-94.5 -80.5t-110.5 -51q104 -22 156 -91t52 -164q0 -119 -45.5 -211t-129 -155t-200.5 -95.5t-260 -32.5h-392zM485 176q181 0 278 78t97 216q0 38 -11.5 70.5t-42.5 57t-87 38
t-145 13.5h-158l-91 -473h160zM594 820q94 0 161 22t109 59t61.5 85.5t19.5 103.5q0 41 -12.5 71.5t-41.5 49.5t-76.5 28t-118.5 9h-163l-83 -428h144z" />
    <glyph glyph-name="B" unicode="&#xe000;" horiz-adv-x="1189" 
d="M342 1423h381q127 0 214 -17.5t141 -53.5t78 -91t24 -129q0 -78 -24.5 -140.5t-65.5 -111t-94.5 -80.5t-110.5 -51q104 -22 156 -91t52 -164q0 -119 -45.5 -211t-129 -155t-200.5 -95.5t-260 -32.5h-392zM485 176q181 0 278 78t97 216q0 38 -11.5 70.5t-42.5 57t-87 38
t-145 13.5h-158l-91 -473h160zM594 820q94 0 161 22t109 59t61.5 85.5t19.5 103.5q0 41 -12.5 71.5t-41.5 49.5t-76.5 28t-118.5 9h-163l-83 -428h144z" />
    <glyph glyph-name="C" unicode="C" horiz-adv-x="1028" 
d="M897 23q-76 -20 -163.5 -33t-174.5 -13q-105 0 -187 22t-138.5 72.5t-85 132.5t-28.5 202q0 33 1.5 67.5t6 72t10 79t16.5 88.5q41 211 105 351.5t151 226t197.5 121t245.5 35.5q75 0 147.5 -11.5t132.5 -29.5l-53 -172q-57 16 -109.5 24t-115.5 8q-92 0 -166.5 -27
t-133 -92.5t-102 -172.5t-73.5 -267q-15 -81 -23 -147.5t-8 -129.5q0 -78 16.5 -131t50.5 -84.5t83.5 -44.5t116.5 -13q65 0 134.5 11.5t139.5 29.5z" />
    <glyph glyph-name="D" unicode="D" horiz-adv-x="1300" 
d="M342 1423h420q124 0 218.5 -19.5t157.5 -67.5t94.5 -128t31.5 -201q0 -64 -8 -133t-24 -158q-40 -205 -108.5 -342.5t-164.5 -220.5t-221 -118t-277 -35h-395zM483 181q96 0 179 24t149 85t115 165.5t79 266.5q14 74 22.5 136t8.5 120q0 79 -18 130.5t-56 81t-95.5 41.5
t-135.5 12h-199l-206 -1062h157z" />
    <glyph glyph-name="E" unicode="E" horiz-adv-x="1040" 
d="M342 1423h779l-37 -180h-552l-83 -423h513l-34 -177h-512l-90 -462h552l-34 -181h-778z" />
    <glyph glyph-name="E" unicode="&#xe001;" horiz-adv-x="1040" 
d="M342 1423h779l-37 -180h-552l-83 -423h513l-34 -177h-512l-90 -462h552l-34 -181h-778z" />
    <glyph glyph-name="F" unicode="F" horiz-adv-x="983" 
d="M342 1423h761l-36 -180h-535l-83 -423h491l-34 -177h-490l-125 -643h-225z" />
    <glyph glyph-name="G" unicode="G" horiz-adv-x="1230" 
d="M1009 50q-89 -33 -202 -54.5t-229 -21.5q-110 0 -195 22.5t-144 74t-89 135t-30 205.5q0 62 8 136.5t26 163.5q40 207 106 348t156 227.5t205 123.5t256 37q105 0 193.5 -15.5t170.5 -38.5l-57 -172q-79 21 -159 33t-162 12q-91 0 -166.5 -28t-135 -94.5t-105.5 -174
t-77 -263.5q-13 -73 -22 -142.5t-9 -129.5q0 -79 16.5 -132.5t48 -86t78.5 -46.5t110 -14t120 10.5t100 24.5l87 449h-267l35 178h483z" />
    <glyph glyph-name="H" unicode="H" horiz-adv-x="1342" 
d="M342 1423h225l-116 -597h565l116 597h225l-276 -1423h-225l124 640h-564l-125 -640h-225z" />
    <glyph glyph-name="I" unicode="I" horiz-adv-x="552" 
d="M342 1423h225l-276 -1423h-225z" />
    <glyph glyph-name="J" unicode="J" horiz-adv-x="689" 
d="M508 358q-20 -105 -54.5 -176.5t-86.5 -116t-120.5 -63t-158.5 -18.5q-55 0 -103.5 6.5t-91.5 18.5l41 176q38 -9 77 -14t75 -5q86 0 131.5 47t66.5 152l206 1058h225z" />
    <glyph glyph-name="K" unicode="K" horiz-adv-x="1128" 
d="M342 1423h225l-131 -671l587 671h271l-628 -694l372 -729h-259l-352 704l-136 -704h-225z" />
    <glyph glyph-name="L" unicode="L" horiz-adv-x="934" 
d="M342 1423h225l-240 -1237h524l-36 -186h-749z" />
    <glyph glyph-name="M" unicode="M" horiz-adv-x="1838" 
d="M416 1423h348l69 -791q4 -58 7.5 -112t6 -108t5 -111t4.5 -122h5q25 65 48.5 122t46.5 110t47 107t51 113l376 792h351l-158 -1423h-232l103 836q7 55 14.5 108.5t15.5 106.5t16.5 107t18.5 113l-3 1q-25 -58 -48.5 -111.5t-48 -106t-49.5 -106.5t-52 -112l-387 -836
h-297l-66 836q-10 112 -16.5 217t-12.5 218l-3 -2q-13 -56 -25 -110t-24.5 -106.5t-26 -106.5t-29.5 -110l-220 -836h-230z" />
    <glyph glyph-name="N" unicode="N" horiz-adv-x="1396" 
d="M342 1423h284l261 -796q16 -49 29 -94.5t27 -91t27 -93t26 -101.5l2 1q11 104 23.5 197.5t30.5 181.5l156 796h203l-276 -1423h-287l-262 796q-16 48 -29.5 94t-26 92.5t-25 94t-23.5 100.5l-5 -1q-12 -103 -24.5 -196.5t-29.5 -183.5l-154 -796h-203z" />
    <glyph glyph-name="O" unicode="O" horiz-adv-x="1341" 
d="M1298 1009q0 -69 -8.5 -139.5t-25.5 -157.5q-40 -205 -102 -346t-149 -229t-199 -127t-249 -39q-107 0 -190.5 24.5t-140 78t-85.5 137.5t-29 203q0 69 8 140t25 158q39 204 102 345t150 229t198 127t248 39q108 0 191 -24.5t139.5 -77.5t86.5 -137.5t30 -203.5z
M1069 997q0 71 -14.5 123t-45 86t-76 49.5t-107.5 15.5q-83 0 -150.5 -29.5t-122.5 -97t-98 -175.5t-74 -263q-8 -36 -13.5 -73.5t-10 -72.5t-7 -69t-2.5 -64q0 -73 14.5 -124.5t45 -85t76 -49.5t108.5 -16q80 0 148 30t123.5 97t98 174.5t73.5 264.5q7 36 13.5 73t11 72.5
t7 69t2.5 64.5z" />
    <glyph glyph-name="P" unicode="P" horiz-adv-x="1094" 
d="M342 1423h373q122 0 205.5 -20t135 -58t74.5 -93.5t23 -125.5q0 -144 -47 -247t-129.5 -170t-193 -98t-239.5 -31h-141l-112 -580h-225zM572 755q68 0 131.5 20t112 61.5t78.5 105t30 150.5q0 80 -52 118t-185 38h-154l-96 -493h135z" />
    <glyph glyph-name="Q" unicode="Q" horiz-adv-x="1341" 
d="M984 -253l-168 273q-47 -22 -108 -35.5t-143 -13.5q-107 0 -190.5 24.5t-140 78t-85.5 137.5t-29 203q0 69 8 140t25 158q39 204 102 345t150 229t198 127t248 39q108 0 191 -24.5t139.5 -77.5t86.5 -137.5t30 -203.5q0 -69 -8.5 -139.5t-25.5 -157.5
q-22 -117 -50.5 -208.5t-62 -161.5t-70.5 -122t-78 -92l176 -267zM1069 997q0 71 -14.5 123t-45 86t-76 49.5t-107.5 15.5q-83 0 -150.5 -29.5t-122.5 -97t-98 -175.5t-74 -263q-8 -36 -13.5 -73.5t-10 -72.5t-7 -69t-2.5 -64q0 -73 14.5 -124.5t45 -85t76 -49.5t108.5 -16
q80 0 148 30t123.5 96t98 174t73.5 266q7 36 13.5 73t11 72.5t7 69t2.5 64.5z" />
    <glyph glyph-name="R" unicode="R" horiz-adv-x="1164" 
d="M342 1423h381q131 0 219.5 -18.5t143 -55.5t78 -90.5t23.5 -122.5q0 -105 -31.5 -185.5t-89 -139t-137.5 -93.5t-175 -46l263 -672h-254l-236 644h-109l-127 -644h-225zM612 819q155 0 250.5 68.5t95.5 204.5q0 40 -13 69t-43 48.5t-81 29t-127 9.5h-161l-83 -429h162z
" />
    <glyph glyph-name="S" unicode="S" horiz-adv-x="1007" 
d="M72 195q78 -19 150.5 -31.5t158.5 -12.5q74 0 131 15t95.5 43t58 71t19.5 99q0 35 -9 63t-34 57.5t-70 65.5t-118 90q-78 56 -128.5 101.5t-79.5 88.5t-41 88t-12 102q0 210 132 311.5t386 101.5q76 0 146 -7.5t142 -25.5l-39 -175q-36 8 -67 13.5t-62.5 9.5t-65 6.5
t-70.5 2.5q-138 0 -207.5 -48t-69.5 -147q0 -36 10 -64.5t34.5 -57t65.5 -61.5t104 -77q85 -64 139.5 -112.5t86 -91.5t43 -87.5t11.5 -99.5q0 -112 -35.5 -196.5t-105 -141t-173 -85t-239.5 -28.5q-49 0 -91 3.5t-81 9t-77 13t-78 18.5z" />
    <glyph glyph-name="S" unicode="&#xe002;" horiz-adv-x="1007" 
d="M72 195q78 -19 150.5 -31.5t158.5 -12.5q74 0 131 15t95.5 43t58 71t19.5 99q0 35 -9 63t-34 57.5t-70 65.5t-118 90q-78 56 -128.5 101.5t-79.5 88.5t-41 88t-12 102q0 210 132 311.5t386 101.5q76 0 146 -7.5t142 -25.5l-39 -175q-36 8 -67 13.5t-62.5 9.5t-65 6.5
t-70.5 2.5q-138 0 -207.5 -48t-69.5 -147q0 -36 10 -64.5t34.5 -57t65.5 -61.5t104 -77q85 -64 139.5 -112.5t86 -91.5t43 -87.5t11.5 -99.5q0 -112 -35.5 -196.5t-105 -141t-173 -85t-239.5 -28.5q-49 0 -91 3.5t-81 9t-77 13t-78 18.5z" />
    <glyph glyph-name="T" unicode="T" horiz-adv-x="1050" 
d="M554 1238h-392l36 185h1010l-37 -185h-390l-240 -1238h-226z" />
    <glyph glyph-name="U" unicode="U" horiz-adv-x="1312" 
d="M539 1423l-169 -868q-9 -45 -15.5 -91t-6.5 -95q0 -54 12 -93.5t40 -67.5t72.5 -42t108.5 -14q80 0 143 25.5t109.5 77.5t78.5 130t53 184l167 854h226l-167 -857q-31 -155 -81 -266.5t-126 -185t-180.5 -108.5t-244.5 -35q-223 0 -330 95t-107 284q0 47 5.5 100
t18.5 112l168 861h225z" />
    <glyph glyph-name="V" unicode="V" horiz-adv-x="1235" 
d="M204 1423h229l80 -791q5 -58 10 -114.5t8.5 -115t7.5 -120.5t6 -129h4q29 67 55 128.5t52.5 120t52.5 115.5t56 115l389 791h231l-699 -1423h-333z" />
    <glyph glyph-name="W" unicode="W" horiz-adv-x="1953" 
d="M233 1423h232l24 -791q1 -57 1.5 -113.5t-1 -114.5t-2.5 -120t-2 -129h4q24 66 46 127.5t43 119t42.5 115t46.5 115.5l329 791h320l17 -791q1 -58 2 -114.5t0 -114t-2.5 -119.5t-3.5 -129h3q25 67 48 129t45.5 120.5t44 114.5t45.5 113l332 791h229l-604 -1423h-333
l-18 838q-2 55 -2 110t0.5 109t2 107t4.5 107h-2q-20 -55 -39.5 -107.5t-40 -106t-42 -109t-44.5 -110.5l-343 -838h-332z" />
    <glyph glyph-name="X" unicode="X" horiz-adv-x="1266" 
d="M521 731l-317 692h246l253 -560l4 -1q20 25 37.5 48t35 45t36.5 45t40 48l308 375h247l-588 -703l333 -720h-250l-268 587l-4 1q-38 -47 -72 -89t-72 -90l-334 -409h-241z" />
    <glyph glyph-name="Y" unicode="Y" horiz-adv-x="1103" 
d="M444 543l-267 880h224l124 -385q14 -41 23 -74.5t17.5 -64t17 -62.5t17.5 -69h5q23 38 43 71.5t40.5 64.5t41.5 64t48 71l268 384h236l-615 -882l-105 -541h-223z" />
    <glyph glyph-name="Z" unicode="Z" horiz-adv-x="1002" 
d="M-16 149l819 1088h-578l37 186h854l-30 -148l-819 -1088h623l-35 -187h-899z" />
    <glyph glyph-name="bracketleft" unicode="[" horiz-adv-x="665" 
d="M370 1511h440l-32 -159h-245l-297 -1524h246l-31 -159h-440z" />
    <glyph glyph-name="backslash" unicode="\" horiz-adv-x="824" 
d="M210 1511h195l302 -1737h-195z" />
    <glyph glyph-name="bracketright" unicode="]" horiz-adv-x="665" 
d="M-82 -172h245l296 1524h-246l31 159h441l-358 -1842h-440z" />
    <glyph glyph-name="asciicircum" unicode="^" 
d="M611 1423h225l223 -690h-203l-166 502l-365 -502h-207z" />
    <glyph glyph-name="underscore" unicode="_" 
d="M-130 -283h1061l-37 -188h-1061z" />
    <glyph glyph-name="grave" unicode="`" horiz-adv-x="784" 
d="M499 1567l245 -315l-110 -99l-279 286z" />
    <glyph glyph-name="a" unicode="a" horiz-adv-x="1127" 
d="M698 138q-34 -34 -74 -62t-83.5 -50t-91 -33.5t-94.5 -11.5q-125 0 -199.5 79t-74.5 239q0 173 43.5 308.5t119 230t175.5 144t212 49.5q76 0 134 -20.5t102 -52.5l17 53h183l-195 -1011h-183zM805 794q-40 28 -80.5 44t-95.5 16q-73 0 -131.5 -44t-100 -117t-65 -167.5
t-23.5 -194.5q0 -84 31.5 -125.5t89.5 -41.5q61 0 135.5 51t153.5 144z" />
    <glyph glyph-name="b" unicode="b" horiz-adv-x="1123" 
d="M351 1511h222l-76 -389q-12 -62 -24.5 -115.5t-30.5 -114.5l2 -2q33 27 69.5 53t78 45.5t87 31t92.5 11.5q125 0 199.5 -79.5t74.5 -238.5q0 -172 -43.5 -308.5t-119 -231t-175.5 -143.5t-212 -49q-76 0 -134 20.5t-102 51.5l-17 -53h-183zM321 217q40 -29 80.5 -44.5
t94.5 -15.5q72 0 131.5 44t101 117t65.5 167t24 195q0 84 -32 125.5t-90 41.5q-61 0 -136 -50.5t-153 -145.5z" />
    <glyph glyph-name="b" unicode="&#xe003;" horiz-adv-x="1123" 
d="M351 1511h222l-76 -389q-12 -62 -24.5 -115.5t-30.5 -114.5l2 -2q33 27 69.5 53t78 45.5t87 31t92.5 11.5q125 0 199.5 -79.5t74.5 -238.5q0 -172 -43.5 -308.5t-119 -231t-175.5 -143.5t-212 -49q-76 0 -134 20.5t-102 51.5l-17 -53h-183zM321 217q40 -29 80.5 -44.5
t94.5 -15.5q72 0 131.5 44t101 117t65.5 167t24 195q0 84 -32 125.5t-90 41.5q-61 0 -136 -50.5t-153 -145.5z" />
    <glyph glyph-name="c" unicode="c" horiz-adv-x="832" 
d="M706 16q-62 -16 -129.5 -26t-133.5 -10q-84 0 -152 17t-115 56t-71.5 101.5t-24.5 156.5q0 21 1 42t3 44t5.5 48t9.5 56q26 144 76 245t119 164t155 92.5t183 29.5q62 0 118 -8.5t102 -22.5l-50 -165q-40 11 -77.5 16t-78.5 5q-55 0 -104 -16.5t-90.5 -57.5t-74 -108
t-54.5 -170q-10 -48 -14 -89.5t-4 -77.5q0 -102 47.5 -143t142.5 -41q47 0 97 7.5t107 22.5z" />
    <glyph glyph-name="d" unicode="d" horiz-adv-x="1127" 
d="M698 138q-34 -34 -74 -62t-83.5 -50t-91 -33.5t-94.5 -11.5q-125 0 -199.5 79t-74.5 239q0 173 43.5 308.5t119 230t175.5 144t212 49.5q65 0 119 -17t96 -43l3 2q6 60 13.5 113t18.5 107l62 318h222l-293 -1511h-183zM805 794q-40 28 -80.5 44t-95.5 16
q-73 0 -131.5 -44t-100 -117t-65 -167.5t-23.5 -194.5q0 -84 31.5 -125.5t89.5 -41.5q61 0 135.5 51t153.5 144z" />
    <glyph glyph-name="e" unicode="e" horiz-adv-x="986" 
d="M788 29q-71 -23 -159 -36t-182 -13q-90 0 -158.5 15.5t-115 54.5t-70 101.5t-23.5 158.5q0 42 4.5 91t13.5 98q25 144 74.5 247t119 168t157.5 95.5t189 30.5q152 0 236.5 -66.5t84.5 -184.5q0 -92 -40 -160t-120.5 -113.5t-203 -67.5t-285.5 -22q-4 -22 -7.5 -54
t-3.5 -57q0 -90 44.5 -125.5t138.5 -35.5q75 0 149.5 10.5t150.5 32.5zM339 575q209 -1 311 43t102 144q0 48 -34 76.5t-106 28.5q-50 0 -92.5 -16t-76 -51t-60.5 -90.5t-44 -134.5z" />
    <glyph glyph-name="f" unicode="f" horiz-adv-x="674" 
d="M297 -80q-21 -109 -57 -181t-87.5 -115.5t-120 -62.5t-154.5 -19q-40 0 -77.5 4t-79.5 14l35 169q40 -9 67.5 -10.5t60.5 -1.5q36 0 65 10.5t53.5 35t42 64t28.5 95.5l179 918h-154l34 171h153l30 152q22 108 57.5 181t88.5 116t124 61.5t164 18.5q48 0 93.5 -5t88.5 -16
l-36 -169q-42 9 -77 12.5t-75 3.5q-41 0 -73.5 -11t-58 -35.5t-44 -63.5t-29.5 -95l-30 -150h266l-32 -171h-267z" />
    <glyph glyph-name="g" unicode="g" horiz-adv-x="1127" 
d="M805 794q-40 28 -80.5 44t-94.5 16q-73 0 -131.5 -44t-100.5 -117t-65.5 -167.5t-23.5 -194.5q0 -84 31.5 -125.5t89.5 -41.5q61 0 135.5 51t153.5 144zM864 -40q-22 -113 -65.5 -191.5t-110 -129t-157.5 -73t-208 -22.5q-92 0 -165.5 9.5t-142.5 25.5l36 173
q67 -16 134.5 -24.5t150.5 -8.5q131 0 205.5 55t100.5 186q5 26 9.5 44.5t9 36t10.5 35.5t13 44l-2 2q-33 -29 -70 -54t-78.5 -45t-86.5 -31t-92 -11q-125 0 -199.5 79t-74.5 239q0 173 43.5 308.5t119 230t175 144t211.5 49.5q77 0 135 -20.5t102 -52.5l17 53h183z" />
    <glyph glyph-name="h" unicode="h" horiz-adv-x="1161" 
d="M351 1511h222l-76 -390q-12 -62 -25 -116t-32 -118l2 -2q33 28 73.5 54t86.5 47t97.5 33t106.5 12q130 0 191.5 -62.5t61.5 -182.5q0 -27 -4 -57t-10 -63l-128 -666h-221l124 644q5 25 7.5 49t2.5 44q0 57 -26.5 83.5t-84.5 26.5q-69 0 -151.5 -51.5t-161.5 -148.5
l-126 -647h-221z" />
    <glyph glyph-name="i" unicode="i" horiz-adv-x="535" 
d="M254 1011h222l-196 -1011h-221zM569 1397q0 -13 -1.5 -27.5t-5.5 -31.5q-7 -36 -17 -60.5t-28 -39t-45 -20.5t-67 -6q-61 0 -87 15t-26 57q0 13 1.5 27.5t4.5 31.5q6 37 16.5 61.5t28.5 39t44.5 20.5t68.5 6q61 0 87 -15t26 -58z" />
    <glyph glyph-name="j" unicode="j" horiz-adv-x="535" 
d="M266 -76q-22 -106 -57.5 -178.5t-88 -117t-121.5 -64.5t-156 -20q-40 0 -84.5 5t-83.5 14l32 168q39 -6 75 -9t71 -3q34 0 64.5 10.5t54.5 35t42.5 64.5t29.5 97l211 1085h222zM570 1397q0 -13 -1.5 -27.5t-5.5 -31.5q-7 -36 -17 -60.5t-28 -39t-45 -20.5t-67 -6
q-61 0 -87 15t-26 57q0 13 1.5 27.5t4.5 31.5q6 37 16.5 61.5t28.5 39t44.5 20.5t68.5 6q61 0 87 -15t26 -58z" />
    <glyph glyph-name="k" unicode="k" horiz-adv-x="1003" 
d="M351 1511h222l-180 -933l423 433h270l-481 -476l278 -535h-245l-257 517l-101 -517h-221z" />
    <glyph glyph-name="l" unicode="l" horiz-adv-x="535" 
d="M351 1511h222l-293 -1511h-221z" />
    <glyph glyph-name="m" unicode="m" horiz-adv-x="1750" 
d="M254 1011h183l-9 -140q35 33 76 62t86.5 51t96.5 34.5t105 12.5q109 0 165 -46t69 -126q35 34 76.5 65t89 54t100.5 38t111 15q124 0 184 -62.5t60 -182.5q0 -27 -3.5 -57t-9.5 -63l-129 -666h-222l125 644q5 25 7.5 49t2.5 44q0 57 -24 83.5t-78 26.5q-68 0 -145.5 -54
t-152.5 -146l-125 -647h-221l124 644q6 25 8.5 49t2.5 44q0 56 -24.5 83t-77.5 27q-67 0 -143.5 -51.5t-155.5 -148.5l-126 -647h-221z" />
    <glyph glyph-name="n" unicode="n" horiz-adv-x="1161" 
d="M254 1011h183l-9 -140q35 33 77.5 62t91 51t101.5 34.5t108 12.5q130 0 191.5 -62.5t61.5 -182.5q0 -27 -4 -57t-10 -63l-128 -666h-221l124 644q5 25 7.5 49t2.5 44q0 57 -26.5 83.5t-84.5 26.5q-69 0 -151.5 -51.5t-161.5 -148.5l-126 -647h-221z" />
    <glyph glyph-name="o" unicode="o" horiz-adv-x="1091" 
d="M1011 694q0 -39 -4.5 -84t-14.5 -102q-27 -146 -76 -247.5t-117.5 -166t-157 -94t-194.5 -29.5q-85 0 -154 18.5t-116 59.5t-72 107t-25 161q0 39 4.5 84t14.5 103q27 145 75.5 247t117.5 166t157.5 93.5t194.5 29.5q86 0 154 -18.5t115.5 -59.5t72.5 -107t25 -161z
M787 679q0 104 -43.5 145t-125.5 41q-52 0 -97.5 -17t-82 -58.5t-65.5 -110t-50 -174.5q-5 -23 -8.5 -47t-5.5 -46t-3.5 -42.5t-1.5 -36.5q0 -105 43.5 -146t125.5 -41q52 0 97.5 16.5t82 58t65.5 110.5t50 176q4 22 8.5 46t6.5 46.5t3 42.5t1 37z" />
    <glyph glyph-name="p" unicode="p" horiz-adv-x="1123" 
d="M254 1011h184l-10 -137q35 32 74.5 60.5t83.5 50.5t91 34t94 12q125 0 199.5 -79.5t74.5 -238.5q0 -172 -43.5 -308.5t-119 -231t-175.5 -143.5t-212 -49q-65 0 -118.5 16.5t-95.5 41.5l-3 -2q-6 -59 -13.5 -112t-19.5 -108l-48 -251h-222zM321 217q40 -29 80.5 -44.5
t94.5 -15.5q72 0 131.5 44t101 117t65.5 167t24 195q0 84 -32 125.5t-90 41.5q-61 0 -136 -50.5t-153 -145.5z" />
    <glyph glyph-name="q" unicode="q" horiz-adv-x="1127" 
d="M787 -434h-222l64 326q12 60 24 113t31 115l-2 2q-33 -29 -70 -54t-78.5 -45t-86.5 -31t-92 -11q-125 0 -199.5 78.5t-74.5 238.5q0 174 43.5 309.5t119 230t175 144t211.5 49.5q77 0 135 -20.5t102 -52.5l17 53h183zM805 794q-40 28 -80.5 44t-94.5 16q-73 0 -131.5 -44
t-100.5 -117t-65.5 -168t-23.5 -195q0 -83 31.5 -124.5t89.5 -41.5q61 0 135.5 51t153.5 144z" />
    <glyph glyph-name="r" unicode="r" horiz-adv-x="698" 
d="M254 1011h183l-9 -147q28 31 64 63t75 56.5t80.5 40.5t78.5 16q31 0 53 -11l-45 -215q-23 12 -54 12q-70 0 -138 -46.5t-138 -134.5l-124 -645h-221z" />
    <glyph glyph-name="s" unicode="s" horiz-adv-x="800" 
d="M56 179q63 -16 123.5 -24t117.5 -8q99 0 151 35.5t52 101.5q0 21 -7.5 38t-25.5 34t-49.5 37.5t-77.5 47.5q-60 35 -99.5 64.5t-64.5 60t-35 67t-10 85.5q0 159 105.5 236.5t307.5 77.5q54 0 108.5 -8t102.5 -19l-35 -164q-47 10 -95.5 16.5t-96.5 6.5q-93 0 -140 -30
t-47 -92q0 -23 8 -40.5t25 -34.5t44.5 -35t68.5 -41q65 -38 108 -69t68.5 -61.5t36.5 -64t11 -76.5q0 -90 -31 -154t-86.5 -105.5t-133 -61t-173.5 -19.5q-71 0 -135 9t-128 24z" />
    <glyph glyph-name="s" unicode="&#xe004;" horiz-adv-x="800" 
d="M56 179q63 -16 123.5 -24t117.5 -8q99 0 151 35.5t52 101.5q0 21 -7.5 38t-25.5 34t-49.5 37.5t-77.5 47.5q-60 35 -99.5 64.5t-64.5 60t-35 67t-10 85.5q0 159 105.5 236.5t307.5 77.5q54 0 108.5 -8t102.5 -19l-35 -164q-47 10 -95.5 16.5t-96.5 6.5q-93 0 -140 -30
t-47 -92q0 -23 8 -40.5t25 -34.5t44.5 -35t68.5 -41q65 -38 108 -69t68.5 -61.5t36.5 -64t11 -76.5q0 -90 -31 -154t-86.5 -105.5t-133 -61t-173.5 -19.5q-71 0 -135 9t-128 24z" />
    <glyph glyph-name="t" unicode="t" horiz-adv-x="689" 
d="M279 1011l56 291l228 31l-62 -322h222l-34 -171h-221l-107 -550q-4 -17 -5.5 -33t-1.5 -29q0 -41 19 -56.5t56 -15.5q32 0 61 5t58 13l6 -167q-50 -12 -99 -18.5t-102 -6.5q-60 0 -104 10.5t-72 33.5t-41.5 58t-13.5 84q0 22 3.5 45t8.5 51l111 576h-147l33 171h148z" />
    <glyph glyph-name="u" unicode="u" horiz-adv-x="1162" 
d="M466 1011l-124 -643q-5 -26 -8 -49.5t-3 -44.5q0 -57 26.5 -83.5t83.5 -26.5q70 0 152.5 52t162.5 148l124 647h223l-196 -1011h-183l9 140q-35 -33 -77.5 -62t-91 -51t-102 -34t-108.5 -12q-129 0 -190.5 62t-61.5 182q0 27 3.5 57t10.5 63l128 666h222z" />
    <glyph glyph-name="v" unicode="v" horiz-adv-x="993" 
d="M123 1011h222l57 -520q5 -47 8.5 -88.5t6.5 -81.5t4.5 -81.5t4.5 -88.5h3q20 49 38 90t36 81t36.5 81t42.5 88l262 520h221l-511 -1011h-312z" />
    <glyph glyph-name="w" unicode="w" horiz-adv-x="1649" 
d="M133 1011h225l35 -520q3 -42 4.5 -82.5t2.5 -82.5t1 -84.5t1 -89.5h2q33 88 66.5 171t70.5 168l229 520h303l31 -520q4 -43 5.5 -83.5t3 -82t1.5 -84v-89.5h3q19 47 35.5 90.5t32.5 85t33 81.5t36 82l233 520h223l-465 -1011h-308l-37 521q-5 86 -7 164.5t0 173.5h-2
q-34 -91 -64.5 -171t-68.5 -166l-237 -522h-306z" />
    <glyph glyph-name="x" unicode="x" horiz-adv-x="1027" 
d="M362 521l-233 490h240l175 -378l2 1q26 32 44.5 56.5t44.5 57.5l216 263h247l-433 -500l247 -511h-250l-179 403l-2 -1q-25 -33 -46 -59t-48 -61l-224 -282h-245z" />
    <glyph glyph-name="y" unicode="y" horiz-adv-x="992" 
d="M117 1011h232l59 -485q5 -47 8.5 -87.5t6 -80t4 -80.5t3.5 -91h3q21 50 39 90.5t36 80t37.5 80.5t43.5 88l249 485h238l-604 -1123q-55 -102 -101.5 -169t-97.5 -105.5t-112.5 -54t-145.5 -15.5q-38 0 -75 5t-73 14l32 166q32 -4 64 -7t62 -3q34 0 62.5 6.5t56 24.5
t54.5 52t57 87l62 111h-66z" />
    <glyph glyph-name="y" unicode="&#xe006;" horiz-adv-x="992" 
d="M117 1011h232l59 -485q5 -47 8.5 -87.5t6 -80t4 -80.5t3.5 -91h3q21 50 39 90.5t36 80t37.5 80.5t43.5 88l249 485h238l-604 -1123q-55 -102 -101.5 -169t-97.5 -105.5t-112.5 -54t-145.5 -15.5q-38 0 -75 5t-73 14l32 166q32 -4 64 -7t62 -3q34 0 62.5 6.5t56 24.5
t54.5 52t57 87l62 111h-66z" />
    <glyph glyph-name="z" unicode="z" horiz-adv-x="853" 
d="M-4 129l572 705h-405l33 177h677l-25 -126l-574 -708h450l-34 -177h-718z" />
    <glyph glyph-name="braceleft" unicode="{" horiz-adv-x="651" 
d="M428 -326q-17 -2 -38 -3.5t-47 -1.5q-114 0 -170.5 58t-56.5 172q0 25 2.5 52.5t8.5 59.5l49 255q5 21 8 46t3 43q0 65 -31 108t-96 72l32 166q47 17 83 42t63 59.5t46 79.5t31 103l40 200q16 83 42 145t65.5 102.5t94.5 60.5t130 20q30 0 53.5 -2.5t42.5 -6.5l-28 -152
h-44q-78 0 -113.5 -48.5t-51.5 -137.5l-40 -210q-13 -66 -34 -119.5t-51.5 -95t-69 -74t-88.5 -57.5q60 -38 91.5 -92.5t31.5 -130.5q0 -30 -3 -56.5t-10 -62.5l-52 -268q-5 -25 -7.5 -45t-2.5 -36q0 -53 33 -74t114 -21z" />
    <glyph glyph-name="bar" unicode="|" horiz-adv-x="542" 
d="M359 1511h214l-378 -1945h-214z" />
    <glyph glyph-name="braceright" unicode="}" horiz-adv-x="652" 
d="M-72 -171h44q77 0 112.5 48.5t52.5 138.5l47 248q14 67 35 120t51 94.5t69 73.5t89 58q-60 38 -91.5 92.5t-31.5 131.5q0 28 3 56.5t9 61.5l46 229q4 24 6.5 43.5t2.5 35.5q0 53 -32.5 74.5t-113.5 21.5l29 150q18 2 38.5 3.5t47.5 1.5q113 0 170 -57.5t57 -172.5
q0 -24 -2.5 -52.5t-8.5 -58.5l-43 -216q-4 -22 -7 -46t-3 -41q0 -69 31.5 -112.5t95.5 -69.5l-33 -166q-46 -17 -82 -42t-64 -60t-46.5 -79.5t-29.5 -101.5l-48 -241q-16 -83 -42 -144.5t-66 -101.5t-95 -60.5t-129 -20.5q-31 0 -54.5 2.5t-41.5 6.5z" />
    <glyph glyph-name="asciitilde" unicode="~" 
d="M201 916q12 83 42 150.5t72.5 116t97.5 75t117 26.5q52 0 87 -14.5t60 -36t43.5 -47t36.5 -46.5t38 -36t49 -15q47 0 83.5 45.5t55.5 137.5h165q-12 -82 -42 -150t-73 -116t-97.5 -74.5t-116.5 -26.5q-52 0 -87 14.5t-60.5 35.5t-44 47t-36 47t-38.5 35.5t-49 14.5
q-48 0 -84 -45.5t-55 -137.5h-164z" />
    <glyph glyph-name="exclamdown" unicode="&#xa1;" horiz-adv-x="585" 
d="M236 690h183l-191 -1124h-238zM521 1041q0 -14 -1.5 -29t-4.5 -32q-8 -34 -18.5 -58t-27.5 -38t-43.5 -20.5t-65.5 -6.5q-57 0 -83 15t-26 52q0 15 1.5 30t4.5 32q7 34 17.5 57.5t27.5 38t44 21t65 6.5q57 0 83.5 -15.5t26.5 -52.5z" />
    <glyph glyph-name="cent" unicode="&#xa2;" 
d="M877 1423l-36 -186q52 -3 107.5 -14t100.5 -25l-51 -170q-53 15 -115 23.5t-114 8.5q-68 0 -126.5 -16t-105.5 -56t-81.5 -108t-54.5 -170q-7 -40 -11 -74.5t-4 -63.5q0 -64 17 -104.5t48.5 -64.5t75 -32.5t98.5 -8.5q59 0 120.5 7t123.5 24l8 -173q-59 -16 -121.5 -24.5
t-119.5 -10.5l-35 -185h-176l37 191q-63 9 -117 29.5t-94.5 60.5t-63.5 100.5t-23 148.5q0 40 4 83t14 96q27 139 73.5 235t109 156.5t139 91.5t161.5 42l37 189h175z" />
    <glyph glyph-name="sterling" unicode="&#xa3;" 
d="M358 816q-1 30 -2.5 54.5t-3 46.5t-2 42t-0.5 41q0 123 39 208t107 139t160 78t199 24q94 0 155.5 -10t114.5 -23l-42 -171q-59 12 -112.5 19.5t-127.5 7.5q-57 0 -108 -14t-89.5 -48.5t-60 -90.5t-21.5 -136q0 -23 1 -41.5t2 -36t2.5 -38.5t2.5 -51h374l-34 -178h-349
q-9 -66 -26 -126.5t-40.5 -116.5t-52.5 -108.5t-62 -103.5h518l-35 -183h-871l35 183h116q36 51 68 104t58 108.5t44 115.5t28 127h-176l34 178h157z" />
    <glyph glyph-name="currency" unicode="&#xa4;" horiz-adv-x="1247" 
d="M230 459q-11 26 -17.5 59t-6.5 73q0 57 11.5 114t28.5 107t40.5 94t50.5 78l-150 190l139 117l150 -188q53 33 120 54t157 21q87 0 142.5 -18.5t92.5 -49.5l194 163l108 -135l-193 -164q10 -25 16 -58t6 -72q0 -58 -10.5 -114.5t-28 -107.5t-40.5 -95t-50 -77l149 -189
l-139 -117l-151 188q-49 -32 -118 -54.5t-157 -22.5q-87 0 -142.5 19.5t-92.5 50.5l-196 -163l-108 134zM940 817q0 105 -55.5 152.5t-162.5 47.5q-76 0 -138 -30t-105.5 -83.5t-67.5 -126.5t-24 -159q0 -52 14 -90.5t42 -62.5t68 -36t95 -12q75 0 136.5 30.5t105 83t68 126
t24.5 160.5z" />
    <glyph glyph-name="yen" unicode="&#xa5;" 
d="M373 194h-283l30 156h283l31 159h-284l31 155h250l-194 759h225l90 -363q8 -38 15 -68t13 -58t12 -57t12 -66h5q21 37 37.5 67t33 58.5t33 58t37.5 65.5l222 363h237l-491 -759h250l-31 -155h-283l-30 -159h282l-29 -156h-283l-37 -194h-221z" />
    <glyph glyph-name="brokenbar" unicode="&#xa6;" horiz-adv-x="542" 
d="M130 336h214l-149 -770h-214zM359 1511h214l-154 -791h-214z" />
    <glyph glyph-name="section" unicode="&#xa7;" horiz-adv-x="1139" 
d="M121 -148q60 -16 119.5 -24t127.5 -8q60 0 106 11t76.5 31t46 47.5t15.5 61.5q0 28 -11 51t-37.5 48.5t-72.5 57.5t-119 78q-77 49 -126 91t-76.5 80.5t-38.5 76t-11 80.5q0 73 23.5 131.5t62 105.5t87.5 84.5t102 66.5q-35 39 -54 82t-19 104q0 78 30 141.5t90 108.5
t150 69.5t208 24.5q78 0 150.5 -10.5t128.5 -28.5l-47 -169q-59 15 -119.5 23t-127.5 8q-60 0 -105.5 -10.5t-76 -31t-47 -48t-16.5 -60.5q0 -29 11 -52t38 -48t73 -57.5t119 -78.5q77 -50 126 -91t76.5 -80.5t38.5 -77t11 -79.5q0 -71 -21 -128.5t-58 -104.5t-87.5 -84.5
t-107.5 -70.5q38 -42 55 -84.5t17 -101.5q0 -78 -30.5 -141.5t-90.5 -108.5t-149.5 -69.5t-208.5 -24.5q-78 0 -150.5 11t-128.5 28zM632 742q-35 22 -54 34t-43 31q-84 -43 -142 -101.5t-58 -133.5q0 -26 7 -49t27 -48t55 -53.5t93 -65.5q35 -23 56 -36.5t45 -31.5
q88 44 143.5 105t55.5 133q0 26 -8 49t-28.5 49t-57 54t-91.5 64z" />
    <glyph glyph-name="dieresis" unicode="&#xa8;" horiz-adv-x="1107" 
d="M626 1398q0 -14 -1.5 -28.5t-4.5 -31.5q-7 -36 -18 -59t-28 -36t-42.5 -18t-61.5 -5q-53 0 -79.5 13.5t-26.5 51.5q0 13 1.5 27.5t4.5 31.5q6 37 17.5 60t28.5 36t42.5 18t61.5 5q52 0 79 -14t27 -51zM1056 1398q0 -14 -1.5 -28.5t-4.5 -31.5q-7 -36 -18 -59t-28 -36
t-42.5 -18t-61.5 -5q-53 0 -79.5 13.5t-26.5 51.5q0 13 1.5 27.5t4.5 31.5q6 37 17.5 60t29 36t42.5 18t61 5q53 0 79.5 -14t26.5 -51z" />
    <glyph glyph-name="copyright" unicode="&#xa9;" horiz-adv-x="1854" 
d="M1170 316q-64 -16 -129.5 -25.5t-141.5 -9.5q-77 0 -141 20t-109.5 60.5t-71.5 104t-26 152.5q0 32 3.5 68t12.5 75q24 127 70.5 215.5t111 145.5t146.5 82.5t180 25.5q67 0 120 -9t113 -26l-38 -134q-55 15 -98.5 22t-96.5 7q-57 0 -109 -17.5t-94.5 -56.5t-74 -104
t-49.5 -160q-6 -31 -9 -60t-3 -56q0 -63 15.5 -104t43 -65.5t64 -35t78.5 -10.5q57 0 112.5 7.5t113.5 22.5zM1765 819q0 -206 -60.5 -364t-170 -266t-263 -164t-339.5 -56q-183 0 -322.5 53.5t-234 149.5t-142.5 229.5t-48 291.5q0 205 60 364t170 267t263 163.5t338 55.5
q183 0 323 -53t234.5 -149.5t143 -229.5t48.5 -292zM1597 815q0 129 -33.5 236.5t-105 185t-183.5 121t-267 43.5t-277 -44.5t-207 -131.5t-128.5 -219t-43.5 -309q0 -128 33.5 -236.5t105.5 -186t183 -120t266 -42.5q156 0 278 44t206.5 131.5t128.5 219t44 308.5z" />
    <glyph glyph-name="ordfeminine" unicode="&#xaa;" horiz-adv-x="744" 
d="M89 579h599l-28 -142h-598zM546 809q-48 -48 -108.5 -79.5t-126.5 -31.5q-84 0 -137.5 58t-53.5 172q0 119 30.5 214t82.5 162.5t121.5 104t148.5 36.5q53 0 93 -15t69 -37l14 38h137l-139 -718h-136zM620 1271q-26 21 -55 31t-66 10q-47 0 -85.5 -31.5t-66.5 -83
t-44 -116.5t-16 -130q0 -61 20.5 -88t57.5 -27q42 0 93 37.5t106 104.5z" />
    <glyph glyph-name="guillemotleft" unicode="&#xab;" horiz-adv-x="1046" 
d="M511 512l371 433l157 -99l-286 -353l148 -359l-184 -83zM67 521l393 458l156 -99l-307 -378l159 -387l-184 -82z" />
    <glyph glyph-name="logicalnot" unicode="&#xac;" 
d="M159 673h827l-86 -435h-181l53 264h-646z" />
    <glyph glyph-name="uni00AD" unicode="&#xad;" horiz-adv-x="883" 
d="M168 640h596l-38 -195h-596z" />
    <glyph glyph-name="registered" unicode="&#xae;" horiz-adv-x="963" 
d="M486 1291h144q90 0 123.5 -28t33.5 -81t-35 -87.5t-85 -45.5l64 -173h-106l-59 164h-34l-31 -164h-95zM591 1109q49 0 71.5 19t22.5 47q0 22 -13 31.5t-50 9.5h-55l-21 -107h45zM980 1109q0 -94 -29 -169.5t-82.5 -127.5t-129 -79.5t-169.5 -27.5q-78 0 -145.5 21
t-116.5 64t-78 108t-29 152q0 94 29.5 169t83 127.5t128 80t167.5 27.5q80 0 147.5 -21t117 -64t78 -108t28.5 -152zM874 1108q0 133 -72.5 193.5t-196.5 60.5q-144 0 -220 -79t-76 -232q0 -134 70.5 -194.5t194.5 -60.5q147 0 223.5 79t76.5 233z" />
    <glyph glyph-name="macron" unicode="&#xaf;" horiz-adv-x="1132" 
d="M462 1418h577l-32 -166h-577z" />
    <glyph glyph-name="degree" unicode="&#xb0;" horiz-adv-x="805" 
d="M868 1235q0 -73 -26.5 -132.5t-73.5 -101t-111 -64t-136 -22.5q-144 0 -226 74.5t-82 219.5q0 72 27 131t73 101t109.5 65t136.5 23q145 0 227 -75t82 -219zM694 1226q0 73 -36.5 115.5t-109.5 42.5q-74 0 -117 -46.5t-43 -120.5q0 -73 36 -116t109 -43t117 47.5
t44 120.5z" />
    <glyph glyph-name="plusminus" unicode="&#xb1;" 
d="M175 855h333l71 361h183l-71 -361h339l-32 -171h-339l-71 -362h-183l71 362h-335zM42 171h856l-32 -171h-857z" />
    <glyph glyph-name="twosuperior" unicode="&#xb2;" horiz-adv-x="587" 
d="M108 843l175 155q73 65 122.5 120t49.5 109q0 32 -22.5 51t-69.5 19q-32 0 -62.5 -4.5t-67.5 -15.5l-8 132q49 15 102 22.5t110 7.5q104 0 164.5 -44.5t60.5 -124.5q0 -47 -15 -88.5t-42.5 -79t-66.5 -73t-88 -73.5l-121 -100h265l-27 -143h-484z" />
    <glyph glyph-name="threesuperior" unicode="&#xb3;" horiz-adv-x="562" 
d="M109 846q32 -8 67.5 -12t67.5 -4q71 0 113.5 28t42.5 82q0 19 -7.5 34.5t-28 26t-56 15.5t-89.5 5l25 124q101 0 152 28t51 78q0 29 -23.5 43.5t-72.5 14.5q-33 0 -62.5 -5t-63.5 -14l-9 125q47 11 93.5 17.5t93.5 6.5q114 0 171.5 -41t57.5 -110q0 -41 -14 -73.5
t-35.5 -56.5t-49 -41t-56.5 -27q52 -12 81.5 -51t29.5 -94q0 -57 -25 -102.5t-69.5 -77t-104.5 -48.5t-129 -17q-50 0 -95 4t-86 13z" />
    <glyph glyph-name="acute" unicode="&#xb4;" horiz-adv-x="784" 
d="M652 1545l121 -146l-344 -251l-91 109z" />
    <glyph glyph-name="mu" unicode="&#xb5;" horiz-adv-x="1155" 
d="M238 1011h222l-124 -643q-22 -112 2.5 -158t96.5 -46q35 0 73 13.5t78.5 39t82 63t81.5 84.5l124 647h222l-195 -1011h-184l10 140q-30 -29 -66.5 -57t-77 -51t-86 -36.5t-90.5 -13.5q-55 0 -87.5 17t-55.5 46l-2 -2q-6 -60 -14.5 -113t-18.5 -107l-49 -257h-222z" />
    <glyph glyph-name="paragraph" unicode="&#xb6;" horiz-adv-x="1151" 
d="M507 444q-175 2 -256 70.5t-81 223.5q0 46 6.5 98t18.5 113q25 128 71.5 219.5t117 147.5t168.5 81.5t228 25.5h502l-24 -119h-148l-318 -1635h-145l318 1635h-147l-318 -1635h-143z" />
    <glyph glyph-name="periodcentered" unicode="&#xb7;" horiz-adv-x="486" 
d="M389 590q0 -13 -1.5 -27.5t-4.5 -32.5q-7 -37 -18 -62t-28.5 -40t-45 -21.5t-68.5 -6.5q-64 0 -91 16t-27 58q0 14 1.5 29t4.5 33q7 37 18 61.5t29 39.5t46 21.5t68 6.5q63 0 90 -16t27 -59z" />
    <glyph glyph-name="cedilla" unicode="&#xb8;" horiz-adv-x="596" 
d="M106 0h137l-31 -98q46 -3 77 -15.5t50 -31t26.5 -42t7.5 -48.5q0 -58 -23.5 -99t-63.5 -67t-93 -38t-115 -12q-40 0 -75 3.5t-67 13.5l30 108q29 -6 55.5 -9t54.5 -3q57 0 93 19t36 65q0 29 -22 43.5t-78 14.5h-59z" />
    <glyph glyph-name="onesuperior" unicode="&#xb9;" horiz-adv-x="456" 
d="M316 1235l-126 -60l-46 107l237 144h141l-137 -713h-168z" />
    <glyph glyph-name="ordmasculine" unicode="&#xba;" horiz-adv-x="797" 
d="M840 1206q0 -31 -3 -62.5t-11 -71.5q-21 -106 -56.5 -179.5t-85 -119.5t-113 -67t-139.5 -21q-122 0 -192 56.5t-70 186.5q0 30 3.5 62t11.5 72q20 105 55.5 179t85 120t113.5 67t140 21q122 0 191 -55.5t70 -187.5zM672 1190q0 70 -28.5 98t-86.5 28q-38 0 -69 -12.5
t-56.5 -42t-45 -78.5t-33.5 -120q-7 -32 -11 -64t-4 -55q0 -70 28.5 -98.5t86.5 -28.5q37 0 68.5 13t57 42.5t45 78t34.5 120.5q6 32 10 64t4 55zM133 579h562l-26 -142h-562z" />
    <glyph glyph-name="guillemotright" unicode="&#xbb;" horiz-adv-x="1046" 
d="M737 510l-158 386l184 83l217 -489l-393 -457l-157 99zM294 519l-148 358l183 83l207 -461l-372 -434l-156 99z" />
    <glyph glyph-name="onequarter" unicode="&#xbc;" horiz-adv-x="1341" 
d="M1217 1472l116 -93l-1203 -1425l-117 92zM317 1235l-126 -60l-46 107l237 144h141l-137 -713h-168zM991 133h-319l30 151l320 429h247l-85 -437h82l-27 -143h-82l-26 -133h-164zM1019 276l59 300l-227 -300h168z" />
    <glyph glyph-name="onehalf" unicode="&#xbd;" horiz-adv-x="1423" 
d="M1217 1472l116 -93l-1203 -1425l-117 92zM317 1235l-126 -60l-46 107l237 144h141l-137 -713h-168zM805 130l175 155q73 65 122.5 120t49.5 109q0 32 -22.5 51t-69.5 19q-32 0 -62.5 -4.5t-67.5 -15.5l-8 132q49 15 102 22.5t110 7.5q104 0 164.5 -44.5t60.5 -124.5
q0 -47 -15 -88.5t-42.5 -79t-66.5 -73t-88 -73.5l-121 -100h265l-27 -143h-484z" />
    <glyph glyph-name="threequarters" unicode="&#xbe;" horiz-adv-x="1440" 
d="M1317 1472l116 -93l-1203 -1425l-117 92zM1092 133h-319l30 151l320 429h247l-85 -437h82l-27 -143h-82l-26 -133h-164zM1120 276l59 300l-227 -300h168zM142 846q32 -8 67.5 -12t67.5 -4q71 0 113.5 28t42.5 82q0 19 -7.5 34.5t-28 26t-56 15.5t-89.5 5l25 124
q101 0 152 28t51 78q0 29 -23.5 43.5t-72.5 14.5q-33 0 -62.5 -5t-63.5 -14l-9 125q47 11 93.5 17.5t93.5 6.5q114 0 171.5 -41t57.5 -110q0 -41 -14 -73.5t-35.5 -56.5t-49 -41t-56.5 -27q52 -12 81.5 -51t29.5 -94q0 -57 -25 -102.5t-69.5 -77t-104.5 -48.5t-129 -17
q-50 0 -95 4t-86 13z" />
    <glyph glyph-name="questiondown" unicode="&#xbf;" horiz-adv-x="671" 
d="M525 690l-27 -150q-11 -65 -25.5 -112.5t-38.5 -88.5t-59.5 -81t-86.5 -90q-50 -48 -90 -88.5t-68 -77t-43 -74t-15 -77.5q0 -27 8.5 -50.5t29.5 -40.5t55 -27t85 -10q57 0 114 6.5t122 21.5l13 -166q-73 -18 -151.5 -27.5t-161.5 -9.5q-88 0 -153 18.5t-108.5 52
t-64.5 82t-21 107.5q0 73 17 130t50.5 107t82.5 98.5t111 107.5q48 41 82.5 76t61 70t43.5 75t29 92l24 126h185zM624 1041q0 -14 -1.5 -29t-4.5 -32q-7 -34 -17.5 -58t-27.5 -38t-44 -20.5t-65 -6.5q-58 0 -84 15t-26 52q0 15 1.5 30t4.5 32q7 34 17.5 57.5t28 38t44 21
t64.5 6.5q58 0 84 -15.5t26 -52.5z" />
    <glyph glyph-name="Agrave" unicode="&#xc0;" horiz-adv-x="1240" 
d="M631 1423h331l154 -1423h-231l-40 374h-505l-183 -374h-228zM839 551l-38 366q-5 50 -9.5 93.5t-9.5 87.5t-9 87.5t-7 90.5h-2q-23 -48 -43.5 -91.5t-41.5 -87.5t-43 -88.5t-47 -95.5l-176 -362h426zM654 1872l374 -199l-70 -130l-396 164z" />
    <glyph glyph-name="Aacute" unicode="&#xc1;" horiz-adv-x="1240" 
d="M631 1423h331l154 -1423h-231l-40 374h-505l-183 -374h-228zM839 551l-38 366q-5 50 -9.5 93.5t-9.5 87.5t-9 87.5t-7 90.5h-2q-23 -48 -43.5 -91.5t-41.5 -87.5t-43 -88.5t-47 -95.5l-176 -362h426zM1073 1861l63 -167l-423 -147l-55 131z" />
    <glyph glyph-name="Acircumflex" unicode="&#xc2;" horiz-adv-x="1240" 
d="M631 1423h331l154 -1423h-231l-40 374h-505l-183 -374h-228zM839 551l-38 366q-5 50 -9.5 93.5t-9.5 87.5t-9 87.5t-7 90.5h-2q-23 -48 -43.5 -91.5t-41.5 -87.5t-43 -88.5t-47 -95.5l-176 -362h426zM875 1860l281 -178l-84 -131l-232 123l-276 -123l-49 131z" />
    <glyph glyph-name="Atilde" unicode="&#xc3;" horiz-adv-x="1240" 
d="M631 1423h331l154 -1423h-231l-40 374h-505l-183 -374h-228zM839 551l-38 366q-5 50 -9.5 93.5t-9.5 87.5t-9 87.5t-7 90.5h-2q-23 -48 -43.5 -91.5t-41.5 -87.5t-43 -88.5t-47 -95.5l-176 -362h426zM477 1675q48 56 111.5 95t149.5 39q43 0 74.5 -11.5t58.5 -24.5
t52.5 -24.5t55.5 -11.5q40 0 76.5 18.5t69.5 51.5l83 -95q-47 -56 -110.5 -95t-148.5 -39q-44 0 -75.5 11.5t-58.5 24.5t-52 24.5t-56 11.5q-40 0 -77 -18.5t-69 -51.5z" />
    <glyph glyph-name="Adieresis" unicode="&#xc4;" horiz-adv-x="1240" 
d="M631 1423h331l154 -1423h-231l-40 374h-505l-183 -374h-228zM839 551l-38 366q-5 50 -9.5 93.5t-9.5 87.5t-9 87.5t-7 90.5h-2q-23 -48 -43.5 -91.5t-41.5 -87.5t-43 -88.5t-47 -95.5l-176 -362h426zM734 1751q0 -13 -1.5 -27.5t-4.5 -31.5q-8 -35 -18.5 -57.5t-28 -35.5
t-41.5 -17t-59 -4q-52 0 -78 14t-26 51q0 13 1.5 27.5t4.5 31.5q6 36 17 57.5t28.5 35t42 18t59.5 4.5q51 0 77.5 -14t26.5 -52zM1226 1751q0 -13 -1.5 -27.5t-4.5 -31.5q-8 -35 -18.5 -57.5t-28 -35.5t-41.5 -17t-59 -4q-52 0 -78 14t-26 51q0 13 1.5 27.5t4.5 31.5
q6 36 17 57.5t28.5 35t42 18t58.5 4.5q52 0 78.5 -14t26.5 -52z" />
    <glyph glyph-name="Aring" unicode="&#xc5;" horiz-adv-x="1240" 
d="M631 1423h331l154 -1423h-231l-40 374h-505l-183 -374h-228zM839 551l-38 366q-5 50 -9.5 93.5t-9.5 87.5t-9 87.5t-7 90.5h-2q-23 -48 -43.5 -91.5t-41.5 -87.5t-43 -88.5t-47 -95.5l-176 -362h426zM1090 1728q0 -51 -18 -93t-51 -73t-79.5 -48t-102.5 -17
q-48 0 -89.5 14.5t-72 40.5t-48 63.5t-17.5 86.5t18 92t51 74t78.5 48t100.5 17q99 0 164.5 -54t65.5 -151zM957 1722q0 47 -26 71t-76 24q-49 0 -79.5 -28.5t-30.5 -80.5q0 -47 26.5 -71t72.5 -24q52 0 82.5 28.5t30.5 80.5z" />
    <glyph glyph-name="AE" unicode="&#xc6;" horiz-adv-x="1735" 
d="M890 1423h926l-35 -180h-552l-84 -423h513l-34 -177h-512l-90 -462h552l-34 -181h-779l74 374h-476l-272 -374h-249zM868 551l139 714h-5l-524 -714h390z" />
    <glyph glyph-name="Ccedilla" unicode="&#xc7;" horiz-adv-x="1028" 
d="M897 23q-70 -18 -149 -30.5t-162 -14.5h-20l-23 -75q93 -7 134 -44.5t41 -93.5q0 -59 -24 -100t-66 -67t-97 -38.5t-117 -12.5q-41 0 -78 3.5t-70 13.5l31 109q28 -6 57 -9t57 -3q62 0 100 19t38 66q0 29 -23 42.5t-85 13.5h-64l57 185q-74 11 -132 39t-98.5 78
t-62 124.5t-21.5 177.5q0 33 1.5 67.5t6 72t10 79t16.5 88.5q41 211 105 351.5t151 226t197.5 121t245.5 35.5q75 0 147.5 -11.5t132.5 -29.5l-53 -172q-57 16 -109.5 24t-115.5 8q-92 0 -166.5 -27t-133 -92.5t-102 -172.5t-73.5 -267q-15 -81 -23 -147.5t-8 -129.5
q0 -78 16.5 -131t50.5 -84.5t83.5 -44.5t116.5 -13q65 0 134.5 11.5t139.5 29.5z" />
    <glyph glyph-name="Egrave" unicode="&#xc8;" horiz-adv-x="1040" 
d="M342 1423h779l-37 -180h-552l-83 -423h513l-34 -177h-512l-90 -462h552l-34 -181h-778zM580 1872l374 -199l-70 -130l-396 164z" />
    <glyph glyph-name="Eacute" unicode="&#xc9;" horiz-adv-x="1040" 
d="M342 1423h779l-37 -180h-552l-83 -423h513l-34 -177h-512l-90 -462h552l-34 -181h-778zM1030 1861l63 -167l-423 -147l-55 131z" />
    <glyph glyph-name="Ecircumflex" unicode="&#xca;" horiz-adv-x="1040" 
d="M342 1423h779l-37 -180h-552l-83 -423h513l-34 -177h-512l-90 -462h552l-34 -181h-778zM819 1860l281 -178l-84 -131l-232 123l-276 -123l-49 131z" />
    <glyph glyph-name="Edieresis" unicode="&#xcb;" horiz-adv-x="1040" 
d="M342 1423h779l-37 -180h-552l-83 -423h513l-34 -177h-512l-90 -462h552l-34 -181h-778zM664 1751q0 -13 -1.5 -27.5t-4.5 -31.5q-8 -35 -18.5 -57.5t-28 -35.5t-41.5 -17t-59 -4q-52 0 -78 14t-26 51q0 13 1.5 27.5t4.5 31.5q6 36 17 57.5t28.5 35t42 18t59.5 4.5
q51 0 77.5 -14t26.5 -52zM1156 1751q0 -13 -1.5 -27.5t-4.5 -31.5q-8 -35 -18.5 -57.5t-28 -35.5t-41.5 -17t-59 -4q-52 0 -78 14t-26 51q0 13 1.5 27.5t4.5 31.5q6 36 17 57.5t28.5 35t42 18t58.5 4.5q52 0 78.5 -14t26.5 -52z" />
    <glyph glyph-name="Igrave" unicode="&#xcc;" horiz-adv-x="552" 
d="M342 1423h225l-276 -1423h-225zM336 1872l374 -199l-70 -130l-396 164z" />
    <glyph glyph-name="Iacute" unicode="&#xcd;" horiz-adv-x="552" 
d="M342 1423h225l-276 -1423h-225zM712 1861l63 -167l-423 -147l-55 131z" />
    <glyph glyph-name="Icircumflex" unicode="&#xce;" horiz-adv-x="552" 
d="M342 1423h225l-276 -1423h-225zM540 1860l281 -178l-84 -131l-232 123l-276 -123l-49 131z" />
    <glyph glyph-name="Idieresis" unicode="&#xcf;" horiz-adv-x="552" 
d="M342 1423h225l-276 -1423h-225zM842 1751q0 -13 -1.5 -27.5t-4.5 -31.5q-6 -35 -16.5 -57.5t-28 -35.5t-42 -17t-59.5 -4q-51 0 -77.5 14t-26.5 51q0 13 1.5 27.5t5.5 31.5q5 36 16 57.5t29 35t42 18t59 4.5q51 0 77 -14t26 -52zM433 1751q0 -13 -1.5 -27.5t-4.5 -31.5
q-7 -35 -17.5 -57.5t-28 -35.5t-41.5 -17t-60 -4q-51 0 -77 14t-26 51q0 13 1.5 27.5t4.5 31.5q6 36 17 57.5t28.5 35t42 18t59.5 4.5q51 0 77 -14t26 -52z" />
    <glyph glyph-name="Eth" unicode="&#xd0;" horiz-adv-x="1330" 
d="M224 660h-166l33 172h165l116 591h420q124 0 218.5 -19.5t158 -67.5t94.5 -128t31 -201q0 -64 -8 -133t-24 -158q-40 -205 -108 -342.5t-164.5 -220.5t-221 -118t-277.5 -35h-396zM514 181q95 0 178 24t149 85t115.5 165.5t79.5 266.5q13 74 22 136t9 120
q0 79 -18.5 130.5t-56.5 81t-95 41.5t-136 12h-200l-79 -411h306l-32 -172h-307l-94 -479h159z" />
    <glyph glyph-name="Ntilde" unicode="&#xd1;" horiz-adv-x="1396" 
d="M342 1423h284l261 -796q16 -49 29 -94.5t27 -91t27 -93t26 -101.5l2 1q11 104 23.5 197.5t30.5 181.5l156 796h203l-276 -1423h-287l-262 796q-16 48 -29.5 94t-26 92.5t-25 94t-23.5 100.5l-5 -1q-12 -103 -24.5 -196.5t-29.5 -183.5l-154 -796h-203zM547 1675
q48 56 111.5 95t149.5 39q43 0 74.5 -11.5t58.5 -24.5t52.5 -24.5t55.5 -11.5q40 0 76.5 18.5t69.5 51.5l83 -95q-47 -56 -110.5 -95t-148.5 -39q-44 0 -75.5 11.5t-58.5 24.5t-52 24.5t-56 11.5q-40 0 -77 -18.5t-69 -51.5z" />
    <glyph glyph-name="Ograve" unicode="&#xd2;" horiz-adv-x="1341" 
d="M1298 1009q0 -69 -8.5 -139.5t-25.5 -157.5q-40 -205 -102 -346t-149 -229t-199 -127t-249 -39q-107 0 -190.5 24.5t-140 78t-85.5 137.5t-29 203q0 69 8 140t25 158q39 204 102 345t150 229t198 127t248 39q108 0 191 -24.5t139.5 -77.5t86.5 -137.5t30 -203.5z
M1069 997q0 71 -14.5 123t-45 86t-76 49.5t-107.5 15.5q-83 0 -150.5 -29.5t-122.5 -97t-98 -175.5t-74 -263q-8 -36 -13.5 -73.5t-10 -72.5t-7 -69t-2.5 -64q0 -73 14.5 -124.5t45 -85t76 -49.5t108.5 -16q80 0 148 30t123.5 97t98 174.5t73.5 264.5q7 36 13.5 73t11 72.5
t7 69t2.5 64.5zM682 1872l374 -199l-70 -130l-396 164z" />
    <glyph glyph-name="Oacute" unicode="&#xd3;" horiz-adv-x="1341" 
d="M1298 1009q0 -69 -8.5 -139.5t-25.5 -157.5q-40 -205 -102 -346t-149 -229t-199 -127t-249 -39q-107 0 -190.5 24.5t-140 78t-85.5 137.5t-29 203q0 69 8 140t25 158q39 204 102 345t150 229t198 127t248 39q108 0 191 -24.5t139.5 -77.5t86.5 -137.5t30 -203.5z
M1069 997q0 71 -14.5 123t-45 86t-76 49.5t-107.5 15.5q-83 0 -150.5 -29.5t-122.5 -97t-98 -175.5t-74 -263q-8 -36 -13.5 -73.5t-10 -72.5t-7 -69t-2.5 -64q0 -73 14.5 -124.5t45 -85t76 -49.5t108.5 -16q80 0 148 30t123.5 97t98 174.5t73.5 264.5q7 36 13.5 73t11 72.5
t7 69t2.5 64.5zM1157 1861l63 -167l-423 -147l-55 131z" />
    <glyph glyph-name="Ocircumflex" unicode="&#xd4;" horiz-adv-x="1341" 
d="M1298 1009q0 -69 -8.5 -139.5t-25.5 -157.5q-40 -205 -102 -346t-149 -229t-199 -127t-249 -39q-107 0 -190.5 24.5t-140 78t-85.5 137.5t-29 203q0 69 8 140t25 158q39 204 102 345t150 229t198 127t248 39q108 0 191 -24.5t139.5 -77.5t86.5 -137.5t30 -203.5z
M1069 997q0 71 -14.5 123t-45 86t-76 49.5t-107.5 15.5q-83 0 -150.5 -29.5t-122.5 -97t-98 -175.5t-74 -263q-8 -36 -13.5 -73.5t-10 -72.5t-7 -69t-2.5 -64q0 -73 14.5 -124.5t45 -85t76 -49.5t108.5 -16q80 0 148 30t123.5 97t98 174.5t73.5 264.5q7 36 13.5 73t11 72.5
t7 69t2.5 64.5zM929 1860l281 -178l-84 -131l-232 123l-276 -123l-49 131z" />
    <glyph glyph-name="Otilde" unicode="&#xd5;" horiz-adv-x="1341" 
d="M1298 1009q0 -69 -8.5 -139.5t-25.5 -157.5q-40 -205 -102 -346t-149 -229t-199 -127t-249 -39q-107 0 -190.5 24.5t-140 78t-85.5 137.5t-29 203q0 69 8 140t25 158q39 204 102 345t150 229t198 127t248 39q108 0 191 -24.5t139.5 -77.5t86.5 -137.5t30 -203.5z
M1069 997q0 71 -14.5 123t-45 86t-76 49.5t-107.5 15.5q-83 0 -150.5 -29.5t-122.5 -97t-98 -175.5t-74 -263q-8 -36 -13.5 -73.5t-10 -72.5t-7 -69t-2.5 -64q0 -73 14.5 -124.5t45 -85t76 -49.5t108.5 -16q80 0 148 30t123.5 97t98 174.5t73.5 264.5q7 36 13.5 73t11 72.5
t7 69t2.5 64.5zM520 1675q48 56 111.5 95t149.5 39q43 0 74.5 -11.5t58.5 -24.5t52.5 -24.5t55.5 -11.5q40 0 76.5 18.5t69.5 51.5l83 -95q-47 -56 -110.5 -95t-148.5 -39q-44 0 -75.5 11.5t-58.5 24.5t-52 24.5t-56 11.5q-40 0 -77 -18.5t-69 -51.5z" />
    <glyph glyph-name="Odieresis" unicode="&#xd6;" horiz-adv-x="1341" 
d="M1298 1009q0 -69 -8.5 -139.5t-25.5 -157.5q-40 -205 -102 -346t-149 -229t-199 -127t-249 -39q-107 0 -190.5 24.5t-140 78t-85.5 137.5t-29 203q0 69 8 140t25 158q39 204 102 345t150 229t198 127t248 39q108 0 191 -24.5t139.5 -77.5t86.5 -137.5t30 -203.5z
M1069 997q0 71 -14.5 123t-45 86t-76 49.5t-107.5 15.5q-83 0 -150.5 -29.5t-122.5 -97t-98 -175.5t-74 -263q-8 -36 -13.5 -73.5t-10 -72.5t-7 -69t-2.5 -64q0 -73 14.5 -124.5t45 -85t76 -49.5t108.5 -16q80 0 148 30t123.5 97t98 174.5t73.5 264.5q7 36 13.5 73t11 72.5
t7 69t2.5 64.5zM784 1751q0 -13 -1.5 -27.5t-4.5 -31.5q-8 -35 -18.5 -57.5t-28 -35.5t-41.5 -17t-59 -4q-52 0 -78 14t-26 51q0 13 1.5 27.5t4.5 31.5q6 36 17 57.5t28.5 35t42 18t59.5 4.5q51 0 77.5 -14t26.5 -52zM1276 1751q0 -13 -1.5 -27.5t-4.5 -31.5
q-8 -35 -18.5 -57.5t-28 -35.5t-41.5 -17t-59 -4q-52 0 -78 14t-26 51q0 13 1.5 27.5t4.5 31.5q6 36 17 57.5t28.5 35t42 18t58.5 4.5q52 0 78.5 -14t26.5 -52z" />
    <glyph glyph-name="multiply" unicode="&#xd7;" 
d="M448 597l-256 323l141 111l250 -318l359 306l109 -129l-363 -309l256 -325l-140 -112l-253 321l-364 -309l-108 127z" />
    <glyph glyph-name="Oslash" unicode="&#xd8;" horiz-adv-x="1366" 
d="M209 105q-34 41 -61.5 114.5t-27.5 194.5q0 69 8 140t25 158q39 204 103 345t152.5 229t201.5 127t254 39q75 0 128.5 -13t91.5 -34l147 220l149 -78l-151 -223q43 -49 68.5 -127t25.5 -188q0 -34 -2 -68.5t-6 -71t-10.5 -75.5t-14.5 -82q-40 -205 -103 -346t-151.5 -229
t-202.5 -127t-255 -39q-71 0 -126 12.5t-100 38.5l-144 -214l-147 79zM988 1240q-21 16 -55 28.5t-95 12.5q-89 0 -161 -29.5t-129 -97.5t-100 -177.5t-76 -265.5q-13 -65 -20 -117t-10 -101q-2 -29 -2 -53.5t1.5 -46t4.5 -40t6 -37.5zM451 189q25 -23 60.5 -35t93.5 -12
q88 0 160.5 29.5t130 98t100 177t75.5 266.5q13 64 20.5 116t9.5 102q3 29 2.5 53.5t-2.5 47.5t-6 42.5t-8 39.5z" />
    <glyph glyph-name="Ugrave" unicode="&#xd9;" horiz-adv-x="1312" 
d="M539 1423l-169 -868q-9 -45 -15.5 -91t-6.5 -95q0 -54 12 -93.5t40 -67.5t72.5 -42t108.5 -14q80 0 143 25.5t109.5 77.5t78.5 130t53 184l167 854h226l-167 -857q-31 -155 -81 -266.5t-126 -185t-180.5 -108.5t-244.5 -35q-223 0 -330 95t-107 284q0 47 5.5 100
t18.5 112l168 861h225zM671 1872l374 -199l-70 -130l-396 164z" />
    <glyph glyph-name="Uacute" unicode="&#xda;" horiz-adv-x="1312" 
d="M539 1423l-169 -868q-9 -45 -15.5 -91t-6.5 -95q0 -54 12 -93.5t40 -67.5t72.5 -42t108.5 -14q80 0 143 25.5t109.5 77.5t78.5 130t53 184l167 854h226l-167 -857q-31 -155 -81 -266.5t-126 -185t-180.5 -108.5t-244.5 -35q-223 0 -330 95t-107 284q0 47 5.5 100
t18.5 112l168 861h225zM1139 1861l63 -167l-423 -147l-55 131z" />
    <glyph glyph-name="Ucircumflex" unicode="&#xdb;" horiz-adv-x="1312" 
d="M539 1423l-169 -868q-9 -45 -15.5 -91t-6.5 -95q0 -54 12 -93.5t40 -67.5t72.5 -42t108.5 -14q80 0 143 25.5t109.5 77.5t78.5 130t53 184l167 854h226l-167 -857q-31 -155 -81 -266.5t-126 -185t-180.5 -108.5t-244.5 -35q-223 0 -330 95t-107 284q0 47 5.5 100
t18.5 112l168 861h225zM919 1860l281 -178l-84 -131l-232 123l-276 -123l-49 131z" />
    <glyph glyph-name="Udieresis" unicode="&#xdc;" horiz-adv-x="1312" 
d="M539 1423l-169 -868q-9 -45 -15.5 -91t-6.5 -95q0 -54 12 -93.5t40 -67.5t72.5 -42t108.5 -14q80 0 143 25.5t109.5 77.5t78.5 130t53 184l167 854h226l-167 -857q-31 -155 -81 -266.5t-126 -185t-180.5 -108.5t-244.5 -35q-223 0 -330 95t-107 284q0 47 5.5 100
t18.5 112l168 861h225zM769 1751q0 -13 -1.5 -27.5t-4.5 -31.5q-8 -35 -18.5 -57.5t-28 -35.5t-41.5 -17t-59 -4q-52 0 -78 14t-26 51q0 13 1.5 27.5t4.5 31.5q6 36 17 57.5t28.5 35t42 18t59.5 4.5q51 0 77.5 -14t26.5 -52zM1261 1751q0 -13 -1.5 -27.5t-4.5 -31.5
q-8 -35 -18.5 -57.5t-28 -35.5t-41.5 -17t-59 -4q-52 0 -78 14t-26 51q0 13 1.5 27.5t4.5 31.5q6 36 17 57.5t28.5 35t42 18t58.5 4.5q52 0 78.5 -14t26.5 -52z" />
    <glyph glyph-name="Yacute" unicode="&#xdd;" horiz-adv-x="1103" 
d="M444 543l-267 880h224l124 -385q14 -41 23 -74.5t17.5 -64t17 -62.5t17.5 -69h5q23 38 43 71.5t40.5 64.5t41.5 64t48 71l268 384h236l-615 -882l-105 -541h-223zM1022 1861l63 -167l-423 -147l-55 131z" />
    <glyph glyph-name="Thorn" unicode="&#xde;" horiz-adv-x="1091" 
d="M342 1423h225l-53 -280h144q122 0 205.5 -20t135 -57.5t74.5 -93.5t23 -126q0 -144 -47 -247t-129.5 -170t-193 -98t-239.5 -31h-138l-58 -300h-225zM515 476q68 0 132 19.5t112.5 61t78 105t29.5 150.5q0 80 -52 117.5t-185 37.5h-151l-96 -491h132z" />
    <glyph glyph-name="germandbls" unicode="&#xdf;" horiz-adv-x="1126" 
d="M-276 -271q40 -9 68 -10.5t60 -1.5q35 0 64.5 10.5t54 35t42 64t29.5 95.5l242 1244q20 102 59.5 173t97.5 116t138 65t181 20q87 0 150 -19t103 -52t59 -76.5t19 -94.5q0 -52 -12 -94.5t-35 -81t-54.5 -77t-71.5 -79.5q-27 -29 -51.5 -53.5t-42 -47.5t-28 -48t-10.5 -54
q0 -20 7.5 -38.5t23.5 -37.5t40 -42t55 -51q35 -33 62 -62.5t45.5 -59.5t27.5 -65t9 -80q0 -82 -28 -146t-80 -108.5t-130 -68.5t-176 -24q-27 0 -57.5 2t-61 6t-60.5 10t-56 14l34 164q50 -14 108 -21.5t108 -7.5q82 0 133 40.5t51 117.5q0 26 -7 46.5t-21.5 40.5t-39 43
t-57.5 54q-73 66 -113.5 117.5t-40.5 119.5q0 47 15 87t40 76.5t57 72.5t67 76q30 31 52 59.5t37 55.5t24 54t9 57q0 45 -31.5 74t-104.5 29q-93 0 -148.5 -54.5t-77.5 -168.5l-236 -1224q-22 -109 -57.5 -181t-87 -115.5t-120 -62.5t-154.5 -19q-41 0 -78 4t-79 14z" />
    <glyph glyph-name="agrave" unicode="&#xe0;" horiz-adv-x="1127" 
d="M698 138q-34 -34 -74 -62t-83.5 -50t-91 -33.5t-94.5 -11.5q-125 0 -199.5 79t-74.5 239q0 173 43.5 308.5t119 230t175.5 144t212 49.5q76 0 134 -20.5t102 -52.5l17 53h183l-195 -1011h-183zM805 794q-40 28 -80.5 44t-95.5 16q-73 0 -131.5 -44t-100 -117t-65 -167.5
t-23.5 -194.5q0 -84 31.5 -125.5t89.5 -41.5q61 0 135.5 51t153.5 144zM567 1567l245 -315l-110 -99l-279 286z" />
    <glyph glyph-name="aacute" unicode="&#xe1;" horiz-adv-x="1127" 
d="M698 138q-34 -34 -74 -62t-83.5 -50t-91 -33.5t-94.5 -11.5q-125 0 -199.5 79t-74.5 239q0 173 43.5 308.5t119 230t175.5 144t212 49.5q76 0 134 -20.5t102 -52.5l17 53h183l-195 -1011h-183zM805 794q-40 28 -80.5 44t-95.5 16q-73 0 -131.5 -44t-100 -117t-65 -167.5
t-23.5 -194.5q0 -84 31.5 -125.5t89.5 -41.5q61 0 135.5 51t153.5 144zM869 1545l121 -146l-344 -251l-91 109z" />
    <glyph glyph-name="acircumflex" unicode="&#xe2;" horiz-adv-x="1127" 
d="M698 138q-34 -34 -74 -62t-83.5 -50t-91 -33.5t-94.5 -11.5q-125 0 -199.5 79t-74.5 239q0 173 43.5 308.5t119 230t175.5 144t212 49.5q76 0 134 -20.5t102 -52.5l17 53h183l-195 -1011h-183zM805 794q-40 28 -80.5 44t-95.5 16q-73 0 -131.5 -44t-100 -117t-65 -167.5
t-23.5 -194.5q0 -84 31.5 -125.5t89.5 -41.5q61 0 135.5 51t153.5 144zM732 1542l258 -268l-108 -120l-187 176l-248 -173l-77 115z" />
    <glyph glyph-name="atilde" unicode="&#xe3;" horiz-adv-x="1127" 
d="M698 138q-34 -34 -74 -62t-83.5 -50t-91 -33.5t-94.5 -11.5q-125 0 -199.5 79t-74.5 239q0 173 43.5 308.5t119 230t175.5 144t212 49.5q76 0 134 -20.5t102 -52.5l17 53h183l-195 -1011h-183zM805 794q-40 28 -80.5 44t-95.5 16q-73 0 -131.5 -44t-100 -117t-65 -167.5
t-23.5 -194.5q0 -84 31.5 -125.5t89.5 -41.5q61 0 135.5 51t153.5 144zM350 1290q22 33 50 64.5t60.5 56.5t71.5 40t81 15q41 0 71 -16t55 -34.5t47.5 -34t49.5 -15.5q36 0 68.5 27.5t60.5 68.5l99 -80q-22 -33 -50.5 -64.5t-61.5 -57t-71 -40t-81 -14.5q-42 0 -71 15
t-53.5 34t-47 34.5t-50.5 15.5q-37 0 -69.5 -27t-61.5 -68z" />
    <glyph glyph-name="adieresis" unicode="&#xe4;" horiz-adv-x="1127" 
d="M698 138q-34 -34 -74 -62t-83.5 -50t-91 -33.5t-94.5 -11.5q-125 0 -199.5 79t-74.5 239q0 173 43.5 308.5t119 230t175.5 144t212 49.5q76 0 134 -20.5t102 -52.5l17 53h183l-195 -1011h-183zM805 794q-40 28 -80.5 44t-95.5 16q-73 0 -131.5 -44t-100 -117t-65 -167.5
t-23.5 -194.5q0 -84 31.5 -125.5t89.5 -41.5q61 0 135.5 51t153.5 144zM613 1398q0 -14 -1.5 -28.5t-4.5 -31.5q-7 -36 -18 -59t-28 -36t-42.5 -18t-61.5 -5q-53 0 -79.5 13.5t-26.5 51.5q0 13 1.5 27.5t4.5 31.5q6 37 17.5 60t28.5 36t42.5 18t61.5 5q52 0 79 -14t27 -51z
M1043 1398q0 -14 -1.5 -28.5t-4.5 -31.5q-7 -36 -18 -59t-28 -36t-42.5 -18t-61.5 -5q-53 0 -79.5 13.5t-26.5 51.5q0 13 1.5 27.5t4.5 31.5q6 37 17.5 60t29 36t42.5 18t61 5q53 0 79.5 -14t26.5 -51z" />
    <glyph glyph-name="aring" unicode="&#xe5;" horiz-adv-x="1127" 
d="M698 138q-34 -34 -74 -62t-83.5 -50t-91 -33.5t-94.5 -11.5q-125 0 -199.5 79t-74.5 239q0 173 43.5 308.5t119 230t175.5 144t212 49.5q76 0 134 -20.5t102 -52.5l17 53h183l-195 -1011h-183zM805 794q-40 28 -80.5 44t-95.5 16q-73 0 -131.5 -44t-100 -117t-65 -167.5
t-23.5 -194.5q0 -84 31.5 -125.5t89.5 -41.5q61 0 135.5 51t153.5 144zM936 1374q0 -55 -18 -99.5t-51 -76.5t-78 -49.5t-97 -17.5q-98 0 -159.5 58t-61.5 153q0 53 18.5 98.5t51 77.5t77 49.5t96.5 17.5q99 0 160.5 -58.5t61.5 -152.5zM805 1371q0 45 -23.5 71t-72.5 26
q-51 0 -78.5 -32t-27.5 -90q0 -46 23.5 -72.5t70.5 -26.5q52 0 80 33t28 91z" />
    <glyph glyph-name="ae" unicode="&#xe6;" horiz-adv-x="1496" 
d="M602 455q-112 0 -184 -13.5t-115 -38.5t-59.5 -61t-16.5 -84q-1 -58 29.5 -87.5t90.5 -29.5t119 26.5t125 90.5q-4 47 0 98t11 99zM630 600q4 19 10 38.5t10.5 39t8.5 37.5t4 34q0 20 -7 40.5t-24.5 36t-48 24.5t-77.5 9q-73 0 -140 -9.5t-140 -26.5l-10 167
q85 20 163 31t169 11q62 0 107.5 -11.5t77 -29.5t50.5 -40t27 -44q29 26 63.5 50.5t75.5 42.5t90 29t108 11q153 0 237.5 -66.5t84.5 -184.5q0 -88 -40 -154t-120 -110t-201.5 -65.5t-284.5 -21.5q-2 -12 -5 -28t-4.5 -32.5t-3 -34t-1.5 -28.5q0 -91 44.5 -126t139.5 -35
q75 0 149.5 10.5t149.5 32.5l6 -168q-72 -23 -159 -36t-182 -13q-72 0 -125 10t-91 28t-64 44t-44 56q-75 -65 -160.5 -101t-188.5 -36q-119 0 -188 65t-69 187q0 86 32.5 153.5t104 115t186.5 73t280 25.5zM852 588q210 -1 310 40.5t100 133.5q0 48 -34 76.5t-105 28.5
q-52 0 -93 -16t-75 -50t-60 -86.5t-43 -126.5z" />
    <glyph glyph-name="ccedilla" unicode="&#xe7;" horiz-adv-x="832" 
d="M706 16q-62 -16 -129.5 -26t-133.5 -10h-18l-25 -78q47 -3 78 -15.5t50 -31t26.5 -42t7.5 -48.5q0 -58 -23.5 -99t-63 -67t-93 -38t-115.5 -12q-40 0 -74.5 3.5t-67.5 13.5l30 108q29 -6 55.5 -9t54.5 -3q57 0 93 19t36 65q0 29 -22 43.5t-79 14.5h-58l59 194
q-42 10 -81 30.5t-68 56.5t-47 91t-18 135q0 21 1 42t3 44t5.5 48t9.5 56q26 144 76 245t119 164t155 92.5t183 29.5q62 0 118 -8.5t102 -22.5l-50 -165q-40 11 -77.5 16t-78.5 5q-55 0 -104 -16.5t-90.5 -57.5t-74 -108t-54.5 -170q-10 -48 -14 -89.5t-4 -77.5
q0 -102 47.5 -143t142.5 -41q47 0 97 7.5t107 22.5z" />
    <glyph glyph-name="egrave" unicode="&#xe8;" horiz-adv-x="986" 
d="M788 29q-71 -23 -159 -36t-182 -13q-90 0 -158.5 15.5t-115 54.5t-70 101.5t-23.5 158.5q0 42 4.5 91t13.5 98q25 144 74.5 247t119 168t157.5 95.5t189 30.5q152 0 236.5 -66.5t84.5 -184.5q0 -92 -40 -160t-120.5 -113.5t-203 -67.5t-285.5 -22q-4 -22 -7.5 -54
t-3.5 -57q0 -90 44.5 -125.5t138.5 -35.5q75 0 149.5 10.5t150.5 32.5zM339 575q209 -1 311 43t102 144q0 48 -34 76.5t-106 28.5q-50 0 -92.5 -16t-76 -51t-60.5 -90.5t-44 -134.5zM563 1567l245 -315l-110 -99l-279 286z" />
    <glyph glyph-name="eacute" unicode="&#xe9;" horiz-adv-x="986" 
d="M788 29q-71 -23 -159 -36t-182 -13q-90 0 -158.5 15.5t-115 54.5t-70 101.5t-23.5 158.5q0 42 4.5 91t13.5 98q25 144 74.5 247t119 168t157.5 95.5t189 30.5q152 0 236.5 -66.5t84.5 -184.5q0 -92 -40 -160t-120.5 -113.5t-203 -67.5t-285.5 -22q-4 -22 -7.5 -54
t-3.5 -57q0 -90 44.5 -125.5t138.5 -35.5q75 0 149.5 10.5t150.5 32.5zM339 575q209 -1 311 43t102 144q0 48 -34 76.5t-106 28.5q-50 0 -92.5 -16t-76 -51t-60.5 -90.5t-44 -134.5zM855 1545l121 -146l-344 -251l-91 109z" />
    <glyph glyph-name="ecircumflex" unicode="&#xea;" horiz-adv-x="986" 
d="M788 29q-71 -23 -159 -36t-182 -13q-90 0 -158.5 15.5t-115 54.5t-70 101.5t-23.5 158.5q0 42 4.5 91t13.5 98q25 144 74.5 247t119 168t157.5 95.5t189 30.5q152 0 236.5 -66.5t84.5 -184.5q0 -92 -40 -160t-120.5 -113.5t-203 -67.5t-285.5 -22q-4 -22 -7.5 -54
t-3.5 -57q0 -90 44.5 -125.5t138.5 -35.5q75 0 149.5 10.5t150.5 32.5zM339 575q209 -1 311 43t102 144q0 48 -34 76.5t-106 28.5q-50 0 -92.5 -16t-76 -51t-60.5 -90.5t-44 -134.5zM723 1542l258 -268l-108 -120l-187 176l-248 -173l-77 115z" />
    <glyph glyph-name="edieresis" unicode="&#xeb;" horiz-adv-x="986" 
d="M788 29q-71 -23 -159 -36t-182 -13q-90 0 -158.5 15.5t-115 54.5t-70 101.5t-23.5 158.5q0 42 4.5 91t13.5 98q25 144 74.5 247t119 168t157.5 95.5t189 30.5q152 0 236.5 -66.5t84.5 -184.5q0 -92 -40 -160t-120.5 -113.5t-203 -67.5t-285.5 -22q-4 -22 -7.5 -54
t-3.5 -57q0 -90 44.5 -125.5t138.5 -35.5q75 0 149.5 10.5t150.5 32.5zM339 575q209 -1 311 43t102 144q0 48 -34 76.5t-106 28.5q-50 0 -92.5 -16t-76 -51t-60.5 -90.5t-44 -134.5zM598 1398q0 -14 -1.5 -28.5t-4.5 -31.5q-7 -36 -18 -59t-28 -36t-42.5 -18t-61.5 -5
q-53 0 -79.5 13.5t-26.5 51.5q0 13 1.5 27.5t4.5 31.5q6 37 17.5 60t28.5 36t42.5 18t61.5 5q52 0 79 -14t27 -51zM1028 1398q0 -14 -1.5 -28.5t-4.5 -31.5q-7 -36 -18 -59t-28 -36t-42.5 -18t-61.5 -5q-53 0 -79.5 13.5t-26.5 51.5q0 13 1.5 27.5t4.5 31.5q6 37 17.5 60
t29 36t42.5 18t61 5q53 0 79.5 -14t26.5 -51z" />
    <glyph glyph-name="igrave" unicode="&#xec;" horiz-adv-x="535" 
d="M254 1011h222l-196 -1011h-221zM335 1567l245 -315l-110 -99l-279 286z" />
    <glyph glyph-name="iacute" unicode="&#xed;" horiz-adv-x="535" 
d="M254 1011h222l-196 -1011h-221zM549 1545l121 -146l-344 -251l-91 109z" />
    <glyph glyph-name="icircumflex" unicode="&#xee;" horiz-adv-x="535" 
d="M254 1011h222l-196 -1011h-221zM467 1542l258 -268l-108 -120l-187 176l-248 -173l-77 115z" />
    <glyph glyph-name="idieresis" unicode="&#xef;" horiz-adv-x="535" 
d="M254 1011h222l-196 -1011h-221zM378 1398q0 -14 -1.5 -28.5t-4.5 -31.5q-7 -36 -17.5 -59t-28 -35.5t-42 -17.5t-60.5 -5q-53 0 -79.5 13.5t-26.5 50.5q0 13 1.5 27.5t4.5 31.5q6 37 17 59.5t28.5 35.5t42 18t60.5 5q53 0 79.5 -14t26.5 -50zM751 1398q0 -14 -1.5 -28.5
t-4.5 -31.5q-7 -36 -17.5 -59t-28 -35.5t-42 -17.5t-60.5 -5q-53 0 -79.5 13.5t-26.5 50.5q0 13 1.5 27.5t4.5 31.5q6 37 17 59.5t28.5 35.5t42 18t60.5 5q53 0 79.5 -14t26.5 -50z" />
    <glyph glyph-name="eth" unicode="&#xf0;" horiz-adv-x="1077" 
d="M656 1346q-14 25 -35.5 60t-41.5 63l187 90q26 -34 46 -64.5t37 -58.5l204 100l69 -139l-209 -103q49 -120 74.5 -247t25.5 -251q0 -236 -50 -393.5t-129.5 -253.5t-180 -136.5t-204.5 -40.5q-178 0 -274 87t-96 261q0 170 43 298.5t115 214t164.5 128.5t193.5 43
q57 0 106 -15t81 -39l2 2q-9 65 -24.5 124.5t-45.5 127.5l-196 -98l-68 139zM473 147q63 0 121 37t102.5 110t71 180.5t26.5 247.5v21.5t-1 20.5q-36 33 -82 50.5t-101 17.5q-66 0 -122.5 -36t-97.5 -102t-64 -157t-23 -200q0 -101 41.5 -145.5t128.5 -44.5z" />
    <glyph glyph-name="ntilde" unicode="&#xf1;" horiz-adv-x="1161" 
d="M254 1011h183l-9 -140q35 33 77.5 62t91 51t101.5 34.5t108 12.5q130 0 191.5 -62.5t61.5 -182.5q0 -27 -4 -57t-10 -63l-128 -666h-221l124 644q5 25 7.5 49t2.5 44q0 57 -26.5 83.5t-84.5 26.5q-69 0 -151.5 -51.5t-161.5 -148.5l-126 -647h-221zM384 1290
q22 33 50 64.5t60.5 56.5t71.5 40t81 15q41 0 71 -16t55 -34.5t47.5 -34t49.5 -15.5q36 0 68.5 27.5t60.5 68.5l99 -80q-22 -33 -50.5 -64.5t-61.5 -57t-71 -40t-81 -14.5q-42 0 -71 15t-53.5 34t-47 34.5t-50.5 15.5q-37 0 -69.5 -27t-61.5 -68z" />
    <glyph glyph-name="ograve" unicode="&#xf2;" horiz-adv-x="1091" 
d="M1011 694q0 -39 -4.5 -84t-14.5 -102q-27 -146 -76 -247.5t-117.5 -166t-157 -94t-194.5 -29.5q-85 0 -154 18.5t-116 59.5t-72 107t-25 161q0 39 4.5 84t14.5 103q27 145 75.5 247t117.5 166t157.5 93.5t194.5 29.5q86 0 154 -18.5t115.5 -59.5t72.5 -107t25 -161z
M787 679q0 104 -43.5 145t-125.5 41q-52 0 -97.5 -17t-82 -58.5t-65.5 -110t-50 -174.5q-5 -23 -8.5 -47t-5.5 -46t-3.5 -42.5t-1.5 -36.5q0 -105 43.5 -146t125.5 -41q52 0 97.5 16.5t82 58t65.5 110.5t50 176q4 22 8.5 46t6.5 46.5t3 42.5t1 37zM578 1567l245 -315
l-110 -99l-279 286z" />
    <glyph glyph-name="oacute" unicode="&#xf3;" horiz-adv-x="1091" 
d="M1011 694q0 -39 -4.5 -84t-14.5 -102q-27 -146 -76 -247.5t-117.5 -166t-157 -94t-194.5 -29.5q-85 0 -154 18.5t-116 59.5t-72 107t-25 161q0 39 4.5 84t14.5 103q27 145 75.5 247t117.5 166t157.5 93.5t194.5 29.5q86 0 154 -18.5t115.5 -59.5t72.5 -107t25 -161z
M787 679q0 104 -43.5 145t-125.5 41q-52 0 -97.5 -17t-82 -58.5t-65.5 -110t-50 -174.5q-5 -23 -8.5 -47t-5.5 -46t-3.5 -42.5t-1.5 -36.5q0 -105 43.5 -146t125.5 -41q52 0 97.5 16.5t82 58t65.5 110.5t50 176q4 22 8.5 46t6.5 46.5t3 42.5t1 37zM871 1545l121 -146
l-344 -251l-91 109z" />
    <glyph glyph-name="ocircumflex" unicode="&#xf4;" horiz-adv-x="1091" 
d="M1011 694q0 -39 -4.5 -84t-14.5 -102q-27 -146 -76 -247.5t-117.5 -166t-157 -94t-194.5 -29.5q-85 0 -154 18.5t-116 59.5t-72 107t-25 161q0 39 4.5 84t14.5 103q27 145 75.5 247t117.5 166t157.5 93.5t194.5 29.5q86 0 154 -18.5t115.5 -59.5t72.5 -107t25 -161z
M787 679q0 104 -43.5 145t-125.5 41q-52 0 -97.5 -17t-82 -58.5t-65.5 -110t-50 -174.5q-5 -23 -8.5 -47t-5.5 -46t-3.5 -42.5t-1.5 -36.5q0 -105 43.5 -146t125.5 -41q52 0 97.5 16.5t82 58t65.5 110.5t50 176q4 22 8.5 46t6.5 46.5t3 42.5t1 37zM743 1542l258 -268
l-108 -120l-187 176l-248 -173l-77 115z" />
    <glyph glyph-name="otilde" unicode="&#xf5;" horiz-adv-x="1091" 
d="M1011 694q0 -39 -4.5 -84t-14.5 -102q-27 -146 -76 -247.5t-117.5 -166t-157 -94t-194.5 -29.5q-85 0 -154 18.5t-116 59.5t-72 107t-25 161q0 39 4.5 84t14.5 103q27 145 75.5 247t117.5 166t157.5 93.5t194.5 29.5q86 0 154 -18.5t115.5 -59.5t72.5 -107t25 -161z
M787 679q0 104 -43.5 145t-125.5 41q-52 0 -97.5 -17t-82 -58.5t-65.5 -110t-50 -174.5q-5 -23 -8.5 -47t-5.5 -46t-3.5 -42.5t-1.5 -36.5q0 -105 43.5 -146t125.5 -41q52 0 97.5 16.5t82 58t65.5 110.5t50 176q4 22 8.5 46t6.5 46.5t3 42.5t1 37zM339 1290q22 33 50 64.5
t60.5 56.5t71.5 40t81 15q41 0 71 -16t55 -34.5t47.5 -34t49.5 -15.5q36 0 68.5 27.5t60.5 68.5l99 -80q-22 -33 -50.5 -64.5t-61.5 -57t-71 -40t-81 -14.5q-42 0 -71 15t-53.5 34t-47 34.5t-50.5 15.5q-37 0 -69.5 -27t-61.5 -68z" />
    <glyph glyph-name="odieresis" unicode="&#xf6;" horiz-adv-x="1091" 
d="M1011 694q0 -39 -4.5 -84t-14.5 -102q-27 -146 -76 -247.5t-117.5 -166t-157 -94t-194.5 -29.5q-85 0 -154 18.5t-116 59.5t-72 107t-25 161q0 39 4.5 84t14.5 103q27 145 75.5 247t117.5 166t157.5 93.5t194.5 29.5q86 0 154 -18.5t115.5 -59.5t72.5 -107t25 -161z
M787 679q0 104 -43.5 145t-125.5 41q-52 0 -97.5 -17t-82 -58.5t-65.5 -110t-50 -174.5q-5 -23 -8.5 -47t-5.5 -46t-3.5 -42.5t-1.5 -36.5q0 -105 43.5 -146t125.5 -41q52 0 97.5 16.5t82 58t65.5 110.5t50 176q4 22 8.5 46t6.5 46.5t3 42.5t1 37zM625 1398
q0 -14 -1.5 -28.5t-4.5 -31.5q-7 -36 -18 -59t-28 -36t-42.5 -18t-61.5 -5q-53 0 -79.5 13.5t-26.5 51.5q0 13 1.5 27.5t4.5 31.5q6 37 17.5 60t28.5 36t42.5 18t61.5 5q52 0 79 -14t27 -51zM1055 1398q0 -14 -1.5 -28.5t-4.5 -31.5q-7 -36 -18 -59t-28 -36t-42.5 -18
t-61.5 -5q-53 0 -79.5 13.5t-26.5 51.5q0 13 1.5 27.5t4.5 31.5q6 37 17.5 60t29 36t42.5 18t61 5q53 0 79.5 -14t26.5 -51z" />
    <glyph glyph-name="divide" unicode="&#xf7;" 
d="M127 673h896l-33 -171h-895zM628 311q0 -26 -6 -60q-7 -37 -18 -60t-28.5 -36.5t-43.5 -18.5t-62 -5q-54 0 -82 15t-28 56q0 13 1.5 27.5t4.5 31.5q7 38 18.5 61.5t29.5 36.5t43.5 18t61.5 5q55 0 82 -16t27 -55zM759 973q0 -26 -7 -59q-6 -37 -17 -60t-29.5 -36.5
t-44 -18.5t-61.5 -5q-55 0 -82 15t-27 56q0 13 1.5 27.5t4.5 31.5q7 37 17.5 60.5t29 37t44 18.5t61.5 5q56 0 83 -16t27 -56z" />
    <glyph glyph-name="oslash" unicode="&#xf8;" horiz-adv-x="1114" 
d="M161 67q-31 33 -56 89t-25 159q0 39 4.5 85t14.5 104q27 145 76 247t119 166t161 93.5t201 29.5q52 0 92.5 -8.5t66.5 -20.5l119 172l135 -73l-115 -164q37 -41 59 -101t22 -149q0 -39 -4.5 -85t-14.5 -103q-27 -146 -76.5 -247.5t-119.5 -166t-161 -94t-200 -29.5
q-45 0 -85.5 6.5t-73.5 23.5l-127 -184l-135 75zM393 151q19 -14 41.5 -19.5t54.5 -5.5q61 0 112.5 17.5t93 60.5t73.5 117t53 186q8 41 11.5 75.5t6.5 63.5q2 32 0 60t-10 58zM723 860q-17 12 -37.5 18.5t-58.5 6.5q-62 0 -113.5 -18.5t-92.5 -61.5t-73 -116t-54 -184
q-9 -42 -12.5 -76.5t-4.5 -63.5q-3 -31 -1.5 -60.5t9.5 -56.5z" />
    <glyph glyph-name="ugrave" unicode="&#xf9;" horiz-adv-x="1162" 
d="M466 1011l-124 -643q-5 -26 -8 -49.5t-3 -44.5q0 -57 26.5 -83.5t83.5 -26.5q70 0 152.5 52t162.5 148l124 647h223l-196 -1011h-183l9 140q-35 -33 -77.5 -62t-91 -51t-102 -34t-108.5 -12q-129 0 -190.5 62t-61.5 182q0 27 3.5 57t10.5 63l128 666h222zM623 1567
l245 -315l-110 -99l-279 286z" />
    <glyph glyph-name="uacute" unicode="&#xfa;" horiz-adv-x="1162" 
d="M466 1011l-124 -643q-5 -26 -8 -49.5t-3 -44.5q0 -57 26.5 -83.5t83.5 -26.5q70 0 152.5 52t162.5 148l124 647h223l-196 -1011h-183l9 140q-35 -33 -77.5 -62t-91 -51t-102 -34t-108.5 -12q-129 0 -190.5 62t-61.5 182q0 27 3.5 57t10.5 63l128 666h222zM917 1545
l121 -146l-344 -251l-91 109z" />
    <glyph glyph-name="ucircumflex" unicode="&#xfb;" horiz-adv-x="1162" 
d="M466 1011l-124 -643q-5 -26 -8 -49.5t-3 -44.5q0 -57 26.5 -83.5t83.5 -26.5q70 0 152.5 52t162.5 148l124 647h223l-196 -1011h-183l9 140q-35 -33 -77.5 -62t-91 -51t-102 -34t-108.5 -12q-129 0 -190.5 62t-61.5 182q0 27 3.5 57t10.5 63l128 666h222zM776 1542
l258 -268l-108 -120l-187 176l-248 -173l-77 115z" />
    <glyph glyph-name="udieresis" unicode="&#xfc;" horiz-adv-x="1162" 
d="M466 1011l-124 -643q-5 -26 -8 -49.5t-3 -44.5q0 -57 26.5 -83.5t83.5 -26.5q70 0 152.5 52t162.5 148l124 647h223l-196 -1011h-183l9 140q-35 -33 -77.5 -62t-91 -51t-102 -34t-108.5 -12q-129 0 -190.5 62t-61.5 182q0 27 3.5 57t10.5 63l128 666h222zM660 1398
q0 -14 -1.5 -28.5t-4.5 -31.5q-7 -36 -18 -59t-28 -36t-42.5 -18t-61.5 -5q-53 0 -79.5 13.5t-26.5 51.5q0 13 1.5 27.5t4.5 31.5q6 37 17.5 60t28.5 36t42.5 18t61.5 5q52 0 79 -14t27 -51zM1090 1398q0 -14 -1.5 -28.5t-4.5 -31.5q-7 -36 -18 -59t-28 -36t-42.5 -18
t-61.5 -5q-53 0 -79.5 13.5t-26.5 51.5q0 13 1.5 27.5t4.5 31.5q6 37 17.5 60t29 36t42.5 18t61 5q53 0 79.5 -14t26.5 -51z" />
    <glyph glyph-name="yacute" unicode="&#xfd;" horiz-adv-x="992" 
d="M117 1011h232l59 -485q5 -47 8.5 -87.5t6 -80t4 -80.5t3.5 -91h3q21 50 39 90.5t36 80t37.5 80.5t43.5 88l249 485h238l-604 -1123q-55 -102 -101.5 -169t-97.5 -105.5t-112.5 -54t-145.5 -15.5q-38 0 -75 5t-73 14l32 166q32 -4 64 -7t62 -3q34 0 62.5 6.5t56 24.5
t54.5 52t57 87l62 111h-66zM838 1545l121 -146l-344 -251l-91 109z" />
    <glyph glyph-name="thorn" unicode="&#xfe;" horiz-adv-x="1123" 
d="M351 1511h222l-76 -390q-12 -62 -24.5 -115t-30.5 -114l2 -2q33 27 69.5 53t78 45.5t87 31t92.5 11.5q125 0 199.5 -79.5t74.5 -238.5q0 -172 -43.5 -308.5t-119 -231t-175.5 -143.5t-212 -49q-65 0 -118.5 16.5t-95.5 41.5l-3 -2q-6 -59 -13.5 -112t-19.5 -108l-48 -251
h-222zM321 217q40 -29 80.5 -44.5t94.5 -15.5q72 0 131.5 44t101 117t65.5 167t24 195q0 84 -32 125.5t-90 41.5q-61 0 -136 -50.5t-153 -145.5z" />
    <glyph glyph-name="ydieresis" unicode="&#xff;" horiz-adv-x="992" 
d="M117 1011h232l59 -485q5 -47 8.5 -87.5t6 -80t4 -80.5t3.5 -91h3q21 50 39 90.5t36 80t37.5 80.5t43.5 88l249 485h238l-604 -1123q-55 -102 -101.5 -169t-97.5 -105.5t-112.5 -54t-145.5 -15.5q-38 0 -75 5t-73 14l32 166q32 -4 64 -7t62 -3q34 0 62.5 6.5t56 24.5
t54.5 52t57 87l62 111h-66zM582 1398q0 -14 -1.5 -28.5t-4.5 -31.5q-7 -36 -18 -59t-28 -36t-42.5 -18t-61.5 -5q-53 0 -79.5 13.5t-26.5 51.5q0 13 1.5 27.5t4.5 31.5q6 37 17.5 60t28.5 36t42.5 18t61.5 5q52 0 79 -14t27 -51zM1012 1398q0 -14 -1.5 -28.5t-4.5 -31.5
q-7 -36 -18 -59t-28 -36t-42.5 -18t-61.5 -5q-53 0 -79.5 13.5t-26.5 51.5q0 13 1.5 27.5t4.5 31.5q6 37 17.5 60t29 36t42.5 18t61 5q53 0 79.5 -14t26.5 -51z" />
    <glyph glyph-name="OE" unicode="&#x152;" horiz-adv-x="1738" 
d="M1004 1246q-35 12 -76 18.5t-102 6.5q-83 0 -150.5 -29.5t-122.5 -97t-98 -175.5t-74 -263q-8 -36 -13.5 -73.5t-10 -72.5t-7 -69t-2.5 -64q0 -73 14.5 -124.5t45 -85t76 -49.5t108.5 -16q65 0 113.5 7t93.5 21zM812 0q-55 -13 -112.5 -21t-134.5 -8q-107 0 -190.5 24.5
t-140 78t-85.5 137.5t-29 203q0 69 8 140t25 158q39 204 102 345t150 229t198 127t248 39q82 0 146 -8t114 -21h706l-35 -180h-552l-84 -423h513l-34 -177h-513l-89 -462h552l-34 -181h-729z" />
    <glyph glyph-name="oe" unicode="&#x153;" horiz-adv-x="1651" 
d="M787 679q0 104 -43.5 145t-125.5 41q-52 0 -97 -17t-82 -58.5t-66 -110t-50 -174.5q-5 -23 -8.5 -47t-5.5 -46t-3.5 -43t-1.5 -37q0 -53 10.5 -88.5t32.5 -57.5t53 -31t73 -9q52 0 97.5 16.5t82 58t65.5 110.5t50 176q4 22 8.5 46t6.5 46.5t3 42.5t1 37zM1453 29
q-72 -23 -159 -36t-182 -13q-135 0 -209 39.5t-105 119.5q-26 -35 -59.5 -65.5t-75 -53t-96 -36t-120.5 -13.5q-85 0 -154 18.5t-116 59.5t-72 106.5t-25 160.5q0 39 4.5 84.5t14.5 103.5q27 145 75.5 247t118 166t157.5 93.5t194 29.5q66 0 115 -14t84.5 -37t58.5 -56
t36 -73q60 89 151 134.5t214 45.5q152 0 236.5 -66.5t84.5 -184.5q0 -92 -40 -160t-120.5 -113.5t-203 -67.5t-285.5 -22q-4 -22 -8 -54t-4 -57q0 -90 45 -125.5t140 -35.5q74 0 148.5 10.5t150.5 32.5zM1004 575q209 -1 310.5 43t101.5 144q0 48 -33.5 76.5t-105.5 28.5
q-50 0 -92.5 -16t-76 -51t-60.5 -90.5t-44 -134.5z" />
    <glyph glyph-name="Ydieresis" unicode="&#x178;" horiz-adv-x="1103" 
d="M444 543l-267 880h224l124 -385q14 -41 23 -74.5t17.5 -64t17 -62.5t17.5 -69h5q23 38 43 71.5t40.5 64.5t41.5 64t48 71l268 384h236l-615 -882l-105 -541h-223zM667 1751q0 -13 -1.5 -27.5t-4.5 -31.5q-8 -35 -18.5 -57.5t-28 -35.5t-41.5 -17t-59 -4q-52 0 -78 14
t-26 51q0 13 1.5 27.5t4.5 31.5q6 36 17 57.5t28.5 35t42 18t59.5 4.5q51 0 77.5 -14t26.5 -52zM1159 1751q0 -13 -1.5 -27.5t-4.5 -31.5q-8 -35 -18.5 -57.5t-28 -35.5t-41.5 -17t-59 -4q-52 0 -78 14t-26 51q0 13 1.5 27.5t4.5 31.5q6 36 17 57.5t28.5 35t42 18t58.5 4.5
q52 0 78.5 -14t26.5 -52z" />
    <glyph glyph-name="apostrophe" unicode="&#x2bc;" horiz-adv-x="445" 
d="M301 1160q39 57 64.5 97t51.5 86q-14 5 -25 18t-11 37q0 12 1 24t4 24q11 59 37.5 81.5t92.5 22.5q52 0 72 -16.5t20 -48.5q0 -38 -6 -66t-21 -57q-12 -22 -34.5 -52.5t-51 -64.5t-60.5 -68t-62 -64z" />
    <glyph glyph-name="tilde" unicode="&#x2dc;" horiz-adv-x="1206" 
d="M406 1290q22 33 50 64.5t60.5 56.5t71.5 40t81 15q41 0 71 -16t55 -34.5t47.5 -34t49.5 -15.5q36 0 68.5 27.5t60.5 68.5l99 -80q-22 -33 -50.5 -64.5t-61.5 -57t-71 -40t-81 -14.5q-42 0 -71 15t-53.5 34t-47 34.5t-50.5 15.5q-37 0 -69.5 -27t-61.5 -68z" />
    <glyph glyph-name="endash" unicode="&#x2013;" 
d="M30 640h1063l-38 -195h-1063z" />
    <glyph glyph-name="emdash" unicode="&#x2014;" horiz-adv-x="2048" 
d="M189 640h1708l-38 -195h-1708z" />
    <glyph glyph-name="quoteleft" unicode="&#x2018;" horiz-adv-x="452" 
d="M583 1505q-44 -65 -75 -116t-62 -105q14 -4 25 -20t11 -41q0 -12 -1 -25.5t-4 -27.5q-7 -33 -17 -55.5t-26 -36.5t-42 -20.5t-63 -6.5q-57 0 -81 18t-24 56q0 40 7 74.5t23 65.5q15 29 43 66t61.5 76.5t71 78t70.5 70.5z" />
    <glyph glyph-name="quoteright" unicode="&#x2019;" horiz-adv-x="452" 
d="M189 1083q44 63 75.5 114.5t62.5 104.5q-14 5 -25 21t-11 41q0 13 1 26t4 27q6 33 16 55.5t26.5 37t42.5 20.5t63 6q57 0 81 -18t24 -55q0 -41 -7 -75.5t-23 -64.5q-15 -30 -43 -66.5t-61.5 -76.5t-71 -78t-70.5 -71z" />
    <glyph glyph-name="quotedblleft" unicode="&#x201c;" horiz-adv-x="820" 
d="M951 1505q-44 -65 -75 -116t-62 -105q13 -4 24 -20t11 -41q0 -12 -1 -25.5t-4 -27.5q-7 -33 -16.5 -55.5t-26 -36.5t-42.5 -20.5t-63 -6.5q-56 0 -80.5 18t-24.5 56q0 40 7 74.5t23 65.5q16 29 44 66t61.5 76.5t70.5 78t70 70.5zM583 1505q-44 -65 -75 -116t-62 -105
q14 -4 25 -20t11 -41q0 -12 -1 -25.5t-4 -27.5q-7 -33 -17 -55.5t-26 -36.5t-42 -20.5t-63 -6.5q-57 0 -81 18t-24 56q0 40 7 74.5t23 65.5q15 29 43 66t61.5 76.5t71 78t70.5 70.5z" />
    <glyph glyph-name="quotedblright" unicode="&#x201d;" horiz-adv-x="820" 
d="M557 1083q44 63 75 114.5t61 104.5q-12 5 -23.5 21t-11.5 41q0 13 1 26t4 27q6 33 16 55.5t27 37t42.5 20.5t62.5 6q57 0 81 -18t24 -55q0 -41 -7 -75.5t-23 -64.5q-15 -30 -43 -66.5t-61.5 -76.5t-70.5 -78t-71 -71zM189 1083q44 63 75.5 114.5t62.5 104.5q-14 5 -25 21
t-11 41q0 13 1 26t4 27q6 33 16 55.5t26.5 37t42.5 20.5t63 6q57 0 81 -18t24 -55q0 -41 -7 -75.5t-23 -64.5q-15 -30 -43 -66.5t-61.5 -76.5t-71 -78t-70.5 -71z" />
    <glyph glyph-name="quotedblbase" unicode="&#x201e;" horiz-adv-x="829" 
d="M-66 -213q44 64 74.5 115t61.5 106q-13 4 -24 20t-11 41q0 12 1 25t4 27q6 33 16 56t26.5 37t42.5 20t63 6q57 0 81 -17.5t24 -55.5q0 -40 -7 -74.5t-23 -65.5q-15 -29 -43 -66t-61.5 -77t-70.5 -78t-71 -71zM301 -213q44 64 75 115t62 106q-13 4 -24 20t-11 41
q0 12 1 25t4 27q6 33 16 56t26.5 37t42 20t63.5 6q56 0 80 -17.5t24 -55.5q0 -40 -6.5 -74.5t-22.5 -65.5q-16 -29 -44 -66t-61.5 -77t-70.5 -78t-71 -71z" />
    <glyph glyph-name="bullet" unicode="&#x2022;" horiz-adv-x="856" 
d="M678 820q0 -22 -1.5 -43t-7.5 -47q-11 -56 -27 -94t-42.5 -61.5t-67 -33.5t-98.5 -10q-87 0 -128.5 25.5t-41.5 91.5q0 23 1.5 43t7.5 46q11 56 27.5 94t43 61.5t67 34t98.5 10.5q87 0 128 -27.5t41 -89.5z" />
    <glyph glyph-name="ellipsis" unicode="&#x2026;" horiz-adv-x="1463" 
d="M308 175q0 -14 -1.5 -29t-4.5 -32q-7 -37 -18 -62t-28.5 -40t-45.5 -21.5t-69 -6.5q-63 0 -90 16t-27 58q0 15 1.5 30t3.5 31q7 38 18.5 62.5t29.5 39.5t45.5 21.5t68.5 6.5q63 0 90 -16t27 -58zM797 175q0 -14 -1.5 -29t-4.5 -32q-7 -37 -18 -62t-29 -40t-45.5 -21.5
t-68.5 -6.5q-63 0 -90.5 16t-27.5 58q0 15 1.5 30t4.5 31q7 38 18.5 62.5t29.5 39.5t45.5 21.5t68.5 6.5q63 0 90 -16t27 -58zM1286 175q0 -14 -1.5 -29t-4.5 -32q-7 -37 -18 -62t-28.5 -40t-45.5 -21.5t-69 -6.5q-63 0 -90.5 16t-27.5 58q0 15 1.5 30t4.5 31
q7 38 18.5 62.5t29.5 39.5t45.5 21.5t68.5 6.5q62 0 89.5 -16t27.5 -58z" />
    <glyph glyph-name="guilsinglleft" unicode="&#x2039;" horiz-adv-x="624" 
d="M67 521l393 458l156 -99l-307 -378l159 -387l-184 -82z" />
    <glyph glyph-name="guilsinglright" unicode="&#x203a;" horiz-adv-x="624" 
d="M315 507l-160 386l185 83l217 -489l-393 -457l-156 98z" />
    <glyph glyph-name="Euro" unicode="&#x20ac;" 
d="M305 954q47 141 108.5 236.5t138.5 153t170.5 82t206.5 24.5q74 0 139 -11t117 -25l-52 -172q-56 15 -107 22.5t-113 7.5q-63 0 -119.5 -16.5t-104.5 -54t-88 -98.5t-71 -149h407l-31 -154h-427q-6 -22 -10.5 -44t-10.5 -49q-4 -20 -7 -41.5t-6 -37.5h427l-30 -155h-412
q-2 -17 -2.5 -32.5t-0.5 -30.5q1 -76 19.5 -126.5t50 -79.5t77.5 -41t105 -12q63 0 120.5 9.5t124.5 26.5l6 -175q-67 -15 -139.5 -27t-149.5 -12q-102 0 -183.5 23t-136.5 74.5t-84 134t-29 199.5q0 16 1 33t3 36h-149l30 155h134q3 17 7 41.5t9 43.5q5 23 9 43t9 44h-134
l31 154h147z" />
    <glyph glyph-name="trademark" unicode="&#x2122;" horiz-adv-x="1757" 
d="M391 1286h-221l27 137h600l-27 -137h-210l-112 -573h-169zM936 1423h256l28 -386l7 -208l88 208l180 386h255l-75 -710h-163l50 409l28 178l-74 -175l-192 -412h-236l-33 408l-6 179l-40 -178l-115 -409h-160z" />
    <glyph glyph-name="dotlessi" horiz-adv-x="535" 
d="M254 1011h222l-196 -1011h-221z" />
    <glyph glyph-name="grave.cap" horiz-adv-x="793" 
d="M487 1872l374 -199l-70 -130l-396 164z" />
    <glyph glyph-name="acute.cap" horiz-adv-x="784" 
d="M803 1861l63 -167l-423 -147l-55 131z" />
    <glyph glyph-name="circumflex" horiz-adv-x="1046" 
d="M752 1542l258 -268l-108 -120l-187 176l-248 -173l-77 115z" />
    <glyph glyph-name="circumflex.cap" horiz-adv-x="1046" 
d="M822 1860l281 -178l-84 -131l-232 123l-276 -123l-49 131z" />
    <glyph glyph-name="dieresis.narrow" horiz-adv-x="1107" 
d="M655 1398q0 -14 -1.5 -28.5t-4.5 -31.5q-7 -36 -17.5 -59t-28 -35.5t-42 -17.5t-60.5 -5q-53 0 -79.5 13.5t-26.5 50.5q0 13 1.5 27.5t4.5 31.5q6 37 17 59.5t28.5 35.5t42 18t60.5 5q53 0 79.5 -14t26.5 -50zM1028 1398q0 -14 -1.5 -28.5t-4.5 -31.5q-7 -36 -17.5 -59
t-28 -35.5t-42 -17.5t-60.5 -5q-53 0 -79.5 13.5t-26.5 50.5q0 13 1.5 27.5t4.5 31.5q6 37 17 59.5t28.5 35.5t42 18t60.5 5q53 0 79.5 -14t26.5 -50z" />
    <glyph glyph-name="dieresis.cap" horiz-adv-x="1104" 
d="M648 1751q0 -13 -1.5 -27.5t-4.5 -31.5q-8 -35 -18.5 -57.5t-28 -35.5t-41.5 -17t-59 -4q-52 0 -78 14t-26 51q0 13 1.5 27.5t4.5 31.5q6 36 17 57.5t28.5 35t42 18t59.5 4.5q51 0 77.5 -14t26.5 -52zM1140 1751q0 -13 -1.5 -27.5t-4.5 -31.5q-8 -35 -18.5 -57.5
t-28 -35.5t-41.5 -17t-59 -4q-52 0 -78 14t-26 51q0 13 1.5 27.5t4.5 31.5q6 36 17 57.5t28.5 35t42 18t58.5 4.5q52 0 78.5 -14t26.5 -52z" />
    <glyph glyph-name="dieresis.narrow.cap" horiz-adv-x="1104" 
d="M1097 1751q0 -13 -1.5 -27.5t-4.5 -31.5q-6 -35 -16.5 -57.5t-28 -35.5t-42 -17t-59.5 -4q-51 0 -77.5 14t-26.5 51q0 13 1.5 27.5t5.5 31.5q5 36 16 57.5t29 35t42 18t59 4.5q51 0 77 -14t26 -52zM688 1751q0 -13 -1.5 -27.5t-4.5 -31.5q-7 -35 -17.5 -57.5t-28 -35.5
t-41.5 -17t-60 -4q-51 0 -77 14t-26 51q0 13 1.5 27.5t4.5 31.5q6 36 17 57.5t28.5 35t42 18t59.5 4.5q51 0 77 -14t26 -52z" />
    <glyph glyph-name="tilde.cap" horiz-adv-x="1216" 
d="M460 1675q48 56 111.5 95t149.5 39q43 0 74.5 -11.5t58.5 -24.5t52.5 -24.5t55.5 -11.5q40 0 76.5 18.5t69.5 51.5l83 -95q-47 -56 -110.5 -95t-148.5 -39q-44 0 -75.5 11.5t-58.5 24.5t-52 24.5t-56 11.5q-40 0 -77 -18.5t-69 -51.5z" />
    <glyph glyph-name="ring" horiz-adv-x="818" 
d="M844 1374q0 -55 -18 -99.5t-51 -76.5t-78 -49.5t-97 -17.5q-98 0 -159.5 58t-61.5 153q0 53 18.5 98.5t51 77.5t77 49.5t96.5 17.5q99 0 160.5 -58.5t61.5 -152.5zM713 1371q0 45 -23.5 71t-72.5 26q-51 0 -78.5 -32t-27.5 -90q0 -46 23.5 -72.5t70.5 -26.5q52 0 80 33
t28 91z" />
    <glyph glyph-name="ring.cap" horiz-adv-x="824" 
d="M833 1728q0 -51 -18 -93t-51 -73t-79.5 -48t-102.5 -17q-48 0 -89.5 14.5t-72 40.5t-48 63.5t-17.5 86.5t18 92t51 74t78.5 48t100.5 17q99 0 164.5 -54t65.5 -151zM700 1722q0 47 -26 71t-76 24q-49 0 -79.5 -28.5t-30.5 -80.5q0 -47 26.5 -71t72.5 -24q52 0 82.5 28.5
t30.5 80.5z" />
    <glyph glyph-name="zeroinferior" horiz-adv-x="709" 
d="M626 491q0 -31 -3.5 -63t-12.5 -78q-21 -106 -53.5 -177.5t-76.5 -114t-100 -60t-124 -17.5q-53 0 -95.5 12.5t-74 41t-48 74.5t-16.5 113q0 30 3 62.5t12 78.5q21 107 53.5 177.5t77 113t100.5 60.5t124 18q51 0 94.5 -12.5t74.5 -41.5t48 -74.5t17 -112.5zM458 492
q0 62 -22.5 85t-62.5 23q-26 0 -50.5 -10.5t-45.5 -38.5t-39 -75.5t-33 -122.5q-7 -37 -11.5 -70t-4.5 -62q0 -62 23 -85t63 -23q26 0 50.5 11t45 38t39 75.5t32.5 122.5q7 37 11.5 69.5t4.5 62.5z" />
    <glyph glyph-name="oneinferior" horiz-adv-x="456" 
d="M179 522l-126 -60l-46 107l237 144h141l-137 -713h-168z" />
    <glyph glyph-name="twoinferior" horiz-adv-x="587" 
d="M-29 130l175 155q73 65 122.5 120t49.5 109q0 32 -22.5 51t-69.5 19q-32 0 -62.5 -4.5t-67.5 -15.5l-8 132q49 15 102 22.5t110 7.5q104 0 164.5 -44.5t60.5 -124.5q0 -47 -15 -88.5t-42.5 -79t-66.5 -73t-88 -73.5l-121 -100h265l-27 -143h-484z" />
    <glyph glyph-name="threeinferior" horiz-adv-x="562" 
d="M-29 133q32 -8 67.5 -12t67.5 -4q71 0 113.5 28t42.5 82q0 19 -7.5 34.5t-28 26t-56 15.5t-89.5 5l25 124q101 0 152 28t51 78q0 29 -23.5 43.5t-72.5 14.5q-33 0 -62.5 -5t-63.5 -14l-9 125q47 11 93.5 17.5t93.5 6.5q114 0 171.5 -41t57.5 -110q0 -41 -14 -73.5
t-35.5 -56.5t-49 -41t-56.5 -27q52 -12 81.5 -51t29.5 -94q0 -57 -25 -102.5t-69.5 -77t-104.5 -48.5t-129 -17q-50 0 -95 4t-86 13z" />
    <glyph glyph-name="fourinferior" horiz-adv-x="623" 
d="M273 133h-319l30 151l320 429h247l-85 -437h82l-27 -143h-82l-26 -133h-164zM301 276l59 300l-227 -300h168z" />
    <glyph glyph-name="fraction" horiz-adv-x="1059" 
d="M1114 1472l116 -93l-1203 -1425l-117 92z" />
    </font>
</defs>
</svg>
