<?xml version="1.0" standalone="no"?>
<!DOCTYPE svg PUBLIC "-//W3C//DTD SVG 1.1//EN" "http://www.w3.org/Graphics/SVG/1.1/DTD/svg11.dtd" >
<svg>
<metadata>
Created by FontForge 20120731 at Wed Jun 17 21:35:20 2015
 By ,,,
Copyright (c) 2006-2010 by Jan Fromm. All rights reserved.
</metadata>
<defs>
<font id="9da5760fe2097d708b8d0a364d1a46a649dccf3b52485349a43707759494ed8" horiz-adv-x="1085" >
  <font-face 
    font-family="9da5760fe2097d708b8d0a364d1a46a649dccf3b52485349a43707759494ed86"
    font-weight="800"
    font-stretch="normal"
    units-per-em="2048"
    panose-1="2 11 9 3 4 3 2 2 2 3"
    ascent="1659"
    descent="-389"
    x-height="1021"
    cap-height="1423"
    bbox="-182 -471 2111 1977"
    underline-thickness="200"
    underline-position="-50"
    unicode-range="U+0020-2122"
  />
<missing-glyph 
d="M356 719q-16 0 -16 -21q0 -20 16 -20h74v-238q0 -65 -51 -65q-23 0 -31 4t-16 4q-17 0 -17 -21q0 -14 11 -18q10 -4 23 -6t26 -2q106 0 106 104v246q0 33 -32 33h-93zM561 360q0 -20 25 -20q26 0 26 20v152h142q14 0 14 20q0 21 -14 21h-142v125h158q16 0 16 20
q0 21 -16 21h-174q-35 0 -35 -33v-326zM197 539q0 73 26.5 137.5t72.5 111t109.5 73t137.5 26.5q73 0 137.5 -26.5t111 -73t73 -111t26.5 -137.5q0 -74 -26.5 -137.5t-73 -109.5t-111 -72.5t-137.5 -26.5q-74 0 -137.5 26.5t-109.5 72.5t-72.5 109.5t-26.5 137.5z" />
    <glyph glyph-name=".notdef" 
d="M356 719q-16 0 -16 -21q0 -20 16 -20h74v-238q0 -65 -51 -65q-23 0 -31 4t-16 4q-17 0 -17 -21q0 -14 11 -18q10 -4 23 -6t26 -2q106 0 106 104v246q0 33 -32 33h-93zM561 360q0 -20 25 -20q26 0 26 20v152h142q14 0 14 20q0 21 -14 21h-142v125h158q16 0 16 20
q0 21 -16 21h-174q-35 0 -35 -33v-326zM197 539q0 73 26.5 137.5t72.5 111t109.5 73t137.5 26.5q73 0 137.5 -26.5t111 -73t73 -111t26.5 -137.5q0 -74 -26.5 -137.5t-73 -109.5t-111 -72.5t-137.5 -26.5q-74 0 -137.5 26.5t-109.5 72.5t-72.5 109.5t-26.5 137.5z" />
    <glyph glyph-name=".null" horiz-adv-x="0" 
 />
    <glyph glyph-name="nonmarkingreturn" horiz-adv-x="682" 
 />
    <glyph glyph-name="space" unicode=" " horiz-adv-x="517" 
 />
    <glyph glyph-name="space" unicode="&#xa0;" horiz-adv-x="517" 
 />
    <glyph glyph-name="exclam" unicode="!" horiz-adv-x="668" 
d="M161 1511h347l-44 -1070h-260zM498 144q0 -45 -8 -76.5t-27 -50.5t-50.5 -26.5t-79.5 -7.5q-97 0 -131 35t-34 126q0 44 7 75.5t26 50.5t51 26.5t81 7.5q97 0 131 -35.5t34 -124.5z" />
    <glyph glyph-name="quotedbl" unicode="&#x22;" horiz-adv-x="888" 
d="M92 1511h288l-31 -549h-227zM508 1511h288l-31 -549h-227z" />
    <glyph glyph-name="numbersign" unicode="#" 
d="M161 345h-129v214h155l39 292h-137v215h161l49 357h255l-48 -357h165l48 357h257l-50 -357h128v-215h-151l-41 -292h133v-214h-156l-47 -345h-257l48 345h-165l-48 -345h-256zM607 559l40 292h-165l-40 -292h165z" />
    <glyph glyph-name="dollar" unicode="$" 
d="M689 1605v-233q35 -1 67 -3.5t62.5 -7.5t61 -12t65.5 -16l-35 -246q-69 19 -139 29t-143 10q-53 0 -91 -6.5t-62 -20.5t-35.5 -34t-11.5 -46q0 -28 10.5 -49.5t37 -43.5t72.5 -47t118 -62q104 -53 172 -97t108 -92t56 -105.5t16 -137.5q0 -72 -19 -133.5t-60 -110.5
t-107 -83.5t-159 -52.5v-251h-243v240q-58 4 -132.5 13.5t-157.5 31.5l34 247q84 -20 169.5 -33t171.5 -13q47 0 83 7.5t61.5 22.5t38.5 39t13 56q0 29 -10.5 51.5t-38 46t-76 51t-122.5 65.5q-99 51 -164 94t-104 88.5t-54.5 100t-15.5 128.5q0 60 16 117.5t53.5 106.5
t99 85t151.5 54v252h243z" />
    <glyph glyph-name="percent" unicode="%" horiz-adv-x="1765" 
d="M1263 1473l168 -111l-939 -1413l-169 112zM707 1068q0 -109 -21.5 -183t-62.5 -117.5t-101.5 -62.5t-140.5 -19t-139.5 18t-99.5 61.5t-60 116.5t-20 182q0 108 21 180.5t62.5 116t103 62.5t142.5 19q80 0 138.5 -18t98 -61.5t59.5 -115t20 -179.5zM472 1064
q0 65 -6 103.5t-17.5 60t-26.5 29t-35 7.5q-22 0 -38.5 -6.5t-27.5 -27.5t-17 -59t-6 -103q0 -64 6 -104.5t17 -62t27.5 -29.5t38.5 -8q20 0 36 7t26.5 28t16.5 61t6 104zM1703 360q0 -109 -21.5 -183t-62.5 -117.5t-101.5 -62.5t-140.5 -19t-139.5 18t-99.5 61.5t-60 116.5
t-20 182q0 108 21 180.5t62.5 116t103 62.5t142.5 19q80 0 138.5 -18t98 -61.5t59.5 -115t20 -179.5zM1468 356q0 65 -6 103.5t-17.5 60t-26.5 29t-35 7.5q-22 0 -38.5 -6.5t-27.5 -27.5t-17 -59t-6 -103q0 -64 6 -104.5t17 -62t27.5 -29.5t38.5 -8q20 0 36 7t26.5 28
t16.5 61t6 104z" />
    <glyph glyph-name="ampersand" unicode="&#x26;" horiz-adv-x="1376" 
d="M981 130q-74 -64 -177.5 -112t-246.5 -48q-116 0 -206 28t-150.5 80.5t-92.5 125.5t-32 164q0 69 18.5 125t52 105.5t81 93t103.5 88.5q-37 39 -68.5 80.5t-55 88t-36.5 99.5t-13 118q0 173 114 274t327 101q211 0 314 -88.5t103 -233.5q0 -77 -25 -138t-65 -113.5
t-92.5 -98.5t-106.5 -90l250 -251q21 50 36 101.5t23 112.5h265q-24 -122 -59 -219t-79 -180l189 -189l-203 -194zM504 606q-26 -22 -50 -44t-40.5 -47t-26 -54.5t-9.5 -66.5q0 -38 13.5 -71t39 -58t63 -39t86.5 -14q77 0 131.5 26.5t94.5 63.5zM723 1181q0 50 -34.5 85
t-99.5 35q-70 0 -104.5 -39.5t-34.5 -100.5q0 -30 8 -56.5t22 -52t33.5 -50.5t43.5 -51q41 32 71.5 60t52 55t32 55.5t10.5 59.5z" />
    <glyph glyph-name="quotesingle" unicode="'" horiz-adv-x="472" 
d="M92 1511h288l-31 -549h-227z" />
    <glyph glyph-name="parenleft" unicode="(" horiz-adv-x="671" 
d="M443 -375q-157 238 -241.5 489t-84.5 534t84.5 533.5t241.5 490.5l215 -116q-63 -112 -110.5 -221t-79.5 -221t-47 -227t-15 -239q0 -123 15 -239t47 -227t79.5 -220.5t110.5 -221.5z" />
    <glyph glyph-name="parenright" unicode=")" horiz-adv-x="671" 
d="M13 -260q63 112 110.5 221.5t79 220.5t47 227t15.5 239q0 124 -15.5 239t-47 227t-79 221t-110.5 221l215 116q78 -119 139 -241t102.5 -248.5t63 -259.5t21.5 -275t-21.5 -274.5t-63 -259.5t-102.5 -249t-139 -240z" />
    <glyph glyph-name="asterisk" unicode="*" horiz-adv-x="864" 
d="M353 1050l-153 -128l-113 195l188 69l-188 70l113 195l153 -129l-35 189h227l-35 -189l154 129l113 -195l-187 -69l187 -70l-113 -195l-154 128l35 -189h-227z" />
    <glyph glyph-name="plus" unicode="+" 
d="M77 709h338v354h255v-354h338v-241h-338v-354h-255v354h-338v241z" />
    <glyph glyph-name="comma" unicode="," horiz-adv-x="534" 
d="M12 -275q50 86 83 146t65 124q-15 8 -27.5 20.5t-22.5 30.5t-15 43.5t-5 63.5q0 50 7.5 83t28 52.5t54.5 27.5t88 8q53 0 86.5 -8t54 -27.5t28.5 -52.5t8 -83q0 -55 -10 -94.5t-34 -75.5q-23 -38 -52 -76t-62.5 -79t-72.5 -86t-84 -93z" />
    <glyph glyph-name="hyphen" unicode="-" horiz-adv-x="878" 
d="M116 687h645v-280h-645v280z" />
    <glyph glyph-name="period" unicode="." horiz-adv-x="534" 
d="M445 153q0 -50 -8 -82.5t-28.5 -52.5t-54 -27.5t-86.5 -7.5q-54 0 -88 7.5t-54.5 27.5t-28 52.5t-7.5 82.5t7.5 83t28 52.5t54.5 27.5t88 8q53 0 86.5 -8t54 -27.5t28.5 -52.5t8 -83z" />
    <glyph glyph-name="slash" unicode="/" horiz-adv-x="893" 
d="M596 1511h288l-633 -1734h-288z" />
    <glyph glyph-name="zero" unicode="0" 
d="M1023 722q0 -145 -13.5 -258t-40.5 -196.5t-67.5 -140t-95 -92t-123 -50.5t-150.5 -15t-148.5 13.5t-119 46.5t-90.5 88t-63.5 136.5t-37.5 192.5t-12 256t13.5 257.5t41 196t68 140t95 91.5t122.5 50t150 15t149.5 -13.5t119.5 -46t90 -87.5t63 -136t37 -192t12 -256z
M707 713q0 104 -3.5 181.5t-11.5 132t-21 90t-31 55.5t-42.5 28t-54.5 8t-54 -8t-42.5 -28t-32 -55.5t-21.5 -90t-11.5 -132t-3.5 -181.5q0 -105 3.5 -182.5t11.5 -132.5t21.5 -91t32 -56t42.5 -28t54 -8t54.5 8t42.5 28t31 56t21 91t11.5 132.5t3.5 182.5z" />
    <glyph glyph-name="one" unicode="1" 
d="M123 258h299v842l-240 -102l-83 204l386 221h256v-1165h258v-258h-876v258z" />
    <glyph glyph-name="two" unicode="2" 
d="M86 220l355 458q48 62 86 112t64.5 94.5t40.5 85.5t14 83q0 40 -14 69t-40 46.5t-63.5 25.5t-85.5 8q-38 0 -73 -3t-69.5 -8.5t-69 -13.5t-70.5 -19l-37 241q49 11 96 21t95 17t98 10.5t106 3.5q122 0 210 -21t144.5 -64t83.5 -107.5t27 -152.5q0 -76 -18.5 -144.5
t-55 -135t-90 -135t-122.5 -142.5l-247 -279h529v-270h-894v220z" />
    <glyph glyph-name="three" unicode="3" 
d="M111 253q33 -8 65.5 -13.5t66.5 -9.5t71 -6.5t82 -2.5q64 0 113.5 12.5t83.5 38.5t52 65t18 91q0 53 -19 90t-65.5 60t-124 33.5t-196.5 10.5v242q108 0 180 13t115 38t60.5 60t17.5 78t-15 72t-42.5 46t-64.5 24t-81 7q-78 0 -149 -12t-140 -32l-38 241q95 23 197 37.5
t209 14.5q112 0 195.5 -20t139 -59.5t82.5 -98.5t27 -137q0 -73 -17.5 -131.5t-47.5 -104t-71 -78.5t-86 -54q51 -10 97 -34.5t82 -64.5t57 -95.5t21 -127.5q0 -106 -33 -193.5t-102 -149.5t-175.5 -96.5t-253.5 -34.5q-52 0 -98 3t-88 8.5t-82.5 12.5t-80.5 16z" />
    <glyph glyph-name="four" unicode="4" 
d="M597 285h-545v258l354 880h494v-868h131v-270h-131v-285h-303v285zM597 555v667l-261 -667h261z" />
    <glyph glyph-name="five" unicode="5" 
d="M934 1423v-269h-519v-290q18 1 39 3t42.5 2.5t43.5 1.5t41 1q104 0 182 -23.5t131 -72.5t79 -126t26 -184q0 -120 -36.5 -212.5t-108 -155t-179 -94.5t-249.5 -32q-52 0 -98.5 4t-88 9.5t-78 12t-66.5 12.5l25 245q33 -6 69.5 -12t75 -11.5t77 -8t77.5 -2.5
q70 0 121 14.5t83.5 42t48 68t15.5 92.5q0 51 -15 86.5t-45 57.5t-76 31.5t-107 9.5q-35 0 -69.5 -1t-69 -3.5t-71 -6t-76.5 -8.5v819h776z" />
    <glyph glyph-name="six" unicode="6" 
d="M917 1173q-54 12 -113.5 20.5t-129.5 8.5q-63 0 -106.5 -13t-72.5 -38t-45.5 -60t-25.5 -79.5t-13 -98.5t-8 -114q28 15 56.5 27.5t59 21.5t64.5 14t73 5q82 0 148.5 -24t114 -74t73.5 -129t26 -188q0 -112 -30.5 -201.5t-91 -151.5t-151 -95.5t-209.5 -33.5
q-112 0 -196 34t-140 107t-84.5 188.5t-28.5 278.5q0 147 9.5 269t34 219t67 169.5t108 120t157 71.5t214.5 24q74 0 144.5 -10.5t131.5 -27.5zM706 437q0 52 -9.5 87.5t-27 57t-42 31t-55.5 9.5q-23 0 -44 -4.5t-41.5 -12t-40.5 -19.5t-41 -27q-2 -18 -2 -38.5v-38.5
q0 -63 8 -112t25.5 -83.5t46.5 -53t71 -18.5q37 0 65.5 16t47.5 45t29 70t10 91z" />
    <glyph glyph-name="seven" unicode="7" 
d="M250 0q57 161 110.5 307.5t108.5 286.5t111 277.5t118 282.5h-612v269h943v-219q-63 -151 -120 -295.5t-111 -291t-106.5 -299t-106.5 -318.5h-335v0z" />
    <glyph glyph-name="eight" unicode="8" 
d="M1010 398q0 -98 -32 -177t-93 -134.5t-150 -86t-202 -30.5q-110 0 -193.5 26.5t-140.5 76t-85.5 121t-28.5 162.5q0 70 18.5 123.5t51 96t77 75.5t95.5 64q-47 28 -86.5 62t-68 78t-44.5 101t-16 132q0 81 31.5 148t89.5 115.5t140 75t183 26.5q99 0 178 -21.5t134.5 -65
t85.5 -108.5t30 -151q0 -60 -17 -112.5t-46 -97t-69.5 -81t-88.5 -66.5q52 -28 97 -60t78.5 -73.5t52.5 -95t19 -123.5zM680 1067q0 30 -9 56t-26 44.5t-42 29.5t-57 11q-31 0 -54.5 -11t-39 -30t-23.5 -45t-8 -55q0 -32 8.5 -58t26.5 -48.5t45 -43.5t64 -43
q27 17 48.5 36.5t36 43t22.5 51.5t8 62zM702 382q0 37 -10.5 65t-33 52.5t-56.5 46.5t-79 48q-33 -19 -58 -41t-42 -48.5t-26 -56.5t-9 -65q0 -38 12 -69.5t32.5 -53t50 -33.5t65.5 -12q35 0 64 12t49 34t30.5 52.5t10.5 68.5z" />
    <glyph glyph-name="nine" unicode="9" 
d="M117 260q42 -9 78.5 -16.5t71.5 -12.5t70.5 -7.5t74.5 -2.5q63 0 106.5 13t73 38t45.5 60t25 79.5t13 98.5t8 114q-28 -15 -56.5 -27.5t-59 -21t-64.5 -13.5t-72 -5q-83 0 -149.5 24t-114 74t-73.5 129t-26 188q0 112 31 201t91 151.5t150.5 95.5t209.5 33q112 0 196 -34
t140.5 -107t84.5 -188.5t28 -278.5q0 -147 -9.5 -269t-34 -219t-67 -169.5t-108 -120t-157 -71.5t-214.5 -24q-46 0 -89 4t-83.5 10.5t-79.5 15.5t-77 19zM380 986q0 -52 9.5 -87.5t27 -57t42 -30.5t55.5 -9q23 0 44 4t41.5 12t40.5 19.5t42 27.5q2 17 2 37.5v38.5
q0 62 -8 111.5t-26 84t-47 53t-70 18.5q-37 0 -66 -16t-48 -45t-29 -70t-10 -91z" />
    <glyph glyph-name="colon" unicode=":" horiz-adv-x="473" 
d="M445 822q0 -50 -8 -82.5t-28.5 -52.5t-54 -28t-86.5 -8q-54 0 -88 8t-54.5 28t-28 52.5t-7.5 82.5t7.5 83t28 52.5t54.5 27.5t88 8q53 0 86.5 -8t54 -27.5t28.5 -52.5t8 -83zM445 153q0 -50 -8 -82.5t-28.5 -52.5t-54 -27.5t-86.5 -7.5q-54 0 -88 7.5t-54.5 27.5
t-28 52.5t-7.5 82.5t7.5 83t28 52.5t54.5 27.5t88 8q53 0 86.5 -8t54 -27.5t28.5 -52.5t8 -83z" />
    <glyph glyph-name="semicolon" unicode=";" horiz-adv-x="473" 
d="M445 822q0 -50 -8 -82.5t-28.5 -52.5t-54 -28t-86.5 -8q-54 0 -88 8t-54.5 28t-28 52.5t-7.5 82.5t7.5 83t28 52.5t54.5 27.5t88 8q53 0 86.5 -8t54 -27.5t28.5 -52.5t8 -83zM12 -275q54 86 85 146t63 124q-15 8 -27.5 20.5t-22.5 30.5t-15 43.5t-5 63.5q0 50 7.5 83
t28 52.5t54.5 27.5t88 8q53 0 86.5 -8t54 -27.5t28.5 -52.5t8 -83q0 -55 -10 -94.5t-34 -75.5q-23 -38 -52 -76t-62.5 -79t-72.5 -86t-84 -93z" />
    <glyph glyph-name="less" unicode="&#x3c;" 
d="M133 725l789 403v-273l-510 -265l510 -271v-272l-789 408v270z" />
    <glyph glyph-name="equal" unicode="=" 
d="M98 495h890v-241h-890v241zM98 923h890v-240h-890v240z" />
    <glyph glyph-name="greater" unicode="&#x3e;" 
d="M164 320l510 266l-510 270v272l788 -407v-270l-788 -404v273z" />
    <glyph glyph-name="question" unicode="?" horiz-adv-x="878" 
d="M229 535q-2 68 0 117.5t15.5 92t39 85t72.5 97.5q35 41 60 72.5t40.5 59.5t23.5 56t8 61q0 53 -39.5 80.5t-128.5 27.5q-55 0 -109.5 -8.5t-118.5 -27.5l-37 236q89 22 168 34.5t173 12.5q215 0 316.5 -77.5t101.5 -236.5q0 -65 -10.5 -115.5t-32.5 -97t-57.5 -93
t-86.5 -104.5q-37 -40 -61.5 -73t-40 -63.5t-22.5 -63.5t-9 -69l-3 -97h-261zM525 144q0 -45 -8 -76.5t-26.5 -50.5t-50.5 -26.5t-80 -7.5q-97 0 -131 35t-34 126q0 44 7.5 75.5t26 50.5t51 26.5t80.5 7.5q96 0 130.5 -35.5t34.5 -124.5z" />
    <glyph glyph-name="at" unicode="@" horiz-adv-x="2229" 
d="M1509 461q-6 -67 15.5 -92.5t63.5 -25.5q34 0 74 26.5t74 82.5t56 138t22 196q0 99 -37 178t-116.5 133t-202.5 82.5t-293 28.5q-165 0 -300.5 -43.5t-232.5 -134t-149.5 -228.5t-51.5 -326q0 -131 29 -229.5t93 -164t169 -97.5t256 -32q122 0 234.5 10t232.5 35l31 -240
q-66 -14 -127.5 -24t-122.5 -16t-124 -8.5t-131 -2.5q-200 0 -355 42.5t-261.5 135t-162 236.5t-55.5 345q0 247 78.5 431.5t217 309t328 186.5t411.5 62q237 0 413 -47t293 -133.5t175 -208.5t58 -272q0 -174 -52.5 -297t-133 -202t-180 -116t-193.5 -37q-112 0 -180.5 40
t-99.5 110q-34 -32 -71 -59t-79.5 -47.5t-91 -32t-103.5 -11.5q-130 0 -212.5 85t-82.5 264q0 122 38.5 220.5t104 169.5t150.5 110t180 39q59 0 109 -16t90 -41l19 38h246zM1243 774q-29 19 -53.5 30.5t-61.5 11.5q-39 0 -74 -24t-60.5 -63.5t-40.5 -93t-15 -112.5
q0 -80 23 -118.5t68 -38.5q22 0 46 9.5t47.5 27t46 41t44.5 48.5z" />
    <glyph glyph-name="A" unicode="A" horiz-adv-x="1317" 
d="M409 1423h495l392 -1423h-344l-90 341h-428l-91 -341h-323zM812 591l-90 342q-10 37 -20 72.5t-19 72t-18.5 72t-17.5 73.5h-3q-9 -39 -18 -75.5t-18.5 -74t-19.5 -73.5t-20 -75l-84 -334h328z" />
    <glyph glyph-name="B" unicode="B" horiz-adv-x="1231" 
d="M134 1423h450q152 0 254.5 -17.5t166 -57t90.5 -105t27 -159.5q0 -64 -15.5 -113.5t-43 -88.5t-65 -67.5t-82.5 -47.5q50 -14 94 -40t77.5 -64.5t53 -93t19.5 -127.5q0 -107 -33 -189t-103.5 -138.5t-180 -85.5t-262.5 -29h-447v1423zM590 247q68 0 113.5 12.5t73 37
t39 59.5t11.5 78q0 45 -9.5 78t-37 54t-74.5 32t-122 11h-122v-362h128zM572 849q60 0 102.5 11t70 33t40.5 55.5t13 80.5q0 42 -11 70t-35.5 45t-67.5 24.5t-108 7.5h-114v-327h110z" />
    <glyph glyph-name="B" unicode="&#xe000;" horiz-adv-x="1231" 
d="M134 1423h450q152 0 254.5 -17.5t166 -57t90.5 -105t27 -159.5q0 -64 -15.5 -113.5t-43 -88.5t-65 -67.5t-82.5 -47.5q50 -14 94 -40t77.5 -64.5t53 -93t19.5 -127.5q0 -107 -33 -189t-103.5 -138.5t-180 -85.5t-262.5 -29h-447v1423zM590 247q68 0 113.5 12.5t73 37
t39 59.5t11.5 78q0 45 -9.5 78t-37 54t-74.5 32t-122 11h-122v-362h128zM572 849q60 0 102.5 11t70 33t40.5 55.5t13 80.5q0 42 -11 70t-35.5 45t-67.5 24.5t-108 7.5h-114v-327h110z" />
    <glyph glyph-name="C" unicode="C" horiz-adv-x="1072" 
d="M1021 25q-84 -22 -176.5 -36.5t-180.5 -14.5q-149 0 -256 30.5t-177 112t-103.5 223t-33.5 363.5q0 224 39 368.5t115 227.5t186 116.5t254 33.5q85 0 169 -12t164 -34l-37 -248q-69 19 -135 29t-130 10q-80 0 -136 -16.5t-91 -67t-51.5 -146t-16.5 -251.5
q0 -158 16 -252.5t51.5 -146.5t91 -68t137.5 -16q62 0 126.5 10.5t137.5 32.5z" />
    <glyph glyph-name="D" unicode="D" horiz-adv-x="1329" 
d="M134 1423h484q173 0 290.5 -28.5t191.5 -106t106.5 -214t32.5 -350.5q0 -211 -35 -350.5t-111 -222.5t-195.5 -117t-288.5 -34h-475v1423zM609 255q83 0 140 16.5t93.5 66.5t51.5 139.5t15 237.5q0 147 -15 236.5t-50 138t-92 63.5t-143 15h-147v-913h147z" />
    <glyph glyph-name="E" unicode="E" horiz-adv-x="1064" 
d="M134 1423h844v-255h-516v-319h480v-250h-480v-344h516v-255h-844v1423z" />
    <glyph glyph-name="E" unicode="&#xe001;" horiz-adv-x="1064" 
d="M134 1423h844v-255h-516v-319h480v-250h-480v-344h516v-255h-844v1423z" />
    <glyph glyph-name="F" unicode="F" horiz-adv-x="1024" 
d="M134 1423h831v-255h-503v-319h462v-250h-462v-599h-328v1423z" />
    <glyph glyph-name="G" unicode="G" horiz-adv-x="1285" 
d="M1172 55q-93 -37 -219 -60t-258 -23q-164 0 -278.5 30.5t-186 112t-104 223.5t-32.5 365t43.5 368t127 228t204.5 116.5t276 33.5q102 0 204 -14t188 -37l-35 -248q-92 21 -174 32.5t-162 11.5q-93 0 -157.5 -16.5t-105.5 -68t-60 -146t-19 -250.5q0 -157 15.5 -252.5
t48.5 -147t83.5 -69t122.5 -17.5q48 0 91 8t77 20v340h-209v251h519v-791z" />
    <glyph glyph-name="H" unicode="H" horiz-adv-x="1380" 
d="M134 1423h328v-565h456v565h329v-1423h-329v593h-456v-593h-328v1423z" />
    <glyph glyph-name="I" unicode="I" horiz-adv-x="595" 
d="M134 1423h328v-1423h-328v1423z" />
    <glyph glyph-name="J" unicode="J" horiz-adv-x="764" 
d="M640 401q0 -117 -25.5 -198t-75.5 -129.5t-126 -70t-178 -21.5q-67 0 -133 7t-121 21l31 248q43 -9 82.5 -14t77.5 -5q81 0 110 34.5t29 119.5v1030h329v-1022z" />
    <glyph glyph-name="K" unicode="K" horiz-adv-x="1226" 
d="M134 1423h328v-673l384 673h375l-423 -684l446 -739h-382l-400 691v-691h-328v1423z" />
    <glyph glyph-name="L" unicode="L" horiz-adv-x="960" 
d="M134 1423h328v-1159h480v-264h-808v1423z" />
    <glyph glyph-name="M" unicode="M" horiz-adv-x="1976" 
d="M206 1423h505l182 -726q14 -58 26 -109.5t22 -103.5t20.5 -107.5t22.5 -122.5h6q12 67 22 123.5t21 109.5t23 104.5t25 107.5l180 724h510l116 -1423h-343l-48 799q-3 53 -4.5 104t-2.5 102t-2 101.5t0 106.5l-4 2q-13 -57 -23 -108t-21 -100t-23 -100.5t-26 -107.5
l-194 -799h-434l-191 799q-26 105 -49 204.5t-45 209.5l-4 -2q-1 -54 -1 -105.5t-1 -101.5t-2.5 -101t-4.5 -104l-50 -799h-325z" />
    <glyph glyph-name="N" unicode="N" horiz-adv-x="1452" 
d="M134 1423h419l345 -693q23 -49 43.5 -95t39.5 -92t38.5 -94t40.5 -104l4 2q-15 111 -22 206t-7 177v693h284v-1423h-422l-343 694q-23 49 -43.5 94.5t-39.5 91.5t-38.5 94t-38.5 105l-4 -2q11 -109 19.5 -205.5t8.5 -177.5v-694h-284v1423z" />
    <glyph glyph-name="O" unicode="O" horiz-adv-x="1359" 
d="M1265 720q0 -225 -39 -370.5t-115 -229.5t-187.5 -117t-255.5 -33t-251.5 30.5t-179.5 112t-107.5 223.5t-35.5 367q0 226 39 371.5t114 229t186 116.5t255 33t252 -30t180 -111.5t108.5 -224t36.5 -367.5zM935 711q0 151 -14 246.5t-44.5 148.5t-79.5 72.5t-118 19.5
q-71 0 -118.5 -18.5t-78 -71.5t-44.5 -148t-14 -247t14 -247t44.5 -148.5t78 -73t118.5 -19.5q69 0 118 18.5t79.5 72t44.5 148t14 247.5z" />
    <glyph glyph-name="P" unicode="P" horiz-adv-x="1147" 
d="M134 1423h447q139 0 238.5 -17.5t163 -64.5t92.5 -129.5t29 -211.5q0 -127 -29.5 -217.5t-95 -147t-168.5 -83.5t-251 -27h-98v-525h-328v1423zM569 772q112 0 160.5 53t48.5 164q0 55 -10.5 91t-35 57t-63.5 30t-97 9h-110v-404h107z" />
    <glyph glyph-name="Q" unicode="Q" horiz-adv-x="1359" 
d="M1068 -258l-190 256q-43 -16 -94 -22t-116 -6q-144 0 -251.5 30.5t-179.5 111.5t-107.5 223.5t-35.5 367.5q0 226 39 371.5t114 229t186 116.5t255 33t252 -30t180 -111.5t108.5 -224t36.5 -367.5q0 -108 -8.5 -193.5t-25 -155t-40.5 -122t-55 -94.5l182 -231zM935 711
q0 151 -14 246t-44.5 148.5t-79.5 73t-118 19.5q-71 0 -118.5 -18.5t-78 -71.5t-44.5 -148t-14 -247t14 -247t44.5 -148.5t78 -73t118.5 -19.5q69 0 118 18.5t79.5 72t44.5 148t14 247.5z" />
    <glyph glyph-name="R" unicode="R" horiz-adv-x="1224" 
d="M134 1423h464q153 0 256.5 -18t167.5 -62t90.5 -119t26.5 -188q0 -75 -16 -137t-50 -111t-87 -83.5t-125 -54.5l330 -650h-373l-282 600h-74v-600h-328v1423zM592 847q66 0 109.5 12t68.5 34.5t34.5 55.5t9.5 77q0 41 -9.5 70t-35 46.5t-69 25.5t-108.5 8h-130v-329h130z
" />
    <glyph glyph-name="S" unicode="S" horiz-adv-x="1080" 
d="M132 268q85 -20 167 -33.5t178 -13.5q118 0 172 35.5t54 106.5q0 34 -10.5 59t-42 51t-86 58t-139.5 77q-98 51 -164 95.5t-106.5 93t-57.5 108t-17 141.5q0 91 29 165.5t93.5 127.5t165 81.5t241.5 28.5q94 0 174 -12.5t145 -30.5l-32 -245q-68 19 -134.5 30t-156.5 11
q-58 0 -99.5 -8t-68 -24.5t-40 -39t-13.5 -54.5t12 -56t42.5 -49t83 -54t133.5 -72q107 -56 176 -101.5t109 -94t56.5 -107t16.5 -139.5q0 -99 -31 -178t-96 -135t-168 -86t-245 -30q-96 0 -188.5 13.5t-183.5 36.5z" />
    <glyph glyph-name="S" unicode="&#xe002;" horiz-adv-x="1080" 
d="M132 268q85 -20 167 -33.5t178 -13.5q118 0 172 35.5t54 106.5q0 34 -10.5 59t-42 51t-86 58t-139.5 77q-98 51 -164 95.5t-106.5 93t-57.5 108t-17 141.5q0 91 29 165.5t93.5 127.5t165 81.5t241.5 28.5q94 0 174 -12.5t145 -30.5l-32 -245q-68 19 -134.5 30t-156.5 11
q-58 0 -99.5 -8t-68 -24.5t-40 -39t-13.5 -54.5t12 -56t42.5 -49t83 -54t133.5 -72q107 -56 176 -101.5t109 -94t56.5 -107t16.5 -139.5q0 -99 -31 -178t-96 -135t-168 -86t-245 -30q-96 0 -188.5 13.5t-183.5 36.5z" />
    <glyph glyph-name="T" unicode="T" horiz-adv-x="1096" 
d="M386 1160h-375v263h1074v-263h-370v-1160h-329v1160z" />
    <glyph glyph-name="U" unicode="U" horiz-adv-x="1338" 
d="M437 1423v-823q0 -108 11 -180.5t37.5 -115.5t71.5 -61t115 -18q67 0 112 18.5t70.5 62t36 115.5t10.5 179v823h328v-809q0 -172 -29 -294.5t-96.5 -200t-176.5 -113.5t-267 -36q-156 0 -261 33t-169.5 106.5t-93 193t-28.5 293.5v827h329z" />
    <glyph glyph-name="V" unicode="V" horiz-adv-x="1307" 
d="M20 1423h346l189 -725q14 -54 27.5 -109.5t27 -116t27.5 -125.5t27 -136h5q13 71 26 136t26.5 125.5t26.5 116t28 109.5l188 725h322l-382 -1423h-498z" />
    <glyph glyph-name="W" unicode="W" horiz-adv-x="2098" 
d="M42 1423h344l146 -725q10 -52 19.5 -108.5t18 -117.5t17.5 -126.5t18 -133.5h5q10 66 18 132.5t17 128t18 118t19 107.5l142 725h471l138 -725q10 -52 20 -109t19 -118t18 -126t19 -133h4q10 68 19 133.5t18.5 127t19 118t19.5 107.5l144 725h323l-303 -1423h-489
l-149 800q-12 60 -20.5 113t-16 104t-14 99t-12.5 97h-3q-7 -50 -14.5 -98.5t-16 -98.5t-18 -104t-18.5 -112l-149 -800h-489z" />
    <glyph glyph-name="X" unicode="X" horiz-adv-x="1352" 
d="M440 728l-430 695h367l320 -514l5 3q10 23 22 44t23 42t23 41.5t26 44.5l197 339h338l-428 -700l447 -723h-370l-335 541l-5 -3q-22 -44 -42.5 -82.5t-47.5 -84.5l-213 -371h-334z" />
    <glyph glyph-name="Y" unicode="Y" horiz-adv-x="1191" 
d="M430 517l-442 906h330l167 -313q21 -38 36.5 -70.5t29 -64.5t26.5 -64.5t27 -69.5h6q15 41 27.5 74.5t25 64.5t26.5 63t31 67l153 313h330l-450 -909v-514h-323v517z" />
    <glyph glyph-name="Z" unicode="Z" horiz-adv-x="1033" 
d="M44 207l549 953h-513v263h899v-207l-550 -953h562v-263h-947v207z" />
    <glyph glyph-name="bracketleft" unicode="[" horiz-adv-x="727" 
d="M151 1511h516v-220h-236v-1396h236v-221h-516v1837z" />
    <glyph glyph-name="backslash" unicode="\" horiz-adv-x="893" 
d="M8 1511h289l635 -1734h-289z" />
    <glyph glyph-name="bracketright" unicode="]" horiz-adv-x="727" 
d="M60 -105h236v1396h-236v220h516v-1837h-516v221z" />
    <glyph glyph-name="asciicircum" unicode="^" 
d="M383 1423h320l338 -697h-290l-208 427l-209 -427h-289z" />
    <glyph glyph-name="underscore" unicode="_" 
d="M0 -202h1085v-269h-1085v269z" />
    <glyph glyph-name="grave" unicode="`" horiz-adv-x="808" 
d="M330 1604l342 -324l-138 -156l-385 274z" />
    <glyph glyph-name="a" unicode="a" horiz-adv-x="1064" 
d="M622 689q0 55 -30.5 81.5t-116.5 26.5q-73 0 -143 -10.5t-146 -26.5l-31 236q89 20 183 33.5t193 13.5q119 0 199.5 -18.5t128.5 -59t68 -104.5t20 -155v-706h-267l-16 89q-71 -45 -140.5 -76t-159.5 -31q-131 0 -214.5 75.5t-83.5 233.5q0 80 27 143.5t85.5 109t150 70
t221.5 24.5h72v51zM569 434q-61 0 -102.5 -8.5t-67 -22.5t-36.5 -37t-11 -51q0 -52 25 -74.5t66 -22.5q44 0 84.5 20t94.5 60v136h-53z" />
    <glyph glyph-name="b" unicode="b" horiz-adv-x="1153" 
d="M126 1511h326v-365q0 -52 -1.5 -96t-9.5 -104l2 -3q54 35 121 66t163 31q76 0 141 -25t111.5 -85t71.5 -158t25 -245t-32.5 -250.5t-90 -169t-137 -95.5t-170.5 -30q-73 0 -127.5 16t-113.5 46l-11 -44h-268v1511zM452 270q33 -19 64 -29t67 -10q32 0 63 12t53.5 45
t36.5 88t14 140q0 84 -8.5 135.5t-24 80t-39 38t-53.5 9.5q-37 0 -78 -19.5t-95 -58.5v-431z" />
    <glyph glyph-name="b" unicode="&#xe003;" horiz-adv-x="1153" 
d="M126 1511h326v-365q0 -52 -1.5 -96t-9.5 -104l2 -3q54 35 121 66t163 31q76 0 141 -25t111.5 -85t71.5 -158t25 -245t-32.5 -250.5t-90 -169t-137 -95.5t-170.5 -30q-73 0 -127.5 16t-113.5 46l-11 -44h-268v1511zM452 270q33 -19 64 -29t67 -10q32 0 63 12t53.5 45
t36.5 88t14 140q0 84 -8.5 135.5t-24 80t-39 38t-53.5 9.5q-37 0 -78 -19.5t-95 -58.5v-431z" />
    <glyph glyph-name="c" unicode="c" horiz-adv-x="889" 
d="M829 19q-63 -17 -138 -29t-146 -12q-119 0 -207 24.5t-145 83t-86 160.5t-29 258q0 154 35.5 257.5t98.5 166t152 89t198 26.5q69 0 139.5 -10t132.5 -27l-26 -236q-53 13 -102 20t-107 7q-47 0 -83 -12t-61 -43t-37.5 -86.5t-12.5 -143.5t9.5 -144.5t32.5 -88t60 -43.5
t94 -12q44 0 98 8.5t106 22.5z" />
    <glyph glyph-name="d" unicode="d" horiz-adv-x="1153" 
d="M741 99q-76 -52 -148.5 -84.5t-165.5 -32.5q-79 0 -143.5 24.5t-110.5 84.5t-71 158t-25 246q0 146 32.5 250t90.5 169t136.5 95.5t170.5 30.5q58 0 108 -11.5t97 -34.5l2 2q-7 52 -9.5 97t-2.5 96v322h324v-1511h-267zM702 751q-34 19 -65 29.5t-67 10.5
q-32 0 -63 -12.5t-54 -45.5t-36 -87.5t-13 -140.5q0 -84 8 -135.5t23.5 -80t39 -38t54.5 -9.5q36 0 77 19.5t96 58.5v431z" />
    <glyph glyph-name="e" unicode="e" horiz-adv-x="1061" 
d="M936 20q-88 -19 -174.5 -30.5t-192.5 -11.5q-120 0 -212 22t-154 79.5t-93.5 159.5t-31.5 265q0 157 35 262t98.5 168.5t153 90t198.5 26.5q108 0 188 -20.5t130.5 -73t76 -141t25.5 -225.5q0 -44 -3.5 -90.5t-6.5 -92.5h-568q2 -60 13 -95.5t36.5 -55t66 -26.5t104.5 -7
q78 0 143 9t143 25zM696 612q0 59 -8.5 96.5t-25.5 60t-42.5 31t-65.5 8.5q-37 0 -64.5 -9t-45.5 -31t-27.5 -60t-10.5 -96h290z" />
    <glyph glyph-name="f" unicode="f" horiz-adv-x="758" 
d="M174 781h-148v240h148v88q0 109 19.5 190.5t68 135t133 80t213.5 26.5q55 0 108 -6.5t100 -17.5l-26 -236q-30 6 -65 10t-73 4q-89 0 -121.5 -40.5t-32.5 -117.5v-116h251v-240h-251v-781h-324v781z" />
    <glyph glyph-name="g" unicode="g" horiz-adv-x="1113" 
d="M1094 828q-33 -6 -67 -12t-67 -12q14 -20 21 -46.5t7 -62.5q0 -93 -26 -161.5t-81 -112t-140.5 -64.5t-204.5 -21q-27 0 -52.5 2.5t-37.5 6.5q-14 -9 -21.5 -20t-7.5 -26q0 -10 3.5 -18.5t15.5 -16.5t33 -15t57 -14q78 -17 142.5 -32t119.5 -27q68 -17 117 -38.5
t79.5 -53.5t44.5 -76.5t14 -107.5q0 -80 -29.5 -145.5t-92 -112.5t-159 -74.5t-228.5 -27.5t-224.5 19.5t-151 57.5t-85.5 93t-27 126q0 92 49.5 151t110.5 93q-50 27 -76.5 65.5t-26.5 94.5q0 54 27.5 96.5t78.5 72.5q-59 40 -92 107.5t-33 177.5q0 93 26.5 160t81 111
t140.5 65t205 21q76 0 135.5 -8t98.5 -22h323v-193zM635 -42q-45 10 -88 20t-87 20q-22 -8 -40 -20.5t-31.5 -29t-21 -35.5t-7.5 -42q0 -26 8 -47.5t29 -36t56 -24t88 -9.5q52 0 87 9.5t58 25t33 36.5t10 45q0 35 -21 56t-73 32zM677 694q0 41 -8 68.5t-25.5 45t-44.5 24.5
t-63 7q-39 0 -66 -7t-44 -24.5t-24 -44.5t-7 -68t7 -69.5t24 -46t44 -24.5t66 -7q37 0 64 7t44 24t25 45.5t8 69.5z" />
    <glyph glyph-name="h" unicode="h" horiz-adv-x="1186" 
d="M126 1511h326v-365q0 -52 -3 -97.5t-10 -107.5l2 -2q74 44 148 72.5t172 28.5q162 0 236 -80.5t74 -256.5v-703h-326v635q0 86 -24 115t-75 29q-41 0 -87.5 -20t-106.5 -61v-698h-326v1511z" />
    <glyph glyph-name="i" unicode="i" horiz-adv-x="579" 
d="M126 1021h326v-1021h-326v1021zM467 1344q0 -49 -8 -82t-28 -53t-54.5 -28t-86.5 -8q-53 0 -87 8t-55 28t-29.5 53t-8.5 82t8.5 82t29.5 52t55 27t87 8q52 0 86.5 -8t54.5 -27t28 -52t8 -82z" />
    <glyph glyph-name="j" unicode="j" horiz-adv-x="579" 
d="M452 -18q0 -109 -19 -191t-67.5 -136t-132 -81.5t-211.5 -27.5q-55 0 -105 6t-99 17l26 237q31 -7 64.5 -10.5t68.5 -3.5q89 0 119 43t30 119v1067h326v-1039zM467 1344q0 -49 -8 -82t-28 -53t-54.5 -28t-86.5 -8q-53 0 -87 8t-55 28t-29.5 53t-8.5 82t8.5 82t29.5 52
t55 27t87 8q52 0 86.5 -8t54.5 -27t28 -52t8 -82z" />
    <glyph glyph-name="k" unicode="k" horiz-adv-x="1124" 
d="M126 1511h326v-942l295 452h357l-327 -473l333 -548h-381l-277 499v-499h-326v1511z" />
    <glyph glyph-name="l" unicode="l" horiz-adv-x="579" 
d="M126 1511h326v-1511h-326v1511z" />
    <glyph glyph-name="m" unicode="m" horiz-adv-x="1778" 
d="M126 1021h268l18 -99q91 58 169 88t171 30q113 0 171 -35t87 -88q96 61 174.5 92t173.5 31q157 0 230 -80.5t73 -256.5v-703h-325v635q0 86 -24 115t-71 29q-36 0 -80.5 -20t-107.5 -63q1 -12 1.5 -25.5t0.5 -30.5v-640h-324v635q0 86 -24 115t-69 29q-39 0 -82.5 -20
t-103.5 -61v-698h-326v1021z" />
    <glyph glyph-name="n" unicode="n" horiz-adv-x="1187" 
d="M126 1021h268l18 -99q91 58 171 88t178 30q162 0 236 -80.5t74 -256.5v-703h-326v635q0 86 -24 115t-75 29q-41 0 -87.5 -20t-106.5 -61v-698h-326v1021z" />
    <glyph glyph-name="o" unicode="o" horiz-adv-x="1130" 
d="M1050 519q0 -156 -33 -260.5t-97 -169t-155 -92t-207 -27.5q-117 0 -206.5 24t-149.5 84.5t-92 163.5t-32 262q0 157 33.5 261t96.5 167.5t154.5 91t206.5 27.5q117 0 207 -24t151 -84t92 -163t31 -261zM724 510q0 90 -8.5 147t-27.5 89.5t-50 45.5t-75 13t-74.5 -12.5
t-49 -45.5t-26.5 -89t-8 -145q0 -90 8 -148t26.5 -90.5t49.5 -45.5t75 -13t74.5 12.5t49.5 45.5t27.5 90t8.5 146z" />
    <glyph glyph-name="p" unicode="p" horiz-adv-x="1153" 
d="M126 1021h268l18 -98q38 24 74 46t74.5 38t79 24.5t87.5 8.5q76 0 141 -25t111.5 -85t71.5 -158t25 -245t-32.5 -250.5t-90 -169t-137 -95.5t-170.5 -30q-59 0 -109 11t-96 34l-2 -2q4 -25 7 -49t4 -47.5t1.5 -47t0.5 -49.5v-261h-326v1450zM452 270q33 -19 64 -29
t67 -10q32 0 63 12t53.5 45t36.5 88t14 140q0 84 -8.5 135.5t-24 80t-39 38t-53.5 9.5q-37 0 -78 -19.5t-95 -58.5v-431z" />
    <glyph glyph-name="q" unicode="q" horiz-adv-x="1153" 
d="M1026 -429h-324v305q0 51 1.5 95t8.5 105l-2 2q-54 -34 -121 -65t-162 -31q-79 0 -143.5 24.5t-110.5 84.5t-71 158t-25 246q0 146 32.5 250t90.5 169t136.5 95.5t170.5 30.5q73 0 128 -16t113 -47l11 44h267v-1450zM702 751q-34 19 -65 29.5t-67 10.5q-32 0 -63 -12.5
t-54 -45.5t-36 -87.5t-13 -140.5q0 -84 8 -135.5t23.5 -80t39 -38t54.5 -9.5q36 0 77 19.5t96 58.5v431z" />
    <glyph glyph-name="r" unicode="r" horiz-adv-x="752" 
d="M126 1021h268l18 -101q33 28 65.5 52t64 42t64 29t64.5 11q27 0 48.5 -5t41.5 -18l-37 -281q-18 10 -38.5 15.5t-47.5 5.5q-39 0 -84.5 -19.5t-100.5 -51.5v-700h-326v1021z" />
    <glyph glyph-name="s" unicode="s" horiz-adv-x="884" 
d="M106 254q81 -18 149 -29.5t129 -11.5q36 0 63.5 4t45.5 12.5t28 22.5t10 33q0 18 -9 31t-31 26t-60.5 29.5t-100.5 41.5q-68 29 -117 56.5t-79.5 62.5t-45 78.5t-14.5 107.5q0 163 110.5 244t340.5 81q66 0 132 -10t116 -24l-31 -234q-55 15 -112.5 24t-117.5 9
q-65 0 -101.5 -14t-36.5 -52q0 -14 8 -25t29 -24.5t57 -29t92 -37.5q73 -30 124.5 -57t84.5 -63t48.5 -83.5t15.5 -116.5q0 -160 -106.5 -244t-355.5 -84q-83 0 -152 11.5t-141 29.5z" />
    <glyph glyph-name="s" unicode="&#xe004;" horiz-adv-x="884" 
d="M106 254q81 -18 149 -29.5t129 -11.5q36 0 63.5 4t45.5 12.5t28 22.5t10 33q0 18 -9 31t-31 26t-60.5 29.5t-100.5 41.5q-68 29 -117 56.5t-79.5 62.5t-45 78.5t-14.5 107.5q0 163 110.5 244t340.5 81q66 0 132 -10t116 -24l-31 -234q-55 15 -112.5 24t-117.5 9
q-65 0 -101.5 -14t-36.5 -52q0 -14 8 -25t29 -24.5t57 -29t92 -37.5q73 -30 124.5 -57t84.5 -63t48.5 -83.5t15.5 -116.5q0 -160 -106.5 -244t-355.5 -84q-83 0 -152 11.5t-141 29.5z" />
    <glyph glyph-name="t" unicode="t" horiz-adv-x="768" 
d="M165 1021v278l325 43v-321h217v-240h-217v-416q0 -78 23 -109t77 -31q31 0 59.5 4.5t57.5 15.5l26 -231q-53 -16 -113.5 -25.5t-132.5 -9.5q-91 0 -153 17.5t-100 54.5t-53.5 95t-15.5 136v499h-145v240h145z" />
    <glyph glyph-name="u" unicode="u" horiz-adv-x="1189" 
d="M441 1021v-635q0 -86 25.5 -115t76.5 -29q41 0 87.5 21t106.5 61v697h325v-1021h-267l-19 100q-90 -59 -171 -88.5t-179 -29.5q-162 0 -236 80t-74 257v702h325z" />
    <glyph glyph-name="v" unicode="v" horiz-adv-x="1071" 
d="M14 1021h331l124 -474q10 -47 19.5 -87.5t18.5 -80t17 -81.5t16 -90h4q10 49 18 91.5t16.5 82.5t17.5 80t22 85l127 474h312l-291 -1021h-462z" />
    <glyph glyph-name="w" unicode="w" horiz-adv-x="1797" 
d="M24 1021h333l108 -474q7 -38 14.5 -78t15 -82t14 -86t14.5 -92h3q11 91 26 175.5t32 162.5l102 474h441l105 -474q8 -38 15.5 -77t14 -81t13 -87t14.5 -93h4q18 100 30.5 180.5t30.5 157.5l104 474h314l-253 -1021h-456l-106 475q-17 78 -30.5 161.5t-27.5 175.5h-2
q-11 -91 -23 -174t-31 -163l-108 -475h-449z" />
    <glyph glyph-name="x" unicode="x" horiz-adv-x="1116" 
d="M330 524l-308 497h365l202 -342l2 2l25 50t28 55l126 235h334l-316 -507l324 -514h-380l-203 365l-2 -1q-13 -30 -26 -55t-29 -55l-135 -254h-333z" />
    <glyph glyph-name="y" unicode="y" horiz-adv-x="1070" 
d="M5 1021h350l115 -417q12 -45 21.5 -84t17.5 -78t16.5 -81.5t16.5 -92.5h4q9 50 17 93t17.5 82l19 78t21.5 83l117 417h338l-366 -1085q-39 -113 -76.5 -187.5t-90 -120t-127 -64t-182.5 -18.5q-55 0 -106.5 6.5t-89.5 15.5l29 235q30 -6 70 -8.5t70 -2.5q36 0 64.5 6
t52.5 21.5t42.5 42t35.5 69.5l27 69h-110z" />
    <glyph glyph-name="y" unicode="&#xe006;" horiz-adv-x="1070" 
d="M5 1021h350l115 -417q12 -45 21.5 -84t17.5 -78t16.5 -81.5t16.5 -92.5h4q9 50 17 93t17.5 82l19 78t21.5 83l117 417h338l-366 -1085q-39 -113 -76.5 -187.5t-90 -120t-127 -64t-182.5 -18.5q-55 0 -106.5 6.5t-89.5 15.5l29 235q30 -6 70 -8.5t70 -2.5q36 0 64.5 6
t52.5 21.5t42.5 42t35.5 69.5l27 69h-110z" />
    <glyph glyph-name="z" unicode="z" horiz-adv-x="899" 
d="M62 182l383 591h-354v248h735v-180l-385 -593h397v-248h-776v182z" />
    <glyph glyph-name="braceleft" unicode="{" horiz-adv-x="740" 
d="M675 -317q-29 -3 -60 -6t-75 -3q-153 0 -236 101.5t-83 299.5v166q0 54 -10.5 95.5t-31.5 72t-51.5 51t-68.5 30.5v228q38 11 68.5 31.5t51.5 52t31.5 73t10.5 94.5v142q0 198 83 299t236 101q44 0 75 -2.5t60 -5.5v-212q-54 0 -88.5 -8.5t-53.5 -30t-26 -56.5t-7 -88
v-157q0 -64 -10 -117t-31.5 -95.5t-52.5 -75t-73 -56.5q42 -23 73 -55.5t52.5 -75t31.5 -96t10 -118.5v-184q0 -53 7 -88t26 -56.5t53.5 -30t88.5 -8.5v-212z" />
    <glyph glyph-name="bar" unicode="|" horiz-adv-x="578" 
d="M134 1511h310v-1940h-310v1940z" />
    <glyph glyph-name="braceright" unicode="}" horiz-adv-x="740" 
d="M65 -105q54 0 88 8.5t52.5 30t26.5 56.5t8 88v184q0 65 9.5 118.5t31 96t52.5 75t73 55.5q-42 24 -73 56.5t-52.5 75t-31 95.5t-9.5 117v157q0 53 -8 88t-26.5 56.5t-52.5 30t-88 8.5v212q28 3 59 5.5t75 2.5q153 0 236 -101t83 -299v-142q0 -53 11 -94.5t32 -73
t50.5 -52t68.5 -31.5v-228q-39 -10 -68.5 -30.5t-50.5 -51t-32 -72t-11 -95.5v-166q0 -198 -83 -299.5t-236 -101.5q-44 0 -75 3t-59 6v212z" />
    <glyph glyph-name="asciitilde" unicode="~" 
d="M73 886q-6 88 13 162.5t59 128.5t98 84t131 30q76 0 127 -24t86.5 -53.5t63 -53t61.5 -23.5q20 0 34.5 10t24 29.5t14 46t4.5 58.5h223q6 -89 -13 -163.5t-59 -128t-99 -83.5t-129 -30q-78 0 -128.5 23.5t-85.5 53t-62.5 53.5t-61.5 24q-42 0 -59.5 -40.5t-17.5 -103.5
h-224z" />
    <glyph glyph-name="exclamdown" unicode="&#xa1;" horiz-adv-x="624" 
d="M183 656h260l42 -1085h-346zM478 953q0 -45 -7.5 -76t-26 -50t-50.5 -27t-80 -8q-98 0 -131.5 35.5t-33.5 125.5q0 45 7.5 76.5t26 50.5t50.5 26.5t81 7.5q96 0 130 -35.5t34 -125.5z" />
    <glyph glyph-name="cent" unicode="&#xa2;" 
d="M742 1423v-186q31 -2 59 -6t54.5 -8.5t51.5 -10.5t51 -12l-37 -245q-32 9 -63 15t-60 10t-56.5 6.5t-53.5 2.5q-67 0 -115.5 -10t-79.5 -39.5t-45.5 -83t-14.5 -141.5q0 -89 15 -143.5t46.5 -85t80 -41t115.5 -10.5q29 0 57 2.5t56 7t57.5 11t60.5 14.5l35 -243
q-55 -15 -107 -25t-107 -15v-187h-243v191q-94 11 -165.5 41.5t-120.5 90t-74 152.5t-25 230q0 134 27.5 227t77.5 154.5t120.5 95.5t159.5 48v193h243z" />
    <glyph glyph-name="sterling" unicode="&#xa3;" 
d="M269 849q-9 34 -17.5 62.5t-14.5 56t-9.5 56.5t-3.5 63q0 87 30.5 155t92 114.5t153 70.5t214.5 24q49 0 88.5 -2.5t74 -6.5t64 -10.5t58.5 -12.5l-30 -241q-31 6 -58.5 10t-55.5 7.5t-58.5 5t-65.5 1.5q-52 0 -88.5 -10t-60 -30t-34 -49t-10.5 -67q0 -27 3 -51
t8.5 -47.5t13 -47.5t15.5 -51h342v-250h-310q0 -6 0.5 -11t0.5 -10q0 -43 -6 -85t-17.5 -82.5t-27.5 -79t-36 -73.5h477v-258h-913v258h119q19 34 35.5 71t29 77t19.5 82.5t7 86.5v12t-1 12h-163v250h135z" />
    <glyph glyph-name="currency" unicode="&#xa4;" horiz-adv-x="1291" 
d="M230 469q-25 45 -41 110.5t-16 138.5t14 133t38 108l-169 171l172 171l168 -167q47 26 106.5 42.5t141.5 16.5q83 0 144 -17t106 -43l170 168l172 -171l-172 -173q22 -46 37 -106t15 -133t-15.5 -135t-41.5 -113l175 -176l-172 -172l-177 177q-41 -22 -100 -39.5
t-141 -17.5q-79 0 -137 16t-102 41l-179 -177l-172 172zM867 718q0 61 -13.5 108.5t-41 80t-69.5 49t-99 16.5t-99 -16.5t-69 -49t-40.5 -80t-13.5 -108.5t13.5 -108t40.5 -79t69 -49t99 -17t99 17t69.5 49t41 79t13.5 108z" />
    <glyph glyph-name="yen" unicode="&#xa5;" 
d="M382 149h-270v213h270v116h-270v213h214l-292 732h337l113 -303q12 -35 21.5 -63t17.5 -54t15.5 -53.5t16.5 -63.5h5q10 37 18 65t15.5 53.5t15.5 52.5t18 62l102 304h323l-292 -732h213v-213h-270v-116h270v-213h-270v-149h-321v149z" />
    <glyph glyph-name="brokenbar" unicode="&#xa6;" horiz-adv-x="578" 
d="M134 338h310v-767h-310v767zM134 1511h310v-773h-310v773z" />
    <glyph glyph-name="section" unicode="&#xa7;" horiz-adv-x="1183" 
d="M262 -70q63 -17 123 -24t127 -7q90 0 129 19.5t39 64.5q0 21 -10 39t-40.5 41.5t-85 54.5t-140.5 81q-94 54 -153.5 97.5t-91.5 87t-44 90t-12 105.5q0 56 15 102.5t42 85t63 70.5t78 61q-61 53 -83 105.5t-22 127.5q0 84 29 145t86 99t144.5 57t204.5 19q81 0 159 -11
t143 -30l-40 -238q-64 16 -123.5 23.5t-126.5 7.5q-91 0 -130 -20.5t-39 -63.5q0 -23 10 -40t41 -40.5t85 -55t140 -81.5q95 -53 154 -96.5t91 -87.5t44 -90.5t12 -104.5t-16 -105t-43.5 -87t-65.5 -72t-81 -62q60 -54 87 -106t27 -120q0 -84 -29.5 -145t-86.5 -99.5
t-145 -57t-204 -18.5q-81 0 -158.5 10.5t-142.5 30.5zM605 703q-27 17 -49 30t-44 25q-49 -34 -83.5 -69t-34.5 -91q0 -29 10 -52t31.5 -45.5t56.5 -46.5t86 -55q27 -17 49 -30t46 -26q47 35 81.5 69.5t34.5 91.5q0 29 -10 52t-31.5 45.5t-56.5 46t-86 55.5z" />
    <glyph glyph-name="dieresis" unicode="&#xa8;" horiz-adv-x="1160" 
d="M508 1344q0 -92 -34 -125.5t-132 -33.5t-132 34.5t-34 124.5t34 124.5t132 34.5q97 0 131.5 -34.5t34.5 -124.5zM977 1344q0 -90 -34.5 -124.5t-131.5 -34.5q-98 0 -132.5 34.5t-34.5 124.5t34.5 124.5t132.5 34.5q97 0 131.5 -34.5t34.5 -124.5z" />
    <glyph glyph-name="copyright" unicode="&#xa9;" horiz-adv-x="1857" 
d="M1215 338q-60 -17 -125.5 -27.5t-138.5 -10.5q-107 0 -186 21t-130.5 72.5t-77.5 137.5t-26 216q0 128 28.5 215.5t82.5 142t134.5 79t186.5 24.5q68 0 131 -9.5t123 -24.5l-27 -183q-54 13 -105.5 20t-95.5 7q-51 0 -88.5 -10.5t-62.5 -38.5t-38 -79t-13 -134
q0 -84 13 -136.5t39.5 -80.5t64 -38.5t87.5 -10.5q46 0 96 7t103 22zM1717 758q0 -187 -54 -332.5t-155 -247t-248 -155t-333 -53.5q-189 0 -335.5 52t-246.5 152t-152 245.5t-52 334.5q0 186 53.5 332t154.5 247.5t248 154.5t334 53q188 0 334.5 -51.5t246.5 -152
t152.5 -246t52.5 -333.5zM1491 756q0 145 -34 256.5t-102.5 186t-174 112.5t-251.5 38t-252 -38t-175.5 -112.5t-102 -186t-32.5 -256.5q0 -146 32.5 -257t102 -186t175.5 -112.5t252 -37.5t251.5 37.5t174 112.5t102.5 186t34 257z" />
    <glyph glyph-name="ordfeminine" unicode="&#xaa;" horiz-adv-x="795" 
d="M467 1206q0 33 -23 50.5t-86 17.5q-51 0 -101 -6.5t-114 -22.5l-25 172q34 8 66 14.5t66 10t70 6.5t79 3q148 0 222.5 -52t74.5 -181v-505h-187l-12 60q-54 -39 -106.5 -60t-124.5 -21q-42 0 -81 13t-67.5 40t-45.5 68t-17 95q0 57 18 105t58 82t105 53t161 19h70v39z
M416 1017q-80 0 -112.5 -22.5t-32.5 -61.5t19.5 -55t49.5 -16q31 0 61.5 14.5t65.5 42.5v98h-51zM67 595h638v-191h-638v191z" />
    <glyph glyph-name="guillemotleft" unicode="&#xab;" horiz-adv-x="1230" 
d="M593 510l314 482l243 -125l-216 -355l213 -358l-240 -130zM62 510l330 505l243 -126l-231 -377l232 -385l-244 -126z" />
    <glyph glyph-name="logicalnot" unicode="&#xac;" 
d="M100 709h865v-508h-255v267h-610v241z" />
    <glyph glyph-name="uni00AD" unicode="&#xad;" horiz-adv-x="878" 
d="M116 687h645v-280h-645v280z" />
    <glyph glyph-name="registered" unicode="&#xae;" horiz-adv-x="983" 
d="M892 1077q0 -177 -108.5 -276.5t-291.5 -99.5q-184 0 -292.5 99.5t-108.5 276.5t108.5 276.5t292.5 99.5q183 0 291.5 -99.5t108.5 -276.5zM758 1077q0 130 -64 196.5t-202 66.5q-139 0 -203 -66.5t-64 -196.5t64 -196.5t203 -66.5q138 0 202 66.5t64 196.5zM336 1277
h162q97 0 134.5 -28t37.5 -87q0 -52 -19.5 -81t-54.5 -41l68 -158h-132l-60 146h-17v-146h-119v395zM490 1107q32 0 43.5 11t11.5 36q0 20 -10 28t-41 8h-39v-83h35z" />
    <glyph glyph-name="macron" unicode="&#xaf;" horiz-adv-x="1161" 
d="M275 1454h638v-231h-638v231z" />
    <glyph glyph-name="degree" unicode="&#xb0;" horiz-adv-x="884" 
d="M815 1195q0 -86 -28 -150t-78.5 -107t-119.5 -64.5t-151 -21.5t-150 20.5t-117 61.5t-76 104t-27 149q0 84 28 148.5t78.5 107.5t119.5 65t152 22q81 0 149 -21t117 -62t76 -104.5t27 -147.5zM580 1189q0 65 -37.5 104.5t-102.5 39.5t-100.5 -38t-35.5 -103t37.5 -105
t101.5 -40q65 0 101 38.5t36 103.5z" />
    <glyph glyph-name="plusminus" unicode="&#xb1;" 
d="M98 941h317v334h255v-334h318v-240h-318v-334h-255v334h-317v240zM98 240h890v-240h-890v240z" />
    <glyph glyph-name="twosuperior" unicode="&#xb2;" horiz-adv-x="640" 
d="M45 890l126 121q60 57 89.5 94t29.5 78q0 31 -22 47.5t-61 16.5q-31 0 -60 -5.5t-65 -15.5l-22 185q62 16 116.5 23t120.5 7q137 0 206 -55.5t69 -142.5q0 -89 -42.5 -148.5t-123.5 -121.5l-78 -66h252v-194h-535v177z" />
    <glyph glyph-name="threesuperior" unicode="&#xb3;" horiz-adv-x="609" 
d="M48 888q34 -7 64 -11.5t64 -4.5q63 0 90.5 14.5t27.5 48.5q0 15 -7 25.5t-26.5 17.5t-55.5 10.5t-95 3.5v165q103 0 140 15.5t37 44.5q0 27 -24 38t-74 11q-35 0 -66.5 -5t-62.5 -13l-21 167q47 11 103 18.5t109 7.5q143 0 214 -45t71 -128q0 -65 -30.5 -107t-82.5 -68
q59 -14 96.5 -54t37.5 -106q0 -115 -81.5 -175t-240.5 -60q-61 0 -109 4t-96 14z" />
    <glyph glyph-name="acute" unicode="&#xb4;" horiz-adv-x="808" 
d="M506 1604l181 -206l-385 -274l-138 156z" />
    <glyph glyph-name="mu" unicode="&#xb5;" horiz-adv-x="1199" 
d="M126 1021h326v-635q0 -86 25 -115t77 -29q41 0 87 21t107 61v697h325v-1021h-268l-18 100q-25 -21 -53 -40.5t-59 -36.5t-62.5 -27t-63.5 -10q-39 0 -63.5 12t-44.5 30l-2 -2q7 -52 10 -97.5t3 -96.5v-261h-326v1450z" />
    <glyph glyph-name="paragraph" unicode="&#xb6;" horiz-adv-x="1239" 
d="M525 430q-126 2 -208 29t-130.5 88.5t-68 162t-19.5 247.5q0 140 26.5 230.5t86 142.5t154.5 72.5t231 20.5h596v-158h-141v-1591h-193v1591h-141v-1591h-193v756z" />
    <glyph glyph-name="periodcentered" unicode="&#xb7;" horiz-adv-x="534" 
d="M445 532q0 -50 -8 -82.5t-28.5 -52.5t-54 -27.5t-86.5 -7.5q-54 0 -88 7.5t-54.5 27.5t-28 52.5t-7.5 82.5t7.5 83t28 53t54.5 27.5t88 7.5q53 0 86.5 -7.5t54 -27.5t28.5 -53t8 -83z" />
    <glyph glyph-name="cedilla" unicode="&#xb8;" horiz-adv-x="643" 
d="M195 0h184l-10 -80q98 -4 147 -46.5t49 -116.5q0 -99 -74.5 -151.5t-212.5 -52.5q-93 0 -170 16l20 139q32 -4 59 -7.5t52 -3.5q51 0 75 12.5t24 39.5q0 25 -20.5 36t-75.5 11h-71z" />
    <glyph glyph-name="onesuperior" unicode="&#xb9;" horiz-adv-x="507" 
d="M175 1188l-107 -60l-81 142l223 156h202v-713h-237v475z" />
    <glyph glyph-name="ordmasculine" unicode="&#xba;" horiz-adv-x="838" 
d="M764 1076q0 -111 -22.5 -185.5t-67 -120t-110 -65t-151.5 -19.5t-150 17t-105.5 59.5t-63 115t-21.5 184.5q0 110 23 184t67.5 119.5t110 65.5t149.5 20q86 0 150 -18t106.5 -61t63.5 -115t21 -181zM529 1068q0 61 -5.5 101t-19.5 63.5t-34.5 32t-51.5 8.5
q-28 0 -49 -8.5t-34 -32t-19.5 -63.5t-6.5 -101q0 -63 6.5 -102.5t19.5 -62.5t34 -31.5t49 -8.5q31 0 52.5 8.5t34.5 32t18.5 62.5t5.5 102zM112 595h614v-191h-614v191z" />
    <glyph glyph-name="guillemotright" unicode="&#xbb;" horiz-adv-x="1230" 
d="M826 504l-232 385l244 126l330 -509l-330 -505l-243 126zM296 504l-213 358l241 130l313 -486l-313 -482l-244 125z" />
    <glyph glyph-name="onequarter" unicode="&#xbc;" horiz-adv-x="1524" 
d="M1091 1473l168 -111l-939 -1413l-169 112zM175 1188l-107 -60l-81 142l223 156h202v-713h-237v475zM856 297l222 416h339v-401h76v-195h-76v-117h-231v117h-330v180zM1186 312v229l-125 -229h125z" />
    <glyph glyph-name="onehalf" unicode="&#xbd;" horiz-adv-x="1575" 
d="M1091 1473l168 -111l-939 -1413l-169 112zM175 1188l-107 -60l-81 142l223 156h202v-713h-237v475zM980 177l126 121q60 57 89.5 94t29.5 78q0 31 -22 47.5t-61 16.5q-31 0 -60 -5.5t-65 -15.5l-22 185q62 16 116.5 23t120.5 7q137 0 206 -55.5t69 -142.5
q0 -89 -42.5 -148.5t-123.5 -121.5l-78 -66h252v-194h-535v177z" />
    <glyph glyph-name="threequarters" unicode="&#xbe;" horiz-adv-x="1612" 
d="M1179 1473l168 -111l-939 -1413l-169 112zM944 297l222 416h339v-401h76v-195h-76v-117h-231v117h-330v180zM1274 312v229l-125 -229h125zM80 888q34 -7 64 -11.5t64 -4.5q63 0 90.5 14.5t27.5 48.5q0 15 -7 25.5t-26.5 17.5t-55.5 10.5t-95 3.5v165q103 0 140 15.5
t37 44.5q0 27 -24 38t-74 11q-35 0 -66.5 -5t-62.5 -13l-21 167q47 11 103 18.5t109 7.5q143 0 214 -45t71 -128q0 -65 -30.5 -107t-82.5 -68q59 -14 96.5 -54t37.5 -106q0 -115 -81.5 -175t-240.5 -60q-61 0 -109 4t-96 14z" />
    <glyph glyph-name="questiondown" unicode="&#xbf;" horiz-adv-x="750" 
d="M566 656l2 -101q2 -73 -0.5 -123t-15 -92t-38.5 -84.5t-72 -96.5q-35 -41 -60 -72.5t-41 -60t-23.5 -56.5t-7.5 -63q0 -52 38.5 -81t128.5 -29q55 0 109.5 9t118.5 28l36 -236q-88 -23 -168 -34.5t-173 -11.5q-216 0 -316.5 77t-100.5 237q0 66 10.5 117.5t32.5 98
t57.5 93.5t87.5 104q36 41 61 73.5t40 65t22.5 65t8.5 70.5l3 103h260zM602 953q0 -45 -8 -76t-26.5 -50t-50 -27t-80.5 -8q-97 0 -131 35.5t-34 125.5q0 45 7.5 76.5t26 50.5t51 26.5t80.5 7.5q97 0 131 -35.5t34 -125.5z" />
    <glyph glyph-name="Agrave" unicode="&#xc0;" horiz-adv-x="1317" 
d="M409 1423h495l392 -1423h-344l-90 341h-428l-91 -341h-323zM812 591l-90 342q-10 37 -20 72.5t-19 72t-18.5 72t-17.5 73.5h-3q-9 -39 -18 -75.5t-18.5 -74t-19.5 -73.5t-20 -75l-84 -334h328zM405 1915l460 -212l-81 -184l-483 157z" />
    <glyph glyph-name="Aacute" unicode="&#xc1;" horiz-adv-x="1317" 
d="M409 1423h495l392 -1423h-344l-90 341h-428l-91 -341h-323zM812 591l-90 342q-10 37 -20 72.5t-19 72t-18.5 72t-17.5 73.5h-3q-9 -39 -18 -75.5t-18.5 -74t-19.5 -73.5t-20 -75l-84 -334h328zM901 1915l103 -239l-482 -157l-82 184z" />
    <glyph glyph-name="Acircumflex" unicode="&#xc2;" horiz-adv-x="1317" 
d="M409 1423h495l392 -1423h-344l-90 341h-428l-91 -341h-323zM812 591l-90 342q-10 37 -20 72.5t-19 72t-18.5 72t-17.5 73.5h-3q-9 -39 -18 -75.5t-18.5 -74t-19.5 -73.5t-20 -75l-84 -334h328zM651 1895l363 -187l-90 -181l-283 118l-276 -118l-88 181z" />
    <glyph glyph-name="Atilde" unicode="&#xc3;" horiz-adv-x="1317" 
d="M409 1423h495l392 -1423h-344l-90 341h-428l-91 -341h-323zM812 591l-90 342q-10 37 -20 72.5t-19 72t-18.5 72t-17.5 73.5h-3q-9 -39 -18 -75.5t-18.5 -74t-19.5 -73.5t-20 -75l-84 -334h328zM241 1694q41 65 107.5 109.5t168.5 44.5q49 0 86.5 -11t68.5 -23.5
t59.5 -23.5t61.5 -11q39 0 69 17t59 51l130 -132q-41 -64 -107.5 -109t-168.5 -45q-49 0 -86 11t-69 23.5t-60 23.5t-60 11q-39 0 -69.5 -17t-58.5 -51z" />
    <glyph glyph-name="Adieresis" unicode="&#xc4;" horiz-adv-x="1317" 
d="M409 1423h495l392 -1423h-344l-90 341h-428l-91 -341h-323zM812 591l-90 342q-10 37 -20 72.5t-19 72t-18.5 72t-17.5 73.5h-3q-9 -39 -18 -75.5t-18.5 -74t-19.5 -73.5t-20 -75l-84 -334h328zM560 1707q0 -44 -7 -73.5t-25.5 -47.5t-50 -25.5t-79.5 -7.5t-79 7.5
t-49.5 25.5t-25.5 47.5t-7 73.5q0 88 33.5 121.5t127.5 33.5q95 0 128.5 -33.5t33.5 -121.5zM1073 1707q0 -44 -7.5 -73.5t-26 -47.5t-50 -25.5t-78.5 -7.5q-48 0 -79.5 7.5t-50 25.5t-25.5 47.5t-7 73.5q0 88 34 121.5t128 33.5t128 -33.5t34 -121.5z" />
    <glyph glyph-name="Aring" unicode="&#xc5;" horiz-adv-x="1317" 
d="M409 1423h495l392 -1423h-344l-90 341h-428l-91 -341h-323zM812 591l-90 342q-10 37 -20 72.5t-19 72t-18.5 72t-17.5 73.5h-3q-9 -39 -18 -75.5t-18.5 -74t-19.5 -73.5t-20 -75l-84 -334h328zM916 1732q0 -55 -20 -101t-55.5 -77.5t-85 -49t-107.5 -17.5
q-57 0 -107 17.5t-84.5 49t-54.5 77.5t-20 101q0 112 74 178.5t191 66.5q58 0 107.5 -17.5t85.5 -50t56 -77.5t20 -100zM743 1732q0 41 -25.5 66.5t-70.5 25.5q-43 0 -68 -25.5t-25 -66.5t25 -66.5t69 -25.5q45 0 70 25.5t25 66.5z" />
    <glyph glyph-name="AE" unicode="&#xc6;" horiz-adv-x="1812" 
d="M678 1423h1047v-255h-515v-319h480v-250h-480v-344h515v-255h-844v341h-430l-170 -341h-334zM881 591v616h-4l-310 -616h314z" />
    <glyph glyph-name="Ccedilla" unicode="&#xc7;" horiz-adv-x="1072" 
d="M1021 25q-84 -22 -170.5 -35.5t-153.5 -13.5h-12l-5 -54q113 -4 161.5 -45.5t48.5 -119.5q0 -104 -77.5 -156t-219.5 -52q-48 0 -94 4.5t-84 12.5l20 140q32 -5 63 -8.5t57 -3.5q55 0 81 13.5t26 41.5q0 24 -21 34.5t-75 10.5h-88l19 192q-94 15 -168.5 52.5t-126.5 117
t-80 211.5t-28 336q0 224 39 368.5t115 227.5t186 116.5t254 33.5q85 0 169 -12t164 -34l-37 -248q-69 19 -135 29t-130 10q-80 0 -136 -16.5t-91 -67t-51.5 -146t-16.5 -251.5q0 -158 16 -252.5t51.5 -146.5t91 -68t137.5 -16q62 0 126.5 10.5t137.5 32.5z" />
    <glyph glyph-name="Egrave" unicode="&#xc8;" horiz-adv-x="1064" 
d="M134 1423h844v-255h-516v-319h480v-250h-480v-344h516v-255h-844v1423zM313 1915l460 -212l-81 -184l-483 157z" />
    <glyph glyph-name="Eacute" unicode="&#xc9;" horiz-adv-x="1064" 
d="M134 1423h844v-255h-516v-319h480v-250h-480v-344h516v-255h-844v1423zM822 1915l103 -239l-482 -157l-82 184z" />
    <glyph glyph-name="Ecircumflex" unicode="&#xca;" horiz-adv-x="1064" 
d="M134 1423h844v-255h-516v-319h480v-250h-480v-344h516v-255h-844v1423zM564 1895l363 -187l-90 -181l-283 118l-276 -118l-88 181z" />
    <glyph glyph-name="Edieresis" unicode="&#xcb;" horiz-adv-x="1064" 
d="M134 1423h844v-255h-516v-319h480v-250h-480v-344h516v-255h-844v1423zM460 1707q0 -44 -7 -73.5t-25.5 -47.5t-50 -25.5t-79.5 -7.5t-79 7.5t-49.5 25.5t-25.5 47.5t-7 73.5q0 88 33.5 121.5t127.5 33.5q95 0 128.5 -33.5t33.5 -121.5zM973 1707q0 -44 -7.5 -73.5
t-26 -47.5t-50 -25.5t-78.5 -7.5q-48 0 -79.5 7.5t-50 25.5t-25.5 47.5t-7 73.5q0 88 34 121.5t128 33.5t128 -33.5t34 -121.5z" />
    <glyph glyph-name="Igrave" unicode="&#xcc;" horiz-adv-x="595" 
d="M134 1423h328v-1423h-328v1423zM83 1915l460 -212l-81 -184l-483 157z" />
    <glyph glyph-name="Iacute" unicode="&#xcd;" horiz-adv-x="595" 
d="M134 1423h328v-1423h-328v1423zM520 1915l103 -239l-482 -157l-82 184z" />
    <glyph glyph-name="Icircumflex" unicode="&#xce;" horiz-adv-x="595" 
d="M134 1423h328v-1423h-328v1423zM305 1895l363 -187l-90 -181l-283 118l-276 -118l-88 181z" />
    <glyph glyph-name="Idieresis" unicode="&#xcf;" horiz-adv-x="595" 
d="M134 1423h328v-1423h-328v1423zM238 1707q0 -86 -34 -120t-129 -34q-94 0 -127.5 34t-33.5 120q0 88 33.5 121.5t127.5 33.5q95 0 129 -33.5t34 -121.5zM689 1707q0 -86 -33.5 -120t-127.5 -34q-95 0 -129 34t-34 120q0 88 34 121.5t129 33.5q94 0 127.5 -33.5
t33.5 -121.5z" />
    <glyph glyph-name="Eth" unicode="&#xd0;" horiz-adv-x="1375" 
d="M172 620h-148v240h148v563h493q172 0 290.5 -29t191 -106.5t106 -213t33.5 -350.5q0 -211 -35 -350.5t-111.5 -222.5t-195.5 -117t-288 -34h-484v620zM654 255q83 0 140.5 16.5t94 66.5t51.5 139.5t15 237.5q0 147 -15 236.5t-50 138t-92 63.5t-143 15h-155v-308h255
v-240h-255v-365h154z" />
    <glyph glyph-name="Ntilde" unicode="&#xd1;" horiz-adv-x="1452" 
d="M134 1423h419l345 -693q23 -49 43.5 -95t39.5 -92t38.5 -94t40.5 -104l4 2q-15 111 -22 206t-7 177v693h284v-1423h-422l-343 694q-23 49 -43.5 94.5t-39.5 91.5t-38.5 94t-38.5 105l-4 -2q11 -109 19.5 -205.5t8.5 -177.5v-694h-284v1423zM295 1694q41 65 107.5 109.5
t168.5 44.5q49 0 86.5 -11t68.5 -23.5t59.5 -23.5t61.5 -11q39 0 69 17t59 51l130 -132q-41 -64 -107.5 -109t-168.5 -45q-49 0 -86 11t-69 23.5t-60 23.5t-60 11q-39 0 -69.5 -17t-58.5 -51z" />
    <glyph glyph-name="Ograve" unicode="&#xd2;" horiz-adv-x="1359" 
d="M1265 720q0 -225 -39 -370.5t-115 -229.5t-187.5 -117t-255.5 -33t-251.5 30.5t-179.5 112t-107.5 223.5t-35.5 367q0 226 39 371.5t114 229t186 116.5t255 33t252 -30t180 -111.5t108.5 -224t36.5 -367.5zM935 711q0 151 -14 246.5t-44.5 148.5t-79.5 72.5t-118 19.5
q-71 0 -118.5 -18.5t-78 -71.5t-44.5 -148t-14 -247t14 -247t44.5 -148.5t78 -73t118.5 -19.5q69 0 118 18.5t79.5 72t44.5 148t14 247.5zM414 1915l460 -212l-81 -184l-483 157z" />
    <glyph glyph-name="Oacute" unicode="&#xd3;" horiz-adv-x="1359" 
d="M1265 720q0 -225 -39 -370.5t-115 -229.5t-187.5 -117t-255.5 -33t-251.5 30.5t-179.5 112t-107.5 223.5t-35.5 367q0 226 39 371.5t114 229t186 116.5t255 33t252 -30t180 -111.5t108.5 -224t36.5 -367.5zM935 711q0 151 -14 246.5t-44.5 148.5t-79.5 72.5t-118 19.5
q-71 0 -118.5 -18.5t-78 -71.5t-44.5 -148t-14 -247t14 -247t44.5 -148.5t78 -73t118.5 -19.5q69 0 118 18.5t79.5 72t44.5 148t14 247.5zM959 1915l103 -239l-482 -157l-82 184z" />
    <glyph glyph-name="Ocircumflex" unicode="&#xd4;" horiz-adv-x="1359" 
d="M1265 720q0 -225 -39 -370.5t-115 -229.5t-187.5 -117t-255.5 -33t-251.5 30.5t-179.5 112t-107.5 223.5t-35.5 367q0 226 39 371.5t114 229t186 116.5t255 33t252 -30t180 -111.5t108.5 -224t36.5 -367.5zM935 711q0 151 -14 246.5t-44.5 148.5t-79.5 72.5t-118 19.5
q-71 0 -118.5 -18.5t-78 -71.5t-44.5 -148t-14 -247t14 -247t44.5 -148.5t78 -73t118.5 -19.5q69 0 118 18.5t79.5 72t44.5 148t14 247.5zM683 1895l363 -187l-90 -181l-283 118l-276 -118l-88 181z" />
    <glyph glyph-name="Otilde" unicode="&#xd5;" horiz-adv-x="1359" 
d="M1265 720q0 -225 -39 -370.5t-115 -229.5t-187.5 -117t-255.5 -33t-251.5 30.5t-179.5 112t-107.5 223.5t-35.5 367q0 226 39 371.5t114 229t186 116.5t255 33t252 -30t180 -111.5t108.5 -224t36.5 -367.5zM935 711q0 151 -14 246.5t-44.5 148.5t-79.5 72.5t-118 19.5
q-71 0 -118.5 -18.5t-78 -71.5t-44.5 -148t-14 -247t14 -247t44.5 -148.5t78 -73t118.5 -19.5q69 0 118 18.5t79.5 72t44.5 148t14 247.5zM270 1694q41 65 107.5 109.5t168.5 44.5q49 0 86.5 -11t68.5 -23.5t59.5 -23.5t61.5 -11q39 0 69 17t59 51l130 -132
q-41 -64 -107.5 -109t-168.5 -45q-49 0 -86 11t-69 23.5t-60 23.5t-60 11q-39 0 -69.5 -17t-58.5 -51z" />
    <glyph glyph-name="Odieresis" unicode="&#xd6;" horiz-adv-x="1359" 
d="M1265 720q0 -225 -39 -370.5t-115 -229.5t-187.5 -117t-255.5 -33t-251.5 30.5t-179.5 112t-107.5 223.5t-35.5 367q0 226 39 371.5t114 229t186 116.5t255 33t252 -30t180 -111.5t108.5 -224t36.5 -367.5zM935 711q0 151 -14 246.5t-44.5 148.5t-79.5 72.5t-118 19.5
q-71 0 -118.5 -18.5t-78 -71.5t-44.5 -148t-14 -247t14 -247t44.5 -148.5t78 -73t118.5 -19.5q69 0 118 18.5t79.5 72t44.5 148t14 247.5zM586 1707q0 -44 -7 -73.5t-25.5 -47.5t-50 -25.5t-79.5 -7.5t-79 7.5t-49.5 25.5t-25.5 47.5t-7 73.5q0 88 33.5 121.5t127.5 33.5
q95 0 128.5 -33.5t33.5 -121.5zM1099 1707q0 -44 -7.5 -73.5t-26 -47.5t-50 -25.5t-78.5 -7.5q-48 0 -79.5 7.5t-50 25.5t-25.5 47.5t-7 73.5q0 88 34 121.5t128 33.5t128 -33.5t34 -121.5z" />
    <glyph glyph-name="multiply" unicode="&#xd7;" 
d="M371 589l-285 283l173 174l284 -285l283 285l174 -174l-286 -283l286 -283l-174 -174l-283 285l-284 -285l-174 174z" />
    <glyph glyph-name="Oslash" unicode="&#xd8;" horiz-adv-x="1401" 
d="M284 73q-36 31 -70.5 74.5t-60.5 116t-42.5 179t-16.5 260.5q0 226 40 371.5t117 229t192 116.5t266 33q53 0 98.5 -5t91.5 -15l94 213l217 -83l-95 -210q47 -40 82.5 -93.5t60 -129t37 -176t12.5 -234.5q0 -226 -40 -371t-118 -229t-194 -117t-266 -33q-51 0 -100 5
t-88 17l-91 -199l-215 82zM804 1198q-26 10 -47 14t-58 4q-78 0 -132.5 -20t-90.5 -76t-52 -154t-16 -253q0 -63 2 -111t5.5 -86.5t7.5 -69t9 -55.5zM592 227q29 -13 51.5 -16.5t55.5 -3.5q79 0 134.5 20.5t90.5 76t52 153.5t17 254q0 59 -2 108t-5.5 89t-8 71.5t-10.5 58.5
z" />
    <glyph glyph-name="Ugrave" unicode="&#xd9;" horiz-adv-x="1338" 
d="M437 1423v-823q0 -108 11 -180.5t37.5 -115.5t71.5 -61t115 -18q67 0 112 18.5t70.5 62t36 115.5t10.5 179v823h328v-809q0 -172 -29 -294.5t-96.5 -200t-176.5 -113.5t-267 -36q-156 0 -261 33t-169.5 106.5t-93 193t-28.5 293.5v827h329zM407 1915l460 -212l-81 -184
l-483 157z" />
    <glyph glyph-name="Uacute" unicode="&#xda;" horiz-adv-x="1338" 
d="M437 1423v-823q0 -108 11 -180.5t37.5 -115.5t71.5 -61t115 -18q67 0 112 18.5t70.5 62t36 115.5t10.5 179v823h328v-809q0 -172 -29 -294.5t-96.5 -200t-176.5 -113.5t-267 -36q-156 0 -261 33t-169.5 106.5t-93 193t-28.5 293.5v827h329zM942 1915l103 -239l-482 -157
l-82 184z" />
    <glyph glyph-name="Ucircumflex" unicode="&#xdb;" horiz-adv-x="1338" 
d="M437 1423v-823q0 -108 11 -180.5t37.5 -115.5t71.5 -61t115 -18q67 0 112 18.5t70.5 62t36 115.5t10.5 179v823h328v-809q0 -172 -29 -294.5t-96.5 -200t-176.5 -113.5t-267 -36q-156 0 -261 33t-169.5 106.5t-93 193t-28.5 293.5v827h329zM671 1895l363 -187l-90 -181
l-283 118l-276 -118l-88 181z" />
    <glyph glyph-name="Udieresis" unicode="&#xdc;" horiz-adv-x="1338" 
d="M437 1423v-823q0 -108 11 -180.5t37.5 -115.5t71.5 -61t115 -18q67 0 112 18.5t70.5 62t36 115.5t10.5 179v823h328v-809q0 -172 -29 -294.5t-96.5 -200t-176.5 -113.5t-267 -36q-156 0 -261 33t-169.5 106.5t-93 193t-28.5 293.5v827h329zM574 1707q0 -44 -7 -73.5
t-25.5 -47.5t-50 -25.5t-79.5 -7.5t-79 7.5t-49.5 25.5t-25.5 47.5t-7 73.5q0 88 33.5 121.5t127.5 33.5q95 0 128.5 -33.5t33.5 -121.5zM1087 1707q0 -44 -7.5 -73.5t-26 -47.5t-50 -25.5t-78.5 -7.5q-48 0 -79.5 7.5t-50 25.5t-25.5 47.5t-7 73.5q0 88 34 121.5t128 33.5
t128 -33.5t34 -121.5z" />
    <glyph glyph-name="Yacute" unicode="&#xdd;" horiz-adv-x="1191" 
d="M430 517l-442 906h330l167 -313q21 -38 36.5 -70.5t29 -64.5t26.5 -64.5t27 -69.5h6q15 41 27.5 74.5t25 64.5t26.5 63t31 67l153 313h330l-450 -909v-514h-323v517zM860 1915l103 -239l-482 -157l-82 184z" />
    <glyph glyph-name="Thorn" unicode="&#xde;" horiz-adv-x="1162" 
d="M134 1423h328v-253h119q139 0 238.5 -17.5t163 -64.5t92.5 -130t29 -211t-29.5 -218.5t-95 -147t-168.5 -83t-251 -26.5h-98v-272h-328v1423zM569 519q112 0 160.5 52.5t48.5 163.5q0 55 -10.5 91t-35 57.5t-63.5 30.5t-97 9h-110v-404h107z" />
    <glyph glyph-name="germandbls" unicode="&#xdf;" horiz-adv-x="1240" 
d="M126 1123q0 116 31.5 196t93.5 129t156 71t221 22q227 0 333.5 -76.5t106.5 -228.5q0 -41 -6 -74.5t-20.5 -67t-37 -69t-54.5 -80.5q-20 -26 -34 -44.5t-23.5 -34t-14.5 -31t-5 -34.5t7 -33t24.5 -31t46 -39.5t70.5 -53.5q56 -43 94.5 -78t62.5 -71t35.5 -78t11.5 -97
q0 -166 -106 -253t-334 -87q-51 0 -119 8t-125 24l31 231q51 -14 110 -21t107 -7q61 0 93 20t32 61q0 21 -7 37.5t-27.5 35t-55 42.5t-88.5 62q-50 35 -83 64t-52.5 60.5t-27 68t-7.5 84.5q0 37 9 72t25 69t37.5 70.5t46.5 78.5q16 24 28 43.5t20 38.5t12.5 37.5t4.5 37.5
q0 51 -34 75t-106 24q-82 0 -119.5 -38t-37.5 -127v-1131h-326v1123z" />
    <glyph glyph-name="agrave" unicode="&#xe0;" horiz-adv-x="1064" 
d="M622 689q0 55 -30.5 81.5t-116.5 26.5q-73 0 -143 -10.5t-146 -26.5l-31 236q89 20 183 33.5t193 13.5q119 0 199.5 -18.5t128.5 -59t68 -104.5t20 -155v-706h-267l-16 89q-71 -45 -140.5 -76t-159.5 -31q-131 0 -214.5 75.5t-83.5 233.5q0 80 27 143.5t85.5 109t150 70
t221.5 24.5h72v51zM569 434q-61 0 -102.5 -8.5t-67 -22.5t-36.5 -37t-11 -51q0 -52 25 -74.5t66 -22.5q44 0 84.5 20t94.5 60v136h-53zM400 1604l342 -324l-138 -156l-385 274z" />
    <glyph glyph-name="aacute" unicode="&#xe1;" horiz-adv-x="1064" 
d="M622 689q0 55 -30.5 81.5t-116.5 26.5q-73 0 -143 -10.5t-146 -26.5l-31 236q89 20 183 33.5t193 13.5q119 0 199.5 -18.5t128.5 -59t68 -104.5t20 -155v-706h-267l-16 89q-71 -45 -140.5 -76t-159.5 -31q-131 0 -214.5 75.5t-83.5 233.5q0 80 27 143.5t85.5 109t150 70
t221.5 24.5h72v51zM569 434q-61 0 -102.5 -8.5t-67 -22.5t-36.5 -37t-11 -51q0 -52 25 -74.5t66 -22.5q44 0 84.5 20t94.5 60v136h-53zM685 1604l181 -206l-385 -274l-138 156z" />
    <glyph glyph-name="acircumflex" unicode="&#xe2;" horiz-adv-x="1064" 
d="M622 689q0 55 -30.5 81.5t-116.5 26.5q-73 0 -143 -10.5t-146 -26.5l-31 236q89 20 183 33.5t193 13.5q119 0 199.5 -18.5t128.5 -59t68 -104.5t20 -155v-706h-267l-16 89q-71 -45 -140.5 -76t-159.5 -31q-131 0 -214.5 75.5t-83.5 233.5q0 80 27 143.5t85.5 109t150 70
t221.5 24.5h72v51zM569 434q-61 0 -102.5 -8.5t-67 -22.5t-36.5 -37t-11 -51q0 -52 25 -74.5t66 -22.5q44 0 84.5 20t94.5 60v136h-53zM539 1575l368 -279l-126 -167l-247 163l-241 -160l-122 162z" />
    <glyph glyph-name="atilde" unicode="&#xe3;" horiz-adv-x="1064" 
d="M622 689q0 55 -30.5 81.5t-116.5 26.5q-73 0 -143 -10.5t-146 -26.5l-31 236q89 20 183 33.5t193 13.5q119 0 199.5 -18.5t128.5 -59t68 -104.5t20 -155v-706h-267l-16 89q-71 -45 -140.5 -76t-159.5 -31q-131 0 -214.5 75.5t-83.5 233.5q0 80 27 143.5t85.5 109t150 70
t221.5 24.5h72v51zM569 434q-61 0 -102.5 -8.5t-67 -22.5t-36.5 -37t-11 -51q0 -52 25 -74.5t66 -22.5q44 0 84.5 20t94.5 60v136h-53zM157 1302q19 36 44.5 71t60.5 63t77 46t93 18q45 0 80 -15t64 -31.5t55 -30.5t53 -14q38 0 61 25t43 63l148 -114q-18 -35 -44 -70.5
t-61 -63.5t-77 -45t-93 -17q-45 0 -79.5 14t-63 30.5t-54.5 31t-53 14.5q-39 0 -62.5 -25.5t-43.5 -61.5z" />
    <glyph glyph-name="adieresis" unicode="&#xe4;" horiz-adv-x="1064" 
d="M622 689q0 55 -30.5 81.5t-116.5 26.5q-73 0 -143 -10.5t-146 -26.5l-31 236q89 20 183 33.5t193 13.5q119 0 199.5 -18.5t128.5 -59t68 -104.5t20 -155v-706h-267l-16 89q-71 -45 -140.5 -76t-159.5 -31q-131 0 -214.5 75.5t-83.5 233.5q0 80 27 143.5t85.5 109t150 70
t221.5 24.5h72v51zM569 434q-61 0 -102.5 -8.5t-67 -22.5t-36.5 -37t-11 -51q0 -52 25 -74.5t66 -22.5q44 0 84.5 20t94.5 60v136h-53zM468 1344q0 -92 -34 -125.5t-132 -33.5t-132 34.5t-34 124.5t34 124.5t132 34.5q97 0 131.5 -34.5t34.5 -124.5zM937 1344
q0 -90 -34.5 -124.5t-131.5 -34.5q-98 0 -132.5 34.5t-34.5 124.5t34.5 124.5t132.5 34.5q97 0 131.5 -34.5t34.5 -124.5z" />
    <glyph glyph-name="aring" unicode="&#xe5;" horiz-adv-x="1064" 
d="M622 689q0 55 -30.5 81.5t-116.5 26.5q-73 0 -143 -10.5t-146 -26.5l-31 236q89 20 183 33.5t193 13.5q119 0 199.5 -18.5t128.5 -59t68 -104.5t20 -155v-706h-267l-16 89q-71 -45 -140.5 -76t-159.5 -31q-131 0 -214.5 75.5t-83.5 233.5q0 80 27 143.5t85.5 109t150 70
t221.5 24.5h72v51zM569 434q-61 0 -102.5 -8.5t-67 -22.5t-36.5 -37t-11 -51q0 -52 25 -74.5t66 -22.5q44 0 84.5 20t94.5 60v136h-53zM809 1371q0 -55 -19.5 -101t-54 -79t-82 -51.5t-105.5 -18.5q-56 0 -104.5 18.5t-82.5 51.5t-53 79t-19 101q0 56 19 102t53 79
t82.5 51.5t104.5 18.5q58 0 105.5 -18.5t82 -52t54 -80t19.5 -100.5zM637 1371q0 45 -23 71t-66 26q-42 0 -65 -26t-23 -71t23 -71t65 -26q43 0 66 26t23 71z" />
    <glyph glyph-name="ae" unicode="&#xe6;" horiz-adv-x="1592" 
d="M558 433q-61 0 -103 -8t-67.5 -22.5t-36 -37t-10.5 -50.5q0 -52 25 -74.5t65 -22.5q45 0 86.5 19.5t93.5 64.5v131h-53zM611 689q0 55 -30.5 81.5t-116.5 26.5q-73 0 -143 -10.5t-147 -26.5l-30 236q89 20 183 33.5t193 13.5q63 0 108.5 -7.5t79 -19.5t56 -28.5
t37.5 -33.5q21 19 47.5 37t62 31t81 21t101.5 8q109 0 188.5 -20.5t130.5 -73t76.5 -141t25.5 -225.5q0 -44 -3.5 -91t-7.5 -91h-567q2 -60 12.5 -96t35 -55.5t65 -26.5t104.5 -7q80 0 145.5 9t143.5 25l25 -238q-88 -19 -175 -30.5t-194 -11.5q-81 0 -142.5 8.5
t-108.5 25.5t-81 42t-61 57q-47 -33 -88 -58t-82.5 -41t-85.5 -23t-96 -7q-132 0 -215 75.5t-83 231.5q0 80 27 144.5t85.5 109.5t150 69.5t221.5 24.5h72v52zM1227 613q0 58 -8.5 95.5t-25.5 60t-43 31t-65 8.5q-36 0 -64 -9t-46.5 -31t-28 -59.5t-9.5 -95.5h290z" />
    <glyph glyph-name="ccedilla" unicode="&#xe7;" horiz-adv-x="889" 
d="M829 19q-31 -9 -68.5 -17t-73.5 -13t-67.5 -8t-51.5 -3h-8l-6 -58q98 -4 147 -46.5t49 -116.5q0 -99 -74.5 -151.5t-212.5 -52.5q-93 0 -170 16l19 139q33 -4 59.5 -7.5t52.5 -3.5q51 0 74.5 12.5t23.5 39.5q0 25 -20.5 36t-74.5 11h-71l21 197q-62 13 -117 40.5
t-95 84.5t-63.5 149.5t-23.5 236.5q0 154 35.5 257.5t98.5 166t152 89t198 26.5q69 0 139.5 -10t132.5 -27l-26 -236q-53 13 -102 20t-107 7q-47 0 -83 -12t-61 -43t-37.5 -86.5t-12.5 -143.5t9.5 -144.5t32.5 -88t60 -43.5t94 -12q44 0 98 8.5t106 22.5z" />
    <glyph glyph-name="egrave" unicode="&#xe8;" horiz-adv-x="1061" 
d="M936 20q-88 -19 -174.5 -30.5t-192.5 -11.5q-120 0 -212 22t-154 79.5t-93.5 159.5t-31.5 265q0 157 35 262t98.5 168.5t153 90t198.5 26.5q108 0 188 -20.5t130.5 -73t76 -141t25.5 -225.5q0 -44 -3.5 -90.5t-6.5 -92.5h-568q2 -60 13 -95.5t36.5 -55t66 -26.5t104.5 -7
q78 0 143 9t143 25zM696 612q0 59 -8.5 96.5t-25.5 60t-42.5 31t-65.5 8.5q-37 0 -64.5 -9t-45.5 -31t-27.5 -60t-10.5 -96h290zM395 1604l342 -324l-138 -156l-385 274z" />
    <glyph glyph-name="eacute" unicode="&#xe9;" horiz-adv-x="1061" 
d="M936 20q-88 -19 -174.5 -30.5t-192.5 -11.5q-120 0 -212 22t-154 79.5t-93.5 159.5t-31.5 265q0 157 35 262t98.5 168.5t153 90t198.5 26.5q108 0 188 -20.5t130.5 -73t76 -141t25.5 -225.5q0 -44 -3.5 -90.5t-6.5 -92.5h-568q2 -60 13 -95.5t36.5 -55t66 -26.5t104.5 -7
q78 0 143 9t143 25zM696 612q0 59 -8.5 96.5t-25.5 60t-42.5 31t-65.5 8.5q-37 0 -64.5 -9t-45.5 -31t-27.5 -60t-10.5 -96h290zM716 1604l181 -206l-385 -274l-138 156z" />
    <glyph glyph-name="ecircumflex" unicode="&#xea;" horiz-adv-x="1061" 
d="M936 20q-88 -19 -174.5 -30.5t-192.5 -11.5q-120 0 -212 22t-154 79.5t-93.5 159.5t-31.5 265q0 157 35 262t98.5 168.5t153 90t198.5 26.5q108 0 188 -20.5t130.5 -73t76 -141t25.5 -225.5q0 -44 -3.5 -90.5t-6.5 -92.5h-568q2 -60 13 -95.5t36.5 -55t66 -26.5t104.5 -7
q78 0 143 9t143 25zM696 612q0 59 -8.5 96.5t-25.5 60t-42.5 31t-65.5 8.5q-37 0 -64.5 -9t-45.5 -31t-27.5 -60t-10.5 -96h290zM546 1575l368 -279l-126 -167l-247 163l-241 -160l-122 162z" />
    <glyph glyph-name="edieresis" unicode="&#xeb;" horiz-adv-x="1061" 
d="M936 20q-88 -19 -174.5 -30.5t-192.5 -11.5q-120 0 -212 22t-154 79.5t-93.5 159.5t-31.5 265q0 157 35 262t98.5 168.5t153 90t198.5 26.5q108 0 188 -20.5t130.5 -73t76 -141t25.5 -225.5q0 -44 -3.5 -90.5t-6.5 -92.5h-568q2 -60 13 -95.5t36.5 -55t66 -26.5t104.5 -7
q78 0 143 9t143 25zM696 612q0 59 -8.5 96.5t-25.5 60t-42.5 31t-65.5 8.5q-37 0 -64.5 -9t-45.5 -31t-27.5 -60t-10.5 -96h290zM476 1344q0 -92 -34 -125.5t-132 -33.5t-132 34.5t-34 124.5t34 124.5t132 34.5q97 0 131.5 -34.5t34.5 -124.5zM945 1344q0 -90 -34.5 -124.5
t-131.5 -34.5q-98 0 -132.5 34.5t-34.5 124.5t34.5 124.5t132.5 34.5q97 0 131.5 -34.5t34.5 -124.5z" />
    <glyph glyph-name="igrave" unicode="&#xec;" horiz-adv-x="579" 
d="M126 1021h326v-1021h-326v1021zM170 1604l342 -324l-138 -156l-385 274z" />
    <glyph glyph-name="iacute" unicode="&#xed;" horiz-adv-x="579" 
d="M126 1021h326v-1021h-326v1021zM399 1604l181 -206l-385 -274l-138 156z" />
    <glyph glyph-name="icircumflex" unicode="&#xee;" horiz-adv-x="579" 
d="M126 1021h326v-1021h-326v1021zM289 1575l368 -279l-126 -167l-247 163l-241 -160l-122 162z" />
    <glyph glyph-name="idieresis" unicode="&#xef;" horiz-adv-x="579" 
d="M126 1021h326v-1021h-326v1021zM248 1344q0 -90 -34.5 -124t-130.5 -34t-130.5 35t-34.5 123t34.5 122.5t130.5 34.5t130.5 -34.5t34.5 -122.5zM671 1344q0 -90 -34 -124t-131 -34q-95 0 -129.5 35t-34.5 123t34.5 122.5t129.5 34.5q96 0 130.5 -34.5t34.5 -122.5z" />
    <glyph glyph-name="eth" unicode="&#xf0;" horiz-adv-x="1114" 
d="M437 1336q-14 20 -42 52.5t-49 57.5l266 130q30 -32 52 -57.5t42 -51.5l181 93l129 -184l-186 -95q94 -157 151.5 -344t57.5 -386q0 -162 -31.5 -272t-93.5 -178.5t-151.5 -99t-205.5 -30.5t-205.5 25.5t-149.5 86t-92 161.5t-32 250q0 134 28 229.5t80 156t125.5 89.5
t163.5 29q58 0 105.5 -13t82.5 -31l2 2q-24 58 -47.5 102t-53.5 93l-185 -93l-130 183zM724 505q0 28 -0.5 51.5t-3.5 47.5t-6.5 49t-8.5 54q-31 20 -67.5 32t-84.5 12q-35 0 -62.5 -11t-47.5 -40.5t-30.5 -79t-10.5 -125.5q0 -84 9.5 -137.5t30 -84.5t52.5 -43t75 -12
q41 0 70 13.5t48.5 46.5t28 88.5t8.5 138.5z" />
    <glyph glyph-name="ntilde" unicode="&#xf1;" horiz-adv-x="1187" 
d="M126 1021h268l18 -99q91 58 171 88t178 30q162 0 236 -80.5t74 -256.5v-703h-326v635q0 86 -24 115t-75 29q-41 0 -87.5 -20t-106.5 -61v-698h-326v1021zM204 1302q19 36 44.5 71t60.5 63t77 46t93 18q45 0 80 -15t64 -31.5t55 -30.5t53 -14q38 0 61 25t43 63l148 -114
q-18 -35 -44 -70.5t-61 -63.5t-77 -45t-93 -17q-45 0 -79.5 14t-63 30.5t-54.5 31t-53 14.5q-39 0 -62.5 -25.5t-43.5 -61.5z" />
    <glyph glyph-name="ograve" unicode="&#xf2;" horiz-adv-x="1130" 
d="M1050 519q0 -156 -33 -260.5t-97 -169t-155 -92t-207 -27.5q-117 0 -206.5 24t-149.5 84.5t-92 163.5t-32 262q0 157 33.5 261t96.5 167.5t154.5 91t206.5 27.5q117 0 207 -24t151 -84t92 -163t31 -261zM724 510q0 90 -8.5 147t-27.5 89.5t-50 45.5t-75 13t-74.5 -12.5
t-49 -45.5t-26.5 -89t-8 -145q0 -90 8 -148t26.5 -90.5t49.5 -45.5t75 -13t74.5 12.5t49.5 45.5t27.5 90t8.5 146zM402 1604l342 -324l-138 -156l-385 274z" />
    <glyph glyph-name="oacute" unicode="&#xf3;" horiz-adv-x="1130" 
d="M1050 519q0 -156 -33 -260.5t-97 -169t-155 -92t-207 -27.5q-117 0 -206.5 24t-149.5 84.5t-92 163.5t-32 262q0 157 33.5 261t96.5 167.5t154.5 91t206.5 27.5q117 0 207 -24t151 -84t92 -163t31 -261zM724 510q0 90 -8.5 147t-27.5 89.5t-50 45.5t-75 13t-74.5 -12.5
t-49 -45.5t-26.5 -89t-8 -145q0 -90 8 -148t26.5 -90.5t49.5 -45.5t75 -13t74.5 12.5t49.5 45.5t27.5 90t8.5 146zM729 1604l181 -206l-385 -274l-138 156z" />
    <glyph glyph-name="ocircumflex" unicode="&#xf4;" horiz-adv-x="1130" 
d="M1050 519q0 -156 -33 -260.5t-97 -169t-155 -92t-207 -27.5q-117 0 -206.5 24t-149.5 84.5t-92 163.5t-32 262q0 157 33.5 261t96.5 167.5t154.5 91t206.5 27.5q117 0 207 -24t151 -84t92 -163t31 -261zM724 510q0 90 -8.5 147t-27.5 89.5t-50 45.5t-75 13t-74.5 -12.5
t-49 -45.5t-26.5 -89t-8 -145q0 -90 8 -148t26.5 -90.5t49.5 -45.5t75 -13t74.5 12.5t49.5 45.5t27.5 90t8.5 146zM567 1575l368 -279l-126 -167l-247 163l-241 -160l-122 162z" />
    <glyph glyph-name="otilde" unicode="&#xf5;" horiz-adv-x="1130" 
d="M1050 519q0 -156 -33 -260.5t-97 -169t-155 -92t-207 -27.5q-117 0 -206.5 24t-149.5 84.5t-92 163.5t-32 262q0 157 33.5 261t96.5 167.5t154.5 91t206.5 27.5q117 0 207 -24t151 -84t92 -163t31 -261zM724 510q0 90 -8.5 147t-27.5 89.5t-50 45.5t-75 13t-74.5 -12.5
t-49 -45.5t-26.5 -89t-8 -145q0 -90 8 -148t26.5 -90.5t49.5 -45.5t75 -13t74.5 12.5t49.5 45.5t27.5 90t8.5 146zM169 1302q19 36 44.5 71t60.5 63t77 46t93 18q45 0 80 -15t64 -31.5t55 -30.5t53 -14q38 0 61 25t43 63l148 -114q-18 -35 -44 -70.5t-61 -63.5t-77 -45
t-93 -17q-45 0 -79.5 14t-63 30.5t-54.5 31t-53 14.5q-39 0 -62.5 -25.5t-43.5 -61.5z" />
    <glyph glyph-name="odieresis" unicode="&#xf6;" horiz-adv-x="1130" 
d="M1050 519q0 -156 -33 -260.5t-97 -169t-155 -92t-207 -27.5q-117 0 -206.5 24t-149.5 84.5t-92 163.5t-32 262q0 157 33.5 261t96.5 167.5t154.5 91t206.5 27.5q117 0 207 -24t151 -84t92 -163t31 -261zM724 510q0 90 -8.5 147t-27.5 89.5t-50 45.5t-75 13t-74.5 -12.5
t-49 -45.5t-26.5 -89t-8 -145q0 -90 8 -148t26.5 -90.5t49.5 -45.5t75 -13t74.5 12.5t49.5 45.5t27.5 90t8.5 146zM499 1344q0 -92 -34 -125.5t-132 -33.5t-132 34.5t-34 124.5t34 124.5t132 34.5q97 0 131.5 -34.5t34.5 -124.5zM968 1344q0 -90 -34.5 -124.5t-131.5 -34.5
q-98 0 -132.5 34.5t-34.5 124.5t34.5 124.5t132.5 34.5q97 0 131.5 -34.5t34.5 -124.5z" />
    <glyph glyph-name="divide" unicode="&#xf7;" 
d="M77 709h931v-241h-931v241zM715 221q0 -49 -7.5 -80.5t-27 -50t-53.5 -25.5t-83 -7q-52 0 -84 7t-51.5 25.5t-28 50t-8.5 80.5q0 48 8.5 79t28 49.5t51.5 26.5t84 8q49 0 83 -7t53.5 -26t27 -50.5t7.5 -79.5zM715 957q0 -47 -7.5 -79t-27 -51t-53.5 -25.5t-83 -6.5
q-52 0 -84 6.5t-51.5 25.5t-28 51t-8.5 79q0 48 8.5 79t28 49.5t51.5 26.5t84 8q49 0 83 -7t53.5 -25.5t27 -50.5t7.5 -80z" />
    <glyph glyph-name="oslash" unicode="&#xf8;" horiz-adv-x="1168" 
d="M245 50q-32 25 -62 58.5t-52.5 86t-37.5 128t-15 181.5q0 157 36 261t102 167.5t160.5 91t212.5 27.5q43 0 73.5 -3.5t50.5 -9.5l82 176l204 -82l-75 -160q34 -25 64 -61.5t53 -90.5t35.5 -128t12.5 -173q0 -156 -35.5 -260.5t-102 -169t-161 -92t-212.5 -27.5
q-35 0 -63 2.5t-60 10.5l-86 -183l-203 82zM541 193q11 -6 25 -7.5t26 -1.5q52 0 93 14t69.5 50t43 99.5t14.5 162.5q0 75 -4.5 117.5t-12.5 82.5zM627 828q-9 5 -21.5 7t-30.5 2q-52 0 -92.5 -13t-68.5 -49t-43 -100t-15 -162q0 -42 2 -72t4.5 -52.5t5.5 -40.5t6 -37z" />
    <glyph glyph-name="ugrave" unicode="&#xf9;" horiz-adv-x="1189" 
d="M441 1021v-635q0 -86 25.5 -115t76.5 -29q41 0 87.5 21t106.5 61v697h325v-1021h-267l-19 100q-90 -59 -171 -88.5t-179 -29.5q-162 0 -236 80t-74 257v702h325zM447 1604l342 -324l-138 -156l-385 274z" />
    <glyph glyph-name="uacute" unicode="&#xfa;" horiz-adv-x="1189" 
d="M441 1021v-635q0 -86 25.5 -115t76.5 -29q41 0 87.5 21t106.5 61v697h325v-1021h-267l-19 100q-90 -59 -171 -88.5t-179 -29.5q-162 0 -236 80t-74 257v702h325zM756 1604l181 -206l-385 -274l-138 156z" />
    <glyph glyph-name="ucircumflex" unicode="&#xfb;" horiz-adv-x="1189" 
d="M441 1021v-635q0 -86 25.5 -115t76.5 -29q41 0 87.5 21t106.5 61v697h325v-1021h-267l-19 100q-90 -59 -171 -88.5t-179 -29.5q-162 0 -236 80t-74 257v702h325zM587 1575l368 -279l-126 -167l-247 163l-241 -160l-122 162z" />
    <glyph glyph-name="udieresis" unicode="&#xfc;" horiz-adv-x="1189" 
d="M441 1021v-635q0 -86 25.5 -115t76.5 -29q41 0 87.5 21t106.5 61v697h325v-1021h-267l-19 100q-90 -59 -171 -88.5t-179 -29.5q-162 0 -236 80t-74 257v702h325zM524 1344q0 -92 -34 -125.5t-132 -33.5t-132 34.5t-34 124.5t34 124.5t132 34.5q97 0 131.5 -34.5
t34.5 -124.5zM993 1344q0 -90 -34.5 -124.5t-131.5 -34.5q-98 0 -132.5 34.5t-34.5 124.5t34.5 124.5t132.5 34.5q97 0 131.5 -34.5t34.5 -124.5z" />
    <glyph glyph-name="yacute" unicode="&#xfd;" horiz-adv-x="1070" 
d="M5 1021h350l115 -417q12 -45 21.5 -84t17.5 -78t16.5 -81.5t16.5 -92.5h4q9 50 17 93t17.5 82l19 78t21.5 83l117 417h338l-366 -1085q-39 -113 -76.5 -187.5t-90 -120t-127 -64t-182.5 -18.5q-55 0 -106.5 6.5t-89.5 15.5l29 235q30 -6 70 -8.5t70 -2.5q36 0 64.5 6
t52.5 21.5t42.5 42t35.5 69.5l27 69h-110zM711 1604l181 -206l-385 -274l-138 156z" />
    <glyph glyph-name="thorn" unicode="&#xfe;" horiz-adv-x="1153" 
d="M126 1511h326v-365q0 -52 -1.5 -96t-9.5 -104l2 -3q54 35 121 66t163 31q76 0 141 -25t111.5 -85t71.5 -158t25 -245t-32.5 -250.5t-90 -169t-137 -95.5t-170.5 -30q-59 0 -109 11t-96 34l-2 -2q4 -25 7 -49.5t4 -47.5t1.5 -46.5t0.5 -49.5v-261h-326v1940zM452 270
q33 -19 64 -29t67 -10q32 0 63 13t53.5 45.5t36.5 88t14 138.5q0 84 -8.5 135.5t-24 80t-39 38t-53.5 9.5q-37 0 -78 -19.5t-95 -58.5v-431z" />
    <glyph glyph-name="ydieresis" unicode="&#xff;" horiz-adv-x="1070" 
d="M5 1021h350l115 -417q12 -45 21.5 -84t17.5 -78t16.5 -81.5t16.5 -92.5h4q9 50 17 93t17.5 82l19 78t21.5 83l117 417h338l-366 -1085q-39 -113 -76.5 -187.5t-90 -120t-127 -64t-182.5 -18.5q-55 0 -106.5 6.5t-89.5 15.5l29 235q30 -6 70 -8.5t70 -2.5q36 0 64.5 6
t52.5 21.5t42.5 42t35.5 69.5l27 69h-110zM479 1344q0 -92 -34 -125.5t-132 -33.5t-132 34.5t-34 124.5t34 124.5t132 34.5q97 0 131.5 -34.5t34.5 -124.5zM948 1344q0 -90 -34.5 -124.5t-131.5 -34.5q-98 0 -132.5 34.5t-34.5 124.5t34.5 124.5t132.5 34.5
q97 0 131.5 -34.5t34.5 -124.5z" />
    <glyph glyph-name="OE" unicode="&#x152;" horiz-adv-x="1794" 
d="M863 1169q-39 15 -81 22t-103 7q-71 0 -118.5 -18.5t-78 -71.5t-44.5 -148t-14 -247t14 -247t44.5 -148.5t78 -73t118.5 -19.5q63 0 103 7t81 20v917zM923 0q-57 -15 -117.5 -22.5t-137.5 -7.5q-144 0 -251.5 30.5t-179.5 111.5t-107.5 223.5t-35.5 367.5q0 226 39 371.5
t114 229t186 116.5t255 33q90 0 150 -8.5t109 -21.5h761v-255h-517v-319h481v-250h-481v-344h517v-255h-785z" />
    <glyph glyph-name="oe" unicode="&#x153;" horiz-adv-x="1707" 
d="M724 512q0 90 -8.5 146t-27.5 88.5t-50 45.5t-75 13t-74.5 -12.5t-49 -45.5t-26.5 -89t-8 -145q0 -90 8 -148t26.5 -90.5t49.5 -45.5t75 -13t74.5 12.5t49.5 45.5t27.5 91t8.5 147zM1582 20q-88 -19 -174.5 -30.5t-193.5 -11.5q-68 0 -120.5 6.5t-92.5 20t-69.5 33.5
t-53.5 47q-22 -25 -49.5 -46.5t-65.5 -36.5t-88.5 -23.5t-116.5 -8.5q-117 0 -206.5 24t-149.5 84.5t-92 163.5t-32 262q0 157 33.5 261t96.5 167.5t154.5 91t206.5 27.5q71 0 123 -7.5t90.5 -21.5t65.5 -35t49 -47q23 26 51.5 47t65 35t84.5 21.5t110 7.5
q109 0 188.5 -20.5t130.5 -73t76 -141t25 -225.5q0 -44 -3 -90.5t-7 -92.5h-568q3 -60 14.5 -96t36.5 -55t65 -26t104 -7q78 0 143.5 9t143.5 25zM1341 612q0 59 -8 96.5t-25 60t-43 31t-65 8.5q-37 0 -65 -9t-46 -31t-27.5 -60t-10.5 -96h290z" />
    <glyph glyph-name="Ydieresis" unicode="&#x178;" horiz-adv-x="1191" 
d="M430 517l-442 906h330l167 -313q21 -38 36.5 -70.5t29 -64.5t26.5 -64.5t27 -69.5h6q15 41 27.5 74.5t25 64.5t26.5 63t31 67l153 313h330l-450 -909v-514h-323v517zM503 1707q0 -44 -7 -73.5t-25.5 -47.5t-50 -25.5t-79.5 -7.5t-79 7.5t-49.5 25.5t-25.5 47.5t-7 73.5
q0 88 33.5 121.5t127.5 33.5q95 0 128.5 -33.5t33.5 -121.5zM1016 1707q0 -44 -7.5 -73.5t-26 -47.5t-50 -25.5t-78.5 -7.5q-48 0 -79.5 7.5t-50 25.5t-25.5 47.5t-7 73.5q0 88 34 121.5t128 33.5t128 -33.5t34 -121.5z" />
    <glyph glyph-name="apostrophe" unicode="&#x2bc;" horiz-adv-x="488" 
d="M130 1139q30 52 55.5 99t48.5 92q-23 13 -40 39t-17 87q0 76 29 104.5t113 28.5t111.5 -28.5t27.5 -104.5q0 -44 -7.5 -76t-29.5 -64q-38 -57 -87 -116.5t-107 -121.5z" />
    <glyph glyph-name="tilde" unicode="&#x2dc;" horiz-adv-x="1238" 
d="M225 1302q19 36 44.5 71t60.5 63t77 46t93 18q45 0 80 -15t64 -31.5t55 -30.5t53 -14q38 0 61 25t43 63l148 -114q-18 -35 -44 -70.5t-61 -63.5t-77 -45t-93 -17q-45 0 -79.5 14t-63 30.5t-54.5 31t-53 14.5q-39 0 -62.5 -25.5t-43.5 -61.5z" />
    <glyph glyph-name="endash" unicode="&#x2013;" 
d="M0 687h1085v-280h-1085v280z" />
    <glyph glyph-name="emdash" unicode="&#x2014;" horiz-adv-x="2048" 
d="M165 687h1718v-280h-1718v280z" />
    <glyph glyph-name="quoteleft" unicode="&#x2018;" horiz-adv-x="498" 
d="M467 1508q-47 -79 -76 -132t-55 -110q25 -16 43.5 -45t18.5 -96q0 -85 -33 -117.5t-125 -32.5q-47 0 -77.5 7.5t-48 25.5t-24 45.5t-6.5 71.5q0 47 8 83.5t30 69.5q43 66 102 138.5t139 157.5z" />
    <glyph glyph-name="quoteright" unicode="&#x2019;" horiz-adv-x="498" 
d="M49 1007q23 39 41.5 70.5t34 60t29 56t27.5 55.5q-14 7 -25 17.5t-19 27t-13.5 39t-5.5 57.5q0 85 33 117t126 32q46 0 77 -6.5t48 -25t24 -46.5t7 -71q0 -47 -8.5 -84t-29.5 -69q-43 -67 -102.5 -139t-138.5 -157z" />
    <glyph glyph-name="quotedblleft" unicode="&#x201c;" horiz-adv-x="924" 
d="M471 1508q-47 -79 -76 -132t-55 -110q24 -16 42.5 -45t18.5 -96q0 -85 -33 -117.5t-125 -32.5q-46 0 -77 7.5t-48 25.5t-24 45.5t-7 71.5q0 47 8 83.5t30 69.5q43 66 102.5 138.5t138.5 157.5zM897 1508q-48 -79 -76.5 -132t-55.5 -110q25 -16 43.5 -45t18.5 -96
q0 -85 -33 -117.5t-125 -32.5q-46 0 -77 7.5t-48 25.5t-24 45.5t-7 71.5q0 47 8 83.5t30 69.5q44 66 103 138.5t138 157.5z" />
    <glyph glyph-name="quotedblright" unicode="&#x201d;" horiz-adv-x="924" 
d="M49 1007q23 39 41.5 70.5t34 60t29 56t27.5 55.5q-14 7 -25 17.5t-19 27t-13.5 39t-5.5 57.5q0 85 33 117t126 32q46 0 77 -6.5t48 -25t24 -46.5t7 -71q0 -47 -8.5 -84t-29.5 -69q-43 -67 -102.5 -139t-138.5 -157zM476 1007q22 39 41 70.5t34 60t28 56t28 55.5
q-14 7 -25 17.5t-19.5 27t-13.5 39t-5 57.5q0 85 33 117t125 32q48 0 78.5 -6.5t47.5 -25t24.5 -46.5t7.5 -71q0 -47 -9 -84t-30 -69q-44 -67 -102.5 -139t-139.5 -157z" />
    <glyph glyph-name="quotedblbase" unicode="&#x201e;" horiz-adv-x="920" 
d="M24 -223q24 39 42.5 70.5t33.5 60.5t28 56t27 55q-13 7 -24 17.5t-19 27t-13 39t-5 56.5q0 86 33 118t125 32q46 0 77 -7t48 -25t24 -46t7 -72q0 -47 -8 -83.5t-30 -68.5q-44 -66 -103 -138.5t-138 -157.5zM450 -223q24 39 42.5 70.5t33.5 60.5t28 56t27 55
q-13 7 -24 17.5t-19 27t-13 39t-5 56.5q0 86 32.5 118t125.5 32q46 0 77 -7t48 -25t24 -46t7 -72q0 -47 -8.5 -83.5t-29.5 -68.5q-43 -66 -102.5 -138.5t-138.5 -157.5z" />
    <glyph glyph-name="bullet" unicode="&#x2022;" horiz-adv-x="956" 
d="M730 726q0 -71 -13 -119t-43 -77.5t-77.5 -42.5t-118.5 -13t-119 13t-77.5 42.5t-42.5 77.5t-13 119t13 118.5t42.5 77.5t77.5 43.5t119 13.5t118.5 -13.5t77.5 -43.5t43 -77.5t13 -118.5z" />
    <glyph glyph-name="ellipsis" unicode="&#x2026;" horiz-adv-x="1617" 
d="M445 153q0 -50 -8 -82.5t-28.5 -52.5t-54 -27.5t-86.5 -7.5q-54 0 -88 7.5t-54.5 27.5t-28 52.5t-7.5 82.5t7.5 83t28 52.5t54.5 27.5t88 8q53 0 86.5 -8t54 -27.5t28.5 -52.5t8 -83zM986 153q0 -50 -8 -82.5t-28.5 -52.5t-54.5 -27.5t-87 -7.5t-87 7.5t-54 27.5
t-28.5 52.5t-8.5 82.5t8.5 83t28.5 52.5t54 27.5t87 8t87 -8t54.5 -27.5t28.5 -52.5t8 -83zM1527 153q0 -50 -8 -82.5t-28 -52.5t-54 -27.5t-88 -7.5q-53 0 -87 7.5t-54.5 27.5t-28.5 52.5t-8 82.5t8 83t28.5 52.5t54.5 27.5t87 8q54 0 88 -8t54 -27.5t28 -52.5t8 -83z" />
    <glyph glyph-name="guilsinglleft" unicode="&#x2039;" horiz-adv-x="715" 
d="M62 510l330 505l243 -126l-231 -377l232 -385l-244 -126z" />
    <glyph glyph-name="guilsinglright" unicode="&#x203a;" horiz-adv-x="715" 
d="M312 504l-232 385l244 126l329 -510l-329 -504l-245 126z" />
    <glyph glyph-name="Euro" unicode="&#x20ac;" 
d="M202 986q23 135 70 224t118.5 142.5t167.5 76t218 22.5q79 0 148 -9.5t119 -21.5l-38 -245q-31 6 -57.5 11t-52.5 8.5t-52 5t-53 1.5q-56 0 -101 -9.5t-78 -33.5t-55.5 -65.5t-34.5 -106.5h362v-212h-385q-1 -7 -1 -15v-16v-16v-15v-31.5t1 -27.5h385v-213h-362
q9 -61 30.5 -103t55 -67t79 -36.5t102.5 -11.5q30 0 56.5 2t53 5.5t54.5 9t61 14.5l36 -244q-66 -15 -140.5 -26t-155.5 -11q-130 0 -226 22.5t-163.5 76.5t-108 143.5t-58.5 225.5h-132v213h117q0 10 -0.5 27.5t-0.5 30.5v15t0.5 16.5t0.5 16.5v15h-117v212h137z" />
    <glyph glyph-name="trademark" unicode="&#x2122;" horiz-adv-x="1963" 
d="M248 1236h-217v187h661v-187h-206v-523h-238v523zM819 1423h356l89 -358l35 -193l36 193l91 358h356l67 -710h-233l-26 361l-2 183l-34 -181l-91 -363h-332l-92 361l-37 183v-183l-30 -361h-218z" />
    <glyph glyph-name="dotlessi" horiz-adv-x="579" 
d="M126 1021h326v-1021h-326v1021z" />
    <glyph glyph-name="grave.cap" horiz-adv-x="809" 
d="M249 1915l460 -212l-81 -184l-483 157z" />
    <glyph glyph-name="acute.cap" horiz-adv-x="808" 
d="M606 1915l103 -239l-482 -157l-82 184z" />
    <glyph glyph-name="circumflex" horiz-adv-x="1052" 
d="M577 1575l368 -279l-126 -167l-247 163l-241 -160l-122 162z" />
    <glyph glyph-name="circumflex.cap" horiz-adv-x="1052" 
d="M588 1895l363 -187l-90 -181l-283 118l-276 -118l-88 181z" />
    <glyph glyph-name="dieresis.narrow" horiz-adv-x="1160" 
d="M530 1344q0 -90 -34.5 -124t-130.5 -34t-130.5 35t-34.5 123t34.5 122.5t130.5 34.5t130.5 -34.5t34.5 -122.5zM953 1344q0 -90 -34 -124t-131 -34q-95 0 -129.5 35t-34.5 123t34.5 122.5t129.5 34.5q96 0 130.5 -34.5t34.5 -122.5z" />
    <glyph glyph-name="dieresis.cap" horiz-adv-x="1155" 
d="M457 1707q0 -44 -7 -73.5t-25.5 -47.5t-50 -25.5t-79.5 -7.5t-79 7.5t-49.5 25.5t-25.5 47.5t-7 73.5q0 88 33.5 121.5t127.5 33.5q95 0 128.5 -33.5t33.5 -121.5zM970 1707q0 -44 -7.5 -73.5t-26 -47.5t-50 -25.5t-78.5 -7.5q-48 0 -79.5 7.5t-50 25.5t-25.5 47.5
t-7 73.5q0 88 34 121.5t128 33.5t128 -33.5t34 -121.5z" />
    <glyph glyph-name="dieresis.narrow.cap" horiz-adv-x="1155" 
d="M488 1707q0 -86 -34 -120t-129 -34q-94 0 -127.5 34t-33.5 120q0 88 33.5 121.5t127.5 33.5q95 0 129 -33.5t34 -121.5zM939 1707q0 -86 -33.5 -120t-127.5 -34q-95 0 -129 34t-34 120q0 88 34 121.5t129 33.5q94 0 127.5 -33.5t33.5 -121.5z" />
    <glyph glyph-name="tilde.cap" horiz-adv-x="1238" 
d="M201 1694q41 65 107.5 109.5t168.5 44.5q49 0 86.5 -11t68.5 -23.5t59.5 -23.5t61.5 -11q39 0 69 17t59 51l130 -132q-41 -64 -107.5 -109t-168.5 -45q-49 0 -86 11t-69 23.5t-60 23.5t-60 11q-39 0 -69.5 -17t-58.5 -51z" />
    <glyph glyph-name="ring" horiz-adv-x="869" 
d="M706 1371q0 -55 -19.5 -101t-54 -79t-82 -51.5t-105.5 -18.5q-56 0 -104.5 18.5t-82.5 51.5t-53 79t-19 101q0 56 19 102t53 79t82.5 51.5t104.5 18.5q58 0 105.5 -18.5t82 -52t54 -80t19.5 -100.5zM534 1371q0 45 -23 71t-66 26q-42 0 -65 -26t-23 -71t23 -71t65 -26
q43 0 66 26t23 71z" />
    <glyph glyph-name="ring.cap" horiz-adv-x="872" 
d="M713 1732q0 -55 -20 -101t-55.5 -77.5t-85 -49t-107.5 -17.5q-57 0 -107 17.5t-84.5 49t-54.5 77.5t-20 101q0 112 74 178.5t191 66.5q58 0 107.5 -17.5t85.5 -50t56 -77.5t20 -100zM540 1732q0 41 -25.5 66.5t-70.5 25.5q-43 0 -68 -25.5t-25 -66.5t25 -66.5t69 -25.5
q45 0 70 25.5t25 66.5z" />
    <glyph glyph-name="zeroinferior" horiz-adv-x="770" 
d="M707 360q0 -109 -21.5 -183t-62.5 -117.5t-101.5 -62.5t-140.5 -19t-139.5 18t-99.5 61.5t-60 116.5t-20 182q0 108 21 180.5t62.5 116t103 62.5t142.5 19q80 0 138.5 -18t98 -61.5t59.5 -115t20 -179.5zM472 356q0 65 -6 103.5t-17.5 60t-26.5 29t-35 7.5
q-22 0 -38.5 -6.5t-27.5 -27.5t-17 -59t-6 -103q0 -64 6 -104.5t17 -62t27.5 -29.5t38.5 -8q20 0 36 7t26.5 28t16.5 61t6 104z" />
    <glyph glyph-name="oneinferior" horiz-adv-x="507" 
d="M175 475l-107 -60l-81 142l223 156h202v-713h-237v475z" />
    <glyph glyph-name="twoinferior" horiz-adv-x="640" 
d="M45 177l126 121q60 57 89.5 94t29.5 78q0 31 -22 47.5t-61 16.5q-31 0 -60 -5.5t-65 -15.5l-22 185q62 16 116.5 23t120.5 7q137 0 206 -55.5t69 -142.5q0 -89 -42.5 -148.5t-123.5 -121.5l-78 -66h252v-194h-535v177z" />
    <glyph glyph-name="threeinferior" horiz-adv-x="609" 
d="M48 175q34 -7 64 -11.5t64 -4.5q63 0 90.5 14.5t27.5 48.5q0 15 -7 25.5t-26.5 17.5t-55.5 10.5t-95 3.5v165q103 0 140 15.5t37 44.5q0 27 -24 38t-74 11q-35 0 -66.5 -5t-62.5 -13l-21 167q47 11 103 18.5t109 7.5q143 0 214 -45t71 -128q0 -65 -30.5 -107t-82.5 -68
q59 -14 96.5 -54t37.5 -106q0 -115 -81.5 -175t-240.5 -60q-61 0 -109 4t-96 14z" />
    <glyph glyph-name="fourinferior" horiz-adv-x="695" 
d="M26 297l222 416h339v-401h76v-195h-76v-117h-231v117h-330v180zM356 312v229l-125 -229h125z" />
    <glyph glyph-name="fraction" horiz-adv-x="1102" 
d="M939 1473l168 -111l-939 -1413l-169 112z" />
    </font>
</defs>
</svg>
