<?xml version="1.0" standalone="no"?>
<!DOCTYPE svg PUBLIC "-//W3C//DTD SVG 1.1//EN" "http://www.w3.org/Graphics/SVG/1.1/DTD/svg11.dtd" >
<svg>
<metadata>
Created by FontForge 20120731 at Wed Jun 17 21:35:19 2015
 By ,,,
Copyright (c) 2006-2010 by Jan Fromm. All rights reserved.
</metadata>
<defs>
<font id="b158bf025ad2a4ee56f91e9f12079a667a5baa575dd548abe1cfbbfbd6aa65d" horiz-adv-x="1085" >
  <font-face 
    font-family="b158bf025ad2a4ee56f91e9f12079a667a5baa575dd548abe1cfbbfbd6aa65db"
    font-weight="700"
    font-stretch="normal"
    units-per-em="2048"
    panose-1="2 11 8 3 4 3 2 2 2 3"
    ascent="1659"
    descent="-389"
    x-height="1016"
    cap-height="1423"
    bbox="-168 -471 2070 1953"
    underline-thickness="200"
    underline-position="-50"
    unicode-range="U+0020-2122"
  />
<missing-glyph 
d="M356 719q-16 0 -16 -21q0 -20 16 -20h74v-238q0 -65 -51 -65q-23 0 -31 4t-16 4q-17 0 -17 -21q0 -14 11 -18q10 -4 23 -6t26 -2q106 0 106 104v246q0 33 -32 33h-93zM561 360q0 -20 25 -20q26 0 26 20v152h142q14 0 14 20q0 21 -14 21h-142v125h158q16 0 16 20
q0 21 -16 21h-174q-35 0 -35 -33v-326zM197 539q0 73 26.5 137.5t72.5 111t109.5 73t137.5 26.5q73 0 137.5 -26.5t111 -73t73 -111t26.5 -137.5q0 -74 -26.5 -137.5t-73 -109.5t-111 -72.5t-137.5 -26.5q-74 0 -137.5 26.5t-109.5 72.5t-72.5 109.5t-26.5 137.5z" />
    <glyph glyph-name=".notdef" 
d="M356 719q-16 0 -16 -21q0 -20 16 -20h74v-238q0 -65 -51 -65q-23 0 -31 4t-16 4q-17 0 -17 -21q0 -14 11 -18q10 -4 23 -6t26 -2q106 0 106 104v246q0 33 -32 33h-93zM561 360q0 -20 25 -20q26 0 26 20v152h142q14 0 14 20q0 21 -14 21h-142v125h158q16 0 16 20
q0 21 -16 21h-174q-35 0 -35 -33v-326zM197 539q0 73 26.5 137.5t72.5 111t109.5 73t137.5 26.5q73 0 137.5 -26.5t111 -73t73 -111t26.5 -137.5q0 -74 -26.5 -137.5t-73 -109.5t-111 -72.5t-137.5 -26.5q-74 0 -137.5 26.5t-109.5 72.5t-72.5 109.5t-26.5 137.5z" />
    <glyph glyph-name=".null" horiz-adv-x="0" 
 />
    <glyph glyph-name="nonmarkingreturn" horiz-adv-x="682" 
 />
    <glyph glyph-name="space" unicode=" " horiz-adv-x="522" 
 />
    <glyph glyph-name="space" unicode="&#xa0;" horiz-adv-x="522" 
 />
    <glyph glyph-name="exclam" unicode="!" horiz-adv-x="647" 
d="M178 1511h291l-36 -1091h-220zM468 126q0 -40 -7 -67.5t-23.5 -44.5t-44.5 -23.5t-71 -6.5q-86 0 -116 30.5t-30 111.5q0 39 6.5 67t23 45t45 23.5t71.5 6.5q86 0 116 -31.5t30 -110.5z" />
    <glyph glyph-name="quotedbl" unicode="&#x22;" horiz-adv-x="827" 
d="M100 1511h246l-27 -507h-192zM481 1511h246l-27 -507h-192z" />
    <glyph glyph-name="numbersign" unicode="#" 
d="M184 368h-149v182h173l49 318h-155v182h177l58 373h216l-57 -373h192l58 373h217l-59 -373h147v-182h-169l-50 -318h152v-182h-174l-57 -368h-217l58 368h-192l-59 -368h-216zM615 550l51 318h-192l-50 -318h191z" />
    <glyph glyph-name="dollar" unicode="$" 
d="M672 1603v-230q37 -1 70.5 -4t65 -7.5t62.5 -12t66 -16.5l-30 -208q-69 19 -140 29t-145 10q-61 0 -104.5 -8.5t-71.5 -26.5t-41 -43.5t-13 -58.5q0 -34 10.5 -59t39 -50t78.5 -53t130 -67q106 -53 175 -96.5t109.5 -90.5t57 -103t16.5 -134q0 -70 -19 -130.5t-61 -108.5
t-109 -82t-162 -50v-248h-208v238q-65 3 -141 14t-159 33l30 208q82 -20 168 -33t173 -13q55 0 97.5 9.5t72 29t44.5 49t15 67.5q0 34 -10.5 60.5t-40 53t-81.5 56t-135 70.5q-101 51 -167.5 93t-106 87.5t-55.5 99t-16 126.5q0 58 16.5 115t54.5 105t101 83t157 50v247h207
z" />
    <glyph glyph-name="percent" unicode="%" horiz-adv-x="1712" 
d="M1249 1469l145 -95l-942 -1420l-146 96zM680 1068q0 -109 -20.5 -183t-59.5 -117t-96.5 -61t-133.5 -18t-132.5 17t-95 60t-57.5 116t-19 182q0 110 20 182.5t60 115.5t98 61.5t135 18.5q75 0 131 -17.5t94 -60.5t57 -114.5t19 -181.5zM478 1064q0 72 -7 115.5t-21 68
t-32.5 33t-42.5 8.5q-25 0 -45.5 -7.5t-34 -31t-20.5 -67t-7 -115.5q0 -71 7 -115.5t21 -69t34 -33t45 -8.5t44 7.5t32.5 31.5t20 68t6.5 115zM1645 359q0 -109 -20.5 -183t-59.5 -117t-96.5 -61t-133.5 -18t-132.5 17t-95 60t-57.5 116t-19 182q0 110 20 182.5t60 115.5
t98 61.5t135 18.5q75 0 131 -17.5t94 -60.5t57 -114.5t19 -181.5zM1443 355q0 72 -7 115.5t-21 68t-32.5 33t-42.5 8.5q-25 0 -45.5 -7.5t-34 -31t-20.5 -67t-7 -115.5q0 -71 7 -115.5t21 -69t34 -33t45 -8.5t44 7.5t32.5 31.5t20 68t6.5 115z" />
    <glyph glyph-name="ampersand" unicode="&#x26;" horiz-adv-x="1344" 
d="M976 147q-75 -73 -181 -124.5t-247 -51.5q-114 0 -201 28t-145 79.5t-89 123t-31 160.5q0 70 19 127t53.5 107.5t84 95t109.5 90.5q-39 41 -72 83t-58 90t-39.5 102.5t-14.5 120.5q0 168 108 265t310 97q199 0 297.5 -85.5t98.5 -227.5q0 -77 -25.5 -139t-66 -115.5
t-94 -100.5t-110.5 -90l290 -295q25 56 42.5 117.5t25.5 136.5h224q-20 -126 -54.5 -226.5t-80.5 -185.5l198 -201l-171 -164zM493 635q-33 -27 -62.5 -53.5t-50 -56t-32 -64.5t-11.5 -78t14.5 -81t44 -66.5t72.5 -44.5t99 -16q86 0 150 33.5t111 85.5zM731 1195
q0 63 -40 103t-118 40q-83 0 -122.5 -45.5t-39.5 -117.5q0 -36 10 -68.5t27.5 -63t40.5 -59t50 -57.5q44 34 79.5 65.5t60.5 63.5t38.5 66t13.5 73z" />
    <glyph glyph-name="quotesingle" unicode="'" horiz-adv-x="446" 
d="M100 1511h246l-27 -507h-192z" />
    <glyph glyph-name="parenleft" unicode="(" horiz-adv-x="646" 
d="M441 -371q-150 232 -232.5 480t-82.5 532t82.5 532t232.5 481l182 -99q-61 -108 -108.5 -217t-80 -221.5t-48 -231t-15.5 -244.5t15.5 -244t48 -230.5t80 -221.5t108.5 -218z" />
    <glyph glyph-name="parenright" unicode=")" horiz-adv-x="646" 
d="M23 -273q61 109 108.5 218t79.5 221.5t48.5 230.5t16.5 244t-16.5 244.5t-48.5 231t-79.5 221.5t-108.5 217l182 99q75 -116 133.5 -235.5t99 -244.5t61.5 -257.5t21 -275.5t-21 -275t-61.5 -257.5t-99 -245t-133.5 -234.5z" />
    <glyph glyph-name="asterisk" unicode="*" horiz-adv-x="854" 
d="M360 1076l-169 -133l-98 168l201 80l-201 81l98 168l169 -134l-31 205h195l-31 -205l170 134l97 -168l-200 -80l200 -81l-97 -168l-170 133l31 -204h-195z" />
    <glyph glyph-name="plus" unicode="+" 
d="M82 690h352v368h216v-368h354v-204h-354v-369h-216v369h-352v204z" />
    <glyph glyph-name="comma" unicode="," horiz-adv-x="513" 
d="M22 -264q48 82 79 139.5t63 118.5q-15 7 -26 18t-20 26.5t-13 38.5t-4 56q0 44 6.5 73t24.5 46.5t48 24.5t77 7t76.5 -7t47.5 -24.5t25 -46.5t7 -73q0 -48 -8.5 -83t-28.5 -66q-22 -36 -49 -72t-58.5 -75t-67.5 -81t-77 -86z" />
    <glyph glyph-name="hyphen" unicode="-" horiz-adv-x="890" 
d="M133 662h624v-235h-624v235z" />
    <glyph glyph-name="period" unicode="." horiz-adv-x="513" 
d="M413 133q0 -44 -7 -72.5t-25 -46t-47.5 -24t-76.5 -6.5t-77 6.5t-48 24t-24.5 46t-6.5 72.5t6.5 73t24.5 46.5t48 24.5t77 7t76.5 -7t47.5 -24.5t25 -46.5t7 -73z" />
    <glyph glyph-name="slash" unicode="/" horiz-adv-x="865" 
d="M610 1511h245l-644 -1736h-244z" />
    <glyph glyph-name="zero" unicode="0" 
d="M1012 721q0 -146 -13 -259t-39.5 -196.5t-66.5 -140t-93 -91t-120 -49t-146 -14.5q-80 0 -145 13t-116 46t-88.5 87t-62.5 135.5t-37 193t-12 258.5q0 146 13 259t40 196t67 139.5t93 90.5t119.5 48.5t145.5 14.5q80 0 145.5 -13t116.5 -45.5t88.5 -86.5t62 -135
t36.5 -192.5t12 -258.5zM747 713q0 112 -5 195t-15.5 142t-27 97t-39 59.5t-52 30t-65.5 8.5t-65.5 -8.5t-52 -30t-39.5 -59.5t-27.5 -97t-15.5 -142t-5 -195q0 -113 5 -196t15.5 -142.5t27.5 -98t39.5 -60t52 -30t65.5 -8.5t65.5 8.5t52 30t39 60t27 98t15.5 142.5t5 196z
" />
    <glyph glyph-name="one" unicode="1" 
d="M134 218h311v930l-255 -111l-71 172l379 214h215v-1205h268v-218h-847v218z" />
    <glyph glyph-name="two" unicode="2" 
d="M95 183l380 490q46 60 84.5 111.5t66 98.5t43 93t15.5 93q0 45 -15 78t-43 53t-70 30t-96 10q-40 0 -76 -3.5t-71.5 -9t-71 -13.5t-72.5 -19l-31 203q47 11 92.5 21t92.5 17t95.5 10.5t102.5 3.5q116 0 200 -20.5t138.5 -62.5t80.5 -105.5t26 -149.5q0 -76 -18.5 -144.5
t-54.5 -134.5t-87.5 -132.5t-116.5 -138.5l-286 -335h569v-227h-877v183z" />
    <glyph glyph-name="three" unicode="3" 
d="M117 216q36 -8 70 -14t68.5 -10t71.5 -6.5t80 -2.5q71 0 125.5 15.5t92 46t56.5 75.5t19 103q0 60 -20.5 102.5t-69.5 69.5t-131 39.5t-205 12.5v205q111 0 186.5 16.5t121.5 46t65.5 69.5t19.5 88q0 47 -16 79.5t-45 52t-70.5 28t-92.5 8.5q-78 0 -150.5 -12.5
t-144.5 -32.5l-31 203q92 23 189 37.5t200 14.5q108 0 188 -19t134 -58t81 -97.5t27 -137.5q0 -73 -19.5 -132t-52 -104.5t-76 -77.5t-92.5 -52q53 -10 102.5 -34t88 -64.5t61.5 -99t23 -135.5q0 -104 -33 -190.5t-100 -147.5t-169.5 -94.5t-241.5 -33.5q-50 0 -94.5 3
t-85.5 8t-81 12.5t-81 16.5z" />
    <glyph glyph-name="four" unicode="4" 
d="M625 292h-565v216l410 915h410v-903h141v-228h-141v-292h-255v292zM625 520v723l-322 -723h322z" />
    <glyph glyph-name="five" unicode="5" 
d="M919 1423v-226h-523v-344q19 2 40.5 4t44 3t46 2t46.5 1q100 0 176.5 -23t128.5 -71.5t78.5 -124.5t26.5 -183q0 -118 -34.5 -209t-103 -153t-171.5 -94t-240 -32q-50 0 -94.5 4t-84 9t-75.5 11.5t-67 13.5l22 206q34 -6 69.5 -12t73 -11.5t75.5 -8t77 -2.5
q77 0 132.5 17t90.5 49.5t51.5 80t16.5 107.5t-16.5 101t-48.5 66.5t-80.5 37t-112.5 11.5q-35 0 -68 -1t-66.5 -4t-70.5 -6.5t-81 -9.5v791h742z" />
    <glyph glyph-name="six" unicode="6" 
d="M909 1211q-54 13 -112 21t-126 8q-69 0 -116.5 -15t-79.5 -43.5t-50.5 -69t-29 -91.5t-15 -112t-8.5 -129q30 16 61 29.5t64 23.5t68.5 15.5t76.5 5.5q83 0 150 -23.5t114.5 -73.5t73 -127.5t25.5 -184.5q0 -111 -30 -198.5t-88.5 -149t-145 -94t-199.5 -32.5
q-108 0 -189.5 33t-136 104t-82.5 183.5t-28 270.5q0 149 9 273t32.5 222.5t64 172.5t103.5 122.5t151.5 73t208.5 24.5q71 0 138 -9.5t127 -26.5zM743 432q0 59 -11.5 100t-33 67t-53 37t-71.5 11q-27 0 -52 -4.5t-49.5 -13.5t-49 -22.5t-50.5 -31.5q-2 -21 -2 -44v-44
q0 -76 10.5 -134t33 -96.5t57.5 -58.5t85 -20q46 0 80.5 18t58 51t35.5 80t12 105z" />
    <glyph glyph-name="seven" unicode="7" 
d="M278 0q59 166 115 318t112.5 297t115.5 288t123 294h-650v226h927v-183q-65 -156 -124 -305t-115.5 -300t-111.5 -308t-110 -327h-282v0z" />
    <glyph glyph-name="eight" unicode="8" 
d="M1001 389q0 -96 -31.5 -173.5t-91 -132t-146 -83.5t-195.5 -29q-106 0 -187.5 25.5t-137 74.5t-84 120t-28.5 161q0 74 20 130.5t55.5 101t82.5 78.5t101 63q-51 28 -92.5 62t-72.5 78t-47.5 100.5t-16.5 131.5q0 79 30 144t85.5 112.5t135 73t177.5 25.5q96 0 173 -21.5
t130.5 -64t81.5 -106t28 -145.5q0 -65 -17.5 -118.5t-48.5 -98.5t-74 -81t-93 -65q54 -29 102 -62t83.5 -75.5t56.5 -97.5t21 -128zM716 1082q0 35 -11 65t-32.5 51.5t-52.5 34t-71 12.5q-39 0 -69 -12.5t-50 -34.5t-30 -51.5t-10 -64.5q0 -40 11.5 -71.5t34 -57.5t55 -49
t75.5 -47q35 19 63.5 41.5t47.5 49.5t29 60t10 74zM741 374q0 45 -14 79t-41.5 63t-67.5 54t-90 52q-40 -21 -72 -46t-54.5 -55.5t-34.5 -66.5t-12 -79q0 -46 14 -82.5t39.5 -62t61.5 -39t80 -13.5t79.5 13.5t60.5 39t38 62t13 81.5z" />
    <glyph glyph-name="nine" unicode="9" 
d="M132 222q41 -10 76.5 -17t69.5 -12t68.5 -7.5t72.5 -2.5q69 0 117 15t80 43.5t50 69t28.5 91.5t15 112t9.5 129q-30 -16 -61 -29.5t-64 -23t-69 -15.5t-76 -6q-84 0 -151 24t-114.5 74t-73 127.5t-25.5 184.5q0 110 30 197.5t88.5 149t145 94t199.5 32.5q108 0 189.5 -33
t136.5 -104t82.5 -183.5t27.5 -269.5q0 -150 -9 -274t-32 -222.5t-64 -172.5t-104 -122.5t-151.5 -73t-207.5 -24.5q-45 0 -85.5 3.5t-79.5 10t-76 15t-74 18.5zM347 991q0 -59 11.5 -100t33.5 -66.5t53 -36.5t71 -11q27 0 52 4t49.5 13.5t49 22.5t50.5 31q2 21 2 44v44
q0 75 -10.5 133.5t-32.5 97t-57.5 58.5t-85.5 20q-45 0 -80 -18t-58 -51t-35.5 -80t-12.5 -105z" />
    <glyph glyph-name="colon" unicode=":" horiz-adv-x="452" 
d="M413 808q0 -44 -7 -72.5t-25 -46t-47.5 -24.5t-76.5 -7t-77 7t-48 24.5t-24.5 46t-6.5 72.5q0 43 6.5 72.5t24.5 46.5t48 24t77 7t76.5 -7t47.5 -24t25 -46.5t7 -72.5zM413 133q0 -44 -7 -72.5t-25 -46t-47.5 -24t-76.5 -6.5t-77 6.5t-48 24t-24.5 46t-6.5 72.5t6.5 73
t24.5 46.5t48 24.5t77 7t76.5 -7t47.5 -24.5t25 -46.5t7 -73z" />
    <glyph glyph-name="semicolon" unicode=";" horiz-adv-x="452" 
d="M413 808q0 -44 -7 -72.5t-25 -46t-47.5 -24.5t-76.5 -7t-77 7t-48 24.5t-24.5 46t-6.5 72.5q0 43 6.5 72.5t24.5 46.5t48 24t77 7t76.5 -7t47.5 -24t25 -46.5t7 -72.5zM22 -264q50 82 80 139.5t62 118.5q-15 7 -26 18t-20 26.5t-13 38.5t-4 56q0 44 6.5 73t24.5 46.5
t48 24.5t77 7t76.5 -7t47.5 -24.5t25 -46.5t7 -73q0 -48 -8.5 -83t-28.5 -66q-22 -36 -49 -72t-58.5 -75t-67.5 -81t-77 -86z" />
    <glyph glyph-name="less" unicode="&#x3c;" 
d="M137 704l782 414v-233l-547 -296l547 -302v-232l-782 419v230z" />
    <glyph glyph-name="equal" unicode="=" 
d="M102 483h881v-203h-881v203zM102 897h881v-203h-881v203z" />
    <glyph glyph-name="greater" unicode="&#x3e;" 
d="M167 288l547 297l-547 301v232l781 -418v-230l-781 -415v233z" />
    <glyph glyph-name="question" unicode="?" horiz-adv-x="851" 
d="M233 534q-1 64 2 112t17.5 90.5t42 86t76.5 100.5q39 44 66 78t43.5 64t24.5 60.5t8 67.5q0 64 -45.5 96.5t-144.5 32.5q-57 0 -113 -9t-123 -29l-31 199q86 22 162.5 34.5t166.5 12.5q203 0 302.5 -75t99.5 -227q0 -65 -10.5 -115t-33 -96t-58.5 -93.5t-89 -106.5
q-39 -42 -64 -76t-41 -65t-23.5 -65t-8.5 -74l-3 -117h-222zM491 126q0 -40 -7 -67.5t-23.5 -44.5t-44.5 -23.5t-71 -6.5q-87 0 -116.5 30.5t-29.5 111.5q0 39 6.5 67t23 45t45 23.5t71.5 6.5q86 0 116 -31.5t30 -110.5z" />
    <glyph glyph-name="at" unicode="@" horiz-adv-x="2198" 
d="M1480 437q-7 -74 16.5 -102t70.5 -28q37 0 81.5 28t82.5 87.5t63 147.5t25 211q0 109 -39 196t-121.5 146.5t-208 91t-297.5 31.5q-168 0 -308 -45t-240.5 -139t-155.5 -238.5t-54 -342.5q0 -137 32 -242.5t100.5 -177.5t178.5 -108.5t267 -36.5q127 0 241.5 10.5
t231.5 37.5l27 -203q-64 -14 -124.5 -24t-122 -16.5t-126 -9.5t-134.5 -3q-198 0 -351 46t-256.5 140.5t-157.5 238.5t-54 339q0 247 77 430.5t213 306.5t321.5 184t401.5 61q228 0 398.5 -47t284 -133.5t170.5 -210t57 -275.5q0 -173 -51 -296t-128.5 -202.5t-172 -116.5
t-182.5 -37q-109 0 -171.5 42.5t-86.5 116.5q-34 -31 -71.5 -59.5t-81.5 -51t-94.5 -35.5t-107.5 -13q-130 0 -211 86.5t-81 268.5q0 124 38.5 224t103.5 171t150.5 109.5t180.5 38.5q64 0 117 -17t96 -46l18 43h207zM1267 800q-39 23 -70.5 37.5t-77.5 14.5
q-47 0 -89 -25.5t-73.5 -69.5t-50 -106t-18.5 -134q0 -95 29.5 -143t88.5 -48q29 0 59 12t58.5 32.5t55.5 47t52 54.5z" />
    <glyph glyph-name="A" unicode="A" horiz-adv-x="1289" 
d="M437 1423h411l417 -1423h-288l-104 359h-474l-104 -359h-271zM829 569l-102 356q-12 42 -24.5 82.5t-23.5 81t-22.5 81t-21.5 82.5h-3q-11 -44 -21.5 -84.5t-22 -82t-24 -82.5t-24.5 -84l-97 -350h386z" />
    <glyph glyph-name="B" unicode="B" horiz-adv-x="1223" 
d="M152 1423h428q144 0 243.5 -16.5t161.5 -55.5t89 -104t27 -161q0 -66 -16 -117.5t-44 -91t-67 -68t-86 -46.5q51 -13 97 -38t80.5 -64t55 -95.5t20.5 -133.5q0 -106 -32 -186.5t-100.5 -135t-174 -82.5t-251.5 -28h-431v1423zM591 209q77 0 128.5 13.5t83.5 41.5t45 68
t13 93q0 52 -11.5 91t-43.5 64t-86.5 38t-139.5 13h-153v-422h164zM571 833q65 0 113 12t80 36.5t48.5 64t16.5 96.5q0 51 -13 84t-42.5 52.5t-78.5 28t-123 8.5h-145v-382h144z" />
    <glyph glyph-name="B" unicode="&#xe000;" horiz-adv-x="1223" 
d="M152 1423h428q144 0 243.5 -16.5t161.5 -55.5t89 -104t27 -161q0 -66 -16 -117.5t-44 -91t-67 -68t-86 -46.5q51 -13 97 -38t80.5 -64t55 -95.5t20.5 -133.5q0 -106 -32 -186.5t-100.5 -135t-174 -82.5t-251.5 -28h-431v1423zM591 209q77 0 128.5 13.5t83.5 41.5t45 68
t13 93q0 52 -11.5 91t-43.5 64t-86.5 38t-139.5 13h-153v-422h164zM571 833q65 0 113 12t80 36.5t48.5 64t16.5 96.5q0 51 -13 84t-42.5 52.5t-78.5 28t-123 8.5h-145v-382h144z" />
    <glyph glyph-name="C" unicode="C" horiz-adv-x="1071" 
d="M1013 25q-79 -21 -168.5 -35t-176.5 -14q-145 0 -250.5 29.5t-174.5 110.5t-102.5 222.5t-33.5 366.5q0 224 38.5 368t113 227t182.5 115.5t248 32.5q85 0 167 -12t157 -33l-31 -209q-68 19 -135.5 29t-134.5 10q-85 0 -147.5 -18.5t-102 -73.5t-59 -157.5t-19.5 -269.5
q0 -170 18.5 -272.5t58.5 -158.5t102 -74t151 -18q63 0 130 11t138 32z" />
    <glyph glyph-name="D" unicode="D" horiz-adv-x="1330" 
d="M152 1423h468q167 0 282 -28t187.5 -105.5t105 -214t32.5 -352.5q0 -212 -34.5 -351.5t-109.5 -222t-192 -116t-281 -33.5h-458v1423zM612 215q91 0 155.5 18.5t105.5 72.5t59 152t18 257t-17.5 256t-57.5 150.5t-104.5 70t-158.5 16.5h-185v-993h185z" />
    <glyph glyph-name="E" unicode="E" horiz-adv-x="1062" 
d="M152 1423h817v-215h-542v-375h503v-210h-503v-408h542v-215h-817v1423z" />
    <glyph glyph-name="E" unicode="&#xe001;" horiz-adv-x="1062" 
d="M152 1423h817v-215h-542v-375h503v-210h-503v-408h542v-215h-817v1423z" />
    <glyph glyph-name="F" unicode="F" horiz-adv-x="1012" 
d="M152 1423h801v-215h-526v-375h483v-210h-483v-623h-275v1423z" />
    <glyph glyph-name="G" unicode="G" horiz-adv-x="1270" 
d="M1145 52q-88 -35 -207.5 -57t-244.5 -22q-158 0 -269 30t-181.5 111t-103 223t-32.5 367q0 224 42 368.5t122.5 227.5t197.5 115.5t267 32.5q99 0 196.5 -13.5t180.5 -35.5l-30 -210q-89 21 -169.5 32.5t-162.5 11.5q-96 0 -165 -18.5t-114 -74.5t-66.5 -158t-21.5 -269
q0 -169 18 -272t56 -159t96 -75t139 -19q57 0 105 9.5t85 22.5v399h-242v212h504v-779z" />
    <glyph glyph-name="H" unicode="H" horiz-adv-x="1375" 
d="M152 1423h275v-582h521v582h276v-1423h-276v618h-521v-618h-275v1423z" />
    <glyph glyph-name="I" unicode="I" horiz-adv-x="578" 
d="M152 1423h275v-1423h-275v1423z" />
    <glyph glyph-name="J" unicode="J" horiz-adv-x="731" 
d="M590 380q0 -111 -23 -187.5t-70 -122.5t-117.5 -66.5t-165.5 -20.5q-61 0 -121 7t-111 19l26 209q42 -8 82 -13t77 -5q85 0 116.5 38t31.5 134v1051h275v-1043z" />
    <glyph glyph-name="K" unicode="K" horiz-adv-x="1185" 
d="M152 1423h275v-674l431 674h318l-466 -685l489 -738h-324l-448 695v-695h-275v1423z" />
    <glyph glyph-name="L" unicode="L" horiz-adv-x="956" 
d="M152 1423h275v-1201h510v-222h-785v1423z" />
    <glyph glyph-name="M" unicode="M" horiz-adv-x="1922" 
d="M225 1423h424l207 -762q15 -58 28.5 -111t25 -106t23.5 -108.5t25 -121.5h6q12 66 23.5 122.5t23.5 110t25.5 106.5t28.5 110l204 760h429l117 -1423h-287l-54 819q-4 55 -6 107.5t-4 104t-3.5 103.5t-1.5 110l-4 1q-14 -57 -26 -109t-24 -103t-25.5 -104t-29.5 -110
l-215 -819h-363l-212 819q-30 109 -56 211.5t-50 213.5l-4 -2q-2 -54 -2.5 -107t-2.5 -104.5t-4 -104t-6 -107.5l-55 -819h-274z" />
    <glyph glyph-name="N" unicode="N" horiz-adv-x="1438" 
d="M152 1423h352l389 -748q24 -49 46 -95t43 -92t41.5 -94t43.5 -102l3 1q-12 108 -18 203t-6 179v748h240v-1423h-355l-387 749q-25 48 -46.5 94t-42 92t-42 94t-40.5 103l-4 -2q9 -106 16 -201.5t7 -179.5v-749h-240v1423z" />
    <glyph glyph-name="O" unicode="O" horiz-adv-x="1363" 
d="M1256 719q0 -227 -38 -372t-112.5 -228.5t-183.5 -115.5t-250 -32q-142 0 -247.5 29.5t-176 110.5t-106 223.5t-35.5 369.5t38 372.5t111.5 229t182.5 115t250 31.5q142 0 248 -29t176.5 -110.5t106.5 -224t36 -369.5zM979 710q0 165 -17 268.5t-53.5 160.5t-93 78
t-134.5 21q-79 0 -134 -20t-92 -77t-54 -160t-17 -268t17 -268t54 -160.5t92 -78.5t134 -21q78 0 134.5 20t93 77.5t53.5 159.5t17 268z" />
    <glyph glyph-name="P" unicode="P" horiz-adv-x="1132" 
d="M152 1423h426q134 0 229 -17t156 -62t89.5 -125t28.5 -205q0 -123 -29.5 -210t-93 -142t-162.5 -81t-239 -26h-130v-555h-275v1423zM565 764q129 0 186 57.5t57 182.5q0 63 -12.5 103.5t-41 64t-73.5 33.5t-111 10h-143v-451h138z" />
    <glyph glyph-name="Q" unicode="Q" horiz-adv-x="1363" 
d="M1104 -250l-200 257q-47 -20 -102.5 -28t-129.5 -8q-142 0 -247.5 29.5t-176 110.5t-106 223.5t-35.5 368.5q0 228 38 373.5t111.5 229t182.5 115t250 31.5q142 0 248 -29t176.5 -110.5t106.5 -224t36 -369.5q0 -112 -9 -200.5t-26.5 -159.5t-42.5 -123.5t-57 -93.5
l194 -237zM979 710q0 165 -17 268t-53.5 160.5t-93 78.5t-134.5 21q-79 0 -134 -20t-92 -77t-54 -160t-17 -268t17 -268.5t54 -160.5t92 -78t134 -21q78 0 134.5 20t93 77t53.5 159.5t17 268.5z" />
    <glyph glyph-name="R" unicode="R" horiz-adv-x="1206" 
d="M152 1423h441q146 0 245.5 -17t161 -60t88 -116t26.5 -183q0 -81 -18 -144.5t-56 -111.5t-98 -80t-143 -48l363 -663h-315l-324 624h-96v-624h-275v1423zM587 832q75 0 124 13t78 38.5t40.5 63.5t11.5 91q0 50 -11.5 84.5t-41 54.5t-78.5 29t-123 9h-160v-383h160z" />
    <glyph glyph-name="S" unicode="S" horiz-adv-x="1079" 
d="M135 231q86 -21 168 -34.5t177 -13.5q136 0 199.5 46t63.5 132q0 39 -11.5 68t-44.5 57.5t-91 62t-150 80.5q-100 51 -168 94.5t-109.5 91.5t-59.5 106t-18 139q0 88 29 159.5t92 122.5t160 78.5t233 27.5q94 0 173 -12.5t146 -30.5l-29 -207q-69 20 -137 31t-157 11
q-67 0 -114.5 -10.5t-78 -30.5t-46 -48.5t-15.5 -66.5q0 -36 12.5 -64t44.5 -55.5t88 -59t144 -76.5q108 -55 179 -99.5t112.5 -93t59 -106t17.5 -137.5q0 -97 -31 -174t-95.5 -131.5t-164.5 -83.5t-237 -29q-96 0 -187 13.5t-181 36.5z" />
    <glyph glyph-name="S" unicode="&#xe002;" horiz-adv-x="1079" 
d="M135 231q86 -21 168 -34.5t177 -13.5q136 0 199.5 46t63.5 132q0 39 -11.5 68t-44.5 57.5t-91 62t-150 80.5q-100 51 -168 94.5t-109.5 91.5t-59.5 106t-18 139q0 88 29 159.5t92 122.5t160 78.5t233 27.5q94 0 173 -12.5t146 -30.5l-29 -207q-69 20 -137 31t-157 11
q-67 0 -114.5 -10.5t-78 -30.5t-46 -48.5t-15.5 -66.5q0 -36 12.5 -64t44.5 -55.5t88 -59t144 -76.5q108 -55 179 -99.5t112.5 -93t59 -106t17.5 -137.5q0 -97 -31 -174t-95.5 -131.5t-164.5 -83.5t-237 -29q-96 0 -187 13.5t-181 36.5z" />
    <glyph glyph-name="T" unicode="T" horiz-adv-x="1083" 
d="M405 1202h-389v221h1051v-221h-386v-1202h-276v1202z" />
    <glyph glyph-name="U" unicode="U" horiz-adv-x="1337" 
d="M399 1423v-843q0 -108 12 -183.5t42.5 -122.5t83 -68t134.5 -21q81 0 133 21.5t82 69t41 122t11 183.5v842h276v-830q0 -163 -28 -280.5t-93.5 -193.5t-171 -112t-260.5 -36q-153 0 -256 33t-165 105t-89.5 187t-27.5 279v848h276z" />
    <glyph glyph-name="V" unicode="V" horiz-adv-x="1281" 
d="M24 1423h290l216 -760q16 -57 31 -113t30 -115.5t29.5 -123t29.5 -131.5h4q14 68 28 131.5t28.5 123t29.5 115.5t31 113l215 760h271l-408 -1423h-413z" />
    <glyph glyph-name="W" unicode="W" horiz-adv-x="2042" 
d="M50 1423h289l165 -760q12 -55 22.5 -111.5t20 -116t19 -123t20.5 -131.5h5q10 67 19.5 131t19.5 123.5t20 116.5t21 111l161 760h394l159 -760q11 -55 21.5 -112t20.5 -116.5t19.5 -122.5t21.5 -131h4q11 68 21 131.5t20.5 123.5t21 116.5t21.5 110.5l164 760h272
l-320 -1423h-409l-167 820q-12 58 -21.5 112t-18.5 107t-17 103.5t-16 101.5h-2q-8 -52 -17 -103t-18.5 -103t-20 -106.5t-20.5 -111.5l-168 -820h-408z" />
    <glyph glyph-name="X" unicode="X" horiz-adv-x="1320" 
d="M464 727l-445 696h309l348 -540l4 2q12 24 25.5 46t26 44t25.5 43.5t28 46.5l221 358h285l-443 -699l464 -724h-312l-364 568l-5 -2q-24 -47 -47.5 -87.5t-52.5 -86.5l-239 -392h-284z" />
    <glyph glyph-name="Y" unicode="Y" horiz-adv-x="1155" 
d="M439 531l-445 892h279l189 -352q21 -38 37 -71t30 -65t27.5 -64t28.5 -69h6q16 40 29 73.5t26 64.5t28 63.5t33 68.5l177 351h278l-452 -895v-528h-271v531z" />
    <glyph glyph-name="Z" unicode="Z" horiz-adv-x="1027" 
d="M50 175l593 1026h-559v222h883v-175l-594 -1026h608v-222h-931v175z" />
    <glyph glyph-name="bracketleft" unicode="[" horiz-adv-x="701" 
d="M165 1511h481v-187h-244v-1465h244v-188h-481v1840z" />
    <glyph glyph-name="backslash" unicode="\" horiz-adv-x="865" 
d="M10 1511h244l645 -1736h-245z" />
    <glyph glyph-name="bracketright" unicode="]" horiz-adv-x="701" 
d="M55 -141h244v1465h-244v187h481v-1840h-481v188z" />
    <glyph glyph-name="asciicircum" unicode="^" 
d="M407 1423h271l353 -693h-247l-242 468l-242 -468h-246z" />
    <glyph glyph-name="underscore" unicode="_" 
d="M0 -245h1085v-226h-1085v226z" />
    <glyph glyph-name="grave" unicode="`" horiz-adv-x="803" 
d="M328 1581l314 -312l-118 -131l-352 270z" />
    <glyph glyph-name="a" unicode="a" horiz-adv-x="1051" 
d="M647 695q0 68 -36.5 101t-128.5 33q-74 0 -143 -10t-144 -26l-26 199q86 19 175 32t185 13q109 0 184 -19t120.5 -58.5t65.5 -101.5t20 -149v-709h-224l-15 91q-73 -45 -145 -77.5t-165 -32.5q-128 0 -210 73.5t-82 228.5q0 80 27 143t85.5 107t150.5 67.5t226 23.5h80
v71zM582 450q-75 0 -125.5 -10t-81 -27.5t-43 -46t-12.5 -63.5q0 -65 31.5 -93.5t82.5 -28.5q54 0 102 23t111 67v179h-65z" />
    <glyph glyph-name="b" unicode="b" horiz-adv-x="1146" 
d="M144 1511h273v-363q0 -53 -1.5 -102t-8.5 -112l2 -3q62 39 133 71.5t164 32.5q79 0 144 -24.5t111.5 -84.5t71 -158t24.5 -246q0 -147 -33.5 -250.5t-90.5 -167.5t-136 -93.5t-168 -29.5q-74 0 -131.5 17.5t-118.5 49.5l-10 -48h-225v1511zM417 241q42 -24 80.5 -37
t82.5 -13q39 0 76.5 14t65.5 51t45 99t17 158q0 95 -11 154t-31 92t-49.5 45t-67.5 12q-45 0 -94 -23t-114 -68v-484z" />
    <glyph glyph-name="b" unicode="&#xe003;" horiz-adv-x="1146" 
d="M144 1511h273v-363q0 -53 -1.5 -102t-8.5 -112l2 -3q62 39 133 71.5t164 32.5q79 0 144 -24.5t111.5 -84.5t71 -158t24.5 -246q0 -147 -33.5 -250.5t-90.5 -167.5t-136 -93.5t-168 -29.5q-74 0 -131.5 17.5t-118.5 49.5l-10 -48h-225v1511zM417 241q42 -24 80.5 -37
t82.5 -13q39 0 76.5 14t65.5 51t45 99t17 158q0 95 -11 154t-31 92t-49.5 45t-67.5 12q-45 0 -94 -23t-114 -68v-484z" />
    <glyph glyph-name="c" unicode="c" horiz-adv-x="879" 
d="M812 18q-60 -17 -131 -28t-139 -11q-114 0 -199 24t-140 82t-83 160t-28 257t34 258t94.5 164.5t146.5 87t191 25.5q66 0 134 -10t127 -26l-24 -199q-51 13 -101.5 20t-108.5 7q-51 0 -92 -12.5t-69.5 -47.5t-43 -97.5t-14.5 -162.5q0 -99 11.5 -162.5t38 -98.5
t68.5 -48.5t103 -13.5q45 0 99 8.5t105 22.5z" />
    <glyph glyph-name="d" unicode="d" horiz-adv-x="1146" 
d="M762 101q-79 -53 -154 -86.5t-167 -33.5q-80 0 -145 24.5t-111 84t-71 157.5t-25 246t33.5 251.5t91.5 167.5t136 93.5t168 29.5q62 0 116 -14t105 -40l2 2q-6 57 -8.5 106.5t-2.5 101.5v320h272v-1511h-224zM730 774q-43 24 -81 37.5t-83 13.5q-39 0 -76 -14.5
t-65.5 -51t-45 -98.5t-16.5 -158t10.5 -155t30.5 -92t50 -44.5t68 -11.5q44 0 93.5 23t114.5 67v484z" />
    <glyph glyph-name="e" unicode="e" horiz-adv-x="1053" 
d="M914 20q-85 -18 -168.5 -29.5t-182.5 -11.5q-114 0 -202 21t-147.5 78t-90.5 159t-31 265q0 157 33.5 261.5t94 167.5t147 88.5t191.5 25.5q104 0 180.5 -20.5t125.5 -73.5t73 -142t24 -226q0 -38 -2.5 -76.5t-5.5 -78.5h-587q1 -79 14.5 -126.5t42.5 -72.5t74.5 -34
t112.5 -9q77 0 141.5 9.5t140.5 25.5zM719 602q-1 72 -11 118.5t-30.5 73t-51.5 36.5t-77 10q-44 0 -77.5 -10.5t-56 -37.5t-35 -73t-13.5 -117h352z" />
    <glyph glyph-name="f" unicode="f" horiz-adv-x="721" 
d="M185 813h-153v203h153v112q0 105 18.5 182.5t64.5 128.5t124.5 76t197.5 25q52 0 101.5 -5.5t94.5 -16.5l-23 -199q-31 6 -66 10t-74 4q-94 0 -130 -45t-36 -136v-136h262v-203h-262v-813h-272v813z" />
    <glyph glyph-name="g" unicode="g" horiz-adv-x="1102" 
d="M1077 851q-38 -6 -75.5 -11t-73.5 -10q18 -23 28.5 -57.5t10.5 -85.5q0 -95 -25.5 -164t-78.5 -112.5t-135 -64t-195 -20.5q-35 0 -65.5 4t-46.5 10q-21 -12 -30.5 -25.5t-9.5 -30.5q0 -12 4.5 -22.5t18.5 -19.5t39 -17.5t66 -16.5q82 -18 149 -33t125 -27
q64 -15 111 -36t76 -51.5t43 -73t14 -101.5q0 -77 -28.5 -140.5t-89 -109t-155 -72t-224.5 -26.5q-129 0 -218.5 19.5t-146 57.5t-82 92t-25.5 124q0 93 51.5 153t119.5 95q-54 26 -82 63.5t-28 93.5q0 52 26.5 91.5t75.5 70.5q-55 40 -87.5 107.5t-32.5 179.5
q0 95 25.5 163t78.5 112t135.5 64.5t194.5 20.5q73 0 129 -8t93 -21h320v-165zM654 -36q-52 11 -102.5 22.5t-102.5 23.5q-27 -10 -50 -24t-40.5 -33.5t-27.5 -42t-10 -51.5q0 -31 9.5 -56.5t34.5 -43t66.5 -28.5t104.5 -11t106 11.5t70 31t39 45t12 53.5q0 42 -25.5 66.5
t-83.5 36.5zM706 685q0 51 -10 85t-31 55t-54 30t-78 9q-47 0 -79 -8.5t-53 -29.5t-30 -54.5t-9 -84.5t9 -86t29.5 -56t53.5 -29.5t80 -8.5q45 0 78 8.5t53.5 29.5t30.5 55t10 85z" />
    <glyph glyph-name="h" unicode="h" horiz-adv-x="1184" 
d="M144 1511h273v-363q0 -53 -2.5 -103.5t-8.5 -115.5l2 -2q79 47 159 77.5t178 30.5q160 0 234 -80t74 -255v-700h-273v645q0 99 -30.5 135t-97.5 36q-50 0 -107 -23.5t-128 -69.5v-723h-273v1511z" />
    <glyph glyph-name="i" unicode="i" horiz-adv-x="562" 
d="M144 1016h273v-1016h-273v1016zM435 1343q0 -43 -7 -72t-24.5 -46t-47 -24t-75.5 -7t-76 7t-48 24t-25 46t-7 72q0 42 7 70.5t25 45.5t48 24t76 7t75.5 -7t47 -24t24.5 -45.5t7 -70.5z" />
    <glyph glyph-name="j" unicode="j" horiz-adv-x="562" 
d="M417 -35q0 -105 -18 -184t-62.5 -130.5t-122 -78.5t-195.5 -27q-50 0 -95.5 5.5t-91.5 14.5l22 201q32 -7 65 -10t66 -3q95 0 127 49t32 139v1075h273v-1051zM435 1343q0 -43 -7 -72t-24.5 -46t-47 -24t-75.5 -7t-76 7t-48 24t-25 46t-7 72q0 42 7 70.5t25 45.5t48 24
t76 7t75.5 -7t47 -24t24.5 -45.5t7 -70.5z" />
    <glyph glyph-name="k" unicode="k" horiz-adv-x="1076" 
d="M144 1511h273v-946l328 451h303l-359 -470l368 -546h-322l-318 501v-501h-273v1511z" />
    <glyph glyph-name="l" unicode="l" horiz-adv-x="562" 
d="M144 1511h273v-1511h-273v1511z" />
    <glyph glyph-name="m" unicode="m" horiz-adv-x="1782" 
d="M144 1016h225l16 -102q92 57 173.5 89t175.5 32q112 0 169 -37t87 -91q100 62 183 95t177 33q153 0 226 -80t73 -255v-700h-273v645q0 99 -30 135t-90 36q-45 0 -99 -23.5t-130 -73.5q3 -15 4 -31t1 -38v-650h-272v645q0 99 -30 135t-88 36q-47 0 -100.5 -23.5
t-124.5 -69.5v-723h-273v1016z" />
    <glyph glyph-name="n" unicode="n" horiz-adv-x="1185" 
d="M144 1016h225l16 -102q92 57 177 89t183 32q160 0 234 -80t74 -255v-700h-273v645q0 99 -30.5 135t-97.5 36q-50 0 -107 -23.5t-128 -69.5v-723h-273v1016z" />
    <glyph glyph-name="o" unicode="o" horiz-adv-x="1124" 
d="M1031 515q0 -157 -32 -261t-93.5 -167t-149.5 -89.5t-200 -26.5t-199 23t-145.5 83.5t-89 163t-30.5 261.5q0 157 32.5 261t93 166.5t149 89t198.5 26.5q113 0 200 -23.5t146 -83t89.5 -162.5t30.5 -261zM758 507q0 102 -11.5 166t-35.5 100.5t-62 50t-89 13.5t-88 -13
t-60.5 -49.5t-34.5 -100t-11 -164.5q0 -102 11 -167t34.5 -101t61.5 -50t89 -14t88 13.5t61 50t35.5 100t11.5 165.5z" />
    <glyph glyph-name="p" unicode="p" horiz-adv-x="1146" 
d="M144 1016h225l16 -101q40 25 77 47.5t76.5 38.5t81 25t86.5 9q79 0 144 -24.5t111.5 -84.5t71 -158t24.5 -246q0 -147 -33.5 -250.5t-90.5 -167.5t-136 -93.5t-168 -29.5q-63 0 -117 14t-104 39l-2 -2q3 -27 5.5 -53t3.5 -52t1.5 -50.5t0.5 -52.5v-256h-273v1448z
M417 241q42 -24 80.5 -37t82.5 -13q39 0 76.5 14t65.5 51t45 99t17 158q0 95 -11 154t-31 92t-49.5 45t-67.5 12q-45 0 -94 -23t-114 -68v-484z" />
    <glyph glyph-name="q" unicode="q" horiz-adv-x="1146" 
d="M1002 -432h-272v300q0 53 1.5 102t8.5 112l-2 3q-62 -39 -133 -71.5t-164 -32.5q-80 0 -145 24.5t-111 84t-71 157.5t-25 246t33.5 251.5t91.5 167.5t136 93.5t168 29.5q73 0 131 -17.5t119 -49.5l10 48h224v-1448zM730 774q-43 24 -81 37.5t-83 13.5q-39 0 -76 -14.5
t-65.5 -51t-45 -98.5t-16.5 -158t10.5 -155t30.5 -92t50 -44.5t68 -11.5q44 0 93.5 23t114.5 67v484z" />
    <glyph glyph-name="r" unicode="r" horiz-adv-x="731" 
d="M144 1016h225l16 -106q33 28 66 52.5t65.5 43t65 29.5t65.5 11q27 0 47.5 -4.5t38.5 -16.5l-32 -239q-18 9 -38.5 14.5t-47.5 5.5q-40 0 -88 -23t-110 -60v-723h-273v1016z" />
    <glyph glyph-name="s" unicode="s" horiz-adv-x="873" 
d="M108 216q78 -17 144 -27.5t126 -10.5q47 0 81 6.5t55.5 18.5t33 31.5t11.5 43.5q0 23 -9.5 39.5t-32.5 32t-64.5 33.5t-105.5 44q-71 30 -121 57.5t-81.5 61.5t-46 76.5t-14.5 103.5q0 156 106.5 233.5t322.5 77.5q64 0 129 -10t116 -24l-28 -197q-56 15 -113 23.5
t-116 8.5q-80 0 -122 -21.5t-42 -70.5q0 -19 8.5 -33t30.5 -30t60.5 -33t98.5 -41q75 -30 128 -57t86.5 -62.5t48.5 -81.5t15 -112q0 -152 -103.5 -234.5t-342.5 -82.5q-78 0 -145.5 10.5t-138.5 28.5z" />
    <glyph glyph-name="s" unicode="&#xe004;" horiz-adv-x="873" 
d="M108 216q78 -17 144 -27.5t126 -10.5q47 0 81 6.5t55.5 18.5t33 31.5t11.5 43.5q0 23 -9.5 39.5t-32.5 32t-64.5 33.5t-105.5 44q-71 30 -121 57.5t-81.5 61.5t-46 76.5t-14.5 103.5q0 156 106.5 233.5t322.5 77.5q64 0 129 -10t116 -24l-28 -197q-56 15 -113 23.5
t-116 8.5q-80 0 -122 -21.5t-42 -70.5q0 -19 8.5 -33t30.5 -30t60.5 -33t98.5 -41q75 -30 128 -57t86.5 -62.5t48.5 -81.5t15 -112q0 -152 -103.5 -234.5t-342.5 -82.5q-78 0 -145.5 10.5t-138.5 28.5z" />
    <glyph glyph-name="t" unicode="t" horiz-adv-x="733" 
d="M176 1016v285l272 36v-321h222v-203h-222v-485q0 -79 24 -109.5t80 -30.5q31 0 60 4.5t58 15.5l22 -195q-48 -15 -103 -24t-120 -9q-82 0 -138.5 16t-91 50t-49 87.5t-14.5 125.5v554h-148v203h148z" />
    <glyph glyph-name="u" unicode="u" horiz-adv-x="1187" 
d="M404 1016v-645q0 -100 32 -135.5t98 -35.5q51 0 107.5 24t128.5 70v722h272v-1016h-224l-16 102q-92 -57 -178 -89t-184 -32q-160 0 -233.5 79.5t-73.5 255.5v700h271z" />
    <glyph glyph-name="v" unicode="v" horiz-adv-x="1041" 
d="M21 1016h277l144 -499q12 -48 22.5 -88.5t20.5 -80t19.5 -81t19.5 -90.5h3q11 49 20.5 91.5t19 82.5t20 80t24.5 86l146 499h263l-308 -1016h-384z" />
    <glyph glyph-name="w" unicode="w" horiz-adv-x="1735" 
d="M31 1016h280l124 -499q9 -40 18 -80.5t16.5 -82.5t16 -85.5t16.5 -90.5h3q13 89 30 173.5t36 165.5l119 499h369l121 -499q10 -39 18.5 -79t16 -82t15.5 -86.5t17 -91.5h4q19 99 33.5 179t34.5 160l120 499h265l-265 -1016h-380l-124 500q-20 80 -35.5 163t-30.5 174h-2
q-14 -90 -28.5 -172.5t-34.5 -163.5l-124 -501h-375z" />
    <glyph glyph-name="x" unicode="x" horiz-adv-x="1079" 
d="M349 521l-322 495h307l230 -362l2 1q15 28 29.5 53.5t31.5 56.5l150 251h282l-329 -503l338 -513h-319l-234 386l-2 -1q-16 -32 -31 -58.5t-34 -57.5l-156 -269h-281z" />
    <glyph glyph-name="y" unicode="y" horiz-adv-x="1039" 
d="M13 1016h293l138 -454q13 -46 23.5 -86t20 -78.5t18.5 -81t19 -92.5h4q11 51 20 93t19.5 81.5l21 79t23.5 84.5l139 454h283l-382 -1105q-37 -107 -73 -177.5t-84.5 -112.5t-115.5 -59t-162 -17q-52 0 -98 6t-81 14l24 199q29 -6 66 -8.5t65 -2.5q35 0 64 6t53.5 23
t45 47t39.5 79l35 92h-92z" />
    <glyph glyph-name="y" unicode="&#xe006;" horiz-adv-x="1039" 
d="M13 1016h293l138 -454q13 -46 23.5 -86t20 -78.5t18.5 -81t19 -92.5h4q11 51 20 93t19.5 81.5l21 79t23.5 84.5l139 454h283l-382 -1105q-37 -107 -73 -177.5t-84.5 -112.5t-115.5 -59t-162 -17q-52 0 -98 6t-81 14l24 199q29 -6 66 -8.5t65 -2.5q35 0 64 6t53.5 23
t45 47t39.5 79l35 92h-92z" />
    <glyph glyph-name="z" unicode="z" horiz-adv-x="884" 
d="M67 153l420 653h-391v210h711v-151l-421 -655h434v-210h-753v153z" />
    <glyph glyph-name="braceleft" unicode="{" horiz-adv-x="699" 
d="M637 -322q-24 -2 -50 -4.5t-62 -2.5q-148 0 -224 91.5t-76 273.5v206q0 56 -10.5 98.5t-31.5 74.5t-53 54.5t-73 36.5v194q41 14 73 36.5t53 55t31.5 75.5t10.5 98v182q0 182 76 273t224 91q36 0 62 -2t50 -4v-181q-54 0 -88.5 -8.5t-53.5 -30t-26.5 -56t-7.5 -86.5v-194
q0 -66 -10.5 -118.5t-32.5 -94.5t-54 -74t-76 -57q44 -25 76 -56.5t54 -73.5t32.5 -95.5t10.5 -119.5v-220q0 -52 7.5 -86.5t26.5 -56t53.5 -30t88.5 -8.5v-181z" />
    <glyph glyph-name="bar" unicode="|" horiz-adv-x="565" 
d="M152 1511h261v-1943h-261v1943z" />
    <glyph glyph-name="braceright" unicode="}" horiz-adv-x="699" 
d="M62 -141q54 0 88 8.5t53 30t27 56t8 86.5v220q0 66 10 119.5t32.5 95.5t54 73.5t75.5 56.5q-44 25 -75.5 57t-54 74t-32.5 94.5t-10 118.5v194q0 52 -8 86.5t-27 56t-53 30t-88 8.5v181q23 2 49 4t62 2q149 0 224.5 -91t75.5 -273v-182q0 -55 11 -98t32 -75.5t52 -55
t73 -36.5v-194q-42 -14 -73 -36.5t-52 -54.5t-32 -74.5t-11 -98.5v-206q0 -182 -75.5 -273.5t-224.5 -91.5q-36 0 -62 2.5t-49 4.5v181z" />
    <glyph glyph-name="asciitilde" unicode="~" 
d="M85 903q-5 84 13 155t55.5 122t92 79t122.5 28q77 0 127.5 -27.5t86.5 -60.5l66 -60.5t70 -27.5q22 0 39 11t29 32t18 52.5t6 69.5h190q5 -85 -13 -156t-55.5 -121.5t-92.5 -79t-121 -28.5q-79 0 -129 27.5t-85.5 61t-65.5 60.5t-70 27q-45 0 -68.5 -43.5t-23.5 -120.5
h-191z" />
    <glyph glyph-name="exclamdown" unicode="&#xa1;" horiz-adv-x="609" 
d="M195 674h220l35 -1106h-291zM452 969q0 -40 -7 -67.5t-23.5 -44.5t-44.5 -24t-71 -7q-87 0 -116.5 31t-29.5 112q0 39 6.5 67t23 45t45 23.5t71.5 6.5q86 0 116 -31.5t30 -110.5z" />
    <glyph glyph-name="cent" unicode="&#xa2;" 
d="M724 1423v-186q31 -2 60.5 -5.5t57 -8t53.5 -11t52 -13.5l-31 -206q-32 9 -63.5 15t-61 10.5t-58 6.5t-55.5 2q-72 0 -125 -11.5t-88 -45.5t-52 -95t-17 -160q0 -100 17.5 -162.5t53 -97.5t88.5 -47t126 -12q29 0 57.5 2.5t57.5 7t59 11t61 14.5l30 -206
q-56 -15 -111 -25t-111 -14v-186h-208v190q-94 9 -166 39t-121 89.5t-74.5 153.5t-25.5 234q0 139 28 233.5t79 155t122 92.5t158 44v192h208z" />
    <glyph glyph-name="sterling" unicode="&#xa3;" 
d="M287 831q-9 38 -18 70t-16 63t-11.5 63t-4.5 68q0 86 29.5 152.5t88 111.5t145.5 68t202 23q48 0 87.5 -2.5t74 -7t64 -10.5t58.5 -13l-26 -203q-31 6 -59.5 10.5t-57.5 8t-60.5 5.5t-67.5 2q-56 0 -96 -11.5t-66.5 -33.5t-39 -55t-12.5 -78q0 -30 4.5 -58t11 -55.5
t15 -56.5t16.5 -61h364v-211h-337q1 -9 1.5 -17t0.5 -17q0 -49 -6.5 -96t-19 -92t-31 -90t-42.5 -91h513v-217h-900v217h120q23 44 42 88t32.5 89t21 92t7.5 97q0 10 -0.5 19t-1.5 18h-173v211h148z" />
    <glyph glyph-name="currency" unicode="&#xa4;" horiz-adv-x="1281" 
d="M241 461q-27 46 -44.5 112.5t-17.5 143.5t15.5 138.5t42.5 111.5l-173 175l147 147l172 -172q47 29 109 48.5t148 19.5t149.5 -19.5t107.5 -48.5l175 172l147 -147l-175 -176q25 -48 41 -110.5t16 -138.5t-16.5 -140t-45.5 -116l178 -180l-147 -147l-180 180
q-42 -26 -103 -45.5t-147 -19.5q-84 0 -144.5 19t-104.5 46l-182 -180l-147 147zM889 717q0 67 -15.5 119t-46 87.5t-77.5 54.5t-110 19t-110 -19t-77.5 -54.5t-45.5 -87.5t-15 -119q0 -66 15 -118t45.5 -87.5t77.5 -54t110 -18.5t110 18.5t77.5 54t46 87.5t15.5 118z" />
    <glyph glyph-name="yen" unicode="&#xa5;" 
d="M408 174h-281v182h281v139h-281v182h237l-323 746h284l141 -335q14 -37 25.5 -66t21.5 -56t19.5 -55.5t20.5 -64.5h5q12 37 21.5 66t19.5 56t20 55.5t22 63.5l131 336h273l-323 -746h236v-182h-281v-139h281v-182h-281v-174h-269v174z" />
    <glyph glyph-name="brokenbar" unicode="&#xa6;" horiz-adv-x="565" 
d="M152 337h261v-769h-261v769zM152 1511h261v-783h-261v783z" />
    <glyph glyph-name="section" unicode="&#xa7;" horiz-adv-x="1172" 
d="M261 -111q63 -17 124.5 -24t129.5 -7q98 0 145.5 25t47.5 83q0 27 -11 49.5t-42.5 48t-87.5 57.5t-144 83q-98 55 -159.5 99.5t-95 88.5t-45.5 91t-12 107q0 57 15 103.5t42.5 84.5t64.5 70t80 61q-61 50 -84.5 102.5t-23.5 129.5q0 80 28.5 139t84 96.5t138.5 55.5
t193 18q81 0 157 -10.5t139 -28.5l-35 -201q-63 16 -124 23.5t-129 7.5q-99 0 -146.5 -25.5t-47.5 -82.5q0 -30 11 -51t43 -46.5t88 -58.5t144 -83q98 -55 159.5 -99.5t95 -88.5t45.5 -91t12 -106t-16 -106t-44.5 -86.5t-66.5 -71t-82 -61.5q63 -53 89 -106t26 -120
q0 -81 -28.5 -140t-84 -96.5t-139.5 -55.5t-193 -18q-80 0 -156 10.5t-139 29.5zM603 725q-35 20 -60 35t-52 30q-59 -39 -97 -79.5t-38 -104.5q0 -34 10.5 -60.5t34.5 -53t65 -54t103 -64.5q34 -21 59.5 -35.5t52.5 -30.5q58 39 96 79.5t38 105.5q0 33 -10 60t-34.5 53
t-65 54t-102.5 65z" />
    <glyph glyph-name="dieresis" unicode="&#xa8;" horiz-adv-x="1139" 
d="M486 1343q0 -80 -30 -109.5t-116 -29.5t-115.5 30t-29.5 109q0 78 29.5 108t115.5 30q85 0 115.5 -30t30.5 -108zM938 1343q0 -79 -30 -109t-115 -30q-86 0 -116 30t-30 109q0 78 30 108t116 30q84 0 114.5 -30t30.5 -108z" />
    <glyph glyph-name="copyright" unicode="&#xa9;" horiz-adv-x="1875" 
d="M1220 328q-60 -17 -126 -27.5t-140 -10.5q-105 0 -184.5 21t-132 73.5t-80 141.5t-27.5 223q0 132 29.5 222.5t85 145.5t135.5 79t185 24q68 0 132 -9t125 -26l-24 -157q-57 14 -111.5 21.5t-102.5 7.5q-57 0 -100.5 -12t-73.5 -44t-45.5 -90.5t-15.5 -153.5t15.5 -154.5
t47 -92.5t75 -45t99.5 -12q50 0 103.5 8t108.5 22zM1725 757q0 -186 -53.5 -331t-155 -246.5t-248 -155t-332.5 -53.5q-188 0 -334.5 52t-246.5 152t-152.5 245.5t-52.5 334.5q0 185 53.5 330.5t154.5 247t248 154.5t333 53q188 0 334.5 -51.5t246.5 -152t152.5 -246
t52.5 -333.5zM1531 756q0 150 -36.5 266t-109.5 194t-184.5 118.5t-262.5 40.5t-262.5 -40.5t-185.5 -118.5t-110 -194t-36 -266q0 -151 36 -267t110 -194t185.5 -118t262.5 -40t262.5 40t184.5 118t109.5 194t36.5 267z" />
    <glyph glyph-name="ordfeminine" unicode="&#xaa;" horiz-adv-x="775" 
d="M479 1214q0 41 -26.5 62t-93.5 21q-53 0 -102 -6.5t-113 -21.5l-21 148q33 7 63.5 13.5t63 10t67 6.5t76.5 3q140 0 211 -51t71 -173v-513h-161l-11 62q-55 -39 -109 -61t-127 -22q-42 0 -80 12.5t-66.5 39t-46 66.5t-17.5 95t18 102t58 80.5t105 52t161 18.5h80v56z
M414 1027q-95 0 -133 -27t-38 -75q0 -47 24 -66.5t60 -19.5q37 0 73.5 17t78.5 48v123h-65zM66 587h620v-165h-620v165z" />
    <glyph glyph-name="guillemotleft" unicode="&#xab;" horiz-adv-x="1150" 
d="M557 507l304 468l204 -105l-219 -361l217 -363l-202 -110zM66 507l318 489l204 -107l-232 -380l233 -386l-205 -107z" />
    <glyph glyph-name="logicalnot" unicode="&#xac;" 
d="M106 690h853v-469h-217v265h-636v204z" />
    <glyph glyph-name="uni00AD" unicode="&#xad;" horiz-adv-x="890" 
d="M133 662h624v-235h-624v235z" />
    <glyph glyph-name="registered" unicode="&#xae;" horiz-adv-x="983" 
d="M886 1077q0 -176 -106.5 -275.5t-287.5 -99.5q-182 0 -288.5 99.5t-106.5 275.5t106.5 275.5t288.5 99.5q181 0 287.5 -99.5t106.5 -275.5zM766 1077q0 134 -67 204t-207 70q-141 0 -208 -70t-67 -204t67 -204t208 -70q140 0 207 70t67 204zM337 1282h160q95 0 133.5 -28
t38.5 -87q0 -55 -23 -84.5t-63 -40.5l85 -165h-122l-77 155h-24v-155h-108v405zM488 1106q40 0 54 12.5t14 40.5q0 24 -12.5 33.5t-50.5 9.5h-48v-96h43z" />
    <glyph glyph-name="macron" unicode="&#xaf;" horiz-adv-x="1153" 
d="M283 1435h611v-196h-611v196z" />
    <glyph glyph-name="degree" unicode="&#xb0;" horiz-adv-x="850" 
d="M773 1211q0 -81 -26 -141t-73 -101t-111.5 -62t-140.5 -21q-77 0 -140.5 20t-109 59t-70.5 99t-25 140q0 79 26 140t72.5 102t111 62t142.5 21q76 0 139.5 -20t109 -59.5t70.5 -99.5t25 -139zM572 1206q0 70 -39.5 112.5t-108.5 42.5q-70 0 -107.5 -41.5t-37.5 -111.5
q0 -69 39 -112t108 -43q70 0 108 42t38 111z" />
    <glyph glyph-name="plusminus" unicode="&#xb1;" 
d="M102 895h332v348h216v-348h333v-203h-333v-350h-216v350h-332v203zM102 203h881v-203h-881v203z" />
    <glyph glyph-name="twosuperior" unicode="&#xb2;" horiz-adv-x="619" 
d="M44 862l140 140q62 62 93.5 105t31.5 89q0 37 -25.5 57.5t-69.5 20.5q-34 0 -64 -5.5t-69 -16.5l-19 159q59 15 111 22t114 7q128 0 194 -54t66 -142t-43.5 -150t-123.5 -129l-92 -86h270v-166h-514v149z" />
    <glyph glyph-name="threesuperior" unicode="&#xb3;" horiz-adv-x="590" 
d="M49 865q34 -7 65 -11.5t65 -4.5q69 0 100.5 20t31.5 63q0 19 -8 33t-29 23.5t-58.5 14.5t-98.5 5v143q103 0 143 20.5t40 55.5q0 34 -26 48t-79 14q-35 0 -67 -5t-64 -13l-19 144q46 11 98 18t103 7q134 0 200.5 -45t66.5 -126q0 -66 -33 -108t-85 -66q59 -14 98.5 -54
t39.5 -109q0 -112 -78 -172.5t-229 -60.5q-57 0 -102 4t-92 14z" />
    <glyph glyph-name="acute" unicode="&#xb4;" horiz-adv-x="803" 
d="M498 1581l157 -173l-352 -270l-119 131z" />
    <glyph glyph-name="mu" unicode="&#xb5;" horiz-adv-x="1198" 
d="M144 1016h273v-645q0 -100 31.5 -135.5t97.5 -35.5q51 0 108 24t128 70v722h272v-1016h-224l-16 102q-30 -22 -63 -42.5t-68 -37.5t-70.5 -27t-71.5 -10q-47 0 -78 13.5t-55 37.5l-2 -2q6 -56 8.5 -106.5t2.5 -103.5v-256h-273v1448z" />
    <glyph glyph-name="paragraph" unicode="&#xb6;" horiz-adv-x="1205" 
d="M529 438q-125 2 -206 28t-129.5 87t-67.5 160.5t-19 247.5q0 138 25.5 228t84 141.5t153 72t230.5 20.5h557v-137h-146v-1615h-168v1615h-147v-1615h-167v767z" />
    <glyph glyph-name="periodcentered" unicode="&#xb7;" horiz-adv-x="513" 
d="M413 532q0 -44 -7 -72.5t-25 -46t-47.5 -24.5t-76.5 -7t-77 7t-48 24.5t-24.5 46t-6.5 72.5t6.5 73t24.5 46.5t48 24.5t77 7t76.5 -7t47.5 -24.5t25 -46.5t7 -73z" />
    <glyph glyph-name="cedilla" unicode="&#xb8;" horiz-adv-x="625" 
d="M201 0h160l-10 -89q97 -4 146 -45t49 -116q0 -96 -71.5 -147.5t-201.5 -51.5q-87 0 -160 16l17 122q32 -4 59 -7.5t54 -3.5q56 0 81.5 16t25.5 48q0 30 -22.5 44t-83.5 14h-65z" />
    <glyph glyph-name="onesuperior" unicode="&#xb9;" horiz-adv-x="484" 
d="M179 1219l-115 -64l-70 123l215 148h172v-713h-202v506z" />
    <glyph glyph-name="ordmasculine" unicode="&#xba;" horiz-adv-x="825" 
d="M747 1074q0 -112 -22 -186.5t-65 -119.5t-106.5 -64t-145.5 -19q-84 0 -145.5 17t-102.5 59.5t-61.5 115t-20.5 184.5t22.5 186t65.5 119t106.5 64.5t144.5 19.5q82 0 144 -18t103 -61t62 -115t21 -182zM546 1067q0 68 -7 113.5t-23.5 71.5t-41.5 35t-62 9
q-34 0 -59.5 -9t-41.5 -35t-24 -71.5t-8 -113.5q0 -70 8 -114.5t24 -70t41.5 -35t59.5 -9.5q37 0 62.5 9.5t41.5 35.5t23 70t7 114zM117 587h592v-165h-592v165z" />
    <glyph glyph-name="guillemotright" unicode="&#xbb;" horiz-adv-x="1150" 
d="M793 502l-233 386l206 108l317 -492l-317 -488l-205 106zM303 502l-217 363l203 110l303 -471l-303 -468l-204 106z" />
    <glyph glyph-name="onequarter" unicode="&#xbc;" horiz-adv-x="1440" 
d="M1072 1469l145 -95l-942 -1420l-146 96zM179 1219l-115 -64l-70 123l215 148h172v-713h-202v506zM805 279l238 434h287v-420h81v-167h-81v-126h-197v126h-328v153zM1133 293v267l-149 -267h149z" />
    <glyph glyph-name="onehalf" unicode="&#xbd;" horiz-adv-x="1509" 
d="M1072 1469l145 -95l-942 -1420l-146 96zM179 1219l-115 -64l-70 123l215 148h172v-713h-202v506zM934 149l140 140q62 62 93.5 105t31.5 89q0 37 -25.5 57.5t-69.5 20.5q-34 0 -64 -5.5t-69 -16.5l-19 159q59 15 111 22t114 7q128 0 194 -54t66 -142t-43.5 -150
t-123.5 -129l-92 -86h270v-166h-514v149z" />
    <glyph glyph-name="threequarters" unicode="&#xbe;" horiz-adv-x="1536" 
d="M1168 1469l145 -95l-942 -1420l-146 96zM900 279l238 434h287v-420h81v-167h-81v-126h-197v126h-328v153zM1228 293v267l-149 -267h149zM82 865q34 -7 65 -11.5t65 -4.5q69 0 100.5 20t31.5 63q0 19 -8 33t-29 23.5t-58.5 14.5t-98.5 5v143q103 0 143 20.5t40 55.5
q0 34 -26 48t-79 14q-35 0 -67 -5t-64 -13l-19 144q46 11 98 18t103 7q134 0 200.5 -45t66.5 -126q0 -66 -33 -108t-85 -66q59 -14 98.5 -54t39.5 -109q0 -112 -78 -172.5t-229 -60.5q-57 0 -102 4t-92 14z" />
    <glyph glyph-name="questiondown" unicode="&#xbf;" horiz-adv-x="716" 
d="M530 674l1 -121q2 -68 -1 -117t-17 -91t-42.5 -85.5t-76.5 -99.5q-39 -44 -65.5 -78t-44 -64.5t-25 -61t-7.5 -68.5q0 -64 45 -97.5t145 -33.5q57 0 113.5 9t122.5 29l31 -199q-86 -23 -163 -34.5t-167 -11.5q-204 0 -302.5 75t-98.5 228q0 66 10.5 116.5t32.5 96.5
t59 94t90 106q38 42 63.5 76t41.5 67.5t23 67.5t9 75l2 122h221zM566 969q0 -40 -7 -67.5t-23 -44.5t-44.5 -24t-71.5 -7q-87 0 -116.5 31t-29.5 112q0 39 6.5 67t23 45t45 23.5t71.5 6.5q86 0 116 -31.5t30 -110.5z" />
    <glyph glyph-name="Agrave" unicode="&#xc0;" horiz-adv-x="1289" 
d="M437 1423h411l417 -1423h-288l-104 359h-474l-104 -359h-271zM829 569l-102 356q-12 42 -24.5 82.5t-23.5 81t-22.5 81t-21.5 82.5h-3q-11 -44 -21.5 -84.5t-22 -82t-24 -82.5t-24.5 -84l-97 -350h386zM404 1893l429 -203l-70 -157l-450 156z" />
    <glyph glyph-name="Aacute" unicode="&#xc1;" horiz-adv-x="1289" 
d="M437 1423h411l417 -1423h-288l-104 359h-474l-104 -359h-271zM829 569l-102 356q-12 42 -24.5 82.5t-23.5 81t-22.5 81t-21.5 82.5h-3q-11 -44 -21.5 -84.5t-22 -82t-24 -82.5t-24.5 -84l-97 -350h386zM874 1893l90 -204l-449 -156l-71 157z" />
    <glyph glyph-name="Acircumflex" unicode="&#xc2;" horiz-adv-x="1289" 
d="M437 1423h411l417 -1423h-288l-104 359h-474l-104 -359h-271zM829 569l-102 356q-12 42 -24.5 82.5t-23.5 81t-22.5 81t-21.5 82.5h-3q-11 -44 -21.5 -84.5t-22 -82t-24 -82.5t-24.5 -84l-97 -350h386zM638 1876l341 -182l-78 -154l-272 121l-265 -121l-77 154z" />
    <glyph glyph-name="Atilde" unicode="&#xc3;" horiz-adv-x="1289" 
d="M437 1423h411l417 -1423h-288l-104 359h-474l-104 -359h-271zM829 569l-102 356q-12 42 -24.5 82.5t-23.5 81t-22.5 81t-21.5 82.5h-3q-11 -44 -21.5 -84.5t-22 -82t-24 -82.5t-24.5 -84l-97 -350h386zM252 1684q39 60 100.5 101.5t155.5 41.5q46 0 82 -11.5t66.5 -24
t58.5 -24t61 -11.5q40 0 70 18t58 51l112 -112q-39 -59 -100.5 -101t-155.5 -42q-46 0 -82 11t-66.5 24t-58.5 24.5t-60 11.5q-40 0 -70.5 -18t-57.5 -51z" />
    <glyph glyph-name="Adieresis" unicode="&#xc4;" horiz-adv-x="1289" 
d="M437 1423h411l417 -1423h-288l-104 359h-474l-104 -359h-271zM829 569l-102 356q-12 42 -24.5 82.5t-23.5 81t-22.5 81t-21.5 82.5h-3q-11 -44 -21.5 -84.5t-22 -82t-24 -82.5t-24.5 -84l-97 -350h386zM530 1702q0 -39 -6 -65t-22.5 -41.5t-44 -22.5t-69.5 -7t-69.5 7
t-44 22.5t-22.5 41.5t-6 65q0 76 29.5 105.5t112.5 29.5t112.5 -29.5t29.5 -105.5zM1037 1702q0 -39 -6.5 -65t-23 -41.5t-44 -22.5t-69.5 -7t-69.5 7t-44 22.5t-22.5 41.5t-6 65q0 76 29.5 105.5t112.5 29.5t113 -29.5t30 -105.5z" />
    <glyph glyph-name="Aring" unicode="&#xc5;" horiz-adv-x="1289" 
d="M437 1423h411l417 -1423h-288l-104 359h-474l-104 -359h-271zM829 569l-102 356q-12 42 -24.5 82.5t-23.5 81t-22.5 81t-21.5 82.5h-3q-11 -44 -21.5 -84.5t-22 -82t-24 -82.5t-24.5 -84l-97 -350h386zM889 1722q0 -51 -19 -94.5t-52.5 -73.5t-80 -46.5t-101.5 -16.5
q-54 0 -101 16.5t-80 46.5t-51.5 73.5t-18.5 94.5q0 104 70 167.5t180 63.5q55 0 101.5 -16.5t80.5 -47.5t53 -73.5t19 -93.5zM737 1722q0 44 -27 71t-75 27q-47 0 -73.5 -27t-26.5 -71t26.5 -71t74.5 -27t74.5 27t26.5 71z" />
    <glyph glyph-name="AE" unicode="&#xc6;" horiz-adv-x="1784" 
d="M704 1423h987v-215h-542v-375h503v-210h-503v-408h542v-215h-818v359h-461l-189 -359h-282zM873 569v669h-4l-357 -669h361z" />
    <glyph glyph-name="Ccedilla" unicode="&#xc7;" horiz-adv-x="1071" 
d="M1013 25q-79 -21 -163.5 -34.5t-155.5 -13.5h-19l-6 -65q110 -4 159 -44.5t49 -117.5q0 -99 -74 -150.5t-209 -51.5q-44 0 -87 4t-79 12l17 124q31 -5 62 -8.5t59 -3.5q58 0 86 16.5t28 49.5q0 29 -23.5 42.5t-84.5 13.5h-78l18 187q-97 15 -172 53t-127 118.5t-79 213
t-27 335.5q0 224 38.5 368t113 227t182.5 115.5t248 32.5q85 0 167 -12t157 -33l-31 -209q-68 19 -135.5 29t-134.5 10q-85 0 -147.5 -18.5t-102 -73.5t-59 -157.5t-19.5 -269.5q0 -170 18.5 -272.5t58.5 -158.5t102 -74t151 -18q63 0 130 11t138 32z" />
    <glyph glyph-name="Egrave" unicode="&#xc8;" horiz-adv-x="1062" 
d="M152 1423h817v-215h-542v-375h503v-210h-503v-408h542v-215h-817v1423zM325 1893l429 -203l-70 -157l-450 156z" />
    <glyph glyph-name="Eacute" unicode="&#xc9;" horiz-adv-x="1062" 
d="M152 1423h817v-215h-542v-375h503v-210h-503v-408h542v-215h-817v1423zM816 1893l90 -204l-449 -156l-71 157z" />
    <glyph glyph-name="Ecircumflex" unicode="&#xca;" horiz-adv-x="1062" 
d="M152 1423h817v-215h-542v-375h503v-210h-503v-408h542v-215h-817v1423zM569 1876l341 -182l-78 -154l-272 121l-265 -121l-77 154z" />
    <glyph glyph-name="Edieresis" unicode="&#xcb;" horiz-adv-x="1062" 
d="M152 1423h817v-215h-542v-375h503v-210h-503v-408h542v-215h-817v1423zM447 1702q0 -39 -6 -65t-22.5 -41.5t-44 -22.5t-69.5 -7t-69.5 7t-44 22.5t-22.5 41.5t-6 65q0 76 29.5 105.5t112.5 29.5t112.5 -29.5t29.5 -105.5zM954 1702q0 -39 -6.5 -65t-23 -41.5t-44 -22.5
t-69.5 -7t-69.5 7t-44 22.5t-22.5 41.5t-6 65q0 76 29.5 105.5t112.5 29.5t113 -29.5t30 -105.5z" />
    <glyph glyph-name="Igrave" unicode="&#xcc;" horiz-adv-x="578" 
d="M152 1423h275v-1423h-275v1423zM84 1893l429 -203l-70 -157l-450 156z" />
    <glyph glyph-name="Iacute" unicode="&#xcd;" horiz-adv-x="578" 
d="M152 1423h275v-1423h-275v1423zM502 1893l90 -204l-449 -156l-71 157z" />
    <glyph glyph-name="Icircumflex" unicode="&#xce;" horiz-adv-x="578" 
d="M152 1423h275v-1423h-275v1423zM296 1876l341 -182l-78 -154l-272 121l-265 -121l-77 154z" />
    <glyph glyph-name="Idieresis" unicode="&#xcf;" horiz-adv-x="578" 
d="M152 1423h275v-1423h-275v1423zM218 1702q0 -76 -30 -106t-113 -30t-112.5 30t-29.5 106t29.5 105.5t112.5 29.5t113 -29.5t30 -105.5zM651 1702q0 -76 -29.5 -106t-112.5 -30t-113 30t-30 106t30 105.5t113 29.5t112.5 -29.5t29.5 -105.5z" />
    <glyph glyph-name="Eth" unicode="&#xd0;" horiz-adv-x="1371" 
d="M186 641h-160v204h160v578h475q167 0 282.5 -28.5t187 -106t104.5 -213t33 -352.5q0 -212 -34.5 -351.5t-109.5 -222t-191.5 -116t-280.5 -33.5h-466v641zM651 215q92 0 157 18.5t106 72.5t59 152t18 257t-17.5 256t-58 150.5t-104.5 70t-159 16.5h-190v-363h285v-204
h-285v-426h189z" />
    <glyph glyph-name="Ntilde" unicode="&#xd1;" horiz-adv-x="1438" 
d="M152 1423h352l389 -748q24 -49 46 -95t43 -92t41.5 -94t43.5 -102l3 1q-12 108 -18 203t-6 179v748h240v-1423h-355l-387 749q-25 48 -46.5 94t-42 92t-42 94t-40.5 103l-4 -2q9 -106 16 -201.5t7 -179.5v-749h-240v1423zM319 1684q39 60 100.5 101.5t155.5 41.5
q46 0 82 -11.5t66.5 -24t58.5 -24t61 -11.5q40 0 70 18t58 51l112 -112q-39 -59 -100.5 -101t-155.5 -42q-46 0 -82 11t-66.5 24t-58.5 24.5t-60 11.5q-40 0 -70.5 -18t-57.5 -51z" />
    <glyph glyph-name="Ograve" unicode="&#xd2;" horiz-adv-x="1363" 
d="M1256 719q0 -227 -38 -372t-112.5 -228.5t-183.5 -115.5t-250 -32q-142 0 -247.5 29.5t-176 110.5t-106 223.5t-35.5 369.5t38 372.5t111.5 229t182.5 115t250 31.5q142 0 248 -29t176.5 -110.5t106.5 -224t36 -369.5zM979 710q0 165 -17 268.5t-53.5 160.5t-93 78
t-134.5 21q-79 0 -134 -20t-92 -77t-54 -160t-17 -268t17 -268t54 -160.5t92 -78.5t134 -21q78 0 134.5 20t93 77.5t53.5 159.5t17 268zM428 1893l429 -203l-70 -157l-450 156z" />
    <glyph glyph-name="Oacute" unicode="&#xd3;" horiz-adv-x="1363" 
d="M1256 719q0 -227 -38 -372t-112.5 -228.5t-183.5 -115.5t-250 -32q-142 0 -247.5 29.5t-176 110.5t-106 223.5t-35.5 369.5t38 372.5t111.5 229t182.5 115t250 31.5q142 0 248 -29t176.5 -110.5t106.5 -224t36 -369.5zM979 710q0 165 -17 268.5t-53.5 160.5t-93 78
t-134.5 21q-79 0 -134 -20t-92 -77t-54 -160t-17 -268t17 -268t54 -160.5t92 -78.5t134 -21q78 0 134.5 20t93 77.5t53.5 159.5t17 268zM949 1893l90 -204l-449 -156l-71 157z" />
    <glyph glyph-name="Ocircumflex" unicode="&#xd4;" horiz-adv-x="1363" 
d="M1256 719q0 -227 -38 -372t-112.5 -228.5t-183.5 -115.5t-250 -32q-142 0 -247.5 29.5t-176 110.5t-106 223.5t-35.5 369.5t38 372.5t111.5 229t182.5 115t250 31.5q142 0 248 -29t176.5 -110.5t106.5 -224t36 -369.5zM979 710q0 165 -17 268.5t-53.5 160.5t-93 78
t-134.5 21q-79 0 -134 -20t-92 -77t-54 -160t-17 -268t17 -268t54 -160.5t92 -78.5t134 -21q78 0 134.5 20t93 77.5t53.5 159.5t17 268zM684 1876l341 -182l-78 -154l-272 121l-265 -121l-77 154z" />
    <glyph glyph-name="Otilde" unicode="&#xd5;" horiz-adv-x="1363" 
d="M1256 719q0 -227 -38 -372t-112.5 -228.5t-183.5 -115.5t-250 -32q-142 0 -247.5 29.5t-176 110.5t-106 223.5t-35.5 369.5t38 372.5t111.5 229t182.5 115t250 31.5q142 0 248 -29t176.5 -110.5t106.5 -224t36 -369.5zM979 710q0 165 -17 268.5t-53.5 160.5t-93 78
t-134.5 21q-79 0 -134 -20t-92 -77t-54 -160t-17 -268t17 -268t54 -160.5t92 -78.5t134 -21q78 0 134.5 20t93 77.5t53.5 159.5t17 268zM292 1684q39 60 100.5 101.5t155.5 41.5q46 0 82 -11.5t66.5 -24t58.5 -24t61 -11.5q40 0 70 18t58 51l112 -112q-39 -59 -100.5 -101
t-155.5 -42q-46 0 -82 11t-66.5 24t-58.5 24.5t-60 11.5q-40 0 -70.5 -18t-57.5 -51z" />
    <glyph glyph-name="Odieresis" unicode="&#xd6;" horiz-adv-x="1363" 
d="M1256 719q0 -227 -38 -372t-112.5 -228.5t-183.5 -115.5t-250 -32q-142 0 -247.5 29.5t-176 110.5t-106 223.5t-35.5 369.5t38 372.5t111.5 229t182.5 115t250 31.5q142 0 248 -29t176.5 -110.5t106.5 -224t36 -369.5zM979 710q0 165 -17 268.5t-53.5 160.5t-93 78
t-134.5 21q-79 0 -134 -20t-92 -77t-54 -160t-17 -268t17 -268t54 -160.5t92 -78.5t134 -21q78 0 134.5 20t93 77.5t53.5 159.5t17 268zM572 1702q0 -39 -6 -65t-22.5 -41.5t-44 -22.5t-69.5 -7t-69.5 7t-44 22.5t-22.5 41.5t-6 65q0 76 29.5 105.5t112.5 29.5t112.5 -29.5
t29.5 -105.5zM1079 1702q0 -39 -6.5 -65t-23 -41.5t-44 -22.5t-69.5 -7t-69.5 7t-44 22.5t-22.5 41.5t-6 65q0 76 29.5 105.5t112.5 29.5t113 -29.5t30 -105.5z" />
    <glyph glyph-name="multiply" unicode="&#xd7;" 
d="M397 588l-302 299l147 148l300 -301l301 302l147 -148l-302 -300l303 -300l-148 -147l-300 302l-302 -303l-147 148z" />
    <glyph glyph-name="Oslash" unicode="&#xd8;" horiz-adv-x="1396" 
d="M287 78q-34 31 -67 75t-57.5 116t-40 177.5t-15.5 257.5q0 227 39 372.5t114 229t187 115t259 31.5q67 0 117.5 -7t98.5 -22l96 207l184 -71l-98 -209q46 -39 80 -93t57.5 -129t35.5 -175.5t12 -233.5q0 -227 -38.5 -372t-115 -228.5t-189 -115.5t-258.5 -32
q-63 0 -118 7t-100 25l-94 -197l-183 70zM839 1223q-29 14 -59.5 21t-82.5 7q-85 0 -146 -20.5t-101.5 -80t-59.5 -164.5t-19 -273q0 -76 3.5 -133t9.5 -100.5t14 -76.5t15 -58zM550 204q35 -20 67.5 -26t79.5 -6q85 0 147 21t102 79.5t59.5 164t19.5 273.5q0 72 -3.5 129.5
t-9.5 103t-14.5 80.5t-18.5 63z" />
    <glyph glyph-name="Ugrave" unicode="&#xd9;" horiz-adv-x="1337" 
d="M399 1423v-843q0 -108 12 -183.5t42.5 -122.5t83 -68t134.5 -21q81 0 133 21.5t82 69t41 122t11 183.5v842h276v-830q0 -163 -28 -280.5t-93.5 -193.5t-171 -112t-260.5 -36q-153 0 -256 33t-165 105t-89.5 187t-27.5 279v848h276zM416 1893l429 -203l-70 -157l-450 156z
" />
    <glyph glyph-name="Uacute" unicode="&#xda;" horiz-adv-x="1337" 
d="M399 1423v-843q0 -108 12 -183.5t42.5 -122.5t83 -68t134.5 -21q81 0 133 21.5t82 69t41 122t11 183.5v842h276v-830q0 -163 -28 -280.5t-93.5 -193.5t-171 -112t-260.5 -36q-153 0 -256 33t-165 105t-89.5 187t-27.5 279v848h276zM931 1893l90 -204l-449 -156l-71 157z
" />
    <glyph glyph-name="Ucircumflex" unicode="&#xdb;" horiz-adv-x="1337" 
d="M399 1423v-843q0 -108 12 -183.5t42.5 -122.5t83 -68t134.5 -21q81 0 133 21.5t82 69t41 122t11 183.5v842h276v-830q0 -163 -28 -280.5t-93.5 -193.5t-171 -112t-260.5 -36q-153 0 -256 33t-165 105t-89.5 187t-27.5 279v848h276zM671 1876l341 -182l-78 -154l-272 121
l-265 -121l-77 154z" />
    <glyph glyph-name="Udieresis" unicode="&#xdc;" horiz-adv-x="1337" 
d="M399 1423v-843q0 -108 12 -183.5t42.5 -122.5t83 -68t134.5 -21q81 0 133 21.5t82 69t41 122t11 183.5v842h276v-830q0 -163 -28 -280.5t-93.5 -193.5t-171 -112t-260.5 -36q-153 0 -256 33t-165 105t-89.5 187t-27.5 279v848h276zM557 1702q0 -39 -6 -65t-22.5 -41.5
t-44 -22.5t-69.5 -7t-69.5 7t-44 22.5t-22.5 41.5t-6 65q0 76 29.5 105.5t112.5 29.5t112.5 -29.5t29.5 -105.5zM1064 1702q0 -39 -6.5 -65t-23 -41.5t-44 -22.5t-69.5 -7t-69.5 7t-44 22.5t-22.5 41.5t-6 65q0 76 29.5 105.5t112.5 29.5t113 -29.5t30 -105.5z" />
    <glyph glyph-name="Yacute" unicode="&#xdd;" horiz-adv-x="1155" 
d="M439 531l-445 892h279l189 -352q21 -38 37 -71t30 -65t27.5 -64t28.5 -69h6q16 40 29 73.5t26 64.5t28 63.5t33 68.5l177 351h278l-452 -895v-528h-271v531zM829 1893l90 -204l-449 -156l-71 157z" />
    <glyph glyph-name="Thorn" unicode="&#xde;" horiz-adv-x="1141" 
d="M152 1423h275v-267h151q134 0 229 -17t156 -62.5t89.5 -125.5t28.5 -205q0 -123 -29.5 -210.5t-93 -142t-162.5 -80.5t-239 -26h-130v-287h-275v1423zM565 496q129 0 186 57t57 183q0 62 -12.5 103t-41 65t-73.5 33.5t-111 9.5h-143v-451h138z" />
    <glyph glyph-name="germandbls" unicode="&#xdf;" horiz-adv-x="1205" 
d="M144 1138q0 110 29 187t86.5 124.5t145 69t205.5 21.5q212 0 311 -74t99 -215q0 -42 -7 -76t-22 -67.5t-39 -68t-56 -77.5q-22 -28 -38.5 -48t-28 -37.5t-18 -36t-6.5 -40.5q0 -23 8 -39t26.5 -35t50 -42t76.5 -54q60 -43 101 -77.5t66.5 -70.5t37 -77.5t11.5 -97.5
q0 -157 -102.5 -241.5t-315.5 -84.5q-53 0 -120 8t-123 24l28 194q51 -13 110 -20.5t109 -7.5q76 0 114.5 28.5t38.5 80.5q0 25 -7.5 44.5t-28.5 40t-57.5 45.5t-93.5 64q-53 35 -89 64t-58 60.5t-31 67.5t-9 85q0 37 10 71.5t27 68.5t40.5 69.5t50.5 76.5q19 25 33.5 46.5
t24 42t15 41.5t5.5 43q0 58 -39 87t-120 29q-92 0 -134.5 -43t-42.5 -145v-1146h-273v1138z" />
    <glyph glyph-name="agrave" unicode="&#xe0;" horiz-adv-x="1051" 
d="M647 695q0 68 -36.5 101t-128.5 33q-74 0 -143 -10t-144 -26l-26 199q86 19 175 32t185 13q109 0 184 -19t120.5 -58.5t65.5 -101.5t20 -149v-709h-224l-15 91q-73 -45 -145 -77.5t-165 -32.5q-128 0 -210 73.5t-82 228.5q0 80 27 143t85.5 107t150.5 67.5t226 23.5h80
v71zM582 450q-75 0 -125.5 -10t-81 -27.5t-43 -46t-12.5 -63.5q0 -65 31.5 -93.5t82.5 -28.5q54 0 102 23t111 67v179h-65zM397 1581l314 -312l-118 -131l-352 270z" />
    <glyph glyph-name="aacute" unicode="&#xe1;" horiz-adv-x="1051" 
d="M647 695q0 68 -36.5 101t-128.5 33q-74 0 -143 -10t-144 -26l-26 199q86 19 175 32t185 13q109 0 184 -19t120.5 -58.5t65.5 -101.5t20 -149v-709h-224l-15 91q-73 -45 -145 -77.5t-165 -32.5q-128 0 -210 73.5t-82 228.5q0 80 27 143t85.5 107t150.5 67.5t226 23.5h80
v71zM582 450q-75 0 -125.5 -10t-81 -27.5t-43 -46t-12.5 -63.5q0 -65 31.5 -93.5t82.5 -28.5q54 0 102 23t111 67v179h-65zM682 1581l157 -173l-352 -270l-119 131z" />
    <glyph glyph-name="acircumflex" unicode="&#xe2;" horiz-adv-x="1051" 
d="M647 695q0 68 -36.5 101t-128.5 33q-74 0 -143 -10t-144 -26l-26 199q86 19 175 32t185 13q109 0 184 -19t120.5 -58.5t65.5 -101.5t20 -149v-709h-224l-15 91q-73 -45 -145 -77.5t-165 -32.5q-128 0 -210 73.5t-82 228.5q0 80 27 143t85.5 107t150.5 67.5t226 23.5h80
v71zM582 450q-75 0 -125.5 -10t-81 -27.5t-43 -46t-12.5 -63.5q0 -65 31.5 -93.5t82.5 -28.5q54 0 102 23t111 67v179h-65zM534 1557l340 -273l-110 -142l-235 170l-230 -167l-106 137z" />
    <glyph glyph-name="atilde" unicode="&#xe3;" horiz-adv-x="1051" 
d="M647 695q0 68 -36.5 101t-128.5 33q-74 0 -143 -10t-144 -26l-26 199q86 19 175 32t185 13q109 0 184 -19t120.5 -58.5t65.5 -101.5t20 -149v-709h-224l-15 91q-73 -45 -145 -77.5t-165 -32.5q-128 0 -210 73.5t-82 228.5q0 80 27 143t85.5 107t150.5 67.5t226 23.5h80
v71zM582 450q-75 0 -125.5 -10t-81 -27.5t-43 -46t-12.5 -63.5q0 -65 31.5 -93.5t82.5 -28.5q54 0 102 23t111 67v179h-65zM174 1296q17 34 40.5 67t55.5 59.5t71 43t86 16.5q43 0 77 -15.5t63 -33.5t55 -32.5t54 -14.5q38 0 61.5 26.5t43.5 65.5l128 -96q-17 -33 -41 -66.5
t-55.5 -60t-70.5 -42.5t-86 -16q-43 0 -77 14.5t-62.5 32.5t-54.5 33t-54 15q-39 0 -62.5 -26.5t-43.5 -64.5z" />
    <glyph glyph-name="adieresis" unicode="&#xe4;" horiz-adv-x="1051" 
d="M647 695q0 68 -36.5 101t-128.5 33q-74 0 -143 -10t-144 -26l-26 199q86 19 175 32t185 13q109 0 184 -19t120.5 -58.5t65.5 -101.5t20 -149v-709h-224l-15 91q-73 -45 -145 -77.5t-165 -32.5q-128 0 -210 73.5t-82 228.5q0 80 27 143t85.5 107t150.5 67.5t226 23.5h80
v71zM582 450q-75 0 -125.5 -10t-81 -27.5t-43 -46t-12.5 -63.5q0 -65 31.5 -93.5t82.5 -28.5q54 0 102 23t111 67v179h-65zM449 1343q0 -80 -30 -109.5t-116 -29.5t-115.5 30t-29.5 109q0 78 29.5 108t115.5 30q85 0 115.5 -30t30.5 -108zM901 1343q0 -79 -30 -109t-115 -30
q-86 0 -116 30t-30 109q0 78 30 108t116 30q84 0 114.5 -30t30.5 -108z" />
    <glyph glyph-name="aring" unicode="&#xe5;" horiz-adv-x="1051" 
d="M647 695q0 68 -36.5 101t-128.5 33q-74 0 -143 -10t-144 -26l-26 199q86 19 175 32t185 13q109 0 184 -19t120.5 -58.5t65.5 -101.5t20 -149v-709h-224l-15 91q-73 -45 -145 -77.5t-165 -32.5q-128 0 -210 73.5t-82 228.5q0 80 27 143t85.5 107t150.5 67.5t226 23.5h80
v71zM582 450q-75 0 -125.5 -10t-81 -27.5t-43 -46t-12.5 -63.5q0 -65 31.5 -93.5t82.5 -28.5q54 0 102 23t111 67v179h-65zM788 1364q0 -52 -18 -95.5t-51 -75t-78 -49.5t-99 -18q-53 0 -98.5 18t-78 49.5t-50.5 75t-18 95.5q0 53 18 96.5t50.5 75t78 49t98.5 17.5
q54 0 99 -17.5t78 -49.5t51 -76t18 -95zM638 1364q0 48 -25 76t-71 28t-70.5 -28t-24.5 -76t24.5 -76t70.5 -28t71 28t25 76z" />
    <glyph glyph-name="ae" unicode="&#xe6;" horiz-adv-x="1597" 
d="M573 449q-75 0 -125.5 -9.5t-81 -27.5t-43 -46t-12.5 -63q0 -65 31.5 -93.5t82.5 -28.5q53 0 103.5 22t109.5 75v171h-65zM638 695q0 68 -36.5 101t-128.5 33q-74 0 -143 -10t-144 -26l-26 199q86 19 175 32t184 13q65 0 111 -9t79 -24t54.5 -34.5t36.5 -41.5
q19 22 45 43.5t62 37.5t84 26t111 10q104 0 180.5 -20.5t125.5 -73.5t73.5 -142t24.5 -226q0 -38 -2.5 -77t-6.5 -77h-587q1 -79 13.5 -126t40.5 -73t72.5 -35t113.5 -9q79 0 144.5 9.5t141.5 25.5l22 -201q-85 -18 -169.5 -29.5t-185.5 -11.5q-82 0 -142 9.5t-104.5 27.5
t-76.5 44t-57 59q-48 -36 -90.5 -62.5t-85 -43t-88 -24.5t-98.5 -8q-128 0 -210 73.5t-82 226.5q0 80 27 143.5t85.5 107.5t150.5 67.5t226 23.5h80v72zM1263 604q-1 71 -11 117t-30.5 72.5t-51.5 36.5t-77 10q-43 0 -76.5 -10.5t-56.5 -37t-35.5 -72.5t-13.5 -116h352z" />
    <glyph glyph-name="ccedilla" unicode="&#xe7;" horiz-adv-x="879" 
d="M812 18q-30 -9 -65 -16t-69.5 -12t-65.5 -8t-52 -3h-13l-7 -68q98 -4 147 -45t49 -116q0 -96 -71.5 -147.5t-202.5 -51.5q-86 0 -159 16l17 122q31 -4 58.5 -7.5t54.5 -3.5q56 0 81.5 16t25.5 48q0 30 -23 44t-84 14h-64l20 192q-63 12 -118 39.5t-94.5 84.5t-62 150
t-22.5 236q0 155 34 258t94.5 164.5t146.5 87t191 25.5q66 0 134 -10t127 -26l-24 -199q-51 13 -101.5 20t-108.5 7q-51 0 -92 -12.5t-69.5 -47.5t-43 -97.5t-14.5 -162.5q0 -99 11.5 -162.5t38 -98.5t68.5 -48.5t103 -13.5q45 0 99 8.5t105 22.5z" />
    <glyph glyph-name="egrave" unicode="&#xe8;" horiz-adv-x="1053" 
d="M914 20q-85 -18 -168.5 -29.5t-182.5 -11.5q-114 0 -202 21t-147.5 78t-90.5 159t-31 265q0 157 33.5 261.5t94 167.5t147 88.5t191.5 25.5q104 0 180.5 -20.5t125.5 -73.5t73 -142t24 -226q0 -38 -2.5 -76.5t-5.5 -78.5h-587q1 -79 14.5 -126.5t42.5 -72.5t74.5 -34
t112.5 -9q77 0 141.5 9.5t140.5 25.5zM719 602q-1 72 -11 118.5t-30.5 73t-51.5 36.5t-77 10q-44 0 -77.5 -10.5t-56 -37.5t-35 -73t-13.5 -117h352zM391 1581l314 -312l-118 -131l-352 270z" />
    <glyph glyph-name="eacute" unicode="&#xe9;" horiz-adv-x="1053" 
d="M914 20q-85 -18 -168.5 -29.5t-182.5 -11.5q-114 0 -202 21t-147.5 78t-90.5 159t-31 265q0 157 33.5 261.5t94 167.5t147 88.5t191.5 25.5q104 0 180.5 -20.5t125.5 -73.5t73 -142t24 -226q0 -38 -2.5 -76.5t-5.5 -78.5h-587q1 -79 14.5 -126.5t42.5 -72.5t74.5 -34
t112.5 -9q77 0 141.5 9.5t140.5 25.5zM719 602q-1 72 -11 118.5t-30.5 73t-51.5 36.5t-77 10q-44 0 -77.5 -10.5t-56 -37.5t-35 -73t-13.5 -117h352zM705 1581l157 -173l-352 -270l-119 131z" />
    <glyph glyph-name="ecircumflex" unicode="&#xea;" horiz-adv-x="1053" 
d="M914 20q-85 -18 -168.5 -29.5t-182.5 -11.5q-114 0 -202 21t-147.5 78t-90.5 159t-31 265q0 157 33.5 261.5t94 167.5t147 88.5t191.5 25.5q104 0 180.5 -20.5t125.5 -73.5t73 -142t24 -226q0 -38 -2.5 -76.5t-5.5 -78.5h-587q1 -79 14.5 -126.5t42.5 -72.5t74.5 -34
t112.5 -9q77 0 141.5 9.5t140.5 25.5zM719 602q-1 72 -11 118.5t-30.5 73t-51.5 36.5t-77 10q-44 0 -77.5 -10.5t-56 -37.5t-35 -73t-13.5 -117h352zM540 1557l340 -273l-110 -142l-235 170l-230 -167l-106 137z" />
    <glyph glyph-name="edieresis" unicode="&#xeb;" horiz-adv-x="1053" 
d="M914 20q-85 -18 -168.5 -29.5t-182.5 -11.5q-114 0 -202 21t-147.5 78t-90.5 159t-31 265q0 157 33.5 261.5t94 167.5t147 88.5t191.5 25.5q104 0 180.5 -20.5t125.5 -73.5t73 -142t24 -226q0 -38 -2.5 -76.5t-5.5 -78.5h-587q1 -79 14.5 -126.5t42.5 -72.5t74.5 -34
t112.5 -9q77 0 141.5 9.5t140.5 25.5zM719 602q-1 72 -11 118.5t-30.5 73t-51.5 36.5t-77 10q-44 0 -77.5 -10.5t-56 -37.5t-35 -73t-13.5 -117h352zM457 1343q0 -80 -30 -109.5t-116 -29.5t-115.5 30t-29.5 109q0 78 29.5 108t115.5 30q85 0 115.5 -30t30.5 -108zM909 1343
q0 -79 -30 -109t-115 -30q-86 0 -116 30t-30 109q0 78 30 108t116 30q84 0 114.5 -30t30.5 -108z" />
    <glyph glyph-name="igrave" unicode="&#xec;" horiz-adv-x="562" 
d="M144 1016h273v-1016h-273v1016zM165 1581l314 -312l-118 -131l-352 270z" />
    <glyph glyph-name="iacute" unicode="&#xed;" horiz-adv-x="562" 
d="M144 1016h273v-1016h-273v1016zM391 1581l157 -173l-352 -270l-119 131z" />
    <glyph glyph-name="icircumflex" unicode="&#xee;" horiz-adv-x="562" 
d="M144 1016h273v-1016h-273v1016zM281 1557l340 -273l-110 -142l-235 170l-230 -167l-106 137z" />
    <glyph glyph-name="idieresis" unicode="&#xef;" horiz-adv-x="562" 
d="M144 1016h273v-1016h-273v1016zM229 1343q0 -79 -29.5 -108.5t-114.5 -29.5q-84 0 -114 30.5t-30 107.5q0 76 30 106.5t114 30.5t114 -30.5t30 -106.5zM630 1343q0 -79 -30 -108.5t-115 -29.5q-84 0 -114 30.5t-30 107.5q0 76 30 106.5t114 30.5t114.5 -30.5t30.5 -106.5
z" />
    <glyph glyph-name="eth" unicode="&#xf0;" horiz-adv-x="1107" 
d="M471 1340q-16 22 -46 56.5t-52 60.5l222 111q32 -33 56.5 -61.5t45.5 -55.5l185 97l110 -156l-190 -98q101 -160 160.5 -354t59.5 -400q0 -160 -31 -268.5t-90.5 -175t-146.5 -95.5t-199 -29q-111 0 -198 25t-145.5 85t-89 161t-30.5 252q0 137 28 234t80 157.5
t125.5 88.5t163.5 28q63 0 115 -14t90 -34l2 2q-26 65 -53.5 118.5t-63.5 108.5l-189 -98l-110 156zM758 503q0 35 -1 64t-4.5 57t-8.5 57t-12 62q-37 23 -82 37.5t-100 14.5q-43 0 -77.5 -13t-59 -47t-37 -92t-12.5 -147q0 -97 12 -158.5t37 -96t63.5 -48t88.5 -13.5
q49 0 85 14.5t60.5 51t36 99.5t11.5 158z" />
    <glyph glyph-name="ntilde" unicode="&#xf1;" horiz-adv-x="1185" 
d="M144 1016h225l16 -102q92 57 177 89t183 32q160 0 234 -80t74 -255v-700h-273v645q0 99 -30.5 135t-97.5 36q-50 0 -107 -23.5t-128 -69.5v-723h-273v1016zM228 1296q17 34 40.5 67t55.5 59.5t71 43t86 16.5q43 0 77 -15.5t63 -33.5t55 -32.5t54 -14.5q38 0 61.5 26.5
t43.5 65.5l128 -96q-17 -33 -41 -66.5t-55.5 -60t-70.5 -42.5t-86 -16q-43 0 -77 14.5t-62.5 32.5t-54.5 33t-54 15q-39 0 -62.5 -26.5t-43.5 -64.5z" />
    <glyph glyph-name="ograve" unicode="&#xf2;" horiz-adv-x="1124" 
d="M1031 515q0 -157 -32 -261t-93.5 -167t-149.5 -89.5t-200 -26.5t-199 23t-145.5 83.5t-89 163t-30.5 261.5q0 157 32.5 261t93 166.5t149 89t198.5 26.5q113 0 200 -23.5t146 -83t89.5 -162.5t30.5 -261zM758 507q0 102 -11.5 166t-35.5 100.5t-62 50t-89 13.5t-88 -13
t-60.5 -49.5t-34.5 -100t-11 -164.5q0 -102 11 -167t34.5 -101t61.5 -50t89 -14t88 13.5t61 50t35.5 100t11.5 165.5zM404 1581l314 -312l-118 -131l-352 270z" />
    <glyph glyph-name="oacute" unicode="&#xf3;" horiz-adv-x="1124" 
d="M1031 515q0 -157 -32 -261t-93.5 -167t-149.5 -89.5t-200 -26.5t-199 23t-145.5 83.5t-89 163t-30.5 261.5q0 157 32.5 261t93 166.5t149 89t198.5 26.5q113 0 200 -23.5t146 -83t89.5 -162.5t30.5 -261zM758 507q0 102 -11.5 166t-35.5 100.5t-62 50t-89 13.5t-88 -13
t-60.5 -49.5t-34.5 -100t-11 -164.5q0 -102 11 -167t34.5 -101t61.5 -50t89 -14t88 13.5t61 50t35.5 100t11.5 165.5zM720 1581l157 -173l-352 -270l-119 131z" />
    <glyph glyph-name="ocircumflex" unicode="&#xf4;" horiz-adv-x="1124" 
d="M1031 515q0 -157 -32 -261t-93.5 -167t-149.5 -89.5t-200 -26.5t-199 23t-145.5 83.5t-89 163t-30.5 261.5q0 157 32.5 261t93 166.5t149 89t198.5 26.5q113 0 200 -23.5t146 -83t89.5 -162.5t30.5 -261zM758 507q0 102 -11.5 166t-35.5 100.5t-62 50t-89 13.5t-88 -13
t-60.5 -49.5t-34.5 -100t-11 -164.5q0 -102 11 -167t34.5 -101t61.5 -50t89 -14t88 13.5t61 50t35.5 100t11.5 165.5zM564 1557l340 -273l-110 -142l-235 170l-230 -167l-106 137z" />
    <glyph glyph-name="otilde" unicode="&#xf5;" horiz-adv-x="1124" 
d="M1031 515q0 -157 -32 -261t-93.5 -167t-149.5 -89.5t-200 -26.5t-199 23t-145.5 83.5t-89 163t-30.5 261.5q0 157 32.5 261t93 166.5t149 89t198.5 26.5q113 0 200 -23.5t146 -83t89.5 -162.5t30.5 -261zM758 507q0 102 -11.5 166t-35.5 100.5t-62 50t-89 13.5t-88 -13
t-60.5 -49.5t-34.5 -100t-11 -164.5q0 -102 11 -167t34.5 -101t61.5 -50t89 -14t88 13.5t61 50t35.5 100t11.5 165.5zM187 1296q17 34 40.5 67t55.5 59.5t71 43t86 16.5q43 0 77 -15.5t63 -33.5t55 -32.5t54 -14.5q38 0 61.5 26.5t43.5 65.5l128 -96q-17 -33 -41 -66.5
t-55.5 -60t-70.5 -42.5t-86 -16q-43 0 -77 14.5t-62.5 32.5t-54.5 33t-54 15q-39 0 -62.5 -26.5t-43.5 -64.5z" />
    <glyph glyph-name="odieresis" unicode="&#xf6;" horiz-adv-x="1124" 
d="M1031 515q0 -157 -32 -261t-93.5 -167t-149.5 -89.5t-200 -26.5t-199 23t-145.5 83.5t-89 163t-30.5 261.5q0 157 32.5 261t93 166.5t149 89t198.5 26.5q113 0 200 -23.5t146 -83t89.5 -162.5t30.5 -261zM758 507q0 102 -11.5 166t-35.5 100.5t-62 50t-89 13.5t-88 -13
t-60.5 -49.5t-34.5 -100t-11 -164.5q0 -102 11 -167t34.5 -101t61.5 -50t89 -14t88 13.5t61 50t35.5 100t11.5 165.5zM482 1343q0 -80 -30 -109.5t-116 -29.5t-115.5 30t-29.5 109q0 78 29.5 108t115.5 30q85 0 115.5 -30t30.5 -108zM934 1343q0 -79 -30 -109t-115 -30
q-86 0 -116 30t-30 109q0 78 30 108t116 30q84 0 114.5 -30t30.5 -108z" />
    <glyph glyph-name="divide" unicode="&#xf7;" 
d="M82 690h922v-204h-922v204zM693 240q0 -42 -7 -70t-24 -44t-46 -22.5t-73 -6.5q-45 0 -73 6.5t-45.5 22.5t-24.5 44t-7 70t7 69t24.5 43.5t45.5 23.5t73 7q44 0 73 -6t46 -23t24 -44.5t7 -69.5zM693 937q0 -41 -7 -69.5t-24 -45t-46 -22.5t-73 -6q-45 0 -73 6t-45.5 22.5
t-24.5 45t-7 69.5q0 42 7 69t24.5 43.5t45.5 23t73 6.5q44 0 73 -6t46 -22.5t24 -44.5t7 -69z" />
    <glyph glyph-name="oslash" unicode="&#xf8;" horiz-adv-x="1154" 
d="M248 52q-29 25 -57 58t-49.5 84.5t-35.5 126.5t-14 181q0 157 34 261t97.5 166.5t154 89t203.5 26.5q54 0 88.5 -5.5t59.5 -14.5l81 168l173 -70l-77 -159q33 -26 61.5 -62.5t49.5 -90t32.5 -126t11.5 -170.5q0 -157 -33.5 -261t-97 -167t-154.5 -89.5t-204 -26.5
q-41 0 -75 3.5t-72 17.5l-87 -180l-172 71zM501 170q18 -11 41 -14t42 -3q57 0 102.5 14.5t76.5 53.5t47.5 108t16.5 178q0 90 -8 141t-23 95zM653 846q-14 8 -34 12.5t-49 4.5q-58 0 -103 -14t-76 -53t-47.5 -108t-16.5 -178q0 -52 3.5 -89t8 -64t10 -46.5t9.5 -38.5z" />
    <glyph glyph-name="ugrave" unicode="&#xf9;" horiz-adv-x="1187" 
d="M404 1016v-645q0 -100 32 -135.5t98 -35.5q51 0 107.5 24t128.5 70v722h272v-1016h-224l-16 102q-92 -57 -178 -89t-184 -32q-160 0 -233.5 79.5t-73.5 255.5v700h271zM446 1581l314 -312l-118 -131l-352 270z" />
    <glyph glyph-name="uacute" unicode="&#xfa;" horiz-adv-x="1187" 
d="M404 1016v-645q0 -100 32 -135.5t98 -35.5q51 0 107.5 24t128.5 70v722h272v-1016h-224l-16 102q-92 -57 -178 -89t-184 -32q-160 0 -233.5 79.5t-73.5 255.5v700h271zM754 1581l157 -173l-352 -270l-119 131z" />
    <glyph glyph-name="ucircumflex" unicode="&#xfb;" horiz-adv-x="1187" 
d="M404 1016v-645q0 -100 32 -135.5t98 -35.5q51 0 107.5 24t128.5 70v722h272v-1016h-224l-16 102q-92 -57 -178 -89t-184 -32q-160 0 -233.5 79.5t-73.5 255.5v700h271zM586 1557l340 -273l-110 -142l-235 170l-230 -167l-106 137z" />
    <glyph glyph-name="udieresis" unicode="&#xfc;" horiz-adv-x="1187" 
d="M404 1016v-645q0 -100 32 -135.5t98 -35.5q51 0 107.5 24t128.5 70v722h272v-1016h-224l-16 102q-92 -57 -178 -89t-184 -32q-160 0 -233.5 79.5t-73.5 255.5v700h271zM510 1343q0 -80 -30 -109.5t-116 -29.5t-115.5 30t-29.5 109q0 78 29.5 108t115.5 30q85 0 115.5 -30
t30.5 -108zM962 1343q0 -79 -30 -109t-115 -30q-86 0 -116 30t-30 109q0 78 30 108t116 30q84 0 114.5 -30t30.5 -108z" />
    <glyph glyph-name="yacute" unicode="&#xfd;" horiz-adv-x="1039" 
d="M13 1016h293l138 -454q13 -46 23.5 -86t20 -78.5t18.5 -81t19 -92.5h4q11 51 20 93t19.5 81.5l21 79t23.5 84.5l139 454h283l-382 -1105q-37 -107 -73 -177.5t-84.5 -112.5t-115.5 -59t-162 -17q-52 0 -98 6t-81 14l24 199q29 -6 66 -8.5t65 -2.5q35 0 64 6t53.5 23
t45 47t39.5 79l35 92h-92zM694 1581l157 -173l-352 -270l-119 131z" />
    <glyph glyph-name="thorn" unicode="&#xfe;" horiz-adv-x="1146" 
d="M144 1511h273v-363q0 -53 -1.5 -102t-8.5 -112l2 -3q62 39 133 71.5t164 32.5q79 0 144 -24.5t111.5 -84.5t71 -158t24.5 -246q0 -147 -33.5 -250.5t-90.5 -167.5t-136 -93.5t-168 -29.5q-63 0 -117 14t-104 39l-2 -2q3 -27 5.5 -53.5t3.5 -52t1.5 -50.5t0.5 -52v-256
h-273v1943zM417 241q42 -24 80.5 -37t82.5 -13q39 0 76.5 14.5t65.5 51.5t45 99.5t17 156.5q0 95 -11 154t-31 92t-49.5 45t-67.5 12q-45 0 -94 -23t-114 -68v-484z" />
    <glyph glyph-name="ydieresis" unicode="&#xff;" horiz-adv-x="1039" 
d="M13 1016h293l138 -454q13 -46 23.5 -86t20 -78.5t18.5 -81t19 -92.5h4q11 51 20 93t19.5 81.5l21 79t23.5 84.5l139 454h283l-382 -1105q-37 -107 -73 -177.5t-84.5 -112.5t-115.5 -59t-162 -17q-52 0 -98 6t-81 14l24 199q29 -6 66 -8.5t65 -2.5q35 0 64 6t53.5 23
t45 47t39.5 79l35 92h-92zM450 1343q0 -80 -30 -109.5t-116 -29.5t-115.5 30t-29.5 109q0 78 29.5 108t115.5 30q85 0 115.5 -30t30.5 -108zM902 1343q0 -79 -30 -109t-115 -30q-86 0 -116 30t-30 109q0 78 30 108t116 30q84 0 114.5 -30t30.5 -108z" />
    <glyph glyph-name="OE" unicode="&#x152;" horiz-adv-x="1781" 
d="M870 1210q-41 14 -83.5 21t-105.5 7q-79 0 -134 -20t-92 -77t-54 -160t-17 -268t17 -268t54 -160.5t92 -78.5t134 -21q65 0 106 7t83 20v998zM927 0q-55 -14 -116.5 -21.5t-138.5 -7.5q-142 0 -247.5 29.5t-176 110.5t-106 223.5t-35.5 368.5q0 228 38 373.5t111.5 229
t182.5 115t250 31.5q88 0 148 -7.5t111 -21.5h740v-215h-542v-375h503v-210h-503v-408h542v-215h-761z" />
    <glyph glyph-name="oe" unicode="&#x153;" horiz-adv-x="1719" 
d="M758 509q0 102 -11.5 165t-35.5 99.5t-62 50t-89 13.5t-88 -13t-60.5 -49.5t-34.5 -100t-11 -164.5q0 -102 11 -167t34.5 -101t61.5 -50t89 -14t88 13.5t61 50t35.5 101t11.5 166.5zM1579 20q-84 -18 -167.5 -29.5t-184.5 -11.5q-72 0 -126.5 8.5t-94.5 25t-68.5 41.5
t-50.5 57q-22 -31 -49 -57t-66 -44.5t-92 -28.5t-124 -10q-112 0 -199 23t-145.5 83.5t-89 163t-30.5 261.5q0 157 32.5 261t93 166.5t149 89t198.5 26.5q74 0 128 -9t93.5 -26t66.5 -42.5t49 -59.5q22 34 51 59.5t67.5 42.5t88 26t114.5 9q105 0 181 -20.5t125.5 -73.5
t73 -142t23.5 -226q0 -38 -2.5 -76.5t-4.5 -78.5h-588q2 -79 16 -127t43 -73t73.5 -33.5t111.5 -8.5q77 0 142 9.5t140 25.5zM1384 602q-1 72 -11 118.5t-30.5 73t-51.5 36.5t-76 10q-44 0 -77.5 -10.5t-56.5 -37.5t-35 -73t-14 -117h352z" />
    <glyph glyph-name="Ydieresis" unicode="&#x178;" horiz-adv-x="1155" 
d="M439 531l-445 892h279l189 -352q21 -38 37 -71t30 -65t27.5 -64t28.5 -69h6q16 40 29 73.5t26 64.5t28 63.5t33 68.5l177 351h278l-452 -895v-528h-271v531zM468 1702q0 -39 -6 -65t-22.5 -41.5t-44 -22.5t-69.5 -7t-69.5 7t-44 22.5t-22.5 41.5t-6 65q0 76 29.5 105.5
t112.5 29.5t112.5 -29.5t29.5 -105.5zM975 1702q0 -39 -6.5 -65t-23 -41.5t-44 -22.5t-69.5 -7t-69.5 7t-44 22.5t-22.5 41.5t-6 65q0 76 29.5 105.5t112.5 29.5t113 -29.5t30 -105.5z" />
    <glyph glyph-name="apostrophe" unicode="&#x2bc;" horiz-adv-x="470" 
d="M142 1150q29 49 55 96t48 90q-21 12 -36.5 35.5t-15.5 77.5q0 68 25.5 93.5t100.5 25.5t99.5 -25.5t24.5 -93.5q0 -39 -6.5 -67.5t-26.5 -57.5q-35 -53 -81.5 -111t-101.5 -117z" />
    <glyph glyph-name="tilde" unicode="&#x2dc;" horiz-adv-x="1233" 
d="M246 1296q17 34 40.5 67t55.5 59.5t71 43t86 16.5q43 0 77 -15.5t63 -33.5t55 -32.5t54 -14.5q38 0 61.5 26.5t43.5 65.5l128 -96q-17 -33 -41 -66.5t-55.5 -60t-70.5 -42.5t-86 -16q-43 0 -77 14.5t-62.5 32.5t-54.5 33t-54 15q-39 0 -62.5 -26.5t-43.5 -64.5z" />
    <glyph glyph-name="endash" unicode="&#x2013;" 
d="M0 662h1085v-235h-1085v235z" />
    <glyph glyph-name="emdash" unicode="&#x2014;" horiz-adv-x="2048" 
d="M159 662h1730v-235h-1730v235z" />
    <glyph glyph-name="quoteleft" unicode="&#x2018;" horiz-adv-x="478" 
d="M445 1512q-46 -76 -74 -128t-55 -108q24 -14 40.5 -40t16.5 -86q0 -76 -29.5 -105t-111.5 -29q-41 0 -68.5 6.5t-43 22.5t-21.5 41t-6 64q0 43 7 75t26 61q40 63 97.5 134t129.5 150z" />
    <glyph glyph-name="quoteright" unicode="&#x2019;" horiz-adv-x="478" 
d="M59 1043q22 37 40 67.5t33 58.5t28 54.5t27 54.5q-12 6 -22.5 15.5t-17.5 24t-11.5 35t-4.5 51.5q0 76 29 104.5t112 28.5q41 0 69 -6t43 -22t21.5 -41.5t6.5 -63.5q0 -42 -7.5 -74.5t-26.5 -62.5q-40 -63 -97.5 -133.5t-129.5 -149.5z" />
    <glyph glyph-name="quotedblleft" unicode="&#x201c;" horiz-adv-x="876" 
d="M447 1512q-45 -76 -73.5 -128t-54.5 -108q23 -14 40 -40t17 -86q0 -76 -29.5 -105t-111.5 -29q-42 0 -69.5 6.5t-43 22.5t-21.5 41t-6 64q0 43 7 75t27 61q40 63 97 134t130 150zM846 1512q-46 -76 -74 -128t-55 -108q24 -14 40.5 -40t16.5 -86q0 -76 -29.5 -105
t-111.5 -29q-41 0 -69 6.5t-43 22.5t-21 41t-6 64q0 43 7 75t26 61q40 63 97.5 134t129.5 150z" />
    <glyph glyph-name="quotedblright" unicode="&#x201d;" horiz-adv-x="876" 
d="M59 1043q22 37 40 67.5t33 58.5t28 54.5t27 54.5q-12 6 -22.5 15.5t-17.5 24t-11.5 35t-4.5 51.5q0 76 29 104.5t112 28.5q41 0 69 -6t43 -22t21.5 -41.5t6.5 -63.5q0 -42 -7.5 -74.5t-26.5 -62.5q-40 -63 -97.5 -133.5t-129.5 -149.5zM458 1043q22 37 39.5 67.5t33 58.5
t28 54.5t27.5 54.5q-13 6 -23 15.5t-17.5 24t-12 35t-4.5 51.5q0 76 29 104.5t112 28.5q42 0 69 -6t42.5 -22t22 -41.5t6.5 -63.5q0 -42 -7.5 -74.5t-26.5 -62.5q-40 -63 -97 -133.5t-130 -149.5z" />
    <glyph glyph-name="quotedblbase" unicode="&#x201e;" horiz-adv-x="880" 
d="M36 -223q22 38 40 68t33 58.5t27.5 55t27.5 54.5q-13 6 -23 15.5t-17 24t-11.5 34.5t-4.5 51q0 77 29 105.5t111 28.5q42 0 69.5 -6t42.5 -22.5t21.5 -41.5t6.5 -64q0 -42 -7 -74.5t-27 -61.5q-40 -63 -97 -133.5t-130 -149.5zM434 -223q22 38 40 68t33 58.5t28 55
t27 54.5q-13 6 -23 15.5t-17 24t-11.5 34.5t-4.5 51q0 77 28.5 105.5t112.5 28.5q41 0 68.5 -6t43 -22.5t21.5 -41.5t6 -64q0 -42 -7.5 -74.5t-25.5 -61.5q-40 -63 -97.5 -133.5t-129.5 -149.5z" />
    <glyph glyph-name="bullet" unicode="&#x2022;" horiz-adv-x="911" 
d="M681 730q0 -63 -11.5 -106t-38 -69.5t-69 -38t-106.5 -11.5t-107 11.5t-69.5 38t-38 69.5t-11.5 106q0 64 11.5 106.5t38 69.5t69.5 39t107 12t106.5 -12t69 -39t38 -69.5t11.5 -106.5z" />
    <glyph glyph-name="ellipsis" unicode="&#x2026;" horiz-adv-x="1550" 
d="M413 133q0 -44 -7 -72.5t-25 -46t-47.5 -24t-76.5 -6.5t-77 6.5t-48 24t-24.5 46t-6.5 72.5t6.5 73t24.5 46.5t48 24.5t77 7t76.5 -7t47.5 -24.5t25 -46.5t7 -73zM931 133q0 -44 -7 -72.5t-24.5 -46t-47.5 -24t-77 -6.5t-77 6.5t-47.5 24t-24.5 46t-7 72.5t7 73
t24.5 46.5t47.5 24.5t77 7t77 -7t47.5 -24.5t24.5 -46.5t7 -73zM1449 133q0 -44 -6.5 -72.5t-24 -46t-48 -24t-77.5 -6.5q-46 0 -76 6.5t-48 24t-25 46t-7 72.5t7 73t25 46.5t48 24.5t76 7q47 0 77.5 -7t48 -24.5t24 -46.5t6.5 -73z" />
    <glyph glyph-name="guilsinglleft" unicode="&#x2039;" horiz-adv-x="673" 
d="M66 507l318 489l204 -107l-232 -380l233 -386l-205 -107z" />
    <glyph glyph-name="guilsinglright" unicode="&#x203a;" horiz-adv-x="673" 
d="M317 503l-232 386l204 107l318 -493l-318 -487l-205 107z" />
    <glyph glyph-name="Euro" unicode="&#x20ac;" 
d="M211 969q21 141 67 233t116 147.5t163.5 78t211.5 22.5q80 0 149 -10t120 -23l-32 -207q-31 7 -58.5 12.5t-55.5 9t-55.5 5.5t-57.5 2q-62 0 -112 -11.5t-87.5 -41.5t-62.5 -82.5t-38 -134.5h393v-181h-412q-1 -9 -1 -18.5v-19t-0.5 -19t-0.5 -18.5q0 -18 0.5 -38
t1.5 -35h412v-182h-393q10 -80 34 -133t62 -84t89 -44t114 -13q31 0 59.5 2.5t56.5 6.5t56.5 10t61.5 14l31 -206q-66 -15 -139.5 -26.5t-154.5 -11.5q-124 0 -218 22.5t-160.5 77.5t-106.5 148.5t-57 236.5h-140v182h128q-1 14 -1.5 34t-0.5 36q0 10 0.5 19.5t0.5 20v20
t1 18.5h-128v181h144z" />
    <glyph glyph-name="trademark" unicode="&#x2122;" horiz-adv-x="1871" 
d="M246 1263h-222v160h635v-160h-210v-550h-203v550zM794 1423h305l98 -373l42 -201l44 201l98 373h306l65 -710h-199l-29 387l-4 180l-37 -178l-104 -389h-283l-104 386l-40 181l-3 -180l-33 -387h-187z" />
    <glyph glyph-name="dotlessi" horiz-adv-x="562" 
d="M144 1016h273v-1016h-273v1016z" />
    <glyph glyph-name="grave.cap" horiz-adv-x="806" 
d="M252 1893l429 -203l-70 -157l-450 156z" />
    <glyph glyph-name="acute.cap" horiz-adv-x="803" 
d="M591 1893l90 -204l-449 -156l-71 157z" />
    <glyph glyph-name="circumflex" horiz-adv-x="1056" 
d="M569 1557l340 -273l-110 -142l-235 170l-230 -167l-106 137z" />
    <glyph glyph-name="circumflex.cap" horiz-adv-x="1056" 
d="M578 1876l341 -182l-78 -154l-272 121l-265 -121l-77 154z" />
    <glyph glyph-name="dieresis.narrow" horiz-adv-x="1139" 
d="M511 1343q0 -79 -29.5 -108.5t-114.5 -29.5q-84 0 -114 30.5t-30 107.5q0 76 30 106.5t114 30.5t114 -30.5t30 -106.5zM912 1343q0 -79 -30 -108.5t-115 -29.5q-84 0 -114 30.5t-30 107.5q0 76 30 106.5t114 30.5t114.5 -30.5t30.5 -106.5z" />
    <glyph glyph-name="dieresis.cap" horiz-adv-x="1135" 
d="M436 1702q0 -39 -6 -65t-22.5 -41.5t-44 -22.5t-69.5 -7t-69.5 7t-44 22.5t-22.5 41.5t-6 65q0 76 29.5 105.5t112.5 29.5t112.5 -29.5t29.5 -105.5zM943 1702q0 -39 -6.5 -65t-23 -41.5t-44 -22.5t-69.5 -7t-69.5 7t-44 22.5t-22.5 41.5t-6 65q0 76 29.5 105.5
t112.5 29.5t113 -29.5t30 -105.5z" />
    <glyph glyph-name="dieresis.narrow.cap" horiz-adv-x="1135" 
d="M473 1702q0 -76 -30 -106t-113 -30t-112.5 30t-29.5 106t29.5 105.5t112.5 29.5t113 -29.5t30 -105.5zM906 1702q0 -76 -29.5 -106t-112.5 -30t-113 30t-30 106t30 105.5t113 29.5t112.5 -29.5t29.5 -105.5z" />
    <glyph glyph-name="tilde.cap" horiz-adv-x="1233" 
d="M224 1684q39 60 100.5 101.5t155.5 41.5q46 0 82 -11.5t66.5 -24t58.5 -24t61 -11.5q40 0 70 18t58 51l112 -112q-39 -59 -100.5 -101t-155.5 -42q-46 0 -82 11t-66.5 24t-58.5 24.5t-60 11.5q-40 0 -70.5 -18t-57.5 -51z" />
    <glyph glyph-name="ring" horiz-adv-x="851" 
d="M697 1364q0 -52 -18 -95.5t-51 -75t-78 -49.5t-99 -18q-53 0 -98.5 18t-78 49.5t-50.5 75t-18 95.5q0 53 18 96.5t50.5 75t78 49t98.5 17.5q54 0 99 -17.5t78 -49.5t51 -76t18 -95zM547 1364q0 48 -25 76t-71 28t-70.5 -28t-24.5 -76t24.5 -76t70.5 -28t71 28t25 76z" />
    <glyph glyph-name="ring.cap" horiz-adv-x="853" 
d="M704 1722q0 -51 -19 -94.5t-52.5 -73.5t-80 -46.5t-101.5 -16.5q-54 0 -101 16.5t-80 46.5t-51.5 73.5t-18.5 94.5q0 104 70 167.5t180 63.5q55 0 101.5 -16.5t80.5 -47.5t53 -73.5t19 -93.5zM552 1722q0 44 -27 71t-75 27q-47 0 -73.5 -27t-26.5 -71t26.5 -71t74.5 -27
t74.5 27t26.5 71z" />
    <glyph glyph-name="zeroinferior" horiz-adv-x="746" 
d="M680 359q0 -109 -20.5 -183t-59.5 -117t-96.5 -61t-133.5 -18t-132.5 17t-95 60t-57.5 116t-19 182q0 110 20 182.5t60 115.5t98 61.5t135 18.5q75 0 131 -17.5t94 -60.5t57 -114.5t19 -181.5zM478 355q0 72 -7 115.5t-21 68t-32.5 33t-42.5 8.5q-25 0 -45.5 -7.5
t-34 -31t-20.5 -67t-7 -115.5q0 -71 7 -115.5t21 -69t34 -33t45 -8.5t44 7.5t32.5 31.5t20 68t6.5 115z" />
    <glyph glyph-name="oneinferior" horiz-adv-x="484" 
d="M179 506l-115 -64l-70 123l215 148h172v-713h-202v506z" />
    <glyph glyph-name="twoinferior" horiz-adv-x="619" 
d="M44 149l140 140q62 62 93.5 105t31.5 89q0 37 -25.5 57.5t-69.5 20.5q-34 0 -64 -5.5t-69 -16.5l-19 159q59 15 111 22t114 7q128 0 194 -54t66 -142t-43.5 -150t-123.5 -129l-92 -86h270v-166h-514v149z" />
    <glyph glyph-name="threeinferior" horiz-adv-x="590" 
d="M49 152q34 -7 65 -11.5t65 -4.5q69 0 100.5 20t31.5 63q0 19 -8 33t-29 23.5t-58.5 14.5t-98.5 5v143q103 0 143 20.5t40 55.5q0 34 -26 48t-79 14q-35 0 -67 -5t-64 -13l-19 144q46 11 98 18t103 7q134 0 200.5 -45t66.5 -126q0 -66 -33 -108t-85 -66q59 -14 98.5 -54
t39.5 -109q0 -112 -78 -172.5t-229 -60.5q-57 0 -102 4t-92 14z" />
    <glyph glyph-name="fourinferior" horiz-adv-x="663" 
d="M27 279l238 434h287v-420h81v-167h-81v-126h-197v126h-328v153zM355 293v267l-149 -267h149z" />
    <glyph glyph-name="fraction" horiz-adv-x="1090" 
d="M946 1469l145 -95l-942 -1420l-146 96z" />
    </font>
</defs>
</svg>
