<?xml version="1.0" standalone="no"?>
<!DOCTYPE svg PUBLIC "-//W3C//DTD SVG 1.1//EN" "http://www.w3.org/Graphics/SVG/1.1/DTD/svg11.dtd" >
<svg>
<metadata>
Created by FontForge 20120731 at Wed Jun 17 21:35:20 2015
 By ,,,
Copyright (c) 2006-2010 by Jan Fromm. All rights reserved.
</metadata>
<defs>
<font id="ba10b8dcc582113034c451cdd15c1cbc9f8003ee4a19dff0f836ead06559e42" horiz-adv-x="1085" >
  <font-face 
    font-family="ba10b8dcc582113034c451cdd15c1cbc9f8003ee4a19dff0f836ead06559e423"
    font-weight="300"
    font-stretch="normal"
    units-per-em="2048"
    panose-1="2 11 3 3 4 3 2 2 2 3"
    ascent="1659"
    descent="-389"
    x-height="1000"
    cap-height="1423"
    bbox="-129 -471 1950 1884"
    underline-thickness="200"
    underline-position="-50"
    unicode-range="U+0020-2122"
  />
<missing-glyph 
d="M356 719q-16 0 -16 -21q0 -20 16 -20h74v-238q0 -65 -51 -65q-23 0 -31 4t-16 4q-17 0 -17 -21q0 -14 11 -18q10 -4 23 -6t26 -2q106 0 106 104v246q0 33 -32 33h-93zM561 360q0 -20 25 -20q26 0 26 20v152h142q14 0 14 20q0 21 -14 21h-142v125h158q16 0 16 20
q0 21 -16 21h-174q-35 0 -35 -33v-326zM197 539q0 73 26.5 137.5t72.5 111t109.5 73t137.5 26.5q73 0 137.5 -26.5t111 -73t73 -111t26.5 -137.5q0 -74 -26.5 -137.5t-73 -109.5t-111 -72.5t-137.5 -26.5q-74 0 -137.5 26.5t-109.5 72.5t-72.5 109.5t-26.5 137.5z" />
    <glyph glyph-name=".notdef" 
d="M356 719q-16 0 -16 -21q0 -20 16 -20h74v-238q0 -65 -51 -65q-23 0 -31 4t-16 4q-17 0 -17 -21q0 -14 11 -18q10 -4 23 -6t26 -2q106 0 106 104v246q0 33 -32 33h-93zM561 360q0 -20 25 -20q26 0 26 20v152h142q14 0 14 20q0 21 -14 21h-142v125h158q16 0 16 20
q0 21 -16 21h-174q-35 0 -35 -33v-326zM197 539q0 73 26.5 137.5t72.5 111t109.5 73t137.5 26.5q73 0 137.5 -26.5t111 -73t73 -111t26.5 -137.5q0 -74 -26.5 -137.5t-73 -109.5t-111 -72.5t-137.5 -26.5q-74 0 -137.5 26.5t-109.5 72.5t-72.5 109.5t-26.5 137.5z" />
    <glyph glyph-name=".null" horiz-adv-x="0" 
 />
    <glyph glyph-name="nonmarkingreturn" horiz-adv-x="682" 
 />
    <glyph glyph-name="space" unicode=" " horiz-adv-x="538" 
 />
    <glyph glyph-name="space" unicode="&#xa0;" horiz-adv-x="538" 
 />
    <glyph glyph-name="exclam" unicode="!" horiz-adv-x="584" 
d="M227 1511h130l-12 -1151h-107zM383 74q0 -26 -4 -42.5t-13.5 -27.5t-28 -15t-45.5 -4q-56 0 -74 19t-18 70q0 26 3.5 43.5t13.5 28t28.5 14.5t46.5 4q54 0 72.5 -19t18.5 -71z" />
    <glyph glyph-name="quotedbl" unicode="&#x22;" horiz-adv-x="650" 
d="M122 1511h128l-17 -386h-94zM400 1511h128l-17 -386h-94z" />
    <glyph glyph-name="numbersign" unicode="#" 
d="M252 432h-209v92h226l79 390h-211v92h227l84 417h104l-85 -417h270l84 417h103l-84 -417h204v-92h-220l-81 -390h207v-92h-221l-89 -432h-103l89 432h-270l-89 -432h-104zM640 524l81 390h-270l-79 -390h268z" />
    <glyph glyph-name="dollar" unicode="$" 
d="M626 1600v-226q41 -1 78 -3.5t71.5 -7.5t67.5 -13t68 -17l-17 -96q-68 18 -141.5 28.5t-152.5 10.5q-82 0 -142 -16t-98.5 -45.5t-57 -71t-18.5 -91.5t11 -87.5t45 -71.5t95.5 -69.5t163.5 -81.5q112 -52 185 -94t115.5 -85.5t59 -96t16.5 -124.5q0 -63 -20 -120
t-63.5 -103.5t-113.5 -79t-171 -43.5v-237h-108v233q-82 1 -163.5 14t-162.5 35l14 98q80 -21 166.5 -35t177.5 -14q79 0 139.5 17.5t101.5 49t62 77t21 101.5q0 49 -11 86.5t-45.5 71.5t-98.5 70.5t-170 85.5q-107 49 -177.5 90t-112 84.5t-58.5 95t-17 123.5
q0 53 17 107.5t57.5 99.5t109 76.5t170.5 41.5v233h107z" />
    <glyph glyph-name="percent" unicode="%" horiz-adv-x="1557" 
d="M1210 1456l77 -49l-951 -1440l-78 49zM601 1068q0 -111 -17 -184t-51.5 -115.5t-83.5 -59t-110 -16.5q-63 0 -111 15.5t-81.5 58t-51 114.5t-17.5 183q0 112 18.5 184.5t52.5 115t82.5 59.5t112.5 17q61 0 109.5 -16t81 -58.5t49.5 -114t17 -183.5zM498 1064
q0 93 -11 150t-31.5 89t-49.5 43.5t-64 11.5q-38 0 -68 -10.5t-50.5 -42t-31 -88t-10.5 -149.5q0 -92 10.5 -149.5t32 -89t50.5 -43t67 -11.5q37 0 66 10.5t49 42t30.5 88t10.5 148.5zM1479 358q0 -111 -17 -184t-51.5 -115.5t-83.5 -59t-110 -16.5q-63 0 -111 15.5
t-81.5 58t-51 114.5t-17.5 183q0 112 18.5 184.5t52.5 115t82.5 59.5t112.5 17q61 0 109.5 -16t81 -58.5t49.5 -114t17 -183.5zM1376 354q0 93 -11 150t-31.5 89t-49.5 43.5t-64 11.5q-38 0 -68 -10.5t-50.5 -42t-31 -88t-10.5 -149.5q0 -92 10.5 -149.5t32 -89t50.5 -43
t67 -11.5q37 0 66 10.5t49 42t30.5 88t10.5 148.5z" />
    <glyph glyph-name="ampersand" unicode="&#x26;" horiz-adv-x="1251" 
d="M962 196q-80 -100 -192 -162t-250 -62q-104 0 -182.5 29t-130.5 78.5t-79 116.5t-27 146q0 75 20 135.5t58 113.5t93 101t122 99q-40 42 -78 87t-67.5 97t-47.5 110.5t-18 127.5q0 151 90 238.5t260 87.5q166 0 251.5 -78.5t85.5 -211.5q0 -77 -26.5 -141t-70 -120
t-99.5 -105t-118 -94l402 -422q38 73 62.5 164.5t29.5 208.5h108q-10 -140 -43 -249.5t-85 -199.5l228 -236l-84 -79zM462 720q-54 -41 -99 -80t-77.5 -83t-50.5 -93.5t-18 -112.5q0 -58 19.5 -109.5t58.5 -90.5t98 -60.5t136 -21.5q113 0 203.5 54t159.5 146zM755 1237
q0 96 -57.5 151.5t-171.5 55.5q-118 0 -173 -64t-55 -163q0 -56 16.5 -105.5t43 -93t60.5 -83.5t69 -77q54 41 103 82.5t86 87t58 97t21 112.5z" />
    <glyph glyph-name="quotesingle" unicode="'" horiz-adv-x="372" 
d="M122 1511h128l-17 -386h-94z" />
    <glyph glyph-name="parenleft" unicode="(" horiz-adv-x="574" 
d="M434 -358q-128 210 -205.5 450.5t-77.5 527.5q0 288 77.5 528.5t205.5 453.5l88 -48q-56 -99 -102 -206.5t-80.5 -224t-53 -243t-18.5 -260.5q0 -133 18.5 -258t53 -241t80.5 -224t102 -208z" />
    <glyph glyph-name="parenright" unicode=")" horiz-adv-x="574" 
d="M52 -311q56 100 102.5 208t80 224t52.5 241t19 258q0 134 -19 260.5t-52.5 243t-80 224t-102.5 206.5l88 48q63 -106 115.5 -219t89.5 -234t58 -253t21 -276t-21 -275.5t-58 -252.5t-89.5 -233t-115.5 -217z" />
    <glyph glyph-name="asterisk" unicode="*" horiz-adv-x="824" 
d="M381 1153l-215 -149l-53 91l237 111l-237 113l53 91l215 -151l-21 252h104l-21 -252l215 151l53 -91l-237 -112l237 -112l-53 -91l-215 149l21 -251h-104z" />
    <glyph glyph-name="plus" unicode="+" 
d="M94 634h394v410h107v-410h396v-96h-396v-413h-107v413h-394v96z" />
    <glyph glyph-name="comma" unicode="," horiz-adv-x="452" 
d="M51 -232q41 68 67 118t55 105q-11 3 -18 9.5t-12.5 16t-8 23.5t-2.5 36q0 26 3.5 44t14.5 29t29.5 15t46.5 4q29 0 47 -4t29 -15t14.5 -29t3.5 -44q0 -30 -3 -50.5t-16 -40.5q-16 -29 -38 -60t-47.5 -63.5t-52.5 -65.5t-56 -66z" />
    <glyph glyph-name="hyphen" unicode="-" horiz-adv-x="925" 
d="M179 589h567v-103h-567v103z" />
    <glyph glyph-name="period" unicode="." horiz-adv-x="452" 
d="M320 76q0 -27 -3.5 -44t-14.5 -28t-29 -15t-47 -4q-28 0 -46.5 4t-29.5 15t-14.5 28t-3.5 44q0 26 3.5 44t14.5 29t29.5 15t46.5 4q29 0 47 -4t29 -15t14.5 -29t3.5 -44z" />
    <glyph glyph-name="slash" unicode="/" horiz-adv-x="784" 
d="M652 1511h117l-672 -1741h-117z" />
    <glyph glyph-name="zero" unicode="0" 
d="M982 720q0 -150 -12.5 -263.5t-38 -196.5t-63 -138.5t-87 -88.5t-111.5 -47t-134 -14q-73 0 -133 13t-108 44.5t-84 85t-59.5 135t-35.5 194t-12 262.5q0 149 12.5 263t38 196.5t63 137.5t87 88t111 46.5t134.5 13.5q72 0 132.5 -13t108.5 -44t84 -84.5t59.5 -134.5
t35.5 -193.5t12 -261.5zM863 713q0 135 -9.5 234.5t-27.5 171t-44.5 117t-62.5 71t-80 35.5t-96 10t-96.5 -10t-80 -35.5t-62.5 -71t-45 -117t-27.5 -171t-9.5 -234.5t9.5 -235t27.5 -171.5t45 -117.5t62.5 -72t79.5 -36t97 -10q52 0 96 10t80 36t62.5 72t44.5 117.5
t27.5 171.5t9.5 235z" />
    <glyph glyph-name="one" unicode="1" 
d="M166 102h346v1184l-300 -139l-36 80l360 196h96v-1321h297v-102h-763v102z" />
    <glyph glyph-name="two" unicode="2" 
d="M123 77l448 582q42 55 82 109.5t71 110.5t50 115t19 122q0 60 -17.5 103.5t-52.5 72t-89 42.5t-126 14q-42 0 -82 -3.5t-79 -9.5t-77.5 -14.5t-75.5 -19.5l-16 96q41 11 83.5 20t86 16t88 10.5t90.5 3.5q99 0 172.5 -19t122 -58.5t72 -99t23.5 -140.5q0 -76 -19.5 -144
t-53.5 -132.5t-80 -126.5t-99 -126l-397 -496h680v-105h-824v77z" />
    <glyph glyph-name="three" unicode="3" 
d="M137 110q42 -9 80 -15.5t74.5 -11t73 -6.5t76.5 -2q91 0 159.5 23.5t114.5 66.5t68.5 105.5t22.5 139.5q0 78 -25 136.5t-82 97t-150 57t-229 18.5v98q122 0 207.5 26t139.5 69t78.5 98.5t24.5 114.5q0 60 -17.5 102.5t-53 69.5t-89 39t-125.5 12q-78 0 -154 -12.5
t-155 -34.5l-15 96q87 23 170 36.5t174 13.5q93 0 165 -17t121 -53t74 -93.5t25 -138.5q0 -75 -24 -134.5t-63.5 -104.5t-91.5 -76t-108 -49q59 -7 117 -29.5t103.5 -65.5t74 -109t28.5 -159q0 -99 -31.5 -181t-93 -140t-152.5 -89.5t-209 -31.5q-44 0 -83.5 2.5t-78 7.5
t-77.5 12t-81 16z" />
    <glyph glyph-name="four" unicode="4" 
d="M704 313h-619v92l568 1018h168v-1006h171v-104h-171v-313h-117v313zM704 417v889l-494 -889h494z" />
    <glyph glyph-name="five" unicode="5" 
d="M873 1423v-104h-534v-497q23 3 46.5 5.5t49 4.5t53.5 3.5t60 1.5q90 0 161.5 -21t122 -67.5t77.5 -121t27 -181.5q0 -110 -28.5 -197t-87.5 -148t-149.5 -93t-214.5 -32q-43 0 -81 3t-73 8.5t-68.5 11.5t-68.5 13l12 96q36 -7 70.5 -13t68.5 -11t70 -7t74 -2
q99 0 167 24.5t110.5 71t61 113.5t18.5 152q0 84 -20 141.5t-58 93.5t-94 52t-126 16q-35 0 -64 -1.5t-60.5 -4.5t-70 -8t-91.5 -12v710h640z" />
    <glyph glyph-name="six" unicode="6" 
d="M884 1323q-54 11 -106.5 18t-115.5 7q-85 0 -144.5 -21t-100 -59.5t-65 -93.5t-38.5 -124t-20.5 -151t-10.5 -174q34 20 72 37t78 29.5t82 19.5t85 7q86 0 155 -23.5t116.5 -72t72.5 -122.5t25 -176q0 -106 -28 -190t-81.5 -141.5t-129 -89t-170.5 -31.5q-97 0 -171 31
t-124.5 97t-76.5 169t-26 247q0 154 7 283.5t26.5 233t54.5 181.5t91 129.5t136.5 77.5t190.5 26q65 0 122 -7.5t112 -21.5zM851 417q0 79 -18 136.5t-52.5 94.5t-84.5 54t-116 17q-40 0 -76 -5t-72 -16.5t-72 -30.5t-77 -46q-2 -29 -2 -58.5v-59.5q0 -116 17.5 -198
t53 -134t89.5 -76t127 -24q68 0 120.5 23.5t88.5 68.5t55 108.5t19 145.5z" />
    <glyph glyph-name="seven" unicode="7" 
d="M359 0q64 182 126.5 349t125.5 327.5t128 319t135 323.5h-756v104h881v-80q-71 -169 -136.5 -331t-128 -325.5t-124.5 -333.5t-125 -353h-126v0z" />
    <glyph glyph-name="eight" unicode="8" 
d="M973 362q0 -91 -29.5 -163.5t-84.5 -122.5t-133.5 -77t-176.5 -27q-95 0 -170.5 24.5t-127.5 71.5t-80 116.5t-28 158.5q0 84 25 148.5t67.5 114.5t98 86t116.5 63q-59 28 -108.5 61.5t-85.5 77t-56 99.5t-20 129q0 72 26 132.5t75 104t120.5 68t161.5 24.5t159.5 -22
t117 -63t72 -99t24.5 -130q0 -76 -20.5 -134.5t-56.5 -103t-85.5 -79.5t-107.5 -63q61 -30 116.5 -65.5t98 -82t67.5 -107t25 -140.5zM819 1124q0 51 -17.5 93t-51.5 72t-82.5 46.5t-110.5 16.5t-110.5 -16.5t-81 -46.5t-49.5 -72t-17 -93q0 -61 20.5 -107.5t56.5 -83.5
t85.5 -66.5t108.5 -57.5q59 25 105.5 55.5t78.5 68t48.5 85t16.5 106.5zM854 352q0 66 -24 117.5t-66 93t-99 75t-122 63.5q-62 -24 -114 -57.5t-89.5 -76.5t-59 -96.5t-21.5 -117.5q0 -68 21.5 -120.5t60.5 -88t94 -54.5t122 -19q68 0 123 19t93.5 55t59.5 88t21 119z" />
    <glyph glyph-name="nine" unicode="9" 
d="M175 111q38 -9 71 -16t64 -11.5t62.5 -6.5t67.5 -2q85 0 144.5 21t100.5 59.5t65 93.5t38 124t20.5 151.5t11.5 174.5q-35 -21 -73 -38t-78 -29.5t-82.5 -19.5t-85.5 -7q-87 0 -155 23.5t-115.5 72t-72.5 123t-25 176.5q0 105 28.5 189t81 142t128.5 89t172 31t170 -31
t125 -97t77 -169t26 -246q0 -155 -7 -284.5t-26.5 -233t-55 -181.5t-91.5 -129.5t-136.5 -77.5t-190.5 -26q-38 0 -73 3t-68 8t-66.5 12.5t-67.5 15.5zM251 1007q0 -80 18 -137.5t52.5 -94.5t84.5 -54t115 -17q41 0 77.5 5t72 17t72 30.5t77.5 45.5q2 29 2 58.5v59.5
q0 115 -17.5 197.5t-53 134.5t-89.5 76t-127 24q-69 0 -121.5 -23.5t-88.5 -68.5t-55 -108.5t-19 -144.5z" />
    <glyph glyph-name="colon" unicode=":" horiz-adv-x="391" 
d="M320 768q0 -28 -3.5 -44.5t-14.5 -28t-29 -15.5t-47 -4q-28 0 -46.5 4t-29.5 15.5t-14.5 28t-3.5 44.5q0 25 3.5 43t14.5 29t29.5 15t46.5 4q29 0 47 -4t29 -15t14.5 -29t3.5 -43zM320 76q0 -27 -3.5 -44t-14.5 -28t-29 -15t-47 -4q-28 0 -46.5 4t-29.5 15t-14.5 28
t-3.5 44q0 26 3.5 44t14.5 29t29.5 15t46.5 4q29 0 47 -4t29 -15t14.5 -29t3.5 -44z" />
    <glyph glyph-name="semicolon" unicode=";" horiz-adv-x="391" 
d="M320 768q0 -28 -3.5 -44.5t-14.5 -28t-29 -15.5t-47 -4q-28 0 -46.5 4t-29.5 15.5t-14.5 28t-3.5 44.5q0 25 3.5 43t14.5 29t29.5 15t46.5 4q29 0 47 -4t29 -15t14.5 -29t3.5 -43zM51 -232q41 68 67 118t55 105q-11 3 -18 9.5t-12.5 16t-8 23.5t-2.5 36q0 26 3.5 44
t14.5 29t29.5 15t46.5 4q29 0 47 -4t29 -15t14.5 -29t3.5 -44q0 -30 -3 -50.5t-16 -40.5q-16 -29 -38 -60t-47.5 -63.5t-52.5 -65.5t-56 -66z" />
    <glyph glyph-name="less" unicode="&#x3c;" 
d="M147 643l763 447v-119l-654 -383l654 -391v-118l-763 451v113z" />
    <glyph glyph-name="equal" unicode="=" 
d="M115 448h856v-96h-856v96zM115 821h856v-97h-856v97z" />
    <glyph glyph-name="greater" unicode="&#x3e;" 
d="M175 197l655 384l-655 391v118l764 -451v-113l-764 -447v118z" />
    <glyph glyph-name="question" unicode="?" horiz-adv-x="775" 
d="M246 529q0 57 5 100t23.5 85.5t52 88.5t90.5 109q48 54 80 94.5t52.5 76.5t29.5 74t9 85q0 94 -64 141t-194 47q-63 0 -124 -10t-134 -32l-15 94q78 22 147.5 33.5t148.5 11.5q170 0 263 -68.5t93 -199.5q0 -66 -10 -113.5t-33.5 -93t-62.5 -94t-97 -112.5
q-42 -46 -70 -82.5t-46 -70t-25.5 -71.5t-8.5 -86v-176h-110v169zM394 74q0 -26 -4.5 -42.5t-14.5 -27.5t-28 -15t-45 -4q-56 0 -74 19t-18 70q0 26 3.5 43.5t14 28t28.5 14.5t46 4q54 0 73 -19t19 -71z" />
    <glyph glyph-name="at" unicode="@" horiz-adv-x="2111" 
d="M1397 367q-10 -91 19 -127.5t91 -36.5q45 0 101.5 32.5t106 102t84 175t34.5 252.5q0 140 -45.5 250t-135 185t-223.5 114.5t-311 39.5q-175 0 -327.5 -49t-263 -153.5t-173.5 -267t-63 -388.5q0 -155 39.5 -282t121 -217t207.5 -139t299 -49q142 0 261 12.5t230 45.5
l17 -97q-58 -15 -117.5 -25.5t-121.5 -18t-130.5 -11t-144.5 -3.5q-195 0 -340.5 55t-242 156t-145 245t-48.5 321q0 247 73 428t201 300t301.5 176.5t373.5 57.5q202 0 356.5 -46t258 -134t157 -214t53.5 -286q0 -171 -45.5 -294.5t-113.5 -203.5t-148.5 -117.5
t-150.5 -37.5q-101 0 -148 51t-49 134q-31 -30 -71 -62.5t-89 -59.5t-105.5 -45t-117.5 -18q-129 0 -206.5 91.5t-77.5 279.5q0 132 37.5 235t102.5 175t151 110t182 38q78 0 139.5 -22t114.5 -59l16 59h96zM1334 872q-64 40 -116.5 62t-123.5 22q-70 0 -133.5 -30
t-110.5 -87.5t-76 -143t-29 -194.5q0 -142 48.5 -216.5t147.5 -74.5q48 0 95 18.5t91.5 48t84 65.5t72.5 71z" />
    <glyph glyph-name="A" unicode="A" horiz-adv-x="1210" 
d="M519 1423h168l489 -1423h-130l-141 409h-609l-138 -409h-124zM877 507l-134 393q-20 60 -39 114.5t-36.5 107.5t-34 105t-33.5 108h-2q-17 -56 -32.5 -108.5t-32.5 -105.5t-35.5 -107.5t-39.5 -114.5l-132 -392h551z" />
    <glyph glyph-name="B" unicode="B" horiz-adv-x="1201" 
d="M204 1423h363q125 0 214.5 -14t147.5 -51.5t84.5 -102t26.5 -163.5q0 -72 -16.5 -129t-46 -99t-72.5 -70t-99 -43q57 -8 107.5 -30t88.5 -63.5t60.5 -103.5t22.5 -150q0 -103 -29 -179.5t-90.5 -126t-155 -74t-222.5 -24.5h-384v1423zM595 99q101 0 170.5 17t113 54
t62.5 93t19 134q0 75 -18 130.5t-63 92.5t-120.5 55t-191.5 18h-240v-594h268zM570 789q78 0 141.5 13t109 46t70.5 89t25 140q0 78 -19 126t-61 75t-109 37t-165 10h-235v-536h243z" />
    <glyph glyph-name="B" unicode="&#xe000;" horiz-adv-x="1201" 
d="M204 1423h363q125 0 214.5 -14t147.5 -51.5t84.5 -102t26.5 -163.5q0 -72 -16.5 -129t-46 -99t-72.5 -70t-99 -43q57 -8 107.5 -30t88.5 -63.5t60.5 -103.5t22.5 -150q0 -103 -29 -179.5t-90.5 -126t-155 -74t-222.5 -24.5h-384v1423zM595 99q101 0 170.5 17t113 54
t62.5 93t19 134q0 75 -18 130.5t-63 92.5t-120.5 55t-191.5 18h-240v-594h268zM570 789q78 0 141.5 13t109 46t70.5 89t25 140q0 78 -19 126t-61 75t-109 37t-165 10h-235v-536h243z" />
    <glyph glyph-name="C" unicode="C" horiz-adv-x="1068" 
d="M991 25q-68 -18 -148 -32t-163 -14q-135 0 -236 28t-167.5 108.5t-99 222t-32.5 370.5q0 226 36 370t106.5 225t172 111.5t233.5 30.5q82 0 159.5 -12.5t138.5 -29.5l-16 -97q-62 17 -135 28t-146 11q-103 0 -182 -23t-133.5 -91t-82.5 -191.5t-28 -324.5
q0 -203 26.5 -327.5t80 -194t132.5 -92.5t187 -23q70 0 143.5 13t137.5 30z" />
    <glyph glyph-name="D" unicode="D" horiz-adv-x="1334" 
d="M204 1423h421q152 0 259 -27.5t175 -105t100 -214t32 -354.5t-33.5 -358.5t-104 -221t-179.5 -111.5t-261 -31h-409v1423zM619 100q116 0 201.5 24t141 90.5t80.5 187t25 313.5q0 194 -24.5 313t-78.5 185.5t-139 88.5t-206 22h-292v-1224h292z" />
    <glyph glyph-name="E" unicode="E" horiz-adv-x="1057" 
d="M204 1423h740v-99h-617v-535h570v-98h-570v-591h617v-100h-740v1423z" />
    <glyph glyph-name="E" unicode="&#xe001;" horiz-adv-x="1057" 
d="M204 1423h740v-99h-617v-535h570v-98h-570v-591h617v-100h-740v1423z" />
    <glyph glyph-name="F" unicode="F" horiz-adv-x="979" 
d="M204 1423h717v-99h-594v-535h541v-98h-541v-691h-123v1423z" />
    <glyph glyph-name="G" unicode="G" horiz-adv-x="1225" 
d="M1067 44q-72 -28 -173.5 -48t-207.5 -20q-139 0 -241 28.5t-168.5 109t-99 222.5t-32.5 370q0 227 37.5 371.5t110 225.5t178 111.5t239.5 30.5q91 0 174 -12t160 -33l-16 -97q-80 20 -156.5 31t-162.5 11q-106 0 -188 -23t-138 -92t-85.5 -192.5t-29.5 -324.5
q0 -203 26.5 -327.5t79.5 -193.5t131.5 -92.5t183.5 -23.5q83 0 146.5 13.5t110.5 30.5v567h-340v98h461v-741z" />
    <glyph glyph-name="H" unicode="H" horiz-adv-x="1360" 
d="M204 1423h123v-631h707v631h123v-1423h-123v691h-707v-691h-123v1423z" />
    <glyph glyph-name="I" unicode="I" horiz-adv-x="530" 
d="M204 1423h123v-1423h-123v1423z" />
    <glyph glyph-name="J" unicode="J" horiz-adv-x="638" 
d="M448 322q0 -96 -18 -161t-54 -103.5t-91 -54.5t-129 -16q-45 0 -88 5.5t-85 15.5l16 98q38 -9 78.5 -14t76.5 -5q95 0 133 48t38 179v1109h123v-1101z" />
    <glyph glyph-name="K" unicode="K" horiz-adv-x="1067" 
d="M204 1423h123v-679l566 679h154l-590 -689l613 -734h-157l-586 707v-707h-123v1423z" />
    <glyph glyph-name="L" unicode="L" horiz-adv-x="944" 
d="M204 1423h123v-1321h595v-102h-718v1423z" />
    <glyph glyph-name="M" unicode="M" horiz-adv-x="1766" 
d="M281 1423h192l276 -863q19 -60 36 -116.5t33.5 -112.5t32.5 -113.5t33 -119.5h3q16 62 31 119.5t31 113t32.5 112t36.5 116.5l275 864h193l125 -1423h-131l-70 876q-6 60 -9.5 116t-8 111.5t-8 111.5t-6.5 118l-2 1q-18 -60 -35 -115.5t-34 -111.5t-34 -113.5t-37 -117.5
l-275 -876h-160l-275 876q-38 120 -72 231.5t-67 225.5h-2q-5 -56 -8 -112.5t-7.5 -113t-8 -114t-8.5 -117.5l-72 -876h-126z" />
    <glyph glyph-name="N" unicode="N" horiz-adv-x="1396" 
d="M204 1423h160l517 -907q25 -47 51.5 -94t52 -93t50.5 -92.5t53 -97.5l2 1q-6 97 -8 190.5t-2 185.5v907h113v-1423h-163l-515 907q-28 47 -53.5 94.5t-50 93.5t-51 92t-50.5 97l-4 -1q5 -96 8 -190t3 -186v-907h-113v1423z" />
    <glyph glyph-name="O" unicode="O" horiz-adv-x="1375" 
d="M1231 716q0 -231 -36 -376t-106 -226.5t-172.5 -111.5t-235.5 -30t-233 28.5t-167.5 108.5t-101.5 223.5t-34 373.5q0 232 35 376.5t105 227t172.5 112t235.5 29.5t233.5 -28t168 -108.5t102 -224t34.5 -374.5zM1107 709q0 204 -27 330t-80 195t-131.5 92.5t-182.5 23.5
q-103 0 -180 -22.5t-130.5 -91.5t-80.5 -194t-27 -329t27 -329.5t80.5 -194.5t130.5 -92.5t180 -23.5q104 0 182.5 22.5t131.5 91.5t80 194t27 328z" />
    <glyph glyph-name="P" unicode="P" horiz-adv-x="1086" 
d="M204 1423h367q116 0 199.5 -14.5t137.5 -55t80.5 -113.5t26.5 -187q0 -110 -29 -188.5t-87 -127t-145.5 -72t-204.5 -23.5h-222v-642h-123v1423zM556 740q173 0 255 70t82 236q0 86 -18 140t-57.5 84.5t-102.5 42.5t-150 12h-238v-585h229z" />
    <glyph glyph-name="Q" unicode="Q" horiz-adv-x="1375" 
d="M1208 -228l-227 261q-60 -31 -128.5 -46t-171.5 -15q-133 0 -233 28.5t-167.5 107.5t-101.5 222.5t-34 374.5t35 376.5t105 228t172.5 112t235.5 29.5t233.5 -28t168 -108.5t102 -224t34.5 -374.5q0 -124 -10.5 -221t-30 -171t-48 -128.5t-64.5 -92.5l229 -251zM1107 709
q0 204 -27 329t-80 195t-131.5 93.5t-182.5 23.5q-103 0 -180 -22.5t-130.5 -91.5t-80.5 -194t-27 -329t27 -330.5t80.5 -194.5t130.5 -91.5t180 -23.5q104 0 182.5 22.5t131.5 90.5t80 194t27 329z" />
    <glyph glyph-name="R" unicode="R" horiz-adv-x="1153" 
d="M204 1423h375q125 0 213.5 -15.5t144 -54.5t80.5 -105.5t25 -169.5q0 -96 -23 -165t-73 -114.5t-130 -69.5t-194 -27l458 -702h-151l-445 691h-157v-691h-123v1423zM573 789q100 0 166.5 16.5t106 51t56.5 87t17 127.5q0 78 -18 128t-58.5 77t-106 38t-163.5 11h-246
v-536h246z" />
    <glyph glyph-name="S" unicode="S" horiz-adv-x="1078" 
d="M143 124q87 -22 169 -35.5t177 -13.5q190 0 280 76t90 201q0 57 -14 97t-52.5 76t-107 74t-176.5 90q-107 51 -181.5 92.5t-119.5 87.5t-65 101t-20 132t28 140t87 108.5t146.5 71t208.5 25.5q93 0 170.5 -12.5t147.5 -32.5l-17 -97q-73 21 -144.5 32t-160.5 11
q-93 0 -158 -17.5t-107 -48.5t-62 -75.5t-20 -97.5q0 -51 13.5 -90t50.5 -74.5t103 -72.5t171 -87q113 -53 189.5 -96t123 -89.5t66.5 -102.5t20 -134q0 -89 -32 -160t-94 -121t-154.5 -78t-214.5 -28q-96 0 -182 13.5t-173 38.5z" />
    <glyph glyph-name="S" unicode="&#xe002;" horiz-adv-x="1078" 
d="M143 124q87 -22 169 -35.5t177 -13.5q190 0 280 76t90 201q0 57 -14 97t-52.5 76t-107 74t-176.5 90q-107 51 -181.5 92.5t-119.5 87.5t-65 101t-20 132t28 140t87 108.5t146.5 71t208.5 25.5q93 0 170.5 -12.5t147.5 -32.5l-17 -97q-73 21 -144.5 32t-160.5 11
q-93 0 -158 -17.5t-107 -48.5t-62 -75.5t-20 -97.5q0 -51 13.5 -90t50.5 -74.5t103 -72.5t171 -87q113 -53 189.5 -96t123 -89.5t66.5 -102.5t20 -134q0 -89 -32 -160t-94 -121t-154.5 -78t-214.5 -28q-96 0 -182 13.5t-173 38.5z" />
    <glyph glyph-name="T" unicode="T" horiz-adv-x="1045" 
d="M461 1322h-430v101h984v-101h-431v-1322h-123v1322z" />
    <glyph glyph-name="U" unicode="U" horiz-adv-x="1334" 
d="M289 1423v-900q0 -110 15.5 -194.5t57 -141t116 -85.5t192.5 -29t191.5 29t114.5 86.5t55 141.5t14 195v898h123v-891q0 -137 -24.5 -241.5t-83 -174.5t-155 -107t-242.5 -37t-241 34t-152 102t-81 170t-24 239v906h124z" />
    <glyph glyph-name="V" unicode="V" horiz-adv-x="1208" 
d="M34 1423h130l295 -863q22 -63 41 -121t37.5 -114.5t36 -114.5t34.5 -120h3q17 62 33.5 120t34.5 114.5t37 114.5t40 121l294 863h124l-484 -1423h-168z" />
    <glyph glyph-name="W" unicode="W" horiz-adv-x="1879" 
d="M72 1423h131l222 -863q15 -62 28.5 -118t26 -111t25 -113t27.5 -124h3q13 65 25.5 123.5t25 113t26 111t28.5 118.5l217 863h171l216 -863q16 -62 29 -118.5t25.5 -111t24 -112.5t27.5 -124h2q15 66 28 124t26.5 113.5t26.5 111t29 117.5l220 863h126l-369 -1423h-177
l-222 879q-13 53 -25.5 109.5t-25 114t-24.5 115t-23 115.5h-3q-11 -58 -23 -116t-25.5 -115t-26 -113.5t-25.5 -109.5l-222 -879h-177z" />
    <glyph glyph-name="X" unicode="X" horiz-adv-x="1228" 
d="M533 724l-488 699h144l427 -615l2 -1q17 28 34.5 53.5t33.5 49.5t32.5 48t35.5 51l288 414h137l-487 -695l511 -728h-144l-451 643l-2 2q-33 -51 -64 -97.5t-68 -97.5l-314 -450h-136z" />
    <glyph glyph-name="Y" unicode="Y" horiz-adv-x="1054" 
d="M465 570l-454 853h132l252 -464q22 -40 39 -74t33 -65.5t32 -62.5t33 -68h3q18 37 33.5 71t31 65.5t32.5 65t36 70.5l247 462h128l-455 -853v-570h-123v570z" />
    <glyph glyph-name="Z" unicode="Z" horiz-adv-x="1011" 
d="M67 83l721 1238h-695v102h841v-82l-724 -1238h743v-103h-886v83z" />
    <glyph glyph-name="bracketleft" unicode="[" horiz-adv-x="626" 
d="M207 1511h378v-91h-265v-1665h265v-92h-378v1848z" />
    <glyph glyph-name="backslash" unicode="\" horiz-adv-x="784" 
d="M15 1511h117l672 -1741h-118z" />
    <glyph glyph-name="bracketright" unicode="]" horiz-adv-x="626" 
d="M41 -245h266v1665h-266v91h379v-1848h-379v92z" />
    <glyph glyph-name="asciicircum" unicode="^" 
d="M477 1423h132l394 -681h-124l-338 582l-338 -582h-121z" />
    <glyph glyph-name="underscore" unicode="_" 
d="M0 -371h1085v-100h-1085v100z" />
    <glyph glyph-name="grave" unicode="`" horiz-adv-x="787" 
d="M323 1516l234 -278l-63 -60l-257 258z" />
    <glyph glyph-name="a" unicode="a" horiz-adv-x="1016" 
d="M716 712q0 107 -52 158.5t-164 51.5q-75 0 -141.5 -9t-137.5 -26l-12 93q77 17 152.5 28t158.5 11t142.5 -19t98.5 -57.5t57.5 -94.5t18.5 -130v-718h-100l-10 98q-80 -47 -158.5 -82.5t-180.5 -35.5q-120 0 -197.5 67.5t-77.5 211.5q0 80 25.5 141t84 101.5t154 62
t236.5 21.5h103v127zM618 496q-115 0 -190.5 -14t-120 -41.5t-62.5 -71t-18 -101.5q0 -103 50 -148t130 -45q82 0 151.5 31.5t157.5 86.5v303h-98z" />
    <glyph glyph-name="b" unicode="b" horiz-adv-x="1128" 
d="M196 1511h121v-358q0 -57 -1 -120.5t-6 -133.5l2 -2q83 51 165 87t171 36q83 0 149 -23t112.5 -81.5t70 -157t23.5 -248.5q0 -151 -35.5 -252.5t-93 -163t-135 -88t-159.5 -26.5q-77 0 -143 22.5t-134 57.5l-7 -60h-100v1511zM317 158q67 -37 127 -59t129 -22
q58 0 114 19t99 67.5t69.5 131t26.5 210.5q0 127 -17.5 207.5t-50.5 126.5t-81 64t-108 18q-67 0 -140 -32t-168 -93v-638z" />
    <glyph glyph-name="b" unicode="&#xe003;" horiz-adv-x="1128" 
d="M196 1511h121v-358q0 -57 -1 -120.5t-6 -133.5l2 -2q83 51 165 87t171 36q83 0 149 -23t112.5 -81.5t70 -157t23.5 -248.5q0 -151 -35.5 -252.5t-93 -163t-135 -88t-159.5 -26.5q-77 0 -143 22.5t-134 57.5l-7 -60h-100v1511zM317 158q67 -37 127 -59t129 -22
q58 0 114 19t99 67.5t69.5 131t26.5 210.5q0 127 -17.5 207.5t-50.5 126.5t-81 64t-108 18q-67 0 -140 -32t-168 -93v-638z" />
    <glyph glyph-name="c" unicode="c" horiz-adv-x="850" 
d="M764 15q-52 -15 -113 -24.5t-118 -9.5q-100 0 -175.5 23t-125 80.5t-75.5 158t-26 254.5q0 157 30.5 258t85 160t130.5 81.5t169 22.5q60 0 119 -9.5t108 -22.5l-13 -93q-50 13 -103 20.5t-110 7.5q-66 0 -120 -15t-92.5 -60.5t-60 -128.5t-21.5 -217q0 -133 18.5 -215
t55 -129t91.5 -63.5t129 -16.5q46 0 100 8.5t104 22.5z" />
    <glyph glyph-name="d" unicode="d" horiz-adv-x="1128" 
d="M822 107q-87 -55 -170 -91t-172 -36q-83 0 -149.5 23t-112.5 81.5t-70 157t-24 248.5q0 151 35.5 253t94 163.5t135.5 87.5t159 26q74 0 139.5 -21t129.5 -54l2 2q-5 68 -6 130.5t-1 120.5v313h120v-1511h-100zM812 842q-69 37 -128 59t-130 22q-58 0 -113.5 -19
t-98.5 -67.5t-69.5 -130.5t-26.5 -210t17.5 -208.5t50.5 -127t80.5 -64t109.5 -17.5q66 0 139 32t169 93v638z" />
    <glyph glyph-name="e" unicode="e" horiz-adv-x="1031" 
d="M848 20q-74 -17 -149.5 -28t-155.5 -11q-94 0 -169.5 19t-129.5 74.5t-83.5 156.5t-29.5 266q0 159 29.5 261t82.5 162.5t130 83.5t170 23q94 0 161 -20.5t110.5 -73.5t64 -144t20.5 -231q0 -18 -0.5 -34t-0.5 -39h-645q0 -135 20.5 -215.5t60 -122.5t98.5 -56t136 -14
q73 0 136.5 10.5t131.5 26.5zM784 574q-2 111 -17 181t-46 109t-76.5 53t-110.5 14q-63 0 -113.5 -15t-86.5 -55t-56 -110t-24 -177h530z" />
    <glyph glyph-name="f" unicode="f" horiz-adv-x="614" 
d="M216 905h-166v95h166v184q0 91 17 158t55 110t99.5 65t150.5 22q43 0 83.5 -4.5t78.5 -13.5l-13 -93q-34 7 -70 10.5t-76 3.5q-111 0 -157.5 -58.5t-46.5 -188.5v-195h296v-95h-296v-905h-121v905z" />
    <glyph glyph-name="g" unicode="g" horiz-adv-x="1072" 
d="M1027 916q-48 -4 -97 -6t-95 -6q32 -32 52 -90t20 -150q0 -101 -24 -171t-71.5 -113t-119.5 -63t-166 -20q-58 0 -102.5 8t-77.5 23q-36 -24 -51 -43.5t-15 -46.5q0 -16 6.5 -30.5t26 -27.5t55.5 -25t92 -23q92 -21 167.5 -36t139.5 -29q54 -11 94.5 -29.5t67 -45
t39.5 -63t13 -85.5q0 -66 -25.5 -123t-80.5 -98.5t-144 -65.5t-213 -24q-120 0 -201 19.5t-131.5 56.5t-72 89.5t-21.5 117.5q0 99 57.5 161t144.5 101q-63 22 -97 57.5t-34 87.5q0 48 24 79.5t70 64.5q-47 39 -77 106.5t-30 186.5q0 102 24 171.5t71.5 113t119 63
t165.5 19.5q66 0 110.5 -7t78.5 -20h308v-84zM710 -19q-73 15 -145.5 31t-145.5 31q-45 -15 -82.5 -34t-65 -45t-44 -60t-16.5 -78q0 -47 14 -84t50 -63.5t96 -41t151 -14.5q97 0 162 17.5t104.5 47.5t56.5 68t17 80q0 62 -38.5 95.5t-113.5 49.5zM788 660q0 80 -15 133
t-46 84.5t-81.5 45t-119.5 13.5q-71 0 -119 -12.5t-80 -44.5t-45.5 -84t-13.5 -131q0 -80 13.5 -132.5t44.5 -85t81.5 -46t120.5 -13.5q69 0 119 13.5t80.5 45t45.5 83.5t15 131z" />
    <glyph glyph-name="h" unicode="h" horiz-adv-x="1179" 
d="M196 1511h121v-358q0 -57 -1.5 -120.5t-5.5 -137.5l2 -2q93 53 190.5 90t195.5 37q155 0 229 -77.5t74 -251.5v-691h-122v674q0 137 -49 192t-158 55q-78 0 -166 -33.5t-189 -95.5v-792h-121v1511z" />
    <glyph glyph-name="i" unicode="i" horiz-adv-x="513" 
d="M196 1000h121v-1000h-121v1000zM343 1338q0 -23 -4 -40t-14.5 -26.5t-27 -13.5t-41.5 -4q-27 0 -44 4t-27 13.5t-14 26.5t-4 40q0 25 4 41.5t14 26t27 13.5t44 4q25 0 41.5 -4t27 -13.5t14.5 -26t4 -41.5z" />
    <glyph glyph-name="j" unicode="j" horiz-adv-x="513" 
d="M317 -85q0 -92 -14.5 -161.5t-50 -116.5t-93.5 -71t-147 -24q-38 0 -70 2.5t-71 9.5l12 96q34 -7 65.5 -9t60.5 -2q110 0 148.5 67t38.5 196v1098h121v-1085zM343 1338q0 -23 -4 -40t-14.5 -26.5t-27 -13.5t-41.5 -4q-27 0 -44 4t-27 13.5t-14 26.5t-4 40q0 25 4 41.5
t14 26t27 13.5t44 4q25 0 41.5 -4t27 -13.5t14.5 -26t4 -41.5z" />
    <glyph glyph-name="k" unicode="k" horiz-adv-x="938" 
d="M196 1511h121v-955l422 444h149l-451 -459l465 -541h-149l-436 508v-508h-121v1511z" />
    <glyph glyph-name="l" unicode="l" horiz-adv-x="513" 
d="M196 1511h121v-1511h-121v1511z" />
    <glyph glyph-name="m" unicode="m" horiz-adv-x="1791" 
d="M196 1000h100l10 -110q97 56 189 93t185 37q110 0 166 -42t85 -101q113 67 208.5 105t188.5 38q140 0 212.5 -77.5t72.5 -251.5v-691h-121v674q0 137 -48.5 192t-141.5 55q-71 0 -154.5 -33.5t-193.5 -100.5q5 -26 7.5 -47.5t2.5 -60.5v-679h-121v674q0 137 -47.5 192
t-141.5 55q-71 0 -153.5 -33.5t-183.5 -95.5v-792h-121v1000z" />
    <glyph glyph-name="n" unicode="n" horiz-adv-x="1180" 
d="M196 1000h100l10 -110q97 56 195.5 93t196.5 37q155 0 229 -77.5t74 -251.5v-691h-122v674q0 137 -49 192t-158 55q-78 0 -166 -33.5t-189 -95.5v-792h-121v1000z" />
    <glyph glyph-name="o" unicode="o" horiz-adv-x="1107" 
d="M975 503q0 -159 -28.5 -261t-83.5 -162.5t-134 -84t-178 -23.5q-100 0 -178.5 22t-132 81t-81.5 161t-28 261t29 261t84 162t133.5 83.5t178.5 23.5t178.5 -22t132 -80.5t81 -160.5t27.5 -261zM854 499q0 136 -20 221t-58.5 131.5t-95.5 62.5t-128 16q-72 0 -128 -15
t-94 -61.5t-57.5 -130.5t-19.5 -221t19.5 -222t58.5 -131t95.5 -63t128.5 -17t128 16t93.5 62t57.5 130t20 222z" />
    <glyph glyph-name="p" unicode="p" horiz-adv-x="1128" 
d="M196 1000h100l10 -107q44 26 86 50.5t84 40.5t85.5 26t86.5 10q83 0 149 -23t112.5 -81.5t70 -157t23.5 -248.5q0 -151 -35.5 -252.5t-93 -163t-135 -88t-159.5 -26.5q-75 0 -140 21.5t-128 53.5l-2 -2q2 -34 3.5 -66.5t2.5 -64.5t1 -61v-59v-242h-121v1440zM317 158
q67 -37 127 -59t129 -22q58 0 114 19t99 67.5t69.5 131t26.5 210.5q0 127 -17.5 207.5t-50.5 126.5t-81 64t-108 18q-67 0 -140 -32t-168 -93v-638z" />
    <glyph glyph-name="q" unicode="q" horiz-adv-x="1128" 
d="M932 -440h-120v286q0 59 1 122t6 133l-2 2q-84 -52 -166 -87.5t-171 -35.5q-83 0 -149.5 23t-112.5 81.5t-70 157t-24 248.5q0 151 35.5 253t94 163.5t135.5 87.5t159 26q77 0 143 -22t134 -58l7 60h100v-1440zM812 842q-69 37 -128 59t-130 22q-58 0 -113.5 -19
t-98.5 -67.5t-69.5 -130.5t-26.5 -210t17.5 -208.5t50.5 -127t80.5 -64t109.5 -17.5q66 0 139 32t169 93v638z" />
    <glyph glyph-name="r" unicode="r" horiz-adv-x="668" 
d="M196 1000h100l10 -118q34 28 68.5 53t69 45t68.5 32t70 12q24 0 42.5 -4t33.5 -11l-23 -120q-16 9 -36.5 13t-45.5 4q-44 0 -100 -32t-136 -86v-788h-121v1000z" />
    <glyph glyph-name="s" unicode="s" horiz-adv-x="843" 
d="M113 108q70 -17 130 -25t118 -8q77 0 130 13.5t85.5 37.5t48 58.5t15.5 75.5q0 36 -11 62.5t-37.5 49t-75 45.5t-120.5 52q-78 30 -132.5 57.5t-87.5 59.5t-47.5 71t-14.5 94q0 132 94 200t270 68q60 0 121.5 -9.5t113.5 -23.5l-15 -92q-59 14 -114.5 22t-113.5 8
q-122 0 -180.5 -41.5t-58.5 -125.5q0 -31 9.5 -55t35 -46.5t71 -45t116.5 -49.5q81 -32 137.5 -58.5t91 -59.5t49.5 -75t15 -101q0 -132 -94.5 -209t-307.5 -77q-64 0 -126.5 9t-129.5 25z" />
    <glyph glyph-name="s" unicode="&#xe004;" horiz-adv-x="843" 
d="M113 108q70 -17 130 -25t118 -8q77 0 130 13.5t85.5 37.5t48 58.5t15.5 75.5q0 36 -11 62.5t-37.5 49t-75 45.5t-120.5 52q-78 30 -132.5 57.5t-87.5 59.5t-47.5 71t-14.5 94q0 132 94 200t270 68q60 0 121.5 -9.5t113.5 -23.5l-15 -92q-59 14 -114.5 22t-113.5 8
q-122 0 -180.5 -41.5t-58.5 -125.5q0 -31 9.5 -55t35 -46.5t71 -45t116.5 -49.5q81 -32 137.5 -58.5t91 -59.5t49.5 -75t15 -101q0 -132 -94.5 -209t-307.5 -77q-64 0 -126.5 9t-129.5 25z" />
    <glyph glyph-name="t" unicode="t" horiz-adv-x="634" 
d="M206 1000v304l121 19v-323h235v-95h-235v-685q0 -79 27.5 -109t86.5 -30q33 0 63 5t58 16l14 -93q-35 -11 -74 -17.5t-85 -6.5q-57 0 -97.5 11t-65.5 36.5t-36.5 65.5t-11.5 94v713h-156v95h156z" />
    <glyph glyph-name="u" unicode="u" horiz-adv-x="1180" 
d="M299 1000v-674q0 -137 50 -192t159 -55q78 0 165.5 34t189.5 95v792h121v-1000h-101l-9 111q-97 -57 -195.5 -94t-196.5 -37q-156 0 -229.5 77.5t-73.5 251.5v691h120z" />
    <glyph glyph-name="v" unicode="v" horiz-adv-x="952" 
d="M39 1000h126l202 -569q16 -51 29.5 -92.5t27 -80t26 -80t27.5 -89.5h2q15 50 27.5 91.5t26 81t26.5 80t31 89.5l202 569h121l-357 -1000h-160z" />
    <glyph glyph-name="w" unicode="w" horiz-adv-x="1558" 
d="M49 1000h128l172 -569q13 -46 25.5 -88.5t23 -84.5t22 -83.5t22.5 -85.5h2q18 82 41.5 168t49.5 174l164 569h164l170 -569q14 -44 25 -86.5t22.5 -84.5t23.5 -84.5t24 -86.5h2q23 95 43 173.5t47 168.5l166 569h122l-299 -1000h-163l-175 571q-27 84 -48.5 168
t-42.5 171h-2q-21 -88 -41.5 -170.5t-45.5 -166.5l-171 -573h-161z" />
    <glyph glyph-name="x" unicode="x" horiz-adv-x="972" 
d="M402 513l-361 487h141l309 -418l2 -1q23 33 43.5 62.5t44.5 63.5l214 293h135l-368 -488l380 -512h-144l-325 444l-2 1q-23 -36 -43.5 -67.5t-47.5 -66.5l-217 -311h-134z" />
    <glyph glyph-name="y" unicode="y" horiz-adv-x="952" 
d="M38 1000h129l200 -558q17 -51 30.5 -92.5t27 -80t25.5 -80t27 -89.5h3q14 50 26.5 91.5t26.5 81t27 80t31 89.5l200 558h125l-427 -1164q-32 -89 -64 -146.5t-69 -90t-82.5 -45t-101.5 -12.5q-42 0 -74.5 4.5t-57.5 10.5l12 94q25 -5 54.5 -8.5t51.5 -3.5q32 0 61.5 6.5
t56.5 28t52 62.5t50 107l58 157h-38z" />
    <glyph glyph-name="y" unicode="&#xe006;" horiz-adv-x="952" 
d="M38 1000h129l200 -558q17 -51 30.5 -92.5t27 -80t25.5 -80t27 -89.5h3q14 50 26.5 91.5t26.5 81t27 80t31 89.5l200 558h125l-427 -1164q-32 -89 -64 -146.5t-69 -90t-82.5 -45t-101.5 -12.5q-42 0 -74.5 4.5t-57.5 10.5l12 94q25 -5 54.5 -8.5t51.5 -3.5q32 0 61.5 6.5
t56.5 28t52 62.5t50 107l58 157h-38z" />
    <glyph glyph-name="z" unicode="z" horiz-adv-x="840" 
d="M83 70l524 832h-495v98h641v-66l-526 -835h539v-99h-683v70z" />
    <glyph glyph-name="braceleft" unicode="{" horiz-adv-x="582" 
d="M527 -336q-10 0 -20.5 -0.5t-24.5 -0.5q-134 0 -190.5 63t-56.5 197v322q0 61 -9.5 107t-32 83t-57.5 64.5t-84 50.5v98q49 24 84 51.5t57.5 63.5t32 82.5t9.5 106.5v299q0 135 56.5 197.5t190.5 62.5q14 0 24.5 -0.5t20.5 -0.5v-90q-53 0 -87.5 -9t-54.5 -31t-28.5 -55
t-8.5 -83v-300q0 -69 -11.5 -120.5t-35.5 -92t-59 -72t-83 -59.5q48 -28 83 -58t59 -70.5t35.5 -92.5t11.5 -122v-323q0 -50 8.5 -83t28.5 -54.5t54.5 -30.5t87.5 -9v-91z" />
    <glyph glyph-name="bar" unicode="|" horiz-adv-x="527" 
d="M204 1511h120v-1951h-120v1951z" />
    <glyph glyph-name="braceright" unicode="}" horiz-adv-x="582" 
d="M55 -245q52 0 86.5 9t55 30.5t28.5 54.5t8 83v323q0 70 12 122t35.5 92.5t59 70.5t82.5 58q-47 28 -82.5 59.5t-59 72t-35.5 92t-12 120.5v300q0 50 -8 83t-28.5 55t-55 31t-86.5 9v90q8 0 19 0.5t26 0.5q133 0 190 -62.5t57 -197.5v-299q0 -60 9.5 -106.5t32 -82.5
t56 -63.5t84.5 -51.5v-98q-51 -23 -84.5 -50.5t-56 -64.5t-32 -83t-9.5 -107v-322q0 -134 -57 -197t-190 -63q-15 0 -26 0.5t-19 0.5v91z" />
    <glyph glyph-name="asciitilde" unicode="~" 
d="M117 949q-1 76 14.5 136.5t46 103t74.5 64.5t99 22q79 0 128.5 -37t87 -81.5t74.5 -81.5t93 -37q28 0 53 12.5t43.5 39.5t29.5 70.5t11 103.5h97q1 -77 -14 -137.5t-46 -103t-75 -64.5t-99 -22q-80 0 -129 37t-86.5 81.5t-74 81.5t-93.5 37q-56 0 -96 -53t-40 -172h-98z
" />
    <glyph glyph-name="exclamdown" unicode="&#xa1;" horiz-adv-x="566" 
d="M230 727h106l11 -1167h-129zM375 1013q0 -26 -4 -43t-14 -28t-28.5 -15t-45.5 -4q-56 0 -73.5 19t-17.5 71q0 25 3.5 42t13.5 28.5t28.5 15.5t45.5 4q55 0 73.5 -19.5t18.5 -70.5z" />
    <glyph glyph-name="cent" unicode="&#xa2;" 
d="M672 1423v-186q32 0 64 -3.5t63.5 -8.5t60.5 -11.5t56 -15.5l-16 -96q-31 9 -63.5 15.5t-64.5 11t-63.5 7t-59.5 2.5q-85 0 -152 -16t-112.5 -62.5t-69.5 -129t-24 -215.5q0 -134 24 -218.5t70 -132t113.5 -65t154.5 -17.5q31 0 62 2.5t62.5 7t62 11t60.5 14.5l16 -97
q-58 -15 -120 -25.5t-124 -11.5v-183h-107v185q-94 7 -167.5 34.5t-123.5 87t-76.5 156.5t-26.5 244q0 155 30.5 253.5t84 157t125 84t154.5 32.5v189h107z" />
    <glyph glyph-name="sterling" unicode="&#xa3;" 
d="M340 779q-9 48 -20 91t-21 84t-16.5 81.5t-6.5 83.5q0 81 26 142.5t76 102.5t123 62t166 21q48 0 87 -2.5t72.5 -7t62.5 -11t58 -14.5l-15 -95q-31 7 -61.5 12.5t-62.5 9.5t-67 6.5t-74 2.5q-66 0 -116.5 -14t-85 -43.5t-52 -74.5t-17.5 -108q0 -38 7 -77t17.5 -79
t21.5 -83t20 -90h426v-99h-412q1 -17 2.5 -34.5t1.5 -34.5q0 -69 -7.5 -129t-23.5 -119.5t-42 -123t-62 -138.5h616v-101h-862v101h121q36 73 62 136t43 122.5t25 119.5t8 128q0 19 -1 37.5t-3 35.5h-199v99h185z" />
    <glyph glyph-name="currency" unicode="&#xa4;" horiz-adv-x="1253" 
d="M275 437q-33 50 -54.5 120.5t-21.5 158.5q0 85 19 153t54 120l-186 188l76 77l183 -185q47 39 116 65t167 26q97 0 165.5 -25t114.5 -64l186 183l76 -77l-185 -186q34 -55 53 -123.5t19 -151.5q0 -87 -19.5 -157t-57.5 -123l188 -190l-76 -77l-187 187
q-48 -37 -113.5 -61.5t-163.5 -24.5q-99 0 -166 26t-110 64l-192 -191l-76 77zM951 716q0 82 -20.5 147t-60 110t-100 69t-142.5 24q-81 0 -141.5 -24t-100.5 -69t-60 -110t-20 -147q0 -83 20 -148t60 -110.5t100.5 -69.5t141.5 -24q82 0 142.5 24t100 69.5t60 110.5
t20.5 148z" />
    <glyph glyph-name="yen" unicode="&#xa5;" 
d="M482 243h-309v93h309v207h-309v92h299l-410 788h133l219 -428q21 -41 38 -73.5t33 -63t31 -61.5t32 -67h3q17 38 33 70.5t31.5 64t31.5 63t33 68.5l217 427h127l-410 -788h298v-92h-308v-207h308v-93h-308v-243h-122v243z" />
    <glyph glyph-name="brokenbar" unicode="&#xa6;" horiz-adv-x="527" 
d="M204 333h120v-773h-120v773zM204 1511h120v-811h-120v811z" />
    <glyph glyph-name="section" unicode="&#xa7;" horiz-adv-x="1138" 
d="M260 -231q63 -15 128 -23t135 -8q122 0 194 40.5t72 138.5q0 45 -13.5 79.5t-49 66t-96.5 67.5t-154 89q-108 60 -175.5 106.5t-104.5 91t-50 93.5t-13 112q0 58 16 105t44 84t67.5 68.5t85.5 59.5q-59 45 -86.5 96t-27.5 134q0 72 27 125.5t77.5 87t121.5 50.5t159 17
q79 0 151 -11t129 -26l-19 -93q-62 15 -127 23t-136 8q-122 0 -194 -40.5t-72 -137.5q0 -48 13.5 -81t49.5 -65t96 -69t155 -88q108 -59 175.5 -105.5t104.5 -91.5t49.5 -94t12.5 -111q0 -59 -16 -106t-45.5 -85.5t-69 -69.5t-84.5 -58q70 -52 93.5 -107.5t23.5 -121.5
q0 -72 -27 -125t-78 -87t-122 -50.5t-159 -16.5q-79 0 -151 10.5t-128 25.5zM596 787q-56 31 -90.5 51t-72.5 42q-90 -51 -138 -108.5t-48 -143.5q0 -47 11.5 -84t43 -73.5t89 -76t152.5 -92.5q55 -31 90 -51t73 -43q89 51 137 108.5t48 144.5q0 47 -11 83.5t-43 73.5
t-89.5 76.5t-151.5 92.5z" />
    <glyph glyph-name="dieresis" unicode="&#xa8;" horiz-adv-x="1079" 
d="M420 1338q0 -44 -16.5 -62t-68.5 -18q-51 0 -68 18t-17 62q0 45 17 63t68 18q50 0 67.5 -18t17.5 -63zM826 1338q0 -44 -17 -62t-68 -18q-52 0 -69 18t-17 62q0 45 17 63t69 18q49 0 67 -18t18 -63z" />
    <glyph glyph-name="copyright" unicode="&#xa9;" horiz-adv-x="1927" 
d="M1236 299q-62 -16 -130.5 -27t-144.5 -11q-99 0 -178.5 21t-136 77t-87 151.5t-30.5 243.5q0 147 32 243.5t90.5 154.5t139 80.5t179.5 22.5q70 0 135.5 -9t131.5 -27l-15 -84q-67 16 -129 25t-124 9q-73 0 -133.5 -16.5t-104.5 -60.5t-69 -124t-25 -207
q0 -128 25 -208.5t70.5 -126t106.5 -62.5t134 -17q60 0 123.5 9.5t125.5 25.5zM1750 756q0 -185 -54 -329.5t-155.5 -246t-247.5 -155t-330 -53.5q-186 0 -332 53.5t-247 154t-154.5 245.5t-53.5 331q0 184 53.5 329t155 246.5t247.5 154.5t332 53q185 0 331.5 -53
t247.5 -153.5t154 -246t53 -330.5zM1647 756q0 164 -45 294t-131.5 218.5t-214 136t-293.5 47.5q-165 0 -292.5 -47.5t-215 -136t-132 -218.5t-44.5 -294q0 -166 44.5 -295.5t132 -218t215 -135.5t292.5 -47q166 0 293.5 47t214 135.5t131.5 218t45 295.5z" />
    <glyph glyph-name="ordfeminine" unicode="&#xaa;" horiz-adv-x="716" 
d="M512 1238q0 63 -35.5 94.5t-116.5 31.5q-58 0 -104.5 -6t-106.5 -19l-14 78q32 6 58.5 12.5t54.5 10t59 5.5t69 2q117 0 177.5 -49t60.5 -148v-537h-84l-9 69q-58 -39 -117 -64.5t-136 -25.5q-40 0 -76 12t-64 36.5t-45 62.5t-17 91q0 52 16 97t56 76.5t105 48.5t161 17
h108v105zM409 1056q-140 0 -192.5 -40t-52.5 -113q0 -69 35.5 -99t90.5 -30q56 0 108.5 22.5t113.5 64.5v195h-103zM64 562h566v-88h-566v88z" />
    <glyph glyph-name="guillemotleft" unicode="&#xab;" horiz-adv-x="919" 
d="M453 499l276 427l92 -49l-226 -376l227 -377l-93 -53zM78 499l284 440l92 -50l-234 -388l236 -391l-94 -51z" />
    <glyph glyph-name="logicalnot" unicode="&#xac;" 
d="M124 634h817v-356h-106v260h-711v96z" />
    <glyph glyph-name="uni00AD" unicode="&#xad;" horiz-adv-x="925" 
d="M179 589h567v-103h-567v103z" />
    <glyph glyph-name="registered" unicode="&#xae;" horiz-adv-x="983" 
d="M869 1077q0 -175 -100.5 -274t-276.5 -99q-177 0 -277.5 99t-100.5 274t100.5 274.5t277.5 99.5q176 0 276.5 -99.5t100.5 -274.5zM790 1077q0 146 -76.5 225.5t-221.5 79.5q-146 0 -222.5 -79.5t-76.5 -225.5t76.5 -225t222.5 -79q145 0 221.5 79t76.5 225zM341 1298
h155q88 0 128.5 -28.5t40.5 -87.5q0 -65 -33 -95.5t-86 -35.5l133 -190h-93l-125 184h-45v-184h-75v437zM479 1103q67 0 87.5 17t20.5 54q0 35 -18 48t-77 13h-76v-132h63z" />
    <glyph glyph-name="macron" unicode="&#xaf;" horiz-adv-x="1129" 
d="M305 1379h533v-96h-533v96z" />
    <glyph glyph-name="degree" unicode="&#xb0;" horiz-adv-x="754" 
d="M652 1258q0 -65 -20 -115t-56 -86t-88 -55t-114 -19q-63 0 -113 19t-86 53t-54.5 84t-18.5 114q0 62 19.5 113t56 87.5t87.5 55.5t115 19q61 0 112 -19t86.5 -53t54.5 -85t19 -113zM548 1255q0 83 -44.5 134t-127.5 51q-82 0 -126 -51t-44 -133t44.5 -134t126.5 -52
q83 0 127 51.5t44 133.5z" />
    <glyph glyph-name="plusminus" unicode="&#xb1;" 
d="M115 762h373v389h107v-389h376v-97h-376v-392h-107v392h-373v97zM115 95h856v-95h-856v95z" />
    <glyph glyph-name="twosuperior" unicode="&#xb2;" horiz-adv-x="556" 
d="M43 783l176 194q69 75 106.5 135t37.5 119q0 58 -35 89.5t-96 31.5q-39 0 -73 -5.5t-79 -17.5l-12 82q50 14 95 20t95 6q104 0 162 -51t58 -137q0 -87 -46.5 -156.5t-124.5 -151.5l-135 -141h322v-87h-451v70z" />
    <glyph glyph-name="threesuperior" unicode="&#xb3;" horiz-adv-x="534" 
d="M50 800q37 -8 69.5 -12t67.5 -4q88 0 129 35t41 105q0 30 -10 53.5t-34.5 40t-67 25.5t-110.5 9v79q103 0 153.5 35.5t50.5 89.5q0 53 -32 76t-95 23q-35 0 -67.5 -4.5t-68.5 -14.5l-13 79q42 11 83.5 16.5t83.5 5.5q108 0 162 -44t54 -123q0 -65 -39 -108t-91 -62
q59 -10 104.5 -52t45.5 -117q0 -108 -69 -168.5t-196 -60.5q-47 0 -84 4t-78 12z" />
    <glyph glyph-name="acute" unicode="&#xb4;" horiz-adv-x="787" 
d="M476 1516l86 -80l-258 -258l-63 60z" />
    <glyph glyph-name="mu" unicode="&#xb5;" horiz-adv-x="1197" 
d="M196 1000h121v-674q0 -137 49.5 -192t157.5 -55q78 0 166.5 34t189.5 95v792h121v-1000h-100l-11 111q-44 -28 -90.5 -50.5t-93 -41t-94 -28.5t-93.5 -10q-71 0 -120.5 18t-86.5 60l-2 -3q4 -67 5.5 -131.5t1.5 -122.5v-242h-121v1440z" />
    <glyph glyph-name="paragraph" unicode="&#xb6;" horiz-adv-x="1106" 
d="M540 460q-122 2 -201 27t-126 83.5t-65.5 156t-18.5 246.5q0 133 23 220t79 138t148.5 71.5t231.5 20.5h445v-77h-163v-1683h-95v1683h-164v-1683h-94v797z" />
    <glyph glyph-name="periodcentered" unicode="&#xb7;" horiz-adv-x="452" 
d="M320 532q0 -27 -3.5 -44t-14.5 -28t-29 -15t-47 -4q-28 0 -46.5 4t-29.5 15t-14.5 28t-3.5 44q0 26 3.5 44t14.5 29t29.5 15t46.5 4q29 0 47 -4t29 -15t14.5 -29t3.5 -44z" />
    <glyph glyph-name="cedilla" unicode="&#xb8;" horiz-adv-x="573" 
d="M221 0h89l-13 -117q95 -4 144 -41t49 -114q0 -83 -61.5 -133t-171.5 -50q-68 0 -130 15l10 75q30 -6 58 -9t61 -3q68 0 99 26t31 72q0 45 -29.5 68t-107.5 23h-48z" />
    <glyph glyph-name="onesuperior" unicode="&#xb9;" horiz-adv-x="420" 
d="M190 1308l-136 -75l-38 67l192 126h83v-713h-101v595z" />
    <glyph glyph-name="ordmasculine" unicode="&#xba;" horiz-adv-x="787" 
d="M697 1067q0 -114 -20 -188t-59.5 -117.5t-96 -60.5t-129.5 -17q-75 0 -130.5 16t-93.5 58t-58 114.5t-20 187.5t21 189.5t60 118t96.5 61.5t129.5 18q73 0 128.5 -17t93.5 -60t58 -116t20 -187zM594 1064q0 91 -11 150.5t-35 92.5t-61.5 45t-92.5 12q-51 0 -89.5 -12
t-62.5 -45t-36.5 -92.5t-12.5 -150.5q0 -92 12.5 -149.5t36.5 -91t62.5 -45.5t89.5 -12q55 0 93 12t61.5 45.5t34.5 91t11 149.5zM131 562h529v-88h-529v88z" />
    <glyph glyph-name="guillemotright" unicode="&#xbb;" horiz-adv-x="919" 
d="M698 497l-235 390l93 52l284 -440l-284 -440l-91 49zM324 497l-227 377l93 52l276 -427l-276 -428l-92 50z" />
    <glyph glyph-name="onequarter" unicode="&#xbc;" horiz-adv-x="1198" 
d="M1020 1456l77 -49l-951 -1440l-78 49zM190 1308l-136 -75l-38 67l192 126h83v-713h-101v595zM658 228l284 485h138v-476h92v-86h-92v-151h-101v151h-321v77zM979 237v376l-220 -376h220z" />
    <glyph glyph-name="onehalf" unicode="&#xbd;" horiz-adv-x="1317" 
d="M1020 1456l77 -49l-951 -1440l-78 49zM190 1308l-136 -75l-38 67l192 126h83v-713h-101v595zM804 70l176 194q69 75 106.5 135t37.5 119q0 58 -35 89.5t-96 31.5q-39 0 -73 -5.5t-79 -17.5l-12 82q50 14 95 20t95 6q104 0 162 -51t58 -137q0 -87 -46.5 -156.5
t-124.5 -151.5l-135 -141h322v-87h-451v70z" />
    <glyph glyph-name="threequarters" unicode="&#xbe;" horiz-adv-x="1316" 
d="M1138 1456l77 -49l-951 -1440l-78 49zM777 228l284 485h138v-476h92v-86h-92v-151h-101v151h-321v77zM1098 237v376l-220 -376h220zM86 800q37 -8 69.5 -12t67.5 -4q88 0 129 35t41 105q0 30 -10 53.5t-34.5 40t-67 25.5t-110.5 9v79q103 0 153.5 35.5t50.5 89.5
q0 53 -32 76t-95 23q-35 0 -67.5 -4.5t-68.5 -14.5l-13 79q42 11 83.5 16.5t83.5 5.5q108 0 162 -44t54 -123q0 -65 -39 -108t-91 -62q59 -10 104.5 -52t45.5 -117q0 -108 -69 -168.5t-196 -60.5q-47 0 -84 4t-78 12z" />
    <glyph glyph-name="questiondown" unicode="&#xbf;" horiz-adv-x="617" 
d="M426 727v-179q1 -56 -4.5 -100.5t-24 -86.5t-52.5 -89.5t-89 -108.5q-48 -52 -80.5 -93t-53 -78t-29 -75t-8.5 -86q0 -96 64 -143t194 -47q62 0 123 10t135 32l15 -93q-79 -22 -148.5 -33.5t-148.5 -11.5q-170 0 -263 67.5t-93 201.5q0 66 10.5 115t34 94t62 94t97.5 113
q42 46 69.5 83t45.5 73t26 74.5t8 87.5l1 179h109zM463 1013q0 -26 -4 -43t-14 -28t-28.5 -15t-45.5 -4q-56 0 -74 19t-18 71q0 25 4 42t14 28.5t28.5 15.5t45.5 4q54 0 73 -19.5t19 -70.5z" />
    <glyph glyph-name="Agrave" unicode="&#xc0;" horiz-adv-x="1210" 
d="M519 1423h168l489 -1423h-130l-141 409h-609l-138 -409h-124zM877 507l-134 393q-20 60 -39 114.5t-36.5 107.5t-34 105t-33.5 108h-2q-17 -56 -32.5 -108.5t-32.5 -105.5t-35.5 -107.5t-39.5 -114.5l-132 -392h551zM402 1831l339 -180l-37 -78l-355 155z" />
    <glyph glyph-name="Aacute" unicode="&#xc1;" horiz-adv-x="1210" 
d="M519 1423h168l489 -1423h-130l-141 409h-609l-138 -409h-124zM877 507l-134 393q-20 60 -39 114.5t-36.5 107.5t-34 105t-33.5 108h-2q-17 -56 -32.5 -108.5t-32.5 -105.5t-35.5 -107.5t-39.5 -114.5l-132 -392h551zM795 1831l51 -103l-353 -155l-39 78z" />
    <glyph glyph-name="Acircumflex" unicode="&#xc2;" horiz-adv-x="1210" 
d="M519 1423h168l489 -1423h-130l-141 409h-609l-138 -409h-124zM877 507l-134 393q-20 60 -39 114.5t-36.5 107.5t-34 105t-33.5 108h-2q-17 -56 -32.5 -108.5t-32.5 -105.5t-35.5 -107.5t-39.5 -114.5l-132 -392h551zM602 1822l279 -168l-46 -78l-239 129l-234 -129
l-44 78z" />
    <glyph glyph-name="Atilde" unicode="&#xc3;" horiz-adv-x="1210" 
d="M519 1423h168l489 -1423h-130l-141 409h-609l-138 -409h-124zM877 507l-134 393q-20 60 -39 114.5t-36.5 107.5t-34 105t-33.5 108h-2q-17 -56 -32.5 -108.5t-32.5 -105.5t-35.5 -107.5t-39.5 -114.5l-132 -392h551zM284 1655q32 46 80 79t120 33q37 0 69 -12.5t60.5 -26
t55 -25.5t58.5 -12q44 0 73.5 20.5t56.5 51.5l61 -55q-32 -46 -80 -79t-119 -33q-38 0 -69.5 12t-60.5 26t-55.5 26t-58.5 12q-43 0 -73 -21t-57 -51z" />
    <glyph glyph-name="Adieresis" unicode="&#xc4;" horiz-adv-x="1210" 
d="M519 1423h168l489 -1423h-130l-141 409h-609l-138 -409h-124zM877 507l-134 393q-20 60 -39 114.5t-36.5 107.5t-34 105t-33.5 108h-2q-17 -56 -32.5 -108.5t-32.5 -105.5t-35.5 -107.5t-39.5 -114.5l-132 -392h551zM443 1686q0 -23 -4 -38.5t-13.5 -25.5t-26.5 -13.5
t-42 -3.5q-26 0 -42 3.5t-26.5 13.5t-14 25.5t-3.5 38.5q0 46 17.5 64t68.5 18t68.5 -18t17.5 -64zM932 1686q0 -23 -3.5 -38.5t-14 -25.5t-27 -13.5t-42.5 -3.5q-25 0 -41.5 3.5t-26.5 13.5t-14 25.5t-4 38.5q0 46 18 64t68 18q51 0 69 -18t18 -64z" />
    <glyph glyph-name="Aring" unicode="&#xc5;" horiz-adv-x="1210" 
d="M519 1423h168l489 -1423h-130l-141 409h-609l-138 -409h-124zM877 507l-134 393q-20 60 -39 114.5t-36.5 107.5t-34 105t-33.5 108h-2q-17 -56 -32.5 -108.5t-32.5 -105.5t-35.5 -107.5t-39.5 -114.5l-132 -392h551zM807 1692q0 -41 -15.5 -76.5t-42.5 -61t-65.5 -40
t-84.5 -14.5t-84.5 14.5t-65.5 40t-42 61t-15 76.5q0 84 57.5 138t149.5 54q45 0 83.5 -14t66 -40t43 -61t15.5 -77zM718 1692q0 53 -31.5 84.5t-87.5 31.5t-87.5 -31.5t-31.5 -84.5t31.5 -84t87.5 -31t87.5 31t31.5 84z" />
    <glyph glyph-name="AE" unicode="&#xc6;" horiz-adv-x="1703" 
d="M776 1423h815v-99h-617v-535h569v-98h-569v-591h617v-100h-740v409h-552l-243 -409h-133zM851 507v822h-6l-493 -822h499z" />
    <glyph glyph-name="Ccedilla" unicode="&#xc7;" horiz-adv-x="1068" 
d="M991 25q-68 -18 -146.5 -32t-158.5 -14h-40l-9 -96q100 -4 150.5 -41t50.5 -114q0 -84 -64 -134t-177 -50q-34 0 -66.5 3.5t-66.5 11.5l10 77q30 -5 59.5 -8.5t63.5 -3.5q69 0 102 25t33 72q0 45 -31.5 67t-108.5 22h-54l16 174q-104 13 -181 52.5t-127.5 122.5
t-75.5 217t-25 332q0 226 36 370t106.5 225t172 111.5t233.5 30.5q82 0 159.5 -12.5t138.5 -29.5l-16 -97q-62 17 -135 28t-146 11q-103 0 -182 -23t-133.5 -91t-82.5 -191.5t-28 -324.5q0 -203 26.5 -327.5t80 -194t132.5 -92.5t187 -23q70 0 143.5 13t137.5 30z" />
    <glyph glyph-name="Egrave" unicode="&#xc8;" horiz-adv-x="1057" 
d="M204 1423h740v-99h-617v-535h570v-98h-570v-591h617v-100h-740v1423zM358 1831l339 -180l-37 -78l-355 155z" />
    <glyph glyph-name="Eacute" unicode="&#xc9;" horiz-adv-x="1057" 
d="M204 1423h740v-99h-617v-535h570v-98h-570v-591h617v-100h-740v1423zM798 1831l51 -103l-353 -155l-39 78z" />
    <glyph glyph-name="Ecircumflex" unicode="&#xca;" horiz-adv-x="1057" 
d="M204 1423h740v-99h-617v-535h570v-98h-570v-591h617v-100h-740v1423zM581 1822l279 -168l-46 -78l-239 129l-234 -129l-44 78z" />
    <glyph glyph-name="Edieresis" unicode="&#xcb;" horiz-adv-x="1057" 
d="M204 1423h740v-99h-617v-535h570v-98h-570v-591h617v-100h-740v1423zM412 1686q0 -23 -4 -38.5t-13.5 -25.5t-26.5 -13.5t-42 -3.5q-26 0 -42 3.5t-26.5 13.5t-14 25.5t-3.5 38.5q0 46 17.5 64t68.5 18t68.5 -18t17.5 -64zM901 1686q0 -23 -3.5 -38.5t-14 -25.5
t-27 -13.5t-42.5 -3.5q-25 0 -41.5 3.5t-26.5 13.5t-14 25.5t-4 38.5q0 46 18 64t68 18q51 0 69 -18t18 -64z" />
    <glyph glyph-name="Igrave" unicode="&#xcc;" horiz-adv-x="530" 
d="M204 1423h123v-1423h-123v1423zM87 1831l339 -180l-37 -78l-355 155z" />
    <glyph glyph-name="Iacute" unicode="&#xcd;" horiz-adv-x="530" 
d="M204 1423h123v-1423h-123v1423zM451 1831l51 -103l-353 -155l-39 78z" />
    <glyph glyph-name="Icircumflex" unicode="&#xce;" horiz-adv-x="530" 
d="M204 1423h123v-1423h-123v1423zM268 1822l279 -168l-46 -78l-239 129l-234 -129l-44 78z" />
    <glyph glyph-name="Idieresis" unicode="&#xcf;" horiz-adv-x="530" 
d="M204 1423h123v-1423h-123v1423zM164 1686q0 -45 -18 -63t-69 -18t-68.5 18t-17.5 63q0 46 17.5 64t68.5 18t69 -18t18 -64zM543 1686q0 -45 -17.5 -63t-67.5 -18q-51 0 -69 18t-18 63q0 46 18 64t69 18q50 0 67.5 -18t17.5 -64z" />
    <glyph glyph-name="Eth" unicode="&#xd0;" horiz-adv-x="1359" 
d="M228 704h-193v97h193v622h422q153 0 260 -27t174.5 -103.5t99.5 -214t32 -356.5q0 -218 -33 -358.5t-104.5 -221t-180 -111.5t-259.5 -31h-411v704zM643 100q118 0 203 24t140 90.5t80.5 187t25.5 313.5q0 194 -24.5 313t-79 185.5t-139 88.5t-205.5 22h-294v-523h375
v-97h-375v-604h293z" />
    <glyph glyph-name="Ntilde" unicode="&#xd1;" horiz-adv-x="1396" 
d="M204 1423h160l517 -907q25 -47 51.5 -94t52 -93t50.5 -92.5t53 -97.5l2 1q-6 97 -8 190.5t-2 185.5v907h113v-1423h-163l-515 907q-28 47 -53.5 94.5t-50 93.5t-51 92t-50.5 97l-4 -1q5 -96 8 -190t3 -186v-907h-113v1423zM385 1655q32 46 80 79t120 33q37 0 69 -12.5
t60.5 -26t55 -25.5t58.5 -12q44 0 73.5 20.5t56.5 51.5l61 -55q-32 -46 -80 -79t-119 -33q-38 0 -69.5 12t-60.5 26t-55.5 26t-58.5 12q-43 0 -73 -21t-57 -51z" />
    <glyph glyph-name="Ograve" unicode="&#xd2;" horiz-adv-x="1375" 
d="M1231 716q0 -231 -36 -376t-106 -226.5t-172.5 -111.5t-235.5 -30t-233 28.5t-167.5 108.5t-101.5 223.5t-34 373.5q0 232 35 376.5t105 227t172.5 112t235.5 29.5t233.5 -28t168 -108.5t102 -224t34.5 -374.5zM1107 709q0 204 -27 330t-80 195t-131.5 92.5t-182.5 23.5
q-103 0 -180 -22.5t-130.5 -91.5t-80.5 -194t-27 -329t27 -329.5t80.5 -194.5t130.5 -92.5t180 -23.5q104 0 182.5 22.5t131.5 91.5t80 194t27 328zM466 1831l339 -180l-37 -78l-355 155z" />
    <glyph glyph-name="Oacute" unicode="&#xd3;" horiz-adv-x="1375" 
d="M1231 716q0 -231 -36 -376t-106 -226.5t-172.5 -111.5t-235.5 -30t-233 28.5t-167.5 108.5t-101.5 223.5t-34 373.5q0 232 35 376.5t105 227t172.5 112t235.5 29.5t233.5 -28t168 -108.5t102 -224t34.5 -374.5zM1107 709q0 204 -27 330t-80 195t-131.5 92.5t-182.5 23.5
q-103 0 -180 -22.5t-130.5 -91.5t-80.5 -194t-27 -329t27 -329.5t80.5 -194.5t130.5 -92.5t180 -23.5q104 0 182.5 22.5t131.5 91.5t80 194t27 328zM921 1831l51 -103l-353 -155l-39 78z" />
    <glyph glyph-name="Ocircumflex" unicode="&#xd4;" horiz-adv-x="1375" 
d="M1231 716q0 -231 -36 -376t-106 -226.5t-172.5 -111.5t-235.5 -30t-233 28.5t-167.5 108.5t-101.5 223.5t-34 373.5q0 232 35 376.5t105 227t172.5 112t235.5 29.5t233.5 -28t168 -108.5t102 -224t34.5 -374.5zM1107 709q0 204 -27 330t-80 195t-131.5 92.5t-182.5 23.5
q-103 0 -180 -22.5t-130.5 -91.5t-80.5 -194t-27 -329t27 -329.5t80.5 -194.5t130.5 -92.5t180 -23.5q104 0 182.5 22.5t131.5 91.5t80 194t27 328zM689 1822l279 -168l-46 -78l-239 129l-234 -129l-44 78z" />
    <glyph glyph-name="Otilde" unicode="&#xd5;" horiz-adv-x="1375" 
d="M1231 716q0 -231 -36 -376t-106 -226.5t-172.5 -111.5t-235.5 -30t-233 28.5t-167.5 108.5t-101.5 223.5t-34 373.5q0 232 35 376.5t105 227t172.5 112t235.5 29.5t233.5 -28t168 -108.5t102 -224t34.5 -374.5zM1107 709q0 204 -27 330t-80 195t-131.5 92.5t-182.5 23.5
q-103 0 -180 -22.5t-130.5 -91.5t-80.5 -194t-27 -329t27 -329.5t80.5 -194.5t130.5 -92.5t180 -23.5q104 0 182.5 22.5t131.5 91.5t80 194t27 328zM356 1655q32 46 80 79t120 33q37 0 69 -12.5t60.5 -26t55 -25.5t58.5 -12q44 0 73.5 20.5t56.5 51.5l61 -55
q-32 -46 -80 -79t-119 -33q-38 0 -69.5 12t-60.5 26t-55.5 26t-58.5 12q-43 0 -73 -21t-57 -51z" />
    <glyph glyph-name="Odieresis" unicode="&#xd6;" horiz-adv-x="1375" 
d="M1231 716q0 -231 -36 -376t-106 -226.5t-172.5 -111.5t-235.5 -30t-233 28.5t-167.5 108.5t-101.5 223.5t-34 373.5q0 232 35 376.5t105 227t172.5 112t235.5 29.5t233.5 -28t168 -108.5t102 -224t34.5 -374.5zM1107 709q0 204 -27 330t-80 195t-131.5 92.5t-182.5 23.5
q-103 0 -180 -22.5t-130.5 -91.5t-80.5 -194t-27 -329t27 -329.5t80.5 -194.5t130.5 -92.5t180 -23.5q104 0 182.5 22.5t131.5 91.5t80 194t27 328zM530 1686q0 -23 -4 -38.5t-13.5 -25.5t-26.5 -13.5t-42 -3.5q-26 0 -42 3.5t-26.5 13.5t-14 25.5t-3.5 38.5q0 46 17.5 64
t68.5 18t68.5 -18t17.5 -64zM1019 1686q0 -23 -3.5 -38.5t-14 -25.5t-27 -13.5t-42.5 -3.5q-25 0 -41.5 3.5t-26.5 13.5t-14 25.5t-4 38.5q0 46 18 64t68 18q51 0 69 -18t18 -64z" />
    <glyph glyph-name="multiply" unicode="&#xd7;" 
d="M472 587l-351 346l72 71l348 -348l350 350l71 -72l-351 -347l353 -349l-72 -72l-349 351l-352 -352l-72 71z" />
    <glyph glyph-name="Oslash" unicode="&#xd8;" horiz-adv-x="1382" 
d="M298 90q-30 33 -58 78.5t-49.5 116.5t-33.5 173t-12 248q0 232 35.5 377.5t105.5 227t173 111t238 29.5q107 0 172 -14.5t119 -41.5l99 191l93 -40l-106 -203q41 -41 71.5 -94.5t50.5 -129t31 -174t11 -229.5q0 -233 -36 -377t-106 -225.5t-173.5 -111.5t-237.5 -30
q-99 0 -170.5 14t-132.5 51l-103 -195l-91 38zM939 1294q-37 27 -94 43.5t-155 16.5q-104 0 -183 -23t-133 -92.5t-81.5 -195.5t-27.5 -330q0 -112 8 -194.5t21.5 -140.5t31 -98t34.5 -68zM429 137q53 -39 114 -53.5t147 -14.5q105 0 185 23t133.5 91.5t81 195t27.5 330.5
q0 106 -8 189t-21 144.5t-32 106t-42 76.5z" />
    <glyph glyph-name="Ugrave" unicode="&#xd9;" horiz-adv-x="1334" 
d="M289 1423v-900q0 -110 15.5 -194.5t57 -141t116 -85.5t192.5 -29t191.5 29t114.5 86.5t55 141.5t14 195v898h123v-891q0 -137 -24.5 -241.5t-83 -174.5t-155 -107t-242.5 -37t-241 34t-152 102t-81 170t-24 239v906h124zM443 1831l339 -180l-37 -78l-355 155z" />
    <glyph glyph-name="Uacute" unicode="&#xda;" horiz-adv-x="1334" 
d="M289 1423v-900q0 -110 15.5 -194.5t57 -141t116 -85.5t192.5 -29t191.5 29t114.5 86.5t55 141.5t14 195v898h123v-891q0 -137 -24.5 -241.5t-83 -174.5t-155 -107t-242.5 -37t-241 34t-152 102t-81 170t-24 239v906h124zM897 1831l51 -103l-353 -155l-39 78z" />
    <glyph glyph-name="Ucircumflex" unicode="&#xdb;" horiz-adv-x="1334" 
d="M289 1423v-900q0 -110 15.5 -194.5t57 -141t116 -85.5t192.5 -29t191.5 29t114.5 86.5t55 141.5t14 195v898h123v-891q0 -137 -24.5 -241.5t-83 -174.5t-155 -107t-242.5 -37t-241 34t-152 102t-81 170t-24 239v906h124zM671 1822l279 -168l-46 -78l-239 129l-234 -129
l-44 78z" />
    <glyph glyph-name="Udieresis" unicode="&#xdc;" horiz-adv-x="1334" 
d="M289 1423v-900q0 -110 15.5 -194.5t57 -141t116 -85.5t192.5 -29t191.5 29t114.5 86.5t55 141.5t14 195v898h123v-891q0 -137 -24.5 -241.5t-83 -174.5t-155 -107t-242.5 -37t-241 34t-152 102t-81 170t-24 239v906h124zM506 1686q0 -23 -4 -38.5t-13.5 -25.5
t-26.5 -13.5t-42 -3.5q-26 0 -42 3.5t-26.5 13.5t-14 25.5t-3.5 38.5q0 46 17.5 64t68.5 18t68.5 -18t17.5 -64zM995 1686q0 -23 -3.5 -38.5t-14 -25.5t-27 -13.5t-42.5 -3.5q-25 0 -41.5 3.5t-26.5 13.5t-14 25.5t-4 38.5q0 46 18 64t68 18q51 0 69 -18t18 -64z" />
    <glyph glyph-name="Yacute" unicode="&#xdd;" horiz-adv-x="1054" 
d="M465 570l-454 853h132l252 -464q22 -40 39 -74t33 -65.5t32 -62.5t33 -68h3q18 37 33.5 71t31 65.5t32.5 65t36 70.5l247 462h128l-455 -853v-570h-123v570zM740 1831l51 -103l-353 -155l-39 78z" />
    <glyph glyph-name="Thorn" unicode="&#xde;" horiz-adv-x="1081" 
d="M204 1423h123v-309h244q116 0 199.5 -15t137.5 -55.5t80.5 -113t26.5 -186.5q0 -110 -29 -188.5t-87 -127.5t-145.5 -72t-204.5 -23h-222v-333h-123v1423zM556 431q173 0 255 70t82 236q0 85 -18 139.5t-57.5 85.5t-102.5 42.5t-150 11.5h-238v-585h229z" />
    <glyph glyph-name="germandbls" unicode="&#xdf;" horiz-adv-x="1105" 
d="M196 1181q0 95 22.5 162t67 110.5t113 64.5t159.5 21q168 0 246.5 -67t78.5 -178q0 -46 -10 -81.5t-27.5 -67.5t-44 -64.5t-61.5 -70.5q-28 -30 -52 -55.5t-40.5 -49.5t-26.5 -51t-10 -58q0 -32 9.5 -55.5t33 -46t61 -47.5t94.5 -57q71 -41 118.5 -75.5t77 -69.5
t42.5 -76t13 -98q0 -134 -93.5 -211.5t-265.5 -77.5q-58 0 -120 8t-115 24l15 92q54 -15 112 -22.5t112 -7.5q121 0 179 52t58 135q0 38 -8 66t-31 55t-65 55.5t-111 68.5q-61 35 -105 63.5t-72.5 60t-42.5 67t-14 85.5q0 37 12 71.5t32.5 67.5t48.5 65.5t61 70.5
q30 31 51.5 57t35.5 51.5t21.5 53t7.5 60.5q0 74 -52.5 118t-158.5 44q-122 0 -178.5 -56.5t-56.5 -197.5v-1189h-121v1181z" />
    <glyph glyph-name="agrave" unicode="&#xe0;" horiz-adv-x="1016" 
d="M716 712q0 107 -52 158.5t-164 51.5q-75 0 -141.5 -9t-137.5 -26l-12 93q77 17 152.5 28t158.5 11t142.5 -19t98.5 -57.5t57.5 -94.5t18.5 -130v-718h-100l-10 98q-80 -47 -158.5 -82.5t-180.5 -35.5q-120 0 -197.5 67.5t-77.5 211.5q0 80 25.5 141t84 101.5t154 62
t236.5 21.5h103v127zM618 496q-115 0 -190.5 -14t-120 -41.5t-62.5 -71t-18 -101.5q0 -103 50 -148t130 -45q82 0 151.5 31.5t157.5 86.5v303h-98zM387 1516l234 -278l-63 -60l-257 258z" />
    <glyph glyph-name="aacute" unicode="&#xe1;" horiz-adv-x="1016" 
d="M716 712q0 107 -52 158.5t-164 51.5q-75 0 -141.5 -9t-137.5 -26l-12 93q77 17 152.5 28t158.5 11t142.5 -19t98.5 -57.5t57.5 -94.5t18.5 -130v-718h-100l-10 98q-80 -47 -158.5 -82.5t-180.5 -35.5q-120 0 -197.5 67.5t-77.5 211.5q0 80 25.5 141t84 101.5t154 62
t236.5 21.5h103v127zM618 496q-115 0 -190.5 -14t-120 -41.5t-62.5 -71t-18 -101.5q0 -103 50 -148t130 -45q82 0 151.5 31.5t157.5 86.5v303h-98zM675 1516l86 -80l-258 -258l-63 60z" />
    <glyph glyph-name="acircumflex" unicode="&#xe2;" horiz-adv-x="1016" 
d="M716 712q0 107 -52 158.5t-164 51.5q-75 0 -141.5 -9t-137.5 -26l-12 93q77 17 152.5 28t158.5 11t142.5 -19t98.5 -57.5t57.5 -94.5t18.5 -130v-718h-100l-10 98q-80 -47 -158.5 -82.5t-180.5 -35.5q-120 0 -197.5 67.5t-77.5 211.5q0 80 25.5 141t84 101.5t154 62
t236.5 21.5h103v127zM618 496q-115 0 -190.5 -14t-120 -41.5t-62.5 -71t-18 -101.5q0 -103 50 -148t130 -45q82 0 151.5 31.5t157.5 86.5v303h-98zM517 1506l261 -257l-63 -68l-200 190l-197 -188l-61 64z" />
    <glyph glyph-name="atilde" unicode="&#xe3;" horiz-adv-x="1016" 
d="M716 712q0 107 -52 158.5t-164 51.5q-75 0 -141.5 -9t-137.5 -26l-12 93q77 17 152.5 28t158.5 11t142.5 -19t98.5 -57.5t57.5 -94.5t18.5 -130v-718h-100l-10 98q-80 -47 -158.5 -82.5t-180.5 -35.5q-120 0 -197.5 67.5t-77.5 211.5q0 80 25.5 141t84 101.5t154 62
t236.5 21.5h103v127zM618 496q-115 0 -190.5 -14t-120 -41.5t-62.5 -71t-18 -101.5q0 -103 50 -148t130 -45q82 0 151.5 31.5t157.5 86.5v303h-98zM221 1276q13 31 30.5 58.5t40.5 49.5t52.5 34t65.5 12q38 0 69.5 -17.5t60 -38.5t55 -37.5t55.5 -16.5q39 0 64 30t46 75
l68 -44q-13 -31 -30.5 -59t-40.5 -49.5t-52.5 -34t-65.5 -12.5q-38 0 -69.5 17t-60.5 37.5t-55 38.5t-55 18q-39 0 -64 -30t-45 -75z" />
    <glyph glyph-name="adieresis" unicode="&#xe4;" horiz-adv-x="1016" 
d="M716 712q0 107 -52 158.5t-164 51.5q-75 0 -141.5 -9t-137.5 -26l-12 93q77 17 152.5 28t158.5 11t142.5 -19t98.5 -57.5t57.5 -94.5t18.5 -130v-718h-100l-10 98q-80 -47 -158.5 -82.5t-180.5 -35.5q-120 0 -197.5 67.5t-77.5 211.5q0 80 25.5 141t84 101.5t154 62
t236.5 21.5h103v127zM618 496q-115 0 -190.5 -14t-120 -41.5t-62.5 -71t-18 -101.5q0 -103 50 -148t130 -45q82 0 151.5 31.5t157.5 86.5v303h-98zM391 1338q0 -44 -16.5 -62t-68.5 -18q-51 0 -68 18t-17 62q0 45 17 63t68 18q50 0 67.5 -18t17.5 -63zM797 1338
q0 -44 -17 -62t-68 -18q-52 0 -69 18t-17 62q0 45 17 63t69 18q49 0 67 -18t18 -63z" />
    <glyph glyph-name="aring" unicode="&#xe5;" horiz-adv-x="1016" 
d="M716 712q0 107 -52 158.5t-164 51.5q-75 0 -141.5 -9t-137.5 -26l-12 93q77 17 152.5 28t158.5 11t142.5 -19t98.5 -57.5t57.5 -94.5t18.5 -130v-718h-100l-10 98q-80 -47 -158.5 -82.5t-180.5 -35.5q-120 0 -197.5 67.5t-77.5 211.5q0 80 25.5 141t84 101.5t154 62
t236.5 21.5h103v127zM618 496q-115 0 -190.5 -14t-120 -41.5t-62.5 -71t-18 -101.5q0 -103 50 -148t130 -45q82 0 151.5 31.5t157.5 86.5v303h-98zM728 1343q0 -43 -15.5 -80t-42.5 -63.5t-64.5 -42t-81.5 -15.5t-81.5 15.5t-64.5 42t-42 63.5t-15 80q0 44 15 81t42 64
t64.5 42t81.5 15t81.5 -15t64.5 -42t42.5 -64t15.5 -81zM639 1343q0 57 -30.5 91t-84.5 34t-84.5 -34t-30.5 -91q0 -56 30.5 -90.5t84.5 -34.5t84.5 34.5t30.5 90.5z" />
    <glyph glyph-name="ae" unicode="&#xe6;" horiz-adv-x="1613" 
d="M616 493q-115 0 -190.5 -13.5t-120.5 -41t-62.5 -70t-17.5 -100.5q0 -103 50 -148t130 -45t154.5 29t154.5 106v283h-98zM714 712q0 107 -52 158.5t-164 51.5q-75 0 -141.5 -9t-137.5 -26l-12 93q77 17 152.5 28t158.5 11q67 0 115 -14t81 -36t51.5 -52t30.5 -64
q15 32 38.5 64t62 56t93.5 39t136 15q93 0 160.5 -20.5t111 -73.5t64 -144t20.5 -231q0 -18 -0.5 -35t-1.5 -35h-645q1 -135 18.5 -215t55 -124t94 -58t139.5 -14q78 0 143.5 10.5t132.5 26.5l13 -94q-74 -17 -151 -28t-164 -11q-83 0 -138.5 12.5t-94.5 34t-63.5 50.5
t-44.5 63q-52 -45 -99 -75.5t-93 -49t-94 -27.5t-103 -9q-120 0 -197.5 67.5t-77.5 211.5q0 80 25.5 140t84 101t154 61t236.5 20h103v131zM1366 577q-1 110 -16.5 179t-46 108t-76.5 53t-110 14q-63 0 -113.5 -15t-86.5 -54t-56.5 -108t-23.5 -177h529z" />
    <glyph glyph-name="ccedilla" unicode="&#xe7;" horiz-adv-x="850" 
d="M764 15q-26 -7 -55 -13t-59.5 -11t-58.5 -7.5t-54 -2.5h-25l-11 -98q95 -4 144 -41t49 -114q0 -83 -61.5 -133t-171.5 -50q-67 0 -129 15l10 75q29 -6 57.5 -9t61.5 -3q68 0 99 26t31 72q0 45 -29.5 68t-108.5 23h-48l19 177q-66 10 -120 37.5t-92.5 84.5t-59.5 150.5
t-21 235.5q0 157 30.5 258t85 160t130.5 81.5t169 22.5q60 0 119 -9.5t108 -22.5l-13 -93q-50 13 -103 20.5t-110 7.5q-66 0 -120 -15t-92.5 -60.5t-60 -128.5t-21.5 -217q0 -133 18.5 -215t55 -129t91.5 -63.5t129 -16.5q46 0 100 8.5t104 22.5z" />
    <glyph glyph-name="egrave" unicode="&#xe8;" horiz-adv-x="1031" 
d="M848 20q-74 -17 -149.5 -28t-155.5 -11q-94 0 -169.5 19t-129.5 74.5t-83.5 156.5t-29.5 266q0 159 29.5 261t82.5 162.5t130 83.5t170 23q94 0 161 -20.5t110.5 -73.5t64 -144t20.5 -231q0 -18 -0.5 -34t-0.5 -39h-645q0 -135 20.5 -215.5t60 -122.5t98.5 -56t136 -14
q73 0 136.5 10.5t131.5 26.5zM784 574q-2 111 -17 181t-46 109t-76.5 53t-110.5 14q-63 0 -113.5 -15t-86.5 -55t-56 -110t-24 -177h530zM383 1516l234 -278l-63 -60l-257 258z" />
    <glyph glyph-name="eacute" unicode="&#xe9;" horiz-adv-x="1031" 
d="M848 20q-74 -17 -149.5 -28t-155.5 -11q-94 0 -169.5 19t-129.5 74.5t-83.5 156.5t-29.5 266q0 159 29.5 261t82.5 162.5t130 83.5t170 23q94 0 161 -20.5t110.5 -73.5t64 -144t20.5 -231q0 -18 -0.5 -34t-0.5 -39h-645q0 -135 20.5 -215.5t60 -122.5t98.5 -56t136 -14
q73 0 136.5 10.5t131.5 26.5zM784 574q-2 111 -17 181t-46 109t-76.5 53t-110.5 14q-63 0 -113.5 -15t-86.5 -55t-56 -110t-24 -177h530zM672 1516l86 -80l-258 -258l-63 60z" />
    <glyph glyph-name="ecircumflex" unicode="&#xea;" horiz-adv-x="1031" 
d="M848 20q-74 -17 -149.5 -28t-155.5 -11q-94 0 -169.5 19t-129.5 74.5t-83.5 156.5t-29.5 266q0 159 29.5 261t82.5 162.5t130 83.5t170 23q94 0 161 -20.5t110.5 -73.5t64 -144t20.5 -231q0 -18 -0.5 -34t-0.5 -39h-645q0 -135 20.5 -215.5t60 -122.5t98.5 -56t136 -14
q73 0 136.5 10.5t131.5 26.5zM784 574q-2 111 -17 181t-46 109t-76.5 53t-110.5 14q-63 0 -113.5 -15t-86.5 -55t-56 -110t-24 -177h530zM520 1506l261 -257l-63 -68l-200 190l-197 -188l-61 64z" />
    <glyph glyph-name="edieresis" unicode="&#xeb;" horiz-adv-x="1031" 
d="M848 20q-74 -17 -149.5 -28t-155.5 -11q-94 0 -169.5 19t-129.5 74.5t-83.5 156.5t-29.5 266q0 159 29.5 261t82.5 162.5t130 83.5t170 23q94 0 161 -20.5t110.5 -73.5t64 -144t20.5 -231q0 -18 -0.5 -34t-0.5 -39h-645q0 -135 20.5 -215.5t60 -122.5t98.5 -56t136 -14
q73 0 136.5 10.5t131.5 26.5zM784 574q-2 111 -17 181t-46 109t-76.5 53t-110.5 14q-63 0 -113.5 -15t-86.5 -55t-56 -110t-24 -177h530zM400 1338q0 -44 -16.5 -62t-68.5 -18q-51 0 -68 18t-17 62q0 45 17 63t68 18q50 0 67.5 -18t17.5 -63zM806 1338q0 -44 -17 -62
t-68 -18q-52 0 -69 18t-17 62q0 45 17 63t69 18q49 0 67 -18t18 -63z" />
    <glyph glyph-name="igrave" unicode="&#xec;" horiz-adv-x="513" 
d="M196 1000h121v-1000h-121v1000zM149 1516l234 -278l-63 -60l-257 258z" />
    <glyph glyph-name="iacute" unicode="&#xed;" horiz-adv-x="513" 
d="M196 1000h121v-1000h-121v1000zM371 1516l86 -80l-258 -258l-63 60z" />
    <glyph glyph-name="icircumflex" unicode="&#xee;" horiz-adv-x="513" 
d="M196 1000h121v-1000h-121v1000zM256 1506l261 -257l-63 -68l-200 190l-197 -188l-61 64z" />
    <glyph glyph-name="idieresis" unicode="&#xef;" horiz-adv-x="513" 
d="M196 1000h121v-1000h-121v1000zM176 1338q0 -44 -17 -62t-68 -18t-68 18t-17 62q0 45 17 63t68 18q49 0 67 -18t18 -63zM510 1338q0 -44 -17.5 -62t-68.5 -18t-67.5 18t-16.5 62q0 45 16.5 63t67.5 18q49 0 67.5 -18t18.5 -63z" />
    <glyph glyph-name="eth" unicode="&#xf0;" horiz-adv-x="1089" 
d="M567 1352q-21 27 -56 67.5t-63 69.5l98 54q36 -34 68.5 -70.5t57.5 -67.5l196 108l54 -75l-199 -109q117 -166 183.5 -379.5t66.5 -440.5q0 -155 -28.5 -259t-82 -164.5t-133 -86.5t-179.5 -26q-99 0 -177.5 23.5t-132 82.5t-81.5 160.5t-28 256.5q0 148 28 248t80 160.5
t126 87t166 26.5q74 0 140.5 -17.5t109.5 -40.5l2 2q-30 82 -70 162t-91 153l-201 -109l-54 75zM854 498q0 55 -1.5 98.5t-7.5 84t-15 80t-22 85.5q-55 32 -123 53.5t-143 21.5q-67 0 -121 -18t-91 -65.5t-57.5 -129t-20.5 -209.5q0 -135 20 -218.5t59 -130t96 -63.5
t129 -17q71 0 126.5 17.5t93.5 64.5t58 130.5t20 215.5z" />
    <glyph glyph-name="ntilde" unicode="&#xf1;" horiz-adv-x="1180" 
d="M196 1000h100l10 -110q97 56 195.5 93t196.5 37q155 0 229 -77.5t74 -251.5v-691h-122v674q0 137 -49 192t-158 55q-78 0 -166 -33.5t-189 -95.5v-792h-121v1000zM295 1276q13 31 30.5 58.5t40.5 49.5t52.5 34t65.5 12q38 0 69.5 -17.5t60 -38.5t55 -37.5t55.5 -16.5
q39 0 64 30t46 75l68 -44q-13 -31 -30.5 -59t-40.5 -49.5t-52.5 -34t-65.5 -12.5q-38 0 -69.5 17t-60.5 37.5t-55 38.5t-55 18q-39 0 -64 -30t-45 -75z" />
    <glyph glyph-name="ograve" unicode="&#xf2;" horiz-adv-x="1107" 
d="M975 503q0 -159 -28.5 -261t-83.5 -162.5t-134 -84t-178 -23.5q-100 0 -178.5 22t-132 81t-81.5 161t-28 261t29 261t84 162t133.5 83.5t178.5 23.5t178.5 -22t132 -80.5t81 -160.5t27.5 -261zM854 499q0 136 -20 221t-58.5 131.5t-95.5 62.5t-128 16q-72 0 -128 -15
t-94 -61.5t-57.5 -130.5t-19.5 -221t19.5 -222t58.5 -131t95.5 -63t128.5 -17t128 16t93.5 62t57.5 130t20 222zM408 1516l234 -278l-63 -60l-257 258z" />
    <glyph glyph-name="oacute" unicode="&#xf3;" horiz-adv-x="1107" 
d="M975 503q0 -159 -28.5 -261t-83.5 -162.5t-134 -84t-178 -23.5q-100 0 -178.5 22t-132 81t-81.5 161t-28 261t29 261t84 162t133.5 83.5t178.5 23.5t178.5 -22t132 -80.5t81 -160.5t27.5 -261zM854 499q0 136 -20 221t-58.5 131.5t-95.5 62.5t-128 16q-72 0 -128 -15
t-94 -61.5t-57.5 -130.5t-19.5 -221t19.5 -222t58.5 -131t95.5 -63t128.5 -17t128 16t93.5 62t57.5 130t20 222zM694 1516l86 -80l-258 -258l-63 60z" />
    <glyph glyph-name="ocircumflex" unicode="&#xf4;" horiz-adv-x="1107" 
d="M975 503q0 -159 -28.5 -261t-83.5 -162.5t-134 -84t-178 -23.5q-100 0 -178.5 22t-132 81t-81.5 161t-28 261t29 261t84 162t133.5 83.5t178.5 23.5t178.5 -22t132 -80.5t81 -160.5t27.5 -261zM854 499q0 136 -20 221t-58.5 131.5t-95.5 62.5t-128 16q-72 0 -128 -15
t-94 -61.5t-57.5 -130.5t-19.5 -221t19.5 -222t58.5 -131t95.5 -63t128.5 -17t128 16t93.5 62t57.5 130t20 222zM550 1506l261 -257l-63 -68l-200 190l-197 -188l-61 64z" />
    <glyph glyph-name="otilde" unicode="&#xf5;" horiz-adv-x="1107" 
d="M975 503q0 -159 -28.5 -261t-83.5 -162.5t-134 -84t-178 -23.5q-100 0 -178.5 22t-132 81t-81.5 161t-28 261t29 261t84 162t133.5 83.5t178.5 23.5t178.5 -22t132 -80.5t81 -160.5t27.5 -261zM854 499q0 136 -20 221t-58.5 131.5t-95.5 62.5t-128 16q-72 0 -128 -15
t-94 -61.5t-57.5 -130.5t-19.5 -221t19.5 -222t58.5 -131t95.5 -63t128.5 -17t128 16t93.5 62t57.5 130t20 222zM238 1276q13 31 30.5 58.5t40.5 49.5t52.5 34t65.5 12q38 0 69.5 -17.5t60 -38.5t55 -37.5t55.5 -16.5q39 0 64 30t46 75l68 -44q-13 -31 -30.5 -59
t-40.5 -49.5t-52.5 -34t-65.5 -12.5q-38 0 -69.5 17t-60.5 37.5t-55 38.5t-55 18q-39 0 -64 -30t-45 -75z" />
    <glyph glyph-name="odieresis" unicode="&#xf6;" horiz-adv-x="1107" 
d="M975 503q0 -159 -28.5 -261t-83.5 -162.5t-134 -84t-178 -23.5q-100 0 -178.5 22t-132 81t-81.5 161t-28 261t29 261t84 162t133.5 83.5t178.5 23.5t178.5 -22t132 -80.5t81 -160.5t27.5 -261zM854 499q0 136 -20 221t-58.5 131.5t-95.5 62.5t-128 16q-72 0 -128 -15
t-94 -61.5t-57.5 -130.5t-19.5 -221t19.5 -222t58.5 -131t95.5 -63t128.5 -17t128 16t93.5 62t57.5 130t20 222zM430 1338q0 -44 -16.5 -62t-68.5 -18q-51 0 -68 18t-17 62q0 45 17 63t68 18q50 0 67.5 -18t17.5 -63zM836 1338q0 -44 -17 -62t-68 -18q-52 0 -69 18t-17 62
q0 45 17 63t69 18q49 0 67 -18t18 -63z" />
    <glyph glyph-name="divide" unicode="&#xf7;" 
d="M94 634h897v-96h-897v96zM629 295q0 -25 -4 -42t-14 -26t-27 -13t-42 -4q-27 0 -43.5 4t-27 13t-14.5 26t-4 42q0 26 4 41t14.5 25.5t27 14.5t43.5 4q25 0 42 -4t27 -14t14 -25.5t4 -41.5zM629 878q0 -24 -4 -40.5t-14 -26.5t-27 -14t-42 -4q-27 0 -43.5 4t-27 14
t-14.5 26.5t-4 40.5q0 25 4 40.5t14.5 26t27 14.5t43.5 4q25 0 42 -4t27 -14t14 -26.5t4 -40.5z" />
    <glyph glyph-name="oslash" unicode="&#xf8;" horiz-adv-x="1114" 
d="M259 57q-22 25 -45 56t-41 81.5t-30 123.5t-12 179q0 159 29.5 261t85 162t135 83.5t178.5 23.5q84 0 131.5 -11.5t82.5 -29.5l80 149l86 -37l-84 -156q28 -29 51.5 -66t40.5 -89.5t26 -121t9 -162.5q0 -159 -29 -261t-84.5 -162.5t-135 -84t-179.5 -23.5
q-55 0 -108.5 7.5t-105.5 36.5l-91 -169l-83 37zM385 102q38 -25 86 -31.5t89 -6.5q73 0 131 16t97.5 62.5t60.5 131.5t21 225q0 130 -17.5 207.5t-52.5 132.5zM728 898q-29 19 -69 28.5t-105 9.5q-74 0 -131.5 -15.5t-97 -62.5t-60.5 -132t-21 -224q0 -81 7 -137.5
t17.5 -96t23 -65t22.5 -43.5z" />
    <glyph glyph-name="ugrave" unicode="&#xf9;" horiz-adv-x="1180" 
d="M299 1000v-674q0 -137 50 -192t159 -55q78 0 165.5 34t189.5 95v792h121v-1000h-101l-9 111q-97 -57 -195.5 -94t-196.5 -37q-156 0 -229.5 77.5t-73.5 251.5v691h120zM442 1516l234 -278l-63 -60l-257 258z" />
    <glyph glyph-name="uacute" unicode="&#xfa;" horiz-adv-x="1180" 
d="M299 1000v-674q0 -137 50 -192t159 -55q78 0 165.5 34t189.5 95v792h121v-1000h-101l-9 111q-97 -57 -195.5 -94t-196.5 -37q-156 0 -229.5 77.5t-73.5 251.5v691h120zM750 1516l86 -80l-258 -258l-63 60z" />
    <glyph glyph-name="ucircumflex" unicode="&#xfb;" horiz-adv-x="1180" 
d="M299 1000v-674q0 -137 50 -192t159 -55q78 0 165.5 34t189.5 95v792h121v-1000h-101l-9 111q-97 -57 -195.5 -94t-196.5 -37q-156 0 -229.5 77.5t-73.5 251.5v691h120zM579 1506l261 -257l-63 -68l-200 190l-197 -188l-61 64z" />
    <glyph glyph-name="udieresis" unicode="&#xfc;" horiz-adv-x="1180" 
d="M299 1000v-674q0 -137 50 -192t159 -55q78 0 165.5 34t189.5 95v792h121v-1000h-101l-9 111q-97 -57 -195.5 -94t-196.5 -37q-156 0 -229.5 77.5t-73.5 251.5v691h120zM468 1338q0 -44 -16.5 -62t-68.5 -18q-51 0 -68 18t-17 62q0 45 17 63t68 18q50 0 67.5 -18t17.5 -63
zM874 1338q0 -44 -17 -62t-68 -18q-52 0 -69 18t-17 62q0 45 17 63t69 18q49 0 67 -18t18 -63z" />
    <glyph glyph-name="yacute" unicode="&#xfd;" horiz-adv-x="952" 
d="M38 1000h129l200 -558q17 -51 30.5 -92.5t27 -80t25.5 -80t27 -89.5h3q14 50 26.5 91.5t26.5 81t27 80t31 89.5l200 558h125l-427 -1164q-32 -89 -64 -146.5t-69 -90t-82.5 -45t-101.5 -12.5q-42 0 -74.5 4.5t-57.5 10.5l12 94q25 -5 54.5 -8.5t51.5 -3.5q32 0 61.5 6.5
t56.5 28t52 62.5t50 107l58 157h-38zM644 1516l86 -80l-258 -258l-63 60z" />
    <glyph glyph-name="thorn" unicode="&#xfe;" horiz-adv-x="1128" 
d="M196 1511h121v-358q0 -57 -1 -120.5t-6 -133.5l2 -2q83 51 165 87t171 36q83 0 149 -23t112.5 -81.5t70 -157t23.5 -248.5q0 -151 -35.5 -252.5t-93 -163t-135 -88t-159.5 -26.5q-75 0 -140 21.5t-128 53.5l-2 -2q2 -34 3.5 -67t2.5 -64.5t1 -61.5v-60v-240h-121v1951z
M317 158q67 -37 127 -59t129 -22q58 0 114 19t99 67.5t69.5 131t26.5 210.5q0 127 -17.5 207.5t-50.5 126.5t-81 64t-108 18q-67 0 -140 -32t-168 -93v-638z" />
    <glyph glyph-name="ydieresis" unicode="&#xff;" horiz-adv-x="952" 
d="M38 1000h129l200 -558q17 -51 30.5 -92.5t27 -80t25.5 -80t27 -89.5h3q14 50 26.5 91.5t26.5 81t27 80t31 89.5l200 558h125l-427 -1164q-32 -89 -64 -146.5t-69 -90t-82.5 -45t-101.5 -12.5q-42 0 -74.5 4.5t-57.5 10.5l12 94q25 -5 54.5 -8.5t51.5 -3.5q32 0 61.5 6.5
t56.5 28t52 62.5t50 107l58 157h-38zM362 1338q0 -44 -16.5 -62t-68.5 -18q-51 0 -68 18t-17 62q0 45 17 63t68 18q50 0 67.5 -18t17.5 -63zM768 1338q0 -44 -17 -62t-68 -18q-52 0 -69 18t-17 62q0 45 17 63t69 18q49 0 67 -18t18 -63z" />
    <glyph glyph-name="OE" unicode="&#x152;" horiz-adv-x="1744" 
d="M891 1327q-46 13 -90.5 18t-114.5 5q-103 0 -180 -22.5t-130.5 -91.5t-80.5 -194t-27 -329t27 -329.5t80.5 -194.5t130.5 -92.5t180 -23.5q71 0 115 6t90 17v1231zM939 0q-49 -11 -114.5 -19.5t-143.5 -8.5q-133 0 -233 28.5t-167.5 107.5t-101.5 222.5t-34 374.5
t35 376.5t105 228t172.5 112t235.5 29.5q80 0 140.5 -6.5t117.5 -21.5h680v-99h-617v-535h570v-98h-570v-591h617v-100h-692z" />
    <glyph glyph-name="oe" unicode="&#x153;" horiz-adv-x="1753" 
d="M854 501q0 136 -20 220t-58.5 130.5t-95.5 62.5t-128 16q-72 0 -128 -15t-94 -61.5t-57.5 -130.5t-19.5 -221t19.5 -222t58.5 -131t95.5 -63t128.5 -17t128 16t93.5 63t57.5 131t20 222zM1571 20q-75 -17 -150 -28t-156 -11q-85 0 -144 13.5t-99.5 40t-66 64.5t-44.5 86
q-20 -48 -46 -87t-68 -67t-102 -43.5t-144 -15.5q-100 0 -178.5 22t-132 81t-81.5 161t-28 261t29 261t84 162t133.5 83.5t178.5 23.5q80 0 139 -12.5t102 -38t71 -65.5t48 -95q20 55 50.5 95t73.5 65.5t98 38t127 12.5q94 0 161 -20.5t110.5 -73.5t64 -144t20.5 -231
q0 -18 -0.5 -34t-0.5 -39h-645q3 -135 23.5 -216t60 -123t97 -55.5t134.5 -13.5q73 0 136.5 10.5t132.5 26.5zM1506 574q-2 111 -17 181t-45.5 109t-76.5 53t-110 14t-114 -15t-86 -55t-56 -110t-24 -177h529z" />
    <glyph glyph-name="Ydieresis" unicode="&#x178;" horiz-adv-x="1054" 
d="M465 570l-454 853h132l252 -464q22 -40 39 -74t33 -65.5t32 -62.5t33 -68h3q18 37 33.5 71t31 65.5t32.5 65t36 70.5l247 462h128l-455 -853v-570h-123v570zM371 1686q0 -23 -4 -38.5t-13.5 -25.5t-26.5 -13.5t-42 -3.5q-26 0 -42 3.5t-26.5 13.5t-14 25.5t-3.5 38.5
q0 46 17.5 64t68.5 18t68.5 -18t17.5 -64zM860 1686q0 -23 -3.5 -38.5t-14 -25.5t-27 -13.5t-42.5 -3.5q-25 0 -41.5 3.5t-26.5 13.5t-14 25.5t-4 38.5q0 46 18 64t68 18q51 0 69 -18t18 -64z" />
    <glyph glyph-name="apostrophe" unicode="&#x2bc;" horiz-adv-x="418" 
d="M176 1181q26 43 53 90t50 85q-18 6 -28.5 22.5t-10.5 52.5q0 44 15.5 60t63.5 16q49 0 65 -16t16 -60q0 -26 -4 -44.5t-16 -37.5q-27 -46 -67 -97t-86 -104z" />
    <glyph glyph-name="tilde" unicode="&#x2dc;" horiz-adv-x="1221" 
d="M306 1276q13 31 30.5 58.5t40.5 49.5t52.5 34t65.5 12q38 0 69.5 -17.5t60 -38.5t55 -37.5t55.5 -16.5q39 0 64 30t46 75l68 -44q-13 -31 -30.5 -59t-40.5 -49.5t-52.5 -34t-65.5 -12.5q-38 0 -69.5 17t-60.5 37.5t-55 38.5t-55 18q-39 0 -64 -30t-45 -75z" />
    <glyph glyph-name="endash" unicode="&#x2013;" 
d="M0 589h1085v-103h-1085v103z" />
    <glyph glyph-name="emdash" unicode="&#x2014;" horiz-adv-x="2048" 
d="M139 589h1770v-103h-1770v103z" />
    <glyph glyph-name="quoteleft" unicode="&#x2018;" horiz-adv-x="423" 
d="M379 1523q-39 -69 -65.5 -117t-52.5 -102q19 -7 29.5 -24.5t10.5 -57.5q0 -51 -19 -69.5t-72 -18.5q-28 0 -45.5 4t-27.5 15t-14 27t-4 42q0 29 3 48.5t16 39.5q31 55 82.5 120.5t104.5 127.5z" />
    <glyph glyph-name="quoteright" unicode="&#x2019;" horiz-adv-x="423" 
d="M88 1144q19 33 35 61t30.5 54t27 51t26.5 51q-10 4 -17.5 10t-12.5 15.5t-7.5 23t-2.5 34.5q0 51 18 69.5t73 18.5q27 0 45 -4t28 -15t14 -27.5t4 -41.5q0 -28 -3.5 -48t-16.5 -40q-30 -56 -82 -121t-105 -127z" />
    <glyph glyph-name="quotedblleft" unicode="&#x201c;" horiz-adv-x="740" 
d="M380 1523q-40 -69 -66.5 -117t-52.5 -102q19 -7 29.5 -24.5t10.5 -57.5q0 -51 -18.5 -69.5t-72.5 -18.5q-27 0 -45 4t-28 15t-13.5 27t-3.5 42q0 29 3 48.5t15 39.5q32 55 83.5 120.5t104.5 127.5zM699 1523q-41 -69 -67 -117t-52 -102q19 -7 29 -24.5t10 -57.5
q0 -51 -18.5 -69.5t-71.5 -18.5q-27 0 -45.5 4t-28 15t-13.5 27t-4 42q0 29 3.5 48.5t15.5 39.5q31 55 83 120.5t105 127.5z" />
    <glyph glyph-name="quotedblright" unicode="&#x201d;" horiz-adv-x="740" 
d="M88 1144q19 33 35 61t30.5 54t27 51t26.5 51q-10 4 -17.5 10t-12.5 15.5t-7.5 23t-2.5 34.5q0 51 18 69.5t73 18.5q27 0 45 -4t28 -15t14 -27.5t4 -41.5q0 -28 -3.5 -48t-16.5 -40q-30 -56 -82 -121t-105 -127zM406 1144q20 33 35.5 61t30.5 54t27.5 51t26.5 51
q-11 4 -18 10t-12 15.5t-7.5 23t-2.5 34.5q0 51 18 69.5t73 18.5q26 0 44.5 -4t28 -15t13.5 -27.5t4 -41.5q0 -28 -3 -48t-16 -40q-31 -56 -83 -121t-105 -127z" />
    <glyph glyph-name="quotedblbase" unicode="&#x201e;" horiz-adv-x="764" 
d="M68 -223q19 34 35 61.5t31 53.5t27 51t27 52q-12 3 -18.5 9t-11.5 15.5t-7.5 23t-2.5 34.5q0 51 17.5 69.5t73.5 18.5q26 0 44.5 -4t28 -14.5t13.5 -27.5t4 -42q0 -28 -3.5 -48t-15.5 -39q-31 -56 -83 -121.5t-105 -127.5zM387 -223q19 34 35 61.5t30.5 53.5t27 51
t26.5 52q-11 3 -18 9t-11.5 15.5t-7 23t-2.5 34.5q0 51 17 69.5t73 18.5q27 0 45.5 -4t28 -14.5t13 -27.5t3.5 -42q0 -28 -3 -48t-15 -39q-32 -56 -83.5 -121.5t-104.5 -127.5z" />
    <glyph glyph-name="bullet" unicode="&#x2022;" horiz-adv-x="783" 
d="M542 742q0 -43 -8 -71t-25.5 -46t-45.5 -25.5t-71 -7.5t-71 7.5t-46 25.5t-25.5 46t-7.5 71t7.5 70.5t25.5 46t46 25.5t71 7t71 -7t45.5 -25.5t25.5 -46t8 -70.5z" />
    <glyph glyph-name="ellipsis" unicode="&#x2026;" horiz-adv-x="1360" 
d="M320 76q0 -27 -3.5 -44t-14.5 -28t-29 -15t-47 -4q-28 0 -46.5 4t-29.5 15t-14.5 28t-3.5 44q0 26 3.5 44t14.5 29t29.5 15t46.5 4q29 0 47 -4t29 -15t14.5 -29t3.5 -44zM774 76q0 -27 -4 -44t-14 -28t-29 -15t-48 -4q-27 0 -46 4t-29 15t-14.5 28t-4.5 44q0 26 4.5 44
t14.5 29t29 15t46 4q29 0 48 -4t29 -15t14 -29t4 -44zM1227 76q0 -27 -4 -44t-14 -28t-29 -15t-47 -4t-47 4t-29 15t-14 28t-4 44q0 26 4 44t14 29t29 15t47 4t47 -4t29 -15t14 -29t4 -44z" />
    <glyph glyph-name="guilsinglleft" unicode="&#x2039;" horiz-adv-x="552" 
d="M78 499l284 440l92 -50l-234 -388l236 -391l-94 -51z" />
    <glyph glyph-name="guilsinglright" unicode="&#x203a;" horiz-adv-x="552" 
d="M332 499l-234 390l92 50l284 -441l-284 -439l-94 51z" />
    <glyph glyph-name="Euro" unicode="&#x20ac;" 
d="M238 920q16 158 58.5 259.5t108 161t152.5 83t194 23.5q81 0 149 -11t124 -27l-17 -96q-29 8 -59.5 14.5t-63 11t-66.5 7t-70 2.5q-77 0 -143 -18t-116 -65t-83.5 -130.5t-45.5 -214.5h480v-92h-489q-1 -15 -1 -28.5t-0.5 -27t-1 -28t-0.5 -30.5q0 -28 1 -57.5t2 -55.5
h489v-92h-480q10 -134 42.5 -218t82.5 -132t117 -66t146 -18q35 0 68.5 3t66 8.5t64 13t64.5 16.5l14 -98q-65 -17 -135 -29.5t-152 -12.5q-108 0 -195.5 22t-151.5 81.5t-103 163t-51 266.5h-165v92h159q-2 26 -2.5 54t-0.5 54q0 16 0.5 31t0.5 30t0.5 29t1.5 29h-159v92
h166z" />
    <glyph glyph-name="trademark" unicode="&#x2122;" horiz-adv-x="1607" 
d="M241 1341h-235v82h559v-82h-222v-628h-102v628zM723 1423h159l123 -415l62 -226l65 226l123 415h156l65 -710h-102l-40 461l-10 174l-48 -169l-139 -466h-140l-140 459l-50 176l-10 -174l-40 -461h-97z" />
    <glyph glyph-name="dotlessi" horiz-adv-x="513" 
d="M196 1000h121v-1000h-121v1000z" />
    <glyph glyph-name="grave.cap" horiz-adv-x="798" 
d="M260 1831l339 -180l-37 -78l-355 155z" />
    <glyph glyph-name="acute.cap" horiz-adv-x="787" 
d="M548 1831l51 -103l-353 -155l-39 78z" />
    <glyph glyph-name="circumflex" horiz-adv-x="1068" 
d="M544 1506l261 -257l-63 -68l-200 190l-197 -188l-61 64z" />
    <glyph glyph-name="circumflex.cap" horiz-adv-x="1068" 
d="M549 1822l279 -168l-46 -78l-239 129l-234 -129l-44 78z" />
    <glyph glyph-name="dieresis.narrow" horiz-adv-x="1079" 
d="M458 1338q0 -44 -17 -62t-68 -18t-68 18t-17 62q0 45 17 63t68 18q49 0 67 -18t18 -63zM792 1338q0 -44 -17.5 -62t-68.5 -18t-67.5 18t-16.5 62q0 45 16.5 63t67.5 18q49 0 67.5 -18t18.5 -63z" />
    <glyph glyph-name="dieresis.cap" horiz-adv-x="1078" 
d="M376 1686q0 -23 -4 -38.5t-13.5 -25.5t-26.5 -13.5t-42 -3.5q-26 0 -42 3.5t-26.5 13.5t-14 25.5t-3.5 38.5q0 46 17.5 64t68.5 18t68.5 -18t17.5 -64zM865 1686q0 -23 -3.5 -38.5t-14 -25.5t-27 -13.5t-42.5 -3.5q-25 0 -41.5 3.5t-26.5 13.5t-14 25.5t-4 38.5
q0 46 18 64t68 18q51 0 69 -18t18 -64z" />
    <glyph glyph-name="dieresis.narrow.cap" horiz-adv-x="1078" 
d="M431 1686q0 -45 -18 -63t-69 -18t-68.5 18t-17.5 63q0 46 17.5 64t68.5 18t69 -18t18 -64zM810 1686q0 -45 -17.5 -63t-67.5 -18q-51 0 -69 18t-18 63q0 46 18 64t69 18q50 0 67.5 -18t17.5 -64z" />
    <glyph glyph-name="tilde.cap" horiz-adv-x="1221" 
d="M289 1655q32 46 80 79t120 33q37 0 69 -12.5t60.5 -26t55 -25.5t58.5 -12q44 0 73.5 20.5t56.5 51.5l61 -55q-32 -46 -80 -79t-119 -33q-38 0 -69.5 12t-60.5 26t-55.5 26t-58.5 12q-43 0 -73 -21t-57 -51z" />
    <glyph glyph-name="ring" horiz-adv-x="799" 
d="M672 1343q0 -43 -15.5 -80t-42.5 -63.5t-64.5 -42t-81.5 -15.5t-81.5 15.5t-64.5 42t-42 63.5t-15 80q0 44 15 81t42 64t64.5 42t81.5 15t81.5 -15t64.5 -42t42.5 -64t15.5 -81zM583 1343q0 57 -30.5 91t-84.5 34t-84.5 -34t-30.5 -91q0 -56 30.5 -90.5t84.5 -34.5
t84.5 34.5t30.5 90.5z" />
    <glyph glyph-name="ring.cap" horiz-adv-x="800" 
d="M676 1692q0 -41 -15.5 -76.5t-42.5 -61t-65.5 -40t-84.5 -14.5t-84.5 14.5t-65.5 40t-42 61t-15 76.5q0 84 57.5 138t149.5 54q45 0 83.5 -14t66 -40t43 -61t15.5 -77zM587 1692q0 53 -31.5 84.5t-87.5 31.5t-87.5 -31.5t-31.5 -84.5t31.5 -84t87.5 -31t87.5 31t31.5 84z
" />
    <glyph glyph-name="zeroinferior" horiz-adv-x="679" 
d="M601 358q0 -111 -17 -184t-51.5 -115.5t-83.5 -59t-110 -16.5q-63 0 -111 15.5t-81.5 58t-51 114.5t-17.5 183q0 112 18.5 184.5t52.5 115t82.5 59.5t112.5 17q61 0 109.5 -16t81 -58.5t49.5 -114t17 -183.5zM498 354q0 93 -11 150t-31.5 89t-49.5 43.5t-64 11.5
q-38 0 -68 -10.5t-50.5 -42t-31 -88t-10.5 -149.5q0 -92 10.5 -149.5t32 -89t50.5 -43t67 -11.5q37 0 66 10.5t49 42t30.5 88t10.5 148.5z" />
    <glyph glyph-name="oneinferior" horiz-adv-x="420" 
d="M190 595l-136 -75l-38 67l192 126h83v-713h-101v595z" />
    <glyph glyph-name="twoinferior" horiz-adv-x="556" 
d="M43 70l176 194q69 75 106.5 135t37.5 119q0 58 -35 89.5t-96 31.5q-39 0 -73 -5.5t-79 -17.5l-12 82q50 14 95 20t95 6q104 0 162 -51t58 -137q0 -87 -46.5 -156.5t-124.5 -151.5l-135 -141h322v-87h-451v70z" />
    <glyph glyph-name="threeinferior" horiz-adv-x="534" 
d="M50 87q37 -8 69.5 -12t67.5 -4q88 0 129 35t41 105q0 30 -10 53.5t-34.5 40t-67 25.5t-110.5 9v79q103 0 153.5 35.5t50.5 89.5q0 53 -32 76t-95 23q-35 0 -67.5 -4.5t-68.5 -14.5l-13 79q42 11 83.5 16.5t83.5 5.5q108 0 162 -44t54 -123q0 -65 -39 -108t-91 -62
q59 -10 104.5 -52t45.5 -117q0 -108 -69 -168.5t-196 -60.5q-47 0 -84 4t-78 12z" />
    <glyph glyph-name="fourinferior" horiz-adv-x="570" 
d="M30 228l284 485h138v-476h92v-86h-92v-151h-101v151h-321v77zM351 237v376l-220 -376h220z" />
    <glyph glyph-name="fraction" horiz-adv-x="1057" 
d="M967 1456l77 -49l-951 -1440l-78 49z" />
    </font>
</defs>
</svg>
