<?xml version="1.0" standalone="no"?>
<!DOCTYPE svg PUBLIC "-//W3C//DTD SVG 1.1//EN" "http://www.w3.org/Graphics/SVG/1.1/DTD/svg11.dtd" >
<svg>
<metadata>
Created by FontForge 20120731 at Wed Jun 17 21:35:19 2015
 By ,,,
Copyright (c) 2006-2010 by Jan Fromm. All rights reserved.
</metadata>
<defs>
<font id="fd5f95c5f30c4fd0498e1a64c5f74bb73bcb484ef62e4e35caabe42a3d2c59f" horiz-adv-x="1085" >
  <font-face 
    font-family="fd5f95c5f30c4fd0498e1a64c5f74bb73bcb484ef62e4e35caabe42a3d2c59f3"
    font-weight="800"
    font-style="italic"
    font-stretch="normal"
    units-per-em="2048"
    panose-1="2 11 9 3 4 3 2 9 2 3"
    ascent="1659"
    descent="-389"
    x-height="1021"
    cap-height="1423"
    bbox="-346 -471 2187 1977"
    underline-thickness="200"
    underline-position="-50"
    slope="-11"
    unicode-range="U+0020-2122"
  />
<missing-glyph 
d="M356 719q-16 0 -16 -21q0 -20 16 -20h74v-238q0 -65 -51 -65q-23 0 -31 4t-16 4q-17 0 -17 -21q0 -14 11 -18q10 -4 23 -6t26 -2q106 0 106 104v246q0 33 -32 33h-93zM561 360q0 -20 25 -20q26 0 26 20v152h142q14 0 14 20q0 21 -14 21h-142v125h158q16 0 16 20
q0 21 -16 21h-174q-35 0 -35 -33v-326zM197 539q0 73 26.5 137.5t72.5 111t109.5 73t137.5 26.5q73 0 137.5 -26.5t111 -73t73 -111t26.5 -137.5q0 -74 -26.5 -137.5t-73 -109.5t-111 -72.5t-137.5 -26.5q-74 0 -137.5 26.5t-109.5 72.5t-72.5 109.5t-26.5 137.5z" />
    <glyph glyph-name=".notdef" 
d="M356 719q-16 0 -16 -21q0 -20 16 -20h74v-238q0 -65 -51 -65q-23 0 -31 4t-16 4q-17 0 -17 -21q0 -14 11 -18q10 -4 23 -6t26 -2q106 0 106 104v246q0 33 -32 33h-93zM561 360q0 -20 25 -20q26 0 26 20v152h142q14 0 14 20q0 21 -14 21h-142v125h158q16 0 16 20
q0 21 -16 21h-174q-35 0 -35 -33v-326zM197 539q0 73 26.5 137.5t72.5 111t109.5 73t137.5 26.5q73 0 137.5 -26.5t111 -73t73 -111t26.5 -137.5q0 -74 -26.5 -137.5t-73 -109.5t-111 -72.5t-137.5 -26.5q-74 0 -137.5 26.5t-109.5 72.5t-72.5 109.5t-26.5 137.5z" />
    <glyph glyph-name=".null" horiz-adv-x="0" 
 />
    <glyph glyph-name="nonmarkingreturn" horiz-adv-x="682" 
 />
    <glyph glyph-name="space" unicode=" " horiz-adv-x="507" 
 />
    <glyph glyph-name="space" unicode="&#xa0;" horiz-adv-x="507" 
 />
    <glyph glyph-name="exclam" unicode="!" horiz-adv-x="655" 
d="M352 1511h340l-253 -1070h-254zM424 217q0 -17 -2 -36t-5 -41q-10 -45 -23 -75.5t-35 -48t-56 -25.5t-83 -8q-71 0 -104.5 19t-33.5 65q0 17 2 35.5t5 41.5q9 45 22.5 75.5t35.5 48t56 25.5t83 8q72 0 105 -18.5t33 -65.5z" />
    <glyph glyph-name="quotedbl" unicode="&#x22;" horiz-adv-x="870" 
d="M283 1511h283l-137 -549h-222zM692 1511h283l-137 -549h-222z" />
    <glyph glyph-name="numbersign" unicode="#" 
d="M130 345h-125l41 214h149l96 292h-134l43 215h158l117 357h251l-117 -357h162l116 357h252l-117 -357h124l-43 -215h-148l-96 -292h130l-42 -214h-153l-111 -345h-253l113 345h-160l-115 -345h-251zM608 559l96 292h-162l-96 -292h162z" />
    <glyph glyph-name="dollar" unicode="$" 
d="M875 1605l-45 -233q59 -3 114.5 -10.5t115.5 -24.5l-54 -248q-64 17 -136.5 27t-142.5 10q-56 0 -97.5 -7t-70 -22t-42.5 -38.5t-14 -54.5q0 -25 9.5 -44.5t32 -41t59.5 -48t93 -61.5q79 -52 132.5 -95.5t85.5 -84.5t45 -85.5t13 -98.5q0 -95 -26 -169.5t-79.5 -130.5
t-133.5 -92.5t-188 -50.5l-47 -248h-237l45 241q-58 4 -119 11.5t-141 28.5l54 249q77 -20 163.5 -32t169.5 -12q51 0 93 8.5t70.5 26t45 43.5t16.5 62q0 25 -9.5 46.5t-32 44.5t-61 50.5t-96.5 63.5q-76 49 -127.5 90.5t-82 82t-44.5 84t-14 98.5q0 90 26 161.5t76.5 124
t124.5 86t172 47.5l47 246h237z" />
    <glyph glyph-name="percent" unicode="%" horiz-adv-x="1730" 
d="M1418 1482l156 -127l-1194 -1411l-158 124zM812 1185q0 -29 -2.5 -56t-11.5 -72q-20 -105 -53.5 -177t-81 -114.5t-109.5 -61t-138 -18.5q-58 0 -106.5 14t-83 44.5t-53.5 79.5t-19 120q0 28 2.5 56t11.5 74q20 105 53.5 175.5t81.5 113t109.5 61t137.5 18.5
q57 0 106 -13.5t83.5 -44t53.5 -79.5t19 -120zM583 1189q0 42 -14.5 58.5t-44.5 16.5q-19 0 -37 -8.5t-33.5 -32t-29.5 -63t-26 -101.5l-10 -60t-5 -59q0 -42 14.5 -59t44.5 -17q19 0 37 9.5t33.5 32.5t29.5 63t26 102q5 31 10 59.5t5 58.5zM1651 477q0 -29 -2.5 -56
t-11.5 -72q-20 -105 -53.5 -177t-81 -114.5t-109.5 -61t-138 -18.5q-58 0 -106.5 14t-83 44.5t-53.5 79.5t-19 120q0 28 2.5 56t11.5 74q20 105 53.5 175.5t81.5 113t109.5 61t137.5 18.5q57 0 106 -13.5t83.5 -44t53.5 -79.5t19 -120zM1422 481q0 42 -14.5 58.5t-44.5 16.5
q-19 0 -37 -8.5t-33.5 -32t-29.5 -63t-26 -101.5l-10 -60t-5 -59q0 -42 14.5 -59t44.5 -17q19 0 37 9.5t33.5 32.5t29.5 63t26 102q5 31 10 59.5t5 58.5z" />
    <glyph glyph-name="ampersand" unicode="&#x26;" horiz-adv-x="1374" 
d="M1095 -46q-24 25 -43.5 47.5t-38 43t-37.5 43t-43 49.5q-83 -70 -203 -119.5t-262 -49.5q-101 0 -181 27t-136 74t-85 111.5t-29 141.5q0 93 30.5 164.5t79.5 130t113 104.5t130 90q-38 60 -70 138t-32 164q0 103 36 184t99.5 135.5t154 83t200.5 28.5q100 0 169.5 -24.5
t112 -65t61.5 -90.5t19 -100q0 -90 -32.5 -162.5t-83.5 -132.5t-116.5 -110.5t-133.5 -95.5q24 -33 46 -63t45.5 -58.5t47 -56.5t50.5 -60q30 49 54 101t40 116h262q-35 -124 -82 -224.5t-107 -181.5q25 -30 46 -53.5t41 -46t42.5 -46t48.5 -51.5zM536 608q-35 -24 -69 -49
t-61.5 -54t-45 -65.5t-17.5 -81.5q0 -67 43.5 -107.5t124.5 -40.5q76 0 145 31.5t117 76.5q-31 36 -61 71.5t-59.5 71.5l-59 72t-57.5 75zM840 1206q0 39 -26 68.5t-83 29.5q-75 0 -114.5 -40t-39.5 -120q0 -46 19.5 -94.5t41.5 -86.5q45 30 82 59.5t63.5 58t41.5 59.5
t15 66z" />
    <glyph glyph-name="quotesingle" unicode="'" horiz-adv-x="462" 
d="M283 1511h283l-137 -549h-222z" />
    <glyph glyph-name="parenleft" unicode="(" horiz-adv-x="658" 
d="M264 -374q-39 84 -68.5 164t-49.5 161t-29.5 164.5t-9.5 175.5q0 222 49 423t127 374.5t177.5 320t198.5 263.5l199 -124q-88 -115 -171.5 -251.5t-149.5 -290.5t-106.5 -326.5t-40.5 -359.5q0 -72 4.5 -144t15 -145.5t29 -148t46.5 -148.5z" />
    <glyph glyph-name="parenright" unicode=")" horiz-adv-x="658" 
d="M-150 -251q88 116 171.5 252.5t149.5 290.5t107 325t41 361q0 71 -5 143t-15.5 146t-29.5 148t-46 148l222 109q38 -85 68 -165.5t50 -161.5t29 -164.5t9 -174.5q0 -222 -48.5 -423t-126.5 -374t-177.5 -319.5t-198.5 -263.5z" />
    <glyph glyph-name="asterisk" unicode="*" horiz-adv-x="846" 
d="M450 1050l-160 -107l-76 181l200 66l-175 85l128 171l136 -124l3 189h221l-71 -188l160 107l76 -182l-200 -65l175 -86l-128 -170l-137 123l-1 -189h-223z" />
    <glyph glyph-name="plus" unicode="+" 
d="M122 709h329l69 354h253l-69 -354h331l-47 -241h-330l-70 -354h-253l70 354h-329z" />
    <glyph glyph-name="comma" unicode="," horiz-adv-x="525" 
d="M-105 -266q25 38 46.5 72t41 66t38 62.5t35.5 61.5q-16 7 -32 29.5t-16 56.5q0 17 1.5 34.5t5.5 38.5q8 50 22.5 82t38 51t59.5 27.5t89 8.5q80 0 115 -25t35 -79q0 -57 -11 -105.5t-36 -94.5q-20 -37 -55.5 -83t-78 -94t-88.5 -94.5t-90 -86.5z" />
    <glyph glyph-name="hyphen" unicode="-" horiz-adv-x="861" 
d="M147 687h631l-54 -280h-631z" />
    <glyph glyph-name="period" unicode="." horiz-adv-x="525" 
d="M374 228q0 -16 -2 -34.5t-5 -41.5q-10 -49 -24 -81.5t-37 -52t-59 -27.5t-89 -8q-81 0 -116 20.5t-35 74.5q0 17 2 36t5 41q9 50 23.5 82t38 51t59 27.5t89.5 8.5q80 0 115 -20.5t35 -75.5z" />
    <glyph glyph-name="slash" unicode="/" horiz-adv-x="875" 
d="M771 1511h295l-957 -1734h-295z" />
    <glyph glyph-name="zero" unicode="0" 
d="M1089 1052q0 -75 -7.5 -151t-29.5 -188q-43 -219 -100.5 -362.5t-133 -228.5t-170 -118.5t-211.5 -33.5q-87 0 -154.5 19.5t-114.5 67t-71.5 124.5t-24.5 190q0 75 7.5 151t30.5 189q43 219 100 362.5t132.5 228t170 118t211.5 33.5q87 0 154 -19.5t114.5 -67t72 -124.5
t24.5 -190zM790 1069q0 38 -6.5 64t-18.5 43t-32.5 24.5t-48.5 7.5q-42 0 -77 -21.5t-67 -76.5t-63 -154t-60 -255q-9 -40 -17 -86t-15 -91.5t-10.5 -88.5t-3.5 -81q0 -37 6.5 -64t18.5 -43.5t32.5 -24t49.5 -7.5q41 0 76 21.5t67 76.5t62 154t61 255q8 41 16.5 86.5
t15.5 91t10.5 88.5t3.5 81z" />
    <glyph glyph-name="one" unicode="1" 
d="M81 258h293l162 832l-237 -95l-69 202l432 226h251l-227 -1165h254l-50 -258h-859z" />
    <glyph glyph-name="two" unicode="2" 
d="M47 221l391 408q71 75 131 137t103.5 115.5t68 103t24.5 99.5q0 61 -40.5 89.5t-145.5 28.5q-59 0 -127 -10.5t-135 -29.5l-23 233q89 24 196 40t204 16q108 0 186 -20.5t128 -59.5t74.5 -95t24.5 -127q0 -86 -27 -163.5t-78.5 -152t-126 -150.5t-167.5 -161l-276 -252
h501l-51 -270h-877z" />
    <glyph glyph-name="three" unicode="3" 
d="M56 256q63 -15 127.5 -25t146.5 -10q71 0 130 15.5t102.5 45.5t67.5 77t24 109q0 36 -17 64t-58.5 47.5t-112 31t-179.5 11.5l48 242q113 0 191 17t124.5 47t67.5 71t21 89q0 56 -40 85t-126 29q-75 0 -145 -11t-142 -31l-11 237q97 22 196.5 38t213.5 16
q180 0 281.5 -70.5t101.5 -208.5q0 -86 -26 -154t-68 -119.5t-95 -86.5t-104 -56q47 -12 82 -37.5t59.5 -60t37.5 -76.5t13 -89q0 -123 -44 -220t-126.5 -164t-201.5 -102t-270 -35q-95 0 -172.5 10.5t-150.5 28.5z" />
    <glyph glyph-name="four" unicode="4" 
d="M556 285h-534l53 275l506 863h494l-171 -868h130l-52 -270h-128l-56 -285h-297zM608 555l129 663l-380 -663h251z" />
    <glyph glyph-name="five" unicode="5" 
d="M1097 1423l-53 -269h-509l-56 -296q43 7 80.5 10.5t79.5 3.5q185 0 266 -81t81 -247q0 -148 -50 -256t-139.5 -177.5t-213 -104t-272.5 -34.5q-79 0 -156 10.5t-154 27.5l49 247q73 -18 144 -27t136 -9q73 0 135 17t107 50t70.5 83t25.5 115q0 71 -46.5 104t-151.5 33
q-70 0 -141.5 -5.5t-152.5 -17.5l159 823h762z" />
    <glyph glyph-name="six" unicode="6" 
d="M1054 1173q-50 12 -106 20.5t-125 8.5q-92 0 -150 -27t-95 -77.5t-60.5 -124.5t-46.5 -166q56 25 117.5 42.5t124.5 17.5q80 0 138 -21.5t95 -62.5t54.5 -97.5t17.5 -125.5q0 -142 -42.5 -251.5t-117 -185t-176 -114.5t-222.5 -39q-178 0 -272 94t-94 293q0 54 5.5 113
t19.5 128q43 220 96.5 381t136.5 266t204.5 155.5t300.5 50.5q73 0 138.5 -10.5t122.5 -27.5zM705 509q0 58 -25 85.5t-80 27.5q-42 0 -86 -18.5t-90 -48.5q-16 -58 -24 -108.5t-8 -88.5q0 -73 26.5 -108t81.5 -35q37 0 74 19.5t66 57t47 92t18 125.5z" />
    <glyph glyph-name="seven" unicode="7" 
d="M148 0q86 161 167 307.5t160 286.5t160.5 278t169.5 282h-589l53 269h924l-44 -232q-91 -152 -174.5 -294t-164 -286t-160 -295t-163.5 -316h-339v0z" />
    <glyph glyph-name="eight" unicode="8" 
d="M994 463q0 -116 -41.5 -208t-115.5 -155t-173 -96.5t-213 -33.5q-186 0 -289 84t-103 229q0 88 23 155t63.5 119.5t94.5 92.5t117 74q-61 45 -98.5 109.5t-37.5 165.5q0 109 40 194.5t109.5 143t162.5 87t198 29.5q94 0 164 -22t115.5 -59.5t68 -89.5t22.5 -115
q0 -82 -24 -147.5t-64 -116.5t-90 -90.5t-99 -68.5q81 -47 125.5 -117.5t44.5 -163.5zM792 1100q0 23 -5.5 42.5t-18 34t-32 23t-48.5 8.5q-35 0 -64.5 -12t-50 -34t-32.5 -54t-12 -72q0 -25 5.5 -46t16.5 -41t29 -38.5t46 -36.5q32 17 62 39t53 49.5t37 62t14 75.5z
M681 417q0 55 -26 96t-100 82q-40 -20 -74.5 -45t-60 -55.5t-40.5 -69t-15 -84.5q0 -58 30 -92t89 -34q40 0 76 14t63 40.5t42.5 63.5t15.5 84z" />
    <glyph glyph-name="nine" unicode="9" 
d="M79 262q78 -21 139.5 -31t135.5 -10q92 0 150.5 27t95 78.5t60 125t46.5 165.5q-56 -26 -117 -43t-125 -17q-80 0 -137.5 21.5t-95 62.5t-55 97t-17.5 125q0 142 42.5 253t117.5 185t176.5 113t221.5 39q178 0 272.5 -93t94.5 -293q0 -54 -6 -113t-20 -129
q-44 -220 -96.5 -381.5t-135.5 -265t-204.5 -155t-301.5 -51.5q-92 0 -164.5 15.5t-143.5 36.5zM472 914q0 -57 25 -84.5t80 -27.5q42 0 86 18t90 49q16 58 23.5 107.5t7.5 89.5q0 72 -25.5 107t-80.5 35q-38 0 -74.5 -19.5t-66 -56.5t-47.5 -91.5t-18 -126.5z" />
    <glyph glyph-name="colon" unicode=":" horiz-adv-x="463" 
d="M374 228q0 -16 -2 -34.5t-5 -41.5q-10 -49 -24 -81.5t-37 -52t-59 -27.5t-89 -8q-81 0 -116 20.5t-35 74.5q0 17 2 36t5 41q9 50 23.5 82t38 51t59 27.5t89.5 8.5q80 0 115 -20.5t35 -75.5zM504 897q0 -17 -2 -35t-5 -40q-10 -50 -24 -82.5t-37 -52t-58.5 -28t-88.5 -8.5
q-82 0 -117 20.5t-35 75.5q0 17 2 36t6 42q8 49 22.5 81t38 51.5t59.5 27.5t89 8q80 0 115 -20.5t35 -75.5z" />
    <glyph glyph-name="semicolon" unicode=";" horiz-adv-x="463" 
d="M-106 -266q26 38 47.5 72t41 66t37.5 62.5t36 61.5q-17 7 -33 29.5t-16 55.5q0 16 2 34.5t5 39.5q9 50 23.5 82t38 51t59 27.5t89.5 8.5q80 0 115 -25t35 -79q0 -57 -11.5 -105.5t-35.5 -94.5q-20 -37 -56 -83t-78 -94t-88 -94.5t-91 -86.5zM504 897q0 -17 -2 -35t-5 -40
q-10 -50 -24 -82.5t-37 -52t-58.5 -28t-88.5 -8.5q-82 0 -117 20.5t-35 75.5q0 17 2 36t6 42q8 49 22.5 81t38 51.5t59.5 27.5t89 8q80 0 115 -20.5t35 -75.5z" />
    <glyph glyph-name="less" unicode="&#x3c;" 
d="M179 725l850 403l-53 -284l-553 -265l450 -271l-54 -261l-693 408z" />
    <glyph glyph-name="equal" unicode="=" 
d="M185 923h872l-46 -240h-872zM102 495h872l-45 -241h-873z" />
    <glyph glyph-name="greater" unicode="&#x3e;" 
d="M155 332l551 265l-448 270l54 261l694 -407l-52 -270l-853 -404z" />
    <glyph glyph-name="question" unicode="?" horiz-adv-x="860" 
d="M232 562q10 66 23 113.5t34.5 88.5t53 80t78.5 86q42 43 77.5 78t60.5 66t39 59.5t14 56.5q0 22 -7.5 39t-23.5 29.5t-41.5 19t-65.5 6.5q-54 0 -108.5 -5.5t-111.5 -19.5l-20 234q74 18 159.5 28t176.5 10q183 0 279.5 -71t96.5 -207q0 -72 -17 -126.5t-48.5 -104
t-77.5 -95.5t-105 -100q-44 -39 -78 -72.5t-61 -67t-44 -72t-28 -86.5l-19 -88h-255zM452 217q0 -17 -2 -36t-6 -41q-9 -45 -22 -75.5t-35.5 -48t-56.5 -25.5t-82 -8q-72 0 -105.5 19t-33.5 65q0 17 2.5 35.5t5.5 41.5q9 45 22.5 75.5t35.5 48t56 25.5t82 8
q72 0 105.5 -18.5t33.5 -65.5z" />
    <glyph glyph-name="at" unicode="@" horiz-adv-x="2172" 
d="M1479 462q-17 -64 3.5 -91t62.5 -27q38 0 81.5 34t82 97.5t64.5 156.5t26 213q0 80 -28 147t-96.5 115t-180.5 74.5t-280 26.5q-171 0 -317 -50.5t-251.5 -152.5t-167 -255.5t-61.5 -360.5q0 -98 28 -178.5t86.5 -138.5t151.5 -89t225 -31q119 0 250.5 9.5t255.5 35.5
l16 -241q-128 -28 -267.5 -39.5t-273.5 -11.5q-181 0 -323 45t-241 129.5t-150 207.5t-51 279q0 275 86 478.5t236.5 340t353 203.5t433.5 67t395 -44t269.5 -122.5t154.5 -186.5t49 -234q0 -190 -55.5 -328t-143.5 -226.5t-197 -129.5t-216 -41q-117 0 -185.5 42.5
t-87.5 102.5q-36 -33 -73.5 -59.5t-79 -46t-85.5 -29t-95 -9.5q-127 0 -204 72t-77 221q0 121 43.5 228.5t118.5 187.5t172.5 126t206.5 46q66 0 119.5 -16t88.5 -40l19 37h240zM1261 773q-23 17 -52 28.5t-68 11.5q-47 0 -88 -30.5t-72.5 -78t-50 -106t-18.5 -115.5
q0 -61 17.5 -89t56.5 -28q44 0 95 35t109 95z" />
    <glyph glyph-name="A" unicode="A" horiz-adv-x="1291" 
d="M574 1423h485l108 -1423h-331l-22 341h-421l-154 -341h-321zM811 591l-21 342q-2 37 -4.5 72t-5 70.5t-5 72t-3.5 75.5h-2q-18 -41 -33.5 -77.5t-31 -72.5t-32.5 -71.5t-35 -76.5l-148 -334h321z" />
    <glyph glyph-name="B" unicode="B" horiz-adv-x="1206" 
d="M308 1423h413q139 0 233.5 -19t153 -55.5t83.5 -93.5t25 -134q0 -74 -23.5 -133.5t-63.5 -105.5t-89.5 -77.5t-99.5 -51.5q93 -26 141.5 -92.5t48.5 -153.5q0 -120 -48 -214t-137 -159t-214 -99.5t-276 -34.5h-424zM493 247q150 0 228.5 60.5t78.5 166.5q0 32 -10 56.5
t-35 42t-68.5 27t-109.5 9.5h-106l-70 -362h92zM600 849q74 0 127 16t87 44.5t50.5 66.5t16.5 82q0 31 -10 54t-33.5 37t-61.5 20.5t-93 6.5h-102l-64 -327h83z" />
    <glyph glyph-name="B" unicode="&#xe000;" horiz-adv-x="1206" 
d="M308 1423h413q139 0 233.5 -19t153 -55.5t83.5 -93.5t25 -134q0 -74 -23.5 -133.5t-63.5 -105.5t-89.5 -77.5t-99.5 -51.5q93 -26 141.5 -92.5t48.5 -153.5q0 -120 -48 -214t-137 -159t-214 -99.5t-276 -34.5h-424zM493 247q150 0 228.5 60.5t78.5 166.5q0 32 -10 56.5
t-35 42t-68.5 27t-109.5 9.5h-106l-70 -362h92zM600 849q74 0 127 16t87 44.5t50.5 66.5t16.5 82q0 31 -10 54t-33.5 37t-61.5 20.5t-93 6.5h-102l-64 -327h83z" />
    <glyph glyph-name="C" unicode="C" horiz-adv-x="1028" 
d="M909 21q-82 -21 -174 -34t-183 -13q-109 0 -194 24t-143.5 76t-89 137t-30.5 208q0 33 1 66t5.5 68t9.5 74.5t16 85.5q41 211 106.5 352t155 226.5t204 121.5t255.5 36q77 0 152.5 -12t143.5 -32l-75 -244q-59 16 -107 24.5t-105 8.5q-84 0 -148.5 -24.5t-114 -82
t-84.5 -151.5t-61 -232q-13 -70 -20 -129.5t-7 -119.5q0 -65 13 -108.5t40 -69.5t67 -36.5t96 -10.5q62 0 126 10t138 29z" />
    <glyph glyph-name="D" unicode="D" horiz-adv-x="1294" 
d="M308 1423h445q132 0 232 -20t166.5 -69t99 -131t32.5 -205q0 -65 -7.5 -129.5t-23.5 -153.5q-39 -201 -108.5 -337.5t-168.5 -221t-228 -120.5t-287 -36h-429zM490 255q78 0 147.5 20.5t125.5 73.5t98.5 143t68.5 232q11 64 19.5 119t8.5 111q0 65 -14 106.5t-44.5 65
t-77 33t-111.5 9.5h-131l-177 -913h87z" />
    <glyph glyph-name="E" unicode="E" horiz-adv-x="1044" 
d="M308 1423h827l-50 -255h-505l-63 -319h471l-48 -250h-471l-66 -344h504l-49 -255h-827z" />
    <glyph glyph-name="E" unicode="&#xe001;" horiz-adv-x="1044" 
d="M308 1423h827l-50 -255h-505l-63 -319h471l-48 -250h-471l-66 -344h504l-49 -255h-827z" />
    <glyph glyph-name="F" unicode="F" horiz-adv-x="1004" 
d="M308 1423h814l-50 -255h-492l-63 -319h453l-47 -250h-454l-116 -599h-322z" />
    <glyph glyph-name="G" unicode="G" horiz-adv-x="1258" 
d="M1057 55q-99 -37 -223 -60t-251 -23q-119 0 -210 24t-153 77t-93.5 138.5t-31.5 208.5q0 62 8 133.5t25 158.5q41 210 109 350.5t163 227t216.5 123t271.5 36.5q115 0 211.5 -17.5t183.5 -42.5l-81 -242q-85 21 -168.5 34t-162.5 13q-82 0 -148 -25t-117.5 -83t-90 -152
t-65.5 -231q-12 -63 -21 -127.5t-9 -124.5q0 -62 12 -104.5t36 -69t60 -38.5t86 -12q47 0 94.5 8t83.5 20l65 340h-205l50 251h509z" />
    <glyph glyph-name="H" unicode="H" horiz-adv-x="1350" 
d="M308 1423h322l-111 -565h447l110 565h321l-276 -1423h-321l114 593h-446l-115 -593h-322z" />
    <glyph glyph-name="I" unicode="I" horiz-adv-x="582" 
d="M308 1423h322l-277 -1423h-322z" />
    <glyph glyph-name="J" unicode="J" horiz-adv-x="748" 
d="M603 393q-23 -116 -62.5 -195t-99.5 -127.5t-140 -68.5t-184 -20q-64 0 -120 7t-105 21l59 248q40 -9 79 -14t76 -5q78 0 119 40.5t58 124.5l199 1019h322z" />
    <glyph glyph-name="K" unicode="K" horiz-adv-x="1202" 
d="M308 1423h322l-130 -665l498 665h378l-550 -692l293 -731h-361l-270 699l-135 -699h-322z" />
    <glyph glyph-name="L" unicode="L" horiz-adv-x="941" 
d="M308 1423h322l-226 -1159h471l-51 -264h-793z" />
    <glyph glyph-name="M" unicode="M" horiz-adv-x="1936" 
d="M380 1423h495l38 -725q3 -56 4.5 -107.5t2 -104t-0.5 -109t-2 -123.5h7q23 67 44.5 123.5t41 108t41 103t45.5 109.5l319 725h500l-163 -1423h-329l105 799q8 52 15.5 103t16 101.5t18.5 102t21 107.5l-4 2q-20 -57 -41 -108t-41.5 -100t-42.5 -100.5t-45 -107.5
l-342 -799h-425l-35 799q-5 105 -7.5 203.5t-2.5 210.5l-4 -2q-11 -56 -21.5 -107.5t-22 -101.5l-23 -100t-25.5 -103l-203 -799h-325z" />
    <glyph glyph-name="N" unicode="N" horiz-adv-x="1422" 
d="M308 1423h404l200 -693q13 -48 23.5 -93.5t22 -91.5t22 -95t21.5 -105l2 2q7 111 17.5 204.5t26.5 178.5l136 693h287l-277 -1423h-406l-201 694q-14 46 -25 91.5t-21 92.5t-19 95.5t-17 105.5l-6 -2q-8 -109 -19 -204t-27 -179l-135 -694h-286z" />
    <glyph glyph-name="O" unicode="O" horiz-adv-x="1334" 
d="M1313 998q0 -63 -7.5 -132t-24.5 -155q-40 -202 -103.5 -343t-153 -229.5t-205 -128.5t-257.5 -40q-112 0 -199 26t-146.5 81t-90.5 141.5t-31 206.5q0 63 7.5 132.5t24.5 155.5q38 200 102 341.5t153.5 230t205 128.5t258.5 40q111 0 198 -25.5t146 -80.5t91 -141.5
t32 -207.5zM987 984q0 51 -9 90.5t-30.5 67t-55.5 42t-83 14.5q-66 0 -119.5 -27.5t-97.5 -88t-78.5 -154t-60.5 -225.5q-7 -30 -12.5 -64.5t-10 -68.5t-7.5 -67.5t-3 -62.5q0 -51 9.5 -91t31 -67.5t55 -42t83.5 -14.5q64 0 117.5 28t98.5 88t79 153.5t60 225.5
q6 31 11.5 65t11 68.5t8 67.5t2.5 63z" />
    <glyph glyph-name="P" unicode="P" horiz-adv-x="1121" 
d="M308 1423h407q133 0 224 -22.5t145.5 -64t78.5 -102t24 -135.5q0 -151 -49 -259.5t-136.5 -179t-206 -103t-258.5 -32.5h-83l-101 -525h-322zM577 771q53 0 104.5 16.5t91 51t63.5 88t24 125.5q0 63 -40 93.5t-143 30.5h-96l-78 -405h74z" />
    <glyph glyph-name="Q" unicode="Q" horiz-adv-x="1334" 
d="M915 -264l-146 265q-38 -14 -90.5 -22.5t-116.5 -8.5q-112 0 -199 26t-146.5 81t-90.5 141.5t-31 206.5q0 63 7.5 132.5t24.5 155.5q38 200 102 341.5t153.5 230t205 128.5t258.5 40q111 0 198 -25.5t146 -80.5t91 -141.5t32 -207.5q0 -63 -7.5 -132t-24.5 -155
q-21 -110 -48 -196t-58 -154t-67 -120t-75 -94l156 -258zM987 984q0 51 -9 90.5t-30.5 67t-55.5 42t-83 14.5q-66 0 -119.5 -27.5t-97.5 -88t-78.5 -154t-60.5 -225.5q-7 -30 -12.5 -64.5t-10 -68.5t-7.5 -67.5t-3 -62.5q0 -51 9.5 -91t31 -67.5t55 -42t83.5 -14.5
q64 0 117.5 28t98.5 87t79 152.5t60 227.5q6 31 11.5 65t11 68.5t8 67.5t2.5 63z" />
    <glyph glyph-name="R" unicode="R" horiz-adv-x="1197" 
d="M308 1423h422q142 0 237 -21t153 -60t82.5 -96.5t24.5 -129.5q0 -97 -27 -175t-76.5 -137t-118 -99t-147.5 -59l210 -646h-357l-170 600h-70l-118 -600h-322zM615 847q124 0 205 51.5t81 153.5q0 32 -10.5 55t-34.5 39t-64 23t-100 7h-111l-64 -329h98z" />
    <glyph glyph-name="S" unicode="S" horiz-adv-x="1009" 
d="M74 265q80 -18 151 -31t156 -13q58 0 102 9t72 27.5t42 48t14 71.5q0 28 -8.5 51t-30.5 48t-62 58.5t-102 84.5q-72 56 -119.5 102.5t-74 90.5t-38 90t-11.5 104q0 226 136 334.5t419 108.5q74 0 146.5 -7.5t146.5 -26.5l-54 -247q-36 8 -66.5 14.5t-61 10.5t-63 6.5
t-69.5 2.5q-113 0 -164 -32.5t-51 -101.5q0 -29 9.5 -52t31 -47.5t55 -53t83.5 -66.5q84 -70 137.5 -122t83.5 -97.5t40 -89.5t10 -96q0 -118 -36.5 -206.5t-109 -147.5t-182 -87.5t-256.5 -28.5q-50 0 -92 3.5t-81 8.5t-77 13t-80 19z" />
    <glyph glyph-name="S" unicode="&#xe002;" horiz-adv-x="1009" 
d="M74 265q80 -18 151 -31t156 -13q58 0 102 9t72 27.5t42 48t14 71.5q0 28 -8.5 51t-30.5 48t-62 58.5t-102 84.5q-72 56 -119.5 102.5t-74 90.5t-38 90t-11.5 104q0 226 136 334.5t419 108.5q74 0 146.5 -7.5t146.5 -26.5l-54 -247q-36 8 -66.5 14.5t-61 10.5t-63 6.5
t-69.5 2.5q-113 0 -164 -32.5t-51 -101.5q0 -29 9.5 -52t31 -47.5t55 -53t83.5 -66.5q84 -70 137.5 -122t83.5 -97.5t40 -89.5t10 -96q0 -118 -36.5 -206.5t-109 -147.5t-182 -87.5t-256.5 -28.5q-50 0 -92 3.5t-81 8.5t-77 13t-80 19z" />
    <glyph glyph-name="T" unicode="T" horiz-adv-x="1074" 
d="M503 1160h-367l51 263h1053l-52 -263h-362l-225 -1160h-322z" />
    <glyph glyph-name="U" unicode="U" horiz-adv-x="1314" 
d="M608 1423l-162 -833q-9 -44 -16 -91.5t-7 -102.5q0 -44 8 -75.5t28.5 -53t53.5 -32t79 -10.5q58 0 107.5 21.5t88.5 66.5t67.5 117.5t49.5 176.5l159 816h322l-161 -819q-34 -172 -86.5 -291.5t-132 -196t-189 -111.5t-257.5 -35q-229 0 -344 96.5t-115 300.5
q0 51 5.5 109t19.5 125l160 822h322z" />
    <glyph glyph-name="V" unicode="V" horiz-adv-x="1283" 
d="M192 1423h327l42 -725q3 -54 5 -109t3.5 -115t2.5 -125.5t1 -137.5h5q28 72 53 136.5t49.5 125t48 116t48.5 109.5l328 725h327l-652 -1423h-487z" />
    <glyph glyph-name="W" unicode="W" horiz-adv-x="2056" 
d="M215 1423h332v-725q-1 -52 -2.5 -108.5t-5 -117.5t-7 -126.5t-7.5 -133.5h6q22 66 42 131t40 125t40 118t42 112l280 725h462l-7 -725q-1 -54 -2 -110t-3.5 -116.5t-6.5 -126t-9 -133.5h4q23 68 45 133.5t43.5 127t41 117.5t39.5 108l284 725h321l-572 -1423h-479l7 800
q1 58 2.5 111t3 104t5 100t8.5 98h-2q-17 -50 -33.5 -98.5t-34.5 -98.5t-38 -104t-41 -112l-301 -800h-478z" />
    <glyph glyph-name="X" unicode="X" horiz-adv-x="1325" 
d="M479 736l-293 687h349l211 -511h6q17 23 31 44t29 41t31.5 41.5t34.5 45.5l258 339h345l-564 -708l306 -715h-355l-224 536l-5 1q-32 -45 -61 -82.5t-61 -83.5l-279 -371h-334z" />
    <glyph glyph-name="Y" unicode="Y" horiz-adv-x="1167" 
d="M421 517l-256 906h317l96 -313q13 -40 21.5 -72.5t16.5 -63.5t15 -63.5t14 -69.5h7q22 39 40 72.5t37.5 64.5t39 63t45.5 69l210 313h333l-619 -909l-100 -514h-317z" />
    <glyph glyph-name="Z" unicode="Z" horiz-adv-x="1013" 
d="M-16 208l706 952h-487l52 263h881l-42 -207l-707 -953h534l-49 -263h-927z" />
    <glyph glyph-name="bracketleft" unicode="[" horiz-adv-x="713" 
d="M342 1511h505l-43 -220h-232l-271 -1396h232l-43 -221h-505z" />
    <glyph glyph-name="backslash" unicode="\" horiz-adv-x="875" 
d="M207 1511h272l286 -1734h-273z" />
    <glyph glyph-name="bracketright" unicode="]" horiz-adv-x="713" 
d="M-62 -105h231l271 1396h-232l43 220h507l-357 -1837h-506z" />
    <glyph glyph-name="asciicircum" unicode="^" 
d="M569 1423h313l195 -697h-281l-119 427l-289 -427h-287z" />
    <glyph glyph-name="underscore" unicode="_" 
d="M-116 -202h1061l-53 -269h-1061z" />
    <glyph glyph-name="grave" unicode="`" horiz-adv-x="800" 
d="M500 1608l296 -339l-147 -142l-341 299z" />
    <glyph glyph-name="a" unicode="a" horiz-adv-x="1136" 
d="M653 122q-31 -32 -68 -57.5t-76.5 -44.5t-82.5 -28.5t-83 -9.5q-129 0 -208 78.5t-79 241.5q0 183 47.5 320.5t126 230.5t179 140t205.5 47q74 0 126.5 -18.5t89.5 -44.5l18 44h262l-198 -1021h-261zM741 751q-27 19 -55 29.5t-67 10.5q-54 0 -97 -41t-74 -105
t-48.5 -142t-17.5 -153q0 -57 20.5 -82.5t54.5 -25.5q44 0 102.5 48t116.5 132z" />
    <glyph glyph-name="b" unicode="b" horiz-adv-x="1134" 
d="M318 1511h318l-74 -377q-11 -54 -23.5 -101.5t-31.5 -104.5l2 -2q28 23 59 44t67.5 36.5t76.5 24.5t80 9q129 0 208 -79t79 -241q0 -181 -47.5 -320t-126 -232t-179 -139.5t-205.5 -46.5q-74 0 -126.5 18t-89.5 45l-18 -45h-262zM393 270q27 -19 55.5 -29t66.5 -10
q54 0 97.5 40.5t74.5 104.5t48.5 142t17.5 155q0 56 -20.5 81t-54.5 25q-44 0 -102.5 -48t-116.5 -132z" />
    <glyph glyph-name="b" unicode="&#xe003;" horiz-adv-x="1134" 
d="M318 1511h318l-74 -377q-11 -54 -23.5 -101.5t-31.5 -104.5l2 -2q28 23 59 44t67.5 36.5t76.5 24.5t80 9q129 0 208 -79t79 -241q0 -181 -47.5 -320t-126 -232t-179 -139.5t-205.5 -46.5q-74 0 -126.5 18t-89.5 45l-18 -45h-262zM393 270q27 -19 55.5 -29t66.5 -10
q54 0 97.5 40.5t74.5 104.5t48.5 142t17.5 155q0 56 -20.5 81t-54.5 25q-44 0 -102.5 -48t-116.5 -132z" />
    <glyph glyph-name="c" unicode="c" horiz-adv-x="846" 
d="M736 15q-67 -16 -138 -26.5t-142 -10.5q-90 0 -164.5 18t-127 58t-81 106.5t-28.5 165.5q0 20 1 39.5t2.5 40t5 44t9.5 54.5q25 143 76 245t124 167.5t165 96t197 30.5q73 0 136 -9t109 -24l-73 -233q-36 11 -69.5 15.5t-71.5 4.5q-49 0 -91 -14.5t-76 -48.5t-60.5 -88.5
t-45.5 -136.5q-9 -39 -12.5 -74t-3.5 -67q0 -77 39.5 -110.5t120.5 -33.5q43 0 89.5 6.5t101.5 20.5z" />
    <glyph glyph-name="d" unicode="d" horiz-adv-x="1136" 
d="M653 122q-31 -32 -68 -57.5t-76.5 -44.5t-82.5 -28.5t-83 -9.5q-129 0 -208 78.5t-79 241.5q0 183 47.5 320.5t126 230.5t179 140t205.5 47q56 0 102 -12t82 -32l3 2q3 52 8 96t15 95l63 322h318l-293 -1511h-261zM741 751q-27 19 -55 29.5t-67 10.5q-54 0 -97 -41
t-74 -105t-48.5 -142t-17.5 -153q0 -57 20.5 -82.5t54.5 -25.5q44 0 102.5 48t116.5 132z" />
    <glyph glyph-name="e" unicode="e" horiz-adv-x="1005" 
d="M826 29q-75 -23 -170.5 -37t-199.5 -14q-100 0 -175 17t-125 57.5t-75.5 106t-25.5 164.5q0 40 4 85t12 93q24 143 75.5 247.5t126 172t169 99t201.5 31.5q166 0 258.5 -72.5t92.5 -200.5q0 -97 -38.5 -169.5t-115.5 -120.5t-194.5 -71.5t-272.5 -23.5q-2 -15 -3.5 -32.5
t-1.5 -30.5q0 -57 34 -81.5t109 -24.5q76 0 151.5 10t157.5 32zM413 597q145 -1 218 32t73 107q0 33 -23 52.5t-70 19.5q-38 0 -69.5 -12.5t-55.5 -38t-42.5 -65.5t-30.5 -95z" />
    <glyph glyph-name="f" unicode="f" horiz-adv-x="742" 
d="M379 -48q-23 -118 -62.5 -195.5t-99 -124.5t-139 -67.5t-181.5 -20.5q-44 0 -85.5 5t-86.5 14l48 238q41 -8 69 -9.5t59 -1.5t56.5 10t45.5 31t34.5 52.5t22.5 74.5l160 823h-144l47 240h143l23 114q24 117 64 195.5t100 125t141 66t190 19.5q52 0 101.5 -5.5t96.5 -17.5
l-50 -238q-42 9 -76 12t-76 3q-36 0 -64 -10t-49 -30.5t-36 -51.5t-23 -74l-22 -108h244l-46 -240h-244z" />
    <glyph glyph-name="g" unicode="g" horiz-adv-x="1136" 
d="M741 751q-27 19 -55 29.5t-67 10.5q-53 0 -96.5 -41t-74.5 -105t-48.5 -142t-17.5 -153q0 -57 20.5 -82.5t54.5 -25.5q44 0 102.5 48t116.5 132zM907 -27q-23 -115 -68.5 -196.5t-116 -133t-168 -74.5t-223.5 -23q-100 0 -178.5 10t-148.5 26l49 243q68 -14 137 -23.5
t156 -9.5q101 0 162 41t81 133q3 20 7 34.5t9 30t10.5 29.5t12.5 34l-2 2q-28 -24 -60 -44.5t-68 -36.5t-75.5 -24.5t-79.5 -8.5q-129 0 -208 78.5t-79 241.5q0 183 47.5 320.5t126 230.5t178.5 140t205 47q75 0 127.5 -18.5t89.5 -44.5l18 44h262z" />
    <glyph glyph-name="h" unicode="h" horiz-adv-x="1163" 
d="M318 1511h318l-74 -377q-11 -54 -24 -103.5t-34 -110.5l2 -2q29 23 65 45t77 40t87 27.5t96 9.5q134 0 197 -65.5t63 -187.5q0 -27 -3.5 -57t-9.5 -64l-129 -666h-318l123 632q4 20 6.5 40t2.5 39q0 35 -16 51.5t-50 16.5q-48 0 -114 -49.5t-126 -138.5l-114 -591h-318z
" />
    <glyph glyph-name="i" unicode="i" horiz-adv-x="567" 
d="M222 1021h319l-198 -1021h-318zM628 1417q0 -16 -2 -34.5t-6 -41.5q-9 -48 -23 -81t-37.5 -52t-59 -27t-87.5 -8q-81 0 -115.5 20t-34.5 75q0 17 2 35.5t5 41.5q9 49 23 81.5t37.5 51.5t59 27t88.5 8q81 0 115.5 -20t34.5 -76z" />
    <glyph glyph-name="j" unicode="j" horiz-adv-x="567" 
d="M335 -38q-24 -116 -64 -196t-101 -128.5t-141 -70t-183 -21.5q-45 0 -98 6.5t-94 15.5l46 238q44 -8 81.5 -11t75.5 -3q29 0 55.5 10t46 30t34 51t22.5 73l208 1065h318zM628 1417q0 -16 -1.5 -34.5t-6.5 -41.5q-8 -48 -22 -81t-38 -52t-59 -27t-88 -8q-80 0 -114.5 20
t-34.5 75q0 17 1.5 35.5t5.5 41.5q8 49 22 81.5t38 51.5t59 27t89 8q81 0 115 -20t34 -76z" />
    <glyph glyph-name="k" unicode="k" horiz-adv-x="1090" 
d="M318 1511h318l-178 -924l360 434h373l-432 -489l214 -532h-341l-189 515l-100 -515h-318z" />
    <glyph glyph-name="l" unicode="l" horiz-adv-x="567" 
d="M318 1511h318l-293 -1511h-318z" />
    <glyph glyph-name="m" unicode="m" horiz-adv-x="1741" 
d="M222 1021h262l-3 -126q33 31 72.5 58.5t82 46.5t90 29.5t95.5 10.5q109 0 165.5 -43t74.5 -110q35 34 75 62.5t85 48t92.5 31t98.5 11.5q131 0 193 -65.5t62 -187.5q0 -27 -3 -57t-9 -64l-129 -666h-318l122 632q5 20 7 40t2 39q0 35 -14.5 51.5t-47.5 16.5
q-44 0 -107 -50.5t-122 -137.5l-113 -591h-318l122 632q5 20 7 40t2 39q0 34 -14.5 51t-47.5 17q-44 0 -106.5 -49.5t-122.5 -138.5l-114 -591h-318z" />
    <glyph glyph-name="n" unicode="n" horiz-adv-x="1163" 
d="M222 1021h262l-3 -126q33 31 73 58.5t85 46.5t93.5 29.5t98.5 10.5q134 0 197 -65.5t63 -187.5q0 -27 -3.5 -57t-9.5 -64l-129 -666h-318l123 632q4 20 6.5 40t2.5 39q0 35 -16 51.5t-50 16.5q-48 0 -114 -49.5t-126 -138.5l-114 -591h-318z" />
    <glyph glyph-name="o" unicode="o" horiz-adv-x="1101" 
d="M1046 692q0 -37 -4.5 -79.5t-14.5 -99.5q-27 -144 -77.5 -247t-124 -168.5t-167 -96.5t-206.5 -31q-93 0 -166.5 19.5t-124.5 62.5t-78.5 111t-27.5 166q0 37 4.5 79.5t14.5 100.5q27 143 77.5 246t124 169t167 96.5t206.5 30.5q93 0 166 -19.5t124.5 -62.5t79 -111
t27.5 -166zM726 669q0 74 -28 105t-86 31q-37 0 -70 -14.5t-59.5 -48.5t-49 -90.5t-39.5 -143.5q-5 -19 -8 -41t-5 -42.5t-4 -39t-2 -32.5q0 -74 28 -105.5t86 -31.5q37 0 69.5 14.5t59.5 48.5t49.5 90.5t39.5 143.5q3 20 7 40.5t6 42t4 40t2 33.5z" />
    <glyph glyph-name="p" unicode="p" horiz-adv-x="1134" 
d="M222 1021h264l-3 -121q31 31 67 56.5t76.5 45t83 29t82.5 9.5q129 0 208 -79t79 -241q0 -181 -47.5 -320t-126 -232t-179 -139.5t-205.5 -46.5q-57 0 -101.5 12t-81.5 31l-2 -2q-4 -52 -8.5 -96t-16.5 -95l-49 -261h-320zM393 270q27 -19 55.5 -29t66.5 -10
q54 0 97.5 40.5t74.5 104.5t48.5 142t17.5 155q0 56 -20.5 81t-54.5 25q-44 0 -102.5 -48t-116.5 -132z" />
    <glyph glyph-name="q" unicode="q" horiz-adv-x="1136" 
d="M828 -429h-318l63 318q11 52 23 100t32 105l-2 2q-28 -24 -60 -44.5t-68 -36.5t-75.5 -24.5t-79.5 -8.5q-129 0 -208 78.5t-79 241.5q0 183 47.5 320.5t126 230.5t178.5 140t205 47q75 0 127.5 -18.5t89.5 -44.5l18 44h262zM741 751q-27 19 -55 29.5t-67 10.5
q-53 0 -96.5 -41t-74.5 -105t-48.5 -142.5t-17.5 -153.5q0 -56 20.5 -81.5t54.5 -25.5q44 0 102.5 48t116.5 132z" />
    <glyph glyph-name="r" unicode="r" horiz-adv-x="737" 
d="M222 1021h262l-3 -136q32 35 67 66t71.5 53.5t74 36t71.5 13.5q32 0 57 -13l-58 -296q-27 14 -62 14q-65 0 -126 -42.5t-121 -127.5l-112 -589h-318z" />
    <glyph glyph-name="s" unicode="s" horiz-adv-x="817" 
d="M52 246q65 -16 127.5 -24.5t115.5 -8.5q80 0 114.5 19.5t34.5 60.5q0 14 -7 27t-22 25t-40.5 28t-62.5 39q-61 36 -100.5 67.5t-64 63t-34 69.5t-9.5 89q0 173 111 257.5t340 84.5q58 0 116.5 -8t109.5 -20l-49 -230q-48 10 -99.5 16.5t-97.5 6.5q-68 0 -101.5 -17
t-33.5 -56q0 -16 7.5 -28.5t23.5 -26t39.5 -28.5t56.5 -33q63 -38 104 -69t65.5 -61.5t34.5 -64.5t10 -79q0 -97 -32 -166t-91 -113t-143.5 -66t-190.5 -22q-74 0 -141.5 10t-135.5 26z" />
    <glyph glyph-name="s" unicode="&#xe004;" horiz-adv-x="817" 
d="M52 246q65 -16 127.5 -24.5t115.5 -8.5q80 0 114.5 19.5t34.5 60.5q0 14 -7 27t-22 25t-40.5 28t-62.5 39q-61 36 -100.5 67.5t-64 63t-34 69.5t-9.5 89q0 173 111 257.5t340 84.5q58 0 116.5 -8t109.5 -20l-49 -230q-48 10 -99.5 16.5t-97.5 6.5q-68 0 -101.5 -17
t-33.5 -56q0 -16 7.5 -28.5t23.5 -26t39.5 -28.5t56.5 -33q63 -38 104 -69t65.5 -61.5t34.5 -64.5t10 -79q0 -97 -32 -166t-91 -113t-143.5 -66t-190.5 -22q-74 0 -141.5 10t-135.5 26z" />
    <glyph glyph-name="t" unicode="t" horiz-adv-x="752" 
d="M260 1021l55 278l325 43l-62 -321h213l-46 -240h-213l-82 -422q-4 -17 -6 -34t-2 -31q0 -38 17.5 -53.5t50.5 -15.5q30 0 58 4.5t56 11.5l6 -233q-63 -15 -120 -22t-118 -7q-77 0 -131 13.5t-87 41t-48.5 70t-15.5 98.5q0 26 4 54t10 60l88 465h-141l47 240h142z" />
    <glyph glyph-name="u" unicode="u" horiz-adv-x="1165" 
d="M533 1021l-122 -631q-5 -21 -7 -41t-2 -39q0 -34 15 -51t49 -17q48 0 114.5 49.5t126.5 138.5l114 591h318l-197 -1021h-263l3 126q-33 -31 -72.5 -58.5t-84.5 -46.5t-94.5 -29t-98.5 -10q-134 0 -196.5 65t-62.5 187q0 28 3 57.5t10 63.5l129 666h318z" />
    <glyph glyph-name="v" unicode="v" horiz-adv-x="1049" 
d="M112 1021h315l30 -474q2 -45 3.5 -86t2.5 -81t0 -82t-1 -90h5q17 49 33.5 90.5t32.5 81.5t32.5 80.5t36.5 86.5l217 474h314l-482 -1021h-453z" />
    <glyph glyph-name="w" unicode="w" horiz-adv-x="1761" 
d="M122 1021h320l12 -474q1 -40 1.5 -79t-1 -80t-3 -85.5t-3.5 -93.5h3q29 94 58.5 175t61.5 163l192 474h432l11 -474q1 -41 1 -80t-0.5 -79.5t-3 -85t-5.5 -93.5h4q17 49 32.5 93t29.5 86t29 80.5t31 78.5l195 474h316l-446 -1021h-446l-13 475q-2 81 -0.5 160t8.5 177h-2
q-30 -93 -56.5 -173.5t-60.5 -163.5l-198 -475h-441z" />
    <glyph glyph-name="x" unicode="x" horiz-adv-x="1095" 
d="M329 527l-209 494h341l132 -342l2 2q20 28 36 51t36 54l170 235h344l-412 -511l222 -510h-357l-129 365l-2 -1q-19 -31 -36.5 -55t-39.5 -55l-181 -254h-341z" />
    <glyph glyph-name="y" unicode="y" horiz-adv-x="1048" 
d="M102 1021h332l32 -417q4 -45 5 -84t1.5 -78t0 -81.5t-2.5 -92.5h4q19 50 35 91.5t32.5 80.5t34 78.5t38.5 85.5l196 417h342l-569 -1085q-58 -114 -108.5 -190t-110 -120.5t-134.5 -62t-183 -17.5q-46 0 -91 6.5t-87 15.5l46 235q38 -5 75.5 -8t69.5 -3q36 0 64 6.5
t53 21.5t47.5 42t45.5 69l39 69h-97z" />
    <glyph glyph-name="y" unicode="&#xe006;" horiz-adv-x="1048" 
d="M102 1021h332l32 -417q4 -45 5 -84t1.5 -78t0 -81.5t-2.5 -92.5h4q19 50 35 91.5t32.5 80.5t34 78.5t38.5 85.5l196 417h342l-569 -1085q-58 -114 -108.5 -190t-110 -120.5t-134.5 -62t-183 -17.5q-46 0 -91 6.5t-87 15.5l46 235q38 -5 75.5 -8t69.5 -3q36 0 64 6.5
t53 21.5t47.5 42t45.5 69l39 69h-97z" />
    <glyph glyph-name="z" unicode="z" horiz-adv-x="881" 
d="M-5 182l483 591h-339l48 248h721l-35 -180l-484 -593h382l-48 -248h-762z" />
    <glyph glyph-name="braceleft" unicode="{" horiz-adv-x="724" 
d="M499 -317q-27 -3 -57.5 -6t-67.5 -3q-123 0 -188.5 71.5t-65.5 209.5q0 29 3 61.5t10 68.5l36 183q4 20 6.5 41.5t2.5 37.5q0 66 -32 105t-90 57l45 228q40 11 74 33.5t60 54.5t45.5 75t29.5 97l25 122q19 99 49 173t75.5 123t111.5 73.5t155 24.5q39 0 69.5 -3.5
t55.5 -8.5l-39 -210h-42q-78 0 -114 -49.5t-52 -141.5l-27 -139q-13 -65 -34 -118.5t-50 -96t-66 -76t-84 -57.5q56 -35 85.5 -91t29.5 -129q0 -30 -3.5 -58t-10.5 -64l-41 -202q-4 -27 -7 -48t-3 -37q0 -54 31.5 -75t114.5 -21z" />
    <glyph glyph-name="bar" unicode="|" horiz-adv-x="566" 
d="M324 1511h304l-377 -1940h-304z" />
    <glyph glyph-name="braceright" unicode="}" horiz-adv-x="725" 
d="M-57 -103h42q76 0 112.5 49t53.5 142l34 178q14 66 34.5 119.5t49.5 95.5t66.5 75.5t83.5 56.5q-56 37 -84.5 91.5t-28.5 132.5q0 27 3 56t9 62l34 163q4 26 6.5 46.5t2.5 36.5q0 53 -31.5 74.5t-113.5 21.5l40 206q26 3 56.5 5.5t68.5 2.5q122 0 188 -71.5t66 -207.5
q0 -30 -3 -62.5t-10 -68.5l-29 -142q-4 -22 -6.5 -41.5t-2.5 -36.5q0 -67 32.5 -106t90.5 -57l-45 -228q-41 -10 -74.5 -32.5t-60.5 -55t-45.5 -75.5t-29.5 -96l-33 -164q-18 -99 -48.5 -172.5t-77 -122t-111 -73.5t-153.5 -25q-39 0 -70 3.5t-56 8.5z" />
    <glyph glyph-name="asciitilde" unicode="~" 
d="M176 886q11 88 44 162.5t81 128.5t109.5 84t131.5 30q52 0 87.5 -11t61.5 -28.5t45 -37t35.5 -37t33 -29t38.5 -11.5q41 0 66 39t39 105h225q-11 -89 -44 -163.5t-80.5 -128t-109.5 -83.5t-132 -30q-51 0 -86.5 11t-62 28.5t-45.5 37.5t-35 37t-34 28.5t-39 11.5
q-40 0 -64.5 -39.5t-37.5 -104.5h-227z" />
    <glyph glyph-name="exclamdown" unicode="&#xa1;" horiz-adv-x="613" 
d="M206 656h255l-168 -1085h-341zM564 1030q0 -17 -1.5 -36t-5.5 -42q-10 -44 -23 -74.5t-35 -48t-56 -25.5t-83 -8q-71 0 -104.5 19t-33.5 65q0 17 2 35.5t5 41.5q9 45 22.5 75t36 48t56.5 26t82 8q72 0 105 -19t33 -65z" />
    <glyph glyph-name="cent" unicode="&#xa2;" 
d="M909 1423l-37 -186q53 -5 102 -15.5t92 -23.5l-75 -241q-50 15 -108.5 23.5t-109.5 8.5q-61 0 -111 -14t-88.5 -46.5t-65.5 -85.5t-42 -131q-5 -31 -8.5 -58t-3.5 -49q0 -51 13.5 -83t39 -51.5t61.5 -27.5t83 -8q59 0 118 6.5t123 22.5l8 -243q-58 -16 -118 -23t-115 -11
l-35 -187h-239l38 196q-61 11 -114 33t-93 62.5t-63.5 101t-23.5 146.5q0 39 3.5 80t13.5 91q26 131 70.5 224.5t105.5 155.5t137.5 96t164.5 47l37 190h240z" />
    <glyph glyph-name="sterling" unicode="&#xa3;" 
d="M329 849q-2 22 -3.5 41t-3 37t-1.5 35v31q0 123 41 209.5t114.5 142t175 81t221.5 25.5q95 0 157 -9.5t115 -22.5l-58 -241q-60 11 -109 17.5t-119 6.5q-51 0 -94 -12t-75 -41.5t-49.5 -76.5t-17.5 -114q0 -16 0.5 -29.5t1.5 -25t2.5 -24t2.5 -30.5h336l-48 -250h-302
q-6 -49 -19.5 -95t-31 -88.5t-39 -81.5t-45.5 -76h450l-49 -258h-895l49 258h114q28 39 53 79t45.5 82.5t35 87t23.5 92.5h-159l48 250h133z" />
    <glyph glyph-name="currency" unicode="&#xa4;" horiz-adv-x="1264" 
d="M210 477q-9 24 -13.5 53.5t-4.5 59.5q0 55 10 109t26 102.5t37 91.5t46 77l-146 184l189 159l146 -181q52 26 115.5 44.5t146.5 18.5q78 0 128.5 -13t88.5 -38l188 158l148 -186l-186 -156q9 -23 13.5 -52.5t4.5 -60.5q0 -54 -10 -108.5t-26 -103.5t-37 -92t-45 -76
l145 -184l-189 -159l-147 182q-46 -25 -113 -44.5t-147 -19.5q-79 0 -129.5 13.5t-88.5 37.5l-189 -157l-147 185zM898 808q0 87 -44.5 125.5t-134.5 38.5q-60 0 -110.5 -24.5t-88 -68.5t-59 -107.5t-21.5 -142.5q0 -43 11.5 -74t34.5 -51t56.5 -29.5t78.5 -9.5
q59 0 110 24.5t87.5 68.5t58 107.5t21.5 142.5z" />
    <glyph glyph-name="yen" unicode="&#xa5;" 
d="M312 149h-266l42 213h265l22 116h-265l41 213h209l-142 732h318l50 -303q5 -36 9 -63.5t7 -53.5t5.5 -53t5.5 -64h5q17 37 29.5 64t25 53.5t25.5 53.5t30 62l155 304h333l-431 -732h211l-42 -213h-265l-22 -116h264l-41 -213h-264l-29 -149h-313z" />
    <glyph glyph-name="brokenbar" unicode="&#xa6;" horiz-adv-x="566" 
d="M97 338h303l-149 -767h-304zM324 1511h304l-150 -773h-303z" />
    <glyph glyph-name="section" unicode="&#xa7;" horiz-adv-x="1160" 
d="M134 -72q60 -16 118 -23.5t124 -7.5q47 0 82.5 7t59 19t35 30t11.5 40q0 19 -9 35.5t-33.5 38t-69 52t-116.5 76.5q-71 47 -116.5 87t-71.5 77.5t-36.5 74.5t-10.5 77q0 74 21 132.5t57.5 106t84.5 86.5t102 71q-29 37 -47.5 78t-18.5 105q0 80 30.5 147t94 115.5
t161 74.5t230.5 26q79 0 155.5 -10.5t135.5 -30.5l-68 -239q-59 17 -117.5 24.5t-123.5 7.5q-47 0 -82.5 -7t-59 -20t-35.5 -30.5t-12 -38.5q0 -20 9.5 -36t34 -37.5t69 -52t116.5 -77.5q71 -47 116.5 -87t71 -77.5t36.5 -74t11 -77.5q0 -72 -20 -130.5t-56 -106
t-84.5 -86.5t-104.5 -73q32 -41 49 -80t17 -102q0 -82 -31 -148.5t-94.5 -114.5t-160.5 -74.5t-231 -26.5q-79 0 -155 11t-136 31zM628 702q-25 14 -38.5 23.5t-30.5 22.5q-61 -33 -107 -80.5t-46 -100.5q0 -19 5 -36.5t20 -36t41 -40.5t67 -49q24 -16 40 -27t35 -25
q63 34 108.5 82.5t45.5 100.5q0 21 -7.5 40t-23.5 38.5t-43.5 40.5t-65.5 47z" />
    <glyph glyph-name="dieresis" unicode="&#xa8;" horiz-adv-x="1152" 
d="M669 1419q0 -16 -2 -35t-5 -41q-9 -49 -24 -79.5t-37 -48t-55.5 -24t-79.5 -6.5q-68 0 -103 17.5t-35 65.5q0 17 1.5 35.5t5.5 41.5q9 49 23.5 79.5t37 48.5t56 24t79.5 6q67 0 102.5 -18t35.5 -66zM1130 1419q0 -16 -2 -35t-6 -41q-9 -49 -23.5 -79.5t-37 -48t-56 -24
t-79.5 -6.5q-68 0 -103 17.5t-35 65.5q0 17 2 35.5t6 41.5q8 49 23 79.5t37.5 48.5t56 24t79.5 6q68 0 103 -18t35 -66z" />
    <glyph glyph-name="copyright" unicode="&#xa9;" horiz-adv-x="1822" 
d="M1156 342q-62 -16 -127 -25.5t-139 -9.5q-79 0 -143.5 19t-109 58.5t-69 100.5t-24.5 144q0 30 4 64t11 71q21 119 64.5 203t106 139.5t144.5 81t184 25.5q66 0 117.5 -9t107.5 -25l-51 -181q-49 14 -85.5 20t-80.5 6q-48 0 -89 -14.5t-74.5 -46t-57 -83.5t-38.5 -127
q-4 -23 -7 -48.5t-3 -49.5q0 -46 10.5 -76.5t30.5 -48.5t47.5 -26t61.5 -8q48 0 98.5 6.5t104.5 21.5zM1748 820q0 -206 -60.5 -364.5t-170 -267t-263 -164.5t-339.5 -56q-183 0 -322.5 52.5t-234 147.5t-143.5 228.5t-49 294.5q0 205 60.5 364.5t170 268t263 164.5
t339.5 56q182 0 321.5 -52t234.5 -148t144 -229t49 -295zM1521 815q0 120 -28 219t-91.5 169.5t-165.5 109t-248 38.5q-145 0 -256.5 -40t-187.5 -120.5t-114 -203t-38 -291.5q0 -119 28.5 -218.5t92.5 -170t165.5 -108.5t246.5 -38q146 0 258 39.5t186.5 120.5t113 203.5
t38.5 290.5z" />
    <glyph glyph-name="ordfeminine" unicode="&#xaa;" horiz-adv-x="787" 
d="M93 595h637l-37 -191h-636zM534 797q-44 -45 -99.5 -72t-113.5 -27q-87 0 -143 56.5t-56 172.5q0 127 33 223.5t87 162t123.5 99.5t142.5 34q53 0 89.5 -14t61.5 -32l15 32h185l-138 -719h-187v84zM596 1240q-18 14 -37.5 20.5t-47.5 6.5q-35 0 -64.5 -28.5t-50 -73.5
t-32.5 -100t-12 -106q0 -40 13 -57t36 -17q31 0 71 34.5t81 92.5z" />
    <glyph glyph-name="guillemotleft" unicode="&#xab;" horiz-adv-x="1188" 
d="M574 514l394 456l222 -138l-279 -343l147 -350l-263 -115zM59 529l421 486l222 -137l-306 -374l162 -383l-264 -115z" />
    <glyph glyph-name="logicalnot" unicode="&#xac;" 
d="M150 709h849l-100 -508h-251l53 267h-597z" />
    <glyph glyph-name="uni00AD" unicode="&#xad;" horiz-adv-x="861" 
d="M147 687h631l-54 -280h-631z" />
    <glyph glyph-name="registered" unicode="&#xae;" horiz-adv-x="963" 
d="M482 1282h145q92 0 126.5 -26.5t34.5 -83.5q0 -51 -30 -83t-69 -45l40 -157h-125l-34 146h-21l-28 -146h-115zM597 1112q33 0 50.5 15t17.5 37q0 17 -9.5 24.5t-36.5 7.5h-38l-16 -84h32zM990 1110q0 -96 -30 -171.5t-85 -127.5t-132.5 -80t-173.5 -28q-79 0 -148 20.5
t-120 63.5t-81 109t-30 153q0 96 30 171t85 127.5t132 80t171 27.5q82 0 151 -20.5t120.5 -63.5t81 -108.5t29.5 -152.5zM857 1107q0 127 -67.5 181t-186.5 54q-139 0 -209 -71.5t-70 -218.5q0 -127 66.5 -181.5t184.5 -54.5q141 0 211.5 71.5t70.5 219.5z" />
    <glyph glyph-name="macron" unicode="&#xaf;" horiz-adv-x="1153" 
d="M456 1454h625l-44 -231h-627z" />
    <glyph glyph-name="degree" unicode="&#xb0;" horiz-adv-x="866" 
d="M938 1206q0 -82 -31 -148t-84.5 -111.5t-126.5 -70t-155 -24.5q-163 0 -258 80t-95 243q0 82 31.5 147.5t84.5 112t126 71t155 24.5q163 0 258 -80.5t95 -243.5zM701 1193q0 66 -33.5 103t-98.5 37t-103.5 -40t-38.5 -106q0 -64 32.5 -102t97.5 -38t104.5 40.5
t39.5 105.5z" />
    <glyph glyph-name="plusminus" unicode="&#xb1;" 
d="M187 941h307l66 334h253l-65 -334h310l-46 -240h-310l-65 -334h-254l65 334h-308zM51 240h872l-46 -240h-872z" />
    <glyph glyph-name="twosuperior" unicode="&#xb2;" horiz-adv-x="626" 
d="M118 896l144 120q65 54 109 96.5t44 85.5q0 22 -17.5 35.5t-56.5 13.5q-30 0 -56.5 -4.5t-59.5 -14.5l-9 180q53 16 112 24.5t124 8.5q117 0 184.5 -46.5t67.5 -131.5q0 -45 -12 -83.5t-37.5 -72.5t-63 -67t-89.5 -68l-88 -65h229l-37 -194h-524z" />
    <glyph glyph-name="threesuperior" unicode="&#xb3;" horiz-adv-x="597" 
d="M115 888q30 -7 64.5 -11.5t65.5 -4.5q60 0 93 16.5t33 51.5q0 13 -6.5 23t-25 16.5t-52 9.5t-86.5 3l33 165q102 0 143 18.5t41 51.5q0 21 -19 30t-62 9q-31 0 -63 -5t-64 -13l-7 167q50 11 104.5 18.5t107.5 7.5q136 0 197 -44t61 -114q0 -39 -12 -70t-32 -55.5
t-46.5 -42t-56.5 -28.5q50 -14 76.5 -51.5t26.5 -91.5q0 -58 -26 -103.5t-74.5 -77.5t-113.5 -48.5t-142 -16.5q-55 0 -104 4t-94 14z" />
    <glyph glyph-name="acute" unicode="&#xb4;" horiz-adv-x="800" 
d="M665 1585l161 -205l-400 -256l-122 154z" />
    <glyph glyph-name="mu" unicode="&#xb5;" horiz-adv-x="1157" 
d="M208 1021h318l-122 -631q-17 -86 -2.5 -117t58.5 -31q23 0 52.5 12.5t61 37.5t64.5 60t63 78l114 591h317l-197 -1021h-262l3 126q-24 -25 -54.5 -49.5t-62.5 -46.5t-67.5 -34.5t-69.5 -12.5q-40 0 -61.5 14t-37.5 32l-2 -2q-4 -52 -10 -96.5t-16 -96.5l-50 -263h-318z
" />
    <glyph glyph-name="paragraph" unicode="&#xb6;" horiz-adv-x="1213" 
d="M496 430q-178 2 -260 71t-82 226q0 46 6.5 99t18.5 114q26 132 74.5 225t121 150t172.5 82.5t232 25.5h567l-32 -158h-138l-309 -1591h-191l309 1591h-136l-309 -1591h-190z" />
    <glyph glyph-name="periodcentered" unicode="&#xb7;" horiz-adv-x="525" 
d="M448 607q0 -16 -2 -34.5t-6 -41.5q-8 -49 -22.5 -81.5t-37.5 -52t-58.5 -27.5t-88.5 -8q-82 0 -116.5 20.5t-34.5 74.5q0 17 1.5 36t5.5 42q9 49 23 81t38 51.5t59.5 27.5t88.5 8q81 0 115.5 -20.5t34.5 -75.5z" />
    <glyph glyph-name="cedilla" unicode="&#xb8;" horiz-adv-x="635" 
d="M93 0h182l-26 -80q47 -4 78.5 -17.5t50 -32.5t26 -42.5t7.5 -48.5q0 -61 -25.5 -104.5t-69.5 -70.5t-103 -39t-126 -12q-47 0 -85.5 4t-73.5 14l40 139q30 -6 56.5 -9.5t51.5 -3.5q48 0 78 13.5t30 45.5q0 21 -17.5 30.5t-66.5 9.5h-70z" />
    <glyph glyph-name="onesuperior" unicode="&#xb9;" horiz-adv-x="496" 
d="M296 1174l-111 -51l-60 145l256 158h197l-137 -713h-233z" />
    <glyph glyph-name="ordmasculine" unicode="&#xba;" horiz-adv-x="822" 
d="M869 1199q0 -30 -2.5 -58.5t-10.5 -66.5q-21 -103 -56.5 -176.5t-86.5 -120.5t-119 -69t-151 -22q-132 0 -206 60t-74 191q0 30 2.5 58.5t10.5 67.5q20 102 56 176t87 120.5t119 69t151 22.5q134 0 207 -59t73 -193zM638 1178q0 48 -17.5 71.5t-61.5 23.5q-28 0 -51 -11
t-42 -36t-34 -65t-26 -97q-5 -27 -9 -56t-4 -49q0 -49 18.5 -72.5t60.5 -23.5q27 0 51 11.5t42.5 36t33.5 64.5t27 97q4 27 8 56.5t4 49.5zM126 595h602l-37 -191h-601z" />
    <glyph glyph-name="guillemotright" unicode="&#xbb;" horiz-adv-x="1188" 
d="M792 517l-161 383l263 115l236 -522l-421 -487l-223 138zM277 532l-147 350l263 115l222 -490l-395 -456l-221 138z" />
    <glyph glyph-name="onequarter" unicode="&#xbc;" horiz-adv-x="1493" 
d="M1249 1482l156 -127l-1194 -1411l-158 124zM298 1174l-111 -51l-60 145l256 158h197l-137 -713h-233zM1084 117h-322l40 206l282 390h342l-78 -401h74l-36 -195h-75l-22 -117h-226zM1121 312l46 229l-169 -229h123z" />
    <glyph glyph-name="onehalf" unicode="&#xbd;" horiz-adv-x="1544" 
d="M1249 1482l156 -127l-1194 -1411l-158 124zM298 1174l-111 -51l-60 145l256 158h197l-137 -713h-233zM897 183l144 120q65 54 109 96.5t44 85.5q0 22 -17.5 35.5t-56.5 13.5q-30 0 -56.5 -4.5t-59.5 -14.5l-9 180q53 16 112 24.5t124 8.5q117 0 184.5 -46.5t67.5 -131.5
q0 -45 -12 -83.5t-37.5 -72.5t-63 -67t-89.5 -68l-88 -65h229l-37 -194h-524z" />
    <glyph glyph-name="threequarters" unicode="&#xbe;" horiz-adv-x="1578" 
d="M1336 1482l156 -127l-1194 -1411l-158 124zM1170 117h-322l40 206l282 390h342l-78 -401h74l-36 -195h-75l-22 -117h-226zM1207 312l46 229l-169 -229h123zM145 888q30 -7 64.5 -11.5t65.5 -4.5q60 0 93 16.5t33 51.5q0 13 -6.5 23t-25 16.5t-52 9.5t-86.5 3l33 165
q102 0 143 18.5t41 51.5q0 21 -19 30t-62 9q-31 0 -63 -5t-64 -13l-7 167q50 11 104.5 18.5t107.5 7.5q136 0 197 -44t61 -114q0 -39 -12 -70t-32 -55.5t-46.5 -42t-56.5 -28.5q50 -14 76.5 -51.5t26.5 -91.5q0 -58 -26 -103.5t-74.5 -77.5t-113.5 -48.5t-142 -16.5
q-55 0 -104 4t-94 14z" />
    <glyph glyph-name="questiondown" unicode="&#xbf;" horiz-adv-x="734" 
d="M583 656l-19 -122q-11 -65 -23.5 -112.5t-33.5 -88.5t-53.5 -80t-78.5 -86q-42 -43 -77 -79t-60.5 -68t-39.5 -63t-14 -64q0 -21 7 -38.5t23.5 -30t42.5 -20t65 -7.5q55 0 109 6t112 19l19 -233q-74 -18 -159.5 -27.5t-176.5 -9.5q-92 0 -162 18t-118 53t-71.5 87.5
t-23.5 120.5q0 75 16.5 132.5t48.5 107.5t78 97t104 102q45 38 79 72t60 67.5t44 71.5t28 86l19 89h255zM684 1030q0 -17 -2 -36t-5 -42q-9 -44 -22.5 -74.5t-35.5 -48t-56 -25.5t-82 -8q-72 0 -105.5 19t-33.5 65q0 17 2 35.5t5 41.5q9 45 22.5 75t35.5 48t56 26t83 8
q72 0 105 -19t33 -65z" />
    <glyph glyph-name="Agrave" unicode="&#xc0;" horiz-adv-x="1291" 
d="M574 1423h485l108 -1423h-331l-22 341h-421l-154 -341h-321zM811 591l-21 342q-2 37 -4.5 72t-5 70.5t-5 72t-3.5 75.5h-2q-18 -41 -33.5 -77.5t-31 -72.5t-32.5 -71.5t-35 -76.5l-148 -334h321zM659 1908l425 -214l-94 -179l-454 166z" />
    <glyph glyph-name="Aacute" unicode="&#xc1;" horiz-adv-x="1291" 
d="M574 1423h485l108 -1423h-331l-22 341h-421l-154 -341h-321zM811 591l-21 342q-2 37 -4.5 72t-5 70.5t-5 72t-3.5 75.5h-2q-18 -41 -33.5 -77.5t-31 -72.5t-32.5 -71.5t-35 -76.5l-148 -334h321zM1113 1898l82 -231l-479 -146l-75 182z" />
    <glyph glyph-name="Acircumflex" unicode="&#xc2;" horiz-adv-x="1291" 
d="M574 1423h485l108 -1423h-331l-22 341h-421l-154 -341h-321zM811 591l-21 342q-2 37 -4.5 72t-5 70.5t-5 72t-3.5 75.5h-2q-18 -41 -33.5 -77.5t-31 -72.5t-32.5 -71.5t-35 -76.5l-148 -334h321zM894 1895l319 -187l-114 -181l-253 118l-294 -118l-62 181z" />
    <glyph glyph-name="Atilde" unicode="&#xc3;" horiz-adv-x="1291" 
d="M574 1423h485l108 -1423h-331l-22 341h-421l-154 -341h-321zM811 591l-21 342q-2 37 -4.5 72t-5 70.5t-5 72t-3.5 75.5h-2q-18 -41 -33.5 -77.5t-31 -72.5t-32.5 -71.5t-35 -76.5l-148 -334h321zM447 1694q55 65 128 109.5t173 44.5q47 0 82 -11t63.5 -23.5t54.5 -23.5
t58 -11q37 0 75 17t71 51l113 -132q-55 -64 -128 -109t-172 -45q-50 0 -84 11t-62.5 23.5t-54 23.5t-57.5 11q-38 0 -76 -17t-71 -51z" />
    <glyph glyph-name="Adieresis" unicode="&#xc4;" horiz-adv-x="1291" 
d="M574 1423h485l108 -1423h-331l-22 341h-421l-154 -341h-321zM811 591l-21 342q-2 37 -4.5 72t-5 70.5t-5 72t-3.5 75.5h-2q-18 -41 -33.5 -77.5t-31 -72.5t-32.5 -71.5t-35 -76.5l-148 -334h321zM784 1779q0 -16 -2 -34.5t-5 -41.5q-10 -47 -23.5 -76.5t-37 -46t-54 -22
t-76.5 -5.5q-63 0 -97.5 18t-34.5 64q0 17 2 35.5t6 41.5q8 47 22.5 76t37 46t54 22.5t75.5 5.5q64 0 98.5 -18t34.5 -65zM1287 1779q0 -16 -2 -34.5t-5 -41.5q-10 -47 -24 -76.5t-37 -46t-54 -22t-76 -5.5q-63 0 -97.5 18t-34.5 64q0 17 2 35.5t5 41.5q9 47 23 76t37 46
t54.5 22.5t75.5 5.5q64 0 98.5 -18t34.5 -65z" />
    <glyph glyph-name="Aring" unicode="&#xc5;" horiz-adv-x="1291" 
d="M574 1423h485l108 -1423h-331l-22 341h-421l-154 -341h-321zM811 591l-21 342q-2 37 -4.5 72t-5 70.5t-5 72t-3.5 75.5h-2q-18 -41 -33.5 -77.5t-31 -72.5t-32.5 -71.5t-35 -76.5l-148 -334h321zM1137 1749q0 -56 -19.5 -102t-55.5 -80.5t-88.5 -53.5t-117.5 -19
q-53 0 -99.5 15.5t-81 44t-53.5 70.5t-19 98q0 54 19.5 101t56 81.5t87.5 53.5t114 19q111 0 184 -59.5t73 -168.5zM965 1742q0 41 -23.5 62t-68.5 21q-43 0 -70 -25.5t-27 -70.5q0 -41 23.5 -62.5t64.5 -21.5q45 0 73 25.5t28 71.5z" />
    <glyph glyph-name="AE" unicode="&#xc6;" horiz-adv-x="1787" 
d="M844 1423h1037l-49 -255h-505l-64 -319h471l-47 -250h-470l-68 -344h504l-48 -255h-828l68 341h-417l-231 -341h-350zM893 591l119 616h-4l-418 -616h303z" />
    <glyph glyph-name="Ccedilla" unicode="&#xc7;" horiz-adv-x="1028" 
d="M909 21q-72 -18 -150.5 -29.5t-163.5 -15.5h-10l-16 -54q92 -9 135 -45.5t43 -97.5q0 -62 -26 -106t-72 -71t-107 -40t-129 -13q-48 0 -90 4.5t-78 13.5l41 140q30 -6 60.5 -9.5t55.5 -3.5q55 0 86.5 13.5t31.5 48.5q0 21 -19 29.5t-75 8.5h-77l59 194
q-71 12 -128.5 41.5t-99 81t-63.5 127.5t-22 181q0 33 1 66t5.5 68t9.5 74.5t16 85.5q41 211 106.5 352t155 226.5t204 121.5t255.5 36q77 0 152.5 -12t143.5 -32l-75 -244q-59 16 -107 24.5t-105 8.5q-84 0 -148.5 -24.5t-114 -82t-84.5 -151.5t-61 -232
q-13 -70 -20 -129.5t-7 -119.5q0 -65 13 -108.5t40 -69.5t67 -36.5t96 -10.5q62 0 126 10t138 29z" />
    <glyph glyph-name="Egrave" unicode="&#xc8;" horiz-adv-x="1044" 
d="M308 1423h827l-50 -255h-505l-63 -319h471l-48 -250h-471l-66 -344h504l-49 -255h-827zM569 1908l425 -214l-94 -179l-454 166z" />
    <glyph glyph-name="Eacute" unicode="&#xc9;" horiz-adv-x="1044" 
d="M308 1423h827l-50 -255h-505l-63 -319h471l-48 -250h-471l-66 -344h504l-49 -255h-827zM1039 1898l82 -231l-479 -146l-75 182z" />
    <glyph glyph-name="Ecircumflex" unicode="&#xca;" horiz-adv-x="1044" 
d="M308 1423h827l-50 -255h-505l-63 -319h471l-48 -250h-471l-66 -344h504l-49 -255h-827zM814 1895l319 -187l-114 -181l-253 118l-294 -118l-62 181z" />
    <glyph glyph-name="Edieresis" unicode="&#xcb;" horiz-adv-x="1044" 
d="M308 1423h827l-50 -255h-505l-63 -319h471l-48 -250h-471l-66 -344h504l-49 -255h-827zM688 1779q0 -16 -2 -34.5t-5 -41.5q-10 -47 -23.5 -76.5t-37 -46t-54 -22t-76.5 -5.5q-63 0 -97.5 18t-34.5 64q0 17 2 35.5t6 41.5q8 47 22.5 76t37 46t54 22.5t75.5 5.5
q64 0 98.5 -18t34.5 -65zM1191 1779q0 -16 -2 -34.5t-5 -41.5q-10 -47 -24 -76.5t-37 -46t-54 -22t-76 -5.5q-63 0 -97.5 18t-34.5 64q0 17 2 35.5t5 41.5q9 47 23 76t37 46t54.5 22.5t75.5 5.5q64 0 98.5 -18t34.5 -65z" />
    <glyph glyph-name="Igrave" unicode="&#xcc;" horiz-adv-x="582" 
d="M308 1423h322l-277 -1423h-322zM345 1908l425 -214l-94 -179l-454 166z" />
    <glyph glyph-name="Iacute" unicode="&#xcd;" horiz-adv-x="582" 
d="M308 1423h322l-277 -1423h-322zM741 1898l82 -231l-479 -146l-75 182z" />
    <glyph glyph-name="Icircumflex" unicode="&#xce;" horiz-adv-x="582" 
d="M308 1423h322l-277 -1423h-322zM560 1895l319 -187l-114 -181l-253 118l-294 -118l-62 181z" />
    <glyph glyph-name="Idieresis" unicode="&#xcf;" horiz-adv-x="582" 
d="M308 1423h322l-277 -1423h-322zM913 1779q0 -16 -2 -34.5t-5 -41.5q-9 -47 -23 -76.5t-37 -46t-54 -22t-76 -5.5q-64 0 -98 18t-34 64q0 17 1.5 35.5t5.5 41.5q9 47 23 76t37 46t54 22.5t76 5.5q63 0 97.5 -18t34.5 -65zM469 1779q0 -16 -1.5 -34.5t-5.5 -41.5
q-9 -47 -23 -76.5t-37 -46t-54 -22t-76 -5.5q-64 0 -98 18t-34 64q0 17 1.5 35.5t6.5 41.5q8 47 22.5 76t37.5 46t54 22.5t76 5.5q62 0 96.5 -18t34.5 -65z" />
    <glyph glyph-name="Eth" unicode="&#xd0;" horiz-adv-x="1331" 
d="M188 620h-144l46 240h144l110 563h445q133 0 233 -20t166 -69t99 -131t33 -205q0 -65 -7.5 -129.5t-23.5 -153.5q-39 -201 -108.5 -337.5t-168.5 -221t-228 -120.5t-288 -36h-429zM526 255q79 0 148.5 20.5t125.5 73.5t98.5 143t68.5 232q11 64 19.5 119t8.5 111
q0 65 -14 106.5t-45 65t-77 33t-111 9.5h-132l-60 -308h251l-46 -240h-251l-71 -365h87z" />
    <glyph glyph-name="Ntilde" unicode="&#xd1;" horiz-adv-x="1422" 
d="M308 1423h404l200 -693q13 -48 23.5 -93.5t22 -91.5t22 -95t21.5 -105l2 2q7 111 17.5 204.5t26.5 178.5l136 693h287l-277 -1423h-406l-201 694q-14 46 -25 91.5t-21 92.5t-19 95.5t-17 105.5l-6 -2q-8 -109 -19 -204t-27 -179l-135 -694h-286zM501 1694
q55 65 128 109.5t173 44.5q47 0 82 -11t63.5 -23.5t54.5 -23.5t58 -11q37 0 75 17t71 51l113 -132q-55 -64 -128 -109t-172 -45q-50 0 -84 11t-62.5 23.5t-54 23.5t-57.5 11q-38 0 -76 -17t-71 -51z" />
    <glyph glyph-name="Ograve" unicode="&#xd2;" horiz-adv-x="1334" 
d="M1313 998q0 -63 -7.5 -132t-24.5 -155q-40 -202 -103.5 -343t-153 -229.5t-205 -128.5t-257.5 -40q-112 0 -199 26t-146.5 81t-90.5 141.5t-31 206.5q0 63 7.5 132.5t24.5 155.5q38 200 102 341.5t153.5 230t205 128.5t258.5 40q111 0 198 -25.5t146 -80.5t91 -141.5
t32 -207.5zM987 984q0 51 -9 90.5t-30.5 67t-55.5 42t-83 14.5q-66 0 -119.5 -27.5t-97.5 -88t-78.5 -154t-60.5 -225.5q-7 -30 -12.5 -64.5t-10 -68.5t-7.5 -67.5t-3 -62.5q0 -51 9.5 -91t31 -67.5t55 -42t83.5 -14.5q64 0 117.5 28t98.5 88t79 153.5t60 225.5
q6 31 11.5 65t11 68.5t8 67.5t2.5 63zM669 1908l425 -214l-94 -179l-454 166z" />
    <glyph glyph-name="Oacute" unicode="&#xd3;" horiz-adv-x="1334" 
d="M1313 998q0 -63 -7.5 -132t-24.5 -155q-40 -202 -103.5 -343t-153 -229.5t-205 -128.5t-257.5 -40q-112 0 -199 26t-146.5 81t-90.5 141.5t-31 206.5q0 63 7.5 132.5t24.5 155.5q38 200 102 341.5t153.5 230t205 128.5t258.5 40q111 0 198 -25.5t146 -80.5t91 -141.5
t32 -207.5zM987 984q0 51 -9 90.5t-30.5 67t-55.5 42t-83 14.5q-66 0 -119.5 -27.5t-97.5 -88t-78.5 -154t-60.5 -225.5q-7 -30 -12.5 -64.5t-10 -68.5t-7.5 -67.5t-3 -62.5q0 -51 9.5 -91t31 -67.5t55 -42t83.5 -14.5q64 0 117.5 28t98.5 88t79 153.5t60 225.5
q6 31 11.5 65t11 68.5t8 67.5t2.5 63zM1174 1898l82 -231l-479 -146l-75 182z" />
    <glyph glyph-name="Ocircumflex" unicode="&#xd4;" horiz-adv-x="1334" 
d="M1313 998q0 -63 -7.5 -132t-24.5 -155q-40 -202 -103.5 -343t-153 -229.5t-205 -128.5t-257.5 -40q-112 0 -199 26t-146.5 81t-90.5 141.5t-31 206.5q0 63 7.5 132.5t24.5 155.5q38 200 102 341.5t153.5 230t205 128.5t258.5 40q111 0 198 -25.5t146 -80.5t91 -141.5
t32 -207.5zM987 984q0 51 -9 90.5t-30.5 67t-55.5 42t-83 14.5q-66 0 -119.5 -27.5t-97.5 -88t-78.5 -154t-60.5 -225.5q-7 -30 -12.5 -64.5t-10 -68.5t-7.5 -67.5t-3 -62.5q0 -51 9.5 -91t31 -67.5t55 -42t83.5 -14.5q64 0 117.5 28t98.5 88t79 153.5t60 225.5
q6 31 11.5 65t11 68.5t8 67.5t2.5 63zM930 1895l319 -187l-114 -181l-253 118l-294 -118l-62 181z" />
    <glyph glyph-name="Otilde" unicode="&#xd5;" horiz-adv-x="1334" 
d="M1313 998q0 -63 -7.5 -132t-24.5 -155q-40 -202 -103.5 -343t-153 -229.5t-205 -128.5t-257.5 -40q-112 0 -199 26t-146.5 81t-90.5 141.5t-31 206.5q0 63 7.5 132.5t24.5 155.5q38 200 102 341.5t153.5 230t205 128.5t258.5 40q111 0 198 -25.5t146 -80.5t91 -141.5
t32 -207.5zM987 984q0 51 -9 90.5t-30.5 67t-55.5 42t-83 14.5q-66 0 -119.5 -27.5t-97.5 -88t-78.5 -154t-60.5 -225.5q-7 -30 -12.5 -64.5t-10 -68.5t-7.5 -67.5t-3 -62.5q0 -51 9.5 -91t31 -67.5t55 -42t83.5 -14.5q64 0 117.5 28t98.5 88t79 153.5t60 225.5
q6 31 11.5 65t11 68.5t8 67.5t2.5 63zM475 1694q55 65 128 109.5t173 44.5q47 0 82 -11t63.5 -23.5t54.5 -23.5t58 -11q37 0 75 17t71 51l113 -132q-55 -64 -128 -109t-172 -45q-50 0 -84 11t-62.5 23.5t-54 23.5t-57.5 11q-38 0 -76 -17t-71 -51z" />
    <glyph glyph-name="Odieresis" unicode="&#xd6;" horiz-adv-x="1334" 
d="M1313 998q0 -63 -7.5 -132t-24.5 -155q-40 -202 -103.5 -343t-153 -229.5t-205 -128.5t-257.5 -40q-112 0 -199 26t-146.5 81t-90.5 141.5t-31 206.5q0 63 7.5 132.5t24.5 155.5q38 200 102 341.5t153.5 230t205 128.5t258.5 40q111 0 198 -25.5t146 -80.5t91 -141.5
t32 -207.5zM987 984q0 51 -9 90.5t-30.5 67t-55.5 42t-83 14.5q-66 0 -119.5 -27.5t-97.5 -88t-78.5 -154t-60.5 -225.5q-7 -30 -12.5 -64.5t-10 -68.5t-7.5 -67.5t-3 -62.5q0 -51 9.5 -91t31 -67.5t55 -42t83.5 -14.5q64 0 117.5 28t98.5 88t79 153.5t60 225.5
q6 31 11.5 65t11 68.5t8 67.5t2.5 63zM813 1779q0 -16 -2 -34.5t-5 -41.5q-10 -47 -23.5 -76.5t-37 -46t-54 -22t-76.5 -5.5q-63 0 -97.5 18t-34.5 64q0 17 2 35.5t6 41.5q8 47 22.5 76t37 46t54 22.5t75.5 5.5q64 0 98.5 -18t34.5 -65zM1316 1779q0 -16 -2 -34.5t-5 -41.5
q-10 -47 -24 -76.5t-37 -46t-54 -22t-76 -5.5q-63 0 -97.5 18t-34.5 64q0 17 2 35.5t5 41.5q9 47 23 76t37 46t54.5 22.5t75.5 5.5q64 0 98.5 -18t34.5 -65z" />
    <glyph glyph-name="multiply" unicode="&#xd7;" 
d="M400 601l-232 292l196 156l224 -286l322 275l153 -180l-329 -279l231 -294l-194 -155l-227 287l-324 -275l-152 177z" />
    <glyph glyph-name="Oslash" unicode="&#xd8;" horiz-adv-x="1376" 
d="M198 100q-38 41 -70.5 117.5t-32.5 207.5q0 63 7.5 132.5t24.5 155.5q38 200 104 341.5t157.5 230t210.5 128.5t267 40q52 0 96.5 -7t81.5 -19l144 229l206 -105l-144 -225q48 -49 76.5 -129.5t28.5 -198.5q0 -30 -2 -63t-5.5 -69.5t-9.5 -74.5t-14 -80
q-40 -202 -105 -343t-157.5 -229.5t-211.5 -128.5t-267 -40q-50 0 -96.5 7t-84.5 21l-137 -218l-204 107zM915 1195q-12 8 -31.5 13.5t-54.5 5.5q-76 0 -137 -27.5t-108.5 -88.5t-82.5 -156.5t-63 -229.5q-10 -47 -16.5 -86t-10.5 -76q-4 -23 -6 -42t-3 -37t-1.5 -35
t-0.5 -35zM534 230q13 -11 33.5 -16t54.5 -5q75 0 136 27.5t109 89t83 156.5t62 230q11 46 17.5 85t10.5 77q4 23 5.5 42t3 37t1 35.5t-0.5 36.5z" />
    <glyph glyph-name="Ugrave" unicode="&#xd9;" horiz-adv-x="1314" 
d="M608 1423l-162 -833q-9 -44 -16 -91.5t-7 -102.5q0 -44 8 -75.5t28.5 -53t53.5 -32t79 -10.5q58 0 107.5 21.5t88.5 66.5t67.5 117.5t49.5 176.5l159 816h322l-161 -819q-34 -172 -86.5 -291.5t-132 -196t-189 -111.5t-257.5 -35q-229 0 -344 96.5t-115 300.5
q0 51 5.5 109t19.5 125l160 822h322zM665 1908l425 -214l-94 -179l-454 166z" />
    <glyph glyph-name="Uacute" unicode="&#xda;" horiz-adv-x="1314" 
d="M608 1423l-162 -833q-9 -44 -16 -91.5t-7 -102.5q0 -44 8 -75.5t28.5 -53t53.5 -32t79 -10.5q58 0 107.5 21.5t88.5 66.5t67.5 117.5t49.5 176.5l159 816h322l-161 -819q-34 -172 -86.5 -291.5t-132 -196t-189 -111.5t-257.5 -35q-229 0 -344 96.5t-115 300.5
q0 51 5.5 109t19.5 125l160 822h322zM1159 1898l82 -231l-479 -146l-75 182z" />
    <glyph glyph-name="Ucircumflex" unicode="&#xdb;" horiz-adv-x="1314" 
d="M608 1423l-162 -833q-9 -44 -16 -91.5t-7 -102.5q0 -44 8 -75.5t28.5 -53t53.5 -32t79 -10.5q58 0 107.5 21.5t88.5 66.5t67.5 117.5t49.5 176.5l159 816h322l-161 -819q-34 -172 -86.5 -291.5t-132 -196t-189 -111.5t-257.5 -35q-229 0 -344 96.5t-115 300.5
q0 51 5.5 109t19.5 125l160 822h322zM923 1895l319 -187l-114 -181l-253 118l-294 -118l-62 181z" />
    <glyph glyph-name="Udieresis" unicode="&#xdc;" horiz-adv-x="1314" 
d="M608 1423l-162 -833q-9 -44 -16 -91.5t-7 -102.5q0 -44 8 -75.5t28.5 -53t53.5 -32t79 -10.5q58 0 107.5 21.5t88.5 66.5t67.5 117.5t49.5 176.5l159 816h322l-161 -819q-34 -172 -86.5 -291.5t-132 -196t-189 -111.5t-257.5 -35q-229 0 -344 96.5t-115 300.5
q0 51 5.5 109t19.5 125l160 822h322zM803 1779q0 -16 -2 -34.5t-5 -41.5q-10 -47 -23.5 -76.5t-37 -46t-54 -22t-76.5 -5.5q-63 0 -97.5 18t-34.5 64q0 17 2 35.5t6 41.5q8 47 22.5 76t37 46t54 22.5t75.5 5.5q64 0 98.5 -18t34.5 -65zM1306 1779q0 -16 -2 -34.5t-5 -41.5
q-10 -47 -24 -76.5t-37 -46t-54 -22t-76 -5.5q-63 0 -97.5 18t-34.5 64q0 17 2 35.5t5 41.5q9 47 23 76t37 46t54.5 22.5t75.5 5.5q64 0 98.5 -18t34.5 -65z" />
    <glyph glyph-name="Yacute" unicode="&#xdd;" horiz-adv-x="1167" 
d="M421 517l-256 906h317l96 -313q13 -40 21.5 -72.5t16.5 -63.5t15 -63.5t14 -69.5h7q22 39 40 72.5t37.5 64.5t39 63t45.5 69l210 313h333l-619 -909l-100 -514h-317zM1077 1898l82 -231l-479 -146l-75 182z" />
    <glyph glyph-name="Thorn" unicode="&#xde;" horiz-adv-x="1123" 
d="M308 1423h322l-49 -253h83q133 0 223.5 -23t145.5 -64t79 -101.5t24 -135.5q0 -152 -49 -260.5t-136.5 -179t-206 -103t-258.5 -32.5h-80l-53 -271h-322zM525 518q53 0 105 16.5t91.5 51t63.5 87.5t24 125q0 64 -40 94.5t-143 30.5h-94l-78 -405h71z" />
    <glyph glyph-name="germandbls" unicode="&#xdf;" horiz-adv-x="1197" 
d="M-271 -199q40 -8 68.5 -9.5t58.5 -1.5q31 0 56.5 10t45.5 31t35 52.5t23 74.5l229 1183q22 111 66 187.5t110 123.5t157 68t208 21q101 0 175 -20.5t121 -57t68.5 -85.5t21.5 -108q0 -50 -10.5 -92.5t-31.5 -81t-50.5 -78.5t-67.5 -84q-23 -26 -42.5 -48.5t-32.5 -42.5
t-20.5 -39.5t-7.5 -41.5q0 -16 6.5 -32t19.5 -33t33 -38t47 -48q35 -35 59 -65t38.5 -59.5t21 -63.5t6.5 -77q0 -85 -27.5 -152.5t-82.5 -115t-141 -74t-200 -26.5q-26 0 -57 2.5t-63.5 6.5t-64.5 10t-59 14l48 230q48 -13 107.5 -20.5t107.5 -7.5q59 0 94 26.5t35 77.5
q0 19 -6 35.5t-19 33.5t-35.5 38.5t-54.5 52.5q-68 66 -99 115.5t-31 114.5q0 45 12.5 84.5t33.5 76t48.5 73.5t59.5 79q26 31 44 57.5t30 50.5t19 46t7 46q0 36 -24.5 56t-82.5 20q-73 0 -118.5 -47.5t-62.5 -135.5l-224 -1161q-24 -118 -63 -195.5t-98.5 -124.5
t-139 -67.5t-180.5 -20.5q-45 0 -86.5 5t-86.5 14z" />
    <glyph glyph-name="agrave" unicode="&#xe0;" horiz-adv-x="1136" 
d="M653 122q-31 -32 -68 -57.5t-76.5 -44.5t-82.5 -28.5t-83 -9.5q-129 0 -208 78.5t-79 241.5q0 183 47.5 320.5t126 230.5t179 140t205.5 47q74 0 126.5 -18.5t89.5 -44.5l18 44h262l-198 -1021h-261zM741 751q-27 19 -55 29.5t-67 10.5q-54 0 -97 -41t-74 -105
t-48.5 -142t-17.5 -153q0 -57 20.5 -82.5t54.5 -25.5q44 0 102.5 48t116.5 132zM556 1608l296 -339l-147 -142l-341 299z" />
    <glyph glyph-name="aacute" unicode="&#xe1;" horiz-adv-x="1136" 
d="M653 122q-31 -32 -68 -57.5t-76.5 -44.5t-82.5 -28.5t-83 -9.5q-129 0 -208 78.5t-79 241.5q0 183 47.5 320.5t126 230.5t179 140t205.5 47q74 0 126.5 -18.5t89.5 -44.5l18 44h262l-198 -1021h-261zM741 751q-27 19 -55 29.5t-67 10.5q-54 0 -97 -41t-74 -105
t-48.5 -142t-17.5 -153q0 -57 20.5 -82.5t54.5 -25.5q44 0 102.5 48t116.5 132zM879 1585l161 -205l-400 -256l-122 154z" />
    <glyph glyph-name="acircumflex" unicode="&#xe2;" horiz-adv-x="1136" 
d="M653 122q-31 -32 -68 -57.5t-76.5 -44.5t-82.5 -28.5t-83 -9.5q-129 0 -208 78.5t-79 241.5q0 183 47.5 320.5t126 230.5t179 140t205.5 47q74 0 126.5 -18.5t89.5 -44.5l18 44h262l-198 -1021h-261zM741 751q-27 19 -55 29.5t-67 10.5q-54 0 -97 -41t-74 -105
t-48.5 -142t-17.5 -153q0 -57 20.5 -82.5t54.5 -25.5q44 0 102.5 48t116.5 132zM741 1575l306 -279l-146 -167l-211 163l-267 -160l-97 162z" />
    <glyph glyph-name="atilde" unicode="&#xe3;" horiz-adv-x="1136" 
d="M653 122q-31 -32 -68 -57.5t-76.5 -44.5t-82.5 -28.5t-83 -9.5q-129 0 -208 78.5t-79 241.5q0 183 47.5 320.5t126 230.5t179 140t205.5 47q74 0 126.5 -18.5t89.5 -44.5l18 44h262l-198 -1021h-261zM741 751q-27 19 -55 29.5t-67 10.5q-54 0 -97 -41t-74 -105
t-48.5 -142t-17.5 -153q0 -57 20.5 -82.5t54.5 -25.5q44 0 102.5 48t116.5 132zM318 1302q25 36 57.5 71t71 63t84.5 46t95 18q43 0 74.5 -15t57.5 -31.5t48.5 -30.5t49.5 -14q35 0 67 25t60 63l132 -114q-25 -35 -58 -70.5t-72 -63.5t-84 -45t-94 -17q-45 0 -75.5 14
t-56 30.5t-48 31t-48.5 14.5q-37 0 -69.5 -25.5t-60.5 -61.5z" />
    <glyph glyph-name="adieresis" unicode="&#xe4;" horiz-adv-x="1136" 
d="M653 122q-31 -32 -68 -57.5t-76.5 -44.5t-82.5 -28.5t-83 -9.5q-129 0 -208 78.5t-79 241.5q0 183 47.5 320.5t126 230.5t179 140t205.5 47q74 0 126.5 -18.5t89.5 -44.5l18 44h262l-198 -1021h-261zM741 751q-27 19 -55 29.5t-67 10.5q-54 0 -97 -41t-74 -105
t-48.5 -142t-17.5 -153q0 -57 20.5 -82.5t54.5 -25.5q44 0 102.5 48t116.5 132zM647 1419q0 -16 -2 -35t-5 -41q-9 -49 -24 -79.5t-37 -48t-55.5 -24t-79.5 -6.5q-68 0 -103 17.5t-35 65.5q0 17 1.5 35.5t5.5 41.5q9 49 23.5 79.5t37 48.5t56 24t79.5 6q67 0 102.5 -18
t35.5 -66zM1108 1419q0 -16 -2 -35t-6 -41q-9 -49 -23.5 -79.5t-37 -48t-56 -24t-79.5 -6.5q-68 0 -103 17.5t-35 65.5q0 17 2 35.5t6 41.5q8 49 23 79.5t37.5 48.5t56 24t79.5 6q68 0 103 -18t35 -66z" />
    <glyph glyph-name="aring" unicode="&#xe5;" horiz-adv-x="1136" 
d="M653 122q-31 -32 -68 -57.5t-76.5 -44.5t-82.5 -28.5t-83 -9.5q-129 0 -208 78.5t-79 241.5q0 183 47.5 320.5t126 230.5t179 140t205.5 47q74 0 126.5 -18.5t89.5 -44.5l18 44h262l-198 -1021h-261zM741 751q-27 19 -55 29.5t-67 10.5q-54 0 -97 -41t-74 -105
t-48.5 -142t-17.5 -153q0 -57 20.5 -82.5t54.5 -25.5q44 0 102.5 48t116.5 132zM968 1390q0 -60 -20 -109.5t-56.5 -85.5t-87 -55t-109.5 -19q-109 0 -178 63t-69 169q0 59 20 109t56.5 86t86.5 55t109 19q109 0 178.5 -63.5t69.5 -168.5zM797 1383q0 41 -21 63t-63 22
q-46 0 -69.5 -29.5t-23.5 -78.5q0 -41 21 -63.5t61 -22.5q48 0 71.5 30t23.5 79z" />
    <glyph glyph-name="ae" unicode="&#xe6;" horiz-adv-x="1498" 
d="M554 426q-81 0 -133.5 -11.5t-84 -29.5t-44 -42.5t-12.5 -55.5q-1 -42 22 -62t67 -20q47 0 90.5 21t89.5 64q-2 30 -0.5 67t5.5 69zM591 622q3 11 6.5 23t6.5 25t6 25t3 22q0 15 -5.5 30t-19.5 26.5t-39.5 19t-67.5 7.5q-72 0 -140 -9t-141 -25l-13 235q89 20 172 31
t183 11q60 0 105.5 -8.5t79.5 -22t55 -30t32 -32.5q34 22 70 41.5t75 32t82.5 20t94.5 7.5q166 0 258.5 -72.5t92.5 -200.5q0 -96 -39 -167t-115.5 -118.5t-193.5 -71t-272 -23.5q-1 -8 -2.5 -17t-2.5 -18t-1.5 -18.5t-0.5 -14.5q0 -59 34.5 -82.5t109.5 -23.5q77 0 152 10
t157 32l6 -237q-76 -23 -170.5 -37t-199.5 -14q-71 0 -125 8.5t-95 24.5t-72 40t-52 54q-63 -52 -146.5 -87.5t-185.5 -35.5q-128 0 -200.5 70t-72.5 200q0 82 33 149.5t104 116.5t183.5 76.5t270.5 27.5zM907 602q146 -1 218 31t72 103q0 33 -23 52.5t-70 19.5
q-39 0 -69.5 -12.5t-54.5 -37.5t-42.5 -64t-30.5 -92z" />
    <glyph glyph-name="ccedilla" unicode="&#xe7;" horiz-adv-x="846" 
d="M736 15q-67 -16 -138 -26.5t-142 -10.5h-10l-18 -58q47 -4 78.5 -17.5t50 -32.5t26 -42.5t7.5 -48.5q0 -61 -25.5 -104.5t-69.5 -70.5t-103 -39t-127 -12q-46 0 -84.5 4t-73.5 14l40 139q30 -6 56.5 -9.5t51.5 -3.5q48 0 78 13.5t30 45.5q0 21 -17.5 30.5t-67.5 9.5h-68
l63 207q-43 11 -82 33.5t-69 60t-48.5 93.5t-18.5 136q0 20 1 39.5t2.5 40t5 44t9.5 54.5q25 143 76 245t124 167.5t165 96t197 30.5q73 0 136 -9t109 -24l-73 -233q-36 11 -69.5 15.5t-71.5 4.5q-49 0 -91 -14.5t-76 -48.5t-60.5 -88.5t-45.5 -136.5q-9 -39 -12.5 -74
t-3.5 -67q0 -77 39.5 -110.5t120.5 -33.5q43 0 89.5 6.5t101.5 20.5z" />
    <glyph glyph-name="egrave" unicode="&#xe8;" horiz-adv-x="1005" 
d="M826 29q-75 -23 -170.5 -37t-199.5 -14q-100 0 -175 17t-125 57.5t-75.5 106t-25.5 164.5q0 40 4 85t12 93q24 143 75.5 247.5t126 172t169 99t201.5 31.5q166 0 258.5 -72.5t92.5 -200.5q0 -97 -38.5 -169.5t-115.5 -120.5t-194.5 -71.5t-272.5 -23.5q-2 -15 -3.5 -32.5
t-1.5 -30.5q0 -57 34 -81.5t109 -24.5q76 0 151.5 10t157.5 32zM413 597q145 -1 218 32t73 107q0 33 -23 52.5t-70 19.5q-38 0 -69.5 -12.5t-55.5 -38t-42.5 -65.5t-30.5 -95zM568 1608l296 -339l-147 -142l-341 299z" />
    <glyph glyph-name="eacute" unicode="&#xe9;" horiz-adv-x="1005" 
d="M826 29q-75 -23 -170.5 -37t-199.5 -14q-100 0 -175 17t-125 57.5t-75.5 106t-25.5 164.5q0 40 4 85t12 93q24 143 75.5 247.5t126 172t169 99t201.5 31.5q166 0 258.5 -72.5t92.5 -200.5q0 -97 -38.5 -169.5t-115.5 -120.5t-194.5 -71.5t-272.5 -23.5q-2 -15 -3.5 -32.5
t-1.5 -30.5q0 -57 34 -81.5t109 -24.5q76 0 151.5 10t157.5 32zM413 597q145 -1 218 32t73 107q0 33 -23 52.5t-70 19.5q-38 0 -69.5 -12.5t-55.5 -38t-42.5 -65.5t-30.5 -95zM874 1585l161 -205l-400 -256l-122 154z" />
    <glyph glyph-name="ecircumflex" unicode="&#xea;" horiz-adv-x="1005" 
d="M826 29q-75 -23 -170.5 -37t-199.5 -14q-100 0 -175 17t-125 57.5t-75.5 106t-25.5 164.5q0 40 4 85t12 93q24 143 75.5 247.5t126 172t169 99t201.5 31.5q166 0 258.5 -72.5t92.5 -200.5q0 -97 -38.5 -169.5t-115.5 -120.5t-194.5 -71.5t-272.5 -23.5q-2 -15 -3.5 -32.5
t-1.5 -30.5q0 -57 34 -81.5t109 -24.5q76 0 151.5 10t157.5 32zM413 597q145 -1 218 32t73 107q0 33 -23 52.5t-70 19.5q-38 0 -69.5 -12.5t-55.5 -38t-42.5 -65.5t-30.5 -95zM741 1575l306 -279l-146 -167l-211 163l-267 -160l-97 162z" />
    <glyph glyph-name="edieresis" unicode="&#xeb;" horiz-adv-x="1005" 
d="M826 29q-75 -23 -170.5 -37t-199.5 -14q-100 0 -175 17t-125 57.5t-75.5 106t-25.5 164.5q0 40 4 85t12 93q24 143 75.5 247.5t126 172t169 99t201.5 31.5q166 0 258.5 -72.5t92.5 -200.5q0 -97 -38.5 -169.5t-115.5 -120.5t-194.5 -71.5t-272.5 -23.5q-2 -15 -3.5 -32.5
t-1.5 -30.5q0 -57 34 -81.5t109 -24.5q76 0 151.5 10t157.5 32zM413 597q145 -1 218 32t73 107q0 33 -23 52.5t-70 19.5q-38 0 -69.5 -12.5t-55.5 -38t-42.5 -65.5t-30.5 -95zM634 1419q0 -16 -2 -35t-5 -41q-9 -49 -24 -79.5t-37 -48t-55.5 -24t-79.5 -6.5q-68 0 -103 17.5
t-35 65.5q0 17 1.5 35.5t5.5 41.5q9 49 23.5 79.5t37 48.5t56 24t79.5 6q67 0 102.5 -18t35.5 -66zM1095 1419q0 -16 -2 -35t-6 -41q-9 -49 -23.5 -79.5t-37 -48t-56 -24t-79.5 -6.5q-68 0 -103 17.5t-35 65.5q0 17 2 35.5t6 41.5q8 49 23 79.5t37.5 48.5t56 24t79.5 6
q68 0 103 -18t35 -66z" />
    <glyph glyph-name="igrave" unicode="&#xec;" horiz-adv-x="567" 
d="M222 1021h319l-198 -1021h-318zM345 1608l296 -339l-147 -142l-341 299z" />
    <glyph glyph-name="iacute" unicode="&#xed;" horiz-adv-x="567" 
d="M222 1021h319l-198 -1021h-318zM561 1585l161 -205l-400 -256l-122 154z" />
    <glyph glyph-name="icircumflex" unicode="&#xee;" horiz-adv-x="567" 
d="M222 1021h319l-198 -1021h-318zM488 1575l306 -279l-146 -167l-211 163l-267 -160l-97 162z" />
    <glyph glyph-name="idieresis" unicode="&#xef;" horiz-adv-x="567" 
d="M222 1021h319l-198 -1021h-318zM412 1419q0 -16 -2 -35t-5 -41q-10 -49 -23.5 -79.5t-37 -47.5t-55 -23.5t-78.5 -6.5q-67 0 -102 18t-35 64q0 17 1.5 35.5t5.5 41.5q8 49 22.5 79t37.5 47t55 23.5t77 6.5q68 0 103.5 -17.5t35.5 -64.5zM827 1419q0 -16 -2 -35t-5 -41
q-9 -49 -23 -79.5t-37 -47.5t-55 -23.5t-78 -6.5q-68 0 -103 18t-35 64q0 17 2 35.5t5 41.5q8 49 22.5 79t37.5 47t55 23.5t78 6.5q68 0 103 -17.5t35 -64.5z" />
    <glyph glyph-name="eth" unicode="&#xf0;" horiz-adv-x="1087" 
d="M591 1339q-12 23 -30 53.5t-36 56.5l269 124q24 -32 40 -57t32 -51l194 92l97 -194l-204 -96q44 -115 67 -234.5t23 -234.5q0 -235 -51.5 -392.5t-134.5 -254.5t-188 -138.5t-215 -41.5q-191 0 -296 90.5t-105 269.5q0 166 43 290.5t115 206.5t165.5 123.5t193.5 41.5
q45 0 82 -10t62 -26l2 2q-7 47 -18 88.5t-29 91.5l-179 -85l-95 192zM488 218q56 0 100 39t75.5 103t48 148.5t16.5 174.5v11.5v10.5q-24 22 -55.5 34t-70.5 12q-57 0 -100 -34t-72 -90t-43 -127.5t-14 -144.5q0 -76 29 -106.5t86 -30.5z" />
    <glyph glyph-name="ntilde" unicode="&#xf1;" horiz-adv-x="1163" 
d="M222 1021h262l-3 -126q33 31 73 58.5t85 46.5t93.5 29.5t98.5 10.5q134 0 197 -65.5t63 -187.5q0 -27 -3.5 -57t-9.5 -64l-129 -666h-318l123 632q4 20 6.5 40t2.5 39q0 35 -16 51.5t-50 16.5q-48 0 -114 -49.5t-126 -138.5l-114 -591h-318zM338 1302q25 36 57.5 71
t71 63t84.5 46t95 18q43 0 74.5 -15t57.5 -31.5t48.5 -30.5t49.5 -14q35 0 67 25t60 63l132 -114q-25 -35 -58 -70.5t-72 -63.5t-84 -45t-94 -17q-45 0 -75.5 14t-56 30.5t-48 31t-48.5 14.5q-37 0 -69.5 -25.5t-60.5 -61.5z" />
    <glyph glyph-name="ograve" unicode="&#xf2;" horiz-adv-x="1101" 
d="M1046 692q0 -37 -4.5 -79.5t-14.5 -99.5q-27 -144 -77.5 -247t-124 -168.5t-167 -96.5t-206.5 -31q-93 0 -166.5 19.5t-124.5 62.5t-78.5 111t-27.5 166q0 37 4.5 79.5t14.5 100.5q27 143 77.5 246t124 169t167 96.5t206.5 30.5q93 0 166 -19.5t124.5 -62.5t79 -111
t27.5 -166zM726 669q0 74 -28 105t-86 31q-37 0 -70 -14.5t-59.5 -48.5t-49 -90.5t-39.5 -143.5q-5 -19 -8 -41t-5 -42.5t-4 -39t-2 -32.5q0 -74 28 -105.5t86 -31.5q37 0 69.5 14.5t59.5 48.5t49.5 90.5t39.5 143.5q3 20 7 40.5t6 42t4 40t2 33.5zM574 1608l296 -339
l-147 -142l-341 299z" />
    <glyph glyph-name="oacute" unicode="&#xf3;" horiz-adv-x="1101" 
d="M1046 692q0 -37 -4.5 -79.5t-14.5 -99.5q-27 -144 -77.5 -247t-124 -168.5t-167 -96.5t-206.5 -31q-93 0 -166.5 19.5t-124.5 62.5t-78.5 111t-27.5 166q0 37 4.5 79.5t14.5 100.5q27 143 77.5 246t124 169t167 96.5t206.5 30.5q93 0 166 -19.5t124.5 -62.5t79 -111
t27.5 -166zM726 669q0 74 -28 105t-86 31q-37 0 -70 -14.5t-59.5 -48.5t-49 -90.5t-39.5 -143.5q-5 -19 -8 -41t-5 -42.5t-4 -39t-2 -32.5q0 -74 28 -105.5t86 -31.5q37 0 69.5 14.5t59.5 48.5t49.5 90.5t39.5 143.5q3 20 7 40.5t6 42t4 40t2 33.5zM885 1585l161 -205
l-400 -256l-122 154z" />
    <glyph glyph-name="ocircumflex" unicode="&#xf4;" horiz-adv-x="1101" 
d="M1046 692q0 -37 -4.5 -79.5t-14.5 -99.5q-27 -144 -77.5 -247t-124 -168.5t-167 -96.5t-206.5 -31q-93 0 -166.5 19.5t-124.5 62.5t-78.5 111t-27.5 166q0 37 4.5 79.5t14.5 100.5q27 143 77.5 246t124 169t167 96.5t206.5 30.5q93 0 166 -19.5t124.5 -62.5t79 -111
t27.5 -166zM726 669q0 74 -28 105t-86 31q-37 0 -70 -14.5t-59.5 -48.5t-49 -90.5t-39.5 -143.5q-5 -19 -8 -41t-5 -42.5t-4 -39t-2 -32.5q0 -74 28 -105.5t86 -31.5q37 0 69.5 14.5t59.5 48.5t49.5 90.5t39.5 143.5q3 20 7 40.5t6 42t4 40t2 33.5zM753 1575l306 -279
l-146 -167l-211 163l-267 -160l-97 162z" />
    <glyph glyph-name="otilde" unicode="&#xf5;" horiz-adv-x="1101" 
d="M1046 692q0 -37 -4.5 -79.5t-14.5 -99.5q-27 -144 -77.5 -247t-124 -168.5t-167 -96.5t-206.5 -31q-93 0 -166.5 19.5t-124.5 62.5t-78.5 111t-27.5 166q0 37 4.5 79.5t14.5 100.5q27 143 77.5 246t124 169t167 96.5t206.5 30.5q93 0 166 -19.5t124.5 -62.5t79 -111
t27.5 -166zM726 669q0 74 -28 105t-86 31q-37 0 -70 -14.5t-59.5 -48.5t-49 -90.5t-39.5 -143.5q-5 -19 -8 -41t-5 -42.5t-4 -39t-2 -32.5q0 -74 28 -105.5t86 -31.5q37 0 69.5 14.5t59.5 48.5t49.5 90.5t39.5 143.5q3 20 7 40.5t6 42t4 40t2 33.5zM302 1302q25 36 57.5 71
t71 63t84.5 46t95 18q43 0 74.5 -15t57.5 -31.5t48.5 -30.5t49.5 -14q35 0 67 25t60 63l132 -114q-25 -35 -58 -70.5t-72 -63.5t-84 -45t-94 -17q-45 0 -75.5 14t-56 30.5t-48 31t-48.5 14.5q-37 0 -69.5 -25.5t-60.5 -61.5z" />
    <glyph glyph-name="odieresis" unicode="&#xf6;" horiz-adv-x="1101" 
d="M1046 692q0 -37 -4.5 -79.5t-14.5 -99.5q-27 -144 -77.5 -247t-124 -168.5t-167 -96.5t-206.5 -31q-93 0 -166.5 19.5t-124.5 62.5t-78.5 111t-27.5 166q0 37 4.5 79.5t14.5 100.5q27 143 77.5 246t124 169t167 96.5t206.5 30.5q93 0 166 -19.5t124.5 -62.5t79 -111
t27.5 -166zM726 669q0 74 -28 105t-86 31q-37 0 -70 -14.5t-59.5 -48.5t-49 -90.5t-39.5 -143.5q-5 -19 -8 -41t-5 -42.5t-4 -39t-2 -32.5q0 -74 28 -105.5t86 -31.5q37 0 69.5 14.5t59.5 48.5t49.5 90.5t39.5 143.5q3 20 7 40.5t6 42t4 40t2 33.5zM657 1419q0 -16 -2 -35
t-5 -41q-9 -49 -24 -79.5t-37 -48t-55.5 -24t-79.5 -6.5q-68 0 -103 17.5t-35 65.5q0 17 1.5 35.5t5.5 41.5q9 49 23.5 79.5t37 48.5t56 24t79.5 6q67 0 102.5 -18t35.5 -66zM1118 1419q0 -16 -2 -35t-6 -41q-9 -49 -23.5 -79.5t-37 -48t-56 -24t-79.5 -6.5q-68 0 -103 17.5
t-35 65.5q0 17 2 35.5t6 41.5q8 49 23 79.5t37.5 48.5t56 24t79.5 6q68 0 103 -18t35 -66z" />
    <glyph glyph-name="divide" unicode="&#xf7;" 
d="M125 709h912l-46 -241h-912zM663 293q0 -35 -7 -76q-9 -50 -24 -81t-38.5 -48t-57 -23.5t-80.5 -6.5q-68 0 -105 18.5t-37 72.5q0 16 2 34.5t5 41.5q9 49 24 80.5t38.5 48.5t57.5 23.5t80 6.5q70 0 106 -20t36 -71zM807 1029q0 -35 -8 -76q-8 -49 -23 -80t-39 -48.5
t-57.5 -23.5t-79.5 -6q-69 0 -105.5 18.5t-36.5 71.5q0 17 2 35.5t5 41.5q10 49 24.5 80.5t38.5 48.5t57.5 23t79.5 6q70 0 106 -20t36 -71z" />
    <glyph glyph-name="oslash" unicode="&#xf8;" horiz-adv-x="1140" 
d="M152 62q-38 35 -67.5 95.5t-29.5 169.5q0 37 4.5 80.5t14.5 101.5q27 143 78.5 246t126 169t172.5 96.5t218 30.5q31 0 64 -3.5t60 -10.5l120 184l185 -96l-109 -165q41 -40 68 -104t27 -162q0 -37 -4 -80.5t-14 -100.5q-27 -144 -78.5 -247t-126.5 -168.5t-173 -96.5
t-217 -31q-35 0 -63.5 2.5t-59.5 11.5l-126 -191l-185 97zM473 194q9 -6 18 -8t24 -2q52 0 95 15t78.5 52.5t61.5 101.5t44 160q6 31 9 55t7 46q3 24 4 44t1 43zM668 827q-8 5 -16.5 7.5t-24.5 2.5q-53 0 -96.5 -16t-78.5 -53.5t-61.5 -100.5t-44.5 -159q-6 -31 -9 -55
t-7 -46q-3 -23 -4.5 -44t-0.5 -43z" />
    <glyph glyph-name="ugrave" unicode="&#xf9;" horiz-adv-x="1165" 
d="M533 1021l-122 -631q-5 -21 -7 -41t-2 -39q0 -34 15 -51t49 -17q48 0 114.5 49.5t126.5 138.5l114 591h318l-197 -1021h-263l3 126q-33 -31 -72.5 -58.5t-84.5 -46.5t-94.5 -29t-98.5 -10q-134 0 -196.5 65t-62.5 187q0 28 3 57.5t10 63.5l129 666h318zM622 1608
l296 -339l-147 -142l-341 299z" />
    <glyph glyph-name="uacute" unicode="&#xfa;" horiz-adv-x="1165" 
d="M533 1021l-122 -631q-5 -21 -7 -41t-2 -39q0 -34 15 -51t49 -17q48 0 114.5 49.5t126.5 138.5l114 591h318l-197 -1021h-263l3 126q-33 -31 -72.5 -58.5t-84.5 -46.5t-94.5 -29t-98.5 -10q-134 0 -196.5 65t-62.5 187q0 28 3 57.5t10 63.5l129 666h318zM916 1585
l161 -205l-400 -256l-122 154z" />
    <glyph glyph-name="ucircumflex" unicode="&#xfb;" horiz-adv-x="1165" 
d="M533 1021l-122 -631q-5 -21 -7 -41t-2 -39q0 -34 15 -51t49 -17q48 0 114.5 49.5t126.5 138.5l114 591h318l-197 -1021h-263l3 126q-33 -31 -72.5 -58.5t-84.5 -46.5t-94.5 -29t-98.5 -10q-134 0 -196.5 65t-62.5 187q0 28 3 57.5t10 63.5l129 666h318zM784 1575
l306 -279l-146 -167l-211 163l-267 -160l-97 162z" />
    <glyph glyph-name="udieresis" unicode="&#xfc;" horiz-adv-x="1165" 
d="M533 1021l-122 -631q-5 -21 -7 -41t-2 -39q0 -34 15 -51t49 -17q48 0 114.5 49.5t126.5 138.5l114 591h318l-197 -1021h-263l3 126q-33 -31 -72.5 -58.5t-84.5 -46.5t-94.5 -29t-98.5 -10q-134 0 -196.5 65t-62.5 187q0 28 3 57.5t10 63.5l129 666h318zM684 1419
q0 -16 -2 -35t-5 -41q-9 -49 -24 -79.5t-37 -48t-55.5 -24t-79.5 -6.5q-68 0 -103 17.5t-35 65.5q0 17 1.5 35.5t5.5 41.5q9 49 23.5 79.5t37 48.5t56 24t79.5 6q67 0 102.5 -18t35.5 -66zM1145 1419q0 -16 -2 -35t-6 -41q-9 -49 -23.5 -79.5t-37 -48t-56 -24t-79.5 -6.5
q-68 0 -103 17.5t-35 65.5q0 17 2 35.5t6 41.5q8 49 23 79.5t37.5 48.5t56 24t79.5 6q68 0 103 -18t35 -66z" />
    <glyph glyph-name="yacute" unicode="&#xfd;" horiz-adv-x="1048" 
d="M102 1021h332l32 -417q4 -45 5 -84t1.5 -78t0 -81.5t-2.5 -92.5h4q19 50 35 91.5t32.5 80.5t34 78.5t38.5 85.5l196 417h342l-569 -1085q-58 -114 -108.5 -190t-110 -120.5t-134.5 -62t-183 -17.5q-46 0 -91 6.5t-87 15.5l46 235q38 -5 75.5 -8t69.5 -3q36 0 64 6.5
t53 21.5t47.5 42t45.5 69l39 69h-97zM868 1585l161 -205l-400 -256l-122 154z" />
    <glyph glyph-name="thorn" unicode="&#xfe;" horiz-adv-x="1134" 
d="M318 1511h318l-74 -377q-11 -54 -23.5 -101.5t-31.5 -104.5l2 -2q28 23 59 44t67.5 36.5t76.5 24.5t80 9q129 0 208 -79t79 -241q0 -181 -47.5 -320t-126 -232t-179 -139.5t-205.5 -46.5q-57 0 -101.5 12t-81.5 31l-2 -2q-4 -52 -8.5 -96t-16.5 -95l-49 -261h-320z
M393 270q27 -19 55.5 -29t66.5 -10q54 0 97.5 40.5t74.5 104.5t48.5 142t17.5 155q0 56 -20.5 81t-54.5 25q-44 0 -102.5 -48t-116.5 -132z" />
    <glyph glyph-name="ydieresis" unicode="&#xff;" horiz-adv-x="1048" 
d="M102 1021h332l32 -417q4 -45 5 -84t1.5 -78t0 -81.5t-2.5 -92.5h4q19 50 35 91.5t32.5 80.5t34 78.5t38.5 85.5l196 417h342l-569 -1085q-58 -114 -108.5 -190t-110 -120.5t-134.5 -62t-183 -17.5q-46 0 -91 6.5t-87 15.5l46 235q38 -5 75.5 -8t69.5 -3q36 0 64 6.5
t53 21.5t47.5 42t45.5 69l39 69h-97zM637 1419q0 -16 -2 -35t-5 -41q-9 -49 -24 -79.5t-37 -48t-55.5 -24t-79.5 -6.5q-68 0 -103 17.5t-35 65.5q0 17 1.5 35.5t5.5 41.5q9 49 23.5 79.5t37 48.5t56 24t79.5 6q67 0 102.5 -18t35.5 -66zM1098 1419q0 -16 -2 -35t-6 -41
q-9 -49 -23.5 -79.5t-37 -48t-56 -24t-79.5 -6.5q-68 0 -103 17.5t-35 65.5q0 17 2 35.5t6 41.5q8 49 23 79.5t37.5 48.5t56 24t79.5 6q68 0 103 -18t35 -66z" />
    <glyph glyph-name="OE" unicode="&#x152;" horiz-adv-x="1763" 
d="M977 1170q-35 14 -72 21t-96 7q-66 0 -119.5 -27.5t-97.5 -88t-78.5 -154t-60.5 -225.5q-7 -30 -12.5 -64.5t-10 -68.5t-7.5 -67.5t-3 -62.5q0 -51 9.5 -91t31 -67.5t55 -42t83.5 -14.5q63 0 110 8.5t92 24.5zM803 0q-59 -15 -112 -22.5t-129 -7.5q-112 0 -199 26
t-146.5 81t-90.5 141.5t-31 206.5q0 63 7.5 132.5t24.5 155.5q38 200 102 341.5t153.5 230t205 128.5t258.5 40q84 0 149 -8.5t113 -21.5h745l-49 -255h-505l-63 -319h471l-49 -250h-470l-67 -344h504l-48 -255h-774z" />
    <glyph glyph-name="oe" unicode="&#x153;" horiz-adv-x="1632" 
d="M726 669q0 74 -28 105t-86 31q-37 0 -70 -14.5t-59.5 -48.5t-49 -90.5t-39.5 -143.5q-5 -19 -8 -41t-5 -42.5t-4 -39.5t-2 -32q0 -38 7 -63.5t21.5 -42t35.5 -24t50 -7.5q37 0 69.5 14.5t59.5 48.5t49.5 90.5t39.5 143.5q3 20 7 40.5t6 42t4 40t2 33.5zM1454 29
q-76 -23 -171 -37t-199 -14q-119 0 -198 27t-120 89q-24 -26 -56 -49t-69.5 -39.5t-85 -26t-103.5 -9.5q-93 0 -166.5 19.5t-124.5 62.5t-78.5 111t-27.5 166q0 37 4.5 79.5t14.5 100.5q27 143 77.5 246t124 169t167 96.5t206.5 30.5q58 0 102.5 -10.5t79 -27.5t59 -41.5
t42.5 -52.5q57 63 141.5 97.5t197.5 34.5q165 0 258 -72.5t93 -200.5q0 -97 -39 -169.5t-116 -120.5t-194.5 -71.5t-271.5 -23.5q-3 -15 -4.5 -32.5t-1.5 -30.5q0 -57 34.5 -81.5t109.5 -24.5q76 0 151.5 10t157.5 32zM1040 597q145 -1 218.5 32t73.5 107q0 33 -23 52.5
t-71 19.5q-38 0 -69 -12.5t-55 -38t-43 -65.5t-31 -95z" />
    <glyph glyph-name="Ydieresis" unicode="&#x178;" horiz-adv-x="1167" 
d="M421 517l-256 906h317l96 -313q13 -40 21.5 -72.5t16.5 -63.5t15 -63.5t14 -69.5h7q22 39 40 72.5t37.5 64.5t39 63t45.5 69l210 313h333l-619 -909l-100 -514h-317zM732 1779q0 -16 -2 -34.5t-5 -41.5q-10 -47 -23.5 -76.5t-37 -46t-54 -22t-76.5 -5.5q-63 0 -97.5 18
t-34.5 64q0 17 2 35.5t6 41.5q8 47 22.5 76t37 46t54 22.5t75.5 5.5q64 0 98.5 -18t34.5 -65zM1235 1779q0 -16 -2 -34.5t-5 -41.5q-10 -47 -24 -76.5t-37 -46t-54 -22t-76 -5.5q-63 0 -97.5 18t-34.5 64q0 17 2 35.5t5 41.5q9 47 23 76t37 46t54.5 22.5t75.5 5.5
q64 0 98.5 -18t34.5 -65z" />
    <glyph glyph-name="apostrophe" unicode="&#x2bc;" horiz-adv-x="478" 
d="M272 1136q41 62 67 103.5t54 91.5q-16 6 -29 22t-13 46q0 14 1 28t4 30q13 76 47.5 104t118.5 28q65 0 90.5 -20t25.5 -62q0 -48 -7.5 -85.5t-28.5 -73.5q-16 -27 -41.5 -60t-57 -69t-67.5 -72t-71 -68z" />
    <glyph glyph-name="tilde" unicode="&#x2dc;" horiz-adv-x="1214" 
d="M368 1302q25 36 57.5 71t71 63t84.5 46t95 18q43 0 74.5 -15t57.5 -31.5t48.5 -30.5t49.5 -14q35 0 67 25t60 63l132 -114q-25 -35 -58 -70.5t-72 -63.5t-84 -45t-94 -17q-45 0 -75.5 14t-56 30.5t-48 31t-48.5 14.5q-37 0 -69.5 -25.5t-60.5 -61.5z" />
    <glyph glyph-name="endash" unicode="&#x2013;" 
d="M39 687h1063l-55 -280h-1062z" />
    <glyph glyph-name="emdash" unicode="&#x2014;" horiz-adv-x="2048" 
d="M209 687h1684l-54 -280h-1684z" />
    <glyph glyph-name="quoteleft" unicode="&#x2018;" horiz-adv-x="488" 
d="M620 1497q-46 -68 -78 -121t-64 -110q15 -4 29 -24t14 -51q0 -15 -1 -30.5t-5 -34.5q-9 -42 -21 -71t-33 -47t-53.5 -25.5t-79.5 -7.5q-70 0 -100 22.5t-30 70.5q0 52 9.5 95t30.5 84q19 33 49.5 72t67 81.5t78 83.5t80.5 77z" />
    <glyph glyph-name="quoteright" unicode="&#x2019;" horiz-adv-x="488" 
d="M159 1018q46 67 78.5 120.5t64.5 110.5q-16 5 -29.5 24.5t-13.5 50.5q0 15 1 30.5t5 34.5q7 43 20 71.5t34 46.5t53 25t80 7q70 0 100 -22t30 -70q0 -53 -9.5 -96t-31.5 -83q-17 -33 -48 -72t-68 -81.5t-78.5 -83.5t-80.5 -78z" />
    <glyph glyph-name="quotedblleft" unicode="&#x201c;" horiz-adv-x="905" 
d="M1037 1497q-45 -68 -77.5 -121t-64.5 -110q16 -4 29 -24t13 -51q0 -15 -1 -30.5t-4 -34.5q-9 -42 -21 -71t-33.5 -47t-53.5 -25.5t-79 -7.5q-71 0 -100.5 22.5t-29.5 70.5q0 52 9.5 95t30.5 84q18 33 49 72t68 81.5t78 83.5t80 77zM620 1497q-46 -68 -78 -121t-64 -110
q15 -4 29 -24t14 -51q0 -15 -1 -30.5t-5 -34.5q-9 -42 -21 -71t-33 -47t-53.5 -25.5t-79.5 -7.5q-70 0 -100 22.5t-30 70.5q0 52 9.5 95t30.5 84q19 33 49.5 72t67 81.5t78 83.5t80.5 77z" />
    <glyph glyph-name="quotedblright" unicode="&#x201d;" horiz-adv-x="905" 
d="M577 1018q45 67 77 120.5t64 110.5q-15 5 -28.5 24.5t-13.5 50.5q0 15 1 30.5t5 34.5q7 43 19.5 71.5t34 46.5t54 25t78.5 7q71 0 101 -22t30 -70q0 -53 -10 -96t-30 -83q-19 -33 -49.5 -72t-67.5 -81.5t-78 -83.5t-80 -78zM159 1018q46 67 78.5 120.5t64.5 110.5
q-16 5 -29.5 24.5t-13.5 50.5q0 15 1 30.5t5 34.5q7 43 20 71.5t34 46.5t53 25t80 7q70 0 100 -22t30 -70q0 -53 -9.5 -96t-31.5 -83q-17 -33 -48 -72t-68 -81.5t-78.5 -83.5t-80.5 -78z" />
    <glyph glyph-name="quotedblbase" unicode="&#x201e;" horiz-adv-x="901" 
d="M-84 -212q46 68 77.5 121t64.5 110q-15 4 -29 24t-14 51q0 15 1 30.5t5 34.5q7 42 20 71t34 47t53.5 25t79.5 7q70 0 100 -22t30 -71q0 -52 -9.5 -95t-30.5 -83q-18 -33 -49 -72.5t-67.5 -81.5t-78 -83t-80.5 -78zM333 -212q45 68 77.5 121t64.5 110q-16 4 -29 24t-13 51
q0 15 1 30.5t4 34.5q8 42 20.5 71t33.5 47t53.5 25t79.5 7q71 0 100.5 -22t29.5 -71q0 -52 -9.5 -95t-30.5 -83q-18 -33 -49 -72.5t-68 -81.5t-78 -83t-80 -78z" />
    <glyph glyph-name="bullet" unicode="&#x2022;" horiz-adv-x="936" 
d="M766 833q0 -25 -2 -50.5t-9 -57.5q-14 -72 -34 -120.5t-54 -77t-84 -41t-121 -12.5q-106 0 -158 32t-52 113q0 27 2 51t9 58q14 71 34.5 119t54.5 77.5t84 42t121 12.5q106 0 157.5 -34t51.5 -112z" />
    <glyph glyph-name="ellipsis" unicode="&#x2026;" horiz-adv-x="1583" 
d="M374 228q0 -16 -2 -34.5t-5 -41.5q-10 -49 -24 -81.5t-37 -52t-59 -27.5t-89 -8q-81 0 -116 20.5t-35 74.5q0 17 2 36t5 41q9 50 23.5 82t38 51t59 27.5t89.5 8.5q80 0 115 -20.5t35 -75.5zM904 228q0 -16 -1.5 -34.5t-5.5 -41.5q-9 -49 -23 -81.5t-37.5 -52t-58.5 -27.5
t-89 -8q-82 0 -116.5 20.5t-34.5 74.5q0 17 1.5 36t5.5 41q9 50 23 82t38 51t59.5 27.5t89.5 8.5q80 0 114.5 -20.5t34.5 -75.5zM1434 228q0 -16 -2 -34.5t-5 -41.5q-9 -49 -23.5 -81.5t-37.5 -52t-58.5 -27.5t-88.5 -8q-82 0 -117 20.5t-35 74.5q0 17 2 36t5 41
q9 50 23.5 82t38.5 51t59 27.5t89 8.5q80 0 115 -20.5t35 -75.5z" />
    <glyph glyph-name="guilsinglleft" unicode="&#x2039;" horiz-adv-x="700" 
d="M59 529l421 486l222 -137l-306 -374l162 -383l-264 -115z" />
    <glyph glyph-name="guilsinglright" unicode="&#x203a;" horiz-adv-x="700" 
d="M304 512l-162 383l264 115l235 -523l-421 -486l-221 137z" />
    <glyph glyph-name="Euro" unicode="&#x20ac;" 
d="M291 986q48 135 110 225t140.5 143.5t176 75.5t216.5 22q72 0 138 -10t116 -24l-74 -241q-57 13 -99.5 19t-97.5 6q-53 0 -98 -11.5t-83 -37.5t-68.5 -67t-55.5 -100h347l-41 -212h-378q-3 -14 -6.5 -31.5t-8.5 -38.5q-2 -13 -4 -26.5t-5 -24.5h378l-41 -213h-356
q0 -8 -0.5 -14t-0.5 -14q3 -56 18 -93t40.5 -58t63.5 -30t87 -9q59 0 108.5 7.5t118.5 24.5l7 -245q-68 -15 -142 -26t-147 -11q-111 0 -198.5 24t-146.5 76t-89 135t-30 202v15t1 16h-136l41 213h115l5 30t6 30q3 14 6 29.5t6 31.5h-114l42 212h133z" />
    <glyph glyph-name="trademark" unicode="&#x2122;" horiz-adv-x="1924" 
d="M384 1236h-213l37 187h648l-37 -187h-202l-103 -523h-232zM980 1423h349l16 -358l-3 -193l72 193l160 358h349l-73 -710h-225l47 361l34 183l-70 -181l-159 -363h-326l-20 361l1 183l-36 -183l-100 -361h-220z" />
    <glyph glyph-name="dotlessi" horiz-adv-x="567" 
d="M222 1021h319l-198 -1021h-318z" />
    <glyph glyph-name="grave.cap" horiz-adv-x="802" 
d="M488 1908l425 -214l-94 -179l-454 166z" />
    <glyph glyph-name="acute.cap" horiz-adv-x="800" 
d="M829 1898l82 -231l-479 -146l-75 182z" />
    <glyph glyph-name="circumflex" horiz-adv-x="1043" 
d="M774 1575l306 -279l-146 -167l-211 163l-267 -160l-97 162z" />
    <glyph glyph-name="circumflex.cap" horiz-adv-x="1043" 
d="M847 1895l319 -187l-114 -181l-253 118l-294 -118l-62 181z" />
    <glyph glyph-name="dieresis.narrow" horiz-adv-x="1152" 
d="M691 1419q0 -16 -2 -35t-5 -41q-10 -49 -23.5 -79.5t-37 -47.5t-55 -23.5t-78.5 -6.5q-67 0 -102 18t-35 64q0 17 1.5 35.5t5.5 41.5q8 49 22.5 79t37.5 47t55 23.5t77 6.5q68 0 103.5 -17.5t35.5 -64.5zM1106 1419q0 -16 -2 -35t-5 -41q-9 -49 -23 -79.5t-37 -47.5
t-55 -23.5t-78 -6.5q-68 0 -103 18t-35 64q0 17 2 35.5t5 41.5q8 49 22.5 79t37.5 47t55 23.5t78 6.5q68 0 103 -17.5t35 -64.5z" />
    <glyph glyph-name="dieresis.cap" horiz-adv-x="1147" 
d="M689 1779q0 -16 -2 -34.5t-5 -41.5q-10 -47 -23.5 -76.5t-37 -46t-54 -22t-76.5 -5.5q-63 0 -97.5 18t-34.5 64q0 17 2 35.5t6 41.5q8 47 22.5 76t37 46t54 22.5t75.5 5.5q64 0 98.5 -18t34.5 -65zM1192 1779q0 -16 -2 -34.5t-5 -41.5q-10 -47 -24 -76.5t-37 -46t-54 -22
t-76 -5.5q-63 0 -97.5 18t-34.5 64q0 17 2 35.5t5 41.5q9 47 23 76t37 46t54.5 22.5t75.5 5.5q64 0 98.5 -18t34.5 -65z" />
    <glyph glyph-name="dieresis.narrow.cap" horiz-adv-x="1147" 
d="M1161 1779q0 -16 -2 -34.5t-5 -41.5q-9 -47 -23 -76.5t-37 -46t-54 -22t-76 -5.5q-64 0 -98 18t-34 64q0 17 1.5 35.5t5.5 41.5q9 47 23 76t37 46t54 22.5t76 5.5q63 0 97.5 -18t34.5 -65zM717 1779q0 -16 -1.5 -34.5t-5.5 -41.5q-9 -47 -23 -76.5t-37 -46t-54 -22
t-76 -5.5q-64 0 -98 18t-34 64q0 17 1.5 35.5t6.5 41.5q8 47 22.5 76t37.5 46t54 22.5t76 5.5q62 0 96.5 -18t34.5 -65z" />
    <glyph glyph-name="tilde.cap" horiz-adv-x="1230" 
d="M419 1694q55 65 128 109.5t173 44.5q47 0 82 -11t63.5 -23.5t54.5 -23.5t58 -11q37 0 75 17t71 51l113 -132q-55 -64 -128 -109t-172 -45q-50 0 -84 11t-62.5 23.5t-54 23.5t-57.5 11q-38 0 -76 -17t-71 -51z" />
    <glyph glyph-name="ring" horiz-adv-x="850" 
d="M862 1390q0 -60 -20 -109.5t-56.5 -85.5t-87 -55t-109.5 -19q-109 0 -178 63t-69 169q0 59 20 109t56.5 86t86.5 55t109 19q109 0 178.5 -63.5t69.5 -168.5zM691 1383q0 41 -21 63t-63 22q-46 0 -69.5 -29.5t-23.5 -78.5q0 -41 21 -63.5t61 -22.5q48 0 71.5 30t23.5 79z
" />
    <glyph glyph-name="ring.cap" horiz-adv-x="864" 
d="M906 1749q0 -56 -19.5 -102t-55.5 -80.5t-88.5 -53.5t-117.5 -19q-53 0 -99.5 15.5t-81 44t-53.5 70.5t-19 98q0 54 19.5 101t56 81.5t87.5 53.5t114 19q111 0 184 -59.5t73 -168.5zM734 1742q0 41 -23.5 62t-68.5 21q-43 0 -70 -25.5t-27 -70.5q0 -41 23.5 -62.5
t64.5 -21.5q45 0 73 25.5t28 71.5z" />
    <glyph glyph-name="zeroinferior" horiz-adv-x="752" 
d="M674 477q0 -29 -2.5 -56t-11.5 -72q-20 -105 -53.5 -177t-81 -114.5t-109.5 -61t-138 -18.5q-58 0 -106.5 14t-83 44.5t-53.5 79.5t-19 120q0 28 2.5 56t11.5 74q20 105 53.5 175.5t81.5 113t109.5 61t137.5 18.5q57 0 106 -13.5t83.5 -44t53.5 -79.5t19 -120zM445 481
q0 42 -14.5 58.5t-44.5 16.5q-19 0 -37 -8.5t-33.5 -32t-29.5 -63t-26 -101.5l-10 -60t-5 -59q0 -42 14.5 -59t44.5 -17q19 0 37 9.5t33.5 32.5t29.5 63t26 102q5 31 10 59.5t5 58.5z" />
    <glyph glyph-name="oneinferior" horiz-adv-x="496" 
d="M159 461l-111 -51l-60 145l256 158h197l-137 -713h-233z" />
    <glyph glyph-name="twoinferior" horiz-adv-x="626" 
d="M-19 183l144 120q65 54 109 96.5t44 85.5q0 22 -17.5 35.5t-56.5 13.5q-30 0 -56.5 -4.5t-59.5 -14.5l-9 180q53 16 112 24.5t124 8.5q117 0 184.5 -46.5t67.5 -131.5q0 -45 -12 -83.5t-37.5 -72.5t-63 -67t-89.5 -68l-88 -65h229l-37 -194h-524z" />
    <glyph glyph-name="threeinferior" horiz-adv-x="597" 
d="M-24 175q30 -7 64.5 -11.5t65.5 -4.5q60 0 93 16.5t33 51.5q0 13 -6.5 23t-25 16.5t-52 9.5t-86.5 3l33 165q102 0 143 18.5t41 51.5q0 21 -19 30t-62 9q-31 0 -63 -5t-64 -13l-7 167q50 11 104.5 18.5t107.5 7.5q136 0 197 -44t61 -114q0 -39 -12 -70t-32 -55.5
t-46.5 -42t-56.5 -28.5q50 -14 76.5 -51.5t26.5 -91.5q0 -58 -26 -103.5t-74.5 -77.5t-113.5 -48.5t-142 -16.5q-55 0 -104 4t-94 14z" />
    <glyph glyph-name="fourinferior" horiz-adv-x="681" 
d="M271 117h-322l40 206l282 390h342l-78 -401h74l-36 -195h-75l-22 -117h-226zM308 312l46 229l-169 -229h123z" />
    <glyph glyph-name="fraction" horiz-adv-x="1080" 
d="M1100 1482l156 -127l-1194 -1411l-158 124z" />
    </font>
</defs>
</svg>
